<svg xmlns="http://www.w3.org/2000/svg" width="24" height="24"><g><path d="M5 0c-1.105 0-2 .895-2 2v19c0 1.105.895 2 2 2h14c1.105 0 2-.895 2-2v-19c0-1.105-.895-2-2-2h-14z" fill="#2980b9"/><path d="M6 0c-1.105 0-2 .895-2 2v18c0 1.105.895 2 2 2h12c1.105 0 2-.895 2-2v-18c0-1.105-.895-2-2-2h-12z" fill="#ecf0f1"/><path d="M15 14v7h4c1.105 0 2-.895 2-2v-5h-6z" fill="#2ecc71"/><path d="M15 9v7h4c1.105 0 2-.895 2-2v-5h-6z" fill="#e74c3c"/><path d="M15 4v7h4c1.105 0 2-.895 2-2v-5h-6z" fill="#f1c40f"/><path d="M15 0v2h4v4c1.105 0 2-.895 2-2v-2c0-1.105-.895-2-2-2h-4z" fill="#8e44ad"/><path d="M5 0c-1.105 0-2 .895-2 2v17h1v4c0-1.105.895-2 2-2h11.281c.74 0 1.373-.403 1.719-1v-18c0-1.105-.895-2-2-2h-12z" fill="#3498db"/><path d="M10.439 10.652c0 .509.108.911.323 1.205.22.294.516.441.888.441.369 0 .663-.147.882-.441.219-.298.329-.7.329-1.205 0-.501-.112-.897-.335-1.187-.22-.294-.516-.441-.888-.441-.364 0-.656.147-.876.441-.215.29-.323.685-.323 1.187m2.547 1.87c-.124.294-.325.524-.603.69-.273.161-.594.242-.963.242-.712 0-1.292-.257-1.739-.77-.443-.518-.665-1.191-.665-2.019 0-.828.224-1.501.671-2.019.447-.518 1.025-.777 1.733-.777.369 0 .69.083.963.249.277.166.478.395.603.69v-.814h1.298v4.305c.514-.079.917-.325 1.211-.739.294-.418.441-.953.441-1.603 0-.414-.06-.801-.18-1.162-.12-.364-.302-.698-.547-1-.393-.505-.886-.894-1.479-1.168-.588-.273-1.226-.41-1.913-.41-.48 0-.94.064-1.379.193-.439.124-.845.308-1.218.553-.613.406-1.091.932-1.435 1.578-.34.642-.509 1.338-.509 2.087 0 .617.11 1.197.329 1.739.224.538.545 1.015.963 1.429.414.406.888.714 1.423.926.538.215 1.112.323 1.721.323.522 0 1.044-.097 1.566-.292.522-.195.967-.458 1.336-.789l.665 1.006c-.518.402-1.083.708-1.696.919-.609.215-1.228.323-1.858.323-.766 0-1.489-.137-2.168-.41-.679-.269-1.284-.663-1.814-1.18-.53-.518-.934-1.116-1.211-1.795-.277-.683-.416-1.416-.416-2.199 0-.754.141-1.472.422-2.156.282-.683.683-1.284 1.205-1.802.522-.514 1.129-.911 1.82-1.193.696-.282 1.416-.422 2.162-.423.928 0 1.771.178 2.528.534.758.352 1.392.861 1.901 1.528.311.406.545.847.702 1.323.162.472.242.969.242 1.491 0 1.122-.338 1.994-1.013 2.616-.675.621-1.628.932-2.858.932h-.242v-.957" fill="#2980b9" style="text-align:end;line-height:125%;-inkscape-font-specification:Wingdings" font-size="12.723" letter-spacing="0" word-spacing="0" text-anchor="end" font-family="Wingdings"/><path d="M2 3v1h2v-1h-2zm0 3v1h2v-1h-2zm0 3v1h2v-1h-2zm0 3v1h2v-1h-2zm0 3v1h2v-1h-2zm0 3v1h2v-1h-2z" fill="#95a5a6"/><path d="M5 0c-1.105 0-2 .895-2 2v19c0 1.105.895 2 2 2h1c-1.105 0-2-.895-2-2v-19c0-1.105.895-2 2-2h-1z" fill="#2980b9"/><path d="M3 3v1h1v-1h-1zm0 3v1h1v-1h-1zm0 3v1h1v-1h-1zm0 3v1h1v-1h-1zm0 3v1h1v-1h-1zm0 3v1h1v-1h-1z" fill="#34495e"/><path d="M2 2v1h1v-1h-1zm0 3v1h1v-1h-1zm0 3v1h1v-1h-1zm0 3v1h1v-1h-1zm0 3v1h1v-1h-1zm0 3v1h1v-1h-1z" fill="#bdc3c7"/><path d="M2 2c-.552 0-1 .448-1 1s.448 1 1 1v-2z" fill="#bdc3c7"/><path d="M2 5c-.552 0-1 .448-1 1s.448 1 1 1v-2z" fill="#bdc3c7"/><path d="M2 8c-.552 0-1 .448-1 1s.448 1 1 1v-2z" fill="#bdc3c7"/><path d="M2 11c-.552 0-1 .448-1 1s.448 1 1 1v-2z" fill="#bdc3c7"/><path d="M2 14c-.552 0-1 .448-1 1s.448 1 1 1v-2z" fill="#bdc3c7"/><path d="M2 17c-.552 0-1 .448-1 1s.448 1 1 1v-2z" fill="#bdc3c7"/><path d="M3 2v1h1v-1h-1zm0 3v1h1v-1h-1zm0 3v1h1v-1h-1zm0 3v1h1v-1h-1zm0 3v1h1v-1h-1zm0 3v1h1v-1h-1z" fill="#95a5a6"/></g></svg>