<svg xmlns="http://www.w3.org/2000/svg" width="24" height="24"><g transform="translate(0 -1028.362)"><rect width="14" height="14" x="5" y="1030.362" fill="#e67e22"/><path d="M4 1033.362v16h16v-16h-16z" fill="#f1c40f"/><path d="M6 1031.362l-2 2h2v-2z" fill="#f39c12"/><path d="M5 1030.362v2l1-1z" fill="#f1c40f"/><path d="M18 1031.362l2 2h-2v-2z" fill="#f39c12"/><path d="M19 1030.362v2l-1-1z" fill="#f1c40f"/><path d="M12 1045.362c2.761 0 5-2.239 5-5v-3h-1v3c0 2.209-1.791 4-4 4s-4-1.791-4-4v-3h-1v3c0 2.761 2.239 5 5 5z" fill="#f39c12"/><path d="M12 1044.362c-2.761 0-5-2.239-5-5v-3h1v3c0 2.209 1.791 4 4 4s4-1.791 4-4v-3h1v3c0 2.761-2.239 5-5 5z" fill="#ecf0f1"/><path d="M17 1035.362v1h-1v-1h1zm-9 0v1h-1v-1h1z" fill="#f39c12"/><path d="M4 1049.362l1 1h14l1-1h-16z" fill="#f39c12"/></g></svg>