<?xml version="1.0" encoding="UTF-8" standalone="no"?>
<svg xmlns:rdf="http://www.w3.org/1999/02/22-rdf-syntax-ns#" xmlns="http://www.w3.org/2000/svg" height="24" width="24" version="1.1" xmlns:cc="http://creativecommons.org/ns#" xmlns:dc="http://purl.org/dc/elements/1.1/">
 <g transform="translate(0 -1028.4)">
  <path d="m5 1037.4v13h14v-13h-14z" fill="#f39c12"/>
  <path d="m6 1036.4-1 1h14l-1-1h-12z" fill="#e67e22"/>
  <path d="m12 1030.4c-2.7614 0-5 2.2-5 5v3h1v-3c0-2.2 1.7909-4 4-4 2.209 0 4 1.8 4 4v3h1v-3c0-2.8-2.239-5-5-5z" fill="#e74c3c"/>
  <rect height="1" width="14" y="1050.4" x="5" fill="#e67e22"/>
  <path d="m7 1038.4v1h1v-1h-1zm9 0v1h1v-1h-1z" fill="#c0392b"/>
 </g>
</svg>
