<svg xmlns="http://www.w3.org/2000/svg" width="24" height="24"><g transform="translate(0 -1028.362)"><rect width=".613" height="1.174" x="18.745" y="1.498" transform="translate(0 1028.362)" fill="#c0392b"/><path d="M2 1038.362v11c0 1.105.895 2 2 2h16c1.105 0 2-.895 2-2v-11h-20z" fill="#f39c12"/><path d="M2 1037.362v11c0 1.105.895 2 2 2h16c1.105 0 2-.895 2-2v-11h-20z" fill="#f1c40f"/><path d="M19.071 1030.291c-.391-.39-1.024-.39-1.414 0l-6.364 6.364c-.391.39-.391 1.024 0 1.414.391.39 1.024.39 1.414 0l6.364-6.364c.391-.39.391-1.024 0-1.414z" fill="#c0392b"/><rect width="20" height="3" x="2" y="1037.362" fill="#f39c12"/><path d="M2 1035.362c-1.105 0-2 .895-2 2s.895 2 2 2h20c1.105 0 2-.895 2-2s-.895-2-2-2h-20z" fill="#f1c40f"/><path d="M19.071 1029.291c-.391-.39-1.024-.39-1.414 0l-6.364 6.364c-.391.39-.391 1.024 0 1.414.391.39 1.024.39 1.414 0l6.364-6.364c.391-.39.391-1.024 0-1.414z" fill="#e74c3c"/><g><path d="M4 1042.362v1.5c0 .276.224.5.5.5s.5-.224.5-.5v-1.5h-1z" fill="#f39c12"/><path d="M4.5 1041.362c-.276 0-.5.224-.5.5v.5h1v-.5c0-.276-.224-.5-.5-.5z" fill="#e67e22"/></g><g><path d="M4 1046.362v1.5c0 .276.224.5.5.5s.5-.224.5-.5v-1.5h-1z" fill="#f39c12"/><path d="M4.5 1045.362c-.276 0-.5.224-.5.5v.5h1v-.5c0-.276-.224-.5-.5-.5z" fill="#e67e22"/></g><g><path d="M6 1042.362v1.5c0 .276.224.5.5.5s.5-.224.5-.5v-1.5h-1z" fill="#f39c12"/><path d="M6.5 1041.362c-.276 0-.5.224-.5.5v.5h1v-.5c0-.276-.224-.5-.5-.5z" fill="#e67e22"/></g><g><path d="M6 1046.362v1.5c0 .276.224.5.5.5s.5-.224.5-.5v-1.5h-1z" fill="#f39c12"/><path d="M6.5 1045.362c-.276 0-.5.224-.5.5v.5h1v-.5c0-.276-.224-.5-.5-.5z" fill="#e67e22"/></g><g><path d="M8 1042.362v1.5c0 .276.224.5.5.5s.5-.224.5-.5v-1.5h-1z" fill="#f39c12"/><path d="M8.5 1041.362c-.276 0-.5.224-.5.5v.5h1v-.5c0-.276-.224-.5-.5-.5z" fill="#e67e22"/></g><g><path d="M10 1042.362v1.5c0 .276.224.5.5.5s.5-.224.5-.5v-1.5h-1z" fill="#f39c12"/><path d="M10.5 1041.362c-.276 0-.5.224-.5.5v.5h1v-.5c0-.276-.224-.5-.5-.5z" fill="#e67e22"/></g><g><path d="M10 1046.362v1.5c0 .276.224.5.5.5s.5-.224.5-.5v-1.5h-1z" fill="#f39c12"/><path d="M10.5 1045.362c-.276 0-.5.224-.5.5v.5h1v-.5c0-.276-.224-.5-.5-.5z" fill="#e67e22"/></g><g><path d="M8 1046.362v1.5c0 .276.224.5.5.5s.5-.224.5-.5v-1.5h-1z" fill="#f39c12"/><path d="M8.5 1045.362c-.276 0-.5.224-.5.5v.5h1v-.5c0-.276-.224-.5-.5-.5z" fill="#e67e22"/></g><g><path d="M13 1042.362v1.5c0 .276.224.5.5.5s.5-.224.5-.5v-1.5h-1z" fill="#f39c12"/><path d="M13.5 1041.362c-.276 0-.5.224-.5.5v.5h1v-.5c0-.276-.224-.5-.5-.5z" fill="#e67e22"/></g><g><path d="M13 1046.362v1.5c0 .276.224.5.5.5s.5-.224.5-.5v-1.5h-1z" fill="#f39c12"/><path d="M13.5 1045.362c-.276 0-.5.224-.5.5v.5h1v-.5c0-.276-.224-.5-.5-.5z" fill="#e67e22"/></g><g><path d="M15 1042.362v1.5c0 .276.224.5.5.5s.5-.224.5-.5v-1.5h-1z" fill="#f39c12"/><path d="M15.5 1041.362c-.276 0-.5.224-.5.5v.5h1v-.5c0-.276-.224-.5-.5-.5z" fill="#e67e22"/></g><g><path d="M15 1046.362v1.5c0 .276.224.5.5.5s.5-.224.5-.5v-1.5h-1z" fill="#f39c12"/><path d="M15.5 1045.362c-.276 0-.5.224-.5.5v.5h1v-.5c0-.276-.224-.5-.5-.5z" fill="#e67e22"/></g><g><path d="M17 1042.362v1.5c0 .276.224.5.5.5s.5-.224.5-.5v-1.5h-1z" fill="#f39c12"/><path d="M17.5 1041.362c-.276 0-.5.224-.5.5v.5h1v-.5c0-.276-.224-.5-.5-.5z" fill="#e67e22"/></g><g><path d="M19 1042.362v1.5c0 .276.224.5.5.5s.5-.224.5-.5v-1.5h-1z" fill="#f39c12"/><path d="M19.5 1041.362c-.276 0-.5.224-.5.5v.5h1v-.5c0-.276-.224-.5-.5-.5z" fill="#e67e22"/></g><g><path d="M19 1046.362v1.5c0 .276.224.5.5.5s.5-.224.5-.5v-1.5h-1z" fill="#f39c12"/><path d="M19.5 1045.362c-.276 0-.5.224-.5.5v.5h1v-.5c0-.276-.224-.5-.5-.5z" fill="#e67e22"/></g><g><path d="M17 1046.362v1.5c0 .276.224.5.5.5s.5-.224.5-.5v-1.5h-1z" fill="#f39c12"/><path d="M17.5 1045.362c-.276 0-.5.224-.5.5v.5h1v-.5c0-.276-.224-.5-.5-.5z" fill="#e67e22"/></g></g></svg>