<svg xmlns="http://www.w3.org/2000/svg" width="24" height="24"><g><path d="M4 5v15c0 1.105.895 2 2 2h10c1.105 0 2-.895 2-2v-15h-14z" fill="#f1c40f"/><path d="M4 2v18c0 1.105.895 2 2 2h10c1.105 0 2-.895 2-2v-18h-1v18c0 .552-.448 1-1 1h-10c-.552 0-1-.448-1-1v-18h-1z" fill="#bdc3c7"/><path d="M18 6v2h1c.552 0 1 .448 1 1v6c0 .552-.448 1-1 1h-1v2h2c1.105 0 2-.895 2-2v-8c0-1.105-.895-2-2-2h-2z" fill="#ecf0f1"/><path d="M19 6c1.105 0 2 .895 2 2v8c0 1.105-.895 2-2 2h1c1.105 0 2-.895 2-2v-8c0-1.105-.895-2-2-2h-1z" fill="#bdc3c7"/><path d="M4 19v1c0 1.105.895 2 2 2h10c1.105 0 2-.895 2-2v-1c0 1.105-.895 2-2 2h-10c-1.105 0-2-.895-2-2z" fill="#95a5a6"/><path d="M7 7c-.552 0-1 .448-1 1v11c0 .552.448 1 1 1v-13zm4 0c-.552 0-1 .448-1 1v11c0 .552.448 1 1 1v-13zm4 0c-.552 0-1 .448-1 1v11c0 .552.448 1 1 1v-13z" fill="#f39c12"/><path d="M5 3v4.407c.213.115.46.188.719.188.701 0 1.273-.476 1.438-1.125.172.069.366.125.563.125.183 0 .369-.034.531-.094l-.031.094c0 .552.448 1 1 1 .252 0 .481-.097.656-.25.239.162.533.25.844.25.666 0 1.211-.43 1.406-1.031l.094.031c.552 0 1-.448 1-1 0 .552.448 1 1 1s1-.448 1-1h.094c.204.586.75 1 1.406 1l.281-.031v-3.564h-12z" fill="#ecf0f1"/><path d="M5 5v15c0 .552.448 1 1 1h10c.552 0 1-.448 1-1v-15h-1v15h-10v-15h-1z" fill="#ecf0f1"/></g></svg>