<svg xmlns="http://www.w3.org/2000/svg" width="24" height="24"><g><path d="M6 3a3 3 0 1 1-6 0 3 3 0 1 1 6 0z" transform="translate(0 -1028.362) translate(9 1045.362)" fill="#f39c12"/><path style="text-align:end;line-height:125%;-inkscape-font-specification:Wingdings" d="M12 0c-.828 0-1.5.672-1.5 1.5 0 .183.034.369.094.531-1.361.198-2.453.688-3.25 1.469-.846.829-1.25 1.965-1.25 3.375 0 2.239-.458 4.381-1.313 6.406-.855 2.017-2.107 3.686-3.781 5.063 0 .444.165.832.5 1.156.335.325.729.5 1.188.5h18.626c.458 0 .853-.175 1.188-.5.335-.325.5-.712.5-1.156-1.675-1.376-2.926-3.046-3.781-5.063-.855-2.026-1.313-4.167-1.313-6.406 0-1.41-.404-2.546-1.25-3.375-.797-.781-1.889-1.271-3.25-1.469.06-.162.094-.348.094-.531 0-.828-.672-1.5-1.5-1.5z" font-size="14" letter-spacing="0" word-spacing="0" text-anchor="end" fill="#f1c40f" font-family="Wingdings"/><path d="M12 17c-1.657 0-3 1.343-3 3s1.343 3 3 3v-6z" fill="#e67e22"/><path style="text-align:end;line-height:125%;-inkscape-font-specification:Wingdings" d="M12 0c-.828 0-1.5.672-1.5 1.5 0 .183.034.369.094.531-1.361.198-2.453.688-3.25 1.469-.846.829-1.25 1.965-1.25 3.375 0 2.239-.458 4.381-1.313 6.406-.855 2.017-2.107 3.686-3.781 5.063 0 .444.165.832.5 1.156.335.325.729.5 1.188.5h9.314v-20z" font-size="14" letter-spacing="0" word-spacing="0" text-anchor="end" fill="#f39c12" font-family="Wingdings"/><path d="M9 20c0 .355.074.683.188 1h5.625c.114-.317.188-.645.188-1h-6z" fill="#e67e22"/></g></svg>