<svg xmlns="http://www.w3.org/2000/svg" width="24" height="24"><g><path d="M24 12a12 12 0 1 1-24 0 12 12 0 1 1 24 0z" transform="matrix(.917 0 0 .917 1 2)" fill="#e67e22"/><path d="M5-57v2h-3v2h1v7h-1v2h3v2h1v-2h2.5c1.933 0 3.5-1.343 3.5-3 0-1.22-.78-2.531-2-3 .647-.55 1-1.084 1-2 0-1.657-1.343-3-3-3h-2v-2h-1zm0 4h3c.552 0 1 .448 1 1s-.448 1-1 1h-3v-2zm0 4h3c1.105 0 2 .672 2 1.5s-.895 1.5-2 1.5h-3v-3z" fill="#e67e22"/><path d="M24 12a12 12 0 1 1-24 0 12 12 0 1 1 24 0z" transform="matrix(.917 0 0 .917 83 -33)" fill="#f1c40f"/><path d="M92-29v2h-3v2h1v7h-1v2h3v2h1v-2h1v2h1v-2h.5c1.933 0 3.5-1.343 3.5-3 0-1.22-.78-2.531-2-3 .647-.55 1-1.084 1-2 0-1.657-1.343-3-3-3v-2h-1v2h-1v-2zm0 4h3c.552 0 1 .448 1 1s-.448 1-1 1h-3zm0 4h3c1.105 0 2 .672 2 1.5s-.895 1.5-2 1.5h-3z" fill="#e67e22"/><path d="M24 12a12 12 0 1 1-24 0 12 12 0 1 1 24 0z" transform="matrix(.833 0 0 .833 2 2)" fill="#f1c40f"/><path d="M10 4v2h-3v2h1v7h-1v2h3v2h1v-2h2v2h1v-2h.5c1.933 0 3.5-1.343 3.5-3 0-1.22-.78-2.531-2-3 .647-.55 1-1.084 1-2 0-1.657-1.343-3-3-3v-2h-1v2h-2v-2h-1zm0 4h4c.552 0 1 .448 1 1s-.448 1-1 1h-4v-2zm0 4h4c1.105 0 2 .672 2 1.5s-.895 1.5-2 1.5h-4v-3z" fill="#f39c12"/><path d="M7 7v1h1v-1h-1zm3 0v1h4c.365 0 .669.208.844.5.09-.15.156-.313.156-.5 0-.552-.448-1-1-1h-4zm0 4v1h4c.873 0 1.602.416 1.875 1 .073-.155.125-.326.125-.5 0-.828-.895-1.5-2-1.5h-4zm7.938 2.469c-.269 1.428-1.696 2.531-3.438 2.531h-.5v1h.5c1.933 0 3.5-1.343 3.5-3 0-.176-.031-.355-.063-.531zm-10.938 2.531v1h3v-1h-3zm4 0v1h2v-1h-2zm-1 2v1h1v-1h-1zm3 0v1h1v-1h-1z" fill="#e67e22"/><path d="M12 1c-6.075 0-11 4.925-11 11s4.925 11 11 11 11-4.925 11-11-4.925-11-11-11zm0 2c4.971 0 9 4.029 9 9s-4.029 9-9 9-9-4.029-9-9 4.029-9 9-9z" fill="#f39c12"/></g></svg>