<?xml version="1.0" encoding="UTF-8" standalone="no"?>
<svg xmlns:rdf="http://www.w3.org/1999/02/22-rdf-syntax-ns#" xmlns="http://www.w3.org/2000/svg" height="24" width="24" version="1.1" xmlns:cc="http://creativecommons.org/ns#" xmlns:dc="http://purl.org/dc/elements/1.1/">
 <g transform="translate(0 -1028.4)">
  <path d="m24 12a12 12 0 1 1 -24 0 12 12 0 1 1 24 0z" transform="matrix(.91667 0 0 .91667 1 1030.4)" fill="#e67e22"/>
  <path d="m5 971.36v2h-2-1v2h1v7h-1v2h1 2v2h1v-2h1 1 0.5c1.933 0 3.5-1.34 3.5-3 0-1.22-0.78-2.53-2-3 0.647-0.55 1-1.08 1-2 0-1.65-1.3431-3-3-3h-1-1v-2h-1zm0 4h3c0.5523 0 1 0.45 1 1s-0.4477 1-1 1h-3v-2zm0 4h3c1.1046 0 2 0.67 2 1.5s-0.8954 1.5-2 1.5h-3v-3z" fill="#e67e22"/>
  <path d="m24 12a12 12 0 1 1 -24 0 12 12 0 1 1 24 0z" transform="matrix(.91667 0 0 .91667 83 995.36)" fill="#f1c40f"/>
  <path d="m92 999.36v2.04h-2-1v2h1v7h-1v2h1 2v2h1v-2h1v2h1v-2h0.5c1.933 0 3.5-1.4 3.5-3 0-1.3-0.78-2.6-2-3 0.647-0.6 1-1.1 1-2 0-1.7-1.343-3-3-3v-2.04h-1v2.04h-1v-2.04zm0 4.04h3c0.552 0 1 0.4 1 1 0 0.5-0.448 1-1 1h-3zm0 4h3c1.105 0 2 0.6 2 1.5 0 0.8-0.895 1.5-2 1.5h-3z" fill="#e67e22"/>
  <path d="m24 12a12 12 0 1 1 -24 0 12 12 0 1 1 24 0z" transform="matrix(.83333 0 0 .83333 2 1030.4)" fill="#f1c40f"/>
  <path d="m10 1032.4v2h-2-1v2h1v7h-1v2h1 2v2h1v-2h1 1v2h1v-2h0.5c1.933 0 3.5-1.4 3.5-3 0-1.3-0.78-2.6-2-3 0.647-0.6 1-1.1 1-2 0-1.7-1.343-3-3-3v-2h-1v2h-1-1v-2h-1zm0 4h2 2c0.552 0 1 0.4 1 1 0 0.5-0.448 1-1 1h-2-2v-2zm0 4h2 2c1.105 0 2 0.6 2 1.5 0 0.8-0.895 1.5-2 1.5h-2-2v-3z" fill="#f39c12"/>
  <path d="m7 1035.4v1h1v-1h-1zm3 0v1h2 2c0.365 0 0.669 0.2 0.844 0.5 0.089-0.2 0.156-0.4 0.156-0.5 0-0.6-0.448-1-1-1h-2-2zm0 4v1h2 2c0.873 0 1.602 0.4 1.875 1 0.073-0.2 0.125-0.4 0.125-0.5 0-0.9-0.895-1.5-2-1.5h-2-2zm7.938 2.4c-0.269 1.5-1.696 2.6-3.438 2.6h-0.5v1h0.5c1.933 0 3.5-1.4 3.5-3 0-0.2-0.031-0.4-0.062-0.6zm-10.938 2.6v1h1 2v-1h-2-1zm4 0v1h1 1v-1h-1-1zm-1 2v1h1v-1h-1zm3 0v1h1v-1h-1z" fill="#e67e22"/>
  <path d="m12 1029.4c-6.0751 0-11 4.9-11 11 0 6 4.9249 11 11 11 6.075 0 11-5 11-11 0-6.1-4.925-11-11-11zm0 2c4.971 0 9 4 9 9 0 4.9-4.029 9-9 9-4.9706 0-9-4.1-9-9 0-5 4.0294-9 9-9z" fill="#f39c12"/>
 </g>
</svg>
