<svg xmlns="http://www.w3.org/2000/svg" width="24" height="24"><g transform="translate(0 -1028.362)"><path d="M3 1035.362v13c0 1.105.895 2 2 2h14c1.105 0 2-.895 2-2v-13h-18z" fill="#16a085"/><path d="M3 1034.362v13c0 1.105.895 2 2 2h14c1.105 0 2-.895 2-2v-13h-18z" fill="#ecf0f1"/><path d="M3 1033.362v13c0 1.105.895 2 2 2h14c1.105 0 2-.895 2-2v-13h-18z" fill="#bdc3c7"/><path d="M3 1032.362v13c0 1.105.895 2 2 2h14c1.105 0 2-.895 2-2v-13h-18z" fill="#ecf0f1"/><path d="M5 1028.362c-1.105 0-2 .895-2 2v18c0 1.105.895 2 2 2h2v-1h-1.5c-.828 0-1.5-.672-1.5-1.5s.672-1.5 1.5-1.5h13.5c1.105 0 2-.895 2-2v-14c0-1.105-.895-2-2-2h-14z" fill="#16a085"/><path d="M8 1028.362v18h11c1.105 0 2-.895 2-2v-14c0-1.105-.895-2-2-2h-11z" fill="#1abc9c"/><path d="M7 1048.362v4l2.5-2 2.5 2v-4h-5z" fill="#e74c3c"/><rect width="5" height="1" x="7" y="1047.362" fill="#c0392b"/></g></svg>