<svg xmlns="http://www.w3.org/2000/svg" width="24" height="24"><g><path d="M3 8v13c0 1.105.895 2 2 2h14c1.105 0 2-.895 2-2v-13h-18z" fill="#16a085"/><path d="M3 7v13c0 1.105.895 2 2 2h14c1.105 0 2-.895 2-2v-13h-18z" fill="#ecf0f1"/><path d="M3 6v13c0 1.105.895 2 2 2h14c1.105 0 2-.895 2-2v-13h-18z" fill="#bdc3c7"/><path d="M3 5v13c0 1.105.895 2 2 2h14c1.105 0 2-.895 2-2v-13h-18z" fill="#ecf0f1"/><path d="M5 1c-1.105 0-2 .895-2 2v18c0 1.105.895 2 2 2h2v-1h-1.5c-.828 0-1.5-.672-1.5-1.5s.672-1.5 1.5-1.5h13.5c1.105 0 2-.895 2-2v-14c0-1.105-.895-2-2-2h-14z" fill="#16a085"/><path d="M8 1v18h11c1.105 0 2-.895 2-2v-14c0-1.105-.895-2-2-2h-11z" fill="#1abc9c"/></g></svg>