<?xml version="1.0" encoding="UTF-8" standalone="no"?>
<svg xmlns:rdf="http://www.w3.org/1999/02/22-rdf-syntax-ns#" xmlns="http://www.w3.org/2000/svg" height="24" width="24" version="1.1" xmlns:cc="http://creativecommons.org/ns#" xmlns:dc="http://purl.org/dc/elements/1.1/">
 <g transform="translate(0 -1028.4)">
  <path d="m21.188 1034.4 2 10h-2v-10z" fill="#f39c12"/>
  <path d="m3.1875 1034.4-2 10h2v-10z" fill="#f39c12"/>
  <path d="m3.1875 1037.4-2 14h2 18 2l-2-14h-18z" fill="#e67e22"/>
  <path d="m1.1875 1044.4v7h22v-7h-8.188c-0.416 1.1-1.511 2-2.812 2-1.302 0-2.3975-0.9-2.813-2h-8.1875z" fill="#f1c40f"/>
  <rect height="3" width="18" y="1034.4" x="3.1875" fill="#f39c12"/>
  <rect height="1" width="22" y="1051.4" x="1.1875" fill="#f39c12"/>
  <path d="m10 1029.4v5.9h-2l4 6.6 4-6.6h-2v-5.9h-4z" fill="#2c3e50"/>
 </g>
</svg>
