<svg xmlns="http://www.w3.org/2000/svg" width="24" height="24"><g transform="translate(0 -1028.362)"><path d="M3.188 1034.362l-2 10h2v-5h18v5h2l-2-10h-18z" fill="#f39c12"/><path d="M3.188 1038.362l-2 13h22l-2-13h-18z" fill="#e67e22"/><path d="M1.188 1044.362v7h22v-7h-8.188c-.416 1.158-1.511 2-2.813 2-1.301 0-2.397-.842-2.813-2h-8.188z" fill="#f1c40f"/><path d="M6 1035.362v1h12v-1h-12zm3 6v1h6v-1h-6z" fill="#2c3e50"/><rect width="22" height="1" x="1.188" y="1051.362" fill="#f39c12"/><path d="M9 1041.362v-5.978h-3l6-6.522 6 6.522h-3v5.978h-6z" fill="#34495e"/></g></svg>