<svg xmlns="http://www.w3.org/2000/svg" width="24" height="24"><g transform="translate(0 -1028.362)"><path d="M3.188 1034.362l-2 10h2v-7h18v7h2l-2-10h-18z" fill="#f39c12"/><path d="M3.188 1037.362l-2 14h22l-2-14h-18z" fill="#e67e22"/><path d="M9 1030.362v5h-3v1h.031l5.969 6.5 5.969-6.5.031-.031v-.969h-3v-5h-6z" fill="#2c3e50"/><path d="M1.188 1044.362v7h22v-7h-8.188c-.416 1.158-1.511 2-2.813 2-1.301 0-2.397-.842-2.813-2h-8.188z" fill="#f1c40f"/><rect width="22" height="1" x="1.188" y="1051.362" fill="#f39c12"/><path d="M9 1028.362v6.969h-3l6 6.531 6-6.531h-3v-6.969h-6z" fill="#34495e"/></g></svg>