<svg xmlns="http://www.w3.org/2000/svg" width="24" height="24"><g><path d="M0 7.667v8.333l12 8v-8.333z" fill="#e67e22"/><path d="M24 7.667v8.333l-12 8v-8.333z" fill="#f39c12"/><path d="M12 0l-12 7.667 12 8 12-8-12-7.667z" fill="#f1c40f"/><path d="M8.5 2.25v1.5c0 1.243 1.567 2.25 3.5 2.25s3.5-1.007 3.5-2.25v-1.5h-7z" fill="#e67e22"/><path d="M8.5 2.25v1.5c0 1.243 1.567 2.25 3.5 2.25v-3.75h-3.5z" fill="#e67e22"/><path d="M16 9a3.5 3 0 1 1-7 0 3.5 3 0 1 1 7 0z" transform="matrix(1 0 0 .75 -.5 -4.5)" fill="#f1c40f"/><path d="M15 6.25v1.5c0 1.243 1.567 2.25 3.5 2.25s3.5-1.007 3.5-2.25v-1.5h-7z" fill="#e67e22"/><path d="M15 6.25v1.5c0 1.243 1.567 2.25 3.5 2.25v-3.75h-3.5z" fill="#e67e22"/><path d="M16 9a3.5 3 0 1 1-7 0 3.5 3 0 1 1 7 0z" transform="matrix(1 0 0 .75 6 -.5)" fill="#f1c40f"/><path d="M2 5.75v1.5c0 1.243 1.567 2.25 3.5 2.25s3.5-1.007 3.5-2.25v-1.5h-7z" fill="#e67e22"/><path d="M2 5.75v1.5c0 1.243 1.567 2.25 3.5 2.25v-3.75h-3.5z" fill="#e67e22"/><path d="M16 9a3.5 3 0 1 1-7 0 3.5 3 0 1 1 7 0z" transform="matrix(1 0 0 .75 -7 -1)" fill="#f1c40f"/><path d="M8.5 9.75v1.5c0 1.243 1.567 2.25 3.5 2.25s3.5-1.007 3.5-2.25v-1.5h-7z" fill="#e67e22"/><path d="M8.5 9.75v1.5c0 1.243 1.567 2.25 3.5 2.25v-3.75h-3.5z" fill="#e67e22"/><path d="M16 9a3.5 3 0 1 1-7 0 3.5 3 0 1 1 7 0z" transform="matrix(1 0 0 .75 -.5 3)" fill="#f1c40f"/></g></svg>