<svg xmlns="http://www.w3.org/2000/svg" width="24" height="24"><g><path d="M0 6.667v9.333l12 8v-9.333l-12-8z" fill="#e67e22"/><path d="M24 6.667v9.333l-12 8v-9.333l12-8z" fill="#f39c12"/><path d="M8 1.333l-8 5.333 12 8 12-8-8-5.333h-8z" fill="#f1c40f"/><path d="M5.333 4v2.667c0 2.209 2.985 4 6.667 4s6.667-1.791 6.667-4v-2.667h-13.333z" fill="#f39c12"/><path d="M5.333 4v2.667c0 2.209 2.985 4 6.667 4v-6.667h-6.667z" fill="#e67e22"/><path d="M16 9a3.5 3 0 1 1-7 0 3.5 3 0 1 1 7 0z" transform="matrix(1.905 0 0 1.333 -11.81 -8)" fill="#f1c40f"/></g></svg>