<svg xmlns="http://www.w3.org/2000/svg" width="24" height="24"><g><path d="M5 3c-2.209 0-4 1.791-4 4v8c0 2.209 1.791 4 4 4h.156v4.844l5.906-4.844h7.938c2.209 0 4-1.791 4-4v-8c0-2.209-1.791-4-4-4h-14z" fill="#27ae60"/><path d="M4.938 2c-2.209 0-4 1.791-4 4v8c0 2.209 1.791 4 4 4h.156v4.844l5.906-4.844h7.938c2.209 0 4-1.791 4-4v-8c0-2.209-1.791-4-4-4h-14z" fill="#2ecc71"/><path d="M6 9c-1.105 0-2 .895-2 2s.895 2 2 2 2-.895 2-2-.895-2-2-2zm6 0c-1.105 0-2 .895-2 2s.895 2 2 2 2-.895 2-2-.895-2-2-2zm6 0c-1.105 0-2 .895-2 2s.895 2 2 2 2-.895 2-2-.895-2-2-2z" fill="#27ae60"/><path d="M6 8c-1.105 0-2 .895-2 2s.895 2 2 2 2-.895 2-2-.895-2-2-2zm6 0c-1.105 0-2 .895-2 2s.895 2 2 2 2-.895 2-2-.895-2-2-2zm6 0c-1.105 0-2 .895-2 2s.895 2 2 2 2-.895 2-2-.895-2-2-2z" fill="#ecf0f1"/></g></svg>