<svg xmlns="http://www.w3.org/2000/svg" width="24" height="24"><g><path d="M22 2c1.105 0 2 .895 2 2v8c0 1.105-.895 2-2 2v4l-4.875-4h-8.125c-1.105 0-2-.895-2-2v-8c0-1.105.895-2 2-2h13z" fill="#2980b9"/><path d="M22 1c1.105 0 2 .895 2 2v8c0 1.105-.895 2-2 2v4l-4.875-4h-8.125c-1.105 0-2-.895-2-2v-8c0-1.105.895-2 2-2h13z" fill="#3498db"/><path d="M2 8c-1.105 0-2 .895-2 2v8c0 1.105.895 2 2 2v4l4.875-4h8.125c1.105 0 2-.895 2-2v-8c0-1.105-.895-2-2-2h-13z" fill="#27ae60"/><path d="M2 7c-1.105 0-2 .895-2 2v8c0 1.105.895 2 2 2v4l4.875-4h8.125c1.105 0 2-.895 2-2v-8c0-1.105-.895-2-2-2h-13z" fill="#2ecc71"/><path d="M6 14.5c0 .828-.672 1.5-1.5 1.5s-1.5-.672-1.5-1.5.672-1.5 1.5-1.5 1.5.672 1.5 1.5z" fill="#27ae60"/><path d="M6 13.5c0 .828-.672 1.5-1.5 1.5s-1.5-.672-1.5-1.5.672-1.5 1.5-1.5 1.5.672 1.5 1.5z" fill="#ecf0f1"/><path d="M10 14.5c0 .828-.672 1.5-1.5 1.5s-1.5-.672-1.5-1.5.672-1.5 1.5-1.5 1.5.672 1.5 1.5z" fill="#27ae60"/><path d="M10 13.5c0 .828-.672 1.5-1.5 1.5s-1.5-.672-1.5-1.5.672-1.5 1.5-1.5 1.5.672 1.5 1.5z" fill="#ecf0f1"/><path d="M14 14.5c0 .828-.672 1.5-1.5 1.5s-1.5-.672-1.5-1.5.672-1.5 1.5-1.5 1.5.672 1.5 1.5z" fill="#27ae60"/><path d="M14 13.5c0 .828-.672 1.5-1.5 1.5s-1.5-.672-1.5-1.5.672-1.5 1.5-1.5 1.5.672 1.5 1.5z" fill="#ecf0f1"/></g></svg>