<svg xmlns="http://www.w3.org/2000/svg" width="24" height="24"><g transform="translate(0 -1028.362)"><rect width="14" height="20" x="5" y="1031.362" fill="#bdc3c7"/><g transform="translate(0 2)"><rect transform="translate(0 1028.362)" y="3" x="7" height="3" width="2" fill="#3498db"/><rect y="1031.362" x="11" height="3" width="2" fill="#3498db"/><rect y="1031.362" x="15" height="3" width="2" fill="#3498db"/><rect transform="translate(0 1028.362)" y="3" x="7" height="1" width="2" fill="#2980b9"/><rect transform="translate(0 1028.362)" y="3" x="11" height="1" width="2" fill="#2980b9"/><rect transform="translate(0 1028.362)" y="3" x="15" height="1" width="2" fill="#2980b9"/></g><g transform="translate(0 7)"><rect transform="translate(0 1028.362)" y="3" x="7" height="3" width="2" fill="#3498db"/><rect y="1031.362" x="11" height="3" width="2" fill="#3498db"/><rect y="1031.362" x="15" height="3" width="2" fill="#3498db"/><rect transform="translate(0 1028.362)" y="3" x="7" height="1" width="2" fill="#2980b9"/><rect transform="translate(0 1028.362)" y="3" x="11" height="1" width="2" fill="#2980b9"/><rect transform="translate(0 1028.362)" y="3" x="15" height="1" width="2" fill="#2980b9"/></g><g transform="translate(0 12)"><rect transform="translate(0 1028.362)" y="3" x="7" height="3" width="2" fill="#3498db"/><rect y="1031.362" x="11" height="3" width="2" fill="#3498db"/><rect y="1031.362" x="15" height="3" width="2" fill="#3498db"/><rect transform="translate(0 1028.362)" y="3" x="7" height="1" width="2" fill="#2980b9"/><rect transform="translate(0 1028.362)" y="3" x="11" height="1" width="2" fill="#2980b9"/><rect transform="translate(0 1028.362)" y="3" x="15" height="1" width="2" fill="#2980b9"/></g><rect width="6" height="3" x="7" y="1048.362" fill="#e67e22"/><rect width="6" height="1" x="7" y="1048.362" fill="#d35400"/><rect width="1" height="3" x="9" y="1048.362" fill="#d35400"/><rect width="2" height="2" x="15" y="1048.362" fill="#3498db"/><rect width="2" height="1" x="15" y="1048.362" fill="#2980b9"/><path d="M4 1030.362h16l-2.667-2h-10.667l-2.667 2" fill="#bdc3c7"/><rect width="16" height="1" x="4" y="1030.362" fill="#7f8c8d"/><rect width="14" height="1" x="5" y="3" transform="translate(0 1028.362)" fill="#95a5a6"/></g></svg>