<?xml version="1.0" encoding="UTF-8" standalone="no"?>
<svg xmlns:rdf="http://www.w3.org/1999/02/22-rdf-syntax-ns#" xmlns="http://www.w3.org/2000/svg" height="24" width="24" version="1.1" xmlns:cc="http://creativecommons.org/ns#" xmlns:dc="http://purl.org/dc/elements/1.1/">
 <g transform="translate(0 -1028.4)">
  <rect height="18" width="1" y="1031.4" x="21" fill="#7f8c8d"/>
  <path fill="#bdc3c7" d="m21 1031.4c-4.373 4-7 4-11 5v3 1h11v-1-8z"/>
  <path fill="#95a5a6" d="m10 1040.4v1 3c4 1 6.627 1 11 5v-8-1h-11z"/>
  <g>
   <path d="m4 1035.4c-1.1046 0-2 0.9-2 2v6c0 1.1 0.8954 2 2 2h5c0.5523 0 1-0.5 1-1v-8c0-0.6-0.4477-1-1-1h-5z" fill="#e74c3c"/>
   <path d="m4 1045.4c-1.1046 0-2-0.9-2-2v-3h8v4c0 0.5-0.4477 1-1 1h-5z" fill="#c0392b"/>
   <rect height="4" width="2" y="1038.4" x="0" fill="#95a5a6"/>
  </g>
  <g fill="#7f8c8d">
   <rect transform="translate(0 1028.4)" height="2" width="2" y="12" x="0"/>
   <rect height="6" width="1" y="1037.4" x="22"/>
   <path d="m6 1045.4h3l3 7h-3l-3-7h3"/>
  </g>
  <path d="m4 17h4l3 7h-4l-3-7h4" transform="translate(0 1028.4)" fill="#95a5a6"/>
 </g>
</svg>
