<svg xmlns="http://www.w3.org/2000/svg" width="24" height="24"><g transform="translate(0 -1028.362)"><rect width="1" height="18" x="21" y="1031.362" fill="#7f8c8d"/><path d="M21 1031.362c-4.373 4-7 4-11 5v4h11v-9z" fill="#bdc3c7"/><path d="M10 1040.362v4c4 1 6.627 1 11 5v-9h-11z" fill="#95a5a6"/><path d="M4 1035.362c-1.105 0-2 .895-2 2v6c0 1.105.895 2 2 2h5c.552 0 1-.448 1-1v-8c0-.552-.448-1-1-1h-5z" fill="#e74c3c"/><path d="M4 1045.362c-1.105 0-2-.895-2-2v-3h8v4c0 .552-.448 1-1 1h-5z" fill="#c0392b"/><rect width="2" height="4" y="1038.362" fill="#95a5a6"/><rect width="2" height="2" y="12" transform="translate(0 1028.362)" fill="#7f8c8d"/><rect width="1" height="6" x="22" y="1037.362" fill="#7f8c8d"/><path d="M6 1045.362h3l3 7h-3l-3-7h3" fill="#7f8c8d"/><path d="M4 1045.362h4l3 7h-4l-3-7h4" fill="#95a5a6"/></g></svg>