<svg xmlns="http://www.w3.org/2000/svg" width="24" height="24"><g transform="translate(0 -1028.362)"><path d="M6 1030.362c-1.105 0-2 .895-2 2v18c0 1.105.895 2 2 2h12c1.105 0 2-.895 2-2v-18c0-1.105-.895-2-2-2h-12z" fill="#7f8c8d"/><path d="M6 1029.362c-1.105 0-2 .895-2 2v18c0 1.105.895 2 2 2h12c1.105 0 2-.895 2-2v-18c0-1.105-.895-2-2-2h-12z" fill="#95a5a6"/><path d="M7 1038.362c-.552 0-1 .448-1 1v3c0 .552.448 1 1 1h3c.552 0 1-.448 1-1v-3c0-.552-.448-1-1-1h-3zm7 0c-.552 0-1 .448-1 1v3c0 .552.448 1 1 1h3c.552 0 1-.448 1-1v-3c0-.552-.448-1-1-1h-3zm-7 7c-.552 0-1 .448-1 1v3c0 .552.448 1 1 1h3c.552 0 1-.448 1-1v-3c0-.552-.448-1-1-1h-3zm7 0c-.552 0-1 .448-1 1v3c0 .552.448 1 1 1h3c.552 0 1-.448 1-1v-3c0-.552-.448-1-1-1h-3z" fill="#7f8c8d"/><path d="M7 1037.362c-.552 0-1 .448-1 1v3c0 .552.448 1 1 1h3c.552 0 1-.448 1-1v-3c0-.552-.448-1-1-1h-3zm7 0c-.552 0-1 .448-1 1v3c0 .552.448 1 1 1h3c.552 0 1-.448 1-1v-3c0-.552-.448-1-1-1h-3zm-7 7c-.552 0-1 .448-1 1v3c0 .552.448 1 1 1h3c.552 0 1-.448 1-1v-3c0-.552-.448-1-1-1h-3zm7 0c-.552 0-1 .448-1 1v3c0 .552.448 1 1 1h3c.552 0 1-.448 1-1v-3c0-.552-.448-1-1-1h-3z" fill="#ecf0f1"/><path d="M8 1038.362v1h-1v1h1v1h1v-1h1v-1h-1v-1h-1z" fill="#2c3e50"/><rect width="3" height="1" x="14" y="1039.362" fill="#2c3e50"/><rect width="3" height="1" x="14" y="1045.362" fill="#e74c3c"/><rect width="3" height="1" x="14" y="1047.362" fill="#e74c3c"/><path d="M7.086 1046.155l.707.707-.707.707.707.707.707-.707.707.707.707-.707-.707-.707.707-.707-.707-.707-.707.707-.707-.707-.707.707z" fill="#2c3e50"/><path d="M7 1031.362c-.552 0-1 .448-1 1v2c0 .552.448 1 1 1h10c.552 0 1-.448 1-1v-2c0-.552-.448-1-1-1h-10z" fill="#34495e"/><path d="M7 1031.362c-.552 0-1 .448-1 1h12c0-.552-.448-1-1-1h-10z" fill="#2c3e50"/></g></svg>