<?xml version="1.0" encoding="UTF-8" standalone="no"?>
<svg xmlns:rdf="http://www.w3.org/1999/02/22-rdf-syntax-ns#" xmlns="http://www.w3.org/2000/svg" height="24" width="24" version="1.1" xmlns:cc="http://creativecommons.org/ns#" xmlns:dc="http://purl.org/dc/elements/1.1/">
 <g transform="translate(0 -1028.4)">
  <path d="m5 1032.4c-1.1046 0-2 0.9-2 2v14c0 1.1 0.8954 2 2 2h6 2 6c1.105 0 2-0.9 2-2v-14c0-1.1-0.895-2-2-2h-6-2-6z" fill="#bdc3c7"/>
  <path d="m5 3c-1.1046 0-2 0.8954-2 2v14c0 1.105 0.8954 2 2 2h6 2 6c1.105 0 2-0.895 2-2v-14c0-1.1046-0.895-2-2-2h-6-2-6z" transform="translate(0 1028.4)" fill="#ecf0f1"/>
  <path d="m5 1031.4c-1.1046 0-2 0.9-2 2v3h18v-3c0-1.1-0.895-2-2-2h-6-2-6z" fill="#e74c3c"/>
  <path d="m7 5.5a1.5 1.5 0 1 1 -3 0 1.5 1.5 0 1 1 3 0z" transform="translate(.5 1028.4)" fill="#c0392b"/>
  <path d="m6 1c-0.5523 0-1 0.4477-1 1v3c0 0.5523 0.4477 1 1 1s1-0.4477 1-1v-3c0-0.5523-0.4477-1-1-1z" transform="translate(0 1028.4)" fill="#bdc3c7"/>
  <path d="m7 5.5a1.5 1.5 0 1 1 -3 0 1.5 1.5 0 1 1 3 0z" transform="translate(12.5 1028.4)" fill="#c0392b"/>
  <path d="m18 1029.4c-0.552 0-1 0.4-1 1v3c0 0.5 0.448 1 1 1s1-0.5 1-1v-3c0-0.6-0.448-1-1-1z" fill="#bdc3c7"/>
  <rect transform="translate(0 1028.4)" height="1" width="18" y="8" x="3" fill="#c0392b"/>
  <path d="m8 1039.4v1h2c0.552 0 1 0.4 1 1 0 0.5-0.448 1-1 1h-1v1h1c0.552 0 1 0.4 1 1 0 0.5-0.448 1-1 1h-2v1h2c1.105 0 2-0.9 2-2 0-0.6-0.268-1.2-0.688-1.5 0.42-0.4 0.688-0.9 0.688-1.5 0-1.1-0.895-2-2-2h-2z" fill="#95a5a6"/>
  <path d="m13 1039.4v1h1v5h-1v1h1 1 1v-1h-1v-6h-1-1z" fill="#95a5a6"/>
 </g>
</svg>
