<svg xmlns="http://www.w3.org/2000/svg" width="24" height="24"><g><path d="M5 4c-1.105 0-2 .895-2 2v14c0 1.105.895 2 2 2h14c1.105 0 2-.895 2-2v-14c0-1.105-.895-2-2-2h-14z" fill="#bdc3c7"/><path d="M5 3c-1.105 0-2 .895-2 2v14c0 1.105.895 2 2 2h14c1.105 0 2-.895 2-2v-14c0-1.105-.895-2-2-2h-14z" fill="#ecf0f1"/><path d="M5 3c-1.105 0-2 .895-2 2v4h18v-4c0-1.105-.895-2-2-2h-14z" fill="#e74c3c"/><path d="M7 5.5a1.5 1.5 0 1 1-3 0 1.5 1.5 0 1 1 3 0z" transform="translate(0 -1028.362) translate(.5 1028.362)" fill="#c0392b"/><path d="M7 5.5a1.5 1.5 0 1 1-3 0 1.5 1.5 0 1 1 3 0z" transform="translate(0 -1028.362) translate(12.5 1028.362)" fill="#c0392b"/><path d="M5 11v2h2v-2h-2zm3 0v2h2v-2h-2zm3 0v2h2v-2h-2zm3 0v2h2v-2h-2zm3 0v2h2v-2h-2z" fill="#bdc3c7"/><path d="M5 14v2h2v-2h-2zm3 0v2h2v-2h-2zm3 0v2h2v-2h-2zm3 0v2h2v-2h-2zm3 0v2h2v-2h-2z" fill="#bdc3c7"/><path d="M5 17v2h2v-2h-2zm3 0v2h2v-2h-2zm3 0v2h2v-2h-2zm3 0v2h2v-2h-2zm3 0v2h2v-2h-2z" fill="#bdc3c7"/><path d="M6 1c-.552 0-1 .448-1 1v3c0 .552.448 1 1 1s1-.448 1-1v-3c0-.552-.448-1-1-1zm12 0c-.552 0-1 .448-1 1v3c0 .552.448 1 1 1s1-.448 1-1v-3c0-.552-.448-1-1-1z" fill="#95a5a6"/><path d="M6 1c-.552 0-1 .448-1 1v2h2v-2c0-.552-.448-1-1-1zm12 0c-.552 0-1 .448-1 1v2h2v-2c0-.552-.448-1-1-1z" fill="#bdc3c7"/></g></svg>