<?xml version="1.0" encoding="UTF-8" standalone="no"?>
<svg xmlns:rdf="http://www.w3.org/1999/02/22-rdf-syntax-ns#" xmlns="http://www.w3.org/2000/svg" height="24" width="24" version="1.1" xmlns:cc="http://creativecommons.org/ns#" xmlns:dc="http://purl.org/dc/elements/1.1/">
 <g transform="translate(0 -1028.4)">
  <path d="m5 1032.4c-1.1046 0-2 0.9-2 2v14c0 1.1 0.8954 2 2 2h6 2 6c1.105 0 2-0.9 2-2v-14c0-1.1-0.895-2-2-2h-6-2-6z" fill="#bdc3c7"/>
  <path d="m5 3c-1.1046 0-2 0.8954-2 2v14c0 1.105 0.8954 2 2 2h6 2 6c1.105 0 2-0.895 2-2v-14c0-1.1046-0.895-2-2-2h-6-2-6z" transform="translate(0 1028.4)" fill="#ecf0f1"/>
  <path d="m5 3c-1.1046 0-2 0.8954-2 2v3 1h18v-1-3c0-1.1046-0.895-2-2-2h-6-2-6z" transform="translate(0 1028.4)" fill="#e74c3c"/>
  <path d="m7 5.5a1.5 1.5 0 1 1 -3 0 1.5 1.5 0 1 1 3 0z" transform="translate(.5 1028.4)" fill="#c0392b"/>
  <path d="m6 1c-0.5523 0-1 0.4477-1 1v3c0 0.5523 0.4477 1 1 1s1-0.4477 1-1v-3c0-0.5523-0.4477-1-1-1z" transform="translate(0 1028.4)" fill="#bdc3c7"/>
  <path d="m7 5.5a1.5 1.5 0 1 1 -3 0 1.5 1.5 0 1 1 3 0z" transform="translate(12.5 1028.4)" fill="#c0392b"/>
  <g fill="#bdc3c7">
   <path d="m18 1029.4c-0.552 0-1 0.4-1 1v3c0 0.5 0.448 1 1 1s1-0.5 1-1v-3c0-0.6-0.448-1-1-1z"/>
   <path d="m5 1039.4v2h2v-2h-2zm3 0v2h2v-2h-2zm3 0v2h2v-2h-2zm3 0v2h2v-2h-2zm3 0v2h2v-2h-2z"/>
   <path d="m5 1042.4v2h2v-2h-2zm3 0v2h2v-2h-2zm3 0v2h2v-2h-2zm3 0v2h2v-2h-2zm3 0v2h2v-2h-2z"/>
   <path d="m5 1045.4v2h2v-2h-2zm3 0v2h2v-2h-2zm3 0v2h2v-2h-2zm3 0v2h2v-2h-2zm3 0v2h2v-2h-2z"/>
  </g>
  <path d="m40 18a6 6 0 1 1 -12 0 6 6 0 1 1 12 0z" transform="matrix(.82491 0 0 .82491 -9.5468 1032.1)" fill="#34495e"/>
  <path d="m18.5 14c-0.276 0-0.5 0.224-0.5 0.5v0.5 3 0.5c0 0.276 0.224 0.5 0.5 0.5h0.5 2 0.5c0.276 0 0.5-0.224 0.5-0.5s-0.224-0.5-0.5-0.5h-0.5-2v-3-0.5c0-0.276-0.224-0.5-0.5-0.5z" transform="translate(0 1028.4)" fill="#bdc3c7"/>
  <path d="m18.5 1041.4c-3.038 0-5.5 2.4-5.5 5.5 0 3 2.462 5.5 5.5 5.5s5.5-2.5 5.5-5.5c0-3.1-2.462-5.5-5.5-5.5zm0 1c2.485 0 4.5 2 4.5 4.5 0 2.4-2.015 4.5-4.5 4.5s-4.5-2.1-4.5-4.5c0-2.5 2.015-4.5 4.5-4.5z" fill="#7f8c8d"/>
  <path d="m27 17.5c0 0.276-0.224 0.5-0.5 0.5s-0.5-0.224-0.5-0.5 0.224-0.5 0.5-0.5 0.5 0.224 0.5 0.5z" transform="translate(-8 1029.4)" fill="#95a5a6"/>
 </g>
</svg>
