<svg xmlns="http://www.w3.org/2000/svg" width="24" height="24"><g transform="translate(0 -1028.362)"><path d="M5 1032.362c-1.105 0-2 .895-2 2v14c0 1.105.895 2 2 2h14c1.105 0 2-.895 2-2v-14c0-1.105-.895-2-2-2h-14z" fill="#bdc3c7"/><path d="M5 1031.362c-1.105 0-2 .895-2 2v14c0 1.105.895 2 2 2h14c1.105 0 2-.895 2-2v-14c0-1.105-.895-2-2-2h-14z" fill="#ecf0f1"/><path d="M5 1031.362c-1.105 0-2 .895-2 2v4h18v-4c0-1.105-.895-2-2-2h-14z" fill="#e74c3c"/><path d="M7 5.5a1.5 1.5 0 1 1-3 0 1.5 1.5 0 1 1 3 0z" transform="translate(.5 1028.362)" fill="#c0392b"/><path d="M7 5.5a1.5 1.5 0 1 1-3 0 1.5 1.5 0 1 1 3 0z" transform="translate(12.5 1028.362)" fill="#c0392b"/><path d="M5 1039.362v2h2v-2h-2zm3 0v2h2v-2h-2zm3 0v2h2v-2h-2zm3 0v2h2v-2h-2zm3 0v2h2v-2h-2z" fill="#bdc3c7"/><path d="M5 1042.362v2h2v-2h-2zm3 0v2h2v-2h-2zm3 0v2h2v-2h-2zm3 0v2h2v-2h-2zm3 0v2h2v-2h-2z" fill="#bdc3c7"/><path d="M5 1045.362v2h2v-2h-2zm3 0v2h2v-2h-2zm3 0v2h2v-2h-2zm3 0v2h2v-2h-2zm3 0v2h2v-2h-2z" fill="#bdc3c7"/><path d="M24 12a12 12 0 1 1-24 0 12 12 0 1 1 24 0z" transform="matrix(.42 0 0 .42 13.458 1041.821)" fill="#34495e"/><path d="M18.5 1041.821c-3.038 0-5.5 2.462-5.5 5.5h.917c0-2.531 2.052-4.583 4.583-4.583s4.583 2.052 4.583 4.583h.917c0-3.038-2.462-5.5-5.5-5.5z" fill="#2c3e50"/><path d="M18.958 1046.404v.917h3.208c.253 0 .458-.205.458-.458s-.205-.458-.458-.458h-3.208z" fill="#bdc3c7"/><path d="M18.5 1043.654c-.253 0-.458.205-.458.458v2.291h.917v-2.291c0-.253-.205-.458-.458-.458z" fill="#bdc3c7"/><rect width="3.208" height=".458" x="-730.831" y="753.12" transform="rotate(-45.009)" fill="#c0392b"/><path d="M18.5 1045.946c-.506 0-.917.41-.917.917 0 .506.41.917.917.917.506 0 .917-.41.917-.917 0-.506-.41-.917-.917-.917zm0 .458c.253 0 .458.205.458.458s-.205.458-.458.458-.458-.205-.458-.458.205-.458.458-.458z" fill="#bdc3c7"/><path d="M18.5 1041.362c-3.038 0-5.5 2.462-5.5 5.5s2.462 5.5 5.5 5.5 5.5-2.462 5.5-5.5-2.462-5.5-5.5-5.5zm0 .917c2.531 0 4.583 2.052 4.583 4.583s-2.052 4.583-4.583 4.583-4.583-2.052-4.583-4.583 2.052-4.583 4.583-4.583z" fill="#95a5a6"/><path d="M13 12a1 1 0 1 1-2 0 1 1 0 1 1 2 0z" transform="matrix(.458 0 0 .458 13 1041.362)" fill="#2c3e50"/><path d="M19.293 1046.401c.078.135.129.291.129.458 0 .167-.051.323-.129.458h.501c.052-.145.086-.295.086-.458 0-.163-.034-.313-.086-.458h-.501z" fill="#95a5a6"/><path d="M6 1029.362c-.552 0-1 .448-1 1v3c0 .552.448 1 1 1s1-.448 1-1v-3c0-.552-.448-1-1-1zm12 0c-.552 0-1 .448-1 1v3c0 .552.448 1 1 1s1-.448 1-1v-3c0-.552-.448-1-1-1z" fill="#95a5a6"/><path d="M6 1029.362c-.552 0-1 .448-1 1v2h2v-2c0-.552-.448-1-1-1zm12 0c-.552 0-1 .448-1 1v2h2v-2c0-.552-.448-1-1-1z" fill="#bdc3c7"/></g></svg>