<?xml version="1.0" encoding="UTF-8" standalone="no"?>
<svg xmlns:rdf="http://www.w3.org/1999/02/22-rdf-syntax-ns#" xmlns="http://www.w3.org/2000/svg" height="24" width="24" version="1.1" xmlns:cc="http://creativecommons.org/ns#" xmlns:dc="http://purl.org/dc/elements/1.1/">
 <g transform="translate(0 -1028.4)">
  <path d="m5 1032.4c-1.1046 0-2 0.9-2 2v14c0 1.1 0.8954 2 2 2h6 2 6c1.105 0 2-0.9 2-2v-14c0-1.1-0.895-2-2-2h-6-2-6z" fill="#bdc3c7"/>
  <path d="m5 3c-1.1046 0-2 0.8954-2 2v14c0 1.105 0.8954 2 2 2h6 2 6c1.105 0 2-0.895 2-2v-14c0-1.1046-0.895-2-2-2h-6-2-6z" transform="translate(0 1028.4)" fill="#ecf0f1"/>
  <path d="m5 3c-1.1046 0-2 0.8954-2 2v3 1h18v-1-3c0-1.1046-0.895-2-2-2h-6-2-6z" transform="translate(0 1028.4)" fill="#e74c3c"/>
  <path d="m7 5.5a1.5 1.5 0 1 1 -3 0 1.5 1.5 0 1 1 3 0z" transform="translate(.5 1028.4)" fill="#c0392b"/>
  <path d="m6 1c-0.5523 0-1 0.4477-1 1v3c0 0.5523 0.4477 1 1 1s1-0.4477 1-1v-3c0-0.5523-0.4477-1-1-1z" transform="translate(0 1028.4)" fill="#bdc3c7"/>
  <path d="m7 5.5a1.5 1.5 0 1 1 -3 0 1.5 1.5 0 1 1 3 0z" transform="translate(12.5 1028.4)" fill="#c0392b"/>
  <g fill="#bdc3c7">
   <path d="m18 1029.4c-0.552 0-1 0.4-1 1v3c0 0.5 0.448 1 1 1s1-0.5 1-1v-3c0-0.6-0.448-1-1-1z"/>
   <path d="m5 1039.4v2h2v-2h-2zm3 0v2h2v-2h-2zm3 0v2h2v-2h-2zm3 0v2h2v-2h-2zm3 0v2h2v-2h-2z"/>
   <path d="m5 1042.4v2h2v-2h-2zm3 0v2h2v-2h-2zm3 0v2h2v-2h-2zm3 0v2h2v-2h-2zm3 0v2h2v-2h-2z"/>
   <path d="m5 1045.4v2h2v-2h-2zm3 0v2h2v-2h-2zm3 0v2h2v-2h-2zm3 0v2h2v-2h-2zm3 0v2h2v-2h-2z"/>
  </g>
  <g transform="matrix(.45833 0 0 .45833 5.2083 565.9)">
   <path d="m24 12c0 6.627-5.373 12-12 12-6.6274 0-12-5.373-12-12 0-6.6274 5.3726-12 12-12 6.627 0 12 5.3726 12 12z" transform="matrix(.91667 0 0 .91667 18 1038.4)" fill="#34495e"/>
   <path d="m29 1038.4c-6.627 0-12 5.3-12 12h2c0-5.6 4.477-10 10-10s10 4.4 10 10h2c0-6.7-5.373-12-12-12z" fill="#2c3e50"/>
   <path d="m30 1048.4v2h1 6c0.552 0 1-0.5 1-1 0-0.6-0.448-1-1-1h-6-1z" fill="#bdc3c7"/>
   <path d="m29 1042.4c-0.552 0-1 0.4-1 1v4 1h2v-1-4c0-0.6-0.448-1-1-1z" fill="#bdc3c7"/>
   <rect transform="rotate(-45)" height="1" width="7" y="762.07" x="-729.51" fill="#c0392b"/>
   <path d="m29 1047.4c-1.105 0-2 0.9-2 2s0.895 2 2 2 2-0.9 2-2-0.895-2-2-2zm0 1c0.552 0 1 0.4 1 1 0 0.5-0.448 1-1 1s-1-0.5-1-1c0-0.6 0.448-1 1-1z" fill="#bdc3c7"/>
   <path d="m29 1037.4c-6.627 0-12 5.3-12 12 0 6.6 5.373 12 12 12s12-5.4 12-12c0-6.7-5.373-12-12-12zm0 2c5.523 0 10 4.4 10 10 0 5.5-4.477 10-10 10s-10-4.5-10-10c0-5.6 4.477-10 10-10z" fill="#95a5a6"/>
   <path d="m13 12c0 0.552-0.448 1-1 1s-1-0.448-1-1 0.448-1 1-1 1 0.448 1 1z" transform="translate(17 1037.4)" fill="#2c3e50"/>
   <path d="m30.73 1048.4c0.17 0.3 0.281 0.6 0.281 1 0 0.3-0.111 0.7-0.281 1h0.281 0.812c0.114-0.4 0.188-0.7 0.188-1 0-0.4-0.074-0.7-0.188-1h-0.812-0.281z" fill="#95a5a6"/>
  </g>
 </g>
</svg>
