<svg xmlns="http://www.w3.org/2000/svg" width="24" height="24"><g transform="translate(0 -1028.362)"><path d="M4 1030.362l-2 5h20l-2-5h-12z" fill="#ecf0f1"/><path d="M9 1035.362h6l-1-5h-4z" fill="#1abc9c"/><path d="M2 1034.362h20l-2 13h-17z" fill="none"/><rect width="20" height="16" x="2" y="1035.362" fill="#bdc3c7"/><path d="M5 1045.362c-.552 0-1 .448-1 1v2c0 .552.448 1 1 1h6c.552 0 1-.448 1-1v-2c0-.552-.448-1-1-1h-6z" fill="#ecf0f1"/><path d="M9 1035.362v7l1-1 1 1 1-1 1 1 1-1 1 1v-7h-6z" fill="#16a085"/><rect width="1" height="2" x="5" y="1046.362" fill="#95a5a6"/><rect width="1" height="2" x="7" y="1046.362" fill="#95a5a6"/><rect width="1" height="2" x="9" y="1046.362" fill="#95a5a6"/><rect width="1" height="2" x="10" y="1046.362" fill="#7f8c8d"/><rect width="1" height="2" x="8" y="1046.362" fill="#bdc3c7"/></g></svg>