<svg xmlns="http://www.w3.org/2000/svg" width="24" height="24"><g><path d="M5 10c0 1.657 1.343 3 3 3s3-1.343 3-3h-6z" fill="#ecf0f1"/><path d="M23.008 2.003l-8.991 2.997 6.597 7.467z" fill="#f39c12"/><path d="M.992 2.003l8.991 2.997-6.597 7.467z" fill="#f39c12"/><path d="M22 13a10 9 0 1 1-20 0 10 9 0 1 1 20 0z" transform="translate(0 -1028.362) translate(0 1028.362)" fill="#f39c12"/><path d="M22 13a10 9 0 1 1-20 0 10 9 0 1 1 20 0z" transform="matrix(.9 0 0 .889 1.2 1.445)" fill="#f1c40f"/><path d="M2.992 4.003l8.991 2.997-6.597 7.467z" fill="#f1c40f"/><path d="M21.008 4.003l-8.991 2.997 6.597 7.467z" fill="#f1c40f"/><path d="M11 14v2c0 1.105-.895 2-2 2s-2-.895-2-2h-1c0 1.657 1.343 3 3 3s3-1.343 3-3v-2h-1z" fill="#e67e22"/><path d="M13 14v2c0 1.105.895 2 2 2s2-.895 2-2h1c0 1.657-1.343 3-3 3s-3-1.343-3-3v-2h1z" fill="#e67e22"/><path d="M0 11.531v.781l6 2.313-6-.031v.719l6.031.031h.063l-6.094 2.344v.781l9-3.469-9-3.469z" fill="#e67e22"/><path d="M24 11.531v.781l-6 2.313 6-.031v.719l-6.031.031h-.063l6.094 2.344v.781l-9-3.469 9-3.469z" fill="#e67e22"/><path d="M8 8c-1.657 0-3 1.343-3 3s1.343 3 3 3 3-1.343 3-3-1.343-3-3-3z" fill="#ecf0f1"/><path d="M8 9c-1.105 0-2 .895-2 2s.895 2 2 2 2-.895 2-2-.895-2-2-2z" fill="#2c3e50"/><path d="M8 9c-.552 0-1 .448-1 1s.448 1 1 1 1-.448 1-1-.448-1-1-1z" fill="#ecf0f1"/><path d="M16 8c-1.657 0-3 1.343-3 3s1.343 3 3 3 3-1.343 3-3-1.343-3-3-3z" fill="#ecf0f1"/><path d="M16 9c-1.105 0-2 .895-2 2s.895 2 2 2 2-.895 2-2-.895-2-2-2z" fill="#2c3e50"/><path d="M16 9c-.552 0-1 .448-1 1s.448 1 1 1 1-.448 1-1-.448-1-1-1z" fill="#ecf0f1"/><path d="M10.219 13c-.276 0-.5.224-.5.5 0 .138.035.253.125.344l.156.125 1.531 1.531.094.125c.092.109.222.188.375.188s.283-.079.375-.188l.094-.125 1.531-1.531.156-.125c.09-.09.125-.206.125-.344 0-.276-.224-.5-.5-.5h-3.562z" fill="#c0392b"/></g></svg>