<?xml version="1.0" encoding="UTF-8" standalone="no"?>
<svg xmlns:rdf="http://www.w3.org/1999/02/22-rdf-syntax-ns#" xmlns="http://www.w3.org/2000/svg" height="24" width="24" version="1.1" xmlns:cc="http://creativecommons.org/ns#" xmlns:dc="http://purl.org/dc/elements/1.1/">
 <g transform="translate(0 -1028.4)">
  <path d="m22 12a10 10 0 1 1 -20 0 10 10 0 1 1 20 0z" transform="matrix(1.0085 -.43850 .43850 1.0085 -5.3642 1033.5)" fill="#1abc9c"/>
  <path d="m23 12.5a8.5 8.5 0 1 1 -17 0 8.5 8.5 0 1 1 17 0z" transform="matrix(1.0588 0 0 1.0588 -3.3529 1027.1)" fill="#ecf0f1"/>
  <path d="m1.0339 1039.8c-0.0827 1.7 0.176 3.3 0.875 4.9 2.4217 5.6 8.8991 8.2 14.469 5.8 4.29-1.9 6.778-6.2 6.593-10.6-0.203 4-2.631 7.8-6.593 9.6-5.57 2.4-12.047-0.2-14.469-5.8-0.5565-1.2-0.8201-2.6-0.8751-3.9z" fill="#16a085"/>
  <path d="m20 1040.4c0 0.5-0.448 1-1 1h-6v-2h6c0.552 0 1 0.4 1 1z" fill="#3498db"/>
  <path d="m12 5c-0.552 0-1 0.4477-1 1v4 1h2v-1-4c0-0.5523-0.448-1-1-1z" transform="translate(0 1028.4)" fill="#2c3e50"/>
  <rect transform="rotate(-45)" height="1" width="7" y="743.68" x="-735.17" fill="#c0392b"/>
  <path d="m12 1038.4c-1.105 0-2 0.9-2 2s0.895 2 2 2 2-0.9 2-2-0.895-2-2-2zm0 1c0.552 0 1 0.4 1 1 0 0.5-0.448 1-1 1s-1-0.5-1-1c0-0.6 0.448-1 1-1z" fill="#34495e"/>
 </g>
</svg>
