<svg xmlns="http://www.w3.org/2000/svg" width="24" height="24"><g transform="translate(0 -1028.362)"><path d="M23 1040.362c0 6.075-4.925 11-11 11s-11-4.925-11-11 4.925-11 11-11 11 4.925 11 11z" fill="#34495e"/><path d="M12 1029.362c-6.627 0-12 5.373-12 12h2c0-5.523 4.477-10 10-10s10 4.477 10 10h2c0-6.627-5.373-12-12-12z" fill="#2c3e50"/><path d="M13 1039.362v2h7c.552 0 1-.448 1-1s-.448-1-1-1h-7z" fill="#bdc3c7"/><path d="M12 1033.362c-.552 0-1 .448-1 1v5h2v-5c0-.552-.448-1-1-1z" fill="#bdc3c7"/><rect width="7" height="1" x="-735.167" y="743.685" transform="rotate(-45)" fill="#c0392b"/><path d="M12 1038.362c-1.105 0-2 .895-2 2s.895 2 2 2 2-.895 2-2-.895-2-2-2zm0 1c.552 0 1 .448 1 1s-.448 1-1 1-1-.448-1-1 .448-1 1-1z" fill="#bdc3c7"/><path d="M12 1028.362c-6.627 0-12 5.373-12 12s5.373 12 12 12 12-5.373 12-12-5.373-12-12-12zm0 2c5.523 0 10 4.477 10 10s-4.477 10-10 10-10-4.477-10-10 4.477-10 10-10z" fill="#95a5a6"/><path d="M13 1040.362c0 .552-.448 1-1 1s-1-.448-1-1 .448-1 1-1 1 .448 1 1z" fill="#2c3e50"/><path d="M13.73 1039.357c.171.294.281.635.281 1s-.11.706-.281 1h1.0939999999999999c.114-.317.188-.645.188-1 0-.356-.074-.684-.188-1h-1.0939999999999999z" fill="#95a5a6"/></g></svg>