<svg xmlns="http://www.w3.org/2000/svg" width="24" height="24"><g><path d="M9.5 4.996c-3.59 0-6.5 2.91-6.5 6.5v.094c-1.784.909-3 2.767-3 4.906 0 3.038 2.462 5.5 5.5 5.5h13.5c2.761 0 5-2.239 5-5 0-2.095-1.297-3.881-3.125-4.625.071-.278.125-.575.125-.875 0-1.933-1.567-3.5-3.5-3.5-.798 0-1.536.27-2.125.719-1.043-2.196-3.282-3.719-5.875-3.719z" fill="#95a5a6"/><path d="M9.5 3.998c-3.59 0-6.5 2.91-6.5 6.5v.094c-1.784.909-3 2.767-3 4.906 0 3.038 2.462 5.5 5.5 5.5h13.5c2.761 0 5-2.239 5-5 0-2.095-1.297-3.881-3.125-4.625.071-.278.125-.575.125-.875 0-1.933-1.567-3.5-3.5-3.5-.798 0-1.536.27-2.125.719-1.043-2.196-3.282-3.719-5.875-3.719z" fill="#bdc3c7"/><path d="M14 19v-5h2l-4-5-4 5h2v5h4z" fill="#2980b9"/></g></svg>