<svg xmlns="http://www.w3.org/2000/svg" width="24" height="24"><g><path d="M9.5 4.996c-3.59 0-6.5 2.91-6.5 6.5v.094c-1.784.909-3 2.767-3 4.906 0 3.038 2.462 5.5 5.5 5.5h13.5c2.761 0 5-2.239 5-5 0-2.095-1.297-3.881-3.125-4.625.071-.278.125-.575.125-.875 0-1.933-1.567-3.5-3.5-3.5-.798 0-1.536.27-2.125.719-1.043-2.196-3.282-3.719-5.875-3.719z" fill="#95a5a6"/><path d="M9.5 3.998c-3.59 0-6.5 2.91-6.5 6.5v.094c-1.784.909-3 2.767-3 4.906 0 3.038 2.462 5.5 5.5 5.5h13.5c2.761 0 5-2.239 5-5 0-2.095-1.297-3.881-3.125-4.625.071-.278.125-.575.125-.875 0-1.933-1.567-3.5-3.5-3.5-.798 0-1.536.27-2.125.719-1.043-2.196-3.282-3.719-5.875-3.719z" fill="#bdc3c7"/><path d="M12 9c-2.416 0-4.44 1.722-4.906 4h1.656c.445-1.402 1.732-2.438 3.281-2.438.938 0 1.789.39 2.406 1l-1.438 1.438h4.001v-4l-1.469 1.469c-.907-.906-2.152-1.469-3.531-1.469zm-5 6v4l1.469-1.469c.907.906 2.152 1.469 3.531 1.469 2.416 0 4.44-1.722 4.906-4h-1.656c-.445 1.402-1.732 2.438-3.281 2.438-.938 0-1.789-.39-2.406-1l1.438-1.438h-4.001z" fill="#2980b9"/></g></svg>