<?xml version="1.0" encoding="UTF-8" standalone="no"?>
<svg xmlns:rdf="http://www.w3.org/1999/02/22-rdf-syntax-ns#" xmlns="http://www.w3.org/2000/svg" height="24" width="24" version="1.1" xmlns:cc="http://creativecommons.org/ns#" xmlns:dc="http://purl.org/dc/elements/1.1/">
 <g transform="translate(0 -1028.4)">
  <path d="m3 1030.4c-1.1046 0-2 0.9-2 2v18c0 1.1 0.8954 2 2 2h18c1.105 0 2-0.9 2-2v-18c0-1.1-0.895-2-2-2h-18zm0 2h18v18h-18v-18z" fill="#2c3e50"/>
  <path d="m3 1029.4c-1.1046 0-2 0.9-2 2v18c0 1.1 0.8954 2 2 2h18c1.105 0 2-0.9 2-2v-18c0-1.1-0.895-2-2-2h-18z" fill="#34495e"/>
  <path d="m17.406 4.375l-1 0.9688v2.0624c-0.382 0.0316-0.747 0.057-1.125 0.125l-0.531-1.9687-1.25-0.7187-0.688 1.25 0.532 1.9687c-0.351 0.1258-0.723 0.278-1.063 0.4375l-1-1.7812-1.406-0.375-0.3438 1.375 1.0308 1.7812c-0.31 0.2155-0.6126 0.4394-0.9058 0.688l-1.4687-1.438h-1.4063v1.406l1.4688 1.469c-0.2481 0.293-0.4721 0.596-0.6875 0.906l-1.7813-1.062-1.375 0.375 0.375 1.375 1.75 1.031c-0.1594 0.34-0.2805 0.681-0.4062 1.031l-2-0.531-1.2188 0.719 0.6876 1.219 2 0.531c-0.0682 0.378-0.1247 0.743-0.1563 1.125h-2.0313l-1 1 1 1h2.0313c0.0316 0.382 0.0881 0.746 0.1563 1.125l-2 0.531-0.5626 1h9.4378l1.969-1c0.049 0.055 0.072 0.135 0.124 0.188 0.365 0.364 0.802 0.625 1.25 0.812h3.188c0.447-0.194 0.853-0.447 1.219-0.812 0.366-0.366 0.649-0.803 0.843-1.25l1.907 0.312c0.01-0.082 0.031-0.165 0.031-0.25v-1.781l-1.625-0.281c-0.09-0.885-0.478-1.729-1.156-2.407-0.053-0.053-0.133-0.107-0.188-0.156l2.781-5.406c0.07 0.044 0.123 0.107 0.188 0.156v-3.5l-0.5 0.875c-0.34-0.1594-0.681-0.3117-1.031-0.4375l0.531-1.9687-0.719-1.25-1.25 0.7187-0.5 1.9687c-0.378-0.068-0.774-0.0934-1.156-0.125v-2.0624l-0.969-0.9688zm-0.218 4.9688c1.301-0.03 2.609 0.207 3.843 0.6872l-2.781 5.407c-0.976-0.218-1.991-0.054-2.875 0.468l-4.313-4.281c1.779-1.459 3.957-2.2316 6.126-2.2812zm-7.5318 3.6872l4.3128 4.313c-0.522 0.884-0.717 1.898-0.5 2.875l-5.4065 2.75c-1.2777-3.282-0.7562-7.063 1.5625-9.907 0.0065-0.007 0.0248-0.023 0.0312-0.031z" transform="translate(0 1028.4)" fill="#2c3e50"/>
  <path d="m17.344 3.4375l-1 0.9687v2.0626c-0.382 0.0316-0.747 0.0568-1.125 0.125l-0.531-1.9688-1.25-0.7188-0.688 1.25 0.531 1.9688c-0.35 0.1258-0.722 0.278-1.062 0.4375l-1-1.7813-1.4065-0.375-0.3437 1.375 1.0312 1.7813c-0.31 0.2155-0.6131 0.4394-0.9062 0.6875l-1.4688-1.4375h-1.4062v1.4063l1.4687 1.4692c-0.2481 0.293-0.4721 0.596-0.6875 0.906l-1.7812-1.063-1.375 0.375 0.375 1.375 1.75 1.031c-0.1595 0.34-0.2806 0.681-0.4063 1.032l-2-0.532-1.2187 0.719 0.6874 1.219 2 0.531c-0.0681 0.378-0.1246 0.743-0.1562 1.125h-2.0312l-1 1 1 1h2.0312c0.0316 0.382 0.0881 0.747 0.1562 1.125l-2 0.531-0.6874 1.25 1.2187 0.688 2-0.531c0.0652 0.181 0.1466 0.351 0.2187 0.531h4.2808l3.813-1.938c0.049 0.055 0.072 0.135 0.125 0.188 0.678 0.678 1.553 1.035 2.438 1.125l0.093 0.625h2.063l-0.156-0.938c0.447-0.194 0.852-0.446 1.218-0.812s0.65-0.803 0.844-1.25l2 0.312v-2.031l-1.688-0.281c-0.089-0.885-0.478-1.729-1.156-2.406-0.052-0.053-0.132-0.107-0.187-0.156l2.781-5.407c0.089 0.057 0.163 0.129 0.25 0.188v-3.6565l-0.562 1c-0.34-0.1594-0.681-0.3117-1.032-0.4375l0.532-1.9688-0.719-1.25-1.25 0.7188-0.5 1.9688c-0.378-0.0682-0.774-0.0934-1.157-0.125v-2.0626l-0.968-0.9687zm-0.219 4.9687c1.301-0.0298 2.61 0.2071 3.844 0.6876l-2.781 5.4062c-0.977-0.217-1.991-0.053-2.876 0.469l-4.312-4.281c1.778-1.46 3.956-2.232 6.125-2.2818zm-7.5312 3.6878l4.3122 4.312c-0.521 0.885-0.717 1.899-0.5 2.875l-5.406 2.75c-1.2777-3.282-0.7562-7.063 1.5625-9.906 0.0065-0.008 0.0248-0.023 0.0313-0.031z" transform="translate(0 1028.4)" fill="#bdc3c7"/>
  <path d="m6.7188 7.8125v1.4063l1.4687 1.4692c-0.2481 0.293-0.4721 0.596-0.6875 0.906l-1.7812-1.063-1.375 0.375 0.375 1.375 1.75 1.031c-0.1595 0.34-0.2806 0.681-0.4063 1.032l-2-0.532-1.2187 0.719 0.6874 1.219 2 0.531c-0.0681 0.378-0.1246 0.743-0.1562 1.125h-2.0312l-1 1 1 1h2.0312c0.0316 0.382 0.0881 0.747 0.1562 1.125l-2 0.531-0.6874 1.25 1.2187 0.688 2-0.531c0.0652 0.181 0.1466 0.351 0.2187 0.531h4.2808l3.813-1.938c0.049 0.055 0.072 0.135 0.125 0.188 0.678 0.678 1.553 1.035 2.438 1.125l0.093 0.625h2.063l-0.156-0.938c0.447-0.194 0.852-0.446 1.218-0.812 0.016-0.016 0.016-0.046 0.032-0.062l-13.376-13.376-0.0932 0.0005zm2.875 4.2815l4.3122 4.312c-0.521 0.885-0.717 1.899-0.5 2.875l-5.406 2.75c-1.2777-3.282-0.7562-7.063 1.5625-9.906 0.0065-0.008 0.0248-0.023 0.0313-0.031z" transform="translate(0 1028.4)" fill="#95a5a6"/>
 </g>
</svg>
