<svg xmlns="http://www.w3.org/2000/svg" width="24" height="24"><g><path d="M4.222 2.808l2.121.707.155.155c.343-.227.698-.439 1.061-.619l-.066-.199.42-2.188 1.945-.53 1.481 1.701.044.177c.416-.026.822-.026 1.237 0l.044-.177 1.48-1.701 1.945.53.42 2.188-.066.199c.363.18.717.392 1.061.619l.155-.155 2.121-.707 1.414 1.414-.707 2.121-.155.155c.227.343.439.698.619 1.061l.199-.066 2.188.42.53 1.945-1.701 1.48-.177.044c.026.416.026.822 0 1.237l.177.044 1.701 1.481-.53 1.945-2.188.42-.199-.066c-.18.363-.392.717-.619 1.061l.155.155.707 2.121-1.414 1.414-2.121-.707-.155-.155c-.343.227-.698.439-1.061.619l.066.199-.42 2.188-1.945.53-1.481-1.701-.044-.177c-.416.026-.822.026-1.237 0l-.044.177-1.481 1.701-1.945-.53-.42-2.188.066-.199c-.363-.18-.717-.392-1.061-.619l-.155.155-2.121.707-1.414-1.414.707-2.121.155-.155c-.227-.343-.439-.698-.619-1.061l-.199.066-2.188-.42-.53-1.945 1.702-1.48.177-.044c-.026-.416-.026-.822 0-1.237l-.177-.044-1.701-1.48.53-1.945 2.188-.42.199.066c.18-.363.392-.717.619-1.061l-.155-.155-.707-2.121 1.414-1.414zm2.828 4.243c-2.734 2.734-2.734 7.166 0 9.899 2.734 2.734 7.166 2.734 9.899 0 2.734-2.734 2.734-7.166 0-9.899-2.734-2.734-7.166-2.734-9.899 0z" fill="#95a5a6"/><path d="M6.343 6.343c3.124-3.124 8.189-3.124 11.314 0 3.124 3.124 3.124 8.19 0 11.314-3.124 3.124-8.189 3.124-11.314 0-3.124-3.124-3.124-8.19 0-11.314zm1.481.066l2.166 2.166c.884-.522 1.896-.703 2.873-.486l1.392-2.718c-2.142-.727-4.552-.368-6.43 1.039zm-1.414 1.414c-1.406 1.879-1.766 4.288-1.039 6.43l2.718-1.392c-.217-.976-.036-1.988.486-2.873l-2.166-2.166zm4.176 2.762c-.781.781-.781 2.047 0 2.828.781.781 2.047.781 2.828 0 .781-.781.781-2.047 0-2.828-.781-.781-2.047-.781-2.828 0zm5.436-4.287l-1.392 2.718.199.155c.689.689 1.068 1.575 1.149 2.475l3.005.442c.022-1.82-.644-3.649-2.033-5.038-.288-.288-.607-.524-.928-.751zm-9.723 9.723c.227.321.464.64.751.928 1.389 1.389 3.218 2.055 5.038 2.033l-.442-3.005c-.9-.081-1.786-.46-2.475-1.149l-.155-.199-2.718 1.392zm9.369-2.431c-.194.447-.474.872-.84 1.237-.366.366-.79.645-1.237.84l.464 3.027c1.058-.325 2.058-.909 2.895-1.746.837-.837 1.421-1.837 1.746-2.895l-3.027-.464z" fill="#7f8c8d"/></g></svg>