<svg xmlns="http://www.w3.org/2000/svg" width="24" height="24"><g><path d="M16 2v1.063c-.312.064-.617.176-.875.344l-.75-.75-.719.719.75.75c-.168.258-.28.563-.344.875h-1.063v1h1.063c.064.312.176.617.344.875l-.75.75.719.719.75-.75c.258.168.563.28.875.344v1.063h1v-1.063c.312-.064.617-.176.875-.344l.75.75.719-.719-.75-.75c.168-.258.28-.563.344-.875h1.063v-1h-1.063c-.064-.312-.176-.617-.344-.875l.75-.75-.719-.719-.75.75c-.258-.168-.563-.28-.875-.344v-1.063h-1zm.5 2c.828 0 1.5.672 1.5 1.5s-.672 1.5-1.5 1.5-1.5-.672-1.5-1.5.672-1.5 1.5-1.5z" fill="#7f8c8d"/><path d="M19 6.969v1.031c-.27.038-.534.122-.781.219l-.531-.906-.875.5.531.906c-.223.175-.419.37-.594.594l-.906-.531-.5.875.906.531c-.096.247-.181.511-.219.781h-1.031v1h1.031c.038.271.122.534.219.781l-.906.531.5.875.906-.531c.175.223.37.419.594.594l-.531.906.875.5.531-.906c.247.096.511.181.781.219v1.031h1v-1.031c.27-.038.534-.122.781-.219l.531.906.875-.5-.531-.906c.223-.175.419-.37.594-.594l.906.531.5-.875-.906-.531c.096-.247.181-.511.219-.781h1.031v-1h-1.031c-.038-.27-.122-.534-.219-.781l.906-.531-.5-.875-.906.531c-.175-.223-.37-.419-.594-.594l.531-.906-.875-.5-.531.906c-.247-.096-.511-.18-.781-.219v-1.031h-1zm.5 2c1.381 0 2.5 1.119 2.5 2.5s-1.119 2.5-2.5 2.5-2.5-1.119-2.5-2.5 1.119-2.5 2.5-2.5z" fill="#95a5a6"/><path d="M10 4.969l-2.031.031v2.094c-.36.063-.712.15-1.063.281l-1.063-1.813-1.719 1 1.031 1.813c-.289.238-.547.501-.781.781l-1.813-1.031-1 1.719 1.813 1.063c-.134.36-.249.715-.313 1.094h-2.094v2l2.125.031c.063.36.15.712.281 1.063l-1.813 1.031 1 1.75 1.813-1.063c.238.289.501.547.781.781l-1.063 1.813 1.75 1.031 1.031-1.813c.36.134.746.218 1.125.281v2.094h2v-2.094c.36-.063.712-.15 1.063-.281l1.063 1.813 1.719-1-1.031-1.813c.289-.238.547-.501.781-.781l1.813 1.031 1.031-1.75-1.844-1.031c.134-.36.249-.715.313-1.094h2.094v-2.031h-2.125c-.063-.36-.15-.712-.281-1.063l1.813-1.031-1-1.75-1.813 1.063c-.238-.289-.501-.547-.781-.781l1.063-1.844-1.75-1-1.031 1.813c-.36-.134-.746-.218-1.125-.281l.031-2.125zm-1 5.031c1.657 0 3 1.343 3 3s-1.343 3-3 3-3-1.343-3-3 1.343-3 3-3z" fill="#bdc3c7"/></g></svg>