<svg xmlns="http://www.w3.org/2000/svg" width="24" height="24"><g><path d="M11.5 2.5v9h-10v1h10v9h1v-9h10v-1h-10v-9h-1z" fill="#95a5a6"/><path d="M23.008 12.004c0 6.077-4.927 11.004-11.004 11.004s-11.004-4.927-11.004-11.004 4.927-11.004 11.004-11.004 11.004 4.927 11.004 11.004z" fill="#34495e"/><path d="M16 5l-6 7-2 9 6-7 2-9z" fill="#2c3e50"/><path d="M12 1c-6.627 0-12 5.373-12 12h2c0-5.523 4.477-10 10-10s10 4.477 10 10h2c0-6.627-5.373-12-12-12z" fill="#2c3e50"/><path d="M12 0c-6.627 0-12 5.373-12 12s5.373 12 12 12 12-5.373 12-12-5.373-12-12-12zm0 2c5.523 0 10 4.477 10 10s-4.477 10-10 10-10-4.477-10-10 4.477-10 10-10z" fill="#95a5a6"/><path d="M13 12c0 .552-.448 1-1 1s-1-.448-1-1 .448-1 1-1 1 .448 1 1z" fill="#95a5a6"/><path d="M13.996 12.999l-4.005-2.002 6.005-6.998z" fill="#e74c3c"/><path d="M10.004 11.001l4.005 2.002-6.005 6.998z" fill="#ecf0f1"/><path d="M12 11c-.552 0-1 .448-1 1h2c0-.552-.448-1-1-1z" fill="#bdc3c7"/><path d="M12 13c.552 0 1-.448 1-1h-2c0 .552.448 1 1 1z" fill="#7f8c8d"/></g></svg>