<?xml version="1.0" encoding="UTF-8" standalone="no"?>
<svg xmlns:rdf="http://www.w3.org/1999/02/22-rdf-syntax-ns#" xmlns="http://www.w3.org/2000/svg" height="24" width="24" version="1.1" xmlns:cc="http://creativecommons.org/ns#" xmlns:dc="http://purl.org/dc/elements/1.1/">
 <g transform="translate(0 -1028.4)">
  <path d="m11.5 1030.9v9h-10v1h10v9h1v-9h10v-1h-10v-9h-1z" fill="#95a5a6"/>
  <path d="m24 12c0 6.627-5.373 12-12 12-6.6274 0-12-5.373-12-12 0-6.6274 5.3726-12 12-12 6.627 0 12 5.3726 12 12z" transform="matrix(.91667 0 0 .91667 1 1029.4)" fill="#34495e"/>
  <path d="m12 1c-6.6274 0-12 5.3726-12 12h2c0-5.5229 4.4772-10 10-10 5.523 0 10 4.4771 10 10h2c0-6.6274-5.373-12-12-12z" transform="translate(0 1028.4)" fill="#2c3e50"/>
  <path d="m12 1028.4c-6.6274 0-12 5.3-12 12 0 6.6 5.3726 12 12 12 6.627 0 12-5.4 12-12 0-6.7-5.373-12-12-12zm0 2c5.523 0 10 4.4 10 10 0 5.5-4.477 10-10 10-5.5228 0-10-4.5-10-10 0-5.6 4.4772-10 10-10z" fill="#7f8c8d"/>
  <path d="m13 12c0 0.552-0.448 1-1 1s-1-0.448-1-1 0.448-1 1-1 1 0.448 1 1z" transform="translate(0 1028.4)" fill="#95a5a6"/>
  <path d="m16.062 1033.4-5.687 7.2-2.0625 9 5.6875-7.2 2.062-9z" fill="#2c3e50"/>
  <path transform="matrix(.38955 .18579 -.48269 1.0121 22.033 1018.9)" fill="#e74c3c" d="m5.0318 21.107h-9.2681l4.634-8.026z"/>
  <path transform="matrix(-.38955 -.18579 .48269 -1.0121 1.9668 1061.8)" fill="#ecf0f1" d="m5.0318 21.107h-9.2681l4.634-8.026z"/>
  <path d="m12 11c-0.552 0-1 0.448-1 1h2c0-0.552-0.448-1-1-1z" transform="translate(0 1028.4)" fill="#bdc3c7"/>
  <path d="m12 1041.4c0.552 0 1-0.5 1-1h-2c0 0.5 0.448 1 1 1z" fill="#7f8c8d"/>
 </g>
</svg>
