<svg xmlns="http://www.w3.org/2000/svg" width="24" height="24"><g transform="translate(0 -1028.362)"><path d="M10.286 1030.362l-5.346 18h14.256l-5.346-18h-3.564z" fill="#ecf0f1"/><path d="M4 1047.362l-2 2h20l-2-2h-16z" fill="#f39c12"/><path d="M10.286 1030.362l-.891 3h5.346l-.891-3h-3.564zm-2.088 7l-1.197 4h10.136l-1.197-4h-7.741zm-2.367 8l-.891 3h14.256l-.891-3h-12.475z" fill="#e67e22"/><path d="M10.286 1030.362l-5.346 18h7.128v-18h-1.782z" fill="#bdc3c7"/><path d="M10.286 1030.362l-.891 3h2.673v-3h-1.782zm-2.088 7l-1.197 4h5.068v-4h-3.871zm-2.367 8l-.891 3h7.128v-3h-6.237z" fill="#d35400"/><rect width="20" height="1" x="2" y="1049.362" fill="#e67e22"/></g></svg>