<svg xmlns="http://www.w3.org/2000/svg" width="24" height="24"><g><path d="M12 4c-3.071 0-6.157 1.157-8.5 3.5-3.382 3.382-3.5 8.5-3.5 12.5h24c0-4-.118-9.118-3.5-12.5-2.343-2.343-5.429-3.5-8.5-3.5z" fill="#1abc9c"/><path d="M12 7c-.552 0-1 .448-1 1s.448 1 1 1 1-.448 1-1-.448-1-1-1zm5 1c-.552 0-1 .448-1 1s.448 1 1 1 1-.448 1-1-.448-1-1-1zm-10 0c-.552 0-1 .448-1 1s.448 1 1 1 1-.448 1-1-.448-1-1-1zm13 3.844c-.552 0-1 .448-1 1s.448 1 1 1 1-.448 1-1-.448-1-1-1zm-16 .156c-.552 0-1 .448-1 1s.448 1 1 1 1-.448 1-1-.448-1-1-1zm-1 5c-.552 0-1 .448-1 1s.448 1 1 1 1-.448 1-1-.448-1-1-1zm18 0c-.552 0-1 .448-1 1s.448 1 1 1 1-.448 1-1-.448-1-1-1z" fill="#16a085"/><path d="M13.406 18.416c-.781.781-2.048.781-2.829.001-.781-.781-.781-2.047.001-2.829.781-.781 2.048-.781 2.829-.001.781.781.781 2.047-.001 2.829z" fill="#16a085"/><path d="M19.786 8.226l-7.064 8.485-1.421-1.421z" fill="#c0392b"/><path style="text-indent:0;text-align:start;line-height:normal;text-transform:none;block-progression:tb;-inkscape-font-specification:Sans" d="M19.759 1037.556a.198 1.26 45 0 0-.044 0 .198 1.26 45 0 0-.508.331l-7.999 6.673.066.066-2.121 2.121c-.391.39-.391 1.024 0 1.414.391.391 1.024.391 1.414 0l2.121-2.121.088.088 6.673-7.999a.198 1.26 45 0 0 .331-.552.198 1.26 45 0 0-.022-.022z" color="#000" fill="#16a085" overflow="visible" enable-background="accumulate" font-family="Sans" transform="translate(0 -1028.362)"/><path style="text-indent:0;text-align:start;line-height:normal;text-transform:none;block-progression:tb;-inkscape-font-specification:Sans" d="M19.778 1036.584a.198 1.26 45 0 0-.044 0 .198 1.26 45 0 0-.508.331l-7.999 6.673.066.066-2.121 2.121c-.391.39-.391 1.024 0 1.414.391.391 1.024.391 1.414 0l2.121-2.121.088.088 6.673-7.999a.198 1.26 45 0 0 .331-.552.198 1.26 45 0 0-.022-.022z" color="#000" fill="#c0392b" overflow="visible" enable-background="accumulate" font-family="Sans" transform="translate(0 -1028.362)"/><path d="M13.406 17.416c-.781.781-2.048.781-2.829.001-.781-.781-.781-2.047.001-2.829.781-.781 2.048-.781 2.829-.001.781.781.781 2.047-.001 2.829z" fill="#e74c3c"/><path d="M12.707 16.704c-.39.39-1.024.39-1.414 0-.39-.39-.39-1.024 0-1.414.39-.39 1.024-.39 1.414 0 .39.39.39 1.024 0 1.414z" fill="#ecf0f1"/><path d="M12 6c-.552 0-1 .448-1 1s.448 1 1 1 1-.448 1-1-.448-1-1-1zm5 1c-.552 0-1 .448-1 1s.448 1 1 1 1-.448 1-1-.448-1-1-1zm-10 0c-.552 0-1 .448-1 1s.448 1 1 1 1-.448 1-1-.448-1-1-1zm13 3.844c-.552 0-1 .448-1 1s.448 1 1 1 1-.448 1-1-.448-1-1-1zm-16 .156c-.552 0-1 .448-1 1s.448 1 1 1 1-.448 1-1-.448-1-1-1zm-1 5c-.552 0-1 .448-1 1s.448 1 1 1 1-.448 1-1-.448-1-1-1zm18 0c-.552 0-1 .448-1 1s.448 1 1 1 1-.448 1-1-.448-1-1-1z" fill="#ecf0f1"/><path d="M12 4c-3.071 0-6.157 1.157-8.5 3.5-3.23 3.23-3.484 8.027-3.5 11.938.069-3.705.541-7.978 3.5-10.938 2.343-2.343 5.429-3.5 8.5-3.5 3.071 0 6.157 1.157 8.5 3.5 2.959 2.959 3.431 7.232 3.5 10.938-.016-3.911-.27-8.708-3.5-11.938-2.343-2.343-5.429-3.5-8.5-3.5z" fill="#16a085"/></g></svg>