<svg xmlns="http://www.w3.org/2000/svg" width="24" height="24"><g><path d="M11.982 5c-3.071 0-6.157 1.157-8.5 3.5-3.382 3.382-4.281 8.274-2.781 12.5h22.562c1.5-4.226.601-9.118-2.781-12.5-2.343-2.343-5.429-3.5-8.5-3.5z" fill="#2c3e50"/><path d="M12 4c-3.071 0-6.157 1.157-8.5 3.5-3.382 3.382-4.281 8.274-2.781 12.5h22.562c1.5-4.226.601-9.118-2.781-12.5-2.343-2.343-5.429-3.5-8.5-3.5z" fill="#34495e"/><path d="M13 11.864a1 .864 0 1 1-2 0 1 .864 0 1 1 2 0z" transform="matrix(1.414 1.414 -1.637 1.637 14.446 -19.387)" fill="#2c3e50"/><path d="M19.786 8.226l-7.064 8.485-1.421-1.421z" fill="#c0392b"/><path style="text-indent:0;text-align:start;line-height:normal;text-transform:none;block-progression:tb;-inkscape-font-specification:Sans" d="M19.759 1037.556a.198 1.26 45 0 0-.044 0 .198 1.26 45 0 0-.508.331l-7.999 6.673.066.066-2.121 2.121c-.391.39-.391 1.024 0 1.414.391.391 1.024.391 1.414 0l2.121-2.121.088.088 6.673-7.999a.198 1.26 45 0 0 .331-.552.198 1.26 45 0 0-.022-.022z" color="#000" fill="#2c3e50" overflow="visible" enable-background="accumulate" font-family="Sans" transform="translate(0 -1028.362)"/><path style="text-indent:0;text-align:start;line-height:normal;text-transform:none;block-progression:tb;-inkscape-font-specification:Sans" d="M19.778 1036.584a.198 1.26 45 0 0-.044 0 .198 1.26 45 0 0-.508.331l-7.999 6.673.066.066-2.121 2.121c-.391.39-.391 1.024 0 1.414.391.391 1.024.391 1.414 0l2.121-2.121.088.088 6.673-7.999a.198 1.26 45 0 0 .331-.552.198 1.26 45 0 0-.022-.022z" color="#000" fill="#f1c40f" overflow="visible" enable-background="accumulate" font-family="Sans" transform="translate(0 -1028.362)"/><path d="M13 11.864a1 .864 0 1 1-2 0 1 .864 0 1 1 2 0z" transform="matrix(1.414 1.414 -1.637 1.637 14.446 -20.387)" fill="#f39c12"/><path d="M13 12a1 1 0 1 1-2 0 1 1 0 1 1 2 0z" transform="matrix(.707 .707 -.707 .707 12 -.97)" fill="#2c3e50"/><path d="M12 4c-3.071 0-6.157 1.157-8.5 3.5-2.537 2.536-3.69 5.933-3.469 9.25.045-2.992 1.184-5.966 3.469-8.25 2.343-2.343 5.429-3.5 8.5-3.5 3.071 0 6.157 1.157 8.5 3.5 2.285 2.284 3.424 5.258 3.469 8.25.221-3.317-.932-6.714-3.469-9.25-2.343-2.343-5.429-3.5-8.5-3.5z" fill="#2c3e50"/><path d="M12 6l-.5.031v2l.5-.031.5.031v-2l-.5-.031zm-4.781 1.188c-.304.149-.597.329-.875.5l1 1.75c.28-.183.575-.352.875-.5l-1-1.75zm9.562 0l-1 1.75c.3.148.595.317.875.5l1-1.75c-.278-.171-.571-.351-.875-.5zm-13.594 3.625c-.178.287-.314.591-.469.906l1.719 1c.154-.313.309-.616.5-.906l-1.75-1zm17.625 0l-1.75 1c.191.291.346.594.5.906l1.75-1c-.159-.313-.313-.614-.5-.906zm-19.281 5.188l-.031.5.031.5h2l-.031-.438v-.062l.031-.5h-2zm18.937 0l.031.5-.031.5h2l.031-.438c0-.19-.017-.376-.031-.563h-2z" fill="#7f8c8d"/><path d="M12 6l-.5.031v2l.5-.031.5.031v-2l-.5-.031zm-10.469 10l-.031.5.031.5h2l-.031-.438v-.062l.031-.5h-2zm18.937 0l.031.5-.031.5h2l.031-.438c0-.19-.017-.376-.031-.563h-2z" fill="#ecf0f1"/></g></svg>