<?xml version="1.0" encoding="UTF-8" standalone="no"?>
<svg xmlns:rdf="http://www.w3.org/1999/02/22-rdf-syntax-ns#" xmlns="http://www.w3.org/2000/svg" height="24" width="24" version="1.1" xmlns:cc="http://creativecommons.org/ns#" xmlns:dc="http://purl.org/dc/elements/1.1/">
 <g transform="translate(0 -1028.4)">
  <path d="m5 1028.4c-1.1046 0-2 0.9-2 2v2c0 1.1 0.8954 2 2 2h14c1.105 0 2-0.9 2-2v-2c0-1.1-0.895-2-2-2h-14z" fill="#ecf0f1"/>
  <path d="m5 1028.4c-1.1046 0-2 0.9-2 2v2c0 1.1 0.8954 2 2 2h7v-6h-7z" fill="#bdc3c7"/>
  <path d="m37 1035.4c-1.105 0-2 0.9-2 2v2c0 1.1 0.895 2 2 2h14c1.105 0 2-0.9 2-2v-2c0-1.1-0.895-2-2-2h-14z" fill="#7f8c8d"/>
  <g transform="translate(30 -20.518)">
   <path d="m6 1044.9c-1.1046 0-2 0.9-2 2v2c0 1.1 0.8954 2 2 2h14c1.105 0 2-0.9 2-2v-2c0-1.1-0.895-2-2-2h-14z" fill="#95a5a6"/>
   <path d="m6 1044.9c-1.1046 0-2 0.9-2 2v2c0 1.1 0.8954 2 2 2h7v-6h-7z" fill="#7f8c8d"/>
  </g>
  <g transform="translate(0,-16)">
   <g transform="translate(-1,1.4818)">
    <path d="m6 1044.9c-1.1046 0-2 0.9-2 2v2c0 1.1 0.8954 2 2 2h14c1.105 0 2-0.9 2-2v-2c0-1.1-0.895-2-2-2h-14z" fill="#95a5a6"/>
    <path d="m6 1044.9c-1.1046 0-2 0.9-2 2v2c0 1.1 0.8954 2 2 2h7v-6h-7z" fill="#7f8c8d"/>
   </g>
   <g transform="translate(0,15)">
    <path d="m5 1030.4c-1.1046 0-2 0.9-2 2v2c0 1.1 0.8954 2 2 2h14c1.105 0 2-0.9 2-2v-2c0-1.1-0.895-2-2-2h-14z" fill="#bdc3c7"/>
    <path d="m5 1030.4c-1.1046 0-2 0.9-2 2v2c0 1.1 0.8954 2 2 2h7v-6h-7z" fill="#95a5a6"/>
   </g>
  </g>
  <path d="m5 1036.4c-1.1046 0-2 0.9-2 2v2c0 1.1 0.8954 2 2 2h14c1.105 0 2-0.9 2-2v-2c0-1.1-0.895-2-2-2h-14z" fill="#ecf0f1"/>
  <path d="m5 1036.4c-1.1046 0-2 0.9-2 2v2c0 1.1 0.8954 2 2 2h7v-6h-7z" fill="#bdc3c7"/>
  <g transform="translate(0,-8)">
   <g transform="translate(-1,1.4818)">
    <path d="m6 1044.9c-1.1046 0-2 0.9-2 2v2c0 1.1 0.8954 2 2 2h14c1.105 0 2-0.9 2-2v-2c0-1.1-0.895-2-2-2h-14z" fill="#95a5a6"/>
    <path d="m6 1044.9c-1.1046 0-2 0.9-2 2v2c0 1.1 0.8954 2 2 2h7v-6h-7z" fill="#7f8c8d"/>
   </g>
   <g transform="translate(0,15)">
    <path d="m5 1030.4c-1.1046 0-2 0.9-2 2v2c0 1.1 0.8954 2 2 2h14c1.105 0 2-0.9 2-2v-2c0-1.1-0.895-2-2-2h-14z" fill="#bdc3c7"/>
    <path d="m5 1030.4c-1.1046 0-2 0.9-2 2v2c0 1.1 0.8954 2 2 2h7v-6h-7z" fill="#95a5a6"/>
   </g>
  </g>
  <path d="m5 1044.4c-1.1046 0-2 0.9-2 2v2c0 1.1 0.8954 2 2 2h14c1.105 0 2-0.9 2-2v-2c0-1.1-0.895-2-2-2h-14z" fill="#ecf0f1"/>
  <path d="m5 1044.4c-1.1046 0-2 0.9-2 2v2c0 1.1 0.8954 2 2 2h7v-6h-7z" fill="#bdc3c7"/>
  <g transform="translate(-1,1.4818)">
   <path d="m6 1044.9c-1.1046 0-2 0.9-2 2v2c0 1.1 0.8954 2 2 2h14c1.105 0 2-0.9 2-2v-2c0-1.1-0.895-2-2-2h-14z" fill="#95a5a6"/>
   <path d="m6 1044.9c-1.1046 0-2 0.9-2 2v2c0 1.1 0.8954 2 2 2h7v-6h-7z" fill="#7f8c8d"/>
  </g>
  <g transform="translate(0,15)">
   <path d="m5 1030.4c-1.1046 0-2 0.9-2 2v2c0 1.1 0.8954 2 2 2h14c1.105 0 2-0.9 2-2v-2c0-1.1-0.895-2-2-2h-14z" fill="#bdc3c7"/>
   <path d="m5 1030.4c-1.1046 0-2 0.9-2 2v2c0 1.1 0.8954 2 2 2h7v-6h-7z" fill="#95a5a6"/>
  </g>
 </g>
</svg>
