<svg xmlns="http://www.w3.org/2000/svg" width="24" height="24"><g transform="translate(0 -1028.362)"><path d="M3 1043.362v3.5010000000000003c0 2.485 4.029 4.5 9 4.5s9-2.015 9-4.5v-3.501h-18z" fill="#95a5a6"/><path d="M21 1043.362c0 2.209-4.029 4-9 4s-9-1.791-9-4 4.029-4 9-4 9 1.791 9 4z" fill="#bdc3c7"/><path d="M3.063 1046.862c-.046.164-.063.331-.063.5 0 2.209 4.029 4 9 4s9-1.791 9-4c0-.169-.017-.336-.063-.5-.554 1.973-4.348 3.5-8.938 3.5-4.589 0-8.384-1.527-8.938-3.5z" fill="#7f8c8d"/><path d="M3 1038.362v3.5010000000000003c0 2.485 4.029 4.5 9 4.5s9-2.015 9-4.5v-3.501h-18z" fill="#95a5a6"/><path d="M21 1038.362c0 2.209-4.029 4-9 4s-9-1.791-9-4 4.029-4 9-4 9 1.791 9 4z" fill="#bdc3c7"/><path d="M3.063 1041.862c-.046.164-.063.331-.063.5 0 2.209 4.029 4 9 4s9-1.791 9-4c0-.169-.017-.336-.063-.5-.554 1.973-4.348 3.5-8.938 3.5-4.589 0-8.384-1.527-8.938-3.5z" fill="#7f8c8d"/><path d="M3 1033.362v3.5010000000000003c0 2.485 4.029 4.5 9 4.5s9-2.015 9-4.5v-3.501h-18z" fill="#95a5a6"/><path d="M3.063 1036.862c-.046.164-.063.331-.063.5 0 2.209 4.029 4 9 4s9-1.791 9-4c0-.169-.017-.336-.063-.5-.554 1.973-4.348 3.5-8.938 3.5-4.589 0-8.384-1.527-8.938-3.5z" fill="#7f8c8d"/><path d="M12 1043.362v8c4.971 0 9-2.015 9-4.5v-3.501h-9z" fill="#bdc3c7"/><g><path d="M12 1039.362v8c4.971 0 9-1.791 9-4s-4.029-4-9-4z" fill="#ecf0f1"/><path d="M12 1038.362v8c4.971 0 9-2.015 9-4.5v-3.501h-9z" fill="#bdc3c7"/><path d="M20.938 1041.862c-.554 1.973-4.348 3.5-8.938 3.5v1c4.971 0 9-1.791 9-4 0-.169-.017-.336-.063-.5z" fill="#95a5a6"/></g><g><path d="M12 1034.362v8c4.971 0 9-1.791 9-4s-4.029-4-9-4z" fill="#ecf0f1"/><path d="M12 1033.362v8c4.971 0 9-2.015 9-4.5v-3.501h-9z" fill="#bdc3c7"/><path d="M20.938 1036.862c-.554 1.973-4.348 3.5-8.938 3.5v1c4.971 0 9-1.791 9-4 0-.169-.017-.336-.063-.5z" fill="#95a5a6"/></g><path d="M20.938 1046.862c-.554 1.973-4.348 3.5-8.938 3.5v1c4.971 0 9-1.791 9-4 0-.169-.017-.336-.063-.5z" fill="#95a5a6"/><path d="M21 1033.362c0 2.209-4.029 4-9 4s-9-1.791-9-4 4.029-4 9-4 9 1.791 9 4z" fill="#bdc3c7"/></g></svg>