<?xml version="1.0" encoding="UTF-8" standalone="no"?>
<svg xmlns:rdf="http://www.w3.org/1999/02/22-rdf-syntax-ns#" xmlns="http://www.w3.org/2000/svg" height="24" width="24" version="1.1" xmlns:cc="http://creativecommons.org/ns#" xmlns:dc="http://purl.org/dc/elements/1.1/">
 <g transform="translate(0 -1028.4)">
  <path d="m16 21.5a0.5 1.5 0 1 1 0 -0.016l-0.5 0.016z" transform="matrix(3 0 0 1 -28 1027.4)" fill="#7f8c8d"/>
  <path d="m3 8v3 4 6c0 1.105 0.8954 2 2 2h14c1.105 0 2-0.895 2-2v-6-4-3h-18z" transform="translate(0 1028.4)" fill="#7f8c8d"/>
  <path d="m3 8v2 4 6c0 1.105 0.8954 2 2 2h14c1.105 0 2-0.895 2-2v-6-4-2h-18z" transform="translate(0 1028.4)" fill="#95a5a6"/>
  <path d="m3 8v3 6c0 1.105 0.8954 2 2 2h14c1.105 0 2-0.895 2-2v-6-3h-18z" transform="translate(0 1028.4)" fill="#bdc3c7"/>
  <path d="m16 21.5a0.5 1.5 0 1 1 0 -0.016l-0.5 0.016z" transform="matrix(3 0 0 1 -28 1022.4)" fill="#7f8c8d"/>
  <path d="m3 1031.4v3 4 6c0 1.1 0.8954 2 2 2h14c1.105 0 2-0.9 2-2v-6-4-3h-18z" fill="#7f8c8d"/>
  <path d="m3 1031.4v2 4 6c0 1.1 0.8954 2 2 2h14c1.105 0 2-0.9 2-2v-6-4-2h-18z" fill="#95a5a6"/>
  <path d="m3 1031.4v3 6c0 1.1 0.8954 2 2 2h14c1.105 0 2-0.9 2-2v-6-3h-18z" fill="#bdc3c7"/>
  <path d="m16 21.5a0.5 1.5 0 1 1 0 -0.016l-0.5 0.016z" transform="matrix(3 0 0 1 -28 1017.4)" fill="#7f8c8d"/>
  <path d="m3 4v1 6c0 1.105 0.8954 2 2 2h14c1.105 0 2-0.895 2-2v-6-1h-18z" transform="translate(0 1028.4)" fill="#7f8c8d"/>
  <path d="m3 4v6c0 1.105 0.8954 2 2 2h14c1.105 0 2-0.895 2-2v-6h-18z" transform="translate(0 1028.4)" fill="#95a5a6"/>
  <path d="m3 4v3c0 1.1046 0.8954 2 2 2h14c1.105 0 2-0.8954 2-2v-3h-18z" transform="translate(0 1028.4)" fill="#bdc3c7"/>
  <path d="m21 1034.4v-3c0-1.1-0.895-2-2-2h-14c-1.1046 0-2 0.9-2 2v3h18z" fill="#bdc3c7"/>
 </g>
</svg>
