<svg xmlns="http://www.w3.org/2000/svg" width="24" height="24"><g transform="translate(0 -1028.362)"><path d="M7 1030.362c-.552 0-1 .448-1 1v19c0 .552.448 1 1 1h10c.552 0 1-.448 1-1v-19c0-.552-.448-1-1-1h-10z" fill="#95a5a6"/><path d="M7 1029.362c-.552 0-1 .448-1 1v19c0 .552.448 1 1 1h10c.552 0 1-.448 1-1v-19c0-.552-.448-1-1-1h-10z" fill="#bdc3c7"/><path d="M13 20a1 1 0 1 1-2 0 1 1 0 1 1 2 0z" transform="translate(0 1028.862)" fill="#95a5a6"/><rect width="10" height="15" x="7" y="1032.362" fill="#2c3e50"/><path d="M7 1031.362v12l10-8.287v-3.713h-10z" fill="#34495e"/><rect width="6" height="1" x="9" y="1029.362" fill="#95a5a6"/></g></svg>