<svg xmlns="http://www.w3.org/2000/svg" width="24" height="24"><g><path d="M2 5c-1.105 0-2 .895-2 2v15c0 1.105.895 2 2 2h20c1.105 0 2-.895 2-2v-15c0-1.105-.895-2-2-2h-20z" fill="#7f8c8d"/><path d="M12.139 5c-3.234.006-6.523.088-9.658.875-1.358.257-1.772 1.608-1.973 2.698-.611 2.813-.582 5.711-.369 8.559.325 1.542.2 3.336 1.427 4.571 1.122.809 2.643.822 3.995 1.044 3.435.357 6.901.241 10.35.212 2.133-.108 4.342-.279 6.31-1.086 1.327-.859 1.333-2.521 1.592-3.844.274-2.428.194-4.88.095-7.315-.145-1.264-.327-2.558-.846-3.741-.503-1.013-1.756-1.203-2.815-1.41-2.661-.522-5.397-.559-8.107-.562z" fill="#95a5a6"/><path d="M10.536 7.005c-2.305.005-4.649.068-6.884.681-.968.2-1.263 1.251-1.406 2.099-.435 2.188-.415 4.443-.263 6.659.232 1.2.143 2.595 1.017 3.557.8.63 1.884.64 2.847.812 2.448.278 4.919.188 7.377.165 1.52-.084 3.095-.217 4.497-.845.946-.669.95-1.961 1.135-2.991.196-1.889.138-3.797.068-5.691-.104-.984-.233-1.99-.603-2.911-.358-.788-1.252-.936-2.007-1.097-1.896-.406-3.847-.435-5.778-.437z" fill="#2c3e50"/><path d="M10.62 7.389c-2.041.002-4.116.027-6.095.269-.857.079-1.118.495-1.245.831-.385.866-.367 1.758-.233 2.635.205.475.126 1.027.901 1.408.708.249 1.668.253 2.521.321 2.168.11 4.355.074 6.532.065 1.346-.033 2.74-.086 3.982-.334.837-.265.841-.776 1.005-1.184.173-.748.122-1.502.06-2.252-.092-.389-.206-.788-.534-1.152-.317-.312-1.108-.37-1.777-.434-1.679-.161-3.406-.172-5.116-.173z" fill="#34495e"/><path d="M23 14.5a1.5 1.5 0 1 1-3 0 1.5 1.5 0 1 1 3 0z" transform="translate(0 -1028.362) translate(0 1029.362)" fill="#7f8c8d"/><path d="M22 13.5a.5.5 0 1 1-1 0 .5.5 0 1 1 1 0z" transform="translate(0 -1028.362) translate(0 1030.362)" fill="#bdc3c7"/><path d="M23 14.5a1.5 1.5 0 1 1-3 0 1.5 1.5 0 1 1 3 0z" transform="translate(0 -1028.362) translate(0 1033.362)" fill="#7f8c8d"/><path transform="translate(0 -1028.362) translate(0 1034.362)" d="M22 13.5a.5.5 0 1 1-1 0 .5.5 0 1 1 1 0z" fill="#bdc3c7"/><path d="M20 8v1h3v-1h-3zm0 2v1h3v-1h-3zm0 2v1h3v-1h-3z" fill="#7f8c8d"/><path d="M8 5l-4-5h1l4 5z" fill="#7f8c8d"/><path d="M11 5l7-4h-2l-7 4z" fill="#7f8c8d"/></g></svg>