<svg xmlns="http://www.w3.org/2000/svg" width="24" height="24"><g transform="translate(0 -1028.362)"><path d="M21 1035.362v14c0 1.105-.895 2-2 2h-14c-1.105 0-2-.895-2-2v-14h18z" fill="#7f8c8d"/><path d="M3 1034.362v14c0 1.105.895 2 2 2h14c1.105 0 2-.895 2-2v-14h-18z" fill="#95a5a6"/><rect width="5" height="4" x="15" y="1046.362" fill="#7f8c8d"/><path d="M5 1029.362c-1.105 0-2 .895-2 2v14c0 1.105.895 2 2 2h14c1.105 0 2-.895 2-2v-14c0-1.105-.895-2-2-2h-14z" fill="#bdc3c7"/><rect width="3" height="1" x="16" y="20" transform="translate(0 1028.362)" fill="#f1c40f"/></g></svg>