<svg xmlns="http://www.w3.org/2000/svg" width="24" height="24"><g transform="translate(0 -1028.362)"><path d="M2 1033.362c-.552 0-1 .448-1 1v14c0 .552.448 1 1 1h20c.552 0 1-.448 1-1v-14c0-.552-.448-1-1-1h-20z" fill="#95a5a6"/><path d="M2 1032.362c-.552 0-1 .448-1 1v14c0 .552.448 1 1 1h20c.552 0 1-.448 1-1v-14c0-.552-.448-1-1-1h-20z" fill="#bdc3c7"/><rect width="18" height="12" x="3" y="1034.362" fill="#2c3e50"/><path d="M3 1034.362v10l18-6.906v-3.094h-18z" fill="#34495e"/><path d="M14.054 18.962a1.039.972 0 1 1-2.077 0 1.039.972 0 1 1 2.077 0z" transform="matrix(.963 0 0 1.029 9.468 1020.859)" fill="#95a5a6"/><path d="M11 4.5a.5.5 0 1 1-1 0 .5.5 0 1 1 1 0z" transform="translate(-8.5 1035.862)" fill="#7f8c8d"/><path d="M22 1039.362c-.552 0-1 .448-1 1h2c0-.552-.448-1-1-1z" fill="#7f8c8d"/><path d="M11 4.5a.5.5 0 1 1-1 0 .5.5 0 1 1 1 0z" transform="translate(11.5 1035.862)" fill="#bdc3c7"/></g></svg>