<svg xmlns="http://www.w3.org/2000/svg" width="24" height="24"><g transform="translate(0 -1028.362)"><path d="M2 1034.362c-1.105 0-2 .895-2 2v12c0 1.105.895 2 2 2h20c1.105 0 2-.895 2-2v-12c0-1.105-.895-2-2-2h-20z" fill="#c0392b"/><path d="M2 1031.362c-1.105 0-2 .895-2 2v12c0 1.105.895 2 2 2h20c1.105 0 2-.895 2-2v-12c0-1.105-.895-2-2-2h-20z" fill="#c0392b"/><path d="M2 1033.362c-1.105 0-2 .895-2 2v12c0 1.105.895 2 2 2h20c1.105 0 2-.895 2-2v-12c0-1.105-.895-2-2-2h-20z" fill="#e74c3c"/><path d="M18 1042.362c0 3.314-2.686 6-6 6s-6-2.686-6-6 2.686-6 6-6 6 2.686 6 6z" fill="#c0392b"/><path d="M18 1041.362c0 3.314-2.686 6-6 6s-6-2.686-6-6 2.686-6 6-6 6 2.686 6 6z" fill="#ecf0f1"/><path d="M16 1041.362c0 2.209-1.791 4-4 4s-4-1.791-4-4 1.791-4 4-4 4 1.791 4 4z" fill="#34495e"/><path d="M15 1041.362c0 1.657-1.343 3-3 3s-3-1.343-3-3 1.343-3 3-3 3 1.343 3 3z" fill="#2c3e50"/><path d="M14 1041.362c0 1.105-.895 2-2 2s-2-.895-2-2 .895-2 2-2 2 .895 2 2z" fill="#34495e"/><path d="M13 1041.362c0 .552-.448 1-1 1s-1-.448-1-1 .448-1 1-1 1 .448 1 1z" fill="#3498db"/><path d="M12 1039.362c0 .552-.448 1-1 1s-1-.448-1-1 .448-1 1-1 1 .448 1 1z" fill="#ecf0f1"/><rect width="3" height="1" x="19" y="1036.362" fill="#ecf0f1"/><rect width="3" height="1" x="19" y="1035.362" fill="#c0392b"/><path d="M4 1030.362c-1.105 0-2 .895-2 2h7c0-1.105-.895-2-2-2h-3z" fill="#c0392b"/></g></svg>