<svg xmlns="http://www.w3.org/2000/svg" width="24" height="24"><g transform="translate(0 -1028.362)"><path d="M8.875 1047.362l.031.5c0 1.863-.747 3.505-1.906 4.5h10c-1.16-.995-1.906-2.637-1.906-4.5l.031-.5h-6.25z" fill="#95a5a6"/><path d="M8.875 1047.362l.031.5c0 .522-.046 1.022-.156 1.5h6.5c-.11-.478-.156-.978-.156-1.5l.031-.5h-6.25z" fill="#7f8c8d"/><path d="M1 1031.362c-.552 0-1 .448-1 1v15c0 .552.448 1 1 1h22c.552 0 1-.448 1-1v-15c0-.552-.448-1-1-1h-22z" fill="#bdc3c7"/><rect width="22" height="14" x="1" y="1032.362" fill="#34495e"/><path d="M23 1033.362l-21 13h21v-13z" fill="#2c3e50"/></g></svg>