<?xml version="1.0" encoding="UTF-8" standalone="no"?>
<svg xmlns:rdf="http://www.w3.org/1999/02/22-rdf-syntax-ns#" xmlns="http://www.w3.org/2000/svg" height="24" width="24" version="1.1" xmlns:cc="http://creativecommons.org/ns#" xmlns:dc="http://purl.org/dc/elements/1.1/">
 <g transform="translate(0 -1028.4)">
  <path d="m5.0503 1034.2c-3.9053 3.9-3.9053 10.2 0 14.1 3.9052 3.9 10.237 3.9 14.142 0 3.906-3.9 3.906-10.2 0-14.1-3.905-3.9-10.236-3.9-14.142 0zm4.9497 4.9c1.172-1.2 3.071-1.2 4.243 0 1.171 1.2 1.171 3.1 0 4.3-1.172 1.1-3.071 1.1-4.243 0-1.1716-1.2-1.1716-3.1 0-4.3z" fill="#95a5a6"/>
  <path d="m4.9289 1033.3c-3.9052 3.9-3.9052 10.2 0 14.1 3.9053 3.9 10.237 3.9 14.142 0s3.905-10.2 0-14.1-10.237-3.9-14.142 0zm4.9498 4.9c1.1713-1.1 3.0713-1.1 4.2423 0 1.172 1.2 1.172 3.1 0 4.3-1.171 1.2-3.071 1.2-4.2423 0-1.1716-1.2-1.1716-3.1 0-4.3z" fill="#bdc3c7"/>
  <g fill="#ecf0f1">
   <path d="m9.8787 1038.2c-1.1716 1.2-1.1716 3.1 0 4.3 1.1713 1.2 3.0713 1.2 4.2423 0 1.172-1.2 1.172-3.1 0-4.3-1.171-1.1-3.071-1.1-4.2423 0zm0.7073 0.7c0.781-0.7 2.047-0.7 2.828 0 0.781 0.8 0.781 2.1 0 2.9s-2.047 0.8-2.828 0c-0.7813-0.8-0.7813-2.1 0-2.9z"/>
   <path d="m3.3392 1035.4c-0.4005 0.7-0.6934 1.4-0.9126 2.1l6.9748 1.4-4.6623-5.4c-0.5275 0.6-0.9993 1.2-1.3999 1.9z"/>
   <path d="m20.66 1045.4c0.4-0.7 0.693-1.4 0.912-2.2l-6.974-1.3 4.662 5.3c0.527-0.5 0.999-1.1 1.4-1.8z"/>
  </g>
 </g>
</svg>
