<svg xmlns="http://www.w3.org/2000/svg" width="24" height="24"><g><path d="M12 1c-6.075 0-11 4.925-11 11s4.925 11 11 11 11-4.925 11-11-4.925-11-11-11zm0 4c3.866 0 7 3.134 7 7s-3.134 7-7 7-7-3.134-7-7 3.134-7 7-7z" fill="#2c3e50"/><path d="M17 3.34c-4.783-2.761-10.899-1.123-13.66 3.66-2.761 4.783-1.123 10.899 3.66 13.66 4.783 2.761 10.899 1.123 13.66-3.66 2.761-4.783 1.123-10.899-3.66-13.66zm-4 6.928c.957.552 1.284 1.775.732 2.732-.552.957-1.775 1.284-2.732.732-.957-.552-1.284-1.775-.732-2.732.552-.957 1.775-1.284 2.732-.732z" fill="#2c3e50"/><path d="M6.01 3.934c-2.249 1.68-3.622 4.168-3.938 6.82l7.965.954c.064-.531.329-1.018.781-1.353l-4.809-6.421zm15.913 9.188l-7.938-.938c-.065.53-.357 1.003-.808 1.338l4.809 6.421c2.249-1.68 3.622-4.168 3.938-6.82z" fill="#34495e"/><path d="M12 8c-2.209 0-4 1.791-4 4s1.791 4 4 4 4-1.791 4-4-1.791-4-4-4zm0 3c.552 0 1 .448 1 1s-.448 1-1 1-1-.448-1-1 .448-1 1-1z" fill="#f1c40f"/></g></svg>