<?xml version="1.0" encoding="UTF-8" standalone="no"?>
<svg xmlns:rdf="http://www.w3.org/1999/02/22-rdf-syntax-ns#" xmlns="http://www.w3.org/2000/svg" height="24" width="24" version="1.1" xmlns:cc="http://creativecommons.org/ns#" xmlns:dc="http://purl.org/dc/elements/1.1/">
 <g transform="translate(0 -1028.4)">
  <path d="m21 1035.4v4 4 6c0 1.1-0.895 2-2 2h-14c-1.1046 0-2-0.9-2-2v-6-4-4h18z" fill="#7f8c8d"/>
  <path d="m3 1034.4v4 4 6c0 1.1 0.8954 2 2 2h14c1.105 0 2-0.9 2-2v-6-4-4h-18z" fill="#95a5a6"/>
  <path d="m3 1034.4v1 4 6c0 1.1 0.8954 2 2 2h14c1.105 0 2-0.9 2-2v-6-4-1h-18z" fill="#bdc3c7"/>
  <path d="m3 1042.4v-1-4-6c0-1.1 0.8954-2 2-2h14c1.105 0 2 0.9 2 2v6 4 1h-18z" fill="#bdc3c7"/>
  <path d="m16 21.5a0.5 1.5 0 1 1 0 -0.016l-0.5 0.016z" transform="matrix(3 0 0 1 -28 1027.4)" fill="#7f8c8d"/>
  <path d="m16 21.5a0.5 1.5 0 1 1 0 -0.016l-0.5 0.016z" transform="matrix(3 0 0 1 -31 1027.4)" fill="#7f8c8d"/>
  <path d="m14 20.5a0.5 0.5 0 1 1 0 -0.005l-0.5 0.005z" transform="translate(2 1028.4)" fill="#f1c40f"/>
  <path d="m14 20.5a0.5 0.5 0 1 1 0 -0.005l-0.5 0.005z" transform="translate(5 1028.4)" fill="#2ecc71"/>
 </g>
</svg>
