<svg xmlns="http://www.w3.org/2000/svg" width="24" height="24"><g style="text-align:end;line-height:125%;-inkscape-font-specification:FontAwesome" font-size="8" letter-spacing="0" word-spacing="0" text-anchor="end" fill="#2980b9" font-family="FontAwesome" transform="translate(0 -1028.362)"><path d="M12 1028.362c-1.066 4.13-2.808 8.142-5.375 11.563-2.503 2.779-2.018 7.549.906 9.844 1.239 1.041 2.861 1.586 4.469 1.594 1.608-.008 3.229-.553 4.469-1.594 2.924-2.295 3.409-7.064.906-9.844-2.567-3.42-4.309-7.433-5.375-11.563z" fill="#2980b9"/><path style="text-align:end;line-height:125%;-inkscape-font-specification:FontAwesome" d="M12.02 1029.319c-.591 2.873-1.557 5.664-2.98 8.043-1.388 1.933-1.119 5.251.502 6.848.687.724 1.586 1.103 2.478 1.109.891-.005 1.791-.385 2.478-1.109 1.621-1.597 1.89-4.915.502-6.848-1.423-2.379-2.389-5.17-2.98-8.043z" font-size="8" letter-spacing="0" word-spacing="0" text-anchor="end" fill="#3498db" font-family="FontAwesome"/></g></svg>