<svg xmlns="http://www.w3.org/2000/svg" width="24" height="24"><g><path d="M3 8c-1.105 0-2 .895-2 2v12c0 1.105.895 2 2 2h18c1.105 0 2-.895 2-2v-12c0-1.105-.895-2-2-2h-18z" fill="#7f8c8d"/><path d="M3 7c-1.105 0-2 .895-2 2v12c0 1.105.895 2 2 2h18c1.105 0 2-.895 2-2v-12c0-1.105-.895-2-2-2h-18z" fill="#bdc3c7"/><path d="M3 7c-.552 0-1.044.232-1.406.594l10.406 10.406 10.406-10.406c-.362-.362-.854-.594-1.406-.594h-18z" fill="#7f8c8d"/><path d="M5 0c-1.105 0-2 .895-2 2v7l9 9 9-9v-3l-6-6h-10z" fill="#f1c40f"/><path d="M21 6l-6-6v4c0 1.105.895 2 2 2h4z" fill="#f39c12"/><path d="M3 8v1l9 9 9-9v-1l-9 9-9-9z" fill="#f39c12"/><path d="M10 14l-8.406 8.406c.362.362.854.594 1.406.594h18c.552 0 1.044-.232 1.406-.594l-8.406-8.406h-4z" fill="#95a5a6"/></g></svg>