<?xml version="1.0" encoding="UTF-8" standalone="no"?>
<svg xmlns:rdf="http://www.w3.org/1999/02/22-rdf-syntax-ns#" xmlns="http://www.w3.org/2000/svg" height="24" width="24" version="1.1" xmlns:cc="http://creativecommons.org/ns#" xmlns:dc="http://purl.org/dc/elements/1.1/">
 <g transform="translate(0 -1028.4)">
  <path d="m3 1033.4c-1.1046 0-2 0.9-2 2v3 2 2 2 3c0 1.1 0.8954 2 2 2h9 9c1.105 0 2-0.9 2-2v-7-2-3c0-1.1-0.895-2-2-2h-9-9z" fill="#7f8c8d"/>
  <path d="m3 4c-1.1046 0-2 0.8954-2 2v3 2 2 2 3c0 1.105 0.8954 2 2 2h9 9c1.105 0 2-0.895 2-2v-7-2-3c0-1.1046-0.895-2-2-2h-9-9z" transform="translate(0 1028.4)" fill="#bdc3c7"/>
  <path d="m3 1048.4c-0.6008 0-1.1334-0.3-1.5-0.7 0.307-1 1.7404-2.6 3.9688-5 6.1602-6.8 6.1582-6.8 12.687-0.2 2.591 2.7 4.132 4.3 4.282 5.2-0.365 0.4-0.87 0.7-1.438 0.7h-9-9z" fill="#95a5a6"/>
  <path d="m3 1032.4c-0.6008 0-1.1334 0.2-1.5 0.6 0.307 1 1.7404 2.6 3.9688 5 6.1602 6.8 6.1582 6.9 12.687 0.2 2.591-2.6 4.132-4.2 4.282-5.2-0.365-0.4-0.87-0.6-1.438-0.6h-9-9z" fill="#ecf0f1"/>
 </g>
</svg>
