<svg xmlns="http://www.w3.org/2000/svg" width="24" height="24"><g><path d="M3 5c-1.105 0-2 .895-2 2v12c0 1.105.895 2 2 2h18c1.105 0 2-.895 2-2v-12c0-1.105-.895-2-2-2h-18z" fill="#7f8c8d"/><path d="M3 4c-1.105 0-2 .895-2 2v12c0 1.105.895 2 2 2h18c1.105 0 2-.895 2-2v-12c0-1.105-.895-2-2-2h-18z" fill="#bdc3c7"/><path d="M3 20c-.552 0-1.044-.232-1.406-.594l10.406-10.406 10.406 10.406c-.362.362-.854.594-1.406.594h-18z" fill="#95a5a6"/><path d="M1.844 5l10.156 12 10.156-12h-20.313z" fill="#7f8c8d"/><path d="M3 4c-.552 0-1.044.232-1.406.594l10.406 10.406 10.406-10.406c-.362-.362-.854-.594-1.406-.594h-18z" fill="#ecf0f1"/></g></svg>