<svg xmlns="http://www.w3.org/2000/svg" width="24" height="24"><g transform="translate(0 -1028.362)"><path d="M5 1030.362c-1.105 0-2 .895-2 2v18c0 1.105.895 2 2 2h14c1.105 0 2-.895 2-2v-14l-6-6h-10z" fill="#e67e22"/><path d="M5 1029.362c-1.105 0-2 .895-2 2v18c0 1.105.895 2 2 2h14c1.105 0 2-.895 2-2v-14l-6-6h-10z" fill="#f39c12"/><path d="M21 1035.362l-6-6v4c0 1.105.895 2 2 2h4z" fill="#e67e22"/><rect width="1" height="4" x="17" y="1044.362" fill="#ecf0f1"/><path d="M13 1041.362l-2.063 7h1.031l.594-2h1.906l.594 2h1.031l-2.063-6.969v-.031h-1.031zm.5 1.781l.656 2.219h-1.313l.656-2.219z" fill="#ecf0f1"/><path d="M18 13.5a.5.5 0 1 1-1 0 .5.5 0 1 1 1 0z" transform="matrix(1.188 0 0 1.188 -3.297 1026.956)" fill="#ecf0f1"/></g></svg>