<svg xmlns="http://www.w3.org/2000/svg" width="24" height="24"><g><path d="M5 2c-1.105 0-2 .895-2 2v18c0 1.105.895 2 2 2h14c1.105 0 2-.895 2-2v-14l-6-6h-10z" fill="#95a5a6"/><path d="M5 1c-1.105 0-2 .895-2 2v18c0 1.105.895 2 2 2h14c1.105 0 2-.895 2-2v-14l-6-6h-10z" fill="#bdc3c7"/><path d="M21 7l-6-6v4c0 1.105.895 2 2 2h4z" fill="#95a5a6"/><path d="M12 13c-1.105 0-2 .895-2 2v4c0 1.105.895 2 2 2s2-.895 2-2v-4c0-1.105-.895-2-2-2zm0 1c.552 0 1 .448 1 1s-.448 1-1 1-1-.448-1-1 .448-1 1-1zm0 3c.552 0 1 .448 1 1v1c0 .552-.448 1-1 1s-1-.448-1-1v-1c0-.552.448-1 1-1z" fill="#bdc3c7"/><path d="M10 1v10c0 1.105.895 2 2 2s2-.895 2-2v-10h-4z" fill="#7f8c8d"/><path d="M12 1v1h1v-1h-1zm0 1h-1v1h1v-1zm0 1v1h1v-1h-1zm0 1h-1v1h1v-1zm0 1v1h1v-1h-1zm0 1h-1v1h1v-1zm0 1v1h1v-1h-1zm0 1h-1v1h1v-1zm0 1v1h1v-1h-1zm0 1h-1v1h1v-1zm0 1v1c.552 0 1-.448 1-1h-1z" fill="#95a5a6"/><path d="M11 1v1h1v-1h-1zm0 2v1h1v-1h-1zm0 2v1h1v-1h-1zm0 2v1h1v-1h-1zm0 2v1h1v-1h-1zm0 2c0 .552.448 1 1 1v-1h-1z" fill="#ecf0f1"/><path d="M12 13c-1.105 0-2 .895-2 2v4c0 1.105.895 2 2 2s2-.895 2-2v-4c0-1.105-.895-2-2-2zm0 1c.552 0 1 .448 1 1s-.448 1-1 1-1-.448-1-1 .448-1 1-1zm0 3c.552 0 1 .448 1 1v1c0 .552-.448 1-1 1s-1-.448-1-1v-1c0-.552.448-1 1-1z" fill="#95a5a6"/><path d="M12 12c-1.105 0-2 .895-2 2v4c0 1.105.895 2 2 2s2-.895 2-2v-4c0-1.105-.895-2-2-2zm0 1c.552 0 1 .448 1 1s-.448 1-1 1-1-.448-1-1 .448-1 1-1zm0 3c.552 0 1 .448 1 1v1c0 .552-.448 1-1 1s-1-.448-1-1v-1c0-.552.448-1 1-1z" fill="#ecf0f1"/></g></svg>