<svg xmlns="http://www.w3.org/2000/svg" width="24" height="24"><g><path d="M5 2c-1.105 0-2 .895-2 2v18c0 1.105.895 2 2 2h14c1.105 0 2-.895 2-2v-14l-6-6h-10z" fill="#2980b9"/><path d="M5 1c-1.105 0-2 .895-2 2v18c0 1.105.895 2 2 2h14c1.105 0 2-.895 2-2v-14l-6-6h-10z" fill="#3498db"/><path d="M21 7l-6-6v4c0 1.105.895 2 2 2h4z" fill="#2980b9"/><path d="M10 13v7h1v-2h1.001c1.381 0 2.5-1.119 2.5-2.5s-1.119-2.5-2.5-2.5h-2.001zm1 1h1.0319999999999998c.814.016 1.469.682 1.469 1.5s-.654 1.484-1.469 1.5h-1.032v-3z" fill="#ecf0f1"/><path d="M16.5 15c-.828 0-1.5.672-1.5 1.5s.672 1.5 1.5 1.5h1c.276 0 .5.224.5.5s-.224.5-.5.5h-2c-.276 0-.5.224-.5.5s.224.5.5.5h2c.828 0 1.5-.672 1.5-1.5s-.672-1.5-1.5-1.5h-1c-.276 0-.5-.224-.5-.5s.224-.5.5-.5h2c.276 0 .5-.224.5-.5s-.224-.5-.5-.5h-2z" fill="#ecf0f1"/></g></svg>