<svg xmlns="http://www.w3.org/2000/svg" width="24" height="24"><g transform="translate(0 -1028.362)"><path d="M5 1030.362c-1.105 0-2 .895-2 2v18c0 1.105.895 2 2 2h14c1.105 0 2-.895 2-2v-14l-6-6h-10z" fill="#95a5a6"/><path d="M5 1029.362c-1.105 0-2 .895-2 2v18c0 1.105.895 2 2 2h14c1.105 0 2-.895 2-2v-14l-6-6h-10z" fill="#bdc3c7"/><path d="M21 1035.362l-6-6v4c0 1.105.895 2 2 2h4z" fill="#95a5a6"/><rect width="6" height="1" x="12" y="1038.362" fill="#3498db"/><path d="M5 1034.362l1.469 5v.031h1.031l1.031-3.5 1.031 3.469v.031h1.031l1.469-5.031h-1l-.969 3.25-.969-3.219h-1.156l-.969 3.219-.969-3.25h-1.031z" fill="#3498db"/><rect width="12" height="1" x="6" y="1041.362" fill="#3498db"/><rect width="12" height="1" x="6" y="1044.362" fill="#3498db"/><rect width="12" height="1" x="6" y="1047.362" fill="#3498db"/></g></svg>