<svg xmlns="http://www.w3.org/2000/svg" width="24" height="24"><g transform="translate(0 -1028.362)"><path d="M23 1048.362c0 1.105-.895 2-2 2h-18c-1.105 0-2-.895-2-2v-14c0-1.105.895-2 2-2h18c1.105 0 2 .895 2 2v14z" fill="#95a5a6"/><path d="M1 1047.362c0 1.105.895 2 2 2h18c1.105 0 2-.895 2-2v-14c0-1.105-.895-2-2-2h-18c-1.105 0-2 .895-2 2v14z" fill="#bdc3c7"/><rect width="18" height="14" x="3" y="5" transform="translate(0 1028.362)" fill="#f39c12"/><path d="M16.625 1036.987l-10.344 10.375h14.719v-6l-4.375-4.375z" fill="#e67e22"/><path d="M8 8a2 2 0 1 1-4 0 2 2 0 1 1 4 0z" transform="matrix(1.75 0 0 1.75 -3 1024.362)" fill="#f1c40f"/><path d="M8.094 1039.456l-5.094 5.094v2.813h13l-7.906-7.906z" fill="#d35400"/></g></svg>