<svg xmlns="http://www.w3.org/2000/svg" width="24" height="24"><g><path d="M5 2c-1.105 0-2 .895-2 2v18c0 1.105.895 2 2 2h14c1.105 0 2-.895 2-2v-14l-6-6h-10z" fill="#95a5a6"/><path d="M5 1c-1.105 0-2 .895-2 2v18c0 1.105.895 2 2 2h14c1.105 0 2-.895 2-2v-14l-6-6h-10z" fill="#bdc3c7"/><path d="M21 7l-6-6v4c0 1.105.895 2 2 2h4z" fill="#95a5a6"/><path d="M16.852 15.875c0-.208-.073-.385-.219-.531l-1.625-1.625c-.146-.146-.323-.219-.531-.219-.219 0-.406.083-.562.25l.148.148.164.164.117.148.102.203.031.211c0 .208-.073.385-.219.531-.146.146-.323.219-.531.219l-.219-.023-.195-.102-.148-.117-.172-.172-.141-.148c-.172.161-.258.352-.258.57 0 .208.073.385.219.531l1.609 1.617c.141.141.318.211.531.211.208 0 .385-.068.531-.203l1.148-1.141c.146-.146.219-.32.219-.523m-5.492-5.508c0-.208-.073-.385-.219-.531l-1.609-1.617c-.146-.146-.323-.219-.531-.219-.203 0-.38.07-.531.211l-1.148 1.141c-.146.146-.219.32-.219.523 0 .208.073.385.219.531l1.625 1.625c.141.141.318.211.531.211.219 0 .406-.081.563-.242l-.148-.141-.172-.172-.117-.148-.102-.195-.023-.219c0-.208.073-.385.219-.531.146-.146.323-.219.531-.219l.211.031.203.102.148.117.164.164.148.148c.172-.161.258-.352.258-.57m6.336 3.914c.437.438.656.969.656 1.594 0 .625-.221 1.154-.664 1.586l-1.148 1.141c-.432.432-.961.648-1.586.648-.63 0-1.161-.221-1.594-.664l-1.609-1.617c-.432-.432-.648-.961-.648-1.586 0-.641.229-1.185.688-1.633l-.688-.688c-.448.458-.99.688-1.625.688-.625 0-1.156-.219-1.594-.656l-1.625-1.625c-.438-.437-.656-.969-.656-1.594 0-.625.221-1.154.664-1.586l1.148-1.141c.432-.432.961-.648 1.586-.648.63 0 1.161.221 1.594.664l1.609 1.617c.432.432.648.961.648 1.586 0 .641-.229 1.185-.688 1.633l.688.687c.448-.458.99-.687 1.625-.687.625 0 1.156.219 1.594.656l1.625 1.625" fill="#7f8c8d" style="text-align:end;line-height:125%;-inkscape-font-specification:Wingdings" font-size="14" letter-spacing="0" word-spacing="0" text-anchor="end" font-family="Wingdings"/></g></svg>