<svg xmlns="http://www.w3.org/2000/svg" width="24" height="24"><g><path d="M5 2c-1.105 0-2 .895-2 2v18c0 1.105.895 2 2 2h14c1.105 0 2-.895 2-2v-14l-6-6h-10z" fill="#c0392b"/><path d="M5 1c-1.105 0-2 .895-2 2v18c0 1.105.895 2 2 2h14c1.105 0 2-.895 2-2v-14l-6-6h-10z" fill="#e74c3c"/><path d="M21 7l-6-6v4c0 1.105.895 2 2 2h4z" fill="#c0392b"/><path d="M19.112 11c-.197.001-.274.011-.29.035-.09.134-.601.764-.822 1.014l-.201.233c-.743.878-2.323 2.401-3.271 3.154l-.266.214c-.066.057-.699.511-.982.705-.906.619-1.968 1.12-2.792 1.316-1.628.389-2.898.247-4.548-.509-.498-.229-1.208-.644-1.598-.934-.382-.285-.342-.309-.341.207v.453l.258.167c.331.215 1.045.608 1.51.83.355.169.465.254.267.204-.183-.045-1.22-.024-1.619.034l-.4.055-.017.372v.371l.133-.03c.574-.128 1.805-.168 2.378-.076.675.108 1.15.253 1.72.525 1.088.52 1.991 1.449 2.383 2.453l.08.204h.88l-.023-.09c-.141-.55-.537-1.232-1.028-1.772-.322-.354-.89-.844-1.114-.96l-.076-.05c-.036-.041-.417-.259-.579-.331l-.168-.101.156-.006c.213.027 1.073-.043 1.462-.12 1.079-.213 2.098-.621 3.129-1.251.371-.226 1.211-.839 1.547-1.126.25-.214.33-.253.228-.11l-.154.232-.19.294c-.778 1.2-1.277 2.772-1.412 4.446-.02.243-.036.555-.036.694v.253h4.664l-.076-.106c-.421-.587-.941-1.878-1.117-2.768-.144-.732-.187-1.772-.097-2.35.262-1.675 1.155-2.991 2.689-3.962.158-.1.362-.215.453-.256l.167-.074v-.355c0-.196-.012-.35-.027-.344-.364.151-1.175.623-1.547.901-.199.149-.211.105-.023-.083.267-.267.73-.771 1.221-1.331l.229-.261-.501-.009-.24-.002z" fill="#ecf0f1"/></g></svg>