<svg xmlns="http://www.w3.org/2000/svg" width="24" height="24"><g transform="translate(0 -1028.362)"><path d="M5 1030.362c-1.105 0-2 .895-2 2v18c0 1.105.895 2 2 2h14c1.105 0 2-.895 2-2v-14l-6-6h-10z" fill="#8e44ad"/><path d="M5 1029.362c-1.105 0-2 .895-2 2v18c0 1.105.895 2 2 2h14c1.105 0 2-.895 2-2v-14l-6-6h-10z" fill="#9b59b6"/><path d="M21 1035.362l-6-6v4c0 1.105.895 2 2 2h4z" fill="#8e44ad"/><path d="M17 1042.362v2h-1c-1.105 0-2 .895-2 2s.895 2 2 2h2v-6h-1zm-1 3h1v2h-1c-.552 0-1-.448-1-1s.448-1 1-1z" fill="#ecf0f1"/><rect width="1" height="7" x="12" y="1041.362" fill="#ecf0f1"/></g></svg>