<svg xmlns="http://www.w3.org/2000/svg" width="24" height="24"><g><path d="M5 2c-1.105 0-2 .895-2 2v18c0 1.105.895 2 2 2h14c1.105 0 2-.895 2-2v-14l-6-6h-10z" fill="#95a5a6"/><path d="M5 1c-1.105 0-2 .895-2 2v18c0 1.105.895 2 2 2h14c1.105 0 2-.895 2-2v-14l-6-6h-10z" fill="#bdc3c7"/><path d="M21 7l-6-6v4c0 1.105.895 2 2 2h4z" fill="#95a5a6"/><path d="M9.397 16.498l-.391.391c-.052.052-.112.078-.18.078-.068 0-.128-.026-.18-.078l-3.641-3.641c-.052-.052-.078-.112-.078-.18 0-.068.026-.128.078-.18l3.641-3.641c.052-.052.112-.078.18-.078.068 0 .128.026.18.078l.391.391c.052.052.078.112.078.18 0 .068-.026.128-.078.18l-3.07 3.07 3.07 3.07c.052.052.078.112.078.18 0 .068-.026.128-.078.18m4.617-8.336l-2.914 10.086c-.021.068-.063.117-.125.148-.057.036-.117.044-.18.023l-.484-.133c-.068-.021-.12-.063-.156-.125-.031-.057-.036-.12-.016-.188l2.914-10.086c.021-.068.06-.117.117-.149.062-.036.125-.044.188-.023l.484.133c.068.021.117.063.148.125.036.057.044.12.023.188m5.133 5.086l-3.641 3.641c-.052.052-.112.078-.18.078-.068 0-.128-.026-.18-.078l-.391-.391c-.052-.052-.078-.112-.078-.18 0-.068.026-.128.078-.18l3.07-3.07-3.07-3.07c-.052-.052-.078-.112-.078-.18 0-.068.026-.128.078-.18l.391-.391c.052-.052.112-.078.18-.078.068 0 .128.026.18.078l3.641 3.641c.052.052.078.112.078.18 0 .068-.026.128-.078.18" font-size="14" fill="#16a085" style="text-align:end;line-height:125%;-inkscape-font-specification:Wingdings" letter-spacing="0" word-spacing="0" text-anchor="end" font-family="Wingdings"/></g></svg>