<svg xmlns="http://www.w3.org/2000/svg" width="24" height="24"><g><path d="M5 2c-1.105 0-2 .895-2 2v18c0 1.105.895 2 2 2h14c1.105 0 2-.895 2-2v-14l-6-6h-10z" fill="#95a5a6"/><path d="M5 1c-1.105 0-2 .895-2 2v18c0 1.105.895 2 2 2h14c1.105 0 2-.895 2-2v-14l-6-6h-10z" fill="#bdc3c7"/><path d="M13.755 15.063h-3.427l-.685.941-.783 1.04c-.152.223-.264.425-.335.606-.054.139-.082.277-.082.416 0 .145.068.28.204.407.141.121.373.19.693.208v.383h-3.34v-.383c.294-.054.672-.169.9-.344.305-.241.529-.52 1.1-1.274l7.389-11.001h.614v10.456c-.016.525.027.832.027.941 0 .41.073.708.22.895.152.187.402.295.751.326l.002.383h-5.001v-.374c.473-.048.963-.099 1.034-.136.152-.084.444-.225.569-.491.125-.271.371-.79.398-1.454v-1.547m0-1v-4l-3.001 4h3.001" style="-inkscape-font-specification:Times New Roman" font-size="25.041" font-style="italic" font-weight="bold" fill="#34495e" font-family="Times New Roman" letter-spacing="0" word-spacing="0" text-anchor="end"/><path d="M21 7l-6-6v4c0 1.105.895 2 2 2h4z" fill="#95a5a6"/></g></svg>