<svg xmlns="http://www.w3.org/2000/svg" width="24" height="24"><g transform="translate(0 -1028.362)"><path d="M5 1030.362c-1.105 0-2 .895-2 2v18c0 1.105.895 2 2 2h14c1.105 0 2-.895 2-2v-14l-6-6h-10z" fill="#95a5a6"/><path d="M5 1029.362c-1.105 0-2 .895-2 2v18c0 1.105.895 2 2 2h14c1.105 0 2-.895 2-2v-14l-6-6h-10z" fill="#bdc3c7"/><path d="M15 1039.362v4h4c0-2.209-1.791-4-4-4z" fill="#e67e22"/><path d="M14 1040.362c-2.209 0-4 1.791-4 4s1.791 4 4 4 4-1.791 4-4h-4v-4z" fill="#d35400"/><rect width="12" height="1" x="6" y="1034.362" fill="#95a5a6"/><rect width="3" height="2" x="6" y="1040.362" fill="#95a5a6"/><rect width="3" height="2" x="6" y="1043.362" fill="#95a5a6"/><rect width="3" height="2" x="6" y="1046.362" fill="#95a5a6"/><rect width="12" height="1" x="6" y="1036.362" fill="#95a5a6"/><path d="M21 1035.362l-6-6v4c0 1.105.895 2 2 2h4z" fill="#95a5a6"/></g></svg>