<?xml version="1.0" encoding="UTF-8" standalone="no"?>
<svg xmlns:rdf="http://www.w3.org/1999/02/22-rdf-syntax-ns#" xmlns="http://www.w3.org/2000/svg" height="24" width="24" version="1.1" xmlns:cc="http://creativecommons.org/ns#" xmlns:dc="http://purl.org/dc/elements/1.1/">
 <g transform="translate(0 -1028.4)">
  <path d="m2 1033.4c-1.1046 0-2 0.9-2 2v14c0 1.1 0.89543 2 2 2h20c1.105 0 2-0.9 2-2v-14c0-1.1-0.895-2-2-2h-20z" fill="#e67e22"/>
  <path d="m2 1032.4c-1.1046 0-2 0.9-2 2v14c0 1.1 0.89543 2 2 2h20c1.105 0 2-0.9 2-2v-14c0-1.1-0.895-2-2-2h-20z" fill="#f39c12"/>
  <path d="m2 1031.4c-1.1046 0-2 0.9-2 2v14c0 1.1 0.89543 2 2 2h20c1.105 0 2-0.9 2-2v-14c0-1.1-0.895-2-2-2h-20z" fill="#e67e22"/>
  <path d="m2 1030.4c-1.1046 0-2 0.9-2 2v14c0 1.1 0.89543 2 2 2h20c1.105 0 2-0.9 2-2v-14c0-1.1-0.895-2-2-2h-20z" fill="#f1c40f"/>
  <path d="m16 1030.4v1 13c0 1.1 0.895 2 2 2s2-0.9 2-2v-13-1h-4z" fill="#34495e"/>
  <path d="m18 2v1h1v-1h-1zm0 1h-1v1h1v-1zm0 1v1h1v-1h-1zm0 1h-1v1h1v-1zm0 1v1h1v-1h-1zm0 1h-1v1h1v-1zm0 1v1h1v-1h-1zm0 1h-1v1h1v-1zm0 1v1h1v-1h-1zm0 1h-1v1h1v-1zm0 1v1h1v-1h-1zm0 1h-1v1h1v-1zm0 1v1h1v-1h-1zm0 1h-1v1h1v-1zm0 1v1h1v-1h-1z" transform="translate(0 1028.4)" fill="#7f8c8d"/>
  <path d="m17 1030.4v1h1v-1h-1zm0 2v1h1v-1h-1zm0 2v1h1v-1h-1zm0 2v1h1v-1h-1zm0 2v1h1v-1h-1zm0 2v1h1v-1h-1zm0 2v1h1v-1h-1zm0 2v1h1v-1h-1z" fill="#bdc3c7"/>
 </g>
</svg>
