<svg xmlns="http://www.w3.org/2000/svg" width="24" height="24"><g><path d="M5 2c-1.105 0-2 .895-2 2v18c0 1.105.895 2 2 2h14c1.105 0 2-.895 2-2v-14l-6-6h-10z" fill="#95a5a6"/><path d="M5 1c-1.105 0-2 .895-2 2v18c0 1.105.895 2 2 2h14c1.105 0 2-.895 2-2v-14l-6-6h-10z" fill="#bdc3c7"/><path d="M16.996 6.75v8.75c0 .26-.089.492-.266.695-.177.203-.401.362-.672.477-.271.109-.542.193-.813.25-.266.052-.516.078-.75.078-.234 0-.487-.026-.758-.078-.266-.057-.534-.141-.805-.25-.271-.115-.495-.274-.672-.477-.177-.203-.266-.435-.266-.695 0-.26.089-.492.266-.695.177-.203.401-.359.672-.469.271-.115.539-.198.805-.25.271-.057.523-.086.758-.086.547 0 1.047.101 1.5.305v-4.195l-6 1.851v5.539c0 .26-.089.492-.266.695-.177.203-.401.359-.672.469-.271.115-.542.198-.813.25-.266.057-.516.086-.75.086-.234 0-.487-.029-.758-.086-.266-.052-.534-.135-.805-.25-.271-.109-.495-.266-.672-.469-.177-.203-.266-.435-.266-.695 0-.26.089-.492.266-.695.177-.203.401-.359.672-.469.271-.115.539-.198.805-.25.271-.057.523-.086.758-.086.547 0 1.047.101 1.5.305v-7.555c0-.161.049-.307.148-.438.099-.135.227-.229.383-.281l6.5-2 .219-.031c.208 0 .385.073.531.219.146.146.219.323.219.531" font-size="14" fill="#3498db" style="text-align:end;line-height:125%;-inkscape-font-specification:FontAwesome" letter-spacing="0" word-spacing="0" text-anchor="end" font-family="FontAwesome"/><path d="M21 7l-6-6v4c0 1.105.895 2 2 2h4z" fill="#95a5a6"/></g></svg>