<svg xmlns="http://www.w3.org/2000/svg" width="24" height="24"><g><path d="M5 2c-1.105 0-2 .895-2 2v1h2.094c.204-.586.75-1 1.406-1 .828 0 1.5.672 1.5 1.5s-.672 1.5-1.5 1.5c-.656 0-1.202-.414-1.406-1h-2.094v4h2.094c.204-.586.75-1 1.406-1 .828 0 1.5.672 1.5 1.5s-.672 1.5-1.5 1.5c-.656 0-1.202-.414-1.406-1h-2.094v4h2.094c.204-.586.75-1 1.406-1 .828 0 1.5.672 1.5 1.5s-.672 1.5-1.5 1.5c-.656 0-1.202-.414-1.406-1h-2.094v4h2.094c.204-.586.75-1 1.406-1 .828 0 1.5.672 1.5 1.5s-.672 1.5-1.5 1.5c-.656 0-1.202-.414-1.406-1h-2.094v1c0 1.105.895 2 2 2h14c1.105 0 2-.895 2-2v-14l-6-6h-10z" fill="#95a5a6"/><path d="M5 1c-1.105 0-2 .895-2 2v1h2.094c.204-.586.75-1 1.406-1 .828 0 1.5.672 1.5 1.5s-.672 1.5-1.5 1.5c-.656 0-1.202-.414-1.406-1h-2.094v4h2.094c.204-.586.75-1 1.406-1 .828 0 1.5.672 1.5 1.5s-.672 1.5-1.5 1.5c-.656 0-1.202-.414-1.406-1h-2.094v4h2.094c.204-.586.75-1 1.406-1 .828 0 1.5.672 1.5 1.5s-.672 1.5-1.5 1.5c-.656 0-1.202-.414-1.406-1h-2.094v4h2.094c.204-.586.75-1 1.406-1 .828 0 1.5.672 1.5 1.5s-.672 1.5-1.5 1.5c-.656 0-1.202-.414-1.406-1h-2.094v1c0 1.105.895 2 2 2h14c1.105 0 2-.895 2-2v-14l-6-6h-10z" fill="#bdc3c7"/><path d="M21 7l-6-6v4c0 1.105.895 2 2 2h4z" fill="#95a5a6"/></g></svg>