<svg xmlns="http://www.w3.org/2000/svg" width="24" height="24"><g><path d="M5 2c-1.105 0-2 .895-2 2v18c0 1.105.895 2 2 2h14c1.105 0 2-.895 2-2v-14l-6-6h-10z" fill="#8e44ad"/><path d="M5 1c-1.105 0-2 .895-2 2v18c0 1.105.895 2 2 2h14c1.105 0 2-.895 2-2v-14l-6-6h-10z" fill="#9b59b6"/><path d="M21 7l-6-6v4c0 1.105.895 2 2 2h4z" fill="#8e44ad"/><path d="M10 13v7h1v-2h1.001c1.381 0 2.5-1.119 2.5-2.5s-1.119-2.5-2.5-2.5h-2.001zm1 1h1.0319999999999998c.814.016 1.469.682 1.469 1.5s-.654 1.484-1.469 1.5h-1.032v-3z" fill="#ecf0f1"/><path d="M15 15v5h1v-2.594c.456-.856 1.179-1.406 2-1.406.173 0 .337.016.5.063v-1.063c-.942 0-1.817.413-2.5 1.094v-1.094h-1z" fill="#ecf0f1"/></g></svg>