<svg xmlns="http://www.w3.org/2000/svg" width="24" height="24"><g transform="translate(0 -1028.362)"><path d="M5 1030.362c-1.105 0-2 .895-2 2v18c0 1.105.895 2 2 2h14c1.105 0 2-.895 2-2v-14l-6-6h-10z" fill="#95a5a6"/><path d="M5 1029.362c-1.105 0-2 .895-2 2v18c0 1.105.895 2 2 2h14c1.105 0 2-.895 2-2v-14l-6-6h-10z" fill="#bdc3c7"/><rect width="2" height="14" x="7" y="5" transform="translate(0 1028.362)" fill="#1abc9c"/><path d="M7 1032.362c-.552 0-1 .448-1 1v14c0 .552.448 1 1 1h10c.552 0 1-.448 1-1v-14c0-.552-.448-1-1-1h-10zm0 1h2v2h-2v-2zm3 0h3v2h-3v-2zm4 0h3v2h-3v-2zm-7 3h2v2h-2v-2zm3 0h3v2h-3v-2zm4 0h3v2h-3v-2zm-7 3h2v2h-2v-2zm3 0h3v2h-3v-2zm4 0h3v2h-3v-2zm-7 3h2v2h-2v-2zm3 0h3v2h-3v-2zm4 0h3v2h-3v-2zm-7 3h2v2h-2v-2zm3 0h3v2h-3v-2zm4 0h3v2h-3v-2z" fill="#16a085"/><path d="M21 1035.362l-6-6v4c0 1.105.895 2 2 2h4z" fill="#95a5a6"/></g></svg>