<svg xmlns="http://www.w3.org/2000/svg" width="24" height="24"><g transform="translate(0 -1028.362)"><rect width="1" height="22" x="3" y="1030.362" fill="#ecf0f1"/><path d="M17.5 1030.362c-2.25 0-4.5 1.143-4.5 1.143s-2.25 1.143-4.5 1.143-4.5-1.143-4.5-1.143v13.714s2.25 1.143 4.5 1.143 4.5-1.143 4.5-1.143 2.25-1.143 4.5-1.143 4.5 1.143 4.5 1.143v-13.714s-2.25-1.143-4.5-1.143z" fill="#bdc3c7"/><rect width="1" height="22" x="2" y="1030.362" fill="#bdc3c7"/><path d="M17.5 1043.206c-2.25 0-4.5 1.156-4.5 1.156s-2.25 1.156-4.5 1.156-4.5-1.156-4.5-1.156v1s2.25 1.156 4.5 1.156 4.5-1.156 4.5-1.156 2.25-1.156 4.5-1.156 4.5 1.156 4.5 1.156v-1s-2.25-1.156-4.5-1.156z" fill="#95a5a6"/><path d="M3 1029.362c-.552 0-1 .448-1 1h2c0-.552-.448-1-1-1z" fill="#95a5a6"/><path d="M3 1029.362v1h1c0-.552-.448-1-1-1z" fill="#bdc3c7"/><path d="M19 1030.518v4.844l3 1v-4.844s-1.347-.687-3-1zm0 4.844l-4-1v5l4 1zm0 5v3c1.653.313 3 1 3 1v-4zm-4-1l-4 1v4.75c1.157-.335 2-.75 2-.75s.843-.415 2-.75zm-4 1v-5l-4 1v5zm-4 1l-3-1v4s1.347.687 3 1zm0-5v-3.875c-1.653-.304-3-.969-3-.969v3.844zm4-1l4-1v-3.594c-1.157.335-2 .75-2 .75s-.843.424-2 .75z" fill="#2c3e50"/></g></svg>