<svg xmlns="http://www.w3.org/2000/svg" width="24" height="24"><g style="text-align:end;line-height:125%;-inkscape-font-specification:FontAwesome" font-size="8" letter-spacing="0" word-spacing="0" text-anchor="end" fill="#2980b9" font-family="FontAwesome" transform="translate(0 -1028.362)"><path style="text-indent:0;text-align:end;line-height:125%;text-transform:none;block-progression:tb;-inkscape-font-specification:FontAwesome" d="M8.987 1030.359v7.813c-1.864 2.932-3.803 5.832-5.625 8.781-.934 1.566-.009 3.818 1.751 4.292 1.266.239 2.573.058 3.856.117 3.167-.006 6.337.037 9.503-.021 2.044-.193 3.265-2.834 2.078-4.513-1.813-2.9-3.721-5.765-5.563-8.656v-7.813h-6z" font-size="8" letter-spacing="0" word-spacing="0" text-anchor="end" color="#000" fill="#ecf0f1" overflow="visible" enable-background="accumulate" font-family="FontAwesome"/><path style="text-align:end;line-height:125%;-inkscape-font-specification:FontAwesome" d="M16 1042.862c0 .828-.672 1.5-1.5 1.5s-1.5-.672-1.5-1.5.672-1.5 1.5-1.5 1.5.672 1.5 1.5z" font-size="8" letter-spacing="0" word-spacing="0" text-anchor="end" fill="#2ecc71" font-family="FontAwesome"/><path style="text-indent:0;text-align:end;line-height:125%;text-transform:none;block-progression:tb;-inkscape-font-specification:FontAwesome" d="M9 1030.362v7.813c-1.864 2.932-3.803 5.832-5.625 8.781-.934 1.566-.009 3.807 1.75 4.281 1.266.239 2.561.065 3.844.125 1-.002 2-.003 3 0v-21h-2.969z" font-size="8" letter-spacing="0" word-spacing="0" text-anchor="end" color="#000" fill="#bdc3c7" overflow="visible" enable-background="accumulate" font-family="FontAwesome"/><path d="M13 1042.362c0 1.105-.895 2-2 2s-2-.895-2-2 .895-2 2-2 2 .895 2 2z" fill="#2ecc71"/><path style="text-align:end;line-height:125%;-inkscape-font-specification:FontAwesome" d="M7.473 1042.352c-1.098 1.707-2.202 3.421-3.281 5.125-.685 1.204.303 2.865 1.688 2.875 4.102-.001 8.211.022 12.312 0 1.396-.074 2.274-1.853 1.5-3l-3.219-5h-9z" font-size="8" letter-spacing="0" word-spacing="0" text-anchor="end" fill="#2ecc71" font-family="FontAwesome"/><path style="text-indent:0;text-align:end;line-height:125%;text-transform:none;block-progression:tb;-inkscape-font-specification:FontAwesome" d="M20.938 1047.8c-.196 1.259-1.138 2.405-2.469 2.531-3.166.058-6.333.025-9.5.031-1.283-.06-2.578.114-3.844-.125-1.09-.294-1.888-1.271-2.094-2.344-.22 1.41.665 2.959 2.094 3.344 1.266.239 2.561.065 3.844.125 3.167-.006 6.334.027 9.5-.031 1.684-.159 2.787-1.956 2.469-3.531z" font-size="8" letter-spacing="0" word-spacing="0" text-anchor="end" color="#000" fill="#95a5a6" overflow="visible" enable-background="accumulate" font-family="FontAwesome"/><path style="text-align:end;line-height:125%;-inkscape-font-specification:FontAwesome" d="M7.469 1042.362c-1.098 1.707-2.202 3.421-3.281 5.125-.685 1.204.303 2.865 1.688 2.875 2.03 0 4.062-.003 6.094 0v-8h-4.5z" font-size="8" letter-spacing="0" word-spacing="0" text-anchor="end" fill="#27ae60" font-family="FontAwesome"/><path style="text-align:end;line-height:125%;-inkscape-font-specification:FontAwesome" d="M7.453 1042.362l-.625 1h10.281l-.656-1h-9z" font-size="8" letter-spacing="0" word-spacing="0" text-anchor="end" fill="#27ae60" font-family="FontAwesome"/></g></svg>