<?xml version="1.0" encoding="UTF-8" standalone="no"?>
<svg xmlns:rdf="http://www.w3.org/1999/02/22-rdf-syntax-ns#" xmlns="http://www.w3.org/2000/svg" height="24" width="24" version="1.1" xmlns:cc="http://creativecommons.org/ns#" xmlns:dc="http://purl.org/dc/elements/1.1/">
 <g transform="translate(0 -1028.4)">
  <g>
   <path style="block-progression:tb;text-indent:0;color:#000000;text-transform:none" d="m8.9868 1030.4v7.8c-1.8639 2.9-3.8033 5.8-5.625 8.8-0.9343 1.5-0.0087 3.8 1.7506 4.2 1.2656 0.3 2.5733 0.1 3.8564 0.2 3.1672 0 6.3372 0 9.5032-0.1 2.044-0.2 3.264-2.8 2.077-4.5-1.813-2.9-3.721-5.7-5.562-8.6v-7.8h-6.0002z" fill="#ecf0f1"/>
   <path d="m14 14c0 1.105-0.895 2-2 2s-2-0.895-2-2 0.895-2 2-2 2 0.895 2 2z" transform="matrix(.75 0 0 .75 5.5 1032.4)" fill="#2ecc71"/>
   <path style="block-progression:tb;text-indent:0;color:#000000;text-transform:none" d="m9 1030.4v7.8c-1.8639 2.9-3.8033 5.8-5.625 8.8-0.9343 1.5-0.0092 3.8 1.75 4.2 1.2656 0.3 2.5607 0.1 3.8438 0.2h3.0002v-21h-2.969z" fill="#bdc3c7"/>
   <path d="m14 14c0 1.105-0.895 2-2 2s-2-0.895-2-2 0.895-2 2-2 2 0.895 2 2z" transform="translate(-1 1028.4)" fill="#2ecc71"/>
   <path d="m7.4729 1042.4c-1.098 1.7-2.2018 3.4-3.2812 5.1-0.6853 1.2 0.3032 2.8 1.6875 2.9h12.313c1.396-0.1 2.274-1.9 1.5-3-1.071-1.7-2.149-3.4-3.219-5h-9.0001z" fill="#2ecc71"/>
   <path style="block-progression:tb;text-indent:0;color:#000000;text-transform:none" d="m20.938 1047.8c-0.196 1.3-1.139 2.4-2.469 2.5-3.166 0.1-6.333 0.1-9.5002 0.1-1.2831-0.1-2.5782 0.1-3.8438-0.2-1.0898-0.3-1.8878-1.2-2.0938-2.3-0.2203 1.4 0.6652 3 2.0938 3.3 1.2656 0.3 2.5607 0.1 3.8438 0.2 3.1672 0 6.3342 0 9.5002-0.1 1.683-0.1 2.787-1.9 2.469-3.5z" fill="#95a5a6"/>
   <path d="m7.4688 1042.4c-1.0981 1.7-2.2019 3.4-3.2813 5.1-0.6853 1.2 0.3032 2.9 1.6875 2.9h6.094v-8h-4.5002z" fill="#27ae60"/>
   <rect height="4" width="4" y="1030.4" x="8" fill="#95a5a6"/>
   <rect height="4" width="4" y="1030.4" x="12" fill="#bdc3c7"/>
   <path d="m7.4531 1042.4c-0.2127 0.3-0.412 0.6-0.625 1h10.281c-0.215-0.4-0.441-0.7-0.656-1h-8.9999z" fill="#27ae60"/>
  </g>
 </g>
</svg>
