<svg xmlns="http://www.w3.org/2000/svg" width="24" height="24"><g transform="translate(0 -1028.362)"><path d="M4 1037.362v10c0 1.105.895 2 2 2h14c1.105 0 2-.895 2-2v-10h-18z" fill="#2980b9"/><path d="M6 1031.362c-1.105 0-2 .895-2 2v13c0 1.105.895 2 2 2h14c1.105 0 2-.895 2-2v-12l-3-3h-13z" fill="#3498db"/><path d="M9 1041.362c-1.105 0-2 .895-2 2v5h12v-5c0-1.105-.895-2-2-2h-8z" fill="#ecf0f1"/><rect width="12" height="1" x="7" y="1048.362" fill="#bdc3c7"/><path d="M7 1031.362v3c0 1.105.895 2 2 2h6c1.105 0 2-.895 2-2v-3h-10z" fill="#2980b9"/><path d="M8 1031.362v3c0 1.105.895 2 2 2h6c1.105 0 2-.895 2-2v-3h-10z" fill="#ecf0f1"/><path d="M9 1032.362v2c0 .552.448 1 1 1h2c.552 0 1-.448 1-1v-2h-4z" fill="#95a5a6"/><rect width="8" height="1" x="9" y="1043.362" fill="#bdc3c7"/><rect width="8" height="1" x="9" y="1045.362" fill="#bdc3c7"/><rect width="4" height="1" x="9" y="1031.362" fill="#bdc3c7"/></g></svg>