<?xml version="1.0" encoding="UTF-8" standalone="no"?>
<svg xmlns:rdf="http://www.w3.org/1999/02/22-rdf-syntax-ns#" xmlns="http://www.w3.org/2000/svg" height="24" width="24" version="1.1" xmlns:cc="http://creativecommons.org/ns#" xmlns:dc="http://purl.org/dc/elements/1.1/">
 <g transform="translate(0 -1028.4)">
  <path d="m3 1037.4v2 2 6c0 1.1 0.8954 2 2 2h14c1.105 0 2-0.9 2-2v-6-2-2h-18z" fill="#2980b9"/>
  <path d="m5 3c-1.1046 0-2 0.8954-2 2v2 2 1 2 6c0 1.105 0.8954 2 2 2h14c1.105 0 2-0.895 2-2v-6-2-1-2-1l-3-3h-1-2-10z" transform="translate(0 1028.4)" fill="#3498db"/>
  <path d="m6 3v1 1 2c0 1.1046 0.8954 2 2 2h1 4 2 1c1.105 0 2-0.8954 2-2v-1.8438-0.1562-1-1h-12z" transform="translate(0 1028.4)" fill="#2980b9"/>
  <path d="m8 1041.4c-1.1046 0-2 0.9-2 2v1.8 3.2h12v-3.2-1.8c0-1.1-0.895-2-2-2h-3-5z" fill="#ecf0f1"/>
  <rect height="1" width="12" y="1048.4" x="6" fill="#bdc3c7"/>
  <path d="m7 1031.4v1 2c0 1.1 0.8954 2 2 2h1 4 1c1.105 0 2-0.9 2-2v-1.9-0.1-1h-10z" fill="#ecf0f1"/>
  <path d="m8 4v2c0 0.5523 0.4477 1 1 1h1 1c0.552 0 1-0.4477 1-1v-2h-2-2z" transform="translate(0 1028.4)" fill="#95a5a6"/>
  <g fill="#bdc3c7">
   <rect transform="translate(0 1028.4)" height="1" width="8" y="15" x="8"/>
   <rect height="1" width="8" y="1045.4" x="8"/>
   <rect height="1" width="4" y="1031.4" x="8"/>
  </g>
 </g>
</svg>
