<svg xmlns="http://www.w3.org/2000/svg" width="24" height="24"><g transform="translate(0 -1028.362)"><g><path d="M15.709 1029.805c-.124-.059-.257-.082-.394-.094-.109-.007-.213.01-.319.028l-.09-.005-.149.065-.26.113-.074.032-.18.144-.17.118-.011.027-.143.128-.18.144c-.119.133-.232.303-.333.454l-.058.069c-.152.239-.277.485-.385.741-.115.274-.192.56-.272.847l-.032.08-.005.09c-.16.614-.299 1.239-.427 1.864l-.026.144c-.078.368-.164.737-.277 1.092l-.261.975-.394-1.264c-.563-1.585-.621-3.364-1.592-4.785-.52-.732-1.418-1.547-2.378-1.153-.258.092-.472.296-.609.529-.58 1.193-.134 2.59.491 3.673.913 1.365 1.736 2.791 2.558 4.211-.796-.424-1.595-.863-2.379-1.308l-.096-.069-.229-.121c-.461-.288-.921-.576-1.398-.828l-.08-.032c-.512-.265-1.033-.495-1.609-.604l-.117-.015c-.16-.025-.346-.041-.506-.045l-.255.023c-.142.007-.281.022-.42.05l-.229.033-.074.032-.26.113-.149.065c-.114.072-.211.175-.296.283l-.011.027c-.077.102-.151.204-.19.325-.045.122-.073.249-.083.367l-.01.026c-.007.109.01.214.028.319l-.005.09.065.149.113.26.032.074.144.18.118.17c.104.125.206.236.326.344.12.106.267.221.4.312l.096.069c.983.624 2.122.817 3.255 1.037l.25.068c.456.091.915.179 1.353.318l1.395.366c-1.57.477-3.145.958-4.744 1.332-1.197.365-2.476 1.082-2.866 2.349-.059.264-.042.56.084.803.433.943 1.646.961 2.525.78 1.68-.375 2.936-1.636 4.43-2.41l1.151-.655-.474.891-.543.987c-.355.587-.714 1.176-1.039 1.776l-.058.069-.032.08c-.265.512-.495 1.032-.604 1.609l-.005.091c-.029.178-.063.38-.066.559-.002.144.033.277.05.42l.033.229.033.229.032.074.113.26.065.149c.072.114.175.211.283.297.099.081.223.147.352.2.115.055.24.07.367.083.119.01.231.002.346-.018l.09.005c.144-.05.28-.106.409-.177l.074-.032.18-.145c.117-.083.219-.173.323-.273l.18-.145c.13-.142.231-.306.333-.454l.058-.069c.692-1.09.865-2.371 1.121-3.622.095-.411.2-.826.302-1.236l.261-.975.394 1.264c.563 1.585.621 3.364 1.592 4.785.52.732 1.418 1.547 2.378 1.153.258-.092.472-.296.609-.53.58-1.193.134-2.589-.491-3.673-.913-1.365-1.736-2.791-2.558-4.211l1.269.685c.38.181.746.4 1.109.622l.325.19c.436.273.88.528 1.328.77l.069.058.08.032c.264.137.526.276.805.379.261.096.526.172.804.225l.117.015c.19.03.406.05.596.05.201-.001.389-.037.585-.077l.128-.011.175-.054.175-.054.085-.059.149-.065.058-.07c.085-.065.169-.129.238-.214l.01-.027c.073-.094.14-.206.19-.325.055-.115.07-.24.083-.367.01-.119.002-.231-.018-.346l.005-.09-.065-.149-.113-.26-.032-.074-.059-.085-.203-.265-.027-.01-.128-.143-.102-.132-.069-.058c-.15-.133-.325-.271-.497-.381-.239-.152-.485-.277-.741-.385-.274-.115-.56-.192-.847-.272l-.08-.032-.09-.005c-.493-.129-.992-.246-1.496-.344l-.367-.083c-.876-.21-1.76-.435-2.631-.668 1.57-.477 3.145-.957 4.744-1.332 1.197-.365 2.476-1.082 2.866-2.349.059-.264.042-.559-.084-.803-.433-.943-1.646-.961-2.525-.78-1.68.375-2.936 1.636-4.43 2.41l-1.151.655.474-.891c.205-.369.411-.744.622-1.109.333-.544.658-1.096.96-1.654l.09-.149c.137-.264.277-.526.379-.805.096-.261.172-.525.225-.804l.005-.09c.027-.178.064-.367.066-.559l-.033-.229c-.008-.145-.021-.28-.05-.42l-.033-.229-.032-.074-.113-.26-.065-.149-.069-.058c-.065-.085-.129-.169-.214-.238l-.027-.011c-.094-.073-.206-.14-.325-.19z" fill="#c0392b"/><path d="M12.005 1029.363c-.137-.009-.269.018-.401.057-.104.033-.195.088-.287.143l-.086.029-.115.115-.201.201-.057.057-.115.201-.115.172v.029l-.086.172-.115.201c-.062.167-.105.368-.143.544l-.029.086c-.054.279-.079.553-.086.831-.007.297.027.592.057.888v.086l.029.086c.076.63.176 1.263.287 1.891l.029.143c.063.371.118.746.143 1.118l.115 1.003-.831-1.032c-1.106-1.268-1.813-2.903-3.238-3.869-.752-.491-1.887-.92-2.636-.201-.207.18-.331.449-.373.716-.102 1.323.825 2.459 1.805 3.238 1.351.935 2.639 1.96 3.926 2.98-.896-.103-1.801-.217-2.694-.344l-.115-.029-.258-.029c-.535-.099-1.069-.198-1.605-.258h-.086c-.574-.059-1.143-.082-1.719.029l-.115.029c-.158.036-.337.089-.487.143l-.229.115c-.129.059-.253.124-.373.201l-.201.115-.057.057-.201.201-.115.115c-.08.109-.132.241-.172.373v.029c-.034.124-.066.245-.057.373.003.13.023.258.057.373v.029c.033.104.088.195.143.287l.029.086.115.115.201.201.057.057.201.115.172.115c.142.078.278.144.43.201.15.055.329.108.487.143l.115.029c1.144.22 2.275-.019 3.41-.229l.258-.029c.458-.082.917-.169 1.376-.201l1.433-.172c-1.286 1.02-2.575 2.045-3.926 2.98-.98.779-1.907 1.915-1.805 3.238.042.267.166.536.373.716.749.719 1.884.29 2.636-.201 1.425-.966 2.132-2.601 3.238-3.869l.831-1.032-.115 1.003-.143 1.118c-.115.677-.233 1.357-.315 2.035l-.029.086v.086c-.059.574-.082 1.143.029 1.719l.029.086c.039.177.081.377.143.544.051.134.132.245.201.373l.115.201.115.201.057.057.201.201.115.115c.109.08.241.132.373.172.121.039.262.054.401.057.127.009.249-.023.373-.057.114-.034.216-.083.315-.143l.086-.029c.115-.099.222-.202.315-.315l.057-.057.115-.201c.078-.12.14-.241.201-.373l.115-.201c.069-.18.103-.369.143-.544l.029-.086c.244-1.268-.065-2.524-.287-3.783-.062-.418-.117-.842-.172-1.261l-.115-1.003.831 1.032c1.106 1.268 1.813 2.903 3.238 3.869.752.491 1.887.92 2.636.201.207-.18.331-.449.373-.716.102-1.323-.825-2.459-1.805-3.238-1.351-.935-2.639-1.96-3.926-2.98l1.433.172c.42.029.841.098 1.261.172l.373.057c.505.094 1.012.168 1.519.229l.086.029h.086c.296.03.591.064.888.057.278-.007.552-.032.831-.086l.115-.029c.188-.042.396-.102.573-.172.187-.075.349-.178.516-.287l.115-.057.143-.115.143-.115.057-.086.115-.115.029-.086c.056-.092.11-.182.143-.287v-.029c.034-.114.055-.243.057-.373.009-.127-.023-.249-.057-.373-.034-.114-.083-.216-.143-.315l-.029-.086-.115-.115-.201-.201-.057-.057-.086-.057-.287-.172h-.029l-.172-.086-.143-.086-.086-.029c-.189-.069-.402-.133-.602-.172-.279-.054-.553-.079-.831-.086-.297-.007-.592.027-.888.057h-.086l-.086.029c-.506.061-1.013.136-1.519.229l-.373.057c-.893.126-1.798.241-2.694.344 1.286-1.02 2.575-2.045 3.926-2.98.98-.779 1.907-1.915 1.805-3.238-.042-.267-.166-.536-.373-.716-.749-.719-1.884-.29-2.636.201-1.425.966-2.132 2.601-3.238 3.869l-.831 1.032.115-1.003c.055-.419.11-.843.172-1.261.111-.629.211-1.261.287-1.891l.029-.172c.03-.296.064-.591.057-.888-.007-.278-.032-.552-.086-.831l-.029-.086c-.041-.175-.075-.365-.143-.544l-.115-.201c-.061-.132-.122-.253-.201-.373l-.115-.201-.057-.057-.201-.201-.115-.115-.086-.029c-.092-.056-.182-.11-.287-.143h-.029c-.114-.034-.243-.055-.373-.057z" fill="#e74c3c"/></g><path d="M16 12a4 4 0 1 1-8 0 4 4 0 1 1 8 0z" transform="translate(0 1028.362)" fill="#c0392b"/><path d="M14 12.5a2 2.5 0 1 1-4 0 2 2.5 0 1 1 4 0z" transform="matrix(1 0 0 .8 0 1030.362)" fill="#e67e22"/></g></svg>