<svg xmlns="http://www.w3.org/2000/svg" width="24" height="24"><g><path d="M2 5c-1.105 0-2 .895-2 2v14c0 1.105.895 2 2 2h20c1.105 0 2-.895 2-2v-14c0-1.105-.895-2-2-2h-20z" fill="#2980b9"/><path d="M3 1c-1.105 0-2 .895-2 2v14c0 1.105.895 2 2 2h18c1.105 0 2-.895 2-2v-12c0-1.105-.895-2-2-2h-8l-3-2h-7z" fill="#2980b9"/><path d="M23 14v-8c0-1.105-.895-2-2-2h-18c-1.105 0-2 .895-2 2v8h22z" fill="#bdc3c7"/><path d="M2 5c-1.105 0-2 .895-2 2v13c0 1.105.895 2 2 2h20c1.105 0 2-.895 2-2v-13c0-1.105-.895-2-2-2h-20z" fill="#3498db"/></g></svg>