<svg xmlns="http://www.w3.org/2000/svg" width="24" height="24"><g><path d="M2 5c-1.105 0-2 .895-2 2v14c0 1.105.895 2 2 2h20c1.105 0 2-.895 2-2v-14c0-1.105-.895-2-2-2h-20z" fill="#2980b9"/><path d="M3 1c-1.105 0-2 .895-2 2v14c0 1.105.895 2 2 2h18c1.105 0 2-.895 2-2v-12c0-1.105-.895-2-2-2h-8l-3-2h-7z" fill="#2980b9"/><path d="M23 14v-8c0-1.105-.895-2-2-2h-18c-1.105 0-2 .895-2 2v8h22z" fill="#bdc3c7"/><path d="M2 5c-1.105 0-2 .895-2 2v13c0 1.105.895 2 2 2h20c1.105 0 2-.895 2-2v-13c0-1.105-.895-2-2-2h-20z" fill="#3498db"/><path style="text-align:end;line-height:125%;-inkscape-font-specification:Wingdings" d="M5.25 8c-.344 0-.63.13-.875.375s-.375.531-.375.875v9.5c0 .344.13.63.375.875s.531.375.875.375h13.5c.344 0 .63-.13.875-.375s.375-.531.375-.875v-9.5c0-.344-.13-.63-.375-.875s-.531-.375-.875-.375h-13.5zm0 1h13.5c.068 0 .141.01.188.063.052.047.062.12.063.188v9.5c0 .068-.01.135-.063.188-.047.047-.12.063-.188.063h-13.5c-.068 0-.135-.016-.188-.063-.047-.052-.063-.12-.063-.188v-9.5c0-.068.016-.141.063-.188.052-.052.12-.063.188-.063zm2.25 1c-.417 0-.771.146-1.063.438-.292.292-.438.646-.438 1.063 0 .417.146.771.438 1.063.292.292.646.438 1.063.438.417 0 .771-.146 1.063-.438.292-.292.437-.646.438-1.063 0-.417-.146-.771-.438-1.063-.292-.292-.646-.438-1.063-.438zm6.25 1.25l-4 4-1.25-1.25-2.5 2.5v1.5h12v-2l-4.25-4.75z" font-size="14" letter-spacing="0" word-spacing="0" text-anchor="end" fill="#2980b9" font-family="Wingdings"/></g></svg>