<svg xmlns="http://www.w3.org/2000/svg" width="24" height="24"><g><path d="M2 5c-1.105 0-2 .895-2 2v14c0 1.105.895 2 2 2h20c1.105 0 2-.895 2-2v-14c0-1.105-.895-2-2-2h-20z" fill="#2980b9"/><path d="M3 1c-1.105 0-2 .895-2 2v14c0 1.105.895 2 2 2h18c1.105 0 2-.895 2-2v-12c0-1.105-.895-2-2-2h-8l-3-2h-7z" fill="#2980b9"/><path d="M23 14v-8c0-1.105-.895-2-2-2h-18c-1.105 0-2 .895-2 2v8h22z" fill="#bdc3c7"/><path d="M2 5c-1.105 0-2 .895-2 2v13c0 1.105.895 2 2 2h20c1.105 0 2-.895 2-2v-13c0-1.105-.895-2-2-2h-20z" fill="#3498db"/><path d="M6.25 7c-.344 0-.63.13-.875.375s-.375.531-.375.875v10.5c0 .344.13.63.375.875s.531.375.875.375h11.5c.344 0 .63-.13.875-.375s.375-.531.375-.875v-10.5c0-.344-.13-.63-.375-.875s-.531-.375-.875-.375h-11.5zm.25 1h1c.135 0 .245.057.344.156.099.099.156.208.156.344v1c0 .135-.057.245-.156.344-.099.099-.208.156-.344.156h-1c-.135 0-.245-.057-.344-.156-.099-.099-.156-.208-.156-.344v-1c0-.135.057-.245.156-.344.099-.099.208-.156.344-.156zm3 0h5c.135 0 .245.057.344.156.099.099.156.208.156.344v4c0 .135-.057.245-.156.344-.099.099-.208.156-.344.156h-5c-.135 0-.245-.057-.344-.156-.099-.099-.156-.208-.156-.344v-4c0-.135.057-.245.156-.344.099-.099.208-.156.344-.156zm7 0h1c.135 0 .245.057.344.156.099.099.156.208.156.344v1c0 .135-.057.245-.156.344-.099.099-.208.156-.344.156h-1c-.135 0-.245-.057-.344-.156-.099-.099-.156-.208-.156-.344v-1c0-.136.057-.245.156-.344.099-.099.208-.156.344-.156zm-10 3h1c.135 0 .245.057.344.156.099.099.156.208.156.344v1c0 .135-.057.245-.156.344-.099.099-.208.156-.344.156h-1c-.135 0-.245-.057-.344-.156-.099-.099-.156-.208-.156-.344v-1c0-.135.057-.245.156-.344.099-.099.208-.156.344-.156zm10 0h1c.135 0 .245.057.344.156.099.099.156.208.156.344v1c0 .135-.057.245-.156.344-.099.099-.208.156-.344.156h-1c-.135 0-.245-.057-.344-.156-.099-.099-.156-.208-.156-.344v-1c0-.136.057-.245.156-.344.099-.099.208-.156.344-.156zm-10 3h1c.135 0 .245.057.344.156.099.099.156.208.156.344v1c0 .135-.057.245-.156.344-.099.099-.208.156-.344.156h-1c-.135 0-.245-.057-.344-.156-.099-.099-.156-.208-.156-.344v-1c0-.135.057-.245.156-.344.099-.099.208-.156.344-.156zm3 0h5c.135 0 .245.057.344.156.099.099.156.208.156.344v4c0 .135-.057.245-.156.344-.099.099-.208.156-.344.156h-5c-.135 0-.245-.057-.344-.156-.099-.099-.156-.208-.156-.344v-4c0-.135.057-.245.156-.344.099-.099.208-.156.344-.156zm7 0h1c.135 0 .245.057.344.156.099.099.156.208.156.344v1c0 .135-.057.245-.156.344-.099.099-.208.156-.344.156h-1c-.135 0-.245-.057-.344-.156-.099-.099-.156-.208-.156-.344v-1c0-.136.057-.245.156-.344.099-.099.208-.156.344-.156zm-10 3h1c.135 0 .245.057.344.156.099.099.156.208.156.344v1c0 .135-.057.245-.156.344-.099.099-.208.156-.344.156h-1c-.135 0-.245-.057-.344-.156-.099-.099-.156-.208-.156-.344v-1c0-.135.057-.245.156-.344.099-.099.208-.156.344-.156zm10 0h1c.135 0 .245.057.344.156.099.099.156.208.156.344v1c0 .135-.057.245-.156.344-.099.099-.208.156-.344.156h-1c-.135 0-.245-.057-.344-.156-.099-.099-.156-.208-.156-.344v-1c0-.136.057-.245.156-.344.099-.099.208-.156.344-.156z" style="text-align:end;line-height:125%;-inkscape-font-specification:FontAwesome" font-size="14" letter-spacing="0" word-spacing="0" text-anchor="end" fill="#2980b9" font-family="FontAwesome"/></g></svg>