<svg xmlns="http://www.w3.org/2000/svg" width="24" height="24"><g><path d="M2 5c-1.105 0-2 .895-2 2v14c0 1.105.895 2 2 2h20c1.105 0 2-.895 2-2v-14c0-1.105-.895-2-2-2h-20z" fill="#2980b9"/><path d="M3 1c-1.105 0-2 .895-2 2v14c0 1.105.895 2 2 2h18c1.105 0 2-.895 2-2v-12c0-1.105-.895-2-2-2h-8l-3-2h-7z" fill="#2980b9"/><path d="M23 14v-8c0-1.105-.895-2-2-2h-18c-1.105 0-2 .895-2 2v8h22z" fill="#bdc3c7"/><path d="M2 5c-1.105 0-2 .895-2 2v13c0 1.105.895 2 2 2h20c1.105 0 2-.895 2-2v-13c0-1.105-.895-2-2-2h-20z" fill="#3498db"/><path style="text-align:end;line-height:125%;-inkscape-font-specification:Wingdings" d="M7.75 7c-.208 0-.385.073-.531.219-.146.146-.219.323-.219.531v11.5c0 .208.073.385.219.531.146.146.323.219.531.219h9.5c.208 0 .385-.073.531-.219.146-.146.219-.323.219-.531v-8c0-.208-.052-.438-.156-.688-.104-.25-.229-.448-.375-.594l-2.438-2.438c-.146-.146-.344-.271-.594-.375-.25-.104-.479-.156-.688-.156h-6zm.25 1h5v3.25c0 .208.073.385.219.531.146.146.323.219.531.219h3.25v7h-9v-11zm6 .063c.151.052.25.094.313.156l2.438 2.469c.062.063.135.161.188.313h-2.938v-2.938zm-4.75 4.938c-.073 0-.141.016-.188.063-.047.047-.063.115-.063.188v.5c0 .073.016.141.063.188.047.047.115.063.188.063h6.5c.073 0 .141-.016.188-.063.047-.047.062-.115.063-.188v-.5c0-.073-.016-.141-.063-.188-.047-.047-.115-.063-.188-.063h-6.5zm0 2c-.073 0-.141.016-.188.063-.047.047-.063.115-.063.188v.5c0 .073.016.141.063.188.047.047.115.063.188.063h6.5c.073 0 .141-.016.188-.063.047-.047.062-.115.063-.188v-.5c0-.073-.016-.141-.063-.188-.047-.047-.115-.063-.188-.063h-6.5zm0 2c-.073 0-.141.016-.188.063-.047.047-.063.115-.063.188v.5c0 .073.016.141.063.188.047.047.115.063.188.063h6.5c.073 0 .141-.016.188-.063.047-.047.062-.115.063-.188v-.5c0-.073-.016-.141-.063-.188-.047-.047-.115-.063-.188-.063h-6.5z" font-size="14" letter-spacing="0" word-spacing="0" text-anchor="end" fill="#2980b9" font-family="Wingdings"/></g></svg>