<svg xmlns="http://www.w3.org/2000/svg" width="24" height="24"><g><path d="M6 6v.031c-.707.027-1.435.092-2.063.344-2.337.81-3.943 3.182-3.938 5.625-.005 2.443 1.601 4.815 3.938 5.625.975.391 2.157.385 3.188.375 1.95 0 3.172-2.057 4.875-2 1.703-.057 2.925 2 4.875 2 1.031.01 2.213.016 3.188-.375 2.337-.81 3.943-3.182 3.938-5.625.005-2.443-1.601-4.815-3.938-5.625-.632-.253-1.354-.348-2.063-.375h-11.656z" fill="#95a5a6"/><path d="M6 5v.031c-.707.027-1.435.092-2.063.344-2.337.81-3.943 3.182-3.938 5.625-.005 2.443 1.601 4.815 3.938 5.625.975.391 2.157.385 3.188.375 1.95 0 3.172-2.057 4.875-2 1.703-.057 2.925 2 4.875 2 1.031.01 2.213.016 3.188-.375 2.337-.81 3.943-3.182 3.938-5.625.005-2.443-1.601-4.815-3.938-5.625-.632-.253-1.354-.348-2.063-.375h-11.656z" fill="#bdc3c7"/><path d="M11 11a4 4 0 1 1-8 0 4 4 0 1 1 8 0z" transform="translate(0 -1028.362) translate(-1 1028.362)" fill="#ecf0f1"/><path d="M6 8c-.552 0-1 .448-1 1v1h-1c-.552 0-1 .448-1 1s.448 1 1 1h1v1c0 .552.448 1 1 1s1-.448 1-1v-1h1c.552 0 1-.448 1-1s-.448-1-1-1h-1v-1c0-.552-.448-1-1-1z" fill="#7f8c8d"/><path d="M11 11a4 4 0 1 1-8 0 4 4 0 1 1 8 0z" transform="translate(0 -1028.362) translate(11 1028.362)" fill="#ecf0f1"/><path d="M16 10a1 1 0 1 1-2 0 1 1 0 1 1 2 0z" transform="translate(0 -1028.362) translate(1 1029.362)" fill="#27ae60"/><path d="M16 10a1 1 0 1 1-2 0 1 1 0 1 1 2 0z" transform="translate(0 -1028.362) translate(3 1031.362)" fill="#f39c12"/><path d="M16 10a1 1 0 1 1-2 0 1 1 0 1 1 2 0z" transform="translate(0 -1028.362) translate(3 1027.362)" fill="#2980b9"/><path d="M16 10a1 1 0 1 1-2 0 1 1 0 1 1 2 0z" transform="translate(0 -1028.362) translate(5 1029.362)" fill="#c0392b"/><path d="M11.5 11c-.276 0-.5.224-.5.5s.224.5.5.5h1c.276 0 .5-.224.5-.5s-.224-.5-.5-.5h-1z" fill="#7f8c8d"/></g></svg>