<svg xmlns="http://www.w3.org/2000/svg" width="24" height="24"><g transform="translate(0 -1028.362)"><path d="M1 1037.362v12c0 1.105.895 2 2 2h18c1.105 0 2-.895 2-2v-12h-22z" fill="#f39c12"/><path d="M1 1036.362v12c0 1.105.895 2 2 2h18c1.105 0 2-.895 2-2v-12h-22z" fill="#f1c40f"/><path d="M2 1034.362c-1.105 0-2 .895-2 2v2h24v-2c0-1.105-.895-2-2-2h-20z" fill="#f1c40f"/><rect width="6" height="18" x="9" y="1033.362" fill="#e74c3c"/><path d="M7.885 1029.365c-.999-.023-1.973.428-2.508 1.249-.778 1.195-.313 2.726 1.034 3.416.433.222.897.327 1.364.332l.231-.01 3.3.01h1.386l3.3-.01.231.01c.467-.005.942-.11 1.375-.332 1.347-.69 1.801-2.221 1.023-3.416-.778-1.195-2.492-1.608-3.839-.918-.433.222-.774.532-1.012.888l-.022.039-.088.146-1.661 2.538-1.661-2.538-.088-.146-.022-.039c-.238-.356-.568-.666-1.001-.888-.421-.216-.888-.321-1.342-.332zm-.165 1.249c.271-.017.55.036.803.166l.231.156.132.127.033.039.066.078.033.039.011.01v.019l.055.068 1.166 1.796h-2.464l-.055-.01-.11-.01-.055-.01-.187-.039-.264-.098c-.168-.086-.319-.202-.429-.332-.331-.389-.38-.928-.088-1.376.243-.373.671-.597 1.122-.625zm8.569 0c.451.028.879.251 1.122.625.292.448.232.988-.099 1.376-.11.13-.25.245-.418.332l-.264.098-.198.039-.055.01-.11.01-.055.01h-2.464l1.166-1.796.055-.068.011-.019v-.01l.033-.039.066-.078.033-.039.143-.127.231-.156c.253-.129.532-.183.803-.166z" fill="#c0392b"/><rect width="22" height="3" x="1" y="1038.362" fill="#f39c12"/><rect width="6" height="3" x="9" y="1038.362" fill="#c0392b"/><rect width="6" height="1" x="9" y="1050.362" fill="#c0392b"/></g></svg>