<svg xmlns="http://www.w3.org/2000/svg" width="24" height="24"><g transform="translate(0 -1028.362)"><g><path d="M22 12a10 10 0 1 1-20 0 10 10 0 1 1 20 0z" transform="matrix(1.099 .022 -.023 1.099 -1.347 1026.647)" fill="#3498db"/><path d="M12.217 1029.371c-1.138-.023-2.249.133-3.288.434l.212.317c.516.846.587.931.73.952.085.012.313.033.53.042l.406.008.295-.681.295-.681 1.006-.292.22-.058-.405-.039zm2.242.295c-.024.023.134.307.361.663.284.446.404.652.455.634.105-.038.634-.416 1.014-.698-.576-.245-1.176-.454-1.799-.598l-.031-.001zm-8.179 1.304c-.957.583-1.838 1.296-2.575 2.135-1.272 1.449-2.144 3.25-2.515 5.228.155-.009.294-.025.625-.019.945.018.856-.024 1.177.461.179.271.185.27.462.29.33.024.327.012.167-.528-.062-.21-.116-.417-.115-.471.001-.065.192-.24.574-.551.637-.519.582-.43.489-.958-.019-.109.031-.201.227-.401.233-.239.233-.23.473-.209l.25.005.04-.405.04-.436c.014-.014.645-.381 1.391-.784.745-.404 1.384-.747 1.422-.784.059-.057-.076-.259-.879-1.267-.517-.649-.944-1.204-.973-1.238l-.28-.068zm11.663.827c-.038-.033-.134.035-.317.212l-.256.276.183.222c.106.131.254.301.336.382.179.177.186.221.02.531-.072.134-.114.273-.1.31.019.052.134.066.498.072.262.005.5-.002.531-.021.031-.019.078-.167.101-.342l.038-.343-.369-.288c-.323-.264-.372-.332-.486-.634-.07-.185-.149-.352-.179-.378zm-1.017.854c-.065-.004-.451.632-.453.74-.001.038.109.171.244.286.135.115.256.193.277.193.042.001.378-.339.447-.46.031-.054-.032-.172-.21-.41-.135-.181-.273-.348-.305-.35zm3.21.345l.06.126c-.001.046-.231.246-.478.459-.399.344-.448.399-.665.424-.201.024-.319.059-.631.3-.209.161-.403.335-.414.366-.011.032.075.164.181.285.222.251.24.329.081.595l-.129.185-.374-.039c-.213-.012-.497-.026-.624-.044-.291-.04-.282-.032-.045.655.351 1.016.382 1.101.445 1.102.035.001.438-.361.922-.794.485-.433.925-.794.954-.793l.186.066c.149.057.174.04.441-.179l.286-.213.277.193c.633.454.71.548.763.827.082.431.135.627.174.628.038.001.411-.491.514-.677.05-.091-.008-.147-.361-.663-.22-.323-.393-.633-.392-.664l.096-.123c.059-.047.16.046.369.288-.437-.846-1.005-1.612-1.638-2.313zm.924 3.61c-.064 0-.289.316-.258.37l.154.097.186.066c.075.004.092-.02.066-.155-.045-.228-.105-.378-.148-.378zm-.851.358l-.813.046-.814.077-1.525 1.25-1.494 1.219.005 1.249c.005.686.018 1.282.035 1.312.017.031.226.269.489.509l.613.543c.133.128.171.141 1.338.214l1.154.086.524.323c.278.189.51.373.523.385.013.013-.07.084-.191.184l-.222.183.335.413.547.698.213.254-.011.531-.007.343c1.261-1.748 2.018-3.888 2.067-6.205.019-.916-.094-1.806-.288-2.66l-.185-.129c-.036-.001-.19.112-.349.243-.159.131-.317.244-.349.243-.031-.001-.301-.092-.62-.2l-.589-.199.005-.25c.005-.231.001-.286-.177-.472l-.215-.192zm-15.903 1.774c-.024.014-.033.099-.036.218-.004.208-.009.227.211.348.272.148.317.173.28.068-.058-.161-.414-.658-.455-.634zm-1.171.726c-.062.037-.182.544-.137.591.022.023.315.1.621.169.351.079.554.102.592.074.085-.063.183-.386.134-.435-.061-.062-1.163-.426-1.21-.399zm-1.288.349l-.347.18c-.2.105-.414.21-.473.209l-.031-.001c-.007.478.043.945.095 1.407l.216.129.344-.024.343.007.209.441c.115.249.226.48.27.505.045.025.341.038.624.044l.499.01-.009.406c-.009.412-.01.425-.234.745-.128.183-.229.395-.228.464.001.067.247.735.531 1.479l.503 1.322.525.292c.39.199.525.284.523.354l-.21 1.058c1.02.842 2.174 1.512 3.457 1.943 1.173-1.206 2.291-2.376 2.458-2.543l.255-.245.076-.654.109-.747c.002-.04.174-.233.353-.43.178-.198.32-.382.321-.4 0-.017-.49-.368-1.077-.771l-1.078-.74-.375-.007c-.257-.005-.39-.024-.436-.071-.038-.039-.086-.264-.114-.533-.027-.261-.069-.509-.082-.533-.014-.024-.261-.036-.561-.042-.3-.006-.588-.02-.624-.044-.04-.026-.06-.235-.083-.501-.021-.238-.058-.443-.084-.47-.026-.027-.372-.055-.779-.078-.675-.039-.793-.065-1.151-.21l-.403-.164-.536.239-.567.207-.593-.012c-.678-.013-.626.061-.707-.545-.028-.209-.06-.391-.085-.408l-.311-.069-.249-.036.035-.187c.004-.107.017-.32.041-.468l.037-.28-.185-.129-.217-.098zm3.116.343l-.067.217-.035.155.96.394c.977.374 1.149.396 1.307.245.06-.058.05-.064-.091-.127-.09-.04-.568-.291-1.082-.521-.568-.254-.964-.39-.992-.363z" fill="#2ecc71"/></g><path d="M11.438 1.031a10.992 10.995.431 0 0-10.438 10.75 10.992 10.995.431 0 0 11 11.188v-21.938a10.992 10.995.431 0 0-.563 0z" transform="translate(0 1028.362)" fill="#2980b9"/><path d="M12 1029.362c-1.061 0-2.091.157-3.063.438l.219.313c.516.847.577.948.719.969l.531.031h.406l.313-.688.281-.656.594-.188v-.219zm-5.719 1.594c-.957.583-1.826 1.317-2.563 2.156-1.272 1.449-2.13 3.241-2.5 5.219.155-.009.294-.038.625-.031.945.018.835-.017 1.156.469.179.271.191.261.469.281.33.024.316.009.156-.531-.062-.21-.095-.415-.094-.469.001-.065.181-.221.563-.531.637-.519.593-.44.5-.969-.019-.109.023-.205.219-.406.233-.239.229-.208.469-.188h.25l.031-.406c.018-.232.048-.424.063-.438.014-.014.63-.378 1.375-.781.745-.404 1.399-.745 1.438-.781.059-.057-.103-.272-.906-1.281-.517-.649-.94-1.217-.969-1.25l-.281-.063zm-1.969 7.781c-.024.014-.029.1-.031.219-.004.208-.002.223.219.344.272.149.319.168.281.063-.058-.161-.427-.649-.469-.625zm-1.156.719c-.062.037-.201.547-.156.594.022.023.319.087.625.156.351.079.556.121.594.094.085-.063.205-.389.156-.438-.061-.062-1.172-.434-1.219-.406zm-1.281.344l-.375.188c-.2.105-.41.22-.469.219h-.031c-.007.478.041.944.094 1.406l.219.125.344-.031h.344l.219.469c.116.249.237.475.281.5.045.025.342.025.625.031h.5l-.031.406c-.008.412.005.431-.219.75-.128.183-.22.399-.219.469.001.067.247.725.531 1.469l.5 1.344.531.281c.39.199.501.274.5.344 0 .023-.121.703-.188 1.063 1.02.842 2.154 1.537 3.438 1.969 1.173-1.205 2.301-2.396 2.469-2.563l.25-.25.063-.656.125-.75c.002-.04.166-.209.344-.406.163-.181.259-.334.281-.375v-.063c-.031-.038-.463-.36-1.031-.75l-1.063-.719-.375-.031c-.257-.005-.392-.015-.438-.063-.038-.04-.097-.261-.125-.531-.027-.262-.08-.508-.094-.531-.014-.024-.263-.025-.563-.031-.3-.006-.589-.039-.625-.063-.04-.027-.039-.233-.063-.5-.021-.238-.068-.441-.094-.469-.026-.027-.374-.07-.781-.094-.675-.039-.798-.042-1.156-.188l-.406-.188-.531.25-.563.219-.594-.031c-.678-.013-.637.075-.719-.531-.028-.209-.037-.39-.063-.406l-.313-.063-.25-.063.031-.156c.004-.107.007-.321.031-.469l.031-.281-.156-.156-.219-.094zm3.094.344l-.063.219-.031.156.969.406c.978.374 1.155.401 1.313.25.06-.058.047-.062-.094-.125-.09-.041-.579-.3-1.094-.531-.568-.255-.972-.402-1-.375z" fill="#27ae60"/></g></svg>