<?xml version="1.0" encoding="UTF-8" standalone="no"?>
<svg xmlns:rdf="http://www.w3.org/1999/02/22-rdf-syntax-ns#" xmlns="http://www.w3.org/2000/svg" height="24" width="24" version="1.1" xmlns:cc="http://creativecommons.org/ns#" xmlns:dc="http://purl.org/dc/elements/1.1/">
 <g transform="translate(0 -1028.4)">
  <g transform="matrix(.99907 .020379 -.020588 .99926 21.422 .53599)">
   <path d="m22 12a10 10 0 1 1 -20 0 10 10 0 1 1 20 0z" transform="matrix(1.1 0 0 1.1 -1.2 1027.2)" fill="#3498db"/>
   <path d="m12 1c-1.139 0-2.2479 0.1786-3.2812 0.5 0.0883 0.1391 0.1129 0.1467 0.2187 0.3125 0.5337 0.8365 0.6073 0.9196 0.75 0.9375 0.0855 0.0107 0.3145 0.027 0.5315 0.0312h0.406l0.281-0.6874 0.282-0.6876 1-0.3124c0.1-0.031 0.122-0.0329 0.218-0.0626-0.136-0.0049-0.269-0.0312-0.406-0.0312zm2.25 0.25c-0.024 0.0238 0.14 0.3046 0.375 0.6562 0.294 0.4402 0.418 0.6444 0.469 0.625 0.104-0.04 0.625-0.4286 1-0.7187-0.582-0.2338-1.187-0.4303-1.813-0.5625-0.002 0.0014-0.03-0.0012-0.031 0zm-8.1562 1.4688c-0.9454 0.6026-1.8119 1.3333-2.5313 2.1874-1.2424 1.4751-2.0766 3.2953-2.4063 5.2818 0.1551-0.013 0.2941-0.032 0.625-0.032 0.9456-0.001 0.8559-0.041 1.1876 0.438 0.185 0.267 0.1908 0.266 0.4687 0.281 0.3311 0.017 0.3277 0.006 0.1563-0.531-0.0668-0.209-0.1247-0.4153-0.125-0.469-0.0005-0.0646 0.1871-0.2439 0.5624-0.5625 0.6265-0.5318 0.5731-0.4417 0.4688-0.9687-0.0216-0.1088 0.0271-0.2014 0.2188-0.4063 0.2278-0.2434 0.2284-0.2343 0.4687-0.2187h0.25l0.0313-0.4063c0.0134-0.2326 0.0172-0.4236 0.0312-0.4375s0.6378-0.3938 1.375-0.8125c0.7372-0.4188 1.3688-0.7754 1.4062-0.8125 0.0583-0.0579-0.0813-0.2572-0.9062-1.25-0.5309-0.639-0.9702-1.1862-1-1.2188-0.0056-0.0061-0.2205-0.0476-0.2812-0.0624zm11.687 0.5937c-0.038-0.0321-0.133 0.0373-0.312 0.2187l-0.25 0.2813 0.187 0.2187c0.109 0.1294 0.261 0.2962 0.344 0.375 0.183 0.1738 0.19 0.2175 0.031 0.5313-0.069 0.136-0.108 0.275-0.093 0.3125 0.019 0.0521 0.135 0.063 0.5 0.0625 0.262-0.0004 0.5-0.0115 0.531-0.0313 0.03-0.0196 0.075-0.1684 0.093-0.3437l0.032-0.3437-0.375-0.2813c-0.329-0.2574-0.379-0.325-0.5-0.625-0.074-0.1839-0.157-0.3494-0.188-0.375zm-1 0.875c-0.065-0.0024-0.437 0.6414-0.437 0.75 0 0.0376 0.112 0.1693 0.25 0.2813 0.138 0.1122 0.26 0.1874 0.281 0.1874 0.042 0 0.371-0.3469 0.437-0.4687 0.03-0.055-0.035-0.1717-0.218-0.4063-0.139-0.1784-0.28-0.3426-0.313-0.3437zm3.219 0.2813c0.013 0.0434 0.062 0.106 0.062 0.125 0 0.0458-0.226 0.251-0.468 0.4687-0.392 0.3524-0.44 0.4078-0.656 0.4375-0.201 0.0276-0.318 0.0655-0.626 0.3125-0.205 0.1652-0.395 0.3428-0.406 0.375-0.01 0.0322 0.079 0.1627 0.188 0.2813 0.228 0.247 0.246 0.3241 0.094 0.5937l-0.126 0.1875-0.374-0.0312c-0.214-0.0076-0.498-0.0161-0.626-0.0313-0.291-0.0345-0.282-0.0265-0.031 0.6563 0.372 1.0098 0.405 1.0937 0.469 1.0937 0.035 0 0.431-0.3698 0.906-0.8125 0.476-0.4428 0.909-0.8125 0.938-0.8125 0.028 0 0.101 0.0313 0.187 0.0625 0.15 0.0543 0.175 0.0367 0.438-0.1875l0.281-0.2187 0.281 0.1874c0.643 0.4412 0.722 0.5346 0.781 0.8126 0.092 0.4294 0.149 0.625 0.188 0.625 0.038 0 0.4-0.4994 0.5-0.6876 0.048-0.0916-0.011-0.1464-0.375-0.6562-0.227-0.3184-0.406-0.626-0.406-0.6562 0-0.0304 0.05-0.0888 0.093-0.125 0.058-0.0482 0.162 0.0429 0.376 0.2812-0.456-0.8377-1.04-1.5929-1.688-2.2812zm1 3.5937c-0.064 0.0009-0.283 0.3217-0.25 0.375 0.017 0.0276 0.099 0.0705 0.156 0.0937 0.058 0.0234 0.139 0.0608 0.188 0.0626 0.075 0.0026 0.091-0.0221 0.062-0.1563-0.049-0.2274-0.112-0.3757-0.156-0.375zm-0.844 0.375-0.812 0.0625-0.813 0.0938-1.5 1.2812-1.469 1.25 0.032 1.25c0.019 0.686 0.045 1.282 0.062 1.313 0.018 0.03 0.232 0.264 0.5 0.5 0.269 0.235 0.55 0.461 0.625 0.531 0.136 0.125 0.175 0.137 1.344 0.187l1.156 0.063 0.531 0.312c0.282 0.183 0.518 0.363 0.532 0.375 0.013 0.013-0.068 0.086-0.188 0.188l-0.218 0.187 0.343 0.407c0.19 0.224 0.438 0.541 0.563 0.687l0.218 0.25v0.531 0.344c1.226-1.774 1.938-3.931 1.938-6.25 0-0.917-0.133-1.805-0.344-2.6562-0.069-0.0473-0.165-0.1252-0.187-0.125-0.036 0.0002-0.188 0.1162-0.344 0.25s-0.312 0.25-0.344 0.25c-0.031-0.0002-0.303-0.0858-0.625-0.1876l-0.594-0.1874v-0.25c0-0.2316-0.004-0.286-0.187-0.4688l-0.219-0.1875zm-15.875 2.0935c-0.0233 0.015-0.0312 0.1-0.0312 0.219 0 0.208-0.0046 0.227 0.2188 0.344 0.2748 0.143 0.3213 0.167 0.2812 0.062-0.0614-0.16-0.4279-0.65-0.4688-0.625zm-1.1562 0.75c-0.0612 0.038-0.1704 0.549-0.125 0.594 0.0221 0.022 0.3178 0.093 0.625 0.156 0.3527 0.072 0.5568 0.091 0.5938 0.063 0.0837-0.065 0.1747-0.39 0.125-0.438-0.0627-0.06-1.1729-0.403-1.2188-0.375zm-1.2812 0.375-0.3438 0.188c-0.1977 0.109-0.4098 0.218-0.4688 0.218-0.0041 0-0.0259 0.002-0.0312 0 0.0027 0.479 0.0632 0.945 0.125 1.407l0.2188 0.125 0.3437-0.032h0.3437l0.2188 0.438c0.1207 0.247 0.2361 0.476 0.2812 0.5 0.0452 0.024 0.3416 0.031 0.625 0.031h0.5v0.407c0 0.412-0.0013 0.425-0.2187 0.75-0.1247 0.185-0.2211 0.399-0.2187 0.468 0.0023 0.068 0.2629 0.731 0.5624 1.469l0.5313 1.313 0.5313 0.281c0.394 0.191 0.5312 0.274 0.5312 0.343 0 0.024-0.128 0.702-0.1875 1.063 1.0383 0.822 2.207 1.469 3.5 1.875 1.1484-1.23 2.2425-2.423 2.4065-2.594l0.25-0.25 0.062-0.656c0.048-0.37 0.093-0.71 0.094-0.75s0.17-0.236 0.344-0.438c0.174-0.201 0.312-0.389 0.312-0.406s-0.497-0.358-1.094-0.75l-1.0932-0.718h-0.375c-0.2573 0-0.3909-0.016-0.4376-0.063-0.0386-0.039-0.0919-0.262-0.125-0.531-0.032-0.261-0.0793-0.508-0.0937-0.532-0.0144-0.023-0.2623-0.03-0.5625-0.031-0.3002 0-0.5887-0.008-0.625-0.031-0.0405-0.026-0.0648-0.234-0.0938-0.5-0.0259-0.238-0.0674-0.442-0.0937-0.469s-0.3734-0.047-0.7813-0.062c-0.6763-0.025-0.7948-0.049-1.1562-0.188l-0.4062-0.156-0.5313 0.25-0.5625 0.219h-0.5938c-0.6786 0-0.6249 0.074-0.7187-0.532-0.0324-0.208-0.068-0.39-0.0937-0.406-0.0258-0.016-0.1744-0.045-0.3126-0.062l-0.25-0.032 0.0313-0.187c0.0014-0.107 0.0102-0.321 0.0313-0.469l0.0312-0.281-0.1875-0.125-0.2187-0.094zm3.125 0.282c-0.0247 0.024-0.0474 0.125-0.0626 0.218l-0.0312 0.156 0.9688 0.376c0.9857 0.354 1.1579 0.373 1.3124 0.218 0.0589-0.059 0.0484-0.064-0.0937-0.125-0.091-0.038-0.5741-0.279-1.0937-0.5-0.5734-0.243-0.9729-0.371-1-0.343z" transform="translate(0 1028.4)" fill="#2ecc71"/>
  </g>
  <path d="m11.438 1.0312a10.992 10.995 0.43063 0 0 -10.438 10.75 10.992 10.995 0.43063 0 0 11 11.188v-21.938a10.992 10.995 0.43063 0 0 -0.562 0.0002z" transform="translate(0 1028.4)" fill="#2980b9"/>
  <path d="m12 1c-1.061-0.00015-2.0908 0.1568-3.0625 0.4375 0.0854 0.1407 0.1165 0.1447 0.2187 0.3125 0.516 0.8467 0.5766 0.948 0.7188 0.9688 0.0852 0.0124 0.314 0.0226 0.531 0.0312h0.406l0.313-0.6875 0.281-0.6563 0.594-0.1874v-0.2188zm-5.7188 1.5938c-0.9568 0.583-1.8261 1.3173-2.5624 2.1562-1.2717 1.4487-2.1298 3.2408-2.5 5.2188 0.1551-0.009 0.2943-0.0378 0.625-0.0313 0.9446 0.0183 0.8348-0.0167 1.1562 0.4685 0.1794 0.271 0.1914 0.261 0.4688 0.282 0.3304 0.024 0.3164 0.008 0.1562-0.532-0.0624-0.2098-0.0945-0.4148-0.0938-0.4685 0.001-0.0645 0.181-0.2205 0.5626-0.5313 0.6368-0.5186 0.5933-0.4398 0.5-0.9687-0.0194-0.109 0.023-0.2055 0.2187-0.4063 0.2326-0.2386 0.229-0.208 0.4687-0.1874h0.25l0.0313-0.4063c0.0182-0.2321 0.0482-0.4239 0.0625-0.4375s0.6299-0.3778 1.375-0.7812c0.7451-0.4036 1.3993-0.745 1.4375-0.7813 0.0594-0.0567-0.1026-0.2723-0.9063-1.2813-0.5172-0.6492-0.9396-1.2168-0.9687-1.25-0.0055-0.0062-0.2208-0.0464-0.2813-0.0624zm-1.9687 7.7812c-0.0236 0.014-0.0288 0.1-0.0313 0.219-0.0042 0.207-0.0019 0.223 0.2188 0.344 0.2717 0.148 0.3191 0.167 0.2812 0.062-0.058-0.161-0.4273-0.649-0.4687-0.625zm-1.1563 0.719c-0.0619 0.036-0.2007 0.547-0.1562 0.594 0.0217 0.022 0.3194 0.087 0.625 0.156 0.3508 0.079 0.5563 0.121 0.5938 0.094 0.085-0.063 0.2049-0.389 0.1562-0.438-0.0614-0.062-1.1723-0.434-1.2188-0.406zm-1.2812 0.344l-0.375 0.187c-0.1997 0.105-0.4098 0.22-0.4688 0.219-0.0041 0-0.0259 0.001-0.0312 0-0.00716 0.477 0.0415 0.943 0.0938 1.406l0.2187 0.125 0.3437-0.031h0.3438l0.2188 0.468c0.1155 0.25 0.2366 0.475 0.2812 0.5 0.0446 0.026 0.3418 0.026 0.625 0.032h0.5l-0.0312 0.406c-0.0085 0.412 0.0051 0.43-0.2188 0.75-0.1284 0.183-0.2197 0.399-0.2188 0.469 0.001 0.067 0.2472 0.725 0.5313 1.469l0.5 1.343 0.5313 0.281c0.3897 0.199 0.5014 0.275 0.5 0.344-0.0005 0.023-0.1207 0.703-0.1876 1.063 1.0205 0.842 2.1541 1.536 3.4376 1.969 1.1726-1.206 2.3012-2.396 2.4692-2.563l0.25-0.25 0.062-0.656c0.055-0.369 0.123-0.71 0.125-0.75s0.166-0.209 0.344-0.407c0.163-0.18 0.259-0.334 0.281-0.374v-0.063c-0.031-0.038-0.463-0.36-1.031-0.75l-1.0628-0.719-0.375-0.031c-0.2569-0.005-0.3918-0.015-0.4374-0.063-0.0379-0.039-0.0975-0.261-0.125-0.531-0.0267-0.261-0.0799-0.507-0.0938-0.531s-0.2625-0.025-0.5625-0.031c-0.3-0.007-0.5892-0.039-0.625-0.063-0.04-0.026-0.039-0.233-0.0625-0.5-0.021-0.238-0.068-0.441-0.0938-0.468-0.0257-0.028-0.374-0.071-0.7812-0.094-0.6752-0.039-0.798-0.042-1.1562-0.188l-0.4063-0.187-0.5313 0.25-0.5624 0.219-0.5938-0.032c-0.678-0.013-0.6374 0.076-0.7188-0.531-0.028-0.209-0.0371-0.39-0.0624-0.406-0.0254-0.017-0.1749-0.043-0.3126-0.063l-0.25-0.062 0.0313-0.156c0.0036-0.108 0.0072-0.322 0.0313-0.469l0.0312-0.281-0.1562-0.157-0.2188-0.093zm3.0938 0.343c-0.0252 0.024-0.0455 0.126-0.0626 0.219l-0.0312 0.156 0.9688 0.406c0.9775 0.375 1.1549 0.402 1.3124 0.25 0.0601-0.057 0.047-0.061-0.0937-0.124-0.0901-0.041-0.5791-0.301-1.0937-0.532-0.5679-0.254-0.9723-0.401-1-0.375z" transform="translate(0 1028.4)" fill="#27ae60"/>
 </g>
</svg>
