<svg xmlns="http://www.w3.org/2000/svg" width="24" height="24"><g><path d="M13.563 6.031l-4.125 6.781 5.781 2.438-.219 1.75 1 1 7-3-1.719-3.031.875-.813-2.063-1.219-1.094-1.938-1.375.469-4.063-2.438z" fill="#bdc3c7"/><path d="M5 8l-4 7 11.442 4.58c.427.338 1.13.551 1.694.272.499-.209.075-1.611.791-.914.929.362 1.653-.661 1.495-1.502.521.578 1.695.6 1.957-.299.122-.416-.23-1.247.523-.944.848.003 1.186-.903 1.087-1.62-.379-.55-1.074-.92-1.597-1.343l-7.393-5.231h-6z" fill="#7f8c8d"/><path d="M5 8l-2.281 4h13.969l-5.688-4h-6z" fill="#95a5a6"/><path d="M1 17l2 1 4-10-6-3z" fill="#ecf0f1"/><path d="M1 12v5l2 1 2.402-6z" fill="#ecf0f1"/><path d="M0 17l2 1 4-11-6-3z" fill="#3498db"/><path d="M0 12v5l2 1 2.188-6h-4.188z" fill="#2980b9"/><path d="M13.451 5.951c-.717-.414-1.635-.168-2.049.549l-.75 1.299-.75 1.299-.902 1.902 1 1c.717.414 2.086-.685 2.5-1.402l1.5-2.598c.414-.717.168-1.635-.549-2.049z" fill="#bdc3c7"/><path d="M5.015 15.291c-.533-.143-1.082.174-1.225.707l-.518 1.932c-.143.534.174 1.082.707 1.225.533.143 1.082-.174 1.225-.707-.143.534.174 1.082.707 1.225.533.143 1.082-.174 1.225-.707-.143.534.174 1.082.707 1.225.533.143 1.082-.174 1.225-.707-.143.533.174 1.082.707 1.225.533.143 1.082-.174 1.225-.707l.518-1.932c.143-.534-.174-1.082-.707-1.225-.533-.143-1.082.174-1.225.707.143-.534-.174-1.082-.707-1.225-.533-.143-1.082.174-1.225.707.143-.534-.174-1.082-.707-1.225-.533-.143-1.082.174-1.225.707.143-.533-.174-1.082-.707-1.225z" fill="#bdc3c7"/><path d="M23 17l-2 1-4-10 6-3z" fill="#ecf0f1"/><path d="M24 17l-2 1-4-11 6-3z" fill="#3498db"/><path d="M24 12v5l-2 1-2.188-6h4.188z" fill="#2980b9"/></g></svg>