<svg xmlns="http://www.w3.org/2000/svg" width="24" height="24"><g transform="translate(0 -1028.362)"><path d="M18 1040.362c.552 0 1 .448 1 1v8c0 .552-.448 1-1 1h-1v-10h1z" fill="#f39c12"/><path d="M18 1050.362c.552 0 1-.448 1-1v-4h-2v5h1z" fill="#e67e22"/><path d="M6 1040.362c-.552 0-1 .448-1 1v8c0 .552.448 1 1 1h1v-10h-1z" fill="#f39c12"/><path d="M2 1036.363v2.094c-.586.204-1 .75-1 1.406 0 .828.672 1.5 1.5 1.5h.063l2.438 4.25v-2.719l-1.25-2.188c.162-.239.25-.533.25-.844 0-.656-.414-1.202-1-1.406v-2.094h-1z" fill="#2c3e50"/><path d="M7 1039.362v12h1.5c.828 0 1.5-.672 1.5-1.5v-9c0-.828-.672-1.5-1.5-1.5h-1.5z" fill="#34495e"/><path d="M7 1051.362v-6h3v4.5c0 .828-.672 1.5-1.5 1.5h-1.5z" fill="#2c3e50"/><rect width="2" height="12" x="6" y="1039.362" fill="#f1c40f"/><path d="M11 1028.362c-3.939-.058-7.792 2.93-9.625 7.406-.365 1.519 1.493 2.267 1.906.813 1.566-3.466 4.63-5.643 7.719-5.656h2c3.089.013 6.153 2.19 7.719 5.656.413 1.455 2.272.707 1.906-.813-1.833-4.476-5.686-7.464-9.625-7.406h-2z" fill="#34495e"/><path d="M17 1039.362v12h-1.5c-.828 0-1.5-.672-1.5-1.5v-9c0-.828.672-1.5 1.5-1.5h1.5z" fill="#34495e"/><path d="M17 1051.362v-6h-3v4.5c0 .828.672 1.5 1.5 1.5h1.5z" fill="#2c3e50"/><rect width="2" height="12" x="-18" y="1039.362" transform="scale(-1 1)" fill="#f1c40f"/><path d="M11 1029.925c-3.804-.056-7.505 2.745-9.406 6.969.458.615 1.403.656 1.688-.344 1.566-3.466 4.63-5.612 7.719-5.625h2c3.089.013 6.153 2.159 7.719 5.625.284 1 1.23.959 1.688.344-1.902-4.224-5.602-7.024-9.406-6.969h-2z" fill="#2c3e50"/><path d="M6 1050.362c-.552 0-1-.448-1-1v-4h2v5h-1z" fill="#e67e22"/><rect width="2" height="6" x="6" y="1045.362" fill="#f39c12"/><rect width="2" height="6" x="16" y="1045.362" fill="#f39c12"/><path d="M22 1036.362v2.094c.586.204 1 .75 1 1.406 0 .828-.672 1.5-1.5 1.5h-.063l-2.438 4.25v-2.719l1.25-2.188c-.162-.239-.25-.533-.25-.844 0-.656.414-1.202 1-1.406v-2.094h1z" fill="#2c3e50"/><path d="M3 11.5a.5.5 0 1 1-1 0 .5.5 0 1 1 1 0z" transform="translate(0 1028.362)" fill="#7f8c8d"/><path transform="translate(19 1028.362)" d="M3 11.5a.5.5 0 1 1-1 0 .5.5 0 1 1 1 0z" fill="#7f8c8d"/></g></svg>