<?xml version="1.0" encoding="UTF-8" standalone="no"?>
<svg xmlns:rdf="http://www.w3.org/1999/02/22-rdf-syntax-ns#" xmlns="http://www.w3.org/2000/svg" height="24" width="24" version="1.1" xmlns:cc="http://creativecommons.org/ns#" xmlns:dc="http://purl.org/dc/elements/1.1/">
 <g transform="translate(0 -1028.4)">
  <path d="m19 1040.4v2 8 2h-1-0.5c-0.828 0-1.5-0.7-1.5-1.5v-2-0.5-2-2-0.5-2c0-0.9 0.672-1.5 1.5-1.5h0.5 1z" fill="#34495e"/>
  <path d="m20 1041.4c0.552 0 1 0.4 1 1v2 4 2c0 0.5-0.448 1-1 1h-1v-2-6-2h1z" fill="#c0392b"/>
  <rect transform="scale(-1,1)" height="12" width="2" y="1040.4" x="-20" fill="#e74c3c"/>
  <path d="m4 13c-0.5523 0-1 0.448-1 1v2 4 2c0 0.552 0.4477 1 1 1h1v-2-6-2h-1z" transform="translate(0 1028.4)" fill="#c0392b"/>
  <path d="m5 1040.4v2 8 2h1 0.5c0.8284 0 1.5-0.7 1.5-1.5v-2-0.5-2-2-0.5-2c0-0.9-0.6716-1.5-1.5-1.5h-0.5-1z" fill="#34495e"/>
  <path d="m11.969 1028.3c-6.0754 0-11 4.9-11 11l-0.00025 1h1c0.0417-4.6 3.1308-8.4 7.3124-9.6 0.2227-0.1 0.4579-0.1 0.6876-0.2h0.1872c0.252-0.1 0.522-0.1 0.782-0.1 0.343-0.1 0.677-0.1 1.031-0.1s0.688 0 1.031 0.1c0.271 0 0.517 0 0.781 0.1 0.293 0 0.593 0.1 0.875 0.2 4.182 1.2 7.271 5 7.313 9.6h1v-1c0-6.1-4.925-11-11-11z" fill="#34495e"/>
  <path d="m11.969 1029.3c-6.0754 0-11 4.9-11 11h0.9998c0.0417-4.6 3.1308-8.4 7.3124-9.6 0.2227-0.1 0.4579-0.1 0.6876-0.2h0.1872c0.252-0.1 0.522-0.1 0.782-0.1 0.343-0.1 0.677-0.1 1.031-0.1s0.688 0 1.031 0.1c0.271 0 0.517 0 0.781 0.1 0.293 0 0.593 0.1 0.875 0.2 4.182 1.2 7.271 5 7.313 9.6h1c0-6.1-4.925-11-11-11z" fill="#2c3e50"/>
  <path d="m4 14c0 1.105-0.8954 2-2 2s-2-0.895-2-2 0.89543-2 2-2 2 0.895 2 2z" transform="matrix(.75 0 0 .75 .5 1030.4)" fill="#2c3e50"/>
  <path d="m1.4471 1040.6 1.5529 5.8c0.0715 0.2 0.3456 0.4 0.6124 0.3 0.2667-0.1 0.425-0.3 0.3535-0.6l-1.5529-5.8-0.9659 0.3z" fill="#34495e"/>
  <path d="m4 14c0 1.105-0.8954 2-2 2s-2-0.895-2-2 0.89543-2 2-2 2 0.895 2 2z" transform="matrix(-.75 0 0 .75 23.5 1030.4)" fill="#2c3e50"/>
  <g fill="#34495e">
   <path d="m22.553 1040.6-1.553 5.8c-0.071 0.2-0.346 0.4-0.612 0.3-0.267-0.1-0.425-0.3-0.354-0.6l1.553-5.8 0.966 0.3z"/>
   <path d="m3 13c0 0.552-0.4477 1-1 1s-1-0.448-1-1 0.4477-1 1-1 1 0.448 1 1z" transform="translate(0 1027.8)"/>
   <path d="m3 13c0 0.552-0.4477 1-1 1s-1-0.448-1-1 0.4477-1 1-1 1 0.448 1 1z" transform="translate(20 1027.8)"/>
  </g>
  <rect height="12" width="2" y="1040.4" x="4" fill="#e74c3c"/>
 </g>
</svg>
