<svg xmlns="http://www.w3.org/2000/svg" width="24" height="24"><g transform="translate(0 -1028.362)"><rect width="3" height="6" x="17" y="1031.362" fill="#c0392b"/><path d="M12 1031.393l-9 8.969v9.001h18v-9.001l-9-8.969z" fill="#bdc3c7"/><path d="M12 1031.976l-9 8.969v1.9689999999999999l9-8.969 9 8.969v-1.9689999999999999l-9-8.969z" fill="#95a5a6"/><path d="M12 1029.362l-11.314 11.314 1.414 1.414 9.899-9.899 9.899 9.899 1.414-1.414-11.314-11.314z" fill="#e74c3c"/><path d="M14 9a2 2 0 1 1-4 0 2 2 0 1 1 4 0z" transform="translate(0 1029.362)" fill="#3498db"/><rect width="4" height="6" x="10" y="1043.362" fill="#e67e22"/><path d="M12 17.5a.5.5 0 1 1-1 0 .5.5 0 1 1 1 0z" transform="translate(1.5 1029.362)" fill="#d35400"/><path d="M12 1036.362c-1.105 0-2 .895-2 2 0 .173.021.34.063.5.222-.863 1.006-1.5 1.938-1.5.932 0 1.716.637 1.938 1.5.041-.16.063-.327.063-.5 0-1.105-.895-2-2-2z" fill="#2980b9"/><path d="M12 17.5a.5.5 0 1 1-1 0 .5.5 0 1 1 1 0z" transform="translate(1.5 1028.883)" fill="#f1c40f"/><rect width="4" height="1" x="10" y="1042.362" fill="#d35400"/></g></svg>