<?xml version="1.0" encoding="UTF-8" standalone="no"?>
<svg xmlns:rdf="http://www.w3.org/1999/02/22-rdf-syntax-ns#" xmlns="http://www.w3.org/2000/svg" height="24" width="24" version="1.1" xmlns:cc="http://creativecommons.org/ns#" xmlns:dc="http://purl.org/dc/elements/1.1/">
 <g transform="translate(0 -1028.4)">
  <path d="m23 1048.4c0 1.1-0.895 2-2 2h-8-4-6c-1.1046 0-2-0.9-2-2v-14c0-1.1 0.8954-2 2-2h6 4 4 4c1.105 0 2 0.9 2 2v4 10z" fill="#95a5a6"/>
  <path d="m1 1047.4c0 1.1 0.8954 2 2 2h8 4 6c1.105 0 2-0.9 2-2v-14c0-1.1-0.895-2-2-2h-6-4-4-4c-1.1046 0-2 0.9-2 2v4 10z" fill="#bdc3c7"/>
  <rect transform="translate(0 1028.4)" height="14" width="18" y="5" x="3" fill="#ecf0f1"/>
  <g fill="#bdc3c7">
   <rect height="2" width="2" y="1033.4" x="3"/>
   <rect height="2" width="2" y="1035.4" x="5"/>
   <rect height="2" width="2" y="1037.4" x="3"/>
   <rect height="2" width="2" y="1039.4" x="5"/>
   <rect height="2" width="2" y="1041.4" x="3"/>
   <rect height="2" width="2" y="1043.4" x="5"/>
   <rect height="2" width="2" y="1045.4" x="3"/>
   <rect height="2" width="2" y="1033.4" x="7"/>
   <rect height="2" width="2" y="1035.4" x="9"/>
   <rect height="2" width="2" y="1037.4" x="7"/>
   <rect height="2" width="2" y="1039.4" x="9"/>
   <rect height="2" width="2" y="1041.4" x="7"/>
   <rect height="2" width="2" y="1043.4" x="9"/>
   <rect height="2" width="2" y="1045.4" x="7"/>
   <rect height="2" width="2" y="1033.4" x="11"/>
   <rect height="2" width="2" y="1035.4" x="13"/>
   <rect height="2" width="2" y="1037.4" x="11"/>
   <rect height="2" width="2" y="1039.4" x="13"/>
   <rect height="2" width="2" y="1041.4" x="11"/>
   <rect height="2" width="2" y="1043.4" x="13"/>
   <rect height="2" width="2" y="1045.4" x="11"/>
   <rect height="2" width="2" y="1033.4" x="15"/>
   <rect height="2" width="2" y="1035.4" x="17"/>
   <rect height="2" width="2" y="1037.4" x="15"/>
   <rect height="2" width="2" y="1039.4" x="17"/>
   <rect height="2" width="2" y="1041.4" x="15"/>
   <rect height="2" width="2" y="1043.4" x="17"/>
   <rect height="2" width="2" y="1045.4" x="15"/>
   <rect height="2" width="2" y="1033.4" x="19"/>
   <rect height="2" width="2" y="1037.4" x="19"/>
   <rect height="2" width="2" y="1041.4" x="19"/>
   <rect height="2" width="2" y="1045.4" x="19"/>
  </g>
  <rect transform="translate(0 1028.4)" height="1" width="18" y="5" x="3" fill="#95a5a6"/>
 </g>
</svg>
