<svg xmlns="http://www.w3.org/2000/svg" width="24" height="24"><g style="text-align:end;line-height:125%;-inkscape-font-specification:FontAwesome" font-size="8" letter-spacing="0" word-spacing="0" text-anchor="end" fill="#2980b9" font-family="FontAwesome" transform="translate(0 -1028.362)"><path d="M3 1035.362v13h3v-13h-3zm5 0v13h3v-13h-3zm5 0v13h3v-13h-3zm5 0v13h3v-13h-3z" fill="#1abc9c"/><path style="text-align:end;line-height:125%;-inkscape-font-specification:FontAwesome" d="M4 1047.362c-1.105 0-2 .895-2 2v1h20v-1c0-1.105-.895-2-2-2h-16z" font-size="8" letter-spacing="0" word-spacing="0" text-anchor="end" fill="#16a085" font-family="FontAwesome"/><path d="M2 1048.362c-1.105 0-2 .895-2 2v1h24v-1c0-1.105-.895-2-2-2h-20z" fill="#1abc9c"/><rect width="24" height="1" y="1050.362" fill="#16a085"/><path d="M12 1029.362l-12 5v1h24v-1l-12-5z" fill="#1abc9c"/><rect width="1.5" height="13" x="3" y="1035.362" fill="#16a085"/><rect width="1.5" height="13" x="8" y="1035.362" fill="#16a085"/><rect width="1.5" height="12" x="13" y="1035.362" fill="#16a085"/><rect width="1.5" height="12" x="18" y="1035.362" fill="#16a085"/><path style="text-align:end;line-height:125%;-inkscape-font-specification:FontAwesome" d="M2.281 1035.362c.346.597.979 1 1.719 1h16c.74 0 1.373-.403 1.719-1h-19.438z" font-size="8" letter-spacing="0" word-spacing="0" text-anchor="end" fill="#16a085" font-family="FontAwesome"/></g></svg>