<svg xmlns="http://www.w3.org/2000/svg" width="24" height="24"><g transform="matrix(.707 .707 -.707 .707 740.061 -730.203)"><path d="M10.541 1028.862c-3.314 0-6 2.686-6 6s2.686 6 6 6 6-2.686 6-6-2.686-6-6-6zm0 2c1.105 0 2 .895 2 2 0 1.104-.895 2-2 2s-2-.896-2-2c0-1.105.895-2 2-2z" fill="#f39c12"/><path d="M10 1028.362c-3.314 0-6 2.686-6 6s2.686 6 6 6 6-2.686 6-6-2.686-6-6-6zm0 2c1.105 0 2 .895 2 2s-.895 2-2 2-2-.895-2-2 .895-2 2-2z" fill="#f1c40f"/><rect y="1039.362" x="7" height="2" width="6" fill="#f1c40f"/><path d="M8 1041.362v9l2 2 2-2v-1l-2-1 2-1v-1l-1-1 1-1v-3z" fill="#f1c40f"/><path d="M11 1041.362v4l1-1v-3h-1zm0 4v2.5l1-.5v-1l-1-1zm0 3.5v2.5l1-1v-1l-1-.5z" fill="#f39c12"/><path d="M9 1041.362v10l1 1v-11h-1z" fill="#f39c12"/></g></svg>