<?xml version="1.0" encoding="UTF-8" standalone="no"?>
<svg xmlns:rdf="http://www.w3.org/1999/02/22-rdf-syntax-ns#" xmlns="http://www.w3.org/2000/svg" height="24" width="24" version="1.1" xmlns:cc="http://creativecommons.org/ns#" xmlns:dc="http://purl.org/dc/elements/1.1/">
 <g transform="translate(0 -1028.4)">
  <g transform="matrix(.70711 .70711 -.70711 .70711 740.06 298.16)">
   <g transform="matrix(.71940 -.69460 .69460 .71940 -692 314.63)">
    <rect height="2" width="6" y="1008.1" x="4.4406" fill="#95a5a6"/>
    <path fill="#95a5a6" d="m5.4406 1010.1v9l2 2 2-2v-1l-2-1 2-1v-1l-1-1 1-1v-3z"/>
    <path fill="#7f8c8d" d="m8.4406 1010.1v4l1-1v-3h-1zm0 4v2.5l1-0.5v-1l-1-1zm0 3.5v2.5l1-1v-1l-1-0.5z"/>
    <path fill="#7f8c8d" d="m6.4406 1010.1v10l1 1v-4-7h-1z"/>
   </g>
   <path d="m7.1716 1025.5c-1.5621 1.6-1.5621 4.1 0 5.6 1.5621 1.6 4.0944 1.6 5.6564 0 1.563-1.5 1.563-4 0-5.6-1.562-1.6-4.0943-1.6-5.6564 0zm1.4142 1.4c0.781-0.8 2.0472-0.8 2.8282 0s0.781 2.1 0 2.8c-0.781 0.8-2.0472 0.8-2.8282 0-0.7811-0.7-0.7811-2 0-2.8z" fill="#7f8c8d"/>
   <path d="m8.9982 1028c-3.2008 0.8-5.1003 4.1-4.2427 7.3 0.8577 3.2 4.1477 5.1 7.3485 4.2 3.201-0.8 5.1-4.1 4.243-7.3-0.858-3.2-4.148-5.1-7.3488-4.2zm0.5176 1.9c1.0672-0.3 2.1632 0.3 2.4492 1.4s-0.347 2.2-1.414 2.5c-1.0668 0.2-2.1635-0.4-2.4494-1.5-0.2859-1 0.3473-2.1 1.4142-2.4z" fill="#95a5a6"/>
   <g fill="#bdc3c7">
    <path d="m8.346 1027.6c-3.2008 0.9-5.1003 4.2-4.2427 7.4 0.8577 3.2 4.1477 5.1 7.3487 4.2s5.1-4.1 4.242-7.3c-0.857-3.2-4.147-5.1-7.348-4.3zm0.5176 1.9c1.0669-0.2 2.1634 0.4 2.4494 1.5 0.286 1-0.347 2.1-1.4141 2.4-1.067 0.3-2.1636-0.3-2.4495-1.4s0.3473-2.2 1.4142-2.5z"/>
    <rect transform="rotate(-15)" height="2" width="6" y="1005.8" x="-260.9"/>
    <path d="m9.7788 1040.7 2.3292 8.7 2.45 1.4 1.414-2.5-0.259-0.9-2.191-0.5 1.673-1.4-0.258-1-1.225-0.7 0.707-1.2-0.777-2.9z"/>
   </g>
   <path d="m12.677 1039.9 1.035 3.9 0.707-1.2-0.777-2.9-0.965 0.2zm1.035 3.9 0.647 2.4 0.836-0.7-0.258-1-1.225-0.7zm0.906 3.4 0.647 2.4 0.707-1.3-0.259-0.9-1.095-0.2z" fill="#95a5a6"/>
   <path d="m10.745 1040.4 2.588 9.7 1.225 0.7-1.036-3.9-1.811-6.7-0.966 0.2z" fill="#95a5a6"/>
   <path d="m9.1271 1027.4c-3.3137 0-6 2.7-6 6 0 3.4 2.6863 6 6 6 3.3139 0 5.9999-2.6 5.9999-6 0-3.3-2.686-6-5.9999-6zm0 2c1.1049 0 1.9999 0.9 1.9999 2 0 1.2-0.895 2-1.9999 2-1.1045 0-2-0.8-2-2 0-1.1 0.8955-2 2-2z" fill="#f39c12"/>
   <g fill="#f1c40f">
    <path d="m8.5858 1026.9c-3.3137 0-6 2.7-6 6 0 3.4 2.6863 6 6 6 3.3132 0 6.0002-2.6 6.0002-6 0-3.3-2.687-6-6.0002-6zm0 2c1.1046 0 2.0002 0.9 2.0002 2 0 1.2-0.8956 2-2.0002 2s-2-0.8-2-2c0-1.1 0.8954-2 2-2z"/>
    <rect height="2" width="6" y="1037.9" x="5.5858"/>
    <path d="m6.5858 1039.9v9l2 2 2.0002-2v-1l-2.0002-1 2.0002-1v-1l-1.0002-1 1.0002-1v-3z"/>
   </g>
   <path d="m9.5858 1039.9v4l1.0002-1v-3h-1.0002zm0 4v2.5l1.0002-0.5v-1l-1.0002-1zm0 3.5v2.5l1.0002-1v-1l-1.0002-0.5z" fill="#f39c12"/>
   <path d="m7.5858 1039.9v10l1 1v-4-7h-1z" fill="#f39c12"/>
   <path d="m20 0c-2.209 0.0000021213-4 1.7909-4 4 0 0.8854 0.294 1.7123 0.781 2.375l1.531-1.3125c-0.192-0.3074-0.312-0.6729-0.312-1.0625 0-1.1046 0.895-2 2-2 0.511 0 0.959 0.2155 1.312 0.5312l1.563-1.3124c-0.727-0.75295-1.745-1.2188-2.875-1.2188z" transform="matrix(.70711 -.70711 .70711 .70711 -6.9706 1039.6)" fill="#7f8c8d"/>
   <path d="m7.1716 1025.5c-1.5621 1.6-1.5621 4.1 0 5.6 0.6261 0.7 1.4188 1.1 2.2318 1.2l0.0442-0.5c-0.3041-0.2-0.604-0.4-0.8618-0.7-1.5621-1.5-1.5621-4 0-5.6 0.4275-0.4 0.9262-0.7 1.4582-0.9l0.022-0.3c-1.0464 0-2.0957 0.4-2.8944 1.2z" fill="#95a5a6"/>
  </g>
 </g>
</svg>
