<svg xmlns="http://www.w3.org/2000/svg" width="24" height="24"><g transform="matrix(.707 .707 -.707 .707 740.061 -730.203)"><g><path d="M11.061 1037.867l1.061 1.061 4.243-4.243-1.061-1.061-4.243 4.243zm4.596-2.475l-3.182 2.475 6.718 6.717h2.828v-2.829l-.707-.707-2.121.707.707-2.121-.707-.707h-1.414v-1.414l-2.121-2.121z" fill="#95a5a6"/><path d="M14.95 1036.099l2.828 2.828v-1.414l-2.121-2.121-.707.707zm2.828 2.828l1.768 1.768.354-1.061-.707-.707h-1.414zm2.475 2.475l1.768 1.768v-1.414l-.707-.707-1.061.354z" fill="#7f8c8d"/><path d="M13.536 1037.513l7.071 7.071h1.414l-2.828-2.829-4.95-4.95-.707.707z" fill="#7f8c8d"/></g><g><path d="M7.057 1027.372c-1.521.659-2.669 1.881-3.234 3.31s-.574 3.077.085 4.598c.881 2.033 2.771 3.326 4.819 3.568l.721 1.664 4.59-1.99.918-.398-.721-1.664c1.235-1.67 1.573-3.917.689-5.956-1.319-3.042-4.825-4.451-7.867-3.132zm6.981 11.15l-3.66 1.621 3.57 8.233 2.661 1.028 1.011-2.62-.398-.918-2.234-.122 1.438-1.714-.398-.918-1.287-.532.491-1.304-1.194-2.754zm-6.185-9.314c1.014-.44 2.151.01 2.591 1.024.44 1.014-.014 2.221-1.028 2.661-1.014.44-2.192-.026-2.632-1.04-.22-.507-.203-1.051-.015-1.527s.576-.897 1.083-1.117z" fill="#bdc3c7"/><path d="M11.284 1039.716l3.98 9.18 1.316.52-1.592-3.672-2.786-6.426-.918.398zm1.836-.796l1.592 3.672.52-1.316-1.194-2.754-.918.398zm1.592 3.672l.995 2.295.719-.857-.398-.918-1.316-.52zm1.393 3.213l.995 2.295.52-1.316-.398-.918-1.117-.061z" fill="#95a5a6"/></g><path d="M7.172 1025.492c-1.562 1.562-1.562 4.095 0 5.657 1.562 1.562 4.095 1.562 5.657 0 1.562-1.562 1.562-4.095 0-5.657-1.562-1.562-4.095-1.562-5.657 0zm1.414 1.414c.781-.781 2.047-.781 2.828 0 .781.781.781 2.047 0 2.828-.781.781-2.047.781-2.828 0-.781-.781-.781-2.047 0-2.828z" fill="#7f8c8d"/><path d="M9.127 1027.448c-3.314 0-6 2.686-6 6s2.686 6 6 6 6-2.686 6-6-2.686-6-6-6zm0 2c1.105 0 2 .895 2 2s-.895 2-2 2-2-.895-2-2 .895-2 2-2z" fill="#f39c12"/><path d="M8.586 1026.948c-3.314 0-6 2.686-6 6s2.686 6 6 6 6-2.686 6-6-2.686-6-6-6zm0 2c1.105 0 2 .895 2 2s-.895 2-2 2-2-.895-2-2 .895-2 2-2z" fill="#f1c40f"/><rect y="1037.948" x="5.586" height="2" width="6" fill="#f1c40f"/><path d="M6.586 1039.948v9l2 2 2-2v-1l-2-1 2-1v-1l-1-1 1-1v-3z" fill="#f1c40f"/><path d="M9.586 1039.948v4l1-1v-3h-1zm0 4v2.5l1-.5v-1l-1-1zm0 3.5v2.5l1-1v-1l-1-.5z" fill="#f39c12"/><path d="M7.586 1039.948v10l1 1v-11h-1z" fill="#f39c12"/><path d="M7.172 1025.492c-1.562 1.562-1.562 4.095 0 5.657.626.626 1.419 1.003 2.232 1.127l.155-2.011c-.354-.081-.697-.255-.972-.53-.781-.781-.781-2.047 0-2.828.362-.362.83-.526 1.304-.552l.177-2.033c-1.047-.018-2.096.372-2.895 1.171z" fill="#7f8c8d"/><path d="M7.172 1025.492c-1.562 1.562-1.562 4.095 0 5.657.626.626 1.419 1.003 2.232 1.127l.044-.486c-.304-.173-.604-.383-.862-.641-1.562-1.562-1.562-4.095 0-5.657.427-.427.926-.735 1.458-.928l.022-.243c-1.047-.018-2.096.372-2.895 1.171z" fill="#95a5a6"/></g></svg>