<svg xmlns="http://www.w3.org/2000/svg" width="24" height="24"><g style="text-align:end;line-height:125%;-inkscape-font-specification:FontAwesome" font-size="8" letter-spacing="0" word-spacing="0" text-anchor="end" fill="#2980b9" font-family="FontAwesome" transform="translate(0 -1028.362)"><path d="M12 1028.362c-6.627 0-12 5.373-12 12s5.373 12 12 12 12-5.373 12-12-5.373-12-12-12zm0 7c2.761 0 5 2.239 5 5s-2.239 5-5 5-5-2.239-5-5 2.239-5 5-5z" fill="#ecf0f1"/><path style="text-align:end;line-height:125%;-inkscape-font-specification:FontAwesome" d="M.094 1038.862c-.062.495-.094.988-.094 1.5 0 6.627 5.373 12 12 12s12-5.373 12-12c0-.512-.032-1.005-.094-1.5-.743 5.914-5.79 10.5-11.906 10.5-6.116 0-11.163-4.586-11.906-10.5z" font-size="8" letter-spacing="0" word-spacing="0" text-anchor="end" fill="#bdc3c7" font-family="FontAwesome"/><path style="text-align:end;line-height:125%;-inkscape-font-specification:FontAwesome" d="M12 1032.362c-2.761 0-5 2.239-5 5 0 .528.098 1.022.25 1.5.642-2.021 2.517-3.5 4.75-3.5s4.108 1.479 4.75 3.5c.152-.478.25-.972.25-1.5 0-2.761-2.239-5-5-5z" font-size="8" letter-spacing="0" word-spacing="0" text-anchor="end" fill="#bdc3c7" font-family="FontAwesome"/><path style="text-align:end;line-height:125%;-inkscape-font-specification:FontAwesome" d="M20.484 1031.883c-1.172-1.172-2.511-2.044-3.955-2.63l-2.652 6.497c.602.244 1.169.595 1.657 1.083s.839 1.055 1.083 1.657l6.497-2.652c-.586-1.445-1.458-2.784-2.63-3.955zm-13.015-2.63c-1.445.586-2.784 1.458-3.955 2.63-1.172 1.172-2.044 2.511-2.63 3.955l6.497 2.652c.244-.602.595-1.169 1.083-1.657s1.055-.839 1.657-1.083l-2.652-6.497zm15.645 15.645l-6.497-2.652c-.244.602-.595 1.169-1.083 1.657s-1.055.839-1.657 1.083l2.652 6.497c1.445-.586 2.784-1.458 3.955-2.63 1.172-1.172 2.044-2.511 2.63-3.955zm-15.733-2.652l-6.497 2.652c.586 1.445 1.458 2.784 2.63 3.955 1.172 1.172 2.511 2.044 3.955 2.63l2.652-6.496c-.602-.244-1.169-.595-1.657-1.083s-.839-1.055-1.083-1.657z" font-size="8" letter-spacing="0" word-spacing="0" text-anchor="end" fill="#e74c3c" font-family="FontAwesome"/><path style="text-align:end;line-height:125%;-inkscape-font-specification:FontAwesome" d="M2.25 1044.331l-1.375.563c.586 1.445 1.453 2.797 2.625 3.969 1.172 1.172 2.524 2.039 3.969 2.625l1.063-2.625c-2.567-.775-4.758-2.399-6.281-4.531zm19.5 0c-1.524 2.132-3.714 3.756-6.281 4.531l1.063 2.625c1.445-.586 2.766-1.453 3.938-2.625 1.172-1.172 2.071-2.524 2.656-3.969l-1.375-.563z" font-size="8" letter-spacing="0" word-spacing="0" text-anchor="end" fill="#c0392b" font-family="FontAwesome"/><path style="text-align:end;line-height:125%;-inkscape-font-specification:FontAwesome" d="M9.125 1033.3c-1.27.907-2.125 2.383-2.125 4.063 0 .345.027.675.094 1l.281.125c.244-.602.606-1.168 1.094-1.656.488-.488 1.054-.85 1.656-1.094l-1-2.438zm5.75 0l-1 2.438c.602.244 1.168.606 1.656 1.094.488.488.85 1.054 1.094 1.656l.281-.125c.067-.325.094-.655.094-1 0-1.679-.855-3.156-2.125-4.063z" font-size="8" letter-spacing="0" word-spacing="0" text-anchor="end" fill="#c0392b" font-family="FontAwesome"/></g></svg>