<svg xmlns="http://www.w3.org/2000/svg" width="24" height="24"><g transform="translate(0 -1028.362)"><path d="M24 14a2 2 0 1 1-4 0 2 2 0 1 1 4 0z" transform="matrix(1 0 0 1.25 -10 1031.362)" fill="#7f8c8d"/><path d="M12 1030.362c-3.866 0-7 3.256-7 7.273 0 3.053 3.125 5.909 4 7.727.875 1.818 0 5 0 5l3-.511 3 .511s-.875-3.182 0-5 4-4.674 4-7.727c0-4.017-3.134-7.273-7-7.273z" fill="#f39c12"/><path d="M12 1030.362c3.866 0 7 3.264 7 7.281 0 3.053-3.125 5.901-4 7.719-.875 1.818 0 5 0 5l-3-.5v-19.5z" fill="#f1c40f"/><path d="M9 1036.362l-1 1 4 12 4-12-1-1-1 1-1-1-1 1-1-1-1 1-1-1zm0 1l1 1 .5-.5.5-.5.5.5.5.5.5-.5.5-.5.5.5.5.5 1-1 .438.438-3.438 10.313-3.438-10.313.438-.438z" fill="#e67e22"/><rect width="6" height="5" x="9" y="1045.362" fill="#bdc3c7"/><path d="M9 1045.362v5h3v-1h3v-1h-3v-1h3v-1h-3v-1h-3z" fill="#95a5a6"/><path d="M9 1046.362v1h3v-1h-3zm0 2v1h3v-1h-3z" fill="#7f8c8d"/></g></svg>