<svg xmlns="http://www.w3.org/2000/svg" width="24" height="24"><g><path d="M5 9c-1.105 0-2 .895-2 2v8c0 1.105.895 2 2 2h14c1.105 0 2-.895 2-2v-8c0-1.105-.895-2-2-2h-14z" fill="#f1c40f"/><path d="M5 12c-1.105 0-2 .895-2 2v8c0 1.105.895 2 2 2h14c1.105 0 2-.895 2-2v-8c0-1.105-.895-2-2-2h-14z" fill="#f39c12"/><path d="M12 1c-3.866 0-7 3.134-7 7h3c0-2.209 1.791-4 4-4s4 1.791 4 4h3c0-3.866-3.134-7-7-7z" fill="#bdc3c7"/><path d="M5 14v1h14v-1h-14zm0 2v1h14v-1h-14zm0 2v1h14v-1h-14zm0 2v1h14v-1h-14z" fill="#e67e22"/><path d="M5 9v1c0 .552.672 1 1.5 1s1.5-.448 1.5-1v-1c0 .552-.672 1-1.5 1s-1.5-.448-1.5-1z" fill="#7f8c8d"/><path d="M16 9v1c0 .552.672 1 1.5 1s1.5-.448 1.5-1v-1c0 .552-.672 1-1.5 1s-1.5-.448-1.5-1z" fill="#7f8c8d"/><path d="M12 2.438c-.351 0-.699.034-1.031.094-.246.045-.486.113-.719.188-.217.07-.423.156-.625.25l-.313.156-.375.25-.344.219c-.141.11-.28.221-.406.344l-.094.125c-.168.174-.331.336-.469.531-.14.199-.27.407-.375.625v.031c-.111.236-.216.496-.281.75-.253.584-.942 1-1.75 1h-.156l-.063 1v2h3v-2c0-.276.04-.552.094-.813.373-1.823 1.973-3.188 3.906-3.188 2.209 0 4 1.791 4 4v2h3v-2l-.063-1h-.156c-.808 0-1.497-.416-1.75-1-.065-.254-.17-.514-.281-.75v-.031c-.105-.218-.235-.426-.375-.625-.138-.196-.3-.357-.469-.531l-.094-.125c-.126-.123-.266-.234-.406-.344l-.344-.219-.375-.25-.313-.156c-.202-.094-.408-.18-.625-.25-.232-.075-.472-.143-.719-.188-.332-.06-.68-.094-1.031-.094z" fill="#95a5a6"/></g></svg>