<?xml version="1.0" encoding="UTF-8" standalone="no"?>
<svg xmlns:rdf="http://www.w3.org/1999/02/22-rdf-syntax-ns#" xmlns="http://www.w3.org/2000/svg" height="24" width="24" version="1.1" xmlns:cc="http://creativecommons.org/ns#" xmlns:dc="http://purl.org/dc/elements/1.1/">
 <g transform="translate(0 -1028.4)">
  <path d="m5 1037.4c-1.1046 0-2 0.9-2 2v1 6 1c0 1.1 0.8954 2 2 2h2 10 2c1.105 0 2-0.9 2-2v-7-1c0-1.1-0.895-2-2-2h-2-12z" fill="#f1c40f"/>
  <path d="m5 1040.4c-1.1046 0-2 0.9-2 2v1 6 1c0 1.1 0.8954 2 2 2h2 10 2c1.105 0 2-0.9 2-2v-7-1c0-1.1-0.895-2-2-2h-2-12z" fill="#f39c12"/>
  <rect height="1" width="3" y="1037.4" x="5" fill="#95a5a6"/>
  <path d="m12 1029.4c-3.866 0-7 3.1-7 7h3c0-2.2 1.7909-4 4-4 2.209 0 4 1.8 4 4h3c0-3.9-3.134-7-7-7z" fill="#bdc3c7"/>
  <path d="m12 2.4375c-2.4468 0-4.508 1.5295-5.0312 3.5625-0.253 0.5844-0.9424 1-1.75 1-0.075 0-0.0837 0.007-0.1563 0l-0.0625 1v1h3v-1c0-2.2091 1.7909-4 4-4 2.209 0 4 1.7909 4 4h3c0-0.3412-0.047-0.6719-0.094-1h-1.75c0-2.5247-2.316-4.5625-5.156-4.5625z" transform="translate(0 1028.4)" fill="#95a5a6"/>
  <rect transform="translate(0 1028.4)" height="1" width="3" y="8" x="16" fill="#95a5a6"/>
  <g fill="#e67e22">
   <rect height="1" width="14" y="1042.4" x="5"/>
   <rect height="1" width="14" y="1044.4" x="5"/>
   <rect height="1" width="14" y="1046.4" x="5"/>
   <rect height="1" width="14" y="1048.4" x="5"/>
  </g>
  <path d="m5 1037.4v1c0 0.5 0.6716 1 1.5 1s1.5-0.5 1.5-1v-1c0 0.5-0.6716 1-1.5 1s-1.5-0.5-1.5-1z" fill="#7f8c8d"/>
  <path d="m12 2.4375c-2.8403 0-5.1562 2.0378-5.1562 4.5625h-1.75c-0.0472 0.3281-0.0938 0.6588-0.0938 1h3c0-2.2091 1.7909-4 4-4 2.209 0 4 1.7909 4 4v1 1h3v-1-1l-0.062-1c-0.073 0.007-0.082 0-0.157 0-0.807 0-1.497-0.4156-1.75-1-0.523-2.033-2.584-3.5625-5.031-3.5625z" transform="translate(0 1028.4)" fill="#95a5a6"/>
  <path d="m16 1037.4v1c0 0.5 0.672 1 1.5 1s1.5-0.5 1.5-1v-1c0 0.5-0.672 1-1.5 1s-1.5-0.5-1.5-1z" fill="#7f8c8d"/>
 </g>
</svg>
