<?xml version="1.0" encoding="UTF-8" standalone="no"?>
<svg xmlns:rdf="http://www.w3.org/1999/02/22-rdf-syntax-ns#" xmlns="http://www.w3.org/2000/svg" height="24" width="24" version="1.1" xmlns:cc="http://creativecommons.org/ns#" xmlns:dc="http://purl.org/dc/elements/1.1/">
 <g transform="translate(0 -1028.4)">
  <path d="m12 1031.4c-2.7614 0-5 2.6-5 6v1c0 0.5 0.3731 1 0.8333 1 0.4603 0 0.8334-0.5 0.8334-1v-1c0-2.4 1.4923-4.3 3.3333-4.3s3.333 1.9 3.333 4.3v1c0 0.5 0.373 1 0.834 1 0.46 0 0.833-0.5 0.833-1v-1c0-3.4-2.239-6-5-6z" fill="#7f8c8d"/>
  <path d="m6 1037.4c-1.1046 0-2 0.9-2 2v7c0 1.1 0.8954 2 2 2h12c1.105 0 2-0.9 2-2v-7c0-1.1-0.895-2-2-2h-12z" fill="#f1c40f"/>
  <path d="m12 1029.9c-3.3137 0-6 2.7-6 6v1c0 0.6 0.4477 1 1 1s1-0.4 1-1v-1c0-2.3 1.7909-4.2 4-4.2 2.209 0 4 1.9 4 4.2v1c0 0.6 0.448 1 1 1s1-0.4 1-1v-1c0-3.3-2.686-6-6-6z" fill="#bdc3c7"/>
  <path d="m6 1039.4c-1.1046 0-2 0.9-2 2v7c0 1.1 0.8954 2 2 2h12c1.105 0 2-0.9 2-2v-7c0-1.1-0.895-2-2-2h-12z" fill="#f39c12"/>
  <path d="m6.327 1037.4c-0.3403 0-0.6569 0.1-0.9375 0.2 0.222 0.9 1.0056 1.5 1.9375 1.5 1.0193 0 1.845-0.8 1.9688-1.7h-2.9688z" fill="#7f8c8d"/>
  <path d="m17.792 1037.3c0.34 0 0.657 0.1 0.937 0.3-0.222 0.8-1.005 1.5-1.937 1.5-1.02 0-1.845-0.8-1.969-1.8h2.969z" fill="#7f8c8d"/>
  <path d="m12 1030.4c-3.3137 0-6 2.6-6 6v1c0 0.5 0.4477 1 1 1s1-0.5 1-1v-1c0-2.4 1.7909-4.3 4-4.3 2.209 0 4 1.9 4 4.3v1c0 0.5 0.448 1 1 1s1-0.5 1-1v-1c0-3.4-2.686-6-6-6z" fill="#95a5a6"/>
  <g fill="#e67e22">
   <rect height="1" width="12" y="1041.4" x="6"/>
   <rect height="1" width="12" y="1043.4" x="6"/>
   <rect height="1" width="12" y="1045.4" x="6"/>
   <rect height="1" width="12" y="1047.4" x="6"/>
  </g>
 </g>
</svg>
