<?xml version="1.0" encoding="UTF-8" standalone="no"?>
<svg xmlns:rdf="http://www.w3.org/1999/02/22-rdf-syntax-ns#" xmlns="http://www.w3.org/2000/svg" height="24" width="24" version="1.1" xmlns:cc="http://creativecommons.org/ns#" xmlns:dc="http://purl.org/dc/elements/1.1/">
 <g transform="translate(0 -1028.4)">
  <path d="m12 3c-2.7614 0-5 2.6863-5 6v1c0 0.552 0.3835 1 0.8438 1 0.4602 0 0.8124-0.448 0.8124-1v-1c0-2.3472 1.5028-4.25 3.3438-4.25 0.92 0 1.741 0.4809 2.344 1.25h1.968c-0.866-1.7847-2.467-3-4.312-3z" transform="translate(0 1028.4)" fill="#7f8c8d"/>
  <path d="m6 1037.4c-1.1046 0-2 0.9-2 2v7c0 1.1 0.8954 2 2 2h12c1.105 0 2-0.9 2-2v-7c0-1.1-0.895-2-2-2h-12z" fill="#f1c40f"/>
  <rect height="1" width="3.4354" y="1034.4" x="14.347" fill="#7f8c8d"/>
  <path d="m12 1.5625c-3.3137 0-6 2.6863-6 6v1c0 0.5523 0.4477 1 1 1s1-0.4477 1-1v-1c0-2.3472 1.7909-4.25 4-4.25 1.69 0 3.133 1.1126 3.719 2.6875h2.062c-0.687-2.5559-3.008-4.4375-5.781-4.4375z" transform="translate(0 1028.4)" fill="#bdc3c7"/>
  <path d="m6 1039.4c-1.1046 0-2 0.9-2 2v7c0 1.1 0.8954 2 2 2h12c1.105 0 2-0.9 2-2v-7c0-1.1-0.895-2-2-2h-12z" fill="#f39c12"/>
  <path d="m6.327 1037.4c-0.3403 0-0.6569 0.1-0.9375 0.2 0.222 0.9 1.0056 1.5 1.9375 1.5 1.0193 0 1.845-0.8 1.9688-1.7h-2.9688z" fill="#7f8c8d"/>
  <path d="m17.792 1037.3c0.34 0 0.657 0.1 0.937 0.3-0.222 0.8-1.005 1.5-1.937 1.5-1.02 0-1.845-0.8-1.969-1.8h2.969z" fill="#7f8c8d"/>
  <path d="m12 2c-3.3137 0-6 2.6863-6 6v1c0 0.5523 0.4477 1 1 1s1-0.4477 1-1v-1c0-2.3472 1.7909-4.25 4-4.25 1.524 0 2.825 0.9184 3.5 2.25h2.156c-0.823-2.3312-3.043-4-5.656-4z" transform="translate(0 1028.4)" fill="#95a5a6"/>
  <g fill="#e67e22">
   <rect height="1" width="12" y="1041.4" x="6"/>
   <rect height="1" width="12" y="1043.4" x="6"/>
   <rect height="1" width="12" y="1045.4" x="6"/>
   <rect height="1" width="12" y="1047.4" x="6"/>
  </g>
 </g>
</svg>
