<svg xmlns="http://www.w3.org/2000/svg" width="24" height="24"><g><path d="M8 2l8 1v19l-8-1z" fill="#ecf0f1"/><path d="M2 3l6-1v19l-6 1z" fill="#bdc3c7"/><path d="M16 3l6-1v19l-6 1z" fill="#bdc3c7"/><path d="M3 4l5-1v17l-5 1z" fill="#27ae60"/><path d="M8 3l8 1v17l-8-1z" fill="#2ecc71"/><path d="M21 20l-5 1v-17l5-1z" fill="#27ae60"/><path d="M5.687 3.456l-2.312.469 4.625 4.875v-2.906l-2.313-2.438z" fill="#f39c12"/><path d="M21 18l-5 1v-6l5-3z" fill="#f39c12"/><path d="M21 20l-5 1v-6l5-3z" fill="#2980b9"/><path d="M8 14l8-1v6l-8-1z" fill="#f1c40f"/><path d="M8 16l8-1v6l-8-1z" fill="#3498db"/><path d="M3 17l5-3v4l-5 1z" fill="#f39c12"/><path d="M3 19l5-3v4l-5 1z" fill="#2980b9"/><path d="M8 8.801v-2.898l4 8.66h-1.469z" fill="#f1c40f"/></g></svg>