<?xml version="1.0" encoding="UTF-8" standalone="no"?>
<svg xmlns:rdf="http://www.w3.org/1999/02/22-rdf-syntax-ns#" xmlns="http://www.w3.org/2000/svg" height="24" width="24" version="1.1" xmlns:cc="http://creativecommons.org/ns#" xmlns:dc="http://purl.org/dc/elements/1.1/">
 <g transform="translate(0 -1028.4)">
  <path d="m19 1038.4c0.552 0 1 0.4 1 1v1c0 4-3.056 7.4-7 7.9v2.1h6c0.552 0 1 0.4 1 1 0 0.5-0.448 1-1 1h-14c-0.5523 0-1-0.5-1-1 0-0.6 0.4477-1 1-1h6v-2.1c-3.9444-0.5-7-3.9-7-7.9v-1c0-0.6 0.4477-1 1-1s1 0.4 1 1v1c0 3.3 2.6863 6 6 6 3.314 0 6-2.7 6-6v-1c0-0.6 0.448-1 1-1z" fill="#95a5a6"/>
  <path d="m18 12.5c0 3.038-2.462 5.5-5.5 5.5-3.0376 0-5.5-2.462-5.5-5.5 0-3.0376 2.4624-5.5 5.5-5.5 3.038 0 5.5 2.4624 5.5 5.5z" transform="matrix(1.0909 0 0 1.0909 -32.636 928.73)" fill="#e67e22"/>
  <path d="m12 1028.4c2.209 0 4 1.8 4 4v8c0 2.2-1.791 4-4 4-2.2091 0-4-1.8-4-4v-8c0-2.2 1.7909-4 4-4z" fill="#bdc3c7"/>
  <g fill="#2c3e50">
   <path d="m16 4c0 2.2091-1.791 4-4 4-2.2091 0-4-1.7909-4-4s1.7909-4 4-4c2.209 0 4 1.7909 4 4z" transform="translate(5 939.36)"/>
   <path d="m16 4c0 2.2091-1.791 4-4 4-2.2091 0-4-1.7909-4-4s1.7909-4 4-4c2.209 0 4 1.7909 4 4z" transform="translate(5 947.36)"/>
   <rect height="8" width="8" y="943.36" x="13"/>
  </g>
  <path d="m17 936.36v6c0 3.32 2.686 6 6 6s6-2.68 6-6v-6h-2v1.53 4.47c0 2.21-1.791 4-4 4s-4-1.79-4-4v-4.47-1.53h-2z" fill="#e67e22"/>
  <path d="m16 956.36c-2.209 0-4 1.79-4 4v8c0 2.21 1.791 4 4 4s4-1.79 4-4v-8c0-2.21-1.791-4-4-4z" fill="#2c3e50"/>
  <path d="m-84 1023.4v1c0 4.4 3.582 8 8 8s8-3.6 8-8v-1h-2v1c0 3.3-2.686 6-6 6s-6-2.7-6-6v-1h-2z"/>
  <path d="m-76 1012.4c-2.209 0-4 1.8-4 4v8c0 2.2 1.791 4 4 4s4-1.8 4-4v-8c0-2.2-1.791-4-4-4z" fill="#2c3e50"/>
  <g>
   <rect ry="0" height="5" width="2" y="1031.4" x="-77"/>
   <rect height="2" width="14" y="1034.4" x="-83"/>
   <path d="m10 10c0 0.552-0.4477 1-1 1s-1-0.448-1-1c0-0.5523 0.4477-1 1-1s1 0.4477 1 1z" transform="translate(-92 1013.4)"/>
   <path d="m10 10c0 0.552-0.4477 1-1 1s-1-0.448-1-1c0-0.5523 0.4477-1 1-1s1 0.4477 1 1z" transform="translate(-78 1013.4)"/>
   <path d="m10 10c0 0.552-0.4477 1-1 1s-1-0.448-1-1c0-0.5523 0.4477-1 1-1s1 0.4477 1 1z" transform="translate(-92 1025.4)"/>
   <path d="m10 10c0 0.552-0.4477 1-1 1s-1-0.448-1-1c0-0.5523 0.4477-1 1-1s1 0.4477 1 1z" transform="translate(-78 1025.4)"/>
  </g>
  <path d="m12 1028.4v16c-2.2091 0-4-1.8-4-4v-8c0-2.2 1.7909-4 4-4z" fill="#95a5a6"/>
  <path d="m16 1033.4v1h-2v-1h2zm0 2v1h-2v-1h2zm0 2v1h-2v-1h2z" fill="#95a5a6"/>
  <path d="m10 1033.4v1h-2v-1h2zm0 2v1h-2v-1h2zm0 2v1h-2v-1h2z" fill="#7f8c8d"/>
 </g>
</svg>
