<svg xmlns="http://www.w3.org/2000/svg" width="24" height="24"><g><path d="M19 10c.552 0 1 .448 1 1v1c0 4.078-3.056 7.444-7 7.938v2.063h6c.552 0 1 .448 1 1s-.448 1-1 1h-14c-.552 0-1-.448-1-1s.448-1 1-1h6v-2.063c-3.944-.494-7-3.859-7-7.938v-1c0-.552.448-1 1-1s1 .448 1 1v1c0 3.314 2.686 6 6 6s6-2.686 6-6v-1c0-.552.448-1 1-1z" fill="#95a5a6"/><path d="M12 0c2.209 0 4 1.791 4 4v8c0 2.209-1.791 4-4 4s-4-1.791-4-4v-8c0-2.209 1.791-4 4-4z" fill="#bdc3c7"/><path d="M12 0v16c-2.209 0-4-1.791-4-4v-8c0-2.209 1.791-4 4-4z" fill="#95a5a6"/><path d="M16 5v1h-2v-1h2zm0 2v1h-2v-1h2zm0 2v1h-2v-1h2z" fill="#95a5a6"/><path d="M10 5v1h-2v-1h2zm0 2v1h-2v-1h2zm0 2v1h-2v-1h2z" fill="#7f8c8d"/></g></svg>