<svg xmlns="http://www.w3.org/2000/svg" width="24" height="24"><g><path d="M2 4c-1.105 0-2 .895-2 2v15c0 1.105.895 2 2 2h20c1.105 0 2-.895 2-2v-15c0-1.105-.895-2-2-2h-20z" fill="#2980b9"/><path d="M2 1c-1.105 0-2 .895-2 2v15c0 1.105.895 2 2 2h20c1.105 0 2-.895 2-2v-15c0-1.105-.895-2-2-2h-20z" fill="#3498db"/><path d="M5 3c-.552 0-1 .448-1 1v13c0 .552.448 1 1 1s1-.448 1-1v-13c0-.552-.448-1-1-1zm7 0c-.552 0-1 .448-1 1v13c0 .552.448 1 1 1s1-.448 1-1v-13c0-.552-.448-1-1-1zm7 0c-.552 0-1 .448-1 1v13c0 .552.448 1 1 1s1-.448 1-1v-13c0-.552-.448-1-1-1z" fill="#34495e"/><path d="M5 3v15c.552 0 1-.448 1-1v-13c0-.552-.448-1-1-1z" fill="#2c3e50"/><path d="M12 3v15c.552 0 1-.448 1-1v-13c0-.552-.448-1-1-1z" fill="#2c3e50"/><path d="M19 3v15c.552 0 1-.448 1-1v-13c0-.552-.448-1-1-1z" fill="#2c3e50"/><path d="M3 9c-.552 0-1 .448-1 1s.448 1 1 1h4c.552 0 1-.448 1-1s-.448-1-1-1h-4z" fill="#ecf0f1"/><path d="M2 10c0 .552.448 1 1 1h4c.552 0 1-.448 1-1h-6z" fill="#95a5a6"/><path d="M10 13c-.552 0-1 .448-1 1s.448 1 1 1h4c.552 0 1-.448 1-1s-.448-1-1-1h-4z" fill="#ecf0f1"/><path d="M9 14c0 .552.448 1 1 1h4c.552 0 1-.448 1-1h-6z" fill="#95a5a6"/><path d="M17 5c-.552 0-1 .448-1 1s.448 1 1 1h4c.552 0 1-.448 1-1s-.448-1-1-1h-4z" fill="#ecf0f1"/><path d="M16 6c0 .552.448 1 1 1h4c.552 0 1-.448 1-1h-6z" fill="#95a5a6"/></g></svg>