<?xml version="1.0" encoding="UTF-8" standalone="no"?>
<svg xmlns:rdf="http://www.w3.org/1999/02/22-rdf-syntax-ns#" xmlns="http://www.w3.org/2000/svg" height="24" width="24" version="1.1" xmlns:cc="http://creativecommons.org/ns#" xmlns:dc="http://purl.org/dc/elements/1.1/">
 <g transform="translate(0 -1028.4)">
  <g>
   <rect height="14" width="24" y="1034.4" x="0" fill="#27ae60"/>
   <rect height="14" width="24" y="1033.4" x="0" fill="#2ecc71"/>
   <rect height="14" width="24" y="1032.4" x="0" fill="#27ae60"/>
   <rect height="14" width="24" y="1031.4" x="0" fill="#2ecc71"/>
   <path d="m5 1032.4c0.0001 0 0 0 0 0 0 2.2-1.7909 4-4 4v3.9c2.2091 0 4 1.8 4 4.1h14v-0.1c0-2.2 1.791-4 4-4v-3.9c-2.209 0-4-1.8-4-4h-14z" fill="#ecf0f1"/>
   <path d="m16 11c0 2.761-1.791 5-4 5-2.2091 0-4-2.239-4-5 0-2.7614 1.7909-5 4-5 2.209 0 4 2.2386 4 5z" transform="translate(1.0962e-8 1027.4)" fill="#2ecc71"/>
  </g>
  <g fill="#ecf0f1" transform="matrix(1.9176 0 0 1.1179 18.509 -115.45)">
   <path d="m-4.4375 1030.1 1.2891-0.6h0.1289v4.4c0 0.3 0.0117 0.5 0.0351 0.6 0.0261 0.1 0.0781 0.1 0.1563 0.2h0.4765v0.2h-1.9922v-0.2h0.4844c0.0729-0.1 0.1237-0.1 0.1524-0.2 0.0286-0.1 0.0429-0.3 0.0429-0.6v-2.8c0-0.4-0.013-0.7-0.039-0.8-0.0183-0.1-0.0521-0.1-0.1016-0.2h-0.1719c-0.0963 0-0.2304 0-0.4023 0.1l-0.0586-0.1"/>
   <g transform="translate(0 -1.5096)">
    <g transform="translate(-18.773 13.418)">
     <path d="m40 5c-0.875 0-1.642 0.2021-2.188 0.5h-0.812v0.2812 0.1563 0.0625 0.0625 0.4375c0 0.8285 1.343 1.5 3 1.5s3-0.6715 3-1.5v-0.4375-0.0625-0.0625-0.1563-0.2812h-0.812c-0.546-0.2979-1.313-0.5-2.188-0.5z" transform="matrix(.52148 0 0 .89455 -9.6523 1024.7)" fill="#f39c12"/>
     <path d="m42 7.5c0 0.8284-1.343 1.5-3 1.5s-3-0.6716-3-1.5 1.343-1.5 3-1.5 3 0.6716 3 1.5z" transform="matrix(.52148 0 0 .89455 -9.1309 1022.9)" fill="#f1c40f"/>
    </g>
    <g fill="#ecf0f1">
     <g transform="translate(-18.773 11.629)">
      <path d="m40 5c-0.875 0-1.642 0.2021-2.188 0.5h-0.812v0.2812 0.1563 0.0625 0.0625 0.4375c0 0.8285 1.343 1.5 3 1.5s3-0.6715 3-1.5v-0.4375-0.0625-0.0625-0.1563-0.2812h-0.812c-0.546-0.2979-1.313-0.5-2.188-0.5z" transform="matrix(.52148 0 0 .89455 -9.6523 1024.7)" fill="#f39c12"/>
      <path d="m42 7.5c0 0.8284-1.343 1.5-3 1.5s-3-0.6716-3-1.5 1.343-1.5 3-1.5 3 0.6716 3 1.5z" transform="matrix(.52148 0 0 .89455 -9.1309 1022.9)" fill="#f1c40f"/>
     </g>
     <g transform="translate(-18.773 9.8401)">
      <path d="m40 5c-0.875 0-1.642 0.2021-2.188 0.5h-0.812v0.2812 0.1563 0.0625 0.0625 0.4375c0 0.8285 1.343 1.5 3 1.5s3-0.6715 3-1.5v-0.4375-0.0625-0.0625-0.1563-0.2812h-0.812c-0.546-0.2979-1.313-0.5-2.188-0.5z" transform="matrix(.52148 0 0 .89455 -9.6523 1024.7)" fill="#f39c12"/>
      <path d="m42 7.5c0 0.8284-1.343 1.5-3 1.5s-3-0.6716-3-1.5 1.343-1.5 3-1.5 3 0.6716 3 1.5z" transform="matrix(.52148 0 0 .89455 -9.1309 1022.9)" fill="#f1c40f"/>
     </g>
     <g transform="translate(-18.773 8.0509)">
      <path d="m40 5c-0.875 0-1.642 0.2021-2.188 0.5h-0.812v0.2812 0.1563 0.0625 0.0625 0.4375c0 0.8285 1.343 1.5 3 1.5s3-0.6715 3-1.5v-0.4375-0.0625-0.0625-0.1563-0.2812h-0.812c-0.546-0.2979-1.313-0.5-2.188-0.5z" transform="matrix(.52148 0 0 .89455 -9.6523 1024.7)" fill="#f39c12"/>
      <path d="m42 7.5c0 0.8284-1.343 1.5-3 1.5s-3-0.6716-3-1.5 1.343-1.5 3-1.5 3 0.6716 3 1.5z" transform="matrix(.52148 0 0 .89455 -9.1309 1022.9)" fill="#f1c40f"/>
     </g>
     <g transform="translate(-15.123 13.418)">
      <path d="m40 5c-0.875 0-1.642 0.2021-2.188 0.5h-0.812v0.2812 0.1563 0.0625 0.0625 0.4375c0 0.8285 1.343 1.5 3 1.5s3-0.6715 3-1.5v-0.4375-0.0625-0.0625-0.1563-0.2812h-0.812c-0.546-0.2979-1.313-0.5-2.188-0.5z" transform="matrix(.52148 0 0 .89455 -9.6523 1024.7)" fill="#f39c12"/>
      <path d="m42 7.5c0 0.8284-1.343 1.5-3 1.5s-3-0.6716-3-1.5 1.343-1.5 3-1.5 3 0.6716 3 1.5z" transform="matrix(.52148 0 0 .89455 -9.1309 1022.9)" fill="#f1c40f"/>
     </g>
     <g transform="translate(-14.08 12.524)">
      <path d="m40 5c-0.875 0-1.642 0.2021-2.188 0.5h-0.812v0.2812 0.1563 0.0625 0.0625 0.4375c0 0.8285 1.343 1.5 3 1.5s3-0.6715 3-1.5v-0.4375-0.0625-0.0625-0.1563-0.2812h-0.812c-0.546-0.2979-1.313-0.5-2.188-0.5z" transform="matrix(.52148 0 0 .89455 -9.6523 1024.7)" fill="#f39c12"/>
      <path d="m42 7.5c0 0.8284-1.343 1.5-3 1.5s-3-0.6716-3-1.5 1.343-1.5 3-1.5 3 0.6716 3 1.5z" transform="matrix(.52148 0 0 .89455 -9.1309 1022.9)" fill="#f1c40f"/>
     </g>
     <g transform="translate(-18.773 6.2618)">
      <path d="m40 5c-0.875 0-1.642 0.2021-2.188 0.5h-0.812v0.2812 0.1563 0.0625 0.0625 0.4375c0 0.8285 1.343 1.5 3 1.5s3-0.6715 3-1.5v-0.4375-0.0625-0.0625-0.1563-0.2812h-0.812c-0.546-0.2979-1.313-0.5-2.188-0.5z" transform="matrix(.52148 0 0 .89455 -9.6523 1024.7)" fill="#f39c12"/>
      <path d="m42 7.5c0 0.8284-1.343 1.5-3 1.5s-3-0.6716-3-1.5 1.343-1.5 3-1.5 3 0.6716 3 1.5z" transform="matrix(.52148 0 0 .89455 -9.1309 1022.9)" fill="#f1c40f"/>
     </g>
    </g>
   </g>
  </g>
 </g>
</svg>
