<svg xmlns="http://www.w3.org/2000/svg" width="24" height="24"><g transform="translate(0 -1028.362)"><rect width="24" height="14" y="1031.362" fill="#16a085"/><rect width="24" height="14" y="1032.362" fill="#1abc9c"/><path d="M5 1033.362v.031c0 2.226-1.791 4.031-4 4.031v3.906c2.209 0 4 1.805 4 4.031h14v-.031c0-2.226 1.791-4.031 4-4.031v-3.906c-2.209 0-4-1.805-4-4.031h-14z" fill="#ecf0f1"/><path d="M16 1039.362c0 2.761-1.791 5-4 5s-4-2.239-4-5 1.791-5 4-5 4 2.239 4 5z" fill="#1abc9c"/><path style="text-align:end;line-height:125%;-inkscape-font-specification:Times New Roman" d="M10.281 1037.065l2.472-.703h.247v5c0 .332.022.539.067.62.05.082.15.144.3.188.15.044.454.068.914.074v.162h-3.82v-.162c.479-.006.789-.029.929-.07.14-.044.237-.101.292-.17.055-.073.082-.287.082-.642v-3.196c0-.431-.025-.707-.075-.83-.035-.093-.1-.162-.195-.205-.09-.044-.2-.065-.33-.065-.185 0-.442.045-.772.135l-.112-.135" font-size="8" letter-spacing="0" word-spacing="0" text-anchor="end" fill="#ecf0f1" font-family="Times New Roman"/><g style="text-align:end;line-height:125%;-inkscape-font-specification:Times New Roman" transform="matrix(1.918 0 0 1.118 18.509 -118.135)" font-size="8" letter-spacing="0" word-spacing="0" text-anchor="end" fill="#ecf0f1" font-family="Times New Roman"><g><path style="text-align:end;line-height:125%;-inkscape-font-specification:Times New Roman" d="M-7.586 1042.597c-.456 0-.856.181-1.14.448h-.423v.896c0 .741.7 1.343 1.563 1.343s1.563-.601 1.563-1.343v-.896h-.423c-.284-.267-.684-.448-1.14-.448z" font-size="8" letter-spacing="0" word-spacing="0" text-anchor="end" fill="#f39c12" font-family="Times New Roman"/><path d="M-6.022 1043.046c0 .741-.7 1.343-1.563 1.343s-1.563-.601-1.563-1.343c0-.741.7-1.343 1.563-1.343s1.563.601 1.563 1.343z" fill="#f1c40f"/></g><g style="text-align:end;line-height:125%;-inkscape-font-specification:Times New Roman" font-size="8" letter-spacing="0" word-spacing="0" text-anchor="end" fill="#ecf0f1" font-family="Times New Roman"><path style="text-align:end;line-height:125%;-inkscape-font-specification:Times New Roman" d="M-7.586 1040.808c-.456 0-.856.181-1.14.448h-.423v.896c0 .741.7 1.343 1.563 1.343s1.563-.601 1.563-1.343v-.896h-.423c-.284-.267-.684-.448-1.14-.448z" font-size="8" letter-spacing="0" word-spacing="0" text-anchor="end" fill="#f39c12" font-family="Times New Roman"/><path d="M-6.022 1041.257c0 .741-.7 1.343-1.563 1.343s-1.563-.601-1.563-1.343c0-.741.7-1.343 1.563-1.343s1.563.601 1.563 1.343z" fill="#f1c40f"/></g><g style="text-align:end;line-height:125%;-inkscape-font-specification:Times New Roman" font-size="8" letter-spacing="0" word-spacing="0" text-anchor="end" fill="#ecf0f1" font-family="Times New Roman"><path style="text-align:end;line-height:125%;-inkscape-font-specification:Times New Roman" d="M-7.586 1039.019c-.456 0-.856.181-1.14.448h-.423v.896c0 .741.7 1.343 1.563 1.343s1.563-.601 1.563-1.343v-.896h-.423c-.284-.267-.684-.448-1.14-.448z" font-size="8" letter-spacing="0" word-spacing="0" text-anchor="end" fill="#f39c12" font-family="Times New Roman"/><path d="M-6.022 1039.468c0 .741-.7 1.343-1.563 1.343s-1.563-.601-1.563-1.343c0-.741.7-1.343 1.563-1.343s1.563.601 1.563 1.343z" fill="#f1c40f"/></g><g style="text-align:end;line-height:125%;-inkscape-font-specification:Times New Roman" font-size="8" letter-spacing="0" word-spacing="0" text-anchor="end" fill="#ecf0f1" font-family="Times New Roman"><path style="text-align:end;line-height:125%;-inkscape-font-specification:Times New Roman" d="M-7.586 1037.229c-.456 0-.856.181-1.14.448h-.423v.896c0 .741.7 1.343 1.563 1.343s1.563-.601 1.563-1.343v-.896h-.423c-.284-.267-.684-.448-1.14-.448z" font-size="8" letter-spacing="0" word-spacing="0" text-anchor="end" fill="#f39c12" font-family="Times New Roman"/><path d="M-6.022 1037.678c0 .741-.7 1.343-1.563 1.343s-1.563-.601-1.563-1.343c0-.741.7-1.343 1.563-1.343s1.563.601 1.563 1.343z" fill="#f1c40f"/></g><g style="text-align:end;line-height:125%;-inkscape-font-specification:Times New Roman" font-size="8" letter-spacing="0" word-spacing="0" text-anchor="end" fill="#ecf0f1" font-family="Times New Roman"><path style="text-align:end;line-height:125%;-inkscape-font-specification:Times New Roman" d="M-3.935 1042.597c-.456 0-.856.181-1.14.448h-.423v.896c0 .741.7 1.343 1.563 1.343s1.563-.601 1.563-1.343v-.896h-.423c-.284-.267-.684-.448-1.14-.448z" font-size="8" letter-spacing="0" word-spacing="0" text-anchor="end" fill="#f39c12" font-family="Times New Roman"/><path d="M-2.372 1043.046c0 .741-.7 1.343-1.563 1.343s-1.563-.601-1.563-1.343c0-.741.7-1.343 1.563-1.343s1.563.601 1.563 1.343z" fill="#f1c40f"/></g><g style="text-align:end;line-height:125%;-inkscape-font-specification:Times New Roman" font-size="8" letter-spacing="0" word-spacing="0" text-anchor="end" fill="#ecf0f1" font-family="Times New Roman"><path style="text-align:end;line-height:125%;-inkscape-font-specification:Times New Roman" d="M-2.892 1041.702c-.456 0-.856.181-1.14.448h-.423v.896c0 .741.7 1.343 1.563 1.343s1.563-.601 1.563-1.343v-.896h-.423c-.284-.267-.684-.448-1.14-.448z" font-size="8" letter-spacing="0" word-spacing="0" text-anchor="end" fill="#f39c12" font-family="Times New Roman"/><path d="M-1.329 1042.151c0 .741-.7 1.343-1.563 1.343s-1.563-.601-1.563-1.343c0-.741.7-1.343 1.563-1.343s1.563.601 1.563 1.343z" fill="#f1c40f"/></g><g style="text-align:end;line-height:125%;-inkscape-font-specification:Times New Roman" font-size="8" letter-spacing="0" word-spacing="0" text-anchor="end" fill="#ecf0f1" font-family="Times New Roman"><path style="text-align:end;line-height:125%;-inkscape-font-specification:Times New Roman" d="M-7.586 1035.44c-.456 0-.856.181-1.14.448h-.423v.896c0 .741.7 1.343 1.563 1.343s1.563-.601 1.563-1.343v-.896h-.423c-.284-.267-.684-.448-1.14-.448z" font-size="8" letter-spacing="0" word-spacing="0" text-anchor="end" fill="#f39c12" font-family="Times New Roman"/><path d="M-6.022 1035.889c0 .741-.7 1.343-1.563 1.343s-1.563-.601-1.563-1.343c0-.741.7-1.343 1.563-1.343s1.563.601 1.563 1.343z" fill="#f1c40f"/></g></g></g></svg>