<svg xmlns="http://www.w3.org/2000/svg" width="24" height="24"><g transform="translate(0 -1028.362)"><rect width="1" height="16" x="4" y="1032.362" fill="#16a085"/><rect width="1" height="16" x="9" y="1032.362" fill="#16a085"/><path d="M3 1030.362c-1.105 0-2 .895-2 2v16c0 1.105.895 2 2 2h18c1.105 0 2-.895 2-2v-16c0-1.105-.895-2-2-2h-18z" fill="#16a085"/><path d="M3 1030.362c-1.105 0-2 .895-2 2v15c0 1.105.895 2 2 2h18c1.105 0 2-.895 2-2v-15c0-1.105-.895-2-2-2h-18z" fill="#1abc9c"/><path d="M10 1033.362l-2.563 6h-5.438v1h6.281l1.719-4 1.281 3 3 7 2.563-6h5.156v-1h-6l-1.719 4-1.719-4-2.563-6z" fill="#ecf0f1"/></g></svg>