<?xml version="1.0" encoding="UTF-8" standalone="no"?>
<svg xmlns:rdf="http://www.w3.org/1999/02/22-rdf-syntax-ns#" xmlns="http://www.w3.org/2000/svg" height="24" width="24" version="1.1" xmlns:cc="http://creativecommons.org/ns#" xmlns:dc="http://purl.org/dc/elements/1.1/">
 <g transform="translate(0 -1028.4)">
  <path d="m4 1c-1.1046 0-2 0.8954-2 2v3 11 3 1c0 1.105 0.8954 2 2 2h2 12 2c1.105 0 2-0.895 2-2v-1-3-11-3c0-1.1046-0.895-2-2-2h-2v3 15 1h-12v-1-15-3h-2zm-0.5 2h1c0.2761 0 0.5 0.2238 0.5 0.5v1c0 0.2762-0.2239 0.5-0.5 0.5h-1c-0.2761 0-0.5-0.2238-0.5-0.5v-1c0-0.2762 0.2239-0.5 0.5-0.5zm16 0h1c0.276 0 0.5 0.2238 0.5 0.5v1c0 0.2762-0.224 0.5-0.5 0.5h-1c-0.276 0-0.5-0.2238-0.5-0.5v-1c0-0.2762 0.224-0.5 0.5-0.5zm-16 3h1c0.2761 0 0.5 0.2238 0.5 0.5v1c0 0.2762-0.2239 0.5-0.5 0.5h-1c-0.2761 0-0.5-0.2238-0.5-0.5v-1c0-0.2762 0.2239-0.5 0.5-0.5zm16 0h1c0.276 0 0.5 0.2238 0.5 0.5v1c0 0.2762-0.224 0.5-0.5 0.5h-1c-0.276 0-0.5-0.2238-0.5-0.5v-1c0-0.2762 0.224-0.5 0.5-0.5zm-16 3h1c0.2761 0 0.5 0.2238 0.5 0.5v1c0 0.276-0.2239 0.5-0.5 0.5h-1c-0.2761 0-0.5-0.224-0.5-0.5v-1c0-0.2762 0.2239-0.5 0.5-0.5zm16 0h1c0.276 0 0.5 0.2238 0.5 0.5v1c0 0.276-0.224 0.5-0.5 0.5h-1c-0.276 0-0.5-0.224-0.5-0.5v-1c0-0.2762 0.224-0.5 0.5-0.5zm-16 3h1c0.2761 0 0.5 0.224 0.5 0.5v1c0 0.276-0.2239 0.5-0.5 0.5h-1c-0.2761 0-0.5-0.224-0.5-0.5v-1c0-0.276 0.2239-0.5 0.5-0.5zm16 0h1c0.276 0 0.5 0.224 0.5 0.5v1c0 0.276-0.224 0.5-0.5 0.5h-1c-0.276 0-0.5-0.224-0.5-0.5v-1c0-0.276 0.224-0.5 0.5-0.5zm-16 3h1c0.2761 0 0.5 0.224 0.5 0.5v1c0 0.276-0.2239 0.5-0.5 0.5h-1c-0.2761 0-0.5-0.224-0.5-0.5v-1c0-0.276 0.2239-0.5 0.5-0.5zm16 0h1c0.276 0 0.5 0.224 0.5 0.5v1c0 0.276-0.224 0.5-0.5 0.5h-1c-0.276 0-0.5-0.224-0.5-0.5v-1c0-0.276 0.224-0.5 0.5-0.5zm-16 3h1c0.2761 0 0.5 0.224 0.5 0.5v1c0 0.276-0.2239 0.5-0.5 0.5h-1c-0.2761 0-0.5-0.224-0.5-0.5v-1c0-0.276 0.2239-0.5 0.5-0.5zm16 0h1c0.276 0 0.5 0.224 0.5 0.5v1c0 0.276-0.224 0.5-0.5 0.5h-1c-0.276 0-0.5-0.224-0.5-0.5v-1c0-0.276 0.224-0.5 0.5-0.5z" transform="translate(0 1028.4)" fill="#2c3e50"/>
  <g fill="#e74c3c">
   <rect height="6" width="12" y="1044.4" x="6"/>
   <rect height="7" width="12" y="1029.4" x="6"/>
   <rect height="10" width="12" y="1035.4" x="6"/>
  </g>
  <rect transform="translate(0 1028.4)" height="21" width="12" y="1" x="6" fill="#34495e"/>
  <path d="m5 22 0.3397-20.196 17.32 10.392z" transform="matrix(.28312 0 0 .29709 8.5844 1036.8)" fill="#ecf0f1"/>
 </g>
</svg>
