<?xml version="1.0" encoding="UTF-8" standalone="no"?>
<svg xmlns:rdf="http://www.w3.org/1999/02/22-rdf-syntax-ns#" xmlns="http://www.w3.org/2000/svg" height="24" width="24" version="1.1" xmlns:cc="http://creativecommons.org/ns#" xmlns:dc="http://purl.org/dc/elements/1.1/">
 <g transform="translate(0 -1028.4)">
  <path d="m4 1030.4c-1.1046 0-2 0.9-2 2v3 11 3c0 1.1 0.8954 2 2 2h2 12 2c1.105 0 2-0.9 2-2v-3-11-3c0-1.1-0.895-2-2-2h-2-12-2z" fill="#2c3e50"/>
  <rect height="6" width="12" y="1044.4" x="6" fill="#16a085"/>
  <rect height="7" width="12" y="1029.4" x="6" fill="#16a085"/>
  <rect height="10" width="12" y="1035.4" x="6" fill="#1abc9c"/>
  <path d="m4 1029.4c-1.1046 0-2 0.9-2 2v3 11 3c0 1.1 0.8954 2 2 2h2v-3-15-3h-2z" fill="#34495e"/>
  <path d="m20 1029.4c1.105 0 2 0.9 2 2v3 11 3c0 1.1-0.895 2-2 2h-2v-3-15-3h2z" fill="#34495e"/>
  <path d="m3.5 1031.4c-0.2761 0-0.5 0.2-0.5 0.5v1c0 0.2 0.2239 0.5 0.5 0.5h1c0.2761 0 0.5-0.3 0.5-0.5v-1c0-0.3-0.2239-0.5-0.5-0.5h-1zm0 3c-0.2761 0-0.5 0.2-0.5 0.5v1c0 0.2 0.2239 0.5 0.5 0.5h1c0.2761 0 0.5-0.3 0.5-0.5v-1c0-0.3-0.2239-0.5-0.5-0.5h-1zm0 3c-0.2761 0-0.5 0.2-0.5 0.5v1c0 0.2 0.2239 0.5 0.5 0.5h1c0.2761 0 0.5-0.3 0.5-0.5v-1c0-0.3-0.2239-0.5-0.5-0.5h-1zm0 3c-0.2761 0-0.5 0.2-0.5 0.5v1c0 0.2 0.2239 0.5 0.5 0.5h1c0.2761 0 0.5-0.3 0.5-0.5v-1c0-0.3-0.2239-0.5-0.5-0.5h-1zm0 3c-0.2761 0-0.5 0.2-0.5 0.5v1c0 0.2 0.2239 0.5 0.5 0.5h1c0.2761 0 0.5-0.3 0.5-0.5v-1c0-0.3-0.2239-0.5-0.5-0.5h-1zm0 3c-0.2761 0-0.5 0.2-0.5 0.5v1c0 0.2 0.2239 0.5 0.5 0.5h1c0.2761 0 0.5-0.3 0.5-0.5v-1c0-0.3-0.2239-0.5-0.5-0.5h-1z" fill="#16a085"/>
  <path d="m19.5 1031.4c-0.276 0-0.5 0.2-0.5 0.5v1c0 0.2 0.224 0.5 0.5 0.5h1c0.276 0 0.5-0.3 0.5-0.5v-1c0-0.3-0.224-0.5-0.5-0.5h-1zm0 3c-0.276 0-0.5 0.2-0.5 0.5v1c0 0.2 0.224 0.5 0.5 0.5h1c0.276 0 0.5-0.3 0.5-0.5v-1c0-0.3-0.224-0.5-0.5-0.5h-1zm0 3c-0.276 0-0.5 0.2-0.5 0.5v1c0 0.2 0.224 0.5 0.5 0.5h1c0.276 0 0.5-0.3 0.5-0.5v-1c0-0.3-0.224-0.5-0.5-0.5h-1zm0 3c-0.276 0-0.5 0.2-0.5 0.5v1c0 0.2 0.224 0.5 0.5 0.5h1c0.276 0 0.5-0.3 0.5-0.5v-1c0-0.3-0.224-0.5-0.5-0.5h-1zm0 3c-0.276 0-0.5 0.2-0.5 0.5v1c0 0.2 0.224 0.5 0.5 0.5h1c0.276 0 0.5-0.3 0.5-0.5v-1c0-0.3-0.224-0.5-0.5-0.5h-1zm0 3c-0.276 0-0.5 0.2-0.5 0.5v1c0 0.2 0.224 0.5 0.5 0.5h1c0.276 0 0.5-0.3 0.5-0.5v-1c0-0.3-0.224-0.5-0.5-0.5h-1z" fill="#16a085"/>
  <path d="m5 22 0.3397-20.196 17.32 10.392z" transform="matrix(.28312 0 0 .29709 8.5844 1036.8)" fill="#ecf0f1"/>
 </g>
</svg>
