<svg xmlns="http://www.w3.org/2000/svg" width="24" height="24"><path d="M1 11v9c0 1.105.895 2 2 2h19c1.105 0 2-.895 2-2v-9h-23z" fill="#95a5a6"/><path d="M0 2v19c0 1.105.895 2 2 2h19c1.105 0 2-.895 2-2v-19h-23z" fill="#bdc3c7"/><path d="M2 4v5h1v-3l2 3h1v-5h-1v3l-2-3h-1zm5 0v5h4v-1h-3v-1h2v-1h-2v-1h3v-1h-4zm5 0v5h1l1-2 1 2h1v-5h-1v3l-1-2-1 2v-3h-1zm6.5 0c-.828 0-1.5.672-1.5 1.5s.672 1.5 1.5 1.5h1c.276 0 .5.224.5.5s-.224.5-.5.5h-2.5v1h2.5c.828 0 1.5-.672 1.5-1.5s-.672-1.5-1.5-1.5h-1c-.276 0-.5-.224-.5-.5s.224-.5.5-.5h2.5v-1h-2.5z" fill="#7f8c8d"/><rect width="9" height="7" x="2" y="11" fill="#95a5a6"/><rect width="9" height="1" x="12" y="15" fill="#95a5a6"/><rect width="9" height="1" x="2" y="19" fill="#95a5a6"/><rect width="9" height="1" x="12" y="17" fill="#95a5a6"/><rect width="9" height="1" x="12" y="13" fill="#95a5a6"/><rect width="9" height="1" x="12" y="11" fill="#95a5a6"/><path d="M0 20v1c0 1.105.895 2 2 2h19c1.105 0 3-.895 3-2v-1c0 1.105-1.895 2-3 2h-19c-1.105 0-2-.895-2-2z" fill="#95a5a6"/><rect width="9" height="1" x="12" y="19" fill="#95a5a6"/></svg>