<svg xmlns="http://www.w3.org/2000/svg" width="24" height="24"><g transform="translate(0 -1028.362)"><path d="M5 1030.362c-1.105 0-2 .895-2 2v18c0 1.105.895 2 2 2h14c1.105 0 2-.895 2-2v-18c0-1.105-.895-2-2-2h-14z" fill="#bdc3c7"/><path d="M6 1028.362c-.552 0-1 .448-1 1v3c0 .552.448 1 1 1s1-.448 1-1v-3c0-.552-.448-1-1-1zm4 0c-.552 0-1 .448-1 1v3c0 .552.448 1 1 1s1-.448 1-1v-3c0-.552-.448-1-1-1zm4 0c-.552 0-1 .448-1 1v3c0 .552.448 1 1 1s1-.448 1-1v-3c0-.552-.448-1-1-1zm4 0c-.552 0-1 .448-1 1v3c0 .552.448 1 1 1s1-.448 1-1v-3c0-.552-.448-1-1-1z" fill="#95a5a6"/><rect width="12" height="1" x="6" y="1043.362" fill="#95a5a6"/><rect width="12" height="1" x="6" y="1040.362" fill="#95a5a6"/><rect width="12" height="1" x="6" y="1037.362" fill="#95a5a6"/><rect width="4" height="1" x="6" y="18" transform="translate(0 1028.362)" fill="#95a5a6"/><path d="M5 1032.362c0 .552.448 1 1 1s1-.448 1-1h-2zm4 0c0 .552.448 1 1 1s1-.448 1-1h-2zm4 0c0 .552.448 1 1 1s1-.448 1-1h-2zm4 0c0 .552.448 1 1 1s1-.448 1-1h-2z" fill="#7f8c8d"/><path d="M3 1049.362v1c0 1.105.895 2 2 2h14c1.105 0 2-.895 2-2v-1c0 1.105-.895 2-2 2h-14c-1.105 0-2-.895-2-2z" fill="#95a5a6"/><g transform="matrix(.707 .707 -.707 .707 773.224 370.405)"><path d="M-63 1003.362v13.001000000000001l2 2 2-2v-13.001000000000001h-4z" fill="#ecf0f1"/><path d="M-61 1003.362v15l2-2v-13.001000000000001h-2z" fill="#bdc3c7"/><rect width="4" height="11" x="-63" y="1004.362" fill="#e67e22"/><path d="M-61 1000.362c-1.105 0-2 .895-2 2v1h4v-1c0-1.105-.895-2-2-2z" fill="#7f8c8d"/><g><path d="M-62.406 1016.956l1.406 1.406 1.406-1.406h-2.812z" fill="#34495e"/><path d="M-61 1016.956v1.406l1.406-1.406h-1.406z" fill="#2c3e50"/></g><path d="M-61 1000.362c-1.105 0-2 .895-2 2v1h2v-3z" fill="#95a5a6"/><rect width="2" height="11" x="-61" y="1004.362" fill="#d35400"/></g></g></svg>