<?xml version="1.0" encoding="UTF-8" standalone="no"?>
<svg xmlns:rdf="http://www.w3.org/1999/02/22-rdf-syntax-ns#" xmlns="http://www.w3.org/2000/svg" height="24" width="24" version="1.1" xmlns:cc="http://creativecommons.org/ns#" xmlns:dc="http://purl.org/dc/elements/1.1/">
 <g transform="translate(0 -1028.4)">
  <g fill="#95a5a6" transform="matrix(1.794 0 0 -1.794 -.73496 2900)">
   <path fill="#95a5a6" d="m12.977 1040.2c0 0.6-0.206 1.1-0.618 1.5-0.411 0.4-0.922 0.6-1.531 0.6-0.703 0-1.315-0.2-1.8358-0.8l-6.0703-6c-0.5886-0.6-0.8828-1.3-0.8828-2.1 0-0.9 0.2864-1.6 0.8593-2.1 0.573-0.6 1.2735-0.9 2.1016-0.9 0.8229 0 1.5338 0.3 2.1328 0.9l4.7262 4.7c0.052 0.1 0.078 0.1 0.079 0.2-0.001 0.1-0.081 0.2-0.243 0.3-0.156 0.2-0.276 0.3-0.359 0.3-0.068 0-0.128 0-0.18-0.1l-4.7341-4.7c-0.4115-0.4-0.8828-0.6-1.4141-0.6-0.5521 0-1.0182 0.2-1.3984 0.5-0.3802 0.4-0.5703 0.9-0.5703 1.5 0 0.5 0.1979 1 0.5937 1.4l6.0625 6c0.3277 0.4 0.7057 0.5 1.1327 0.5 0.333 0 0.609-0.1 0.828-0.3s0.328-0.5 0.328-0.8c0-0.4-0.164-0.8-0.492-1.2l-4.5389-4.5c-0.1354-0.1-0.2916-0.2-0.4687-0.2-0.1511 0-0.2761 0.1-0.375 0.2-0.099 0.1-0.1485 0.2-0.1485 0.3 0 0.2 0.0651 0.4 0.1953 0.5l3.2032 3.2c0.0521 0.1 0.0781 0.1 0.0781 0.2s-0.0807 0.2-0.2422 0.3c-0.1615 0.2-0.2838 0.3-0.3672 0.3-0.0625 0-0.1198 0-0.1719-0.1l-3.2031-3.2c-0.3281-0.3-0.4922-0.7-0.4922-1.2 0-0.4 0.1485-0.7 0.4453-1 0.2969-0.3 0.6589-0.5 1.086-0.5 0.4583 0 0.8463 0.2 1.164 0.5l4.5388 4.5c0.521 0.6 0.782 1.2 0.782 1.9"/>
  </g>
  <g fill="#bdc3c7" transform="matrix(1.794 0 0 -1.794 -1.0138 2899.2)">
   <path fill="#bdc3c7" d="m12.977 1040.2c0 0.6-0.206 1.1-0.618 1.5-0.411 0.4-0.922 0.6-1.531 0.6-0.703 0-1.315-0.2-1.8358-0.8l-6.0703-6c-0.5886-0.6-0.8828-1.3-0.8828-2.1 0-0.9 0.2864-1.6 0.8593-2.1 0.573-0.6 1.2735-0.9 2.1016-0.9 0.8229 0 1.5338 0.3 2.1328 0.9l4.7262 4.7c0.052 0.1 0.078 0.1 0.079 0.2-0.001 0.1-0.081 0.2-0.243 0.3-0.156 0.2-0.276 0.3-0.359 0.3-0.068 0-0.128 0-0.18-0.1l-4.7341-4.7c-0.4115-0.4-0.8828-0.6-1.4141-0.6-0.5521 0-1.0182 0.2-1.3984 0.5-0.3802 0.4-0.5703 0.9-0.5703 1.5 0 0.5 0.1979 1 0.5937 1.4l6.0625 6c0.3277 0.4 0.7057 0.5 1.1327 0.5 0.333 0 0.609-0.1 0.828-0.3s0.328-0.5 0.328-0.8c0-0.4-0.164-0.8-0.492-1.2l-4.5389-4.5c-0.1354-0.1-0.2916-0.2-0.4687-0.2-0.1511 0-0.2761 0.1-0.375 0.2-0.099 0.1-0.1485 0.2-0.1485 0.3 0 0.2 0.0651 0.4 0.1953 0.5l3.2032 3.2c0.0521 0.1 0.0781 0.1 0.0781 0.2s-0.0807 0.2-0.2422 0.3c-0.1615 0.2-0.2838 0.3-0.3672 0.3-0.0625 0-0.1198 0-0.1719-0.1l-3.2031-3.2c-0.3281-0.3-0.4922-0.7-0.4922-1.2 0-0.4 0.1485-0.7 0.4453-1 0.2969-0.3 0.6589-0.5 1.086-0.5 0.4583 0 0.8463 0.2 1.164 0.5l4.5388 4.5c0.521 0.6 0.782 1.2 0.782 1.9"/>
  </g>
 </g>
</svg>
