<?xml version="1.0" encoding="UTF-8" standalone="no"?>
<svg xmlns:rdf="http://www.w3.org/1999/02/22-rdf-syntax-ns#" xmlns="http://www.w3.org/2000/svg" height="24" width="24" version="1.1" xmlns:cc="http://creativecommons.org/ns#" xmlns:dc="http://purl.org/dc/elements/1.1/">
 <g transform="translate(0 -1028.4)">
  <path d="m20.828 1031.5c-1.554-1.5-4.07-1.5-5.634 0h-0.022l-2.122 2.2-1.436 1.4-6.6955 6.7c-2.1479 2.1-2.1479 5.6 0 7.8 2.1479 2.1 5.6305 2.1 7.7785 0l8.131-8.2-1.414-1.4-6.364 6.4-1.414 1.4-0.243 0.2c-0.037 0.1-0.072 0.1-0.111 0.2-1.4327 1.3-3.6178 1.3-4.9493 0-1.3314-1.4-1.3226-3.6 0-5l0.1105-0.1 0.2431-0.3 1.4142-1.4 4.9275-4.9 1.127-1.1 0.309-0.3 2.122-2.2h0.022c0.783-0.7 2.033-0.7 2.806 0 0.774 0.8 0.781 2.1 0.022 2.9h-0.022l-2.43 2.4-1.812 1.8-0.708 0.7-1.48 1.5-1.702 1.7c-0.195 0.2-0.511 0.2-0.707 0-0.195-0.2-0.195-0.5 0-0.7l1.702-1.7 1.48-1.5 0.707-0.7 2.122-2.1-1.414-1.4-2.122 2.1-0.707 0.7-3.1818 3.2h-0.0222c-0.9656 1-0.9541 2.5 0.0222 3.5 0.9758 1 2.5478 1 3.5138 0h0.022l1.06-1 2.829-2.9 4.242-4.2h0.022c1.541-1.6 1.533-4.1-0.022-5.7z" fill="#95a5a6"/>
  <path d="m18.035 1030.4c-1.019 0-2.062 0.3-2.844 1.1l-2.125 2.1-1.438 1.5-6.6872 6.7c-2.1479 2.1-2.1479 5.6 0 7.7 1.1925 1.2 2.7854 1.8 4.3438 1.6-1.2271-0.1-2.4041-0.6-3.3438-1.6-2.1479-2.1-2.1479-5.6 0-7.7l6.6872-6.7 1.438-1.5 2.125-2.1c0.657-0.6 1.492-1 2.344-1.1h-0.5zm1 2h-0.532c0.338 0.1 0.643 0.3 0.907 0.6 0.773 0.7 0.79 2 0.031 2.8h-0.031l-2.407 2.4-1.812 1.8-0.719 0.7-1.469 1.5-1.531 1.5c0.024 0.1 0.076 0.1 0.125 0.2 0.195 0.2 0.492 0.2 0.688 0l1.718-1.7 1.469-1.5 0.719-0.7 1.812-1.8 2.407-2.4h0.031c0.759-0.8 0.742-2.1-0.031-2.8-0.387-0.4-0.868-0.6-1.375-0.6zm-3.844 3.4-2.125 2.1-0.719 0.7-3.1874 3.2c-0.9657 1-0.9763 2.6 0 3.5 0.6102 0.6 1.4684 0.9 2.2504 0.7-0.46-0.1-0.892-0.3-1.25-0.7-0.9767-0.9-0.9661-2.5 0-3.5l3.187-3.2 0.719-0.7 1.625-1.6-0.5-0.5zm4.219 4.2-6.344 6.4-1.406 1.4-0.25 0.2c-0.037 0.1-0.087 0.1-0.125 0.1-0.58 0.6-1.281 0.9-2.0004 1 1.0474 0.1 2.1464-0.2 3.0004-1 0.038 0 0.088 0 0.125-0.1l0.25-0.2 1.406-1.4 5.844-5.9-0.5-0.5z" fill="#bdc3c7"/>
  <path d="m-51.172 1024.5c-1.554-1.5-4.07-1.5-5.634 0h-0.022l-2.122 2.2-1.436 1.4-6.695 6.7c-2.148 2.1-2.148 5.6 0 7.8 2.147 2.1 5.63 2.1 7.778 0l8.131-8.2-1.414-1.4-6.364 6.4-1.414 1.4-0.243 0.2c-0.037 0.1-0.072 0.1-0.111 0.2-1.433 1.3-3.618 1.3-4.949 0-1.332-1.4-1.323-3.6 0-5l0.11-0.1 0.243-0.3 1.415-1.4 4.927-4.9 1.127-1.1 0.309-0.3 2.122-2.2h0.022c0.783-0.7 2.033-0.7 2.806 0 0.774 0.8 0.781 2.1 0.022 2.9h-0.022l-2.43 2.4-1.812 1.8-0.708 0.7-1.48 1.5-1.702 1.7c-0.195 0.2-0.511 0.2-0.707 0-0.195-0.2-0.195-0.5 0-0.7l1.702-1.7 1.48-1.5 0.707-0.7 2.122-2.1-1.414-1.4-2.122 2.1-0.707 0.7-3.182 3.2h-0.022c-0.966 1-0.954 2.5 0.022 3.5s2.548 1 3.514 0h0.022l1.06-1 2.829-2.9 4.242-4.2h0.022c1.541-1.6 1.533-4.1-0.022-5.7z" fill="#d35400"/>
  <path d="m-50.479 1025.3c-1.555-1.5-4.071-1.5-5.635 0h-0.022l-2.121 2.2-1.437 1.4-6.695 6.7c-2.148 2.1-2.148 5.6 0 7.8 2.148 2.1 5.63 2.1 7.778 0l8.132-8.2-1.414-1.4-6.364 6.4-1.415 1.4-0.243 0.3c-0.037 0-0.072 0-0.11 0.1-1.433 1.3-3.618 1.3-4.95 0-1.331-1.4-1.323-3.6 0-5l0.111-0.1 0.243-0.2 1.414-1.5 4.928-4.9 1.127-1.1 0.309-0.3 2.121-2.1 0.022-0.1c0.783-0.7 2.033-0.7 2.807 0.1 0.773 0.7 0.781 2 0.022 2.8h-0.022l-2.431 2.4-1.812 1.8-0.707 0.7-1.481 1.5-1.701 1.7c-0.195 0.2-0.512 0.2-0.707 0s-0.196-0.5 0-0.7l1.701-1.7 1.481-1.5 0.707-0.7 2.121-2.1-1.414-1.4-2.121 2.1-0.707 0.7-3.182 3.2h-0.023c-0.965 1-0.954 2.6 0.023 3.5 0.976 1 2.547 1 3.513 0.1 0.007 0 0.015-0.1 0.022-0.1l1.061-1 2.828-2.9 4.243-4.2h0.022c1.54-1.6 1.533-4.1-0.022-5.7z" fill="#8e44ad"/>
 </g>
</svg>
