<?xml version="1.0" encoding="UTF-8" standalone="no"?>
<svg xmlns:rdf="http://www.w3.org/1999/02/22-rdf-syntax-ns#" xmlns="http://www.w3.org/2000/svg" height="24" width="24" version="1.1" xmlns:cc="http://creativecommons.org/ns#" xmlns:dc="http://purl.org/dc/elements/1.1/">
 <g transform="translate(0 -1028.4)">
  <g transform="matrix(1.794 0 0 -1.794 -1.2794 2899.3)" fill="#bdc3c7">
   <path fill="#bdc3c7" d="m12.977 1040.2c0 0.6-0.206 1.1-0.618 1.5-0.411 0.4-0.922 0.6-1.531 0.6-0.703 0-1.315-0.2-1.8358-0.8l-6.0703-6c-0.5886-0.6-0.8828-1.3-0.8828-2.1 0-0.9 0.2864-1.6 0.8593-2.1 0.573-0.6 1.2735-0.9 2.1016-0.9 0.8229 0 1.5338 0.3 2.1328 0.9l4.7262 4.7c0.052 0.1 0.078 0.1 0.079 0.2-0.001 0.1-0.081 0.2-0.243 0.3-0.156 0.2-0.276 0.3-0.359 0.3-0.068 0-0.128 0-0.18-0.1l-4.7341-4.7c-0.4115-0.4-0.8828-0.6-1.4141-0.6-0.5521 0-1.0182 0.2-1.3984 0.5-0.3802 0.4-0.5703 0.9-0.5703 1.5 0 0.5 0.1979 1 0.5937 1.4l6.0625 6c0.3277 0.4 0.7057 0.5 1.1327 0.5 0.333 0 0.609-0.1 0.828-0.3s0.328-0.5 0.328-0.8c0-0.4-0.164-0.8-0.492-1.2l-4.5389-4.5c-0.1354-0.1-0.2916-0.2-0.4687-0.2-0.1511 0-0.2761 0.1-0.375 0.2-0.099 0.1-0.1485 0.2-0.1485 0.3 0 0.2 0.0651 0.4 0.1953 0.5l3.2032 3.2c0.0521 0.1 0.0781 0.1 0.0781 0.2s-0.0807 0.2-0.2422 0.3c-0.1615 0.2-0.2838 0.3-0.3672 0.3-0.0625 0-0.1198 0-0.1719-0.1l-3.2031-3.2c-0.3281-0.3-0.4922-0.7-0.4922-1.2 0-0.4 0.1485-0.7 0.4453-1 0.2969-0.3 0.6589-0.5 1.086-0.5 0.4583 0 0.8463 0.2 1.164 0.5l4.5388 4.5c0.521 0.6 0.782 1.2 0.782 1.9"/>
  </g>
  <path fill="#95a5a6" d="m17.93 1030.3c-0.332 0-0.665 0.1-0.937 0.2-0.831 0.2-0.725 0.1-6.906 6.4-3.5116 3.5-5.7378 5.8-5.8753 6-0.196 0.3-0.4687 0.8-0.4687 0.9 0 0 0.1624 0.1 0.3437 0.2 0.1813 0 0.3303 0.1 0.3438 0.1s0.0905-0.1 0.1562-0.2c0.0658-0.1 0.2173-0.4 0.3438-0.5 0.1265-0.2 2.7814-2.9 5.9065-6 6.065-6.1 5.812-5.9 6.5-6.1 0.561-0.2 1.24-0.2 1.75 0.1 0.292 0.1 0.774 0.6 0.875 0.8 0.035 0.1 0.069 0.2 0.093 0.2 0.025 0 0.218-0.1 0.407-0.2l0.343-0.2-0.125-0.2c-0.399-0.7-1.043-1.2-1.843-1.4-0.255-0.1-0.574-0.1-0.907-0.1zm2.938 4.4c-0.007 0-0.046 0.1-0.094 0.2-0.047 0.1-0.201 0.3-0.344 0.5-0.389 0.5-8.806 8.9-9.062 9.1-0.971 0.4-2.0826 0.2-2.625-0.7l-0.125-0.2-0.3438 0.2c-0.188 0.1-0.3656 0.1-0.375 0.2-0.0546 0 0.3203 0.6 0.5938 0.8 0.3625 0.4 0.8044 0.6 1.2812 0.7 0.6518 0.2 1.3178 0.1 1.9378-0.2 0.349-0.2 0.52-0.4 4.125-4 4.401-4.4 5.179-5.2 5.468-5.8 0.311-0.5 0.338-0.5-0.062-0.7-0.193-0.1-0.368-0.1-0.375-0.1zm-6.313 1.3-2.75 2.7c-1.746 1.8-2.8207 2.9-2.9058 3.1-0.074 0.1-0.1349 0.2-0.125 0.2 0.01 0 0.187 0.1 0.375 0.2l0.3438 0.2 0.0625-0.1c0.0384-0.1 1.3975-1.5 3.0315-3.1 1.633-1.7 2.968-3.1 2.968-3.1 0-0.1-0.249-0.1-0.625-0.1h-0.375zm4.5 4.4-4.031 4.1c-2.228 2.3-4.249 4.3-4.469 4.5-0.442 0.3-1.2039 0.7-1.6558 0.9-1.3065 0.3-2.6951 0.1-3.7187-0.7-0.6169-0.4-1.3758-1.3-1.5313-1.8l-0.0625-0.2-0.3437 0.2c-0.1997 0.1-0.3754 0.2-0.375 0.2 0.0012 0.1 0.3969 0.8 0.5937 1.1 0.9378 1.2 2.1327 1.9 3.6875 2.1 0.5544 0.1 1.4108 0 2.0313-0.1 0.5085-0.2 1.2625-0.6 1.7185-0.9 0.222-0.2 2.239-2.2 4.781-4.8 4.947-4.9 4.581-4.5 3.813-4.5l-0.438-0.1z"/>
 </g>
</svg>
