<svg xmlns="http://www.w3.org/2000/svg" width="24" height="24"><g transform="translate(0 -1028.362)"><path d="M20.828 1031.534c-1.555-1.555-4.071-1.562-5.635-.022l-.022.022-2.121 2.121-1.436 1.436-6.695 6.695c-2.148 2.148-2.148 5.63 0 7.778 2.148 2.148 5.63 2.148 7.778 0l8.132-8.132-1.414-1.414-6.364 6.364-1.414 1.414-.243.243-.11.111c-1.433 1.323-3.618 1.332-4.95 0-1.331-1.331-1.323-3.517 0-4.95l.11-.11.243-.243 1.414-1.414 4.928-4.928 1.127-1.127.309-.309 2.121-2.121.022-.022c.783-.759 2.033-.751 2.806.022.774.774.781 2.024.022 2.806l-.022.022-2.431 2.431-1.812 1.812-.707.707-1.481 1.48-1.701 1.701c-.195.195-.512.195-.707 0-.195-.195-.195-.512 0-.707l1.701-1.701 1.481-1.481.707-.707 2.121-2.121-1.414-1.414-2.121 2.121-.707.707-3.182 3.182-.022.022c-.966.966-.954 2.537.022 3.513s2.548.988 3.513.022l.022-.022 1.061-1.061 2.828-2.828 4.243-4.243.022-.022c1.54-1.564 1.533-4.08-.022-5.635z" fill="#95a5a6"/></g></svg>