<svg xmlns="http://www.w3.org/2000/svg" width="24" height="24"><g transform="matrix(1.061 1.061 -1.061 1.061 1146.836 -993.436)"><path d="M-63 1003.362v13.001000000000001l2 2 2-2v-13.001000000000001h-4z" fill="#ecf0f1"/><path d="M-61 1003.362v15l2-2v-13.001000000000001h-2z" fill="#bdc3c7"/><rect width="4" height="11" x="-63" y="1004.362" fill="#e67e22"/><path d="M-61 1000.362c-1.105 0-2 .895-2 2v1h4v-1c0-1.105-.895-2-2-2z" fill="#7f8c8d"/><g><path d="M-62.406 1016.956l1.406 1.406 1.406-1.406h-2.812z" fill="#34495e"/><path d="M-61 1016.956v1.406l1.406-1.406h-1.406z" fill="#2c3e50"/></g><path d="M-61 1000.362c-1.105 0-2 .895-2 2v1h2v-3z" fill="#95a5a6"/><rect width="2" height="11" x="-61" y="1004.362" fill="#d35400"/></g></svg>