<svg xmlns="http://www.w3.org/2000/svg" width="24" height="24"><g font-size="14" letter-spacing="0" word-spacing="0" text-anchor="end" font-family="Wingdings"><path style="text-align:end;line-height:125%;-inkscape-font-specification:Wingdings" d="M23.015 18.407c0 .282-.052.652-.156 1.111-.104.449-.214.804-.328 1.064-.219.522-.855 1.075-1.908 1.659-.98.532-1.949.798-2.908.798-.281 0-.558-.016-.829-.047-.261-.042-.558-.11-.891-.203l-.751-.219-.86-.329-.766-.282c-1.022-.365-1.934-.798-2.736-1.299-1.334-.825-2.715-1.947-4.143-3.366-1.418-1.43-2.538-2.813-3.362-4.148-.5-.804-.933-1.717-1.298-2.739l-.281-.767-.328-.861-.219-.751c-.094-.334-.162-.631-.203-.892-.031-.271-.047-.548-.047-.83 0-.96.266-1.93.797-2.911.584-1.054 1.136-1.691 1.657-1.91.261-.114.615-.224 1.063-.328.459-.104.829-.157 1.11-.157.146 0 .255.016.328.047.188.063.464.459.829 1.19.115.198.271.48.469.845l.547 1.002.485.83.266.391c.156.219.271.407.344.563.073.146.109.292.109.438 0 .209-.151.47-.453.783-.292.313-.615.6-.969.861-.344.261-.667.537-.969.83-.292.292-.438.532-.438.72 0 .094.026.214.078.36l.125.313.219.376.188.297c.792 1.43 1.699 2.656 2.721 3.679 1.022 1.023 2.246 1.931 3.674 2.724l.297.188.375.219.313.125c.146.052.266.078.36.078.188 0 .427-.146.719-.438.292-.303.568-.626.829-.971.261-.355.547-.678.86-.971.313-.303.573-.454.782-.454.146 0 .292.036.438.109.156.073.344.188.563.344l.391.266.829.485 1.001.548c.365.198.646.355.844.469.73.365 1.126.642 1.188.83.031.073.047.183.047.329" fill="#e74c3c"/><path style="text-align:end;line-height:125%;-inkscape-font-specification:Wingdings" d="M1.219 4.75c-.145.508-.219 1.029-.219 1.531 0 .282.031.541.063.813.042.261.094.572.188.906l.219.75c.063.156.187.457.344.875l.281.75c.365 1.023.781 1.946 1.281 2.75.823 1.336 1.957 2.695 3.375 4.125 1.428 1.419 2.791 2.55 4.125 3.375.803.501 1.728.947 2.75 1.313l.75.281.875.313.75.219c.334.094.614.177.875.219.271.031.562.031.844.031.959 0 1.926-.249 2.906-.781 1.053-.584 1.687-1.134 1.906-1.656.115-.261.208-.614.313-1.063.104-.459.156-.843.156-1.125 0-.146 0-.271-.031-.344-.037-.111-.227-.263-.5-.438-.252.494-.853 1.013-1.844 1.563-.98.532-1.947.813-2.906.813-.281 0-.573-.031-.844-.063-.261-.042-.541-.094-.875-.188l-.75-.219c-.156-.063-.458-.187-.875-.344l-.75-.281c-1.022-.365-1.947-.78-2.75-1.281-1.334-.825-2.697-1.956-4.125-3.375-1.418-1.43-2.552-2.821-3.375-4.156-.5-.804-.916-1.696-1.281-2.719-.031-.094-.125-.364-.281-.781-.156-.418-.281-.687-.344-.844l-.219-.75-.031-.219z" fill="#c0392b"/></g></svg>