<?xml version="1.0" encoding="UTF-8" standalone="no"?>
<svg xmlns:rdf="http://www.w3.org/1999/02/22-rdf-syntax-ns#" xmlns="http://www.w3.org/2000/svg" height="24" width="24" version="1.1" xmlns:cc="http://creativecommons.org/ns#" xmlns:dc="http://purl.org/dc/elements/1.1/">
 <g transform="translate(0 -1028.4)">
  <path d="m23.015 1046.8c0 0.3-0.052 0.6-0.156 1.1-0.105 0.4-0.214 0.8-0.329 1-0.219 0.6-0.855 1.1-1.907 1.7-0.98 0.5-1.95 0.8-2.909 0.8h-0.828c-0.261-0.1-0.558-0.2-0.892-0.2-0.333-0.1-0.583-0.2-0.75-0.3-0.156 0-0.443-0.1-0.86-0.3s-0.672-0.2-0.766-0.3c-1.022-0.3-1.934-0.8-2.736-1.3-1.3346-0.8-2.7157-1.9-4.1438-3.3-1.4176-1.5-2.5381-2.9-3.3616-4.2-0.5003-0.8-0.9329-1.7-1.2977-2.7-0.0313-0.1-0.1251-0.4-0.2815-0.8-0.1563-0.4-0.2658-0.7-0.3283-0.9-0.0522-0.1-0.1251-0.4-0.2189-0.7s-0.1616-0.6-0.2033-0.9c-0.0313-0.3-0.0469-0.5-0.0469-0.8 0-1 0.2658-2 0.7974-2.9 0.5837-1.1 1.1362-1.7 1.6574-2 0.2606-0.1 0.615-0.2 1.0632-0.3 0.4586-0.1 0.8287-0.1 1.1101-0.1h0.3284c0.1876 0.1 0.4638 0.5 0.8287 1.2 0.1146 0.2 0.271 0.5 0.469 0.8 0.1981 0.4 0.3805 0.7 0.5473 1 0.1667 0.3 0.3283 0.6 0.4847 0.9 0.0312 0 0.1198 0.1 0.2658 0.4 0.1563 0.2 0.271 0.4 0.344 0.5 0.0729 0.2 0.1094 0.3 0.1094 0.5s-0.1511 0.4-0.4534 0.8c-0.2919 0.3-0.615 0.6-0.9694 0.8-0.344 0.3-0.6672 0.5-0.9694 0.8-0.2919 0.3-0.4378 0.6-0.4378 0.8 0 0.1 0.026 0.2 0.0781 0.3 0.0522 0.2 0.0939 0.3 0.1251 0.3 0.0417 0.1 0.1147 0.2 0.2189 0.4 0.1147 0.2 0.1772 0.3 0.1877 0.3 0.7922 1.4 1.699 2.7 2.7205 3.7 1.0213 1 2.2463 1.9 3.6743 2.7 0.021 0 0.12 0.1 0.297 0.2s0.302 0.2 0.375 0.2 0.178 0.1 0.313 0.1c0.146 0.1 0.266 0.1 0.36 0.1 0.187 0 0.427-0.1 0.719-0.4s0.568-0.6 0.829-1c0.26-0.3 0.547-0.7 0.86-1 0.312-0.3 0.573-0.4 0.781-0.4 0.146 0 0.292 0 0.438 0.1 0.157 0.1 0.344 0.2 0.563 0.3 0.219 0.2 0.349 0.3 0.391 0.3 0.261 0.2 0.537 0.3 0.829 0.5 0.302 0.2 0.635 0.3 1 0.5s0.647 0.4 0.845 0.5c0.729 0.4 1.125 0.7 1.188 0.8 0.031 0.1 0.047 0.2 0.047 0.4" fill="#e74c3c"/>
  <path fill="#c0392b" d="m8.0625 1032.9c-0.1515 0.1-0.3036 0.2-0.4687 0.3-0.344 0.3-0.6665 0.6-0.9688 0.9-0.2919 0.3-0.4375 0.5-0.4375 0.7 0 0.1 0.0104 0.2 0.0625 0.3 0.0521 0.2 0.0937 0.3 0.125 0.4 0.0417 0 0.1145 0.2 0.2188 0.3 0.1146 0.2 0.177 0.3 0.1874 0.3 0.1039 0.2 0.236 0.4 0.3438 0.6 0.1564-0.2 0.3027-0.3 0.4688-0.4 0.3543-0.3 0.6768-0.6 0.9687-0.9 0.3023-0.3 0.4375-0.5 0.4375-0.8 0-0.1-0.0208-0.2-0.0938-0.4-0.0729-0.2-0.1874-0.3-0.3437-0.6-0.1459-0.2-0.25-0.3-0.2813-0.4-0.0723-0.1-0.1441-0.2-0.2187-0.3zm-6.8437 0.2c-0.1453 0.5-0.2188 1-0.2188 1.5 0 0.3 0.0312 0.6 0.0625 0.9 0.0417 0.2 0.0937 0.5 0.1875 0.9 0.0938 0.3 0.1666 0.5 0.2188 0.7 0.0625 0.2 0.1873 0.5 0.3437 0.9s0.25 0.6 0.2813 0.7c0.3648 1.1 0.7809 2 1.2812 2.8 0.8235 1.3 1.9574 2.7 3.375 4.1 1.428 1.4 2.7908 2.6 4.125 3.4 0.803 0.5 1.728 0.9 2.75 1.3 0.094 0 0.333 0.1 0.75 0.3 0.417 0.1 0.719 0.2 0.875 0.3 0.167 0 0.416 0.1 0.75 0.2s0.614 0.2 0.875 0.2c0.271 0.1 0.562 0.1 0.844 0.1 0.959 0 1.926-0.3 2.906-0.8 1.053-0.6 1.687-1.2 1.906-1.7 0.115-0.2 0.208-0.6 0.313-1 0.104-0.5 0.156-0.9 0.156-1.2 0-0.1 0-0.2-0.031-0.3-0.037-0.1-0.227-0.3-0.5-0.4-0.253 0.5-0.853 1-1.844 1.5-0.98 0.6-1.947 0.8-2.906 0.8h-0.844c-0.261-0.1-0.541-0.1-0.875-0.2s-0.583-0.2-0.75-0.2c-0.156-0.1-0.458-0.2-0.875-0.4-0.417-0.1-0.656-0.2-0.75-0.3-1.022-0.3-1.947-0.7-2.75-1.2-1.3342-0.9-2.697-2-4.125-3.4-1.4176-1.4-2.5515-2.8-3.375-4.2-0.5003-0.8-0.9164-1.7-1.2812-2.7-0.0313-0.1-0.1249-0.4-0.2813-0.8s-0.2812-0.7-0.3437-0.8c-0.0522-0.2-0.125-0.4-0.2188-0.8-0.0224 0-0.0119-0.1-0.0312-0.2z"/>
 </g>
</svg>
