<?xml version="1.0" encoding="UTF-8" standalone="no"?>
<svg xmlns:rdf="http://www.w3.org/1999/02/22-rdf-syntax-ns#" xmlns="http://www.w3.org/2000/svg" height="24" width="24" version="1.1" xmlns:cc="http://creativecommons.org/ns#" xmlns:dc="http://purl.org/dc/elements/1.1/">
 <g transform="translate(0 -1028.4)">
  <path d="m5 1030.4c-1.1046 0-2 0.9-2 2v8 4 6c0 1.1 0.8954 2 2 2h14c1.105 0 2-0.9 2-2v-6-4-4-4c0-1.1-0.895-2-2-2h-4-10z" fill="#95a5a6"/>
  <path d="m5 1c-1.1046 0-2 0.8954-2 2v8 4 6c0 1.105 0.8954 2 2 2h14c1.105 0 2-0.895 2-2v-6-4-4-4c0-1.1046-0.895-2-2-2h-4-10z" transform="translate(0 1028.4)" fill="#bdc3c7"/>
  <rect transform="translate(0 1028.4)" height="14" width="14" y="3" x="5" fill="#f39c12"/>
  <path d="m16 11a4 4 0 1 1 -8 0 4 4 0 1 1 8 0z" transform="translate(0 1030.4)" fill="#f1c40f"/>
  <rect height="3" width="14" y="1042.4" x="5" fill="#3498db"/>
 </g>
</svg>
