<svg xmlns="http://www.w3.org/2000/svg" width="24" height="24"><g transform="translate(0 -1028.362)"><path d="M18.293 1032.655l-9.192 9.192.707.707 4.53 4.53c.355-1.197.434-2.437.221-3.624l5.701-5.701c.873-.002 1.763-.164 2.652-.486l-3.911-3.911-.707-.707z" fill="#c0392b"/><path d="M9.101 1041.845l-1.414 1.414-2.828 2.828-1.414 1.414-.707 2.121 1.414-1.414 4.242-4.242 1.414-1.414-.707-.707z" fill="#bdc3c7"/><path d="M9.808 1042.552l-1.414 1.414-2.828 2.828-1.414 1.414-1.414 1.414 2.121-.707 1.414-1.414 2.828-2.828 1.414-1.414-.707-.707z" fill="#7f8c8d"/><path d="M15.089 1029.451c-.322.888-.485 1.779-.486 2.652l-5.701 5.701c-1.187-.213-2.427-.134-3.624.221l4.53 4.53 9.192-9.192-3.911-3.911z" fill="#e74c3c"/></g></svg>