<svg xmlns="http://www.w3.org/2000/svg" width="24" height="24"><g transform="translate(0 -1028.362)"><path d="M2 1032.362v16c0 1.105.895 2 2 2h12l6-6v-12h-20z" fill="#f1c40f"/><path d="M22 1044.362l-6 6v-4c0-1.105.895-2 2-2h4z" fill="#f39c12"/><path d="M4 1030.362c-1.105 0-2 .895-2 2v2h20v-2c0-1.105-.895-2-2-2h-16z" fill="#f1c40f"/><rect width="14" height="2" x="5" y="1034.362" fill="#f39c12"/><rect width="14" height="2" x="5" y="1038.362" fill="#f39c12"/><rect width="9" height="2" x="5" y="1042.362" fill="#f39c12"/></g></svg>