<svg xmlns="http://www.w3.org/2000/svg" width="24" height="24"><g><path d="M12 0c-.405 0-.805.06-1.188.156-.224.057-.441.131-.656.219l-.25.094-.094.063c-.203.101-.402.217-.594.344l-.094.031-.156.125c-.157.113-.322.216-.469.344-.134.121-.249.272-.375.406-.425.436-.794.897-1.094 1.438-.515.903-.9 1.921-1.063 2.969-.078-.017-.15-.022-.219 0-.525.171-.654 1.168-.313 2.219.201.616.535 1.101.875 1.375.457 1.778 1.426 3.26 2.688 4.188v1.031l-1 1-2 1-4.844 2.406c-.895.54-1.242 1.6-1.156 2.594.042.626-.184 1.427.438 1.844.591.304 1.296.106 1.938.156h5.625c2.669.001 5.331 0 8 0 2.367 0 4.727.004 7.094 0 .768-.054.981-.865.906-1.5.014-.932.069-1.976-.656-2.688-.592-.602-1.434-.841-2.156-1.25l-3.188-1.563-2-1-1-1v-1.031c1.262-.928 2.23-2.41 2.688-4.188.34-.274.674-.759.875-1.375.342-1.05.213-2.048-.313-2.219-.069-.022-.14-.017-.219 0-.162-1.048-.547-2.065-1.063-2.969-.3-.54-.669-1.002-1.094-1.438-.126-.134-.241-.286-.375-.406h-.031c-.392-.35-.827-.619-1.281-.844l-.344-.156-.25-.094c-.255-.088-.516-.174-.781-.219h-.063c-.249-.039-.495-.065-.75-.063z" fill="#34495e"/><path d="M0 23c.026.331.127.635.438.844.591.304 1.296.106 1.938.156h13.625c2.367 0 4.727.004 7.094 0 .576-.041.842-.502.906-1h-24z" fill="#2c3e50"/></g></svg>