<?xml version="1.0" encoding="UTF-8" standalone="no"?>
<svg xmlns:rdf="http://www.w3.org/1999/02/22-rdf-syntax-ns#" xmlns="http://www.w3.org/2000/svg" height="24" width="24" version="1.1" xmlns:cc="http://creativecommons.org/ns#" xmlns:dc="http://purl.org/dc/elements/1.1/">
 <g transform="translate(0 -1028.4)">
  <path d="m9.0938 1030.4c-1.2879-0.1-2.5769 1-2.625 2.3-0.0451 0.9 0.436 1.7 1.2187 2.1 0.3366 0.3 0.2678 0.8 0.1875 1.2-0.1759 0.7-0.6988 1.2-1.375 1.4h-1.5-1c-1.1046 0-2 0.9-2 2v10c0 1.1 0.8954 2 2 2h2 0.4375c0.6762-0.2 1.1991-0.7 1.375-1.4 0.0803-0.4 0.1179-0.9-0.2187-1.2-0.7828-0.4-1.2639-1.3-1.2188-2.2 0.0481-1.3 1.3372-2.3 2.625-2.2 0.9085-0.1 1.836 0.4 2.312 1.2 0.579 0.9 0.342 2.1-0.406 2.8-0.243 0.3-0.731 0.4-0.718 0.9-0.1911 0.9 0.435 1.9 1.343 2.1h1.469 1c1.105 0 2-0.9 2-2v-1-1.5c0.234-0.9 1.198-1.6 2.094-1.4 0.448 0 0.556 0.5 0.844 0.7 0.718 0.8 1.933 1 2.812 0.4 0.77-0.4 1.266-1.4 1.25-2.3 0.044-1.3-1.002-2.5-2.312-2.6-0.879 0-1.715 0.5-2.126 1.3-0.304 0.3-0.85 0.3-1.25 0.2-0.621-0.2-1.161-0.7-1.312-1.3v-2.5c0-1.1-0.895-2-2-2h-1-1.375c-0.908-0.2-1.597-1.2-1.406-2.1-0.013-0.5 0.507-0.6 0.75-0.9 0.748-0.7 0.984-1.9 0.406-2.8-0.477-0.8-1.373-1.3-2.2812-1.2z" fill="#16a085"/>
  <path d="m9.0938 1c-1.2879-0.044-2.5769 1.004-2.625 2.3125-0.0451 0.8776 0.436 1.7465 1.2187 2.1563 0.3366 0.3038 0.2678 0.7886 0.1875 1.1874-0.1759 0.6474-0.6988 1.222-1.375 1.3438h-1.5-1c-1.1046 0-2 0.8954-2 2v10c0 1.105 0.8954 2 2 2h2 0.4375c0.6762-0.122 1.1991-0.696 1.375-1.344 0.0803-0.399 0.1179-0.883-0.2187-1.187-0.7828-0.41-1.2639-1.31-1.2188-2.188 0.0481-1.308 1.3372-2.325 2.625-2.281 0.9085-0.015 1.836 0.481 2.312 1.25 0.579 0.878 0.342 2.095-0.406 2.812-0.243 0.287-0.731 0.397-0.718 0.844-0.1911 0.914 0.435 1.888 1.343 2.094h1.469 1c1.105 0 2-0.895 2-2v-1-1.5c0.234-0.877 1.198-1.53 2.094-1.344 0.448-0.013 0.556 0.476 0.844 0.719 0.718 0.747 1.933 0.984 2.812 0.406 0.77-0.476 1.266-1.405 1.25-2.312 0.044-1.286-1.002-2.577-2.312-2.625-0.879-0.045-1.715 0.468-2.126 1.25-0.304 0.336-0.85 0.299-1.25 0.218-0.621-0.168-1.161-0.675-1.312-1.312v-2.5c0-1.1046-0.895-2-2-2h-1-1.375c-0.908-0.2056-1.597-1.18-1.406-2.0938-0.013-0.4474 0.507-0.5569 0.75-0.8437 0.748-0.7173 0.984-1.9348 0.406-2.8125-0.477-0.7691-1.373-1.2656-2.2812-1.25z" transform="translate(0 1028.4)" fill="#1abc9c"/>
 </g>
</svg>
