<svg xmlns="http://www.w3.org/2000/svg" width="24" height="24"><g><path d="M9.132 1.931c-1.713-.173-3.283 1.936-2.357 3.477 1.009.672 1.748 2.501.416 3.233-1.411.801-3.309-.339-4.56.885-1.004 1.152-.464 2.752-.571 4.122-.022 2.609-.079 5.22.045 7.828.316 1.255 1.785 1.536 2.896 1.524.976.076 2.112-.055 2.692-.958.758-1.248-.894-2.039-1.199-3.119-.538-1.582 1.069-3.12 2.617-3.01 1.503-.005 3.001 1.529 2.488 3.055-.548.965-2.002 2.027-1.11 3.247 1.004 1.056 2.618.718 3.917.7 1.368-.313 1.952-1.86 1.591-3.116-.089-1.063.23-2.493 1.443-2.746 1.354-.093 2.016 1.792 3.443 1.466 1.714-.173 2.708-2.299 1.901-3.779-.49-1.106-1.96-1.985-3.084-1.232-.823.774-2.157 1.958-3.178.757-1.162-1.372.197-3.422-1.063-4.749-1.295-1.299-3.36.093-4.702-1.075-.971-.778-.27-2.034.397-2.754 1.192-1.075.372-3.145-1.022-3.603-.319-.111-.663-.145-.999-.154z" fill="#16a085"/><path d="M9.094 1c-1.713-.173-3.283 1.936-2.357 3.477 1.009.672 1.748 2.501.416 3.233-1.411.801-3.309-.339-4.56.885-1.004 1.152-.464 2.752-.571 4.122-.022 2.609-.079 5.22.045 7.828.316 1.256 1.785 1.536 2.896 1.524.976.076 2.112-.055 2.692-.958.758-1.248-.894-2.039-1.199-3.119-.538-1.582 1.069-3.12 2.617-3.01 1.503-.005 3.001 1.529 2.488 3.055-.548.965-2.002 2.027-1.11 3.247 1.004 1.056 2.618.718 3.917.7 1.368-.313 1.952-1.86 1.591-3.116-.089-1.063.23-2.493 1.443-2.746 1.354-.093 2.016 1.792 3.443 1.466 1.714-.173 2.708-2.299 1.901-3.779-.49-1.106-1.96-1.985-3.084-1.232-.823.774-2.157 1.958-3.178.757-1.162-1.372.197-3.422-1.063-4.75-1.295-1.299-3.36.093-4.702-1.075-.971-.778-.27-2.034.397-2.754 1.192-1.075.372-3.145-1.022-3.603-.319-.111-.663-.145-.999-.154z" fill="#1abc9c"/></g></svg>