<svg xmlns="http://www.w3.org/2000/svg" width="24" height="24"><g style="text-align:end;line-height:125%;-inkscape-font-specification:FontAwesome" font-size="8" letter-spacing="0" word-spacing="0" text-anchor="end" fill="#2980b9" font-family="FontAwesome" transform="translate(0 -1028.362)"><path style="text-align:end;line-height:125%;-inkscape-font-specification:FontAwesome" d="M4 1031.362c-1.105 0-2 .895-2 2v16c0 1.105.895 2 2 2h16c1.105 0 2-.895 2-2v-16c0-1.105-.895-2-2-2h-16z" font-size="8" letter-spacing="0" word-spacing="0" text-anchor="end" fill="#d35400" font-family="FontAwesome"/><path d="M4 1030.362c-1.105 0-2 .895-2 2v16c0 1.105.895 2 2 2h16c1.105 0 2-.895 2-2v-16c0-1.105-.895-2-2-2h-16z" fill="#e67e22"/><path style="text-align:end;line-height:125%;-inkscape-font-specification:FontAwesome" d="M5 1034.362v2.333c6.443 0 11.667 5.223 11.667 11.667h2.333c0-7.732-6.268-14-14-14zm0 4.667v2.333c3.866 0 7 3.134 7 7h2.333c0-5.155-4.179-9.333-9.333-9.333zm2.042 5.25c-1.128 0-2.042.914-2.042 2.041 0 1.128.914 2.042 2.042 2.042 1.128 0 2.042-.914 2.042-2.042 0-1.127-.914-2.041-2.042-2.041z" font-size="8" letter-spacing="0" word-spacing="0" text-anchor="end" fill="#d35400" font-family="FontAwesome"/><path d="M5 1033.362v2.333c6.443 0 11.667 5.223 11.667 11.667h2.333c0-7.732-6.268-14-14-14zm0 4.667v2.333c3.866 0 7 3.134 7 7h2.333c0-5.155-4.179-9.333-9.333-9.333zm2.042 5.25c-1.128 0-2.042.914-2.042 2.041 0 1.128.914 2.042 2.042 2.042 1.128 0 2.042-.914 2.042-2.042 0-1.127-.914-2.041-2.042-2.041z" fill="#ecf0f1"/></g></svg>