<svg xmlns="http://www.w3.org/2000/svg" width="24" height="24"><g transform="translate(0 -1028.362)"><path d="M2 1031.362c-1.105 0-2 .895-2 2v15c0 1.105.895 2 2 2h1v1h4v-1h10v1h4v-1h1c1.105 0 2-.895 2-2v-15c0-1.105-.895-2-2-2h-20z" fill="#2c3e50"/><path d="M2 1030.362c-1.105 0-2 .895-2 2v15c0 1.105.895 2 2 2h20c1.105 0 2-.895 2-2v-15c0-1.105-.895-2-2-2h-20z" fill="#34495e"/><path d="M14.5 1033.362c-4.142 0-7.5 3.358-7.5 7.5 0 4.142 3.358 7.5 7.5 7.5 4.142 0 7.5-3.358 7.5-7.5 0-4.142-3.358-7.5-7.5-7.5zm0 2c3.038 0 5.5 2.462 5.5 5.5s-2.462 5.5-5.5 5.5-5.5-2.462-5.5-5.5 2.462-5.5 5.5-5.5z" fill="#2c3e50"/><path d="M5 1033.862c0 .828-.672 1.5-1.5 1.5s-1.5-.672-1.5-1.5.672-1.5 1.5-1.5 1.5.672 1.5 1.5z" fill="#2c3e50"/><path d="M5 1045.862c0 .828-.672 1.5-1.5 1.5s-1.5-.672-1.5-1.5.672-1.5 1.5-1.5 1.5.672 1.5 1.5z" fill="#2c3e50"/><rect width="1" height="13" x="3" y="5" transform="translate(0 1028.362)" fill="#95a5a6"/><rect width="1" height="3" x="3" y="1043.362" fill="#7f8c8d"/><rect width="1" height="3" x="3" y="1033.362" fill="#bdc3c7"/><path d="M15 1039.862c0 .276-.224.5-.5.5s-.5-.224-.5-.5.224-.5.5-.5.5.224.5.5z" fill="#8e44ad"/><path d="M18 1044.362l-9-9 1-1 10 10-1 1z" fill="#95a5a6"/><path d="M11 1044.362l9-9-1-1-10 10 1 1z" fill="#95a5a6"/><path d="M9.5 1034.862l-.5.5 4 4 .5-.5-4-4zm10 0l-4 4 .5.5 4-4-.5-.5zm-5 5l-3.5 3.5-1 1-.5-.5-.5.5 1 1 1-1 3.5-3.5 3.5 3.5 1 1 1-1-.5-.5-.5.5-1-1-3.5-3.5z" fill="#7f8c8d"/><path d="M10.281 1034.643c-.391.266-.76.573-1.094.906l1.438 1.438c.336-.336.712-.635 1.125-.875l-1.438-1.469h-.031zm8.406 0l-1.438 1.469c.413.24.789.539 1.125.875l1.438-1.438c-.334-.334-.702-.64-1.094-.906h-.031zm-8.938 8.969l-.75.75 1 1 .625-.625c-.336-.336-.635-.712-.875-1.125zm9.5 0c-.24.413-.539.789-.875 1.125l.625.625 1-1-.75-.75z" fill="#7f8c8d"/><path d="M14.5 1032.362c-4.142 0-7.5 3.358-7.5 7.5 0 4.142 3.358 7.5 7.5 7.5 4.142 0 7.5-3.358 7.5-7.5 0-4.142-3.358-7.5-7.5-7.5zm0 2c3.038 0 5.5 2.462 5.5 5.5s-2.462 5.5-5.5 5.5-5.5-2.462-5.5-5.5 2.462-5.5 5.5-5.5z" fill="#bdc3c7"/><path d="M15 1039.862c0 .276-.224.5-.5.5s-.5-.224-.5-.5.224-.5.5-.5.5.224.5.5z" fill="#7f8c8d"/><path d="M14.5 1033.362c-3.038 0-5.5 2.462-5.5 5.5l.031.438c.282-2.773 2.621-4.938 5.469-4.938 2.848 0 5.187 2.164 5.469 4.938l.031-.438c0-3.038-2.462-5.5-5.5-5.5zm-7.469 6l-.031.5c0 4.142 3.358 7.5 7.5 7.5 4.142 0 7.5-3.358 7.5-7.5l-.031-.5c-.254 3.912-3.492 7-7.469 7-3.976 0-7.215-3.088-7.469-7z" fill="#95a5a6"/></g></svg>