<svg xmlns="http://www.w3.org/2000/svg" width="24" height="24"><g transform="translate(0 -1028.362)"><rect width="4" height="10" x="-729.041" y="747.567" transform="rotate(-45)" fill="#95a5a6"/><rect width="4" height="3" x="-729.041" y="747.567" transform="rotate(-45)" fill="#7f8c8d"/><path d="M3.201 1031.392c-3.515 3.515-3.515 9.213 0 12.728 3.515 3.515 9.213 3.515 12.728 0 3.515-3.515 3.515-9.213 0-12.728-3.515-3.515-9.213-3.515-12.728 0zm2.121 2.121c2.343-2.343 6.142-2.343 8.485 0 2.343 2.343 2.343 6.142 0 8.485-2.343 2.343-6.142 2.343-8.485 0-2.343-2.343-2.343-6.142 0-8.485z" fill="#bdc3c7"/><path d="M16 9.5a6.5 6.5 0 1 1-13 0 6.5 6.5 0 1 1 13 0z" transform="translate(0 1028.362)" fill="#ecf0f1"/></g></svg>