<svg xmlns="http://www.w3.org/2000/svg" width="24" height="24"><g><path d="M3 3v10c0 4.282 3.632 7.995 9 10 5.368-2.005 9-5.718 9-10v-10h-18z" fill="#95a5a6"/><path d="M3 2v10c0 4.282 3.632 7.995 9 10 5.368-2.005 9-5.718 9-10v-10h-18z" fill="#ecf0f1"/><path d="M3 2v10c0 4.282 3.632 7.995 9 10v-20h-9z" fill="#bdc3c7"/><path d="M5 4v8c0 3.425 2.825 6.396 7 8 4.175-1.604 7-4.575 7-8v-8h-14z" fill="#f39c12"/><path d="M12 4v16c4.175-1.604 7-4.575 7-8v-8h-7z" fill="#f1c40f"/><path d="M12 6c-.552 0-1 .448-1 1l.5 7h1l.5-7c0-.552-.448-1-1-1zm0 9c-.552 0-1 .448-1 1s.448 1 1 1 1-.448 1-1-.448-1-1-1z" fill="#34495e"/></g></svg>