<svg xmlns="http://www.w3.org/2000/svg" width="24" height="24"><g transform="translate(0 -1028.362)"><path d="M3 1031.362v10c0 4.282 3.632 7.995 9 10 5.368-2.005 9-5.718 9-10v-10h-18z" fill="#7f8c8d"/><path d="M3 1030.362v10c0 4.282 3.632 7.995 9 10 5.368-2.005 9-5.718 9-10v-10h-18z" fill="#bdc3c7"/><path d="M3 1030.362v10c0 4.282 3.632 7.995 9 10v-20h-9z" fill="#95a5a6"/><path d="M5 1032.362v8c0 3.425 2.825 6.396 7 8 4.175-1.604 7-4.575 7-8v-8h-14z" fill="#ecf0f1"/><path d="M5 1040.362c0 3.425 2.825 6.396 7 8v-8h-7z" fill="#2980b9"/><rect width="7" height="8" x="12" y="4" transform="translate(0 1028.362)" fill="#3498db"/><rect width="7" height="8" x="5" y="4" transform="translate(0 1028.362)" fill="#bdc3c7"/></g></svg>