<svg xmlns="http://www.w3.org/2000/svg" width="24" height="24"><g transform="translate(0 -1028.362)"><path d="M0 1050.362h24l-4-6h-16l-4 6" fill="#95a5a6"/><rect width="20" height="17" x="2" y="1032.362" fill="#f1c40f"/><rect width="9" height="9" x="4" y="1039.362" fill="#ecf0f1"/><rect width="6" height="9" x="14" y="1040.362" fill="#ecf0f1"/><rect width="20" height="4" x="2" y="1037.362" fill="#f39c12"/><rect width="6" height="1" x="14" y="1039.362" fill="#bdc3c7"/><rect width="9" height="2" x="4" y="1039.362" fill="#bdc3c7"/><path d="M0 1036.362v1.5c0 .828.672 1.5 1.5 1.5s1.5-.672 1.5-1.5v-1.5h-3z" fill="#c0392b"/><path d="M3 1036.362v1.5c0 .828.672 1.5 1.5 1.5s1.5-.672 1.5-1.5v-1.5h-3z" fill="#bdc3c7"/><path d="M6 1036.362v1.5c0 .828.672 1.5 1.5 1.5s1.5-.672 1.5-1.5v-1.5h-3z" fill="#c0392b"/><path d="M9 1036.362v1.5c0 .828.672 1.5 1.5 1.5s1.5-.672 1.5-1.5v-1.5h-3z" fill="#bdc3c7"/><path d="M12 1036.362v1.5c0 .828.672 1.5 1.5 1.5s1.5-.672 1.5-1.5v-1.5h-3z" fill="#c0392b"/><path d="M15 1036.362v1.5c0 .828.672 1.5 1.5 1.5s1.5-.672 1.5-1.5v-1.5h-3z" fill="#bdc3c7"/><path d="M18 1036.362v1.5c0 .828.672 1.5 1.5 1.5s1.5-.672 1.5-1.5v-1.5h-3z" fill="#c0392b"/><path d="M21 1036.362v1.5c0 .828.672 1.5 1.5 1.5s1.5-.672 1.5-1.5v-1.5h-3z" fill="#bdc3c7"/><path d="M10 1032.362h2v4h-3z" fill="#ecf0f1"/><path d="M12 1032.362h2l1 4h-3z" fill="#e74c3c"/><path d="M5 1032.362h3l-2 4h-3z" fill="#ecf0f1"/><path d="M8 1032.362h2l-1 4h-3z" fill="#e74c3c"/><path d="M16 1032.362h-2l1 4h3z" fill="#ecf0f1"/><path d="M19 1032.362h-3l2 4h3z" fill="#e74c3c"/><path d="M2 1032.362h3l-2 4h-3z" fill="#e74c3c"/><path d="M22 1032.362h-3l2 4h3z" fill="#ecf0f1"/><rect width="4" height="8" x="15" y="1041.362" fill="#3498db"/><rect width="5" height="1" x="14" y="1044.362" fill="#ecf0f1"/><rect width="1" height="1" x="19" y="1040.362" fill="#bdc3c7"/><rect width="4" height="1" x="15" y="1040.362" fill="#2980b9"/><rect width="1" height="1" x="14" y="1040.362" fill="#bdc3c7"/><rect width="7" height="7" x="5" y="1040.362" fill="#3498db"/><rect width="9" height="1" x="4" y="1043.362" fill="#ecf0f1"/><rect width="1" height="7" x="8" y="1040.362" fill="#ecf0f1"/><path d="M1 1032.362h22l-3.667-2h-14.667l-3.667 2" fill="#ecf0f1"/><rect width="1" height="1" x="8" y="12" transform="translate(0 1028.362)" fill="#bdc3c7"/><path d="M1 1031.362h22l-3.667-2h-14.667l-3.667 2" fill="#bdc3c7"/><rect width="22" height="1" x="1" y="3" transform="translate(0 1028.362)" fill="#7f8c8d"/><rect width="4" height="3" x="15" y="1046.362" fill="#2980b9"/><rect width="24" height="1" y="22" transform="translate(0 1028.362)" fill="#7f8c8d"/><path d="M5 1040.362v1h3v-1h-3zm4 0v1h3v-1h-3z" fill="#2980b9"/><path d="M5 1046.362v1h3v-1h-3zm4 0v1h3v-1h-3z" fill="#2980b9"/><path d="M2 1032.362l-.5 1h3l.5-1h-3zm5 0l-.25 1h3l.25-1h-3zm5 0v1h2.25l-.25-1h-2zm4 0l.5 1h3l-.5-1h-3z" fill="#c0392b"/><path d="M5 1032.362l-.5 1h3.001l.499-1zm5 0l-.25 1h2.25v-1zm4 0l.25 1h2.25l-.5-1zm5 0l.5 1h3l-.5-1z" fill="#bdc3c7"/></g></svg>