<svg xmlns="http://www.w3.org/2000/svg" width="24" height="24"><g><path d="M12 3c-.985-.037-1.715.768-2.031 1.625-2.605 5.211-5.209 10.418-7.813 15.625-.618 1.307.58 2.919 2 2.75 2.61-.003 5.234-.001 7.844 0 2.61-.001 5.234-.003 7.844 0 1.42.169 2.618-1.443 2-2.75l-7.813-15.625c-.316-.857-1.047-1.662-2.031-1.625z" fill="#f39c12"/><path d="M12 2c-.985-.037-1.715.768-2.031 1.625-2.605 5.211-5.209 10.418-7.813 15.625-.618 1.307.58 2.919 2 2.75 2.61-.003 5.234-.001 7.844 0 2.61-.001 5.234-.003 7.844 0 1.42.169 2.618-1.443 2-2.75l-7.813-15.625c-.316-.857-1.047-1.662-2.031-1.625z" fill="#f1c40f"/><path d="M12 8c-.552 0-1 .448-1 1l.5 7h1l.5-7c0-.552-.448-1-1-1zm0 9c-.552 0-1 .448-1 1s.448 1 1 1 1-.448 1-1-.448-1-1-1z" fill="#34495e"/></g></svg>