<svg xmlns="http://www.w3.org/2000/svg" width="24" height="24"><g transform="translate(0 -1028.362)"><path d="M22 1041.362c0 5.523-4.477 10-10 10s-10-4.477-10-10 4.477-10 10-10 10 4.477 10 10z" fill="#2980b9"/><path d="M22 1040.362c0 5.523-4.477 10-10 10s-10-4.477-10-10 4.477-10 10-10 10 4.477 10 10z" fill="#3498db"/><path d="M12 1035.362c-1.727-.027-3.431 1.175-3.844 2.875-.04.294-.055.328-.156 1.125h2c-.053-1.248 1.306-2.289 2.5-1.938 1.021.237 1.763 1.428 1.406 2.438-.295.684-.998.992-1.563 1.406-.576.482-1.074 1.094-1.313 1.813-.04.421-.035.859-.031 1.281h2v-1c.172-.624.688-1.042 1.25-1.313.634-.312 1.087-.835 1.406-1.469.543-.974.453-2.174-.125-3.094-.705-1.27-2.067-2.144-3.531-2.125zm0 10c-.552 0-1 .448-1 1s.448 1 1 1 1-.448 1-1-.448-1-1-1z" fill="#2980b9"/><path d="M12 1034.362c-1.727-.027-3.431 1.175-3.844 2.875-.04.294-.055.328-.156 1.125h2c-.053-1.248 1.306-2.289 2.5-1.938 1.021.237 1.763 1.428 1.406 2.438-.295.684-.998.992-1.563 1.406-.576.482-1.074 1.094-1.313 1.813-.04.421-.035.859-.031 1.281h2v-1c.172-.624.688-1.041 1.25-1.313.634-.312 1.087-.835 1.406-1.469.543-.974.453-2.174-.125-3.094-.705-1.27-2.067-2.144-3.531-2.125zm0 10c-.552 0-1 .448-1 1s.448 1 1 1 1-.448 1-1-.448-1-1-1z" fill="#ecf0f1"/></g></svg>