<svg xmlns="http://www.w3.org/2000/svg" width="24" height="24"><g transform="translate(0 -1028.362)"><path d="M22 1041.362c0 5.523-4.477 10-10 10s-10-4.477-10-10 4.477-10 10-10 10 4.477 10 10z" fill="#27ae60"/><path d="M22 1040.362c0 5.523-4.477 10-10 10s-10-4.477-10-10 4.477-10 10-10 10 4.477 10 10z" fill="#2ecc71"/><path d="M16 1037.362l-6 6-2.5-2.5-2.125 2.125 2.5 2.5 2 2 .125.125 8.125-8.125-2.125-2.125z" fill="#27ae60"/><path d="M16 1036.362l-6 6-2.5-2.5-2.125 2.125 2.5 2.5 2 2 .125.125 8.125-8.125-2.125-2.125z" fill="#ecf0f1"/></g></svg>