<svg xmlns="http://www.w3.org/2000/svg" width="24" height="24"><g transform="translate(0 -1028.362)"><path d="M22 12a10 10 0 1 1-20 0 10 10 0 1 1 20 0z" transform="matrix(-1 0 0 1 24 1029.362)" fill="#2980b9"/><path transform="matrix(-1 0 0 1 24 1028.362)" d="M22 12a10 10 0 1 1-20 0 10 10 0 1 1 20 0z" fill="#3498db"/><path d="M22 12a10 10 0 1 1-20 0 10 10 0 1 1 20 0z" transform="matrix(-1 0 0 1 -61 1007.362)" fill="#2980b9"/><path transform="matrix(-1 0 0 1 -61 1006.362)" d="M22 12a10 10 0 1 1-20 0 10 10 0 1 1 20 0z" fill="#3498db"/><path d="M-73 1014.362c-2.416 0-4.44 1.722-4.906 4h1.656c.445-1.402 1.732-2.438 3.281-2.438.938 0 1.789.39 2.406 1l-1.438 1.438h4.001v-4l-1.469 1.469c-.907-.906-2.152-1.469-3.531-1.469zm-5 6v4l1.469-1.469c.907.906 2.152 1.469 3.531 1.469 2.416 0 4.44-1.722 4.906-4h-1.656c-.445 1.402-1.732 2.438-3.281 2.438-.938 0-1.789-.39-2.406-1l1.438-1.438h-4.001z" fill="#2980b9"/><path d="M-73 1013.362c-2.416 0-4.44 1.722-4.906 4h1.656c.445-1.402 1.732-2.438 3.281-2.438.938 0 1.789.39 2.406 1l-1.438 1.438h4.001v-4l-1.469 1.469c-.907-.906-2.152-1.469-3.531-1.469zm-5 6v4l1.469-1.469c.907.906 2.152 1.469 3.531 1.469 2.416 0 4.44-1.722 4.906-4h-1.656c-.445 1.402-1.732 2.438-3.281 2.438-.938 0-1.789-.39-2.406-1l1.438-1.438h-4.001z" fill="#ecf0f1"/><path d="M12 1035.362c-2.976 0-5.433 2.159-5.906 5h2.063c.445-1.724 1.981-3 3.844-3 1.366 0 2.537.704 3.25 1.75l-1.25 1.25h4.001v-4l-1.281 1.281c-1.095-1.395-2.803-2.281-4.719-2.281zm-6 7v4l1.281-1.281c1.095 1.395 2.803 2.281 4.719 2.281 2.976 0 5.433-2.159 5.906-5h-2.063c-.445 1.724-1.981 3-3.844 3-1.366 0-2.537-.704-3.25-1.75l1.25-1.25h-4.001z" fill="#2980b9"/><path d="M12 1034.362c-2.976 0-5.433 2.159-5.906 5h2.063c.445-1.724 1.981-3 3.844-3 1.366 0 2.537.704 3.25 1.75l-1.25 1.25h4.001v-4l-1.281 1.281c-1.095-1.395-2.803-2.281-4.719-2.281zm-6 7v4l1.281-1.281c1.095 1.395 2.803 2.281 4.719 2.281 2.976 0 5.433-2.159 5.906-5h-2.063c-.445 1.724-1.981 3-3.844 3-1.366 0-2.537-.704-3.25-1.75l1.25-1.25h-4.001z" fill="#ecf0f1"/></g></svg>