<svg xmlns="http://www.w3.org/2000/svg" width="24" height="24"><g><path d="M12 3c-2.248 0-4.33.748-6 2-2.433 1.824-4 4.725-4 8 0 5.523 4.477 10 10 10s10-4.477 10-10-4.477-10-10-10zm0 3c3.866 0 7 3.134 7 7 0 1.424-.426 2.738-1.156 3.844l-9.688-9.688c1.105-.731 2.42-1.156 3.844-1.156zm-5.938 3.313l9.625 9.625c-1.073.669-2.33 1.063-3.688 1.063-3.866 0-7-3.134-7-7 0-1.357.394-2.615 1.063-3.688z" fill="#c0392b"/><path d="M12 2c-2.248 0-4.33.748-6 2-2.433 1.824-4 4.725-4 8 0 5.523 4.477 10 10 10s10-4.477 10-10-4.477-10-10-10zm0 3c3.866 0 7 3.134 7 7 0 1.424-.426 2.738-1.156 3.844l-9.688-9.688c1.105-.731 2.42-1.156 3.844-1.156zm-5.938 3.313l9.625 9.625c-1.073.669-2.33 1.063-3.688 1.063-3.866 0-7-3.134-7-7 0-1.357.394-2.615 1.063-3.688z" fill="#e74c3c"/></g></svg>