<svg xmlns="http://www.w3.org/2000/svg" width="24" height="24"><g><path d="M22 13c0 5.523-4.477 10-10 10s-10-4.477-10-10 4.477-10 10-10 10 4.477 10 10z" fill="#c0392b"/><path d="M22 12c0 5.523-4.477 10-10 10s-10-4.477-10-10 4.477-10 10-10 10 4.477 10 10z" fill="#e74c3c"/><path d="M7.05 9.465l3.536 3.535-3.536 3.535 1.414 1.414 3.536-3.536 3.536 3.536 1.414-1.414-3.536-3.535 3.536-3.535-1.414-1.414-3.536 3.535-3.536-3.535-1.414 1.414z" fill="#c0392b"/><path d="M7.05 8.465l3.536 3.535-3.536 3.535 1.414 1.414 3.536-3.535 3.536 3.535 1.414-1.414-3.536-3.535 3.536-3.535-1.414-1.414-3.536 3.536-3.536-3.536-1.414 1.414z" fill="#ecf0f1"/></g></svg>