<svg xmlns="http://www.w3.org/2000/svg" width="24" height="24"><g style="text-align:end;line-height:125%;-inkscape-font-specification:FontAwesome" font-size="8" letter-spacing="0" word-spacing="0" text-anchor="end" fill="#2980b9" font-family="FontAwesome" transform="translate(0 -1028.362)"><path d="M17 1045.362c0 3.314 0 6-5 6s-5-2.686-5-6 1.686-6 5-6 5 2.686 5 6z" fill="#95a5a6"/><path d="M8 1046.362v3h2v-3h-2zm3 0v3h2v-3h-2zm3 0v3h2v-3h-2z" fill="#bdc3c7"/><path d="M8 1047.362v2h1v-2h-1zm3 0v2h1v-2h-1zm3 0v2h1v-2h-1z" fill="#7f8c8d"/><path style="text-align:end;line-height:125%;-inkscape-font-specification:FontAwesome" d="M7.5 1049.362c.577 1.225 1.821 2 4.5 2 2.679 0 3.923-.775 4.5-2h-9z" font-size="8" letter-spacing="0" word-spacing="0" text-anchor="end" fill="#bdc3c7" font-family="FontAwesome"/><path d="M12 1029.362c-7 0-9 4-8.938 11.094.309 2.46 1.858 3.518 3.938 4.906.808 1.083.594 1.658 2 2 1.473-.022 1.526-.001 3 0 1.474-.001 1.527-.022 3 0 1.406-.342 1.192-.917 2-2 2.08-1.388 3.629-2.446 3.938-4.906.063-6.094-1.938-11.094-8.938-11.094z" fill="#bdc3c7"/><path d="M11 1040.362c0 1.657-1.343 3-3 3s-3-1.343-3-3 1.343-3 3-3 3 1.343 3 3z" fill="#95a5a6"/><path d="M12.91 1046.361c.28 0 .561-.116.774-.35.427-.468.415-1.218 0-1.699l-1.684-1.949-1.684 1.949c-.415.481-.427 1.231 0 1.699.427.468 1.121.468 1.548 0l.137-.15.137.15c.213.234.494.35.774.35z" fill="#95a5a6"/><path style="text-align:end;line-height:125%;-inkscape-font-specification:FontAwesome" d="M19 1040.362c0 1.657-1.343 3-3 3s-3-1.343-3-3 1.343-3 3-3 3 1.343 3 3z" font-size="8" letter-spacing="0" word-spacing="0" text-anchor="end" fill="#95a5a6" font-family="FontAwesome"/><path style="text-align:end;line-height:125%;-inkscape-font-specification:FontAwesome" d="M8 1037.362c-1.657 0-3 1.343-3 3 0 .175.034.333.063.5.243-1.413 1.455-2.5 2.938-2.5 1.482 0 2.694 1.087 2.938 2.5.029-.167.063-.325.063-.5 0-1.657-1.343-3-3-3z" font-size="8" letter-spacing="0" word-spacing="0" text-anchor="end" fill="#7f8c8d" font-family="FontAwesome"/><path style="text-align:end;line-height:125%;-inkscape-font-specification:FontAwesome" d="M16 1037.362c-1.657 0-3 1.343-3 3 0 .175.034.333.063.5.243-1.413 1.455-2.5 2.938-2.5 1.482 0 2.694 1.087 2.938 2.5.029-.167.063-.325.063-.5 0-1.657-1.343-3-3-3z" font-size="8" letter-spacing="0" word-spacing="0" text-anchor="end" fill="#7f8c8d" font-family="FontAwesome"/><path style="text-align:end;line-height:125%;-inkscape-font-specification:FontAwesome" d="M12 1042.362l-1.688 1.938c-.326.378-.408.932-.219 1.375.053-.136.121-.262.219-.375l1.688-1.938 1.688 1.938c.098.113.166.239.219.375.19-.443.108-.997-.219-1.375l-1.688-1.938z" font-size="8" letter-spacing="0" word-spacing="0" text-anchor="end" fill="#7f8c8d" font-family="FontAwesome"/></g></svg>