<?xml version="1.0" encoding="UTF-8" standalone="no"?>
<svg xmlns:rdf="http://www.w3.org/1999/02/22-rdf-syntax-ns#" xmlns="http://www.w3.org/2000/svg" height="24" width="24" version="1.1" xmlns:cc="http://creativecommons.org/ns#" xmlns:dc="http://purl.org/dc/elements/1.1/">
 <g transform="translate(0 -1028.4)">
  <g>
   <path d="m9.1875 0.375c-0.3148-0.04199-0.6483 0.1832-1 0.8125-0.4742 1.178 2.2715 5.3381-0.0937 3.8437-1.9213 1.0884 2.6972 1.754 1.9682 3.6876 0.586 1.8212-1.064 0.1842-1.812-0.0938-0.9138-0.2882-1.2678-1.0304-1.375-1.9375l-0.75-2.7813c-2.8327-0.4588 0.8194 4.5596-1.75 2.375-0.6638-0.9414-2.1928-0.9002-2.6875-0.3124-0.2617 0.7222 0.4778 2.0519 1.625 2.1562 3.1767 1.1328-3.0012 0.4948-1.1875 2.719l2.7812-0.75c0.8392-0.361 1.6373-0.3976 2.3438 0.25 0.6148 0.508 2.87 1.096 1 1.5-1.3103 1.597-4.1742-2.0834-4.1562 0.125 2.4767 1.301-2.4982 1-3.2813 2-1.4766 2.476 2.5876 1.561 3.8125 0.875 1.9025-0.851 0.0958 0.708 0.6562 1.344 1.4793 0.262 1.5292-2.965 3.625-2.438 1.7448-0.851 0.2433 0.742-0.0312 1.438-0.4367 1.474-1.9 1.761-3.25 2.031-1.8115-0.47-2.166 2.451-0.2188 1.593 2.3142-1.332 0.9851 0.866 0.25 1.938-0.7561 2.387 2.3712 1.512 2.5313-0.25 1.1328-3.177 0.4949 3.001 2.7185 1.188l-0.75-2.782c-0.3604-0.839-0.397-1.637 0.25-2.344 0.509-0.614 1.096-2.869 1.5-1 1.598 1.311-2.0829 4.175 0.125 4.157 1.3-2.477 1.003 2.497 2 3.281 2.469 1.476 1.564-2.589 0.875-3.812-1.048-2.208 1.447 0.586 1.532-1.094-1.568-0.923-2.857-2.102-2.907-4.125l3 1.719c0.434 0.737 0.486 1.75 0.781 2.593-0.243 1.882 2.258 1.913 1.469-0.093-1.408-3.26 2.475 1.564 3.531-0.313 1.098-1.853-5.026-2.808-1.5-3.219 2.132-0.32 0.852-2.464-0.656-1.312-0.878 0.165-1.769 0.632-2.625 0.625l-3-1.719c1.777-0.969 3.448-0.459 5.031 0.438 1.414-0.914-2.248-1.68 0.188-1.876 1.404-0.014 5.387-1.2867 2.875-2.687-1.177-0.4711-5.338 2.27-3.844-0.0938-1.088-1.9212-1.722 2.6968-3.656 1.9688-1.821 0.585-0.184-1.0332 0.094-1.7812 0.288-0.914 0.999-1.2678 1.906-1.375l2.781-0.75c0.459-2.8328-4.559 0.7881-2.375-1.7813 1.446-1.0194 0.627-4.1296-1.062-2.2813-0.561 1.1728-1.809 3.4202-1.813 0.75-0.231-2.1152-2.562-0.3652-1.25 0.9688 0.442 1.304 0.934 2.697-0.125 3.8125-0.465 0.5858-1.114 2.7175-1.25 0.7813-1.504-1.5516 1.279-3.225 0.313-4.375-0.831-0.1676-1.286 2.1669-1.5 0.0937-0.014-1.0529-0.712-3.5615-1.6565-3.6875z" transform="translate(0 1028.4)" fill="#3498db"/>
   <path d="m22.302 1046.2c-1.056 1.9-4.94-2.9-3.532 0.3 0.789 2-1.733 2-1.489 0.1-0.296-0.8-0.349-1.8-0.783-2.6l-2.977-1.7c0.049 2 1.321 3.2 2.889 4.1-0.085 1.7-2.585-1.1-1.536 1.1 0.689 1.3 1.595 5.3-0.874 3.9-0.997-0.8-0.701-5.8-2.001-3.3-2.2081 0 1.469-2.9-0.129-4.2-0.404-1.8-0.991 0.4-1.5 1-0.6476 0.7-0.6 1.5-0.239 2.4l0.743 2.7c-2.2238 1.8-1.583-4.3-2.7158-1.1-0.1601 1.7-3.2767 2.6-2.5206 0.2 0.7351-1.1 2.0671-3.3-0.2471-2-1.9472 0.9-1.5913-2 0.2202-1.5 1.35-0.3 2.7934-0.6 3.2301-2.1 0.2745-0.6 1.7902-2.3 0.0452-1.4-2.0959-0.5-2.1403 2.7-3.6196 2.5-0.5604-0.7 1.2419-2.3-0.6606-1.4-1.2249 0.7-5.3023 1.6-3.8258-0.9 0.7832-1 5.761-0.7 3.2842-2-0.0179-2.2 2.8417 1.5 4.152-0.1 1.8698-0.4-0.3592-1-0.974-1.5-0.7065-0.7-1.5126-0.6-2.3517-0.2l-2.7748 0.7c-1.8137-2.2 4.3478-1.6 1.1711-2.7-1.1472-0.1-1.8955-1.5-1.6338-2.2l20.649 11.9z" fill="#2980b9"/>
  </g>
 </g>
</svg>
