<svg xmlns="http://www.w3.org/2000/svg" width="24" height="24"><g style="text-align:end;line-height:125%;-inkscape-font-specification:FontAwesome" font-size="8" letter-spacing="0" word-spacing="0" text-anchor="end" fill="#2980b9" font-family="FontAwesome" transform="translate(0 -1028.362)"><path d="M9.188 1028.737c-.315-.042-.648.183-1 .813-.474 1.178 2.271 5.338-.094 3.844-1.921 1.088 2.697 1.754 1.969 3.688.585 1.821-1.064.184-1.813-.094-.914-.288-1.268-1.03-1.375-1.938l-.75-2.781c-2.833-.459.819 4.56-1.75 2.375-.664-.941-2.193-.9-2.688-.313-.262.722.478 2.052 1.625 2.156 3.177 1.133-3.001.495-1.188 2.719l2.781-.75c.839-.361 1.637-.397 2.344.25.615.509 2.87 1.096 1 1.5-1.31 1.597-4.174-2.083-4.156.125 2.477 1.301-2.498 1-3.281 2-1.477 2.477 2.588 1.561 3.813.875 1.903-.851.096.708.656 1.344 1.479.262 1.529-2.965 3.625-2.438 1.745-.851.243.742-.031 1.438-.437 1.475-1.9 1.761-3.25 2.031-1.812-.47-2.166 2.451-.219 1.594 2.314-1.332.985.865.25 1.938-.756 2.387 2.371 1.512 2.531-.25 1.133-3.177.495 3.001 2.719 1.188l-.75-2.781c-.361-.839-.397-1.637.25-2.344.509-.615 1.096-2.87 1.5-1 1.597 1.311-2.083 4.174.125 4.156 1.3-2.477 1.003 2.497 2 3.281 2.469 1.476 1.564-2.589.875-3.813-1.049-2.208 1.447.587 1.531-1.094-1.568-.923-2.857-2.102-2.906-4.125l3 1.719c.434.737.485 1.751.781 2.594-.244 1.882 2.258 1.912 1.469-.094-1.408-3.259 2.475 1.564 3.531-.313 1.097-1.853-5.027-2.808-1.5-3.219 2.132-.32.852-2.464-.656-1.313-.878.165-1.77.632-2.625.625l-3-1.719c1.777-.969 3.448-.459 5.031.438 1.413-.914-2.249-1.679.188-1.875 1.404-.015 5.387-1.287 2.875-2.688-1.177-.471-5.338 2.27-3.844-.094-1.088-1.921-1.723 2.697-3.656 1.969-1.821.585-.184-1.033.094-1.781.288-.914.999-1.268 1.906-1.375l2.781-.75c.459-2.833-4.56.788-2.375-1.781 1.445-1.019.627-4.13-1.063-2.281-.561 1.173-1.809 3.42-1.813.75-.231-2.115-2.563-.365-1.25.969.441 1.304.934 2.697-.125 3.813-.465.586-1.114 2.718-1.25.781-1.504-1.552 1.279-3.225.313-4.375-.831-.167-1.286 2.167-1.5.094-.014-1.053-.712-3.562-1.656-3.688z" fill="#3498db"/><path style="text-align:end;line-height:125%;-inkscape-font-specification:FontAwesome" d="M22.302 1046.232c-1.056 1.876-4.94-2.953-3.532.306.789 2.006-1.732 1.961-1.489.079-.296-.843-.349-1.844-.783-2.581l-2.977-1.719c.049 2.023 1.321 3.199 2.889 4.121-.084 1.681-2.584-1.11-1.536 1.098.689 1.224 1.595 5.301-.874 3.826-.997-.784-.701-5.761-2.001-3.284-2.208.018 1.469-2.841-.129-4.152-.404-1.87-.992.359-1.501.974-.647.707-.6 1.513-.239 2.352l.743 2.775c-2.224 1.814-1.583-4.348-2.716-1.171-.16 1.762-3.277 2.628-2.521.241.735-1.072 2.067-3.279-.247-1.947-1.947.857-1.591-2.039.22-1.569 1.35-.27 2.793-.558 3.23-2.032.275-.696 1.79-2.304.045-1.453-2.096-.527-2.14 2.719-3.62 2.457-.56-.636 1.242-2.207-.661-1.356-1.225.686-5.302 1.603-3.826-.874.783-1 5.761-.7 3.284-2.001-.018-2.208 2.842 1.468 4.152-.129 1.87-.404-.359-.992-.974-1.501-.706-.647-1.513-.6-2.352-.239l-2.775.744c-1.814-2.224 4.348-1.583 1.171-2.716-1.147-.104-1.895-1.448-1.634-2.17l20.649 11.922z" font-size="8" letter-spacing="0" word-spacing="0" text-anchor="end" fill="#2980b9" font-family="FontAwesome"/></g></svg>