<svg xmlns="http://www.w3.org/2000/svg" width="24" height="24"><g style="text-align:end;line-height:125%;-inkscape-font-specification:FontAwesome" font-size="8" letter-spacing="0" word-spacing="0" text-anchor="end" fill="#2980b9" font-family="FontAwesome" transform="translate(0 -1028.362)"><path style="text-align:end;line-height:125%;-inkscape-font-specification:FontAwesome" d="M4 1031.362c-1.105 0-2 .895-2 2v16c0 1.105.895 2 2 2h16c1.105 0 2-.895 2-2v-16c0-1.105-.895-2-2-2h-16z" font-size="8" letter-spacing="0" word-spacing="0" text-anchor="end" fill="#c0392b" font-family="FontAwesome"/><path d="M4 1030.362c-1.105 0-2 .895-2 2v16c0 1.105.895 2 2 2h16c1.105 0 2-.895 2-2v-16c0-1.105-.895-2-2-2h-16z" fill="#e74c3c"/><path style="text-align:end;line-height:125%;-inkscape-font-specification:Wingdings" d="M10.875 1035.362c-.484 0-.979.052-1.469.156-.724.162-1.318.547-1.813 1.125-.495.573-.75 1.208-.75 1.938 0 .771.292 1.427.844 1.938.557.51 1.224.75 2 .75.156 0 .323-.005.531-.031l-.031.156-.063.188-.063.156v.156c0 .344.167.755.5 1.188-.396.01-.802.031-1.188.094-.385.057-.797.151-1.219.281-.422.125-.792.318-1.125.563-.333.24-.583.51-.75.844-.193.385-.281.745-.281 1.063 0 .349.063.656.219.938.156.286.38.542.625.719.245.182.526.318.844.438.323.125.625.229.938.281.318.052.63.063.938.063 1.396 0 2.49-.349 3.281-1.031.729-.635 1.094-1.354 1.094-2.188 0-.297-.036-.589-.125-.844-.083-.261-.203-.474-.344-.656-.135-.188-.271-.344-.438-.5-.167-.161-.333-.307-.5-.438l-.469-.375c-.135-.12-.255-.245-.344-.375-.083-.13-.125-.271-.125-.406 0-.188.068-.37.188-.531.12-.167.266-.318.438-.469.172-.156.359-.318.531-.5.172-.182.318-.422.438-.719.12-.302.156-.646.156-1.031 0-.458-.078-.922-.281-1.344-.203-.422-.505-.734-.875-.969h1.063l1.063-.625h-3.438zm-1.063.563c.344 0 .661.099.938.313.281.214.5.484.656.813.161.328.292.677.375 1.031.089.349.125.688.125 1 0 .521-.115.932-.344 1.25-.224.313-.589.469-1.094.469-.266 0-.51-.052-.75-.188-.24-.135-.458-.318-.625-.531-.167-.219-.313-.479-.438-.75s-.219-.542-.281-.813c-.057-.271-.094-.505-.094-.75 0-.5.141-.953.406-1.313.266-.359.641-.531 1.125-.531zm6.188 2.438v2h-2v1h2v2h1v-2h2v-1h-2v-2h-1zm-5.375 5.188h.406l.219.156.25.188.25.188.25.188.219.219.219.219.156.25c.068.094.13.162.156.25l.063.281c.026.099.031.203.031.313 0 .328-.073.63-.219.875-.141.245-.318.427-.563.563-.245.141-.531.25-.813.313-.276.068-.568.094-.875.094-.333 0-.672-.047-1-.125-.328-.078-.635-.182-.938-.344-.297-.156-.531-.375-.719-.656-.182-.276-.281-.583-.281-.938 0-.313.078-.599.219-.844.141-.245.312-.448.531-.594.219-.146.49-.25.781-.344.292-.094.573-.182.844-.219.271-.036.531-.031.813-.031z" font-size="14" letter-spacing="0" word-spacing="0" text-anchor="end" fill="#c0392b" font-family="Wingdings"/><path style="line-height:125%;-inkscape-font-specification:Wingdings" d="M10.875 1034.362c-.484 0-.979.052-1.469.156-.724.162-1.318.547-1.813 1.125-.495.573-.75 1.208-.75 1.938 0 .771.292 1.427.844 1.938.557.51 1.224.75 2 .75.156 0 .323-.005.531-.031l-.031.156-.063.188-.063.156v.156c0 .344.167.755.5 1.188-.396.01-.802.031-1.188.094-.385.057-.797.151-1.219.281-.422.125-.792.318-1.125.563-.333.24-.583.51-.75.844-.193.385-.281.745-.281 1.063 0 .349.063.656.219.938.156.286.38.542.625.719.245.182.526.318.844.438.323.125.625.229.938.281.318.052.63.063.938.063 1.396 0 2.49-.349 3.281-1.031.729-.635 1.094-1.354 1.094-2.188 0-.297-.036-.589-.125-.844-.083-.261-.203-.474-.344-.656-.135-.188-.271-.344-.438-.5-.167-.162-.333-.307-.5-.438l-.469-.375c-.135-.12-.255-.245-.344-.375-.083-.13-.125-.271-.125-.406 0-.188.068-.37.188-.531.12-.167.266-.318.438-.469.172-.156.359-.318.531-.5.172-.182.318-.422.438-.719.12-.302.156-.646.156-1.031 0-.458-.078-.922-.281-1.344-.203-.422-.505-.734-.875-.969h1.063l1.063-.625h-3.438zm-1.063.563c.344 0 .661.099.938.313.281.213.5.484.656.813.161.328.292.677.375 1.031.089.349.125.688.125 1 0 .521-.115.932-.344 1.25-.224.313-.589.469-1.094.469-.266 0-.51-.052-.75-.188-.24-.135-.458-.318-.625-.531-.167-.219-.313-.479-.438-.75s-.219-.542-.281-.813c-.057-.271-.094-.505-.094-.75 0-.5.141-.953.406-1.313.266-.359.641-.531 1.125-.531zm6.188 2.438v2h-2v1h2v2h1v-2h2v-1h-2v-2h-1zm-5.375 5.188h.406l.219.156.25.188.25.188.25.188.219.219.219.219.156.25c.068.094.13.162.156.25l.063.281c.026.099.031.203.031.313 0 .328-.073.63-.219.875-.141.245-.318.427-.563.563-.245.141-.531.25-.813.313-.276.068-.568.094-.875.094-.333 0-.672-.047-1-.125-.328-.078-.635-.182-.938-.344-.297-.156-.531-.375-.719-.656-.182-.276-.281-.583-.281-.938 0-.313.078-.599.219-.844.141-.245.312-.448.531-.594.219-.146.49-.25.781-.344.292-.094.573-.182.844-.219.271-.036.531-.031.813-.031z" font-size="14" font-family="Wingdings" fill="#ecf0f1"/></g></svg>