<svg xmlns="http://www.w3.org/2000/svg" width="24" height="24"><g style="text-align:end;line-height:125%;-inkscape-font-specification:FontAwesome" font-size="8" letter-spacing="0" word-spacing="0" text-anchor="end" fill="#2980b9" font-family="FontAwesome" transform="translate(0 -1028.362)"><path style="text-align:end;line-height:125%;-inkscape-font-specification:FontAwesome" d="M4 1031.362c-1.105 0-2 .895-2 2v16c0 1.105.895 2 2 2h16c1.105 0 2-.895 2-2v-16c0-1.105-.895-2-2-2h-16z" font-size="8" letter-spacing="0" word-spacing="0" text-anchor="end" fill="#1499ca" font-family="FontAwesome"/><path d="M4 1030.362c-1.105 0-2 .895-2 2v16c0 1.105.895 2 2 2h16c1.105 0 2-.895 2-2v-16c0-1.105-.895-2-2-2h-16z" fill="#1ab2e8"/><path style="text-align:end;line-height:125%;-inkscape-font-specification:Wingdings" d="M15.474 1036.479c-.811 0-1.532.26-2.107.836-.569.569-.836 1.259-.836 2.071 0 .218.024.46.073.69-1.199-.061-2.325-.369-3.378-.908-1.047-.545-1.956-1.277-2.688-2.18-.266.454-.4.957-.4 1.489 0 .503.127.987.363 1.417.236.43.545.751.944 1.017-.472-.018-.896-.133-1.308-.363v.036c0 .708.212 1.35.654 1.889.448.533 1.029.841 1.707.981-.254.067-.539.109-.799.109-.17 0-.345-.006-.545-.036.188.587.551 1.072 1.053 1.453.503.375 1.072.569 1.707.581-1.066.836-2.307 1.235-3.669 1.235-.26 0-.478-.012-.69-.036 1.362.878 2.864 1.344 4.504 1.344 1.041 0 2.028-.182 2.942-.508.914-.333 1.677-.757 2.325-1.308.648-.557 1.205-1.205 1.671-1.925.472-.721.823-1.471 1.053-2.252.23-.787.363-1.574.363-2.361l-.036-.399c.575-.418 1.084-.896 1.489-1.489-.563.242-1.144.375-1.707.436.636-.381 1.084-.902 1.308-1.598-.581.345-1.193.563-1.853.69-.581-.618-1.296-.908-2.143-.908z" font-size="14" letter-spacing="0" word-spacing="0" text-anchor="end" fill="#1499ca" font-family="Wingdings"/><path style="text-align:end;line-height:125%;-inkscape-font-specification:Wingdings" d="M15.474 1035.479c-.811 0-1.532.26-2.107.836-.569.569-.836 1.259-.836 2.07 0 .218.024.46.073.69-1.199-.061-2.325-.369-3.378-.908-1.047-.545-1.956-1.277-2.688-2.18-.266.454-.4.957-.4 1.489 0 .503.127.987.363 1.417.236.43.545.751.944 1.017-.472-.018-.896-.133-1.308-.363v.036c0 .708.212 1.35.654 1.889.448.533 1.029.841 1.707.981-.254.067-.539.109-.799.109-.17 0-.345-.006-.545-.036.188.587.551 1.072 1.053 1.453.503.375 1.072.569 1.707.581-1.066.836-2.307 1.235-3.669 1.235-.26 0-.478-.012-.69-.036 1.362.878 2.864 1.344 4.504 1.344 1.041 0 2.028-.182 2.942-.508.914-.333 1.677-.757 2.325-1.308.648-.557 1.205-1.205 1.671-1.925.472-.721.823-1.471 1.053-2.252.23-.787.363-1.574.363-2.361l-.036-.399c.575-.418 1.084-.896 1.489-1.489-.563.242-1.144.375-1.707.436.636-.381 1.084-.902 1.308-1.598-.581.345-1.193.563-1.853.69-.581-.618-1.296-.908-2.143-.908z" font-size="14" letter-spacing="0" word-spacing="0" text-anchor="end" fill="#ecf0f1" font-family="Wingdings"/></g></svg>