<svg xmlns="http://www.w3.org/2000/svg" width="24" height="24"><g style="text-align:end;line-height:125%;-inkscape-font-specification:FontAwesome" font-size="8" letter-spacing="0" word-spacing="0" text-anchor="end" fill="#2980b9" font-family="FontAwesome" transform="translate(0 -1028.362)"><path style="text-align:end;line-height:125%;-inkscape-font-specification:FontAwesome" d="M4 1031.362c-1.105 0-2 .895-2 2v16c0 1.105.895 2 2 2h16c1.105 0 2-.895 2-2v-16c0-1.105-.895-2-2-2h-16z" font-size="8" letter-spacing="0" word-spacing="0" text-anchor="end" fill="#30497b" font-family="FontAwesome"/><path d="M4 1030.362c-1.105 0-2 .895-2 2v16c0 1.105.895 2 2 2h16c1.105 0 2-.895 2-2v-16c0-1.105-.895-2-2-2h-16z" fill="#3b5998"/><path style="text-align:end;line-height:125%;-inkscape-font-specification:FontAwesome" d="M17 1034.362c-2.209 0-4 1.791-4 4v3h-2v3h2v7h3v-7h2.454l.546-3h-3v-3c0-.552.448-1 1-1h2v-3z" font-size="8" letter-spacing="0" word-spacing="0" text-anchor="end" fill="#30497b" font-family="FontAwesome"/><path d="M17 1033.362c-2.209 0-4 1.791-4 4v3h-2v3h2v7h3v-7h2.454l.546-3h-3v-3c0-.552.448-1 1-1h2v-3z" fill="#ecf0f1"/><rect width="3" height="1" x="13" y="22" transform="translate(0 1028.362)" fill="#bdc3c7"/></g></svg>