<svg xmlns="http://www.w3.org/2000/svg" width="24" height="24"><g style="text-align:end;line-height:125%;-inkscape-font-specification:FontAwesome" font-size="8" letter-spacing="0" word-spacing="0" text-anchor="end" fill="#2980b9" font-family="FontAwesome" transform="translate(0 -1028.362)"><path style="text-align:end;line-height:125%;-inkscape-font-specification:FontAwesome" d="M12 1039.362c-3.01 0-5.241.093-6.726.248-.479.054-.91.248-1.267.558-.357.31-.601.69-.715 1.147-.211.898-.292 2.219-.292 4.031 0 1.843.081 3.195.292 4.062.105.457.358.838.715 1.147.365.31.764.512 1.235.558 1.493.163 3.748.248 6.758.248s5.265-.086 6.758-.248c.471-.046.91-.248 1.267-.558.357-.31.569-.69.682-1.147.211-.898.292-2.25.292-4.062 0-1.843-.081-3.164-.292-4.031-.106-.457-.317-.837-.682-1.147-.357-.31-.797-.504-1.267-.558-1.493-.155-3.748-.248-6.758-.248z" font-size="8" letter-spacing="0" word-spacing="0" text-anchor="end" fill="#c0392b" font-family="FontAwesome"/><path style="text-align:end;line-height:125%;-inkscape-font-specification:FontAwesome" d="M12 1038.362c-3.01 0-5.241.093-6.726.248-.479.054-.91.248-1.267.558-.357.31-.601.69-.715 1.147-.211.898-.292 2.219-.292 4.031 0 1.843.081 3.195.292 4.062.105.457.358.838.715 1.147.365.31.764.512 1.235.558 1.493.163 3.748.248 6.758.248s5.265-.086 6.758-.248c.471-.046.91-.248 1.267-.558.357-.31.569-.69.682-1.147.211-.898.292-2.25.292-4.062 0-1.843-.081-3.164-.292-4.031-.106-.457-.317-.837-.682-1.147-.357-.31-.797-.504-1.267-.558-1.493-.155-3.748-.248-6.758-.248z" font-size="8" letter-spacing="0" word-spacing="0" text-anchor="end" fill="#e74c3c" font-family="FontAwesome"/><path d="M6.5 1029.362l1.5 5v3h1v-3l1.5-5h-1l-1 3.344-1-3.344h-1zm6 2c-.828 0-1.5.672-1.5 1.5v3c0 .828.672 1.5 1.5 1.5s1.5-.672 1.5-1.5v-3c0-.828-.672-1.5-1.5-1.5zm2.5 0v4.75c0 .382.036.664.094.844.093.277.326.406.656.406.359 0 .869-.223 1.25-.688v.688h1v-6h-1v4.594c-.216.322-.587.5-.781.5-.129 0-.197-.085-.219-.25v-4.844h-1zm-2.5 1c.276 0 .5.224.5.5v3c0 .276-.224.5-.5.5s-.5-.224-.5-.5v-3c0-.276.224-.5.5-.5z" fill="#202020"/><rect width="4" height="1" x="4.5" y="1040.362" fill="#ecf0f1"/><rect width="1" height="7" x="6" y="1041.362" fill="#ecf0f1"/><path style="text-align:end;line-height:125%;-inkscape-font-specification:FontAwesome" d="M8 1042.362v4.75c0 .382.036.664.094.844.093.277.326.406.656.406.359 0 .869-.223 1.25-.688v.688h1v-6h-1v4.594c-.216.322-.587.5-.781.5-.129 0-.197-.085-.219-.25v-4.844h-1z" font-size="8" letter-spacing="0" word-spacing="0" text-anchor="end" fill="#ecf0f1" font-family="FontAwesome"/><path style="text-align:end;line-height:125%;-inkscape-font-specification:FontAwesome" d="M12 1040.362v8h1v-.688c.381.464.891.688 1.25.688.331 0 .563-.129.656-.406.058-.18.094-.462.094-.844v-3.5c0-.382-.036-.664-.094-.844-.093-.277-.326-.406-.656-.406-.359 0-.869.223-1.25.688v-2.6879999999999997h-1zm1.781 2.906c.129 0 .197.085.219.25v3.688c-.022.165-.089.25-.219.25-.194 0-.566-.178-.781-.5v-3.1879999999999997c.216-.322.587-.5.781-.5z" font-size="8" letter-spacing="0" word-spacing="0" text-anchor="end" fill="#ecf0f1" font-family="FontAwesome"/><path style="text-align:end;line-height:125%;-inkscape-font-specification:FontAwesome" d="M17.5 1042.362c-.828 0-1.5.672-1.5 1.5v3c0 .828.672 1.5 1.5 1.5s1.5-.672 1.5-1.5v-.5h-1v.5c0 .276-.224.5-.5.5s-.5-.224-.5-.5v-1.5h2v-1.5c0-.828-.672-1.5-1.5-1.5zm0 1c.276 0 .5.224.5.5v.5h-1v-.5c0-.276.224-.5.5-.5z" font-size="8" letter-spacing="0" word-spacing="0" text-anchor="end" fill="#ecf0f1" font-family="FontAwesome"/></g></svg>