<?xml version="1.0" encoding="UTF-8" standalone="no"?>
<svg xmlns:rdf="http://www.w3.org/1999/02/22-rdf-syntax-ns#" xmlns="http://www.w3.org/2000/svg" height="24" width="24" version="1.1" xmlns:cc="http://creativecommons.org/ns#" xmlns:dc="http://purl.org/dc/elements/1.1/">
 <g transform="translate(0 -1028.4)">
  <path d="m2 4v13.531 2.469c0 1.105 0.8954 2 2 2h4 8l6-6v-12h-20z" transform="translate(0 1028.4)" fill="#f1c40f"/>
  <g fill="#f39c12">
   <path d="m5 9v1h14v-1h-14zm0 3v1h14v-1h-14zm0 3v1h7v-1h-7z" transform="translate(0 1028.4)"/>
   <path d="m22 1044.4-6 6v-4c0-1.1 0.895-2 2-2h4z"/>
   <path d="m2 1033.4v-1c0-1.1 0.8954-2 2-2h4 8 4c1.105 0 2 0.9 2 2v1h-20z"/>
  </g>
 </g>
</svg>
