<svg xmlns="http://www.w3.org/2000/svg" width="24" height="24"><g transform="translate(0 -1028.362)"><path d="M7 1034.362c-3.314 0-6 2.686-6 6s2.686 6 6 6h10c3.314 0 6-2.686 6-6s-2.686-6-6-6h-10z" fill="#95a5a6"/><path d="M7 1033.362c-3.314 0-6 2.686-6 6s2.686 6 6 6h10c3.314 0 6-2.686 6-6s-2.686-6-6-6h-10z" fill="#bdc3c7"/><path d="M7 1035.362c-2.209 0-4 1.791-4 4s1.791 4 4 4h10c2.209 0 4-1.791 4-4s-1.791-4-4-4h-10z" fill="#e74c3c"/><path d="M7 1035.362c-2.209 0-4 1.791-4 4 0 .17.042.335.063.5.247-1.972 1.898-3.5 3.938-3.5h10c2.039 0 3.69 1.528 3.938 3.5.021-.165.063-.33.063-.5 0-2.209-1.791-4-4-4h-10z" fill="#c0392b"/><g transform="translate(-11.5 -11.4)"><path d="M23.523 1050.122l-.023 1.141c-.04 1.933 1.567 3.5 3.5 3.5h1.5c2.209 0 4-1.791 4-4 0-.346-.074-.68-.156-1z" fill="#7f8c8d"/><path d="M27 1046.762c-1.933 0-3.5 1.567-3.5 3.5s1.567 3.5 3.5 3.5h2c1.933 0 3.5-1.567 3.5-3.5s-1.567-3.5-3.5-3.5h-2z" fill="#ecf0f1"/><path d="M26 1047.762c-.276 0-.5.179-.5.4v3.2c0 .221.224.4.5.4s.5-.179.5-.4v-3.2c0-.221-.224-.4-.5-.4z" fill="#bdc3c7"/><path d="M28 1047.762c-.276 0-.5.179-.5.4v3.2c0 .221.224.4.5.4s.5-.179.5-.4v-3.2c0-.221-.224-.4-.5-.4z" fill="#bdc3c7"/><path d="M30 1047.762c-.276 0-.5.179-.5.4v3.2c0 .221.224.4.5.4s.5-.179.5-.4v-3.2c0-.221-.224-.4-.5-.4z" fill="#bdc3c7"/></g></g></svg>