<?xml version="1.0" encoding="UTF-8" standalone="no"?>
<svg xmlns:rdf="http://www.w3.org/1999/02/22-rdf-syntax-ns#" xmlns="http://www.w3.org/2000/svg" height="24" width="24" version="1.1" xmlns:cc="http://creativecommons.org/ns#" xmlns:dc="http://purl.org/dc/elements/1.1/">
 <g transform="translate(0 -1028.4)">
  <path d="m18 1051.4c0.552 0 1-0.5 1-1v-1-1-1-1-11-1-1-1c0-0.6-0.448-1-1-1h-1-1-9-1c-0.5523 0-1 0.4-1 1v1 16 1c0 0.5 0.4477 1 1 1h1 9 1 1z" fill="#7f8c8d"/>
  <path d="m6 1030.4c-0.5523 0-1 0.4-1 1v1 1 1 1 11 1 1 1c0 0.5 0.4477 1 1 1h1 1 9 1c0.552 0 1-0.5 1-1v-1-16-1c0-0.6-0.448-1-1-1h-1-9-1-1z" fill="#95a5a6"/>
  <rect transform="translate(0 1028.4)" height="16" width="12" y="3" x="6" fill="#2c3e50"/>
  <path d="m6 1031.4v10l12-6.9v-3.1h-12z" fill="#34495e"/>
  <path d="m11.5 20c-0.276 0-0.5 0.224-0.5 0.5s0.224 0.5 0.5 0.5h1c0.276 0 0.5-0.224 0.5-0.5s-0.224-0.5-0.5-0.5h-1z" transform="translate(0 1028.4)" fill="#7f8c8d"/>
 </g>
</svg>
