<svg xmlns="http://www.w3.org/2000/svg" width="24" height="24"><g><path d="M2 1c-1.105 0-2 .895-2 2v7.218999999999999c.016.527.246 1.027.594 1.375l10.969 10.969c.364.38.87.594 1.438.594.567 0 1.073-.214 1.438-.594l7.063-7.063c.408-.366.656-.909.656-1.5s-.249-1.134-.656-1.5l-10.906-10.906c-.355-.355-.867-.585-1.406-.594h-7.186999999999999zm3 3c1.105 0 2 .895 2 2s-.895 2-2 2-2-.895-2-2 .895-2 2-2z" fill="#8e44ad"/><path d="M2 0c-1.105 0-2 .895-2 2v7.218999999999999c.016.527.246 1.027.594 1.375l10.969 10.969c.364.38.87.594 1.438.594.567 0 1.073-.214 1.438-.594l7.063-7.063c.408-.366.656-.909.656-1.5s-.249-1.134-.656-1.5l-10.906-10.906c-.355-.355-.867-.585-1.406-.594h-7.186999999999999zm3 3c1.105 0 2 .895 2 2s-.895 2-2 2-2-.895-2-2 .895-2 2-2z" fill="#9b59b6"/><path d="M13 21l7-7-8-8-7 7z" fill="#8e44ad"/><path d="M13 20l7-7-8-8-7 7z" fill="#ecf0f1"/><path d="M12 8l-3.5 3.5-.5.5.5.5 4-4-.5-.5zm2 2l-3.5 3.5-.5.5.5.5 4-4-.5-.5zm2 2l-3.5 3.5-.5.5.5.5 4-4-.5-.5z" fill="#7f8c8d"/></g></svg>