<?xml version="1.0" encoding="UTF-8" standalone="no"?>
<svg xmlns:rdf="http://www.w3.org/1999/02/22-rdf-syntax-ns#" xmlns="http://www.w3.org/2000/svg" height="24" width="24" version="1.1" xmlns:cc="http://creativecommons.org/ns#" xmlns:dc="http://purl.org/dc/elements/1.1/">
 <g transform="translate(0 -1028.4)">
  <path d="m1.5966 1030c-0.3905 0.4-0.5966 0.9-0.5966 1.4l-0.0221 7v0.1c0.01903 0.5 0.2035 0.9 0.5303 1.3h0.0663l11.424 11.5c0.782 0.8 2.048 0.8 2.829 0l3.536-3.6 3.535-3.5c0.781-0.8 0.781-2 0-2.8l-11.424-11.5h-0.066c-0.359-0.3-0.828-0.5-1.282-0.5h-0.088-7.0493c-0.5118 0-1.0016 0.2-1.3921 0.6zm1.5026 1.5c0.7811-0.8 2.0474-0.8 2.8285 0 0.781 0.8 0.781 2 0 2.8-0.7811 0.8-2.0474 0.8-2.8285 0-0.781-0.8-0.781-2 0-2.8z" fill="#2ecc71"/>
  <path d="m1 4.875l-0.03125 5.281v0.063c0.01903 0.454 0.20445 0.922 0.53125 1.281 0.0211 0.023 0.0401 0.071 0.0625 0.094l11.438 11.406c0.781 0.781 2.031 0.781 2.812 0l3.563-3.531 3.531-3.531c0.466-0.466 0.621-1.114 0.532-1.719-0.096 0.285-0.242 0.554-0.469 0.781l-3.531 3.531-3.532 3.531c-0.781 0.782-2.062 0.782-2.844 0l-11.406-11.437c-0.0221-0.022-0.0411-0.039-0.0622-0.063-0.3269-0.358-0.5123-0.8266-0.5313-1.2808v-0.0624-4.3438h-0.0625z" transform="translate(0 1028.4)" fill="#27ae60"/>
  <g transform="matrix(.70711 .70711 -.70711 .70711 751.56 340.89)">
   <path d="m-33 1012.4c-0.552 0-1 0.4-1 1v8c0 0.5 0.448 1 1 1h12c0.552 0 1-0.5 1-1v-8c0-0.6-0.448-1-1-1h-12z" fill="#ecf0f1"/>
   <g fill="#bdc3c7">
    <rect height="1" width="10" y="1014.4" x="-32"/>
    <rect height="1" width="10" y="1016.4" x="-32"/>
    <rect height="1" width="10" y="1019.4" x="-32"/>
   </g>
  </g>
  <path d="m4.5078 1030.9c-1.1046 0-2 0.9-2 2 0 0.1 0.0214 0.3 0.0625 0.5 0.222-0.9 1.0055-1.5 1.9375-1.5s1.7155 0.6 1.9375 1.5c0.0411-0.2 0.0625-0.4 0.0625-0.5 0-1.1-0.8954-2-2-2z" fill="#27ae60"/>
 </g>
</svg>
