<svg xmlns="http://www.w3.org/2000/svg" width="24" height="24"><g><path d="M14.606 2c-1.323-.143-1.449 1.492-1.775 2.451-.598 2.611-2.602 4.755-5.042 5.539-2.262.022-4.526.003-6.789.009v10c2.274.011 4.55-.023 6.822.017 1.495.292 2.589 1.629 4.12 1.839 1.709.261 3.45.099 5.173.139 1.255-.03 2.787.173 3.676-.978.381-.893.043-2.061 1.189-2.448 1.029-.759-.22-2.018.292-2.945.658-.66 1.084-1.793.318-2.562-.953-.901.32-2.348-.772-3.244-.823-.79-2.041-.494-3.06-.591l-2.897-.04c-.763-.643.172-1.749.147-2.577.139-1.079.247-2.227-.052-3.284-.205-.627-.639-1.325-1.351-1.327z" fill="#95a5a6"/><path d="M1 15v5c2.274.011 4.541-.009 6.813.031 1.495.292 2.594 1.602 4.125 1.813 1.709.261 3.465.116 5.188.156 1.255-.03 2.767.182 3.656-.969.381-.893.042-2.081 1.188-2.469 1.029-.759-.2-2.011.313-2.938.18-.18.343-.391.469-.625h-21.75z" fill="#7f8c8d"/><path d="M14.534 2c-1.373-.119-1.499 1.686-1.817 2.694-.689 2.49-2.614 4.599-5.007 5.284-2.232.049-4.473.009-6.709.022v10c.738.253.817-.321.744-.913v-8.055c2.286-.03 4.586.061 6.862-.046 2.375-.805 4.295-2.924 4.909-5.469.281-.947.453-2.591 1.724-2.475 1.324.469-.309-1.279-.706-1.04zm1.276 7.207c.254 1.416 1.777.954 2.756 1.037 1.144.029 2.331-.042 3.435.253-.031-.988-1.261-1.292-2.068-1.23-1.373-.089-2.748-.033-4.122-.06z" fill="#bdc3c7"/><path d="M1 9v6h6v-5.5c0-.276-.224-.5-.5-.5h-5.5z" fill="#ecf0f1"/><path d="M0 9v6h6v-5.5c0-.276-.224-.5-.5-.5h-5.5z" fill="#3498db"/><path d="M1 21v-6h6v5.5c0 .276-.224.5-.5.5h-5.5z" fill="#bdc3c7"/><path d="M0 21v-6h6v5.5c0 .276-.224.5-.5.5h-5.5z" fill="#2980b9"/></g></svg>