<svg xmlns="http://www.w3.org/2000/svg" width="24" height="24"><g><path d="M3 4v17c0 1.105.895 2 2 2h14c1.105 0 2-.895 2-2v-17c0 1.105-.895 2-2 2h-14c-1.105 0-2-.895-2-2z" fill="#bdc3c7"/><path d="M3 5v4.719c.295.171.635.281 1 .281h16c.365 0 .705-.111 1-.281v-4.719c0 1.105-.895 2-2 2h-14c-1.105 0-2-.895-2-2z" fill="#95a5a6"/><path d="M12 9l-1.156.031-1.938 3.344 1.75 1 1.344-2.344 1 1.719-.875.5 2.75.75.719-2.75-.875.5-1.563-2.719-.031-.031h-1.125zm-2.563 5.063l-2.75.75.875.5-1.594 2.719v.031l1.156 1.969h3.875v-2h-2.719l1-1.719.875.5-.719-2.75zm6.938.625l-1.719 1 1.344 2.344h-2v-1l-2 2 2 2v-1h3.1870000000000003l1.125-2-1.938-3.344z" fill="#27ae60"/><path d="M3 21v1c0 1.105.895 2 2 2h14c1.105 0 2-.895 2-2v-1c0 1.105-.895 2-2 2h-14c-1.105 0-2-.895-2-2z" fill="#95a5a6"/><path d="M4 1c-1.105 0-2 .895-2 2v4c0 1.105.895 2 2 2h16c1.105 0 2-.895 2-2v-4c0-1.105-.895-2-2-2h-16z" fill="#bdc3c7"/><path d="M5 2c-.552 0-1 .448-1 1v3c0 .552.448 1 1 1h14c.552 0 1-.448 1-1v-3c0-.552-.448-1-1-1h-14z" fill="#7f8c8d"/><path d="M12 9l-1.156.031-.563.969h3.438l-.563-.969-.031-.031h-1.125z" fill="#7f8c8d"/><path d="M10.438 1.438l-.781.563-.375.281-.281-.281-1 1h-1l-1-1-2 2v2c0 .552.448 1 1 1h14c.552 0 1-.448 1-1l-1-1v-1h-1l-1-1h-2v-.5h-1l-.313-.5-.281-.406-.406.406-1 1-1-1-.563-.563z" fill="#ecf0f1"/></g></svg>