<?xml version="1.0" encoding="UTF-8" standalone="no"?>
<svg xmlns:rdf="http://www.w3.org/1999/02/22-rdf-syntax-ns#" xmlns="http://www.w3.org/2000/svg" height="24" width="24" version="1.1" xmlns:cc="http://creativecommons.org/ns#" xmlns:dc="http://purl.org/dc/elements/1.1/">
 <g transform="translate(0 -1028.4)">
  <path d="m3 1029.4c-1.1046 0-2 0.9-2 2v1 1 3 6 6c0 1.1 0.8954 2 2 2h4 10 4c1.105 0 2-0.9 2-2v-6-6-3-1-1c0-1.1-0.895-2-2-2h-4-10-4z" fill="#f1c40f"/>
  <path d="m3 1030.4c-1.1046 0-2 0.9-2 2v6 6 6c0 1.1 0.8954 2 2 2h4 10 4c1.105 0 2-0.9 2-2v-6-6-6c0-1.1-0.895-2-2-2h-4-10-4z" fill="#f39c12"/>
  <path d="m3 1030.4c-1.1046 0-2 0.9-2 2v1 1 3 6 6c0 1.1 0.8954 2 2 2h4 10 4c1.105 0 2-0.9 2-2v-6-6-3-1-1c0-1.1-0.895-2-2-2h-4-10-4z" fill="#f1c40f"/>
  <path d="m18.364 1035c3.515 3.5 3.515 9.2 0 12.7s-9.2132 3.5-12.728 0c-3.5147-3.5-3.5147-9.2 0-12.7 3.5148-3.5 9.213-3.5 12.728 0zm-4.455 4.5c-1.054-1.1-2.764-1.1-3.818 0-1.0546 1-1.0546 2.7 0 3.8 1.054 1 2.764 1 3.818 0 1.055-1.1 1.055-2.8 0-3.8z" fill="#f39c12"/>
  <path d="m5.636 1034c-3.5147 3.5-3.5147 9.2 0 12.7 3.5148 3.5 9.213 3.5 12.728 0s3.515-9.2 0-12.7-9.2132-3.5-12.728 0zm4.455 4.5c1.054-1.1 2.764-1.1 3.818 0 1.055 1 1.055 2.7 0 3.8-1.054 1-2.764 1-3.818 0-1.0546-1.1-1.0546-2.8 0-3.8z" fill="#34495e"/>
  <g fill="#ecf0f1">
   <path d="m4.2053 1035.9c-0.3605 0.6-0.6241 1.2-0.8214 1.9l6.2774 1.2-4.1961-4.8c-0.4747 0.5-0.8994 1-1.2599 1.7z"/>
   <path d="m19.794 1044.9c0.36-0.7 0.624-1.3 0.821-2l-6.277-1.2 4.196 4.8c0.475-0.5 0.899-1 1.26-1.6z"/>
   <path d="m12 1036.8c-1.988 0-3.5938 1.6-3.5938 3.6s1.6058 3.6 3.5938 3.6 3.594-1.6 3.594-3.6-1.606-3.6-3.594-3.6zm0 2.6c0.552 0 1 0.4 1 1 0 0.5-0.448 1-1 1s-1-0.5-1-1c0-0.6 0.448-1 1-1z"/>
  </g>
  <path d="m21 3.5a1.5 1.5 0 1 1 -3 0 1.5 1.5 0 1 1 3 0z" transform="translate(.5 1029.9)" fill="#95a5a6"/>
  <g transform="matrix(.45711 .45711 -.70711 .70711 738.57 287.37)">
   <rect height="10" width="2" y="1031.4" x="29" fill="#bdc3c7"/>
   <rect height="10" width="1" y="1031.4" x="30" fill="#7f8c8d"/>
  </g>
  <path d="m13 12a1 1 0 1 1 -2 0 1 1 0 1 1 2 0z" transform="translate(0 1028.4)" fill="#f39c12"/>
  <path d="m12 1039.4c-0.552 0-1 0.4-1 1h2c0-0.6-0.448-1-1-1z" fill="#e67e22"/>
 </g>
</svg>
