<svg xmlns="http://www.w3.org/2000/svg" width="24" height="24"><g><path d="M3 5c-1.105 0-2 .895-2 2v11c0 1.105.895 2 2 2h18c1.105 0 2-.895 2-2v-11c0-1.105-.895-2-2-2h-18z" fill="#95a5a6"/><path d="M3 4c-1.105 0-2 .895-2 2v11c0 1.105.895 2 2 2h18c1.105 0 2-.895 2-2v-11c0-1.105-.895-2-2-2h-18z" fill="#bdc3c7"/><path d="M13 7v1h4v-1h-4zm0 2v1h7v-1h-7zm0 2v1h7v-1h-7z" fill="#7f8c8d"/><path d="M4 6c-.552 0-1 .448-1 1v9c0 .552.448 1 1 1h6c.552 0 1-.448 1-1v-9c0-.552-.448-1-1-1h-6z" fill="#ecf0f1"/><path d="M7 7.125c-.665-.007-1.28.365-1.732.828-.387.46-.61 1.03-.755 1.606-.422.346-.371.963-.059 1.395.33.371.325.921.576 1.348.104.476.697.719.697 1.175.149.637-.71.411-1.097.618-.54.247-1.247.491-1.629.871.04.547-.11 1.138.125 1.652.2.448.7.401 1.103.382h6.208c.459-.203.621-.741.563-1.206v-.919c-.705-.322-1.36-.782-2.14-.907-.462-.017-.662-.312-.699-.752.643-.508.983-1.294 1.213-2.06.36-.358.655-1.117.184-1.479-.231-.448-.264-.981-.583-1.391-.422-.672-1.176-1.14-1.976-1.16z" fill="#34495e"/></g></svg>