<?xml version="1.0" encoding="UTF-8" standalone="no"?>
<svg xmlns:rdf="http://www.w3.org/1999/02/22-rdf-syntax-ns#" xmlns="http://www.w3.org/2000/svg" height="24" width="24" version="1.1" xmlns:cc="http://creativecommons.org/ns#" xmlns:dc="http://purl.org/dc/elements/1.1/">
 <g transform="translate(0 -1028.4)">
  <path d="m4 1034.4c-1.1046 0-2 0.9-2 2v10c0 1.1 0.8954 2 2 2h16c1.105 0 2-0.9 2-2v-10c0-1.1-0.895-2-2-2h-16z" fill="#95a5a6"/>
  <path d="m4 5c-1.1046 0-2 0.8954-2 2v10c0 1.105 0.8954 2 2 2h16c1.105 0 2-0.895 2-2v-10c0-1.1046-0.895-2-2-2h-16z" transform="translate(0 1028.4)" fill="#bdc3c7"/>
  <rect height="10" width="7" y="1035.4" x="4" fill="#ecf0f1"/>
  <path d="m7.3125 8a2.5 2.5 0 0 0 -2.3125 2.5 2.5 2.5 0 0 0 0.8125 1.844c-0.7184 0.297-1.3395 0.769-1.8125 1.375v2.281 1h7v-1-2.312c-0.474-0.592-1.1053-1.052-1.8125-1.344a2.5 2.5 0 0 0 0.8125 -1.844 2.5 2.5 0 0 0 -2.6875 -2.5z" transform="translate(0 1028.4)" fill="#2c3e50"/>
  <path d="m13 8v1h4v-1h-4zm0 2v1h7v-1h-7zm0 2v1h7v-1h-7z" transform="translate(0 1028.4)" fill="#7f8c8d"/>
 </g>
</svg>
