<svg xmlns="http://www.w3.org/2000/svg" width="24" height="24"><g transform="translate(0 -1028.362)"><path d="M6.063 1042.362c1.465.614 3.568 1 5.938 1 2.369 0 4.473-.386 5.938-1h-11.875z" fill="#d35400"/><path d="M7 1033.362h10l1 9h-12z" fill="#d35400"/><path d="M8 1044.362l-6.856 3.395c-.895.54-1.229 1.617-1.144 2.611.042.626-.181 1.407.441 1.823.591.304 1.284.121 1.925.171 6.912-.003 13.824.007 20.736-.005.768-.054.973-.866.898-1.501.014-.932.068-1.975-.658-2.687-.592-.602-1.435-.83-2.157-1.24l-5.185-2.568h-8z" fill="#16a085"/><rect width="6" height="5" x="9" y="1041.362" fill="#95a5a6"/><path d="M12 1028.362c-2.963 0-5.418 2.69-5.906 6.219-.113-.031-.24-.065-.344-.031-.525.171-.654 1.168-.313 2.219.201.616.535 1.101.875 1.375.776 3.018 3.015 5.219 5.688 5.219 2.672 0 4.911-2.201 5.688-5.219.34-.274.674-.759.875-1.375.342-1.05.213-2.048-.313-2.219-.104-.034-.23 0-.344.031-.488-3.529-2.944-6.219-5.906-6.219z" fill="#bdc3c7"/><path d="M8 1044.362c0 2.13 1.791 9 4 9s4-6.87 4-9z" fill="#ecf0f1"/><path d="M12 1028.362c-3.587.066-7.127 3.643-7 7-.051 2.222.999 4.62 1.038 6.825 1.047-1.245 1.01-2.934.967-4.482.212-1.139.01-2.691.994-3.343 2.374-1.148 3.819-3.424 4.594-5.969-.198-.02-.395-.03-.594-.031z" fill="#f39c12"/><path d="M46.5 994.862c0 5.247-4.701 9.5-10.5 9.5s-10.5-4.253-10.5-9.5 4.701-9.5 10.5-9.5 10.5 4.253 10.5 9.5z" fill="#ecf0f1"/><path d="M51.5 1004.862c0 4.142-2.686 7.5-6 7.5s-6-3.358-6-7.5c0-4.142 2.686-7.5 6-7.5s6 3.358 6 7.5z" fill="#ecf0f1"/><path d="M8 1044.362c0 1.42 1.791 6 4 6s4-4.58 4-6z" fill="#95a5a6"/><path d="M-36.594 1022.956h10l1 10h-12z" fill="#2c3e50"/><path d="M-35.594 1033.956l-6.856 3.395c-.895.54-1.229 1.617-1.144 2.611.042.626-.181 1.407.441 1.823.591.304 1.284.121 1.925.171 6.912-.003 13.824.007 20.736-.005.768-.054.973-.866.898-1.501.014-.932.068-1.975-.658-2.687-.592-.602-1.435-.83-2.157-1.24l-5.185-2.568h-8z" fill="#d35400"/><rect width="6" height="5" x="-34.594" y="1030.956" fill="#95a5a6"/><path d="M-31.594 1017.956c-2.963 0-5.418 2.69-5.906 6.219-.113-.031-.24-.065-.344-.031-.525.171-.654 1.168-.313 2.219.201.616.535 1.101.875 1.375.776 3.018 3.015 5.219 5.688 5.219 2.672 0 4.911-2.201 5.688-5.219.34-.274.674-.759.875-1.375.342-1.05.213-2.048-.313-2.219-.104-.034-.23 0-.344.031-.488-3.529-2.944-6.219-5.906-6.219z" fill="#bdc3c7"/><path d="M-35.594 1033.956c0 2.13 1.791 9 4 9s4-6.87 4-9z" fill="#ecf0f1"/><path d="M-31.594 1017.956c-3.017 0-5.514 2.782-5.938 6.406 3.174-1.038 5.62-3.408 6.531-6.375-.192-.023-.397-.031-.594-.031z" fill="#34495e"/><path d="M-31.531 1017.956c3.017 0 5.514 2.782 5.938 6.406-3.174-1.038-5.62-3.408-6.531-6.375.192-.023.397-.031.594-.031z" fill="#2c3e50"/><path d="M-35.594 1033.956c0 1.42 1.791 6 4 6s4-4.58 4-6z" fill="#95a5a6"/><path d="M12 1028.362c3.587.066 7.127 3.643 7 7 .051 2.222-.999 4.62-1.038 6.825-1.047-1.245-1.01-2.934-.967-4.482-.212-1.139-.01-2.691-.994-3.343-2.374-1.148-3.819-3.424-4.594-5.969.198-.02.395-.03.594-.031z" fill="#e67e22"/></g></svg>