<svg xmlns="http://www.w3.org/2000/svg" width="24" height="24"><g transform="translate(0 -1028.362)"><path d="M8 1044.362l-6.856 3.395c-.895.54-1.229 1.617-1.144 2.611.042.626-.181 1.407.441 1.823.591.304 1.284.121 1.925.171 6.912-.003 13.824.007 20.736-.005.768-.054.973-.866.898-1.501.014-.932.068-1.975-.658-2.687-.592-.602-1.435-.83-2.157-1.24l-5.185-2.568h-8z" fill="#c0392b"/><path d="M8 1044.362l-.969.5c.197 1.951 2.337 3.5 4.969 3.5 2.646 0 4.792-1.566 4.969-3.531l-.969-.469h-8z" fill="#ecf0f1"/><rect width="6" height="5" x="9" y="1041.362" fill="#95a5a6"/><path d="M12 1028.362c-2.963 0-5.418 2.69-5.906 6.219-.113-.031-.24-.065-.344-.031-.525.171-.654 1.168-.313 2.219.201.616.535 1.101.875 1.375.776 3.018 3.015 5.219 5.688 5.219 2.672 0 4.911-2.201 5.688-5.219.34-.274.674-.759.875-1.375.342-1.05.213-2.048-.313-2.219-.104-.034-.23 0-.344.031-.488-3.529-2.944-6.219-5.906-6.219z" fill="#bdc3c7"/><path d="M11.98 1028.362c-2.043-.022-3.939 1.353-4.98 3.228-.53.929-.884 1.968-1.04 3.048.334-.155.6.042.903-.299.629-.61.908-1.168 1.137-1.977.39-.853 1.243-2.233 2-2 .693.243 1 .634 2 .634s1.307-.39 2-.634c.757-.233 1.61 1.147 2 2 .228.81.468 1.368 1.097 1.977.303.341.569.144.903.299-.156-1.081-.51-2.119-1.04-3.048-1.041-1.875-2.937-3.25-4.98-3.228z" fill="#f39c12"/><path d="M8 1044.362c0 1.657 1.791 3 4 3s4-1.343 4-3h-8z" fill="#95a5a6"/></g></svg>