<?xml version="1.0" encoding="UTF-8" standalone="no"?>
<svg xmlns:rdf="http://www.w3.org/1999/02/22-rdf-syntax-ns#" xmlns="http://www.w3.org/2000/svg" height="24" width="24" version="1.1" xmlns:cc="http://creativecommons.org/ns#" xmlns:dc="http://purl.org/dc/elements/1.1/">
 <g transform="translate(0 -1028.4)">
  <path d="m12 1031.4c-0.985-0.1-1.715 0.7-2.0312 1.6-2.6054 5.2-5.2089 10.4-7.8126 15.6-0.6178 1.3 0.5802 2.9 2 2.8h7.8438 7.844c1.42 0.1 2.618-1.5 2-2.8-2.604-5.2-5.207-10.4-7.813-15.6-0.316-0.9-1.046-1.7-2.031-1.6z" fill="#c0392b"/>
  <path d="m12.053 1031.4c-0.885-0.1-1.542 0.7-1.826 1.4-2.3431 4.7-4.6842 9.4-7.0254 14.1-0.5556 1.2 0.5216 2.6 1.7984 2.5h7.053 7.053c1.277 0.1 2.354-1.3 1.799-2.5-2.342-4.7-4.683-9.4-7.025-14.1-0.285-0.7-0.942-1.5-1.827-1.4z" fill="#ecf0f1"/>
  <path style="block-progression:tb;text-indent:0;color:#000000;text-transform:none" d="m12 1030.4c-0.985-0.1-1.715 0.7-2.0312 1.6-2.6054 5.2-5.2089 10.4-7.8126 15.6-0.6178 1.3 0.5802 2.9 2 2.8h7.8438 7.844c1.42 0.1 2.618-1.5 2-2.8-2.604-5.2-5.207-10.4-7.813-15.6-0.316-0.9-1.046-1.7-2.031-1.6zm0 2c0.052 0.1 0.116 0.2 0.156 0.3l0.032 0.1 0.062 0.1c2.584 5.1 5.167 10.3 7.75 15.5h-0.031-0.125-7.844-7.8438-0.125-0.0312c2.5828-5.2 5.1655-10.4 7.75-15.5l0.062-0.1 0.032-0.1c0.04-0.1 0.104-0.2 0.156-0.3z" fill="#e74c3c"/>
  <path d="m12 1036.4c-0.552 0-1 0.4-1 1l0.5 7h1l0.5-7c0-0.6-0.448-1-1-1zm0 9c-0.552 0-1 0.4-1 1 0 0.5 0.448 1 1 1s1-0.5 1-1c0-0.6-0.448-1-1-1z" fill="#34495e"/>
 </g>
</svg>
