<svg xmlns="http://www.w3.org/2000/svg" width="24" height="24"><g transform="translate(0 -1028.362)"><path d="M24 12a12 12 0 1 1-24 0 12 12 0 1 1 24 0z" transform="matrix(.917 0 0 .917 1 1029.362)" fill="#bdc3c7"/><path d="M6 1048.362c1.67 1.252 3.752 2 6 2s4.33-.748 6-2h-12z" fill="#95a5a6"/><path d="M12 1029.362c-6.075 0-11 4.925-11 11s4.925 11 11 11v-22z" fill="#95a5a6"/><path d="M17 13a6 6 0 1 1-12 0 6 6 0 1 1 12 0z" transform="translate(1 1028.362)" fill="#95a5a6"/><path d="M12 1035.362c-3.314 0-6 2.686-6 6s2.686 6 6 6v-12z" fill="#7f8c8d"/><path d="M17 13a6 6 0 1 1-12 0 6 6 0 1 1 12 0z" transform="translate(1 1027.362)" fill="#ecf0f1"/><path d="M15 12.5a3 3.5 0 1 1-6 0 3 3.5 0 1 1 6 0z" transform="matrix(1.333 0 0 1.143 -4 1026.076)" fill="#34495e"/><path d="M15 12.5a3 3.5 0 1 1-6 0 3 3.5 0 1 1 6 0z" transform="matrix(1 0 0 .857 0 1029.648)" fill="#2c3e50"/><path transform="translate(0 1027.362)" d="M14 13a2 2 0 1 1-4 0 2 2 0 1 1 4 0z" fill="#34495e"/><path transform="translate(0 1027.362)" d="M13 13a1 1 0 1 1-2 0 1 1 0 1 1 2 0z" fill="#3498db"/><path d="M25 12.5a1.5 1.5 0 1 1-3 0 1.5 1.5 0 1 1 3 0z" transform="matrix(.667 0 0 .667 -4.667 1030.029)" fill="#ecf0f1"/><rect width="3" height="1" x="9" y="1030.362" fill="#7f8c8d"/><rect width="3" height="1" x="9" y="1032.362" fill="#7f8c8d"/><rect width="3" height="1" x="12" y="1030.362" fill="#95a5a6"/><rect width="3" height="1" x="12" y="1032.362" fill="#95a5a6"/><path d="M6 1048.362c1.67 1.252 3.752 2 6 2v-2h-6z" fill="#7f8c8d"/></g></svg>