<?xml version="1.0" encoding="UTF-8" standalone="no"?>
<svg xmlns:rdf="http://www.w3.org/1999/02/22-rdf-syntax-ns#" xmlns="http://www.w3.org/2000/svg" height="24" width="24" version="1.1" xmlns:cc="http://creativecommons.org/ns#" xmlns:dc="http://purl.org/dc/elements/1.1/">
 <g transform="translate(0 -1028.4)">
  <path d="m1 1035.4v1 1 2 1 1 1 1 2 1 2 1c0 1.1 0.8954 2 2 2h9 9c1.105 0 2-0.9 2-2v-1-2-4-2-3-1-1h-22z" fill="#bdc3c7"/>
  <path d="m3 2c-1.1046 0-2 0.8954-2 2v3h22v-3c0-1.1046-0.895-2-2-2h-9-9z" transform="translate(0 1028.4)" fill="#bdc3c7"/>
  <path d="m1 6v1 1 2 1 1 1 1 2 1 2 1c0 1.105 0.8954 2 2 2h9 9c1.105 0 2-0.895 2-2v-1-2-4-2-3-1-1h-22z" transform="translate(0 1028.4)" fill="#ecf0f1"/>
  <path d="m4 4a1 1 0 1 1 -2 0 1 1 0 1 1 2 0z" transform="translate(0 1028.4)" fill="#c0392b"/>
  <path d="m4 4a1 1 0 1 1 -2 0 1 1 0 1 1 2 0z" transform="translate(3 1028.4)" fill="#27ae60"/>
  <path d="m4 4a1 1 0 1 1 -2 0 1 1 0 1 1 2 0z" transform="translate(6 1028.4)" fill="#f39c12"/>
  <path d="m4 8c-0.5523 0-1 0.4477-1 1v10c0 0.552 0.4477 1 1 1h2c0.5523 0 1-0.448 1-1v-10c0-0.5523-0.4477-1-1-1h-2zm6 0c-0.5523 0-1 0.4477-1 1s0.4477 1 1 1h10c0.552 0 1-0.4477 1-1s-0.448-1-1-1h-10zm0 4c-0.5523 0-1 0.448-1 1v6c0 0.552 0.4477 1 1 1h10c0.552 0 1-0.448 1-1v-6c0-0.552-0.448-1-1-1h-10z" transform="translate(0 1028.4)" fill="#bdc3c7"/>
 </g>
</svg>
