<svg xmlns="http://www.w3.org/2000/svg" width="24" height="24"><g><path d="M1 7v14c0 1.105.895 2 2 2h18c1.105 0 2-.895 2-2v-14h-22z" fill="#bdc3c7"/><path d="M3 2c-1.105 0-2 .895-2 2v3h22v-3c0-1.105-.895-2-2-2h-18z" fill="#bdc3c7"/><path d="M1 6v14c0 1.105.895 2 2 2h18c1.105 0 2-.895 2-2v-14h-22z" fill="#ecf0f1"/><path d="M4 4a1 1 0 1 1-2 0 1 1 0 1 1 2 0z" transform="translate(0 -1028.362) translate(0 1028.362)" fill="#c0392b"/><path d="M4 4a1 1 0 1 1-2 0 1 1 0 1 1 2 0z" transform="translate(0 -1028.362) translate(3 1028.362)" fill="#27ae60"/><path d="M4 4a1 1 0 1 1-2 0 1 1 0 1 1 2 0z" transform="translate(0 -1028.362) translate(6 1028.362)" fill="#f39c12"/><path d="M3 8v12h5v-12h-4zm6 0v3h12v-3h-11zm0 4v8h12v-8h-11z" fill="#bdc3c7"/></g></svg>