<svg xmlns="http://www.w3.org/2000/svg" width="24" height="24"><g><path d="M1 7v14c0 1.105.895 2 2 2h18c1.105 0 2-.895 2-2v-14h-22z" fill="#bdc3c7"/><path d="M3 2c-1.105 0-2 .895-2 2v3h22v-3c0-1.105-.895-2-2-2h-18z" fill="#bdc3c7"/><path d="M1 6v14c0 1.105.895 2 2 2h18c1.105 0 2-.895 2-2v-14h-22z" fill="#ecf0f1"/><path d="M4 4a1 1 0 1 1-2 0 1 1 0 1 1 2 0z" transform="translate(0 -1028.362) translate(0 1028.362)" fill="#c0392b"/><path d="M4 4a1 1 0 1 1-2 0 1 1 0 1 1 2 0z" transform="translate(0 -1028.362) translate(3 1028.362)" fill="#27ae60"/><path d="M4 4a1 1 0 1 1-2 0 1 1 0 1 1 2 0z" transform="translate(0 -1028.362) translate(6 1028.362)" fill="#f39c12"/><path d="M13.414 15.414c.391-.391.586-.862.586-1.414 0-.552-.195-1.023-.586-1.414-.391-.391-.862-.586-1.414-.586-.552 0-1.023.195-1.414.586-.391.391-.586.862-.586 1.414 0 .552.195 1.023.586 1.414.391.391.862.586 1.414.586.552 0 1.023-.195 1.414-.586m4.586-2.266v1.734c0 .063-.021.122-.063.18-.042.057-.094.091-.156.101l-1.445.219c-.099.281-.201.518-.305.711.182.261.461.62.836 1.078.052.063.078.128.078.195 0 .068-.023.128-.07.18-.141.193-.398.474-.773.844s-.62.555-.734.555c-.063 0-.13-.023-.203-.07l-1.078-.844c-.229.12-.466.219-.711.297-.083.708-.159 1.193-.227 1.453-.036.146-.13.219-.281.219h-1.734c-.073 0-.138-.024-.195-.07-.052-.042-.081-.096-.086-.164l-.219-1.438c-.255-.083-.49-.18-.703-.289l-1.102.836c-.052.047-.117.07-.195.07-.073 0-.138-.029-.195-.086-.656-.594-1.086-1.031-1.289-1.313l-.055-.18c0-.063.021-.122.063-.18l.398-.516.422-.555c-.141-.26-.247-.518-.32-.774l-1.43-.211c-.068-.01-.122-.042-.164-.094-.042-.057-.063-.12-.063-.188v-1.734c0-.063.021-.122.063-.18.042-.057.091-.091.148-.102l1.453-.219c.073-.24.174-.479.305-.719-.208-.297-.487-.656-.836-1.078-.052-.063-.078-.125-.078-.188l.07-.18c.135-.188.391-.466.766-.836.38-.375.628-.563.742-.563.068 0 .135.026.203.078l1.078.836c.229-.12.466-.219.711-.297.083-.708.159-1.193.227-1.453.036-.146.13-.219.281-.219h1.734c.073 0 .135.023.188.07.057.042.089.096.094.164l.219 1.438c.255.083.49.18.703.289l1.109-.836c.047-.047.109-.07.188-.07.068 0 .133.026.195.078.672.62 1.102 1.063 1.289 1.328.036.042.055.099.055.172 0 .063-.021.122-.063.18l-.398.523c-.188.234-.328.417-.422.547.135.26.242.516.32.766l1.43.219c.068.01.122.044.164.101.042.052.062.112.063.18" font-size="14" fill="#bdc3c7" style="line-height:125%;-inkscape-font-specification:FontAwesome" font-family="FontAwesome" letter-spacing="0" word-spacing="0" text-anchor="end"/></g></svg>