<svg xmlns="http://www.w3.org/2000/svg" width="24" height="24"><rect width="12" height="6" x="6" y="1" fill="#ecf0f1"/><path d="M11 14h2v2h-2z" fill="#7f8c8d"/><path d="M6 1v8c0 3.314 2.686 6 6 6s6-2.686 6-6v-8h-1v7.469c0 3.059-2.239 5.531-5 5.531s-5-2.473-5-5.531v-7.469h-1z" fill="#bdc3c7"/><path d="M7 6v2.469c0 3.059 2.239 5.531 5 5.531s5-2.473 5-5.531v-2.469h-10z" fill="#e74c3c"/><path d="M11 16h2v6h-2z" fill="#95a5a6"/><path d="M7 22h10v1h-10z" fill="#bdc3c7"/><path d="M7 6h10v1h-10z" fill="#c0392b"/><path d="M7 2v7c0 2.761 2.239 5 5 5s5-2.239 5-5v-7h-1v7c0 2.209-1.791 4-4 4s-4-1.791-4-4v-7h-1z" fill="#ecf0f1"/></svg>