<?xml version="1.0" encoding="UTF-8" standalone="no"?>
<svg xmlns:rdf="http://www.w3.org/1999/02/22-rdf-syntax-ns#" xmlns="http://www.w3.org/2000/svg" height="24" width="24" version="1.1" xmlns:cc="http://creativecommons.org/ns#" xmlns:dc="http://purl.org/dc/elements/1.1/">
 <g transform="translate(0 -1028.4)">
  <g>
   <path d="m17.36 1031.4c-1.41-0.1-2.845 0.3-3.927 1.4-1.318 1.3-1.728 3.2-1.281 4.8l-9.4137 9.5c-0.9844 0.9-0.9844 2.5 0 3.5s2.5804 1 3.5649 0l9.4138-9.4c1.68 0.5 3.527 0 4.846-1.3 1.082-1.1 1.533-2.5 1.42-3.9l-0.529-0.5-3.565 3.5-2.674-0.9-0.891-2.6 3.565-3.6-0.529-0.5zm-11.948 16.6c0.4922 0.4 0.4922 1.2 0 1.7-0.4923 0.5-1.2903 0.5-1.7825 0s-0.4922-1.3 0-1.7c0.4922-0.5 1.2903-0.5 1.7825 0z" fill="#7f8c8d"/>
   <path d="m17.36 1030.4c-1.41-0.1-2.845 0.3-3.927 1.4-1.318 1.3-1.728 3.2-1.281 4.8l-9.4137 9.5c-0.9844 0.9-0.9844 2.5 0 3.5s2.5804 1 3.5649 0l9.4138-9.4c1.68 0.5 3.527 0 4.846-1.3 1.082-1.1 1.533-2.5 1.42-3.9l-0.529-0.5-3.565 3.5-2.674-0.9-0.891-2.6 3.565-3.6-0.529-0.5zm-11.948 16.6c0.4922 0.4 0.4922 1.2 0 1.7-0.4923 0.5-1.2903 0.5-1.7825 0s-0.4922-1.3 0-1.7c0.4922-0.5 1.2903-0.5 1.7825 0z" fill="#95a5a6"/>
   <path d="m12.145 1036.7-0.125 0.1c0.154 1.9 1.33 3.4 2.968 4.2l0.719-0.8c-1.72-0.5-3.104-1.8-3.562-3.5z" fill="#7f8c8d"/>
  </g>
 </g>
</svg>
