<?xml version="1.0" encoding="UTF-8" standalone="no"?>
<svg xmlns:rdf="http://www.w3.org/1999/02/22-rdf-syntax-ns#" xmlns="http://www.w3.org/2000/svg" height="24" width="24" version="1.1" xmlns:cc="http://creativecommons.org/ns#" xmlns:dc="http://purl.org/dc/elements/1.1/">
 <g transform="translate(0 -1028.4)">
  <g>
   <path d="m7.0522 1029.8c1.41-0.1 2.8448 0.3 3.9268 1.4 1.318 1.3 1.728 3.2 1.281 4.9l9.414 9.4c0.984 1 0.984 2.6 0 3.5-0.985 1-2.581 1-3.565 0l-9.4137-9.4c-1.6807 0.5-3.5277 0.1-4.8459-1.3-1.0821-1-1.5339-2.5-1.4204-3.9l0.5291-0.5 3.5649 3.6 2.6736-0.9 0.8914-2.7-3.565-3.6 0.5292-0.5zm11.948 16.6c-0.492 0.5-0.492 1.3 0 1.7 0.492 0.5 1.29 0.5 1.782 0 0.493-0.4 0.493-1.2 0-1.7-0.492-0.5-1.29-0.5-1.782 0z" fill="#7f8c8d"/>
   <path d="m7.3227 1029c1.41-0.1 2.8453 0.4 3.9273 1.5 1.318 1.3 1.728 3.1 1.281 4.8l9.413 9.4c0.985 1 0.985 2.6 0 3.6-0.984 1-2.58 1-3.565 0l-9.4132-9.4c-1.6807 0.4-3.5276 0-4.8459-1.3-1.0821-1.1-1.5339-2.5-1.4204-3.9l0.5292-0.6 3.5648 3.6 2.6737-0.9 0.8908-2.7-3.5645-3.5 0.5292-0.6zm11.948 16.6c-0.493 0.5-0.493 1.3 0 1.8 0.492 0.5 1.29 0.5 1.782 0s0.492-1.3 0-1.8-1.29-0.5-1.782 0z" fill="#95a5a6"/>
   <path d="m21.875 1030.4-3.375 1.3 1 1-7.094 7.1-2.062-2-1.7815 1.8c0.3374 0.9 0.2403 1.8-0.3437 2.4-0.0731 0-0.1362 0.1-0.2188 0.1-0.2477 0.2-0.535 0.3-0.8438 0.4-0.4116 0-0.8704 0-1.3124-0.2l-4.9688 4.9 2.0625 2.1 3.0625 3.1 4.969-5c-0.338-0.9-0.272-1.8 0.312-2.4s1.491-0.7 2.375-0.3l1.813-1.8-2.031-2.1 7.093-7.1 1.031 1.1 1.344-3.4-1.031-1z" fill="#7f8c8d"/>
   <path d="m10.454 1036.8-1.8019 1.8c0.3375 0.8 0.2499 1.8-0.3342 2.3-0.5841 0.6-1.4965 0.7-2.3805 0.4l-4.9605 4.9 5.1155 5.1 4.9606-4.9c-0.337-0.9-0.25-1.8 0.334-2.4s1.497-0.7 2.381-0.3l1.801-1.8-5.115-5.1z" fill="#f39c12"/>
   <path d="m13.523 1039.8 7.108-7.1 1.023 1.1 1.346-3.4-1.023-1.1-3.392 1.4 1.023 1-7.108 7.1 1.023 1z" fill="#bdc3c7"/>
   <path d="m3.0231 1048.3 9.4769-9.5-2.046-2-1.8019 1.8c0.3375 0.8 0.2499 1.8-0.3342 2.3-0.5841 0.6-1.4965 0.7-2.3805 0.4l-4.9605 4.9 2.0462 2.1z" fill="#f1c40f"/>
  </g>
 </g>
</svg>
