<svg xmlns="http://www.w3.org/2000/svg" width="24" height="24"><g style="text-align:end;line-height:125%;-inkscape-font-specification:FontAwesome" font-size="8" letter-spacing="0" word-spacing="0" text-anchor="end" fill="#2980b9" font-family="FontAwesome" transform="translate(0 -1028.362)"><g><path d="M5.094 1029.456v1l3.906 3.906-1 3-3 1-3.906-3.906c-.055.297-.094.593-.094.906v.5c0 3.038 2.462 5.5 5.5 5.5.459 0 .886-.082 1.313-.188l2.156 2.156 4.031 4.031 3 3c.507.539 1.214.875 2 .875 1.541 0 2.781-1.285 2.781-2.875 0-.778-.295-1.482-.781-2l-.031-.031-2.969-2.969-4.031-4.031-2.156-2.156c.106-.426.188-.854.188-1.313 0-3.038-2.462-5.5-5.5-5.5h-.406v-.906h-1zm13.906 17.406c.828 0 1.5.672 1.5 1.5s-.672 1.5-1.5 1.5-1.5-.672-1.5-1.5.672-1.5 1.5-1.5z" style="text-align:end;line-height:125%;-inkscape-font-specification:FontAwesome" fill="#7f8c8d"/><path d="M6 1029.362c-.313 0-.609.039-.906.094l3.906 3.906-1 3-3 1-3.906-3.906c-.055.297-.094.593-.094.906v.5c0 3.038 2.462 5.5 5.5 5.5.459 0 .886-.082 1.313-.188l2.156 2.156 4.031 4.031 3 3c.507.539 1.214.875 2 .875 1.541 0 2.781-1.285 2.781-2.875 0-.778-.295-1.482-.781-2l-.031-.031-2.969-2.969-4.031-4.031-2.156-2.156c.106-.426.188-.854.188-1.313 0-3.038-2.462-5.5-5.5-5.5h-.5zm13 16.5c.828 0 1.5.672 1.5 1.5s-.672 1.5-1.5 1.5-1.5-.672-1.5-1.5.672-1.5 1.5-1.5z" style="text-align:end;line-height:125%;-inkscape-font-specification:FontAwesome" fill="#95a5a6"/></g><path style="text-align:end;line-height:125%;-inkscape-font-specification:FontAwesome" d="M11 1038.362l-1.969 1.969-.031.031v.094c.077.266.063.58 0 .906l.969.969 2.031 2.031c.365-.073.719-.107 1 0l2-2-.5-.5-1-1 1.5-1.5-1-1-1.5 1.5-1.5-1.5z" fill="#7f8c8d"/><path style="text-align:end;line-height:125%;-inkscape-font-specification:FontAwesome" d="M11.5 1039.862l1 1 9-9-1-1z" fill="#bdc3c7"/><path style="text-align:end;line-height:125%;-inkscape-font-specification:FontAwesome" d="M21 1031.362l-9 9 .5.5 9-9-.5-.5z" fill="#95a5a6"/><path style="text-align:end;line-height:125%;-inkscape-font-specification:FontAwesome" d="M22 1029.362l-2.5 1.5 2 2 1.5-2.5-1-1z" fill="#95a5a6"/><path style="text-align:end;line-height:125%;-inkscape-font-specification:FontAwesome" d="M11 1037.362l-2 2c.337.883-.416 2.417-1 3-.584.584-2.116 1.337-3 1l-4 4 4 4 4-4c-.337-.883.416-2.417 1-3 .584-.583 2.116-1.337 3-1l2-2z" fill="#f39c12"/><path style="text-align:end;line-height:125%;-inkscape-font-specification:FontAwesome" d="M11 1037.362l-2 2c.337.883-.416 2.417-1 3-.584.584-2.116 1.337-3 1l-4 4 2 2 10-10-2-2z" fill="#f1c40f"/><path style="text-align:end;line-height:125%;-inkscape-font-specification:FontAwesome" d="M9.031 1039.331l-.031.031v.094l.031-.125zm5.469 1.531l-1.5 1.5c-.884-.337-2.416.417-3 1-.565.564-1.258 2.013-1 2.906.176-.744.62-1.526 1-1.906.584-.583 2.116-1.337 3-1l2-2-.5-.5zm-5.531 5.531l-3.969 3.969-3.5-3.5-.5.5 4 4 4-4c-.105-.276-.1-.615-.031-.969z" fill="#e67e22"/></g></svg>