<svg xmlns="http://www.w3.org/2000/svg" width="24" height="24"><g style="text-align:end;line-height:125%;-inkscape-font-specification:FontAwesome" font-size="8" letter-spacing="0" word-spacing="0" text-anchor="end" fill="#2980b9" font-family="FontAwesome" transform="translate(0 -1028.362)"><path style="text-align:end;line-height:125%;-inkscape-font-specification:FontAwesome" d="M5.281 1029.643v1l4.719 4.719-1 3-3 1-4.719-4.719c-.164.547-.281 1.119-.281 1.719 0 3.314 2.686 6 6 6 .6 0 1.172-.117 1.719-.281l5.281 5.281 4 4c.513.512 1.217.844 2 .844 1.567 0 2.844-1.281 2.844-2.844 0-.781-.33-1.488-.844-2l-4-4-5.281-5.281c.164-.547.281-1.119.281-1.719 0-3.314-2.686-6-6-6-.246 0-.482.028-.719.063v-.781h-1zm14.719 18.219c.828 0 1.5.672 1.5 1.5s-.672 1.5-1.5 1.5-1.5-.672-1.5-1.5.672-1.5 1.5-1.5z" font-size="8" letter-spacing="0" word-spacing="0" text-anchor="end" fill="#7f8c8d" font-family="FontAwesome"/><path d="M7 1029.362c-.6 0-1.172.117-1.719.281l4.719 4.719-1 3-3 1-4.719-4.719c-.164.547-.281 1.119-.281 1.719 0 3.314 2.686 6 6 6 .6 0 1.172-.117 1.719-.281l5.281 5.281 4 4c.513.512 1.217.844 2 .844 1.567 0 2.844-1.281 2.844-2.844 0-.781-.33-1.488-.844-2l-4-4-5.281-5.281c.164-.547.281-1.119.281-1.719 0-3.314-2.686-6-6-6zm13 17.5c.828 0 1.5.672 1.5 1.5s-.672 1.5-1.5 1.5-1.5-.672-1.5-1.5.672-1.5 1.5-1.5z" fill="#95a5a6"/></g></svg>