<?xml version="1.0" encoding="UTF-8" standalone="no"?>
<svg xmlns:rdf="http://www.w3.org/1999/02/22-rdf-syntax-ns#" xmlns="http://www.w3.org/2000/svg" height="24" width="24" version="1.1" xmlns:cc="http://creativecommons.org/ns#" xmlns:dc="http://purl.org/dc/elements/1.1/">
 <g transform="translate(0 -1028.4)">
  <g>
   <path d="m6.6402 1031.4c1.41-0.1 2.8449 0.3 3.9268 1.4 1.318 1.3 1.728 3.2 1.281 4.8l9.414 9.5c0.984 0.9 0.984 2.5 0 3.5-0.985 1-2.581 1-3.565 0l-9.4136-9.4c-1.6808 0.5-3.5277 0-4.846-1.3-1.082-1.1-1.5339-2.5-1.4204-3.9l0.5292-0.5 3.5648 3.5 2.6737-0.9 0.8912-2.6-3.5649-3.6 0.5292-0.5zm11.948 16.6c-0.492 0.4-0.492 1.2 0 1.7s1.29 0.5 1.782 0c0.493-0.5 0.493-1.3 0-1.7-0.492-0.5-1.29-0.5-1.782 0z" fill="#7f8c8d"/>
   <path d="m6.6402 1030.4c1.41-0.1 2.8449 0.3 3.9268 1.4 1.318 1.3 1.728 3.2 1.281 4.8l9.414 9.5c0.984 0.9 0.984 2.5 0 3.5-0.985 1-2.581 1-3.565 0l-9.4136-9.4c-1.6808 0.5-3.5277 0-4.846-1.3-1.082-1.1-1.5339-2.5-1.4204-3.9l0.5292-0.5 3.5648 3.5 2.6737-0.9 0.8912-2.6-3.5649-3.6 0.5292-0.5zm11.948 16.6c-0.492 0.4-0.492 1.2 0 1.7s1.29 0.5 1.782 0c0.493-0.5 0.493-1.3 0-1.7-0.492-0.5-1.29-0.5-1.782 0z" fill="#95a5a6"/>
   <path d="m11.855 1036.7 0.125 0.1c-0.154 1.9-1.33 3.4-2.9684 4.2l-0.7187-0.8c1.7201-0.5 3.1041-1.8 3.5621-3.5z" fill="#7f8c8d"/>
  </g>
 </g>
</svg>
