<?xml version="1.0" encoding="UTF-8" standalone="no"?>
<!-- Created with Inkscape (http://www.inkscape.org/) -->

<svg
   xmlns:dc="http://purl.org/dc/elements/1.1/"
   xmlns:cc="http://creativecommons.org/ns#"
   xmlns:rdf="http://www.w3.org/1999/02/22-rdf-syntax-ns#"
   xmlns:svg="http://www.w3.org/2000/svg"
   xmlns="http://www.w3.org/2000/svg"
   xmlns:sodipodi="http://sodipodi.sourceforge.net/DTD/sodipodi-0.dtd"
   xmlns:inkscape="http://www.inkscape.org/namespaces/inkscape"
   width="24"
   height="24"
   id="svg2"
   version="1.1"
   inkscape:version="0.48.3.1 r9886"
   sodipodi:docname="address-book.svg">
  <defs
     id="defs4" />
  <sodipodi:namedview
     id="base"
     pagecolor="#ffffff"
     bordercolor="#666666"
     borderopacity="1.0"
     inkscape:pageopacity="0.0"
     inkscape:pageshadow="2"
     inkscape:zoom="35.724974"
     inkscape:cx="9.3432564"
     inkscape:cy="15.519621"
     inkscape:document-units="px"
     inkscape:current-layer="layer1"
     showgrid="true"
     inkscape:window-width="1920"
     inkscape:window-height="1150"
     inkscape:window-x="0"
     inkscape:window-y="0"
     inkscape:window-maximized="1">
    <inkscape:grid
       type="xygrid"
       id="grid2985"
       empspacing="4"
       visible="true"
       enabled="true"
       snapvisiblegridlinesonly="true" />
  </sodipodi:namedview>
  <metadata
     id="metadata7">
    <rdf:RDF>
      <cc:Work
         rdf:about="">
        <dc:format>image/svg+xml</dc:format>
        <dc:type
           rdf:resource="http://purl.org/dc/dcmitype/StillImage" />
        <dc:title />
      </cc:Work>
    </rdf:RDF>
  </metadata>
  <g
     inkscape:label="Layer 1"
     inkscape:groupmode="layer"
     id="layer1"
     transform="translate(0,-1028.3622)">
    <path
       style="fill:#16a085;fill-opacity:1;fill-rule:nonzero;stroke:none"
       d="M 5,1028.3622 C 3.895431,1028.3622 3,1029.2576 3,1030.3622 L 3,1031.3622 3,1038.3622 3,1039.3622 3,1042.3622 3,1043.3622 3,1048.3622 3,1049.3622 C 3,1050.4668 3.89543,1051.3622 5,1051.3622 L 19,1051.3622 C 20.104569,1051.3622 21,1050.4668 21,1049.3622 L 21,1048.3622 21,1043.3622 21,1039.3622 21,1035.3622 21,1034.3622 21,1031.3622 21,1030.3622 C 21,1029.2576 20.10457,1028.3622 19,1028.3622 L 15,1028.3622 5,1028.3622 z"
       id="path2987-2"
       inkscape:connector-curvature="0" />
    <path
       style="fill:#ecf0f1;fill-opacity:1;fill-rule:nonzero;stroke:none"
       d="M 6,1028.3622 C 4.895431,1028.3622 4,1029.2576 4,1030.3622 L 4,1038.3622 4,1042.3622 4,1048.3622 C 4,1049.4668 4.89543,1050.3622 6,1050.3622 L 14,1050.3622 18,1050.3622 C 19.104569,1050.3622 20,1049.4668 20,1048.3622 L 20,1042.3622 20,1038.3622 20,1034.3622 20,1030.3622 C 20,1029.2576 19.10457,1028.3622 18,1028.3622 L 14,1028.3622 6,1028.3622 z"
       id="path2987-3-2"
       inkscape:connector-curvature="0" />
    <path
       inkscape:connector-curvature="0"
       style="fill:#2ecc71;fill-opacity:1;fill-rule:nonzero;stroke:none"
       d="M 15,1042.3622 15,1043.3622 15,1044.3622 15,1045.3622 15,1049.3622 19,1049.3622 C 20.104569,1049.3622 21,1048.4668 21,1047.3622 L 21,1045.3622 21,1043.3622 21,1042.3622 15,1042.3622 z"
       id="path3077-6-3-9-6" />
    <path
       inkscape:connector-curvature="0"
       style="fill:#e74c3c;fill-opacity:1;fill-rule:nonzero;stroke:none"
       d="M 15,1037.3622 15,1038.3622 15,1039.3622 15,1040.3622 15,1044.3622 19,1044.3622 C 20.104569,1044.3622 21,1043.4668 21,1042.3622 L 21,1040.3622 21,1038.3622 21,1037.3622 15,1037.3622 z"
       id="path3077-6-3-9" />
    <path
       style="fill:#f1c40f;fill-opacity:1;fill-rule:nonzero;stroke:none"
       d="M 15,1032.3622 15,1033.3622 15,1034.3622 15,1035.3622 15,1039.3622 19,1039.3622 C 20.104569,1039.3622 21,1038.4668 21,1037.3622 L 21,1035.3622 21,1033.3622 21,1032.3622 15,1032.3622 z"
       id="path3077-6-3"
       inkscape:connector-curvature="0" />
    <path
       style="fill:#2980b9;fill-opacity:1;fill-rule:nonzero;stroke:none"
       d="M 15 0 L 15 2 L 19 2 L 19 4 L 19 6 C 20.104569 6 21 5.1046 21 4 L 21 2 C 21 0.8954 20.104569 0 19 0 L 15 0 z "
       id="path3077-6"
       transform="translate(0,1028.3622)" />
    <path
       style="fill:#1abc9c;fill-opacity:1;fill-rule:nonzero;stroke:none"
       d="M 5,1028.3622 C 3.895431,1028.3622 3,1029.2576 3,1030.3622 L 3,1038.3622 3,1042.3622 3,1047.3622 4,1047.3622 4,1048.3622 4,1051.3622 C 4,1050.2576 4.895431,1049.3622 6,1049.3622 L 14,1049.3622 15,1049.3622 16.28125,1049.3622 17,1049.3622 17.28125,1049.3622 C 18.020854,1049.3622 18.653957,1048.9591 19,1048.3622 L 19,1047.3622 19,1042.3622 19,1038.3622 19,1034.3622 19,1030.3622 C 19,1029.2576 18.10457,1028.3622 17,1028.3622 L 13,1028.3622 5,1028.3622 z"
       id="path2987-3"
       inkscape:connector-curvature="0" />
    <g
       style="font-size:12.72310925px;font-style:normal;font-variant:normal;font-weight:normal;font-stretch:normal;text-align:end;line-height:125%;letter-spacing:0px;word-spacing:0px;text-anchor:end;fill:#16a085;fill-opacity:1;stroke:none;font-family:Wingdings;-inkscape-font-specification:Wingdings"
       id="text3252"
       transform="translate(0,-2)">
      <path
         d="M 10.439441,1041.0137 C 10.439436,1041.5231 10.547119,1041.9248 10.762489,1042.2189 10.98199,1042.5129 11.278117,1042.66 11.65087,1042.66 12.019469,1042.66 12.313525,1042.5129 12.533039,1042.2189 12.752538,1041.9207 12.862292,1041.519 12.862299,1041.0137 12.862292,1040.5125 12.750467,1040.117 12.526827,1039.8271 12.307313,1039.533 12.011186,1039.386 11.638445,1039.386 11.273975,1039.386 10.98199,1039.533 10.762489,1039.8271 10.547119,1040.117 10.439436,1040.5125 10.439441,1041.0137 M 12.986548,1042.8836 C 12.862292,1043.1777 12.661422,1043.4075 12.38394,1043.5732 12.110585,1043.7347 11.789609,1043.8155 11.421009,1043.8155 10.708642,1043.8155 10.128814,1043.5587 9.6815218,1043.0451 9.2383627,1042.5274 9.0167853,1041.8544 9.0167891,1041.0261 9.0167853,1040.1978 9.2404335,1039.5248 9.6877343,1039.007 10.135026,1038.4893 10.712784,1038.2305 11.421009,1038.2305 11.789609,1038.2305 12.110585,1038.3133 12.38394,1038.479 12.661422,1038.6447 12.862292,1038.8745 12.986548,1039.1686 L 12.986548,1038.3547 14.284951,1038.3547 14.284951,1042.66 C 14.798505,1042.5813 15.202314,1042.3349 15.49638,1041.9207 15.790426,1041.5024 15.937454,1040.9681 15.937465,1040.3179 15.937454,1039.9037 15.8774,1039.5165 15.757303,1039.1561 15.637186,1038.7917 15.454954,1038.4583 15.210607,1038.1559 14.817142,1037.6507 14.324288,1037.2614 13.732043,1036.988 13.143923,1036.7147 12.506111,1036.578 11.818607,1036.578 11.338171,1036.578 10.878449,1036.6422 10.439441,1036.7706 10.000423,1036.8948 9.5945431,1037.0791 9.2218001,1037.3235 8.6088345,1037.7294 8.1304759,1038.2553 7.7867229,1038.9014 7.4471064,1039.5434 7.2772995,1040.2392 7.2773015,1040.9888 7.2772995,1041.6059 7.3870528,1042.1858 7.6065616,1042.7283 7.8302075,1043.2667 8.151184,1043.743 8.5694923,1044.1572 8.9836523,1044.5631 9.4578693,1044.8716 9.9921446,1045.0828 10.530552,1045.2982 11.104168,1045.4059 11.712995,1045.4059 12.234834,1045.4059 12.75668,1045.3085 13.278534,1045.1139 13.800371,1044.9192 14.245597,1044.6562 14.614212,1044.3249 L 15.278944,1045.3313 C 14.76123,1045.7331 14.195897,1046.0395 13.582944,1046.2508 12.974116,1046.4661 12.354942,1046.5738 11.72542,1046.5738 10.959211,1046.5738 10.236496,1046.4371 9.5572727,1046.1638 8.8780406,1045.8946 8.2733622,1045.5011 7.7432357,1044.9834 7.2131042,1044.4657 6.809295,1043.8673 6.5318068,1043.188 6.2543161,1042.5047 6.1155714,1041.7716 6.1155723,1040.9888 6.1155714,1040.235 6.256387,1039.5165 6.5380193,1038.8331 6.819649,1038.1497 7.2213874,1037.5492 7.7432357,1037.0315 8.265079,1036.5179 8.8718282,1036.1203 9.5634852,1035.8387 10.259275,1035.5571 10.979919,1035.4163 11.72542,1035.4162 12.653139,1035.4163 13.495961,1035.5943 14.253889,1035.9505 15.011799,1036.3026 15.645469,1036.812 16.154901,1037.4788 16.465512,1037.8847 16.699515,1038.3258 16.856908,1038.802 17.01842,1039.2742 17.099182,1039.7712 17.099194,1040.293 17.099182,1041.4154 16.761639,1042.2872 16.086564,1042.9085 15.411467,1043.5297 14.458891,1043.8403 13.228834,1043.8403 L 12.986548,1043.8403 12.986548,1042.8836"
         id="path3257"
         inkscape:connector-curvature="0" />
    </g>
    <path
       style="fill:#95a5a6;fill-opacity:1;fill-rule:nonzero;stroke:none"
       d="M 2,1031.3622 2,1032.3622 4,1032.3622 4,1031.3622 2,1031.3622 z M 2,1034.3622 2,1035.3622 4,1035.3622 4,1034.3622 2,1034.3622 z M 2,1037.3622 2,1038.3622 4,1038.3622 4,1037.3622 2,1037.3622 z M 2,1040.3622 2,1041.3622 4,1041.3622 4,1040.3622 2,1040.3622 z M 2,1043.3622 2,1044.3622 4,1044.3622 4,1043.3622 2,1043.3622 z M 2,1046.3622 2,1047.3622 4,1047.3622 4,1046.3622 2,1046.3622 z"
       id="rect3184-0"
       inkscape:connector-curvature="0" />
    <path
       style="fill:#16a085;fill-opacity:1;fill-rule:nonzero;stroke:none"
       d="M 5,1028.3622 C 3.895431,1028.3622 3,1029.2576 3,1030.3622 L 3,1031.3622 3,1038.3622 3,1039.3622 3,1042.3622 3,1043.3622 3,1048.3622 3,1049.3622 C 3,1050.4668 3.89543,1051.3622 5,1051.3622 L 6,1051.3622 C 4.89543,1051.3622 4,1050.4668 4,1049.3622 L 4,1048.3622 4,1043.3622 4,1042.3622 4,1039.3622 4,1038.3622 4,1031.3622 4,1030.3622 C 4,1029.2576 4.895431,1028.3622 6,1028.3622 L 5,1028.3622 z"
       id="path2987-2-6"
       inkscape:connector-curvature="0" />
    <path
       style="fill:#bdc3c7;fill-opacity:1;fill-rule:nonzero;stroke:none"
       d="M 2,1030.3622 2,1031.3622 3,1031.3622 3,1030.3622 2,1030.3622 z M 2,1033.3622 2,1034.3622 3,1034.3622 3,1033.3622 2,1033.3622 z M 2,1036.3622 2,1037.3622 3,1037.3622 3,1036.3622 2,1036.3622 z M 2,1039.3622 2,1040.3622 3,1040.3622 3,1039.3622 2,1039.3622 z M 2,1042.3622 2,1043.3622 3,1043.3622 3,1042.3622 2,1042.3622 z M 2,1045.3622 2,1046.3622 3,1046.3622 3,1045.3622 2,1045.3622 z"
       id="rect3184-0-8"
       inkscape:connector-curvature="0" />
    <path
       style="fill:#bdc3c7;fill-opacity:1;fill-rule:nonzero;stroke:none"
       d="M 2,1030.3622 C 1.447715,1030.3622 1,1030.8099 1,1031.3622 1,1031.9145 1.447715,1032.3622 2,1032.3622 L 2,1030.3622 z"
       id="path3014"
       inkscape:connector-curvature="0" />
    <path
       style="fill:#bdc3c7;fill-opacity:1;fill-rule:nonzero;stroke:none"
       d="M 2,1033.3622 C 1.447715,1033.3622 1,1033.8099 1,1034.3622 1,1034.9145 1.447715,1035.3622 2,1035.3622 L 2,1033.3622 z"
       id="path3014-2"
       inkscape:connector-curvature="0" />
    <path
       style="fill:#bdc3c7;fill-opacity:1;fill-rule:nonzero;stroke:none"
       d="M 2,1036.3622 C 1.447715,1036.3622 1,1036.8099 1,1037.3622 1,1037.9145 1.447715,1038.3622 2,1038.3622 L 2,1036.3622 z"
       id="path3014-4"
       inkscape:connector-curvature="0" />
    <path
       style="fill:#bdc3c7;fill-opacity:1;fill-rule:nonzero;stroke:none"
       d="M 2,1039.3622 C 1.447715,1039.3622 1,1039.8099 1,1040.3622 1,1040.9145 1.447715,1041.3622 2,1041.3622 L 2,1039.3622 z"
       id="path3014-8"
       inkscape:connector-curvature="0" />
    <path
       style="fill:#bdc3c7;fill-opacity:1;fill-rule:nonzero;stroke:none"
       d="M 2,1042.3622 C 1.447715,1042.3622 1,1042.8099 1,1043.3622 1,1043.9145 1.447715,1044.3622 2,1044.3622 L 2,1042.3622 z"
       id="path3014-9"
       inkscape:connector-curvature="0" />
    <path
       style="fill:#bdc3c7;fill-opacity:1;fill-rule:nonzero;stroke:none"
       d="M 2,1045.3622 C 1.447715,1045.3622 1,1045.8099 1,1046.3622 1,1046.9145 1.447715,1047.3622 2,1047.3622 L 2,1045.3622 z"
       id="path3014-29"
       inkscape:connector-curvature="0" />
    <path
       style="fill:#95a5a6;fill-opacity:1;fill-rule:nonzero;stroke:none"
       d="M 3,1030.3622 3,1031.3622 4,1031.3622 4,1030.3622 3,1030.3622 z M 3,1033.3622 3,1034.3622 4,1034.3622 4,1033.3622 3,1033.3622 z M 3,1036.3622 3,1037.3622 4,1037.3622 4,1036.3622 3,1036.3622 z M 3,1039.3622 3,1040.3622 4,1040.3622 4,1039.3622 3,1039.3622 z M 3,1042.3622 3,1043.3622 4,1043.3622 4,1042.3622 3,1042.3622 z M 3,1045.3622 3,1046.3622 4,1046.3622 4,1045.3622 3,1045.3622 z"
       id="rect3184-0-8-1"
       inkscape:connector-curvature="0" />
  </g>
</svg>
