<?xml version="1.0" encoding="UTF-8" standalone="no"?>
<!-- Created with Inkscape (http://www.inkscape.org/) -->

<svg
   xmlns:dc="http://purl.org/dc/elements/1.1/"
   xmlns:cc="http://creativecommons.org/ns#"
   xmlns:rdf="http://www.w3.org/1999/02/22-rdf-syntax-ns#"
   xmlns:svg="http://www.w3.org/2000/svg"
   xmlns="http://www.w3.org/2000/svg"
   xmlns:sodipodi="http://sodipodi.sourceforge.net/DTD/sodipodi-0.dtd"
   xmlns:inkscape="http://www.inkscape.org/namespaces/inkscape"
   width="24"
   height="24"
   id="svg2"
   version="1.1"
   inkscape:version="0.48.3.1 r9886"
   sodipodi:docname="bag-alt.svg">
  <defs
     id="defs4" />
  <sodipodi:namedview
     id="base"
     pagecolor="#ffffff"
     bordercolor="#666666"
     borderopacity="1.0"
     inkscape:pageopacity="0.0"
     inkscape:pageshadow="2"
     inkscape:zoom="16"
     inkscape:cx="-11.49383"
     inkscape:cy="19.589126"
     inkscape:document-units="px"
     inkscape:current-layer="layer1"
     showgrid="true"
     inkscape:window-width="1920"
     inkscape:window-height="1150"
     inkscape:window-x="0"
     inkscape:window-y="0"
     inkscape:window-maximized="1"
     showguides="true"
     inkscape:guide-bbox="true"
     inkscape:snap-bbox="true"
     inkscape:snap-bbox-midpoints="false"
     inkscape:snap-global="true"
     inkscape:bbox-nodes="true">
    <inkscape:grid
       type="xygrid"
       id="grid2985"
       empspacing="4"
       visible="true"
       enabled="true"
       snapvisiblegridlinesonly="true" />
  </sodipodi:namedview>
  <metadata
     id="metadata7">
    <rdf:RDF>
      <cc:Work
         rdf:about="">
        <dc:format>image/svg+xml</dc:format>
        <dc:type
           rdf:resource="http://purl.org/dc/dcmitype/StillImage" />
        <dc:title />
      </cc:Work>
    </rdf:RDF>
  </metadata>
  <g
     inkscape:label="Layer 1"
     inkscape:groupmode="layer"
     id="layer1"
     transform="translate(0,-1028.3622)">
    <rect
       style="fill:#e67e22;fill-opacity:1;fill-rule:nonzero;stroke:none"
       id="rect3040-96"
       width="14"
       height="13.999983"
       x="5"
       y="1030.3622" />
    <path
       style="fill:#f1c40f;fill-opacity:1;fill-rule:nonzero;stroke:none"
       d="M 4 5 L 4 21 L 20 21 L 20 5 L 4 5 z "
       transform="translate(0,1028.3622)"
       id="rect3040" />
    <path
       style="fill:#f39c12;fill-opacity:1;fill-rule:nonzero;stroke:none"
       d="M 6,1031.3622 4,1033.3622 6,1033.3622 6,1031.3622 z"
       id="path3060-0"
       inkscape:connector-curvature="0" />
    <path
       style="fill:#f1c40f;fill-opacity:1;fill-rule:nonzero;stroke:none"
       d="M 5,1030.3622 5,1032.3622 6,1031.3622 z"
       id="path3060-0-8"
       inkscape:connector-curvature="0"
       sodipodi:nodetypes="cccc" />
    <path
       style="fill:#f39c12;fill-opacity:1;fill-rule:nonzero;stroke:none"
       d="M 18,1031.3622 20,1033.3622 18,1033.3622 18,1031.3622 z"
       id="path3060-0-5"
       inkscape:connector-curvature="0" />
    <path
       style="fill:#f1c40f;fill-opacity:1;fill-rule:nonzero;stroke:none"
       d="M 19,1030.3622 19,1032.3622 18,1031.3622 z"
       id="path3060-0-8-0"
       inkscape:connector-curvature="0"
       sodipodi:nodetypes="cccc" />
    <path
       style="fill:#f39c12;fill-opacity:1;fill-rule:nonzero;stroke:none"
       d="M 12,1045.3622 C 14.761424,1045.3622 17,1043.1236 17,1040.3622 L 17,1037.3622 16,1037.3622 16,1040.3622 C 16,1042.5713 14.209139,1044.3622 12,1044.3622 9.790861,1044.3622 8,1042.5713 8,1040.3622 L 8,1037.3622 7,1037.3622 7,1040.3622 C 7,1043.1236 9.238576,1045.3622 12,1045.3622 z"
       id="path3057-2-5-6-9"
       inkscape:connector-curvature="0" />
    <path
       style="fill:#ecf0f1;fill-opacity:1;fill-rule:nonzero;stroke:none"
       d="M 12,1044.3622 C 9.238576,1044.3622 7,1042.1236 7,1039.3622 L 7,1036.3622 8,1036.3622 8,1039.3622 C 8,1041.5713 9.790861,1043.3622 12,1043.3622 14.209139,1043.3622 16,1041.5713 16,1039.3622 L 16,1036.3622 17,1036.3622 17,1039.3622 C 17,1042.1236 14.761424,1044.3622 12,1044.3622 z"
       id="path3057-2-5-6"
       inkscape:connector-curvature="0" />
    <path
       style="fill:#f39c12;fill-opacity:1;fill-rule:nonzero;stroke:none"
       d="M 17,1035.3622 17,1036.3622 16,1036.3622 16,1035.3622 17,1035.3622 z M 8,1035.3622 8,1036.3622 7,1036.3622 7,1035.3622 8,1035.3622 z"
       id="rect3143-34-3-5"
       inkscape:connector-curvature="0" />
    <path
       style="fill:#f39c12;fill-opacity:1;fill-rule:nonzero;stroke:none"
       d="M 4,1049.3622 5,1050.3622 7,1050.3622 17,1050.3622 19,1050.3622 20,1049.3622 4,1049.3622 z"
       id="rect3040-4"
       inkscape:connector-curvature="0" />
  </g>
</svg>
