<?xml version="1.0" encoding="UTF-8" standalone="no"?>
<!-- Created with Inkscape (http://www.inkscape.org/) -->

<svg
   xmlns:dc="http://purl.org/dc/elements/1.1/"
   xmlns:cc="http://creativecommons.org/ns#"
   xmlns:rdf="http://www.w3.org/1999/02/22-rdf-syntax-ns#"
   xmlns:svg="http://www.w3.org/2000/svg"
   xmlns="http://www.w3.org/2000/svg"
   xmlns:sodipodi="http://sodipodi.sourceforge.net/DTD/sodipodi-0.dtd"
   xmlns:inkscape="http://www.inkscape.org/namespaces/inkscape"
   version="1.1"
   width="24"
   height="24"
   id="svg2"
   inkscape:version="0.48.3.1 r9886"
   sodipodi:docname="beer.svg">
  <sodipodi:namedview
     pagecolor="#ffffff"
     bordercolor="#666666"
     borderopacity="1"
     objecttolerance="10"
     gridtolerance="10"
     guidetolerance="10"
     inkscape:pageopacity="0"
     inkscape:pageshadow="2"
     inkscape:window-width="1920"
     inkscape:window-height="1150"
     id="namedview4778"
     showgrid="true"
     inkscape:zoom="27.812866"
     inkscape:cx="10.758915"
     inkscape:cy="6.5697021"
     inkscape:window-x="0"
     inkscape:window-y="0"
     inkscape:window-maximized="1"
     inkscape:current-layer="layer1">
    <inkscape:grid
       type="xygrid"
       id="grid4133"
       empspacing="4"
       visible="true"
       enabled="true"
       snapvisiblegridlinesonly="true" />
  </sodipodi:namedview>
  <defs
     id="defs4" />
  <metadata
     id="metadata7">
    <rdf:RDF>
      <cc:Work
         rdf:about="">
        <dc:format>image/svg+xml</dc:format>
        <dc:type
           rdf:resource="http://purl.org/dc/dcmitype/StillImage" />
        <dc:title />
      </cc:Work>
    </rdf:RDF>
  </metadata>
  <g
     transform="translate(0,-1028.3622)"
     id="layer1">
    <path
       style="fill:#f1c40f;fill-opacity:1;fill-rule:nonzero;stroke:none"
       d="M 4,1033.3622 4,1048.3622 C 4,1049.4668 4.89543,1050.3622 6,1050.3622 L 16,1050.3622 C 17.104569,1050.3622 18,1049.4668 18,1048.3622 L 18,1033.3622 4,1033.3622 z"
       id="path2988-6"
       inkscape:connector-curvature="0" />
    <path
       style="fill:#bdc3c7;fill-opacity:1;fill-rule:nonzero;stroke:none"
       d="M 4 2 L 4 3.03125 L 4 5 L 4 7 L 4 20 C 4 21.1046 4.895431 22 6 22 L 16 22 C 17.104569 22 18 21.1046 18 20 L 18 5 L 18 2 L 17 2 L 17 7 L 17 20 C 17 20.5523 16.552285 21 16 21 L 6 21 C 5.4477153 21 5 20.5523 5 20 L 5 7 L 5 5 L 5 3.03125 L 5 2 L 4 2 z "
       transform="translate(0,1028.3622)"
       id="path2988" />
    <path
       style="fill:#ecf0f1;fill-opacity:1;fill-rule:nonzero;stroke:none"
       d="M 18,1034.3622 18,1035.1122 18,1035.3622 18,1036.3622 19,1036.3622 C 19.552285,1036.3622 20,1036.8099 20,1037.3622 L 20,1040.3622 20,1043.3622 C 20,1043.9145 19.552285,1044.3622 19,1044.3622 L 18,1044.3622 18,1045.3622 18,1045.6122 18,1046.3622 20,1046.3622 C 21.1046,1046.3622 22,1045.4668 22,1044.3622 L 22,1042.3622 22,1040.3622 22,1038.3622 22,1036.3622 C 22,1035.2576 21.1046,1034.3622 20,1034.3622 L 18,1034.3622 z"
       id="path2988-4"
       inkscape:connector-curvature="0" />
    <path
       style="fill:#bdc3c7;fill-opacity:1;fill-rule:nonzero;stroke:none"
       d="M 19,1034.3622 C 20.1046,1034.3622 21,1035.2576 21,1036.3622 L 21,1038.3622 21,1040.3622 21,1042.3622 21,1044.3622 C 21,1045.4668 20.1046,1046.3622 19,1046.3622 L 20,1046.3622 C 21.1046,1046.3622 22,1045.4668 22,1044.3622 L 22,1042.3622 22,1040.3622 22,1038.3622 22,1036.3622 C 22,1035.2576 21.1046,1034.3622 20,1034.3622 L 19,1034.3622 z"
       id="path2988-4-5"
       inkscape:connector-curvature="0" />
    <path
       style="fill:#95a5a6;fill-opacity:1;fill-rule:nonzero;stroke:none"
       d="M 4,1047.3622 4,1048.3622 C 4,1049.4668 4.895431,1050.3622 6,1050.3622 L 16,1050.3622 C 17.104569,1050.3622 18,1049.4668 18,1048.3622 L 18,1047.3622 C 18,1048.4668 17.104569,1049.3622 16,1049.3622 L 6,1049.3622 C 4.895431,1049.3622 4,1048.4668 4,1047.3622 z"
       id="path2988-2"
       inkscape:connector-curvature="0" />
    <path
       style="fill:#f39c12;fill-opacity:1;fill-rule:nonzero;stroke:none"
       d="M 7,1035.3622 C 6.447715,1035.3622 6,1035.8099 6,1036.3622 L 6,1047.3622 C 6,1047.9145 6.447715,1048.3622 7,1048.3622 L 7,1047.3622 7,1036.3622 7,1035.3622 z M 11,1035.3622 C 10.447715,1035.3622 10,1035.8099 10,1036.3622 L 10,1047.3622 C 10,1047.9145 10.447715,1048.3622 11,1048.3622 L 11,1047.3622 11,1036.3622 11,1035.3622 z M 15,1035.3622 C 14.447715,1035.3622 14,1035.8099 14,1036.3622 L 14,1047.3622 C 14,1047.9145 14.447715,1048.3622 15,1048.3622 L 15,1047.3622 15,1036.3622 15,1035.3622 z"
       id="path3013-4-5"
       inkscape:connector-curvature="0" />
    <path
       style="fill:#ecf0f1;fill-opacity:1;fill-rule:nonzero;stroke:none"
       d="M 5,1031.3622 5,1031.6747 5,1033.3622 5,1035.7685 C 5.2125399,1035.8839 5.4598666,1035.956 5.71875,1035.956 6.419461,1035.956 6.991452,1035.4804 7.15625,1034.831 7.328411,1034.8998 7.521999,1034.956 7.71875,1034.956 7.901694,1034.956 8.087898,1034.9222 8.25,1034.8622 8.246453,1034.8965 8.21875,1034.9208 8.21875,1034.956 8.21875,1035.5082 8.666465,1035.956 9.21875,1035.956 9.470268,1035.956 9.699269,1035.8593 9.875,1035.706 10.114402,1035.8677 10.40809,1035.956 10.71875,1035.956 11.384943,1035.956 11.929352,1035.5256 12.125,1034.9247 12.159257,1034.9282 12.183555,1034.956 12.21875,1034.956 12.771035,1034.956 13.21875,1034.5082 13.21875,1033.956 13.21875,1034.5082 13.666465,1034.956 14.21875,1034.956 14.771035,1034.956 15.21875,1034.5082 15.21875,1033.956 L 15.3125,1033.956 C 15.51634,1034.5424 16.062912,1034.956 16.71875,1034.956 16.816839,1034.956 16.90758,1034.9424 17,1034.9247 L 17,1033.3622 17,1031.6747 17,1031.3622 5,1031.3622 z"
       id="path3312"
       inkscape:connector-curvature="0" />
    <path
       style="fill:#ecf0f1;fill-opacity:1;fill-rule:nonzero;stroke:none"
       d="M 5,1033.3622 5,1048.3622 C 5,1048.9145 5.447715,1049.3622 6,1049.3622 L 16,1049.3622 C 16.552285,1049.3622 17,1048.9145 17,1048.3622 L 17,1033.3622 16,1033.3622 16,1048.3622 6,1048.3622 6,1033.3622 5,1033.3622 z"
       id="path2988-6-0"
       inkscape:connector-curvature="0" />
  </g>
</svg>
