<?xml version="1.0" encoding="UTF-8" standalone="no"?>
<!-- Created with Inkscape (http://www.inkscape.org/) -->

<svg
   xmlns:dc="http://purl.org/dc/elements/1.1/"
   xmlns:cc="http://creativecommons.org/ns#"
   xmlns:rdf="http://www.w3.org/1999/02/22-rdf-syntax-ns#"
   xmlns:svg="http://www.w3.org/2000/svg"
   xmlns="http://www.w3.org/2000/svg"
   xmlns:sodipodi="http://sodipodi.sourceforge.net/DTD/sodipodi-0.dtd"
   xmlns:inkscape="http://www.inkscape.org/namespaces/inkscape"
   version="1.1"
   width="24"
   height="24"
   id="svg2"
   inkscape:version="0.48.3.1 r9886"
   sodipodi:docname="bitcoin.svg">
  <sodipodi:namedview
     pagecolor="#ffffff"
     bordercolor="#666666"
     borderopacity="1"
     objecttolerance="10"
     gridtolerance="10"
     guidetolerance="10"
     inkscape:pageopacity="0"
     inkscape:pageshadow="2"
     inkscape:window-width="1920"
     inkscape:window-height="1150"
     id="namedview4604"
     showgrid="true"
     inkscape:zoom="22.397663"
     inkscape:cx="24.844561"
     inkscape:cy="7.8631998"
     inkscape:window-x="0"
     inkscape:window-y="0"
     inkscape:window-maximized="1"
     inkscape:current-layer="layer1"
     inkscape:snap-bbox="true"
     inkscape:snap-global="true">
    <inkscape:grid
       type="xygrid"
       id="grid2986"
       empspacing="5"
       visible="true"
       enabled="true"
       snapvisiblegridlinesonly="true" />
  </sodipodi:namedview>
  <defs
     id="defs4" />
  <metadata
     id="metadata7">
    <rdf:RDF>
      <cc:Work
         rdf:about="">
        <dc:format>image/svg+xml</dc:format>
        <dc:type
           rdf:resource="http://purl.org/dc/dcmitype/StillImage" />
        <dc:title />
      </cc:Work>
    </rdf:RDF>
  </metadata>
  <g
     transform="translate(0,-1028.3622)"
     id="layer1">
    <path
       sodipodi:type="arc"
       style="fill:#e67e22;fill-opacity:1;fill-rule:nonzero;stroke:none"
       id="path3122-0"
       sodipodi:cx="12"
       sodipodi:cy="12"
       sodipodi:rx="12"
       sodipodi:ry="12"
       d="M 24,12 A 12,12 0 1 1 0,12 12,12 0 1 1 24,12 z"
       transform="matrix(0.91666666,0,0,0.91666667,1.0000001,1030.3622)" />
    <path
       style="fill:#e67e22;fill-opacity:1;fill-rule:nonzero;stroke:none"
       d="M 5,971.3622 5,973.3622 3,973.3622 2,973.3622 2,975.3622 3,975.3622 3,982.3622 2,982.3622 2,984.3622 3,984.3622 5,984.3622 5,986.3622 6,986.3622 6,984.3622 7,984.3622 8,984.3622 8.5,984.3622 C 10.432997,984.3622 12,983.0191 12,981.3622 12,980.142 11.220103,978.8309 10,978.3622 10.647282,977.8119 11,977.2783 11,976.3622 11,974.7053 9.656854,973.3622 8,973.3622 L 7,973.3622 6,973.3622 6,971.3622 5,971.3622 z M 5,975.3622 8,975.3622 C 8.552285,975.3622 9,975.8099 9,976.3622 9,976.9145 8.552285,977.3622 8,977.3622 L 5,977.3622 5,975.3622 z M 5,979.3622 8,979.3622 C 9.104569,979.3622 10,980.0338 10,980.8622 10,981.6906 9.104569,982.3622 8,982.3622 L 5,982.3622 5,979.3622 z"
       id="rect2987"
       inkscape:connector-curvature="0" />
    <path
       sodipodi:type="arc"
       style="fill:#f1c40f;fill-opacity:1;fill-rule:nonzero;stroke:none"
       id="path3122-5"
       sodipodi:cx="12"
       sodipodi:cy="12"
       sodipodi:rx="12"
       sodipodi:ry="12"
       d="M 24,12 A 12,12 0 1 1 0,12 12,12 0 1 1 24,12 z"
       transform="matrix(0.91666666,0,0,0.91666666,83,995.3622)" />
    <path
       style="fill:#e67e22;fill-opacity:1;fill-rule:nonzero;stroke:none"
       d="M 92,999.3622 92,1001.3622 90,1001.3622 89,1001.3622 89,1003.3622 90,1003.3622 90,1010.3622 89,1010.3622 89,1012.3622 90,1012.3622 92,1012.3622 92,1014.3622 93,1014.3622 93,1012.3622 94,1012.3622 94,1014.3622 95,1014.3622 95,1012.3622 95.5,1012.3622 C 97.432997,1012.3622 99,1011.0191 99,1009.3622 99,1008.142 98.220103,1006.8309 97,1006.3622 97.647282,1005.8119 98,1005.2783 98,1004.3622 98,1002.7053 96.656854,1001.3622 95,1001.3622 L 95,999.3622 94,999.3622 94,1001.3622 93,1001.3622 93,999.3622 z M 92,1003.3622 95,1003.3622 C 95.552285,1003.3622 96,1003.8099 96,1004.3622 96,1004.9145 95.552285,1005.3622 95,1005.3622 L 92,1005.3622 z M 92,1007.3622 95,1007.3622 C 96.104569,1007.3622 97,1008.0338 97,1008.8622 97,1009.6906 96.104569,1010.3622 95,1010.3622 L 92,1010.3622 z"
       id="rect2987-7"
       inkscape:connector-curvature="0"
       sodipodi:nodetypes="ccccccccccccccccccsscsccccccccssscccssscc" />
    <path
       sodipodi:type="arc"
       style="fill:#f1c40f;fill-opacity:1;fill-rule:nonzero;stroke:none"
       id="path3122"
       sodipodi:cx="12"
       sodipodi:cy="12"
       sodipodi:rx="12"
       sodipodi:ry="12"
       d="M 24,12 A 12,12 0 1 1 0,12 12,12 0 1 1 24,12 z"
       transform="matrix(0.83333334,0,0,0.83333333,2,1030.3622)" />
    <path
       style="fill:#f39c12;fill-opacity:1;fill-rule:nonzero;stroke:none"
       d="M 10,1032.3622 10,1034.3622 8,1034.3622 7,1034.3622 7,1036.3622 8,1036.3622 8,1043.3622 7,1043.3622 7,1045.3622 8,1045.3622 10,1045.3622 10,1047.3622 11,1047.3622 11,1045.3622 12,1045.3622 13,1045.3622 13,1047.3622 14,1047.3622 14,1045.3622 14.5,1045.3622 C 16.432997,1045.3622 18,1044.0191 18,1042.3622 18,1041.142 17.2201,1039.8309 16,1039.3622 16.647282,1038.8119 17,1038.2783 17,1037.3622 17,1035.7053 15.656854,1034.3622 14,1034.3622 L 14,1032.3622 13,1032.3622 13,1034.3622 12,1034.3622 11,1034.3622 11,1032.3622 10,1032.3622 z M 10,1036.3622 12,1036.3622 14,1036.3622 C 14.552285,1036.3622 15,1036.8099 15,1037.3622 15,1037.9145 14.552285,1038.3622 14,1038.3622 L 12,1038.3622 10,1038.3622 10,1036.3622 z M 10,1040.3622 12,1040.3622 14,1040.3622 C 15.104569,1040.3622 16,1041.0338 16,1041.8622 16,1042.6906 15.104569,1043.3622 14,1043.3622 L 12,1043.3622 10,1043.3622 10,1040.3622 z"
       id="rect2987-7-4"
       inkscape:connector-curvature="0" />
    <path
       style="fill:#e67e22;fill-opacity:1;fill-rule:nonzero;stroke:none"
       d="M 7,1035.3622 7,1036.3622 8,1036.3622 8,1035.3622 7,1035.3622 z M 10,1035.3622 10,1036.3622 12,1036.3622 14,1036.3622 C 14.364965,1036.3622 14.669139,1036.5702 14.84375,1036.8622 14.933369,1036.7123 15,1036.5495 15,1036.3622 15,1035.8099 14.552285,1035.3622 14,1035.3622 L 12,1035.3622 10,1035.3622 z M 10,1039.3622 10,1040.3622 12,1040.3622 14,1040.3622 C 14.872553,1040.3622 15.601762,1040.7778 15.875,1041.3622 15.947655,1041.2068 16,1041.0362 16,1040.8622 16,1040.0338 15.104569,1039.3622 14,1039.3622 L 12,1039.3622 10,1039.3622 z M 17.9375,1041.831 C 17.668619,1043.2588 16.241683,1044.3622 14.5,1044.3622 L 14,1044.3622 14,1045.3622 14.5,1045.3622 C 16.432997,1045.3622 18,1044.0191 18,1042.3622 18,1042.1867 17.968773,1042.0075 17.9375,1041.831 z M 7,1044.3622 7,1045.3622 8,1045.3622 10,1045.3622 10,1044.3622 8,1044.3622 7,1044.3622 z M 11,1044.3622 11,1045.3622 12,1045.3622 13,1045.3622 13,1044.3622 12,1044.3622 11,1044.3622 z M 10,1046.3622 10,1047.3622 11,1047.3622 11,1046.3622 10,1046.3622 z M 13,1046.3622 13,1047.3622 14,1047.3622 14,1046.3622 13,1046.3622 z"
       id="rect2987-7-4-1"
       inkscape:connector-curvature="0" />
    <path
       style="fill:#f39c12;fill-opacity:1;fill-rule:nonzero;stroke:none"
       d="M 12,1029.3622 C 5.924868,1029.3622 1,1034.2871 1,1040.3622 1,1046.4373 5.924868,1051.3622 12,1051.3622 18.075132,1051.3622 23,1046.4373 23,1040.3622 23,1034.2871 18.075132,1029.3622 12,1029.3622 z M 12,1031.3622 C 16.970563,1031.3622 21,1035.3916 21,1040.3622 21,1045.3328 16.970563,1049.3622 12,1049.3622 7.029437,1049.3622 3,1045.3328 3,1040.3622 3,1035.3916 7.029437,1031.3622 12,1031.3622 z"
       id="path3122-56"
       inkscape:connector-curvature="0" />
  </g>
</svg>
