<?xml version="1.0" encoding="UTF-8" standalone="no"?>
<!-- Created with Inkscape (http://www.inkscape.org/) -->

<svg
   xmlns:dc="http://purl.org/dc/elements/1.1/"
   xmlns:cc="http://creativecommons.org/ns#"
   xmlns:rdf="http://www.w3.org/1999/02/22-rdf-syntax-ns#"
   xmlns:svg="http://www.w3.org/2000/svg"
   xmlns="http://www.w3.org/2000/svg"
   xmlns:sodipodi="http://sodipodi.sourceforge.net/DTD/sodipodi-0.dtd"
   xmlns:inkscape="http://www.inkscape.org/namespaces/inkscape"
   version="1.1"
   width="24"
   height="24"
   id="svg2"
   inkscape:version="0.48.3.1 r9886"
   sodipodi:docname="bitcoin.svg">
  <sodipodi:namedview
     pagecolor="#ffffff"
     bordercolor="#666666"
     borderopacity="1"
     objecttolerance="10"
     gridtolerance="10"
     guidetolerance="10"
     inkscape:pageopacity="0"
     inkscape:pageshadow="2"
     inkscape:window-width="1920"
     inkscape:window-height="1150"
     id="namedview4604"
     showgrid="true"
     inkscape:zoom="31.675079"
     inkscape:cx="36.647933"
     inkscape:cy="11.769602"
     inkscape:window-x="0"
     inkscape:window-y="0"
     inkscape:window-maximized="1"
     inkscape:current-layer="layer1"
     inkscape:snap-bbox="true"
     inkscape:snap-global="true">
    <inkscape:grid
       type="xygrid"
       id="grid2986"
       empspacing="5"
       visible="true"
       enabled="true"
       snapvisiblegridlinesonly="true" />
  </sodipodi:namedview>
  <defs
     id="defs4" />
  <metadata
     id="metadata7">
    <rdf:RDF>
      <cc:Work
         rdf:about="">
        <dc:format>image/svg+xml</dc:format>
        <dc:type
           rdf:resource="http://purl.org/dc/dcmitype/StillImage" />
        <dc:title />
      </cc:Work>
    </rdf:RDF>
  </metadata>
  <g
     transform="translate(0,-1028.3622)"
     id="layer1">
    <path
       sodipodi:type="arc"
       style="fill:#f39c12;fill-opacity:1;fill-rule:nonzero;stroke:none"
       id="path3122-0"
       sodipodi:cx="12"
       sodipodi:cy="12"
       sodipodi:rx="12"
       sodipodi:ry="12"
       d="M 24,12 C 24,18.627417 18.627417,24 12,24 5.372583,24 0,18.627417 0,12 0,5.372583 5.372583,0 12,0 18.627417,0 24,5.372583 24,12 z"
       transform="matrix(0.91666666,0,0,0.91666667,1.0000001,1030.3622)" />
    <path
       sodipodi:type="arc"
       style="fill:#f39c12;fill-opacity:1;fill-rule:nonzero;stroke:none"
       id="path3122"
       sodipodi:cx="12"
       sodipodi:cy="12"
       sodipodi:rx="12"
       sodipodi:ry="12"
       d="M 24,12 C 24,18.627417 18.627417,24 12,24 5.372583,24 0,18.627417 0,12 0,5.372583 5.372583,0 12,0 18.627417,0 24,5.372583 24,12 z"
       transform="matrix(0.83333334,0,0,0.83333333,2,1030.3622)" />
    <path
       style="fill:#f1c40f;fill-opacity:1;fill-rule:nonzero;stroke:none"
       d="M 10,1032.3622 10,1034.3622 8,1034.3622 7,1034.3622 7,1036.3622 8,1036.3622 8,1043.3622 7,1043.3622 7,1045.3622 8,1045.3622 10,1045.3622 10,1047.3622 11,1047.3622 11,1045.3622 12,1045.3622 13,1045.3622 13,1047.3622 14,1047.3622 14,1045.3622 14.5,1045.3622 C 16.432997,1045.3622 18,1044.0191 18,1042.3622 18,1041.142 17.2201,1039.8309 16,1039.3622 16.647282,1038.8119 17,1038.2783 17,1037.3622 17,1035.7053 15.656854,1034.3622 14,1034.3622 L 14,1032.3622 13,1032.3622 13,1034.3622 12,1034.3622 11,1034.3622 11,1032.3622 10,1032.3622 z M 10,1036.3622 12,1036.3622 14,1036.3622 C 14.552285,1036.3622 15,1036.8099 15,1037.3622 15,1037.9145 14.552285,1038.3622 14,1038.3622 L 12,1038.3622 10,1038.3622 10,1036.3622 z M 10,1040.3622 12,1040.3622 14,1040.3622 C 15.104569,1040.3622 16,1041.0338 16,1041.8622 16,1042.6906 15.104569,1043.3622 14,1043.3622 L 12,1043.3622 10,1043.3622 10,1040.3622 z"
       id="rect2987-7-4"
       inkscape:connector-curvature="0" />
    <path
       style="fill:#f1c40f;fill-opacity:1;fill-rule:nonzero;stroke:none"
       d="M 12,1029.3622 C 5.924868,1029.3622 1,1034.2871 1,1040.3622 1,1046.4373 5.924868,1051.3622 12,1051.3622 18.075132,1051.3622 23,1046.4373 23,1040.3622 23,1034.2871 18.075132,1029.3622 12,1029.3622 z M 12,1031.3622 C 16.970563,1031.3622 21,1035.3916 21,1040.3622 21,1045.3328 16.970563,1049.3622 12,1049.3622 7.029437,1049.3622 3,1045.3328 3,1040.3622 3,1035.3916 7.029437,1031.3622 12,1031.3622 z"
       id="path3122-56"
       inkscape:connector-curvature="0" />
    <path
       style="fill:#e67e22;fill-opacity:1;fill-rule:nonzero;stroke:none"
       d="M 7,1035.3622 7,1036.3622 8,1036.3622 8,1035.3622 7,1035.3622 z M 10,1035.3622 10,1036.3622 12,1036.3622 14,1036.3622 C 14.045621,1036.3622 14.078056,1036.3684 14.125,1036.3935 14.60266,1036.4582 14.984368,1036.8393 15,1037.331 15.022016,1037.0201 15,1036.5027 15,1036.3622 15,1035.8099 14.552285,1035.3622 14,1035.3622 L 12,1035.3622 10,1035.3622 z M 10,1039.3622 10,1040.3622 12,1040.3622 14,1040.3622 C 14.109069,1040.3622 14.205621,1040.3648 14.3125,1040.3935 15.229231,1040.5014 15.943201,1041.0613 16,1041.7685 16.027537,1041.4944 16,1041.0053 16,1040.8622 16,1040.0338 15.104569,1039.3622 14,1039.3622 L 12,1039.3622 10,1039.3622 z M 17.9375,1041.831 C 17.668619,1043.2588 16.241683,1044.3622 14.5,1044.3622 L 14,1044.3622 14,1045.3622 14.5,1045.3622 C 14.741625,1045.3622 14.990908,1045.3397 15.21875,1045.2997 16.813641,1045.02 18,1043.812 18,1042.3622 18,1042.1867 17.968773,1042.0075 17.9375,1041.831 z M 7,1044.3622 7,1045.3622 8,1045.3622 10,1045.3622 10,1044.3622 8,1044.3622 7,1044.3622 z M 11,1044.3622 11,1045.3622 12,1045.3622 13,1045.3622 13,1044.3622 12,1044.3622 11,1044.3622 z M 10,1046.3622 10,1047.3622 11,1047.3622 11,1046.3622 10,1046.3622 z M 13,1046.3622 13,1047.3622 14,1047.3622 14,1046.3622 13,1046.3622 z"
       id="rect2987-7-4-1-4"
       inkscape:connector-curvature="0" />
  </g>
</svg>
