<?xml version="1.0" encoding="UTF-8" standalone="no"?>
<!-- Created with Inkscape (http://www.inkscape.org/) -->

<svg
   xmlns:dc="http://purl.org/dc/elements/1.1/"
   xmlns:cc="http://creativecommons.org/ns#"
   xmlns:rdf="http://www.w3.org/1999/02/22-rdf-syntax-ns#"
   xmlns:svg="http://www.w3.org/2000/svg"
   xmlns="http://www.w3.org/2000/svg"
   xmlns:sodipodi="http://sodipodi.sourceforge.net/DTD/sodipodi-0.dtd"
   xmlns:inkscape="http://www.inkscape.org/namespaces/inkscape"
   version="1.1"
   width="24"
   height="24"
   id="svg2"
   inkscape:version="0.48.3.1 r9886"
   sodipodi:docname="book-bookmark.svg">
  <sodipodi:namedview
     pagecolor="#ffffff"
     bordercolor="#666666"
     borderopacity="1"
     objecttolerance="10"
     gridtolerance="10"
     guidetolerance="10"
     inkscape:pageopacity="0"
     inkscape:pageshadow="2"
     inkscape:window-width="1920"
     inkscape:window-height="1150"
     id="namedview3043"
     showgrid="true"
     inkscape:zoom="39.333333"
     inkscape:cx="14.785038"
     inkscape:cy="2.0045757"
     inkscape:window-x="0"
     inkscape:window-y="0"
     inkscape:window-maximized="1"
     inkscape:current-layer="layer1">
    <inkscape:grid
       type="xygrid"
       id="grid4204"
       empspacing="4"
       visible="true"
       enabled="true"
       snapvisiblegridlinesonly="true" />
  </sodipodi:namedview>
  <defs
     id="defs4" />
  <metadata
     id="metadata7">
    <rdf:RDF>
      <cc:Work
         rdf:about="">
        <dc:format>image/svg+xml</dc:format>
        <dc:type
           rdf:resource="http://purl.org/dc/dcmitype/StillImage" />
        <dc:title />
      </cc:Work>
    </rdf:RDF>
  </metadata>
  <g
     transform="translate(0,-1028.3622)"
     id="layer1">
    <path
       d="M 3,1035.3622 3,1037.3622 3,1038.3622 3,1041.3622 3,1042.3622 3,1047.3622 3,1048.3622 C 3,1049.4668 3.89543,1050.3622 5,1050.3622 L 19,1050.3622 C 20.104569,1050.3622 21,1049.4668 21,1048.3622 L 21,1047.3622 21,1042.3622 21,1038.3622 21,1035.3622 3,1035.3622 z"
       inkscape:connector-curvature="0"
       id="path2987-2"
       style="fill:#16a085;fill-opacity:1;fill-rule:nonzero;stroke:none" />
    <path
       d="M 3,1034.3622 3,1036.3622 3,1037.3622 3,1040.3622 3,1041.3622 3,1046.3622 3,1047.3622 C 3,1048.4668 3.89543,1049.3622 5,1049.3622 L 19,1049.3622 C 20.104569,1049.3622 21,1048.4668 21,1047.3622 L 21,1046.3622 21,1041.3622 21,1037.3622 21,1034.3622 3,1034.3622 z"
       inkscape:connector-curvature="0"
       id="path2987-2-3"
       style="fill:#ecf0f1;fill-opacity:1;fill-rule:nonzero;stroke:none" />
    <path
       d="M 3,1033.3622 3,1035.3622 3,1036.3622 3,1039.3622 3,1040.3622 3,1045.3622 3,1046.3622 C 3,1047.4668 3.89543,1048.3622 5,1048.3622 L 19,1048.3622 C 20.104569,1048.3622 21,1047.4668 21,1046.3622 L 21,1045.3622 21,1040.3622 21,1036.3622 21,1033.3622 3,1033.3622 z"
       inkscape:connector-curvature="0"
       id="path2987-2-3-5"
       style="fill:#bdc3c7;fill-opacity:1;fill-rule:nonzero;stroke:none" />
    <path
       d="M 3,1032.3622 3,1034.3622 3,1035.3622 3,1038.3622 3,1039.3622 3,1044.3622 3,1045.3622 C 3,1046.4668 3.89543,1047.3622 5,1047.3622 L 19,1047.3622 C 20.104569,1047.3622 21,1046.4668 21,1045.3622 L 21,1044.3622 21,1039.3622 21,1035.3622 21,1032.3622 3,1032.3622 z"
       inkscape:connector-curvature="0"
       id="path2987-2-3-9"
       style="fill:#ecf0f1;fill-opacity:1;fill-rule:nonzero;stroke:none" />
    <path
       d="M 5,1028.3622 C 3.895431,1028.3622 3,1029.2576 3,1030.3622 L 3,1031.3622 3,1035.3622 3,1037.3622 3,1038.3622 3,1041.3622 3,1042.3622 3,1047.3622 3,1048.3622 C 3,1049.4668 3.89543,1050.3622 5,1050.3622 L 7,1050.3622 7,1049.3622 5.5,1049.3622 C 4.671573,1049.3622 4,1048.6906 4,1047.8622 4,1047.0338 4.671573,1046.3622 5.5,1046.3622 L 18,1046.3622 19,1046.3622 C 20.104569,1046.3622 21,1045.4668 21,1044.3622 L 21,1043.3622 21,1038.3622 21,1034.3622 21,1031.3622 21,1030.3622 C 21,1029.2576 20.10457,1028.3622 19,1028.3622 L 15,1028.3622 5,1028.3622 z"
       inkscape:connector-curvature="0"
       id="path2987-2-5"
       style="fill:#16a085;fill-opacity:1;fill-rule:nonzero;stroke:none" />
    <path
       d="M 8,1028.3622 8,1046.3622 9,1046.3622 18,1046.3622 19,1046.3622 C 20.104569,1046.3622 21,1045.4668 21,1044.3622 L 21,1043.3622 21,1038.3622 21,1034.3622 21,1031.3622 21,1030.3622 C 21,1029.2576 20.10457,1028.3622 19,1028.3622 L 15,1028.3622 9,1028.3622 8,1028.3622 z"
       inkscape:connector-curvature="0"
       id="path2987-2-5-4"
       style="fill:#1abc9c;fill-opacity:1;fill-rule:nonzero;stroke:none" />
    <path
       style="fill:#e74c3c;fill-opacity:1;fill-rule:nonzero;stroke:none"
       d="M 7,1048.3622 7,1050.3622 7,1052.3622 9.5,1050.3622 12,1052.3622 12,1050.3622 12,1048.3622 7,1048.3622 z"
       id="rect2990-9"
       inkscape:connector-curvature="0" />
    <rect
       style="fill:#c0392b;fill-opacity:1;fill-rule:nonzero;stroke:none"
       id="rect2999"
       width="5"
       height="1"
       x="7"
       y="1047.3622" />
  </g>
</svg>
