<?xml version="1.0" encoding="UTF-8" standalone="no"?>
<!-- Created with Inkscape (http://www.inkscape.org/) -->

<svg
   xmlns:dc="http://purl.org/dc/elements/1.1/"
   xmlns:cc="http://creativecommons.org/ns#"
   xmlns:rdf="http://www.w3.org/1999/02/22-rdf-syntax-ns#"
   xmlns:svg="http://www.w3.org/2000/svg"
   xmlns="http://www.w3.org/2000/svg"
   xmlns:sodipodi="http://sodipodi.sourceforge.net/DTD/sodipodi-0.dtd"
   xmlns:inkscape="http://www.inkscape.org/namespaces/inkscape"
   version="1.1"
   width="24"
   height="24"
   id="svg2"
   inkscape:version="0.48.3.1 r9886"
   sodipodi:docname="book.svg">
  <sodipodi:namedview
     pagecolor="#ffffff"
     bordercolor="#666666"
     borderopacity="1"
     objecttolerance="10"
     gridtolerance="10"
     guidetolerance="10"
     inkscape:pageopacity="0"
     inkscape:pageshadow="2"
     inkscape:window-width="1920"
     inkscape:window-height="1150"
     id="namedview3043"
     showgrid="true"
     inkscape:zoom="6.9532167"
     inkscape:cx="8.3608316"
     inkscape:cy="4.7309123"
     inkscape:window-x="0"
     inkscape:window-y="0"
     inkscape:window-maximized="1"
     inkscape:current-layer="layer1">
    <inkscape:grid
       type="xygrid"
       id="grid4204"
       empspacing="4"
       visible="true"
       enabled="true"
       snapvisiblegridlinesonly="true" />
  </sodipodi:namedview>
  <defs
     id="defs4" />
  <metadata
     id="metadata7">
    <rdf:RDF>
      <cc:Work
         rdf:about="">
        <dc:format>image/svg+xml</dc:format>
        <dc:type
           rdf:resource="http://purl.org/dc/dcmitype/StillImage" />
        <dc:title />
      </cc:Work>
    </rdf:RDF>
  </metadata>
  <g
     transform="translate(0,-1028.3622)"
     id="layer1">
    <path
       d="M 3,8 3,10 3,11 3,14 3,15 3,20 3,21 C 3,22.1046 3.89543,23 5,23 L 19,23 C 20.104569,23 21,22.1046 21,21 L 21,20 21,15 21,11 21,8 3,8 z"
       inkscape:connector-curvature="0"
       transform="translate(0,1028.3622)"
       id="path2987-2"
       style="fill:#16a085;fill-opacity:1;fill-rule:nonzero;stroke:none" />
    <path
       d="M 3,1035.3622 3,1037.3622 3,1038.3622 3,1041.3622 3,1042.3622 3,1047.3622 3,1048.3622 C 3,1049.4668 3.89543,1050.3622 5,1050.3622 L 19,1050.3622 C 20.104569,1050.3622 21,1049.4668 21,1048.3622 L 21,1047.3622 21,1042.3622 21,1038.3622 21,1035.3622 3,1035.3622 z"
       inkscape:connector-curvature="0"
       id="path2987-2-3"
       style="fill:#ecf0f1;fill-opacity:1;fill-rule:nonzero;stroke:none" />
    <path
       d="M 3,1034.3622 3,1036.3622 3,1037.3622 3,1040.3622 3,1041.3622 3,1046.3622 3,1047.3622 C 3,1048.4668 3.89543,1049.3622 5,1049.3622 L 19,1049.3622 C 20.104569,1049.3622 21,1048.4668 21,1047.3622 L 21,1046.3622 21,1041.3622 21,1037.3622 21,1034.3622 3,1034.3622 z"
       inkscape:connector-curvature="0"
       id="path2987-2-3-5"
       style="fill:#bdc3c7;fill-opacity:1;fill-rule:nonzero;stroke:none" />
    <path
       d="M 3,1033.3622 3,1035.3622 3,1036.3622 3,1039.3622 3,1040.3622 3,1045.3622 3,1046.3622 C 3,1047.4668 3.89543,1048.3622 5,1048.3622 L 19,1048.3622 C 20.104569,1048.3622 21,1047.4668 21,1046.3622 L 21,1045.3622 21,1040.3622 21,1036.3622 21,1033.3622 3,1033.3622 z"
       inkscape:connector-curvature="0"
       id="path2987-2-3-9"
       style="fill:#ecf0f1;fill-opacity:1;fill-rule:nonzero;stroke:none" />
    <path
       d="M 5,1 C 3.895431,1 3,1.8954 3,3 L 3,4 3,8 3,10 3,11 3,14 3,15 3,20 3,21 C 3,22.1046 3.89543,23 5,23 L 7,23 7,22 5.5,22 C 4.671573,22 4,21.3284 4,20.5 4,19.6716 4.671573,19 5.5,19 L 18,19 19,19 C 20.104569,19 21,18.1046 21,17 L 21,16 21,11 21,7 21,4 21,3 C 21,1.8954 20.10457,1 19,1 L 15,1 5,1 z"
       inkscape:connector-curvature="0"
       transform="translate(0,1028.3622)"
       id="path2987-2-5"
       style="fill:#16a085;fill-opacity:1;fill-rule:nonzero;stroke:none" />
    <path
       d="M 8,1 8,19 9,19 18,19 19,19 C 20.104569,19 21,18.1046 21,17 L 21,16 21,11 21,7 21,4 21,3 C 21,1.8954 20.10457,1 19,1 L 15,1 9,1 8,1 z"
       inkscape:connector-curvature="0"
       transform="translate(0,1028.3622)"
       id="path2987-2-5-4"
       style="fill:#1abc9c;fill-opacity:1;fill-rule:nonzero;stroke:none" />
  </g>
</svg>
