<?xml version="1.0" encoding="UTF-8" standalone="no"?>
<!-- Created with Inkscape (http://www.inkscape.org/) -->

<svg
   xmlns:dc="http://purl.org/dc/elements/1.1/"
   xmlns:cc="http://creativecommons.org/ns#"
   xmlns:rdf="http://www.w3.org/1999/02/22-rdf-syntax-ns#"
   xmlns:svg="http://www.w3.org/2000/svg"
   xmlns="http://www.w3.org/2000/svg"
   xmlns:sodipodi="http://sodipodi.sourceforge.net/DTD/sodipodi-0.dtd"
   xmlns:inkscape="http://www.inkscape.org/namespaces/inkscape"
   version="1.1"
   width="24"
   height="24"
   id="svg2"
   inkscape:version="0.48.3.1 r9886"
   sodipodi:docname="bubble.svg">
  <sodipodi:namedview
     pagecolor="#ffffff"
     bordercolor="#666666"
     borderopacity="1"
     objecttolerance="10"
     gridtolerance="10"
     guidetolerance="10"
     inkscape:pageopacity="0"
     inkscape:pageshadow="2"
     inkscape:window-width="1920"
     inkscape:window-height="1150"
     id="namedview3067"
     showgrid="true"
     inkscape:zoom="4.9166667"
     inkscape:cx="11.048223"
     inkscape:cy="15.252909"
     inkscape:window-x="0"
     inkscape:window-y="0"
     inkscape:window-maximized="1"
     inkscape:current-layer="layer1">
    <inkscape:grid
       type="xygrid"
       id="grid4202"
       empspacing="4"
       visible="true"
       enabled="true"
       snapvisiblegridlinesonly="true" />
  </sodipodi:namedview>
  <defs
     id="defs4" />
  <metadata
     id="metadata7">
    <rdf:RDF>
      <cc:Work
         rdf:about="">
        <dc:format>image/svg+xml</dc:format>
        <dc:type
           rdf:resource="http://purl.org/dc/dcmitype/StillImage" />
        <dc:title />
      </cc:Work>
    </rdf:RDF>
  </metadata>
  <g
     transform="translate(0,-1028.3622)"
     id="layer1">
    <path
       d="M 5,1031.3622 C 2.790861,1031.3622 1,1033.1531 1,1035.3622 L 1,1043.3622 C 1,1045.5713 2.790861,1047.3622 5,1047.3622 L 5.15625,1047.3622 5.15625,1052.206 11.0625,1047.3622 19,1047.3622 C 21.209139,1047.3622 23,1045.5713 23,1043.3622 L 23,1035.3622 C 23,1033.1531 21.209139,1031.3622 19,1031.3622 L 5,1031.3622 z"
       inkscape:connector-curvature="0"
       id="path3096-2-2"
       style="fill:#27ae60;fill-opacity:1;fill-rule:nonzero;stroke:none" />
    <path
       d="M 4.9375,1030.3622 C 2.728361,1030.3622 0.9375,1032.1531 0.9375,1034.3622 L 0.9375,1042.3622 C 0.9375,1044.5713 2.728361,1046.3622 4.9375,1046.3622 L 5.09375,1046.3622 5.09375,1051.206 11,1046.3622 18.9375,1046.3622 C 21.146639,1046.3622 22.9375,1044.5713 22.9375,1042.3622 L 22.9375,1034.3622 C 22.9375,1032.1531 21.146639,1030.3622 18.9375,1030.3622 L 4.9375,1030.3622 z"
       inkscape:connector-curvature="0"
       id="path3096-2"
       style="fill:#2ecc71;fill-opacity:1;fill-rule:nonzero;stroke:none" />
    <path
       d="M 6,1037.3622 C 4.895431,1037.3622 4,1038.2576 4,1039.3622 4,1040.4668 4.895431,1041.3622 6,1041.3622 7.104569,1041.3622 8,1040.4668 8,1039.3622 8,1038.2576 7.104569,1037.3622 6,1037.3622 z M 12,1037.3622 C 10.895431,1037.3622 10,1038.2576 10,1039.3622 10,1040.4668 10.895431,1041.3622 12,1041.3622 13.104569,1041.3622 14,1040.4668 14,1039.3622 14,1038.2576 13.104569,1037.3622 12,1037.3622 z M 18,1037.3622 C 16.895431,1037.3622 16,1038.2576 16,1039.3622 16,1040.4668 16.895431,1041.3622 18,1041.3622 19.104569,1041.3622 20,1040.4668 20,1039.3622 20,1038.2576 19.104569,1037.3622 18,1037.3622 z"
       inkscape:connector-curvature="0"
       id="path3069-2"
       style="fill:#27ae60;fill-opacity:1;fill-rule:nonzero;stroke:none" />
    <path
       d="M 6,1036.3622 C 4.895431,1036.3622 4,1037.2576 4,1038.3622 4,1039.4668 4.895431,1040.3622 6,1040.3622 7.104569,1040.3622 8,1039.4668 8,1038.3622 8,1037.2576 7.104569,1036.3622 6,1036.3622 z M 12,1036.3622 C 10.895431,1036.3622 10,1037.2576 10,1038.3622 10,1039.4668 10.895431,1040.3622 12,1040.3622 13.104569,1040.3622 14,1039.4668 14,1038.3622 14,1037.2576 13.104569,1036.3622 12,1036.3622 z M 18,1036.3622 C 16.895431,1036.3622 16,1037.2576 16,1038.3622 16,1039.4668 16.895431,1040.3622 18,1040.3622 19.104569,1040.3622 20,1039.4668 20,1038.3622 20,1037.2576 19.104569,1036.3622 18,1036.3622 z"
       inkscape:connector-curvature="0"
       id="path3069"
       style="fill:#ecf0f1;fill-opacity:1;fill-rule:nonzero;stroke:none" />
  </g>
</svg>
