<?xml version="1.0" encoding="UTF-8" standalone="no"?>
<!-- Created with Inkscape (http://www.inkscape.org/) -->

<svg
   xmlns:dc="http://purl.org/dc/elements/1.1/"
   xmlns:cc="http://creativecommons.org/ns#"
   xmlns:rdf="http://www.w3.org/1999/02/22-rdf-syntax-ns#"
   xmlns:svg="http://www.w3.org/2000/svg"
   xmlns="http://www.w3.org/2000/svg"
   xmlns:sodipodi="http://sodipodi.sourceforge.net/DTD/sodipodi-0.dtd"
   xmlns:inkscape="http://www.inkscape.org/namespaces/inkscape"
   version="1.1"
   width="24"
   height="24"
   id="svg2"
   inkscape:version="0.48.3.1 r9886"
   sodipodi:docname="bubbles-alt.svg">
  <sodipodi:namedview
     pagecolor="#ffffff"
     bordercolor="#666666"
     borderopacity="1"
     objecttolerance="10"
     gridtolerance="10"
     guidetolerance="10"
     inkscape:pageopacity="0"
     inkscape:pageshadow="2"
     inkscape:window-width="484"
     inkscape:window-height="409"
     id="namedview3100"
     showgrid="true"
     inkscape:zoom="19.666666"
     inkscape:cx="1.9948041"
     inkscape:cy="16.998066"
     inkscape:window-x="1264"
     inkscape:window-y="510"
     inkscape:window-maximized="0"
     inkscape:current-layer="layer1"
     inkscape:snap-bbox="true"
     showguides="true"
     inkscape:guide-bbox="true">
    <inkscape:grid
       type="xygrid"
       id="grid2986"
       empspacing="4"
       visible="true"
       enabled="true"
       snapvisiblegridlinesonly="true" />
  </sodipodi:namedview>
  <defs
     id="defs4" />
  <metadata
     id="metadata7">
    <rdf:RDF>
      <cc:Work
         rdf:about="">
        <dc:format>image/svg+xml</dc:format>
        <dc:type
           rdf:resource="http://purl.org/dc/dcmitype/StillImage" />
        <dc:title />
      </cc:Work>
    </rdf:RDF>
  </metadata>
  <g
     transform="translate(0,-1028.3622)"
     id="layer1">
    <path
       d="M 22,1030.3622 C 23.104569,1030.3622 24,1031.2576 24,1032.3622 L 24,1035.3622 24,1037.3622 24,1040.3622 C 24,1041.4668 23.104569,1042.3622 22,1042.3622 L 22,1046.3622 17.125,1042.3622 15,1042.3622 9,1042.3622 C 7.895431,1042.3622 7,1041.4668 7,1040.3622 L 7,1037.3622 7,1035.3622 7,1032.3622 C 7,1031.2576 7.895431,1030.3622 9,1030.3622 L 15,1030.3622 16,1030.3622 22,1030.3622 z"
       inkscape:connector-curvature="0"
       id="rect3158-4-8-4-4-0"
       style="fill:#2980b9;fill-opacity:1;fill-rule:nonzero;stroke:none" />
    <path
       d="M 22,1029.3622 C 23.104569,1029.3622 24,1030.2576 24,1031.3622 L 24,1034.3622 24,1036.3622 24,1039.3622 C 24,1040.4668 23.104569,1041.3622 22,1041.3622 L 22,1045.3622 17.125,1041.3622 15,1041.3622 9,1041.3622 C 7.895431,1041.3622 7,1040.4668 7,1039.3622 L 7,1036.3622 7,1034.3622 7,1031.3622 C 7,1030.2576 7.895431,1029.3622 9,1029.3622 L 15,1029.3622 16,1029.3622 22,1029.3622 z"
       inkscape:connector-curvature="0"
       id="rect3158-4-8-4-4"
       style="fill:#3498db;fill-opacity:1;fill-rule:nonzero;stroke:none" />
    <path
       d="M 2,1036.3622 C 0.895431,1036.3622 0,1037.2576 0,1038.3622 L 0,1041.3622 0,1043.3622 0,1046.3622 C 0,1047.4668 0.895431,1048.3622 2,1048.3622 L 2,1052.3622 6.875,1048.3622 9,1048.3622 15,1048.3622 C 16.104569,1048.3622 17,1047.4668 17,1046.3622 L 17,1043.3622 17,1041.3622 17,1038.3622 C 17,1037.2576 16.104569,1036.3622 15,1036.3622 L 9,1036.3622 8,1036.3622 2,1036.3622 z"
       inkscape:connector-curvature="0"
       id="rect3158-4-8-4-7"
       style="fill:#27ae60;fill-opacity:1;fill-rule:nonzero;stroke:none" />
    <path
       d="M 2,1035.3622 C 0.895431,1035.3622 0,1036.2576 0,1037.3622 L 0,1040.3622 0,1042.3622 0,1045.3622 C 0,1046.4668 0.895431,1047.3622 2,1047.3622 L 2,1051.3622 6.875,1047.3622 9,1047.3622 15,1047.3622 C 16.104569,1047.3622 17,1046.4668 17,1045.3622 L 17,1042.3622 17,1040.3622 17,1037.3622 C 17,1036.2576 16.104569,1035.3622 15,1035.3622 L 9,1035.3622 8,1035.3622 2,1035.3622 z"
       inkscape:connector-curvature="0"
       id="rect3158-4-8-4"
       style="fill:#2ecc71;fill-opacity:1;fill-rule:nonzero;stroke:none" />
    <path
       sodipodi:type="arc"
       style="fill:#27ae60;fill-opacity:1;fill-rule:nonzero;stroke:none"
       id="path2987"
       sodipodi:cx="5"
       sodipodi:cy="13"
       sodipodi:rx="1"
       sodipodi:ry="1"
       d="M 6,13 C 6,13.552285 5.5522847,14 5,14 4.4477153,14 4,13.552285 4,13 4,12.447715 4.4477153,12 5,12 5.5522847,12 6,12.447715 6,13 z"
       transform="matrix(1.5,0,0,1.5,-3.0000003,1023.3622)" />
    <path
       sodipodi:type="arc"
       style="fill:#ecf0f1;fill-opacity:1;fill-rule:nonzero;stroke:none"
       id="path2987-3"
       sodipodi:cx="5"
       sodipodi:cy="13"
       sodipodi:rx="1"
       sodipodi:ry="1"
       d="M 6,13 C 6,13.552285 5.5522847,14 5,14 4.4477153,14 4,13.552285 4,13 4,12.447715 4.4477153,12 5,12 5.5522847,12 6,12.447715 6,13 z"
       transform="matrix(1.5,0,0,1.5,-3,1022.3622)" />
    <path
       sodipodi:type="arc"
       style="fill:#27ae60;fill-opacity:1;fill-rule:nonzero;stroke:none"
       id="path2987-0"
       sodipodi:cx="5"
       sodipodi:cy="13"
       sodipodi:rx="1"
       sodipodi:ry="1"
       d="M 6,13 C 6,13.552285 5.5522847,14 5,14 4.4477153,14 4,13.552285 4,13 4,12.447715 4.4477153,12 5,12 5.5522847,12 6,12.447715 6,13 z"
       transform="matrix(1.5,0,0,1.5,1,1023.3622)" />
    <path
       sodipodi:type="arc"
       style="fill:#ecf0f1;fill-opacity:1;fill-rule:nonzero;stroke:none"
       id="path2987-3-4"
       sodipodi:cx="5"
       sodipodi:cy="13"
       sodipodi:rx="1"
       sodipodi:ry="1"
       d="M 6,13 C 6,13.552285 5.5522847,14 5,14 4.4477153,14 4,13.552285 4,13 4,12.447715 4.4477153,12 5,12 5.5522847,12 6,12.447715 6,13 z"
       transform="matrix(1.5,0,0,1.5,1.0000003,1022.3622)" />
    <path
       sodipodi:type="arc"
       style="fill:#27ae60;fill-opacity:1;fill-rule:nonzero;stroke:none"
       id="path2987-0-9"
       sodipodi:cx="5"
       sodipodi:cy="13"
       sodipodi:rx="1"
       sodipodi:ry="1"
       d="M 6,13 C 6,13.552285 5.5522847,14 5,14 4.4477153,14 4,13.552285 4,13 4,12.447715 4.4477153,12 5,12 5.5522847,12 6,12.447715 6,13 z"
       transform="matrix(1.5,0,0,1.5,5,1023.3622)" />
    <path
       sodipodi:type="arc"
       style="fill:#ecf0f1;fill-opacity:1;fill-rule:nonzero;stroke:none"
       id="path2987-3-4-1"
       sodipodi:cx="5"
       sodipodi:cy="13"
       sodipodi:rx="1"
       sodipodi:ry="1"
       d="M 6,13 C 6,13.552285 5.5522847,14 5,14 4.4477153,14 4,13.552285 4,13 4,12.447715 4.4477153,12 5,12 5.5522847,12 6,12.447715 6,13 z"
       transform="matrix(1.5,0,0,1.5,5.0000003,1022.3622)" />
  </g>
</svg>
