<?xml version="1.0" encoding="UTF-8" standalone="no"?>
<!-- Created with Inkscape (http://www.inkscape.org/) -->

<svg
   xmlns:dc="http://purl.org/dc/elements/1.1/"
   xmlns:cc="http://creativecommons.org/ns#"
   xmlns:rdf="http://www.w3.org/1999/02/22-rdf-syntax-ns#"
   xmlns:svg="http://www.w3.org/2000/svg"
   xmlns="http://www.w3.org/2000/svg"
   xmlns:sodipodi="http://sodipodi.sourceforge.net/DTD/sodipodi-0.dtd"
   xmlns:inkscape="http://www.inkscape.org/namespaces/inkscape"
   version="1.1"
   width="24"
   height="24"
   id="svg2"
   inkscape:version="0.48.3.1 r9886"
   sodipodi:docname="bullhorn.svg">
  <sodipodi:namedview
     pagecolor="#ffffff"
     bordercolor="#666666"
     borderopacity="1"
     objecttolerance="10"
     gridtolerance="10"
     guidetolerance="10"
     inkscape:pageopacity="0"
     inkscape:pageshadow="2"
     inkscape:window-width="1920"
     inkscape:window-height="1150"
     id="namedview4459"
     showgrid="true"
     inkscape:zoom="27.812866"
     inkscape:cx="9.8854445"
     inkscape:cy="4.2803944"
     inkscape:window-x="0"
     inkscape:window-y="0"
     inkscape:window-maximized="1"
     inkscape:current-layer="layer1">
    <inkscape:grid
       type="xygrid"
       id="grid4145"
       empspacing="4"
       visible="true"
       enabled="true"
       snapvisiblegridlinesonly="true" />
  </sodipodi:namedview>
  <defs
     id="defs4" />
  <metadata
     id="metadata7">
    <rdf:RDF>
      <cc:Work
         rdf:about="">
        <dc:format>image/svg+xml</dc:format>
        <dc:type
           rdf:resource="http://purl.org/dc/dcmitype/StillImage" />
        <dc:title />
      </cc:Work>
    </rdf:RDF>
  </metadata>
  <g
     transform="translate(0,-1028.3622)"
     id="layer1">
    <path
       style="fill:#7f8c8d;fill-opacity:1;fill-rule:nonzero;stroke:none"
       d="M 21 3 L 21 21 L 22 21 L 22 15 L 23 15 L 23 9 L 22 9 L 22 3 L 21 3 z "
       transform="translate(0,1028.3622)"
       id="rect2999" />
    <path
       style="fill:#bdc3c7;fill-opacity:1;stroke:none"
       d="M 21,1031.3622 C 16.627119,1035.3622 14,1035.3622 10,1036.3622 L 10,1039.3622 10,1040.3622 21,1040.3622 21,1039.3622 21,1031.3622 z"
       id="path3003-8"
       inkscape:connector-curvature="0" />
    <path
       style="fill:#95a5a6;fill-opacity:1;stroke:none"
       d="M 10,1040.3622 10,1041.3622 10,1044.3622 C 14,1045.3622 16.627119,1045.3622 21,1049.3622 L 21,1041.3622 21,1040.3622 10,1040.3622 z"
       id="path3003-8-6"
       inkscape:connector-curvature="0" />
    <path
       style="fill:#e74c3c;fill-opacity:1;fill-rule:nonzero;stroke:none"
       d="M 4,1035.3622 C 2.8954305,1035.3622 2,1036.2576 2,1037.3622 L 2,1043.3622 C 2,1044.4668 2.8954305,1045.3622 4,1045.3622 L 9,1045.3622 C 9.5522847,1045.3622 10,1044.9145 10,1044.3622 L 10,1036.3622 C 10,1035.8099 9.5522847,1035.3622 9,1035.3622 L 4,1035.3622 z"
       id="path3822"
       inkscape:connector-curvature="0" />
    <path
       style="fill:#c0392b;fill-opacity:1;fill-rule:nonzero;stroke:none"
       d="M 4,1045.3622 C 2.8954305,1045.3622 2,1044.4668 2,1043.3622 L 2,1040.3622 10,1040.3622 10,1044.3622 C 10,1044.9145 9.552285,1045.3622 9,1045.3622 L 4,1045.3622 z"
       id="path3822-2"
       inkscape:connector-curvature="0" />
    <rect
       style="fill:#95a5a6;fill-opacity:1;fill-rule:nonzero;stroke:none"
       id="rect3906"
       width="2"
       height="4.0000005"
       x="0"
       y="1038.3622" />
    <rect
       style="fill:#7f8c8d;fill-opacity:1;fill-rule:nonzero;stroke:none"
       id="rect3908"
       width="2"
       height="2"
       x="0"
       y="12"
       transform="translate(0,1028.3622)" />
    <path
       style="fill:#7f8c8d;fill-opacity:1;stroke:none"
       d="M 6.0000002,1045.3622 9.0000002,1045.3622 12,1052.3622 9.0000002,1052.3622 6.0000002,1045.3622 9.0000002,1045.3622"
       id="path3928-6"
       inkscape:connector-curvature="0"
       sodipodi:nodetypes="cccccc" />
    <path
       style="fill:#95a5a6;fill-opacity:1;stroke:none"
       d="M 4,17 8,17 11,24 7,24 4,17 8,17"
       id="path3928"
       inkscape:connector-curvature="0"
       transform="translate(0,1028.3622)"
       sodipodi:nodetypes="cccccc" />
  </g>
</svg>
