<?xml version="1.0" encoding="UTF-8" standalone="no"?>
<!-- Created with Inkscape (http://www.inkscape.org/) -->

<svg
   xmlns:dc="http://purl.org/dc/elements/1.1/"
   xmlns:cc="http://creativecommons.org/ns#"
   xmlns:rdf="http://www.w3.org/1999/02/22-rdf-syntax-ns#"
   xmlns:svg="http://www.w3.org/2000/svg"
   xmlns="http://www.w3.org/2000/svg"
   xmlns:sodipodi="http://sodipodi.sourceforge.net/DTD/sodipodi-0.dtd"
   xmlns:inkscape="http://www.inkscape.org/namespaces/inkscape"
   version="1.1"
   width="24"
   height="24"
   id="svg2"
   inkscape:version="0.48.3.1 r9886"
   sodipodi:docname="calendar-clock.svg">
  <sodipodi:namedview
     pagecolor="#ffffff"
     bordercolor="#666666"
     borderopacity="1"
     objecttolerance="10"
     gridtolerance="10"
     guidetolerance="10"
     inkscape:pageopacity="0"
     inkscape:pageshadow="2"
     inkscape:window-width="1920"
     inkscape:window-height="1150"
     id="namedview3192"
     showgrid="true"
     inkscape:zoom="19.666667"
     inkscape:cx="6.2114327"
     inkscape:cy="9.4026932"
     inkscape:window-x="0"
     inkscape:window-y="0"
     inkscape:window-maximized="1"
     inkscape:current-layer="layer1"
     inkscape:snap-bbox="true"
     inkscape:snap-nodes="true"
     inkscape:snap-global="false">
    <inkscape:grid
       type="xygrid"
       id="grid4181"
       empspacing="4"
       visible="true"
       enabled="true"
       snapvisiblegridlinesonly="true" />
  </sodipodi:namedview>
  <defs
     id="defs4" />
  <metadata
     id="metadata7">
    <rdf:RDF>
      <cc:Work
         rdf:about="">
        <dc:format>image/svg+xml</dc:format>
        <dc:type
           rdf:resource="http://purl.org/dc/dcmitype/StillImage" />
        <dc:title />
      </cc:Work>
    </rdf:RDF>
  </metadata>
  <g
     transform="translate(0,-1028.3622)"
     id="layer1">
    <path
       d="M 5,1032.3622 C 3.895431,1032.3622 3,1033.2576 3,1034.3622 L 3,1048.3622 C 3,1049.4668 3.89543,1050.3622 5,1050.3622 L 11,1050.3622 13,1050.3622 19,1050.3622 C 20.10457,1050.3622 21,1049.4668 21,1048.3622 L 21,1034.3622 C 21,1033.2576 20.104569,1032.3622 19,1032.3622 L 13,1032.3622 11,1032.3622 5,1032.3622 z"
       inkscape:connector-curvature="0"
       id="path2987-6-0-1"
       style="fill:#bdc3c7;fill-opacity:1;fill-rule:nonzero;stroke:none" />
    <path
       d="M 5,3 C 3.895431,3 3,3.8954 3,5 L 3,19 C 3,20.1046 3.89543,21 5,21 L 11,21 13,21 19,21 C 20.10457,21 21,20.1046 21,19 L 21,5 C 21,3.8954 20.104569,3 19,3 L 13,3 11,3 5,3 z"
       inkscape:connector-curvature="0"
       transform="translate(0,1028.3622)"
       id="path2987-6-0"
       style="fill:#ecf0f1;fill-opacity:1;fill-rule:nonzero;stroke:none" />
    <path
       style="fill:#e74c3c;fill-opacity:1;fill-rule:nonzero;stroke:none"
       d="M 5 3 C 3.895431 3 3 3.8954 3 5 L 3 8 L 3 9 L 21 9 L 21 8 L 21 5 C 21 3.8954 20.104569 3 19 3 L 13 3 L 11 3 L 5 3 z "
       transform="translate(0,1028.3622)"
       id="path2987-6-0-3" />
    <path
       d="M 7,5.5 A 1.5,1.5 0 1 1 4,5.5 1.5,1.5 0 1 1 7,5.5 z"
       transform="translate(0.5,1028.3622)"
       id="path3201"
       style="fill:#c0392b;fill-opacity:1;fill-rule:nonzero;stroke:none" />
    <path
       d="M 6,1 C 5.4477153,1 5,1.4477153 5,2 L 5,5 C 5,5.5522847 5.4477153,6 6,6 6.5522847,6 7,5.5522847 7,5 L 7,2 C 7,1.4477153 6.5522847,1 6,1 z"
       inkscape:connector-curvature="0"
       transform="translate(0,1028.3622)"
       id="rect3118"
       style="fill:#bdc3c7;fill-opacity:1;fill-rule:nonzero;stroke:none" />
    <path
       d="M 7,5.5 A 1.5,1.5 0 1 1 4,5.5 1.5,1.5 0 1 1 7,5.5 z"
       transform="translate(12.5,1028.3622)"
       id="path3201-2"
       style="fill:#c0392b;fill-opacity:1;fill-rule:nonzero;stroke:none" />
    <path
       d="M 18,1029.3622 C 17.447715,1029.3622 17,1029.8099 17,1030.3622 L 17,1033.3622 C 17,1033.9145 17.447715,1034.3622 18,1034.3622 18.552285,1034.3622 19,1033.9145 19,1033.3622 L 19,1030.3622 C 19,1029.8099 18.552285,1029.3622 18,1029.3622 z"
       inkscape:connector-curvature="0"
       id="rect3118-9"
       style="fill:#bdc3c7;fill-opacity:1;fill-rule:nonzero;stroke:none" />
    <path
       d="M 5,1039.3622 5,1041.3622 7,1041.3622 7,1039.3622 5,1039.3622 z M 8,1039.3622 8,1041.3622 10,1041.3622 10,1039.3622 8,1039.3622 z M 11,1039.3622 11,1041.3622 13,1041.3622 13,1039.3622 11,1039.3622 z M 14,1039.3622 14,1041.3622 16,1041.3622 16,1039.3622 14,1039.3622 z M 17,1039.3622 17,1041.3622 19,1041.3622 19,1039.3622 17,1039.3622 z"
       inkscape:connector-curvature="0"
       id="rect3260"
       style="fill:#bdc3c7;fill-opacity:1;fill-rule:nonzero;stroke:none" />
    <path
       d="M 5,1042.3622 5,1044.3622 7,1044.3622 7,1042.3622 5,1042.3622 z M 8,1042.3622 8,1044.3622 10,1044.3622 10,1042.3622 8,1042.3622 z M 11,1042.3622 11,1044.3622 13,1044.3622 13,1042.3622 11,1042.3622 z M 14,1042.3622 14,1044.3622 16,1044.3622 16,1042.3622 14,1042.3622 z M 17,1042.3622 17,1044.3622 19,1044.3622 19,1042.3622 17,1042.3622 z"
       inkscape:connector-curvature="0"
       id="rect3260-6"
       style="fill:#bdc3c7;fill-opacity:1;fill-rule:nonzero;stroke:none" />
    <path
       d="M 5,1045.3622 5,1047.3622 7,1047.3622 7,1045.3622 5,1045.3622 z M 8,1045.3622 8,1047.3622 10,1047.3622 10,1045.3622 8,1045.3622 z M 11,1045.3622 11,1047.3622 13,1047.3622 13,1045.3622 11,1045.3622 z M 14,1045.3622 14,1047.3622 16,1047.3622 16,1045.3622 14,1045.3622 z M 17,1045.3622 17,1047.3622 19,1047.3622 19,1045.3622 17,1045.3622 z"
       inkscape:connector-curvature="0"
       id="rect3260-6-1"
       style="fill:#bdc3c7;fill-opacity:1;fill-rule:nonzero;stroke:none" />
    <path
       sodipodi:type="arc"
       style="fill:#34495e;fill-opacity:1;fill-rule:nonzero;stroke:none"
       id="path2993"
       sodipodi:cx="34"
       sodipodi:cy="18"
       sodipodi:rx="6"
       sodipodi:ry="6"
       d="M 40,18 A 6,6 0 1 1 28,18 6,6 0 1 1 40,18 z"
       transform="matrix(0.82490538,0,0,0.82490537,-9.5467829,1032.0678)" />
    <path
       style="fill:#bdc3c7;fill-opacity:1;fill-rule:nonzero;stroke:none"
       d="M 18.5 14 C 18.223858 14 18 14.2239 18 14.5 L 18 15 L 18 18 L 18 18.5 C 18 18.7761 18.2239 19 18.5 19 L 19 19 L 21 19 L 21.5 19 C 21.7761 19 22 18.7761 22 18.5 C 22 18.2239 21.7761 18 21.5 18 L 21 18 L 19 18 L 19 15 L 19 14.5 C 19 14.2239 18.776142 14 18.5 14 z "
       transform="translate(0,1028.3622)"
       id="rect2995" />
    <path
       style="fill:#7f8c8d;fill-opacity:1;fill-rule:nonzero;stroke:none"
       d="M 18.5,1041.3622 C 15.462434,1041.3622 13,1043.8246 13,1046.8622 13,1049.8998 15.462434,1052.3622 18.5,1052.3622 21.537566,1052.3622 24,1049.8998 24,1046.8622 24,1043.8246 21.537566,1041.3622 18.5,1041.3622 z M 18.5,1042.3622 C 20.985282,1042.3622 23,1044.3769 23,1046.8622 23,1049.3475 20.985282,1051.3622 18.5,1051.3622 16.014718,1051.3622 14,1049.3475 14,1046.8622 14,1044.3769 16.014718,1042.3622 18.5,1042.3622 z"
       id="path2993-1"
       inkscape:connector-curvature="0" />
    <path
       sodipodi:type="arc"
       style="fill:#95a5a6;fill-opacity:1;fill-rule:nonzero;stroke:none"
       id="path3091"
       sodipodi:cx="26.5"
       sodipodi:cy="17.5"
       sodipodi:rx="0.5"
       sodipodi:ry="0.5"
       d="M 27,17.5 C 27,17.776142 26.776142,18 26.5,18 26.223858,18 26,17.776142 26,17.5 26,17.223858 26.223858,17 26.5,17 26.776142,17 27,17.223858 27,17.5 z"
       transform="translate(-8,1029.3622)" />
  </g>
</svg>
