<?xml version="1.0" encoding="UTF-8" standalone="no"?>
<!-- Created with Inkscape (http://www.inkscape.org/) -->

<svg
   xmlns:dc="http://purl.org/dc/elements/1.1/"
   xmlns:cc="http://creativecommons.org/ns#"
   xmlns:rdf="http://www.w3.org/1999/02/22-rdf-syntax-ns#"
   xmlns:svg="http://www.w3.org/2000/svg"
   xmlns="http://www.w3.org/2000/svg"
   xmlns:sodipodi="http://sodipodi.sourceforge.net/DTD/sodipodi-0.dtd"
   xmlns:inkscape="http://www.inkscape.org/namespaces/inkscape"
   version="1.1"
   width="24"
   height="24"
   id="svg2"
   inkscape:version="0.48.3.1 r9886"
   sodipodi:docname="calendar-clock.svg">
  <sodipodi:namedview
     pagecolor="#ffffff"
     bordercolor="#666666"
     borderopacity="1"
     objecttolerance="10"
     gridtolerance="10"
     guidetolerance="10"
     inkscape:pageopacity="0"
     inkscape:pageshadow="2"
     inkscape:window-width="1920"
     inkscape:window-height="1150"
     id="namedview3192"
     showgrid="true"
     inkscape:zoom="39.333334"
     inkscape:cx="16.648893"
     inkscape:cy="2.5327795"
     inkscape:window-x="0"
     inkscape:window-y="0"
     inkscape:window-maximized="1"
     inkscape:current-layer="layer1"
     inkscape:snap-bbox="true"
     inkscape:snap-nodes="true"
     inkscape:snap-global="true">
    <inkscape:grid
       type="xygrid"
       id="grid4181"
       empspacing="4"
       visible="true"
       enabled="true"
       snapvisiblegridlinesonly="true" />
  </sodipodi:namedview>
  <defs
     id="defs4" />
  <metadata
     id="metadata7">
    <rdf:RDF>
      <cc:Work
         rdf:about="">
        <dc:format>image/svg+xml</dc:format>
        <dc:type
           rdf:resource="http://purl.org/dc/dcmitype/StillImage" />
        <dc:title />
      </cc:Work>
    </rdf:RDF>
  </metadata>
  <g
     transform="translate(0,-1028.3622)"
     id="layer1">
    <path
       d="M 5,1032.3622 C 3.895431,1032.3622 3,1033.2576 3,1034.3622 L 3,1048.3622 C 3,1049.4668 3.89543,1050.3622 5,1050.3622 L 11,1050.3622 13,1050.3622 19,1050.3622 C 20.10457,1050.3622 21,1049.4668 21,1048.3622 L 21,1034.3622 C 21,1033.2576 20.104569,1032.3622 19,1032.3622 L 13,1032.3622 11,1032.3622 5,1032.3622 z"
       inkscape:connector-curvature="0"
       id="path2987-6-0-1"
       style="fill:#bdc3c7;fill-opacity:1;fill-rule:nonzero;stroke:none" />
    <path
       d="M 5,3 C 3.895431,3 3,3.8954 3,5 L 3,19 C 3,20.1046 3.89543,21 5,21 L 11,21 13,21 19,21 C 20.10457,21 21,20.1046 21,19 L 21,5 C 21,3.8954 20.104569,3 19,3 L 13,3 11,3 5,3 z"
       inkscape:connector-curvature="0"
       transform="translate(0,1028.3622)"
       id="path2987-6-0"
       style="fill:#ecf0f1;fill-opacity:1;fill-rule:nonzero;stroke:none" />
    <path
       style="fill:#e74c3c;fill-opacity:1;fill-rule:nonzero;stroke:none"
       d="M 5 3 C 3.895431 3 3 3.8954 3 5 L 3 8 L 3 9 L 21 9 L 21 8 L 21 5 C 21 3.8954 20.104569 3 19 3 L 13 3 L 11 3 L 5 3 z "
       transform="translate(0,1028.3622)"
       id="path2987-6-0-3" />
    <path
       d="M 7,5.5 A 1.5,1.5 0 1 1 4,5.5 1.5,1.5 0 1 1 7,5.5 z"
       transform="translate(0.5,1028.3622)"
       id="path3201"
       style="fill:#c0392b;fill-opacity:1;fill-rule:nonzero;stroke:none" />
    <path
       d="M 6,1 C 5.4477153,1 5,1.4477153 5,2 L 5,5 C 5,5.5522847 5.4477153,6 6,6 6.5522847,6 7,5.5522847 7,5 L 7,2 C 7,1.4477153 6.5522847,1 6,1 z"
       inkscape:connector-curvature="0"
       transform="translate(0,1028.3622)"
       id="rect3118"
       style="fill:#bdc3c7;fill-opacity:1;fill-rule:nonzero;stroke:none" />
    <path
       d="M 7,5.5 A 1.5,1.5 0 1 1 4,5.5 1.5,1.5 0 1 1 7,5.5 z"
       transform="translate(12.5,1028.3622)"
       id="path3201-2"
       style="fill:#c0392b;fill-opacity:1;fill-rule:nonzero;stroke:none" />
    <path
       d="M 18,1029.3622 C 17.447715,1029.3622 17,1029.8099 17,1030.3622 L 17,1033.3622 C 17,1033.9145 17.447715,1034.3622 18,1034.3622 18.552285,1034.3622 19,1033.9145 19,1033.3622 L 19,1030.3622 C 19,1029.8099 18.552285,1029.3622 18,1029.3622 z"
       inkscape:connector-curvature="0"
       id="rect3118-9"
       style="fill:#bdc3c7;fill-opacity:1;fill-rule:nonzero;stroke:none" />
    <path
       d="M 5,1039.3622 5,1041.3622 7,1041.3622 7,1039.3622 5,1039.3622 z M 8,1039.3622 8,1041.3622 10,1041.3622 10,1039.3622 8,1039.3622 z M 11,1039.3622 11,1041.3622 13,1041.3622 13,1039.3622 11,1039.3622 z M 14,1039.3622 14,1041.3622 16,1041.3622 16,1039.3622 14,1039.3622 z M 17,1039.3622 17,1041.3622 19,1041.3622 19,1039.3622 17,1039.3622 z"
       inkscape:connector-curvature="0"
       id="rect3260"
       style="fill:#bdc3c7;fill-opacity:1;fill-rule:nonzero;stroke:none" />
    <path
       d="M 5,1042.3622 5,1044.3622 7,1044.3622 7,1042.3622 5,1042.3622 z M 8,1042.3622 8,1044.3622 10,1044.3622 10,1042.3622 8,1042.3622 z M 11,1042.3622 11,1044.3622 13,1044.3622 13,1042.3622 11,1042.3622 z M 14,1042.3622 14,1044.3622 16,1044.3622 16,1042.3622 14,1042.3622 z M 17,1042.3622 17,1044.3622 19,1044.3622 19,1042.3622 17,1042.3622 z"
       inkscape:connector-curvature="0"
       id="rect3260-6"
       style="fill:#bdc3c7;fill-opacity:1;fill-rule:nonzero;stroke:none" />
    <path
       d="M 5,1045.3622 5,1047.3622 7,1047.3622 7,1045.3622 5,1045.3622 z M 8,1045.3622 8,1047.3622 10,1047.3622 10,1045.3622 8,1045.3622 z M 11,1045.3622 11,1047.3622 13,1047.3622 13,1045.3622 11,1045.3622 z M 14,1045.3622 14,1047.3622 16,1047.3622 16,1045.3622 14,1045.3622 z M 17,1045.3622 17,1047.3622 19,1047.3622 19,1045.3622 17,1045.3622 z"
       inkscape:connector-curvature="0"
       id="rect3260-6-1"
       style="fill:#bdc3c7;fill-opacity:1;fill-rule:nonzero;stroke:none" />
    <g
       id="g3020"
       transform="matrix(0.45833331,0,0,0.45833316,5.2083337,565.90471)">
      <path
         transform="matrix(0.91666666,0,0,0.91666666,18,1038.3622)"
         d="M 24,12 C 24,18.627417 18.627417,24 12,24 5.372583,24 0,18.627417 0,12 0,5.372583 5.372583,0 12,0 18.627417,0 24,5.372583 24,12 z"
         sodipodi:ry="12"
         sodipodi:rx="12"
         sodipodi:cy="12"
         sodipodi:cx="12"
         id="path2996-1"
         style="fill:#34495e;fill-opacity:1;fill-rule:nonzero;stroke:none"
         sodipodi:type="arc" />
      <path
         id="path2996-9"
         d="M 29,1038.3622 C 22.372583,1038.3622 17,1043.7348 17,1050.3622 L 19,1050.3622 C 19,1044.8393 23.477152,1040.3622 29,1040.3622 34.522848,1040.3622 39,1044.8393 39,1050.3622 L 41,1050.3622 C 41,1043.7348 35.627417,1038.3622 29,1038.3622 z"
         style="fill:#2c3e50;fill-opacity:1;fill-rule:nonzero;stroke:none"
         inkscape:connector-curvature="0" />
      <path
         id="rect3028"
         d="M 30,1048.3622 30,1050.3622 31,1050.3622 37,1050.3622 C 37.5523,1050.3622 38,1049.9145 38,1049.3622 38,1048.8099 37.5523,1048.3622 37,1048.3622 L 31,1048.3622 30,1048.3622 z"
         style="fill:#bdc3c7;fill-opacity:1;fill-rule:nonzero;stroke:none"
         inkscape:connector-curvature="0" />
      <path
         inkscape:connector-curvature="0"
         id="rect3028-9"
         d="M 29,1042.3622 C 28.4477,1042.3622 28,1042.8099 28,1043.3622 L 28,1047.3622 28,1048.3622 30,1048.3622 30,1047.3622 30,1043.3622 C 30,1042.8099 29.5523,1042.3622 29,1042.3622 z"
         style="fill:#bdc3c7;fill-opacity:1;fill-rule:nonzero;stroke:none" />
      <rect
         transform="matrix(0.70710678,-0.70710678,0.70710678,0.70710678,0,0)"
         y="762.06964"
         x="-729.5105"
         height="1"
         width="7"
         id="rect3077"
         style="fill:#c0392b;fill-opacity:1;fill-rule:nonzero;stroke:none" />
      <path
         inkscape:connector-curvature="0"
         id="path3002-4"
         d="M 29,1047.3622 C 27.895431,1047.3622 27,1048.2576 27,1049.3622 27,1050.4668 27.895431,1051.3622 29,1051.3622 30.104569,1051.3622 31,1050.4668 31,1049.3622 31,1048.2576 30.104569,1047.3622 29,1047.3622 z M 29,1048.3622 C 29.552285,1048.3622 30,1048.8099 30,1049.3622 30,1049.9145 29.552285,1050.3622 29,1050.3622 28.447715,1050.3622 28,1049.9145 28,1049.3622 28,1048.8099 28.447715,1048.3622 29,1048.3622 z"
         style="fill:#bdc3c7;fill-opacity:1;fill-rule:nonzero;stroke:none" />
      <path
         inkscape:connector-curvature="0"
         id="path2996"
         d="M 29,1037.3622 C 22.372583,1037.3622 17,1042.7348 17,1049.3622 17,1055.9896 22.372583,1061.3622 29,1061.3622 35.627417,1061.3622 41,1055.9896 41,1049.3622 41,1042.7348 35.627417,1037.3622 29,1037.3622 z M 29,1039.3622 C 34.522848,1039.3622 39,1043.8393 39,1049.3622 39,1054.8851 34.522848,1059.3622 29,1059.3622 23.477152,1059.3622 19,1054.8851 19,1049.3622 19,1043.8393 23.477152,1039.3622 29,1039.3622 z"
         style="fill:#95a5a6;fill-opacity:1;fill-rule:nonzero;stroke:none" />
      <path
         transform="translate(17,1037.3622)"
         d="M 13,12 C 13,12.552285 12.552285,13 12,13 11.447715,13 11,12.552285 11,12 11,11.447715 11.447715,11 12,11 12.552285,11 13,11.447715 13,12 z"
         sodipodi:ry="1"
         sodipodi:rx="1"
         sodipodi:cy="12"
         sodipodi:cx="12"
         id="path3019"
         style="fill:#2c3e50;fill-opacity:1;fill-rule:nonzero;stroke:none"
         sodipodi:type="arc" />
      <path
         inkscape:connector-curvature="0"
         id="rect3028-62"
         d="M 30.729501,1048.3567 C 30.900259,1048.6512 31.010751,1048.9917 31.010751,1049.3567 31.010751,1049.7217 30.900259,1050.0622 30.729501,1050.3567 L 31.010751,1050.3567 31.823251,1050.3567 C 31.936772,1050.0402 32.010751,1049.7122 32.010751,1049.3567 32.010751,1049.0012 31.936772,1048.6732 31.823251,1048.3567 L 31.010751,1048.3567 30.729501,1048.3567 z"
         style="fill:#95a5a6;fill-opacity:1;fill-rule:nonzero;stroke:none" />
    </g>
  </g>
</svg>
