<?xml version="1.0" encoding="UTF-8" standalone="no"?>
<!-- Created with Inkscape (http://www.inkscape.org/) -->

<svg
   xmlns:dc="http://purl.org/dc/elements/1.1/"
   xmlns:cc="http://creativecommons.org/ns#"
   xmlns:rdf="http://www.w3.org/1999/02/22-rdf-syntax-ns#"
   xmlns:svg="http://www.w3.org/2000/svg"
   xmlns="http://www.w3.org/2000/svg"
   xmlns:sodipodi="http://sodipodi.sourceforge.net/DTD/sodipodi-0.dtd"
   xmlns:inkscape="http://www.inkscape.org/namespaces/inkscape"
   version="1.1"
   width="24"
   height="24"
   id="svg2"
   inkscape:version="0.48.3.1 r9886"
   sodipodi:docname="calendar-clock.svg">
  <sodipodi:namedview
     pagecolor="#ffffff"
     bordercolor="#666666"
     borderopacity="1"
     objecttolerance="10"
     gridtolerance="10"
     guidetolerance="10"
     inkscape:pageopacity="0"
     inkscape:pageshadow="2"
     inkscape:window-width="1920"
     inkscape:window-height="1150"
     id="namedview3192"
     showgrid="true"
     inkscape:zoom="39.333334"
     inkscape:cx="16.648893"
     inkscape:cy="12.702271"
     inkscape:window-x="0"
     inkscape:window-y="0"
     inkscape:window-maximized="1"
     inkscape:current-layer="layer1"
     inkscape:snap-bbox="true"
     inkscape:snap-nodes="true"
     inkscape:snap-global="true">
    <inkscape:grid
       type="xygrid"
       id="grid4181"
       empspacing="4"
       visible="true"
       enabled="true"
       snapvisiblegridlinesonly="true" />
  </sodipodi:namedview>
  <defs
     id="defs4" />
  <metadata
     id="metadata7">
    <rdf:RDF>
      <cc:Work
         rdf:about="">
        <dc:format>image/svg+xml</dc:format>
        <dc:type
           rdf:resource="http://purl.org/dc/dcmitype/StillImage" />
        <dc:title />
      </cc:Work>
    </rdf:RDF>
  </metadata>
  <g
     transform="translate(0,-1028.3622)"
     id="layer1">
    <path
       d="M 5,1032.3622 C 3.895431,1032.3622 3,1033.2576 3,1034.3622 L 3,1048.3622 C 3,1049.4668 3.89543,1050.3622 5,1050.3622 L 11,1050.3622 13,1050.3622 19,1050.3622 C 20.10457,1050.3622 21,1049.4668 21,1048.3622 L 21,1034.3622 C 21,1033.2576 20.104569,1032.3622 19,1032.3622 L 13,1032.3622 11,1032.3622 5,1032.3622 z"
       inkscape:connector-curvature="0"
       id="path2987-6-0-1"
       style="fill:#bdc3c7;fill-opacity:1;fill-rule:nonzero;stroke:none" />
    <path
       d="M 5,3 C 3.895431,3 3,3.8954 3,5 L 3,19 C 3,20.1046 3.89543,21 5,21 L 11,21 13,21 19,21 C 20.10457,21 21,20.1046 21,19 L 21,5 C 21,3.8954 20.104569,3 19,3 L 13,3 11,3 5,3 z"
       inkscape:connector-curvature="0"
       transform="translate(0,1028.3622)"
       id="path2987-6-0"
       style="fill:#ecf0f1;fill-opacity:1;fill-rule:nonzero;stroke:none" />
    <path
       style="fill:#e74c3c;fill-opacity:1;fill-rule:nonzero;stroke:none"
       d="M 5 3 C 3.895431 3 3 3.8954 3 5 L 3 8 L 3 9 L 21 9 L 21 8 L 21 5 C 21 3.8954 20.104569 3 19 3 L 13 3 L 11 3 L 5 3 z "
       transform="translate(0,1028.3622)"
       id="path2987-6-0-3" />
    <path
       d="M 7,5.5 A 1.5,1.5 0 1 1 4,5.5 1.5,1.5 0 1 1 7,5.5 z"
       transform="translate(0.5,1028.3622)"
       id="path3201"
       style="fill:#c0392b;fill-opacity:1;fill-rule:nonzero;stroke:none" />
    <path
       d="M 7,5.5 A 1.5,1.5 0 1 1 4,5.5 1.5,1.5 0 1 1 7,5.5 z"
       transform="translate(12.5,1028.3622)"
       id="path3201-2"
       style="fill:#c0392b;fill-opacity:1;fill-rule:nonzero;stroke:none" />
    <path
       d="M 5,1039.3622 5,1041.3622 7,1041.3622 7,1039.3622 5,1039.3622 z M 8,1039.3622 8,1041.3622 10,1041.3622 10,1039.3622 8,1039.3622 z M 11,1039.3622 11,1041.3622 13,1041.3622 13,1039.3622 11,1039.3622 z M 14,1039.3622 14,1041.3622 16,1041.3622 16,1039.3622 14,1039.3622 z M 17,1039.3622 17,1041.3622 19,1041.3622 19,1039.3622 17,1039.3622 z"
       inkscape:connector-curvature="0"
       id="rect3260"
       style="fill:#bdc3c7;fill-opacity:1;fill-rule:nonzero;stroke:none" />
    <path
       d="M 5,1042.3622 5,1044.3622 7,1044.3622 7,1042.3622 5,1042.3622 z M 8,1042.3622 8,1044.3622 10,1044.3622 10,1042.3622 8,1042.3622 z M 11,1042.3622 11,1044.3622 13,1044.3622 13,1042.3622 11,1042.3622 z M 14,1042.3622 14,1044.3622 16,1044.3622 16,1042.3622 14,1042.3622 z M 17,1042.3622 17,1044.3622 19,1044.3622 19,1042.3622 17,1042.3622 z"
       inkscape:connector-curvature="0"
       id="rect3260-6"
       style="fill:#bdc3c7;fill-opacity:1;fill-rule:nonzero;stroke:none" />
    <path
       d="M 5,1045.3622 5,1047.3622 7,1047.3622 7,1045.3622 5,1045.3622 z M 8,1045.3622 8,1047.3622 10,1047.3622 10,1045.3622 8,1045.3622 z M 11,1045.3622 11,1047.3622 13,1047.3622 13,1045.3622 11,1045.3622 z M 14,1045.3622 14,1047.3622 16,1047.3622 16,1045.3622 14,1045.3622 z M 17,1045.3622 17,1047.3622 19,1047.3622 19,1045.3622 17,1045.3622 z"
       inkscape:connector-curvature="0"
       id="rect3260-6-1"
       style="fill:#bdc3c7;fill-opacity:1;fill-rule:nonzero;stroke:none" />
    <path
       sodipodi:type="arc"
       style="fill:#34495e;fill-opacity:1;fill-rule:nonzero;stroke:none"
       id="path2996-1"
       sodipodi:cx="12"
       sodipodi:cy="12"
       sodipodi:rx="12"
       sodipodi:ry="12"
       d="M 24,12 A 12,12 0 1 1 0,12 12,12 0 1 1 24,12 z"
       transform="matrix(0.42013886,0,0,0.42013873,13.458333,1041.8205)" />
    <path
       inkscape:connector-curvature="0"
       style="fill:#2c3e50;fill-opacity:1;fill-rule:nonzero;stroke:none"
       d="M 18.5,1041.8205 C 15.462434,1041.8205 13,1044.283 13,1047.3205 L 13.916667,1047.3205 C 13.916667,1044.7892 15.968694,1042.7372 18.5,1042.7372 21.031305,1042.7372 23.083333,1044.7892 23.083333,1047.3205 L 23.999999,1047.3205 C 23.999999,1044.283 21.537566,1041.8205 18.5,1041.8205 z"
       id="path2996-9" />
    <path
       inkscape:connector-curvature="0"
       style="fill:#bdc3c7;fill-opacity:1;fill-rule:nonzero;stroke:none"
       d="M 18.958333,1046.4039 18.958333,1047.3205 19.416666,1047.3205 22.166666,1047.3205 C 22.419804,1047.3205 22.624999,1047.1153 22.624999,1046.8622 22.624999,1046.6091 22.419804,1046.4039 22.166666,1046.4039 L 19.416666,1046.4039 18.958333,1046.4039 z"
       id="rect3028" />
    <path
       style="fill:#bdc3c7;fill-opacity:1;fill-rule:nonzero;stroke:none"
       d="M 18.5,1043.6539 C 18.246862,1043.6539 18.041666,1043.8591 18.041666,1044.1122 L 18.041666,1045.9455 18.041666,1046.4039 18.958333,1046.4039 18.958333,1045.9455 18.958333,1044.1122 C 18.958333,1043.8591 18.753137,1043.6539 18.5,1043.6539 z"
       id="rect3028-9"
       inkscape:connector-curvature="0" />
    <rect
       style="fill:#c0392b;fill-opacity:1;fill-rule:nonzero;stroke:none"
       id="rect3077"
       width="3.2083325"
       height="0.45833322"
       x="-730.83118"
       y="753.11981"
       transform="matrix(0.7071069,-0.70710666,0.7071069,0.70710666,0,0)" />
    <path
       style="fill:#bdc3c7;fill-opacity:1;fill-rule:nonzero;stroke:none"
       d="M 18.5,1045.9455 C 17.993739,1045.9455 17.583333,1046.3559 17.583333,1046.8622 17.583333,1047.3685 17.993739,1047.7789 18.5,1047.7789 19.00626,1047.7789 19.416666,1047.3685 19.416666,1046.8622 19.416666,1046.3559 19.00626,1045.9455 18.5,1045.9455 z M 18.5,1046.4039 C 18.75313,1046.4039 18.958333,1046.6091 18.958333,1046.8622 18.958333,1047.1153 18.75313,1047.3205 18.5,1047.3205 18.246869,1047.3205 18.041666,1047.1153 18.041666,1046.8622 18.041666,1046.6091 18.246869,1046.4039 18.5,1046.4039 z"
       id="path3002-4"
       inkscape:connector-curvature="0" />
    <path
       style="fill:#95a5a6;fill-opacity:1;fill-rule:nonzero;stroke:none"
       d="M 18.5,1041.3622 C 15.462434,1041.3622 13,1043.8246 13,1046.8622 13,1049.8998 15.462434,1052.3622 18.5,1052.3622 21.537566,1052.3622 23.999999,1049.8998 23.999999,1046.8622 23.999999,1043.8246 21.537566,1041.3622 18.5,1041.3622 z M 18.5,1042.2789 C 21.031305,1042.2789 23.083333,1044.3309 23.083333,1046.8622 23.083333,1049.3935 21.031305,1051.4455 18.5,1051.4455 15.968694,1051.4455 13.916667,1049.3935 13.916667,1046.8622 13.916667,1044.3309 15.968694,1042.2789 18.5,1042.2789 z"
       id="path2996"
       inkscape:connector-curvature="0" />
    <path
       sodipodi:type="arc"
       style="fill:#2c3e50;fill-opacity:1;fill-rule:nonzero;stroke:none"
       id="path3019"
       sodipodi:cx="12"
       sodipodi:cy="12"
       sodipodi:rx="1"
       sodipodi:ry="1"
       d="M 13,12 A 1,1 0 1 1 11,12 1,1 0 1 1 13,12 z"
       transform="matrix(0.45833331,0,0,0.45833316,13,1041.3622)" />
    <path
       style="fill:#95a5a6;fill-opacity:1;fill-rule:nonzero;stroke:none"
       d="M 19.292688,1046.4013 C 19.370952,1046.5363 19.421594,1046.6924 19.421594,1046.8597 19.421594,1047.027 19.370952,1047.183 19.292688,1047.318 L 19.421594,1047.318 19.79399,1047.318 C 19.84602,1047.173 19.879927,1047.0226 19.879927,1046.8597 19.879927,1046.6967 19.84602,1046.5464 19.79399,1046.4013 L 19.421594,1046.4013 19.292688,1046.4013 z"
       id="rect3028-62"
       inkscape:connector-curvature="0" />
    <path
       style="fill:#95a5a6;fill-opacity:1;fill-rule:nonzero;stroke:none"
       d="M 6 1 C 5.4477153 1 5 1.4477153 5 2 L 5 5 C 5 5.5522847 5.4477153 6 6 6 C 6.5522847 6 7 5.5522847 7 5 L 7 2 C 7 1.4477153 6.5522847 1 6 1 z M 18 1 C 17.447715 1 17 1.4477 17 2 L 17 5 C 17 5.5523 17.447715 6 18 6 C 18.552285 6 19 5.5523 19 5 L 19 2 C 19 1.4477 18.552285 1 18 1 z "
       transform="translate(0,1028.3622)"
       id="rect3118" />
    <path
       style="fill:#bdc3c7;fill-opacity:1;fill-rule:nonzero;stroke:none"
       d="M 6,1029.3622 C 5.447715,1029.3622 5,1029.8099 5,1030.3622 L 5,1032.3622 7,1032.3622 7,1030.3622 C 7,1029.8099 6.552285,1029.3622 6,1029.3622 z M 18,1029.3622 C 17.447715,1029.3622 17,1029.8099 17,1030.3622 L 17,1032.3622 19,1032.3622 19,1030.3622 C 19,1029.8099 18.552285,1029.3622 18,1029.3622 z"
       id="rect3118-6"
       inkscape:connector-curvature="0" />
  </g>
</svg>
