<?xml version="1.0" encoding="UTF-8" standalone="no"?>
<!-- Created with Inkscape (http://www.inkscape.org/) -->

<svg
   xmlns:dc="http://purl.org/dc/elements/1.1/"
   xmlns:cc="http://creativecommons.org/ns#"
   xmlns:rdf="http://www.w3.org/1999/02/22-rdf-syntax-ns#"
   xmlns:svg="http://www.w3.org/2000/svg"
   xmlns="http://www.w3.org/2000/svg"
   xmlns:sodipodi="http://sodipodi.sourceforge.net/DTD/sodipodi-0.dtd"
   xmlns:inkscape="http://www.inkscape.org/namespaces/inkscape"
   version="1.1"
   width="24"
   height="24"
   id="svg2"
   inkscape:version="0.48.3.1 r9886"
   sodipodi:docname="calendar-alt.svg">
  <sodipodi:namedview
     pagecolor="#ffffff"
     bordercolor="#666666"
     borderopacity="1"
     objecttolerance="10"
     gridtolerance="10"
     guidetolerance="10"
     inkscape:pageopacity="0"
     inkscape:pageshadow="2"
     inkscape:window-width="1920"
     inkscape:window-height="1150"
     id="namedview3227"
     showgrid="false"
     inkscape:zoom="9.8333333"
     inkscape:cx="12"
     inkscape:cy="12"
     inkscape:window-x="0"
     inkscape:window-y="0"
     inkscape:window-maximized="1"
     inkscape:current-layer="layer1" />
  <defs
     id="defs4" />
  <metadata
     id="metadata7">
    <rdf:RDF>
      <cc:Work
         rdf:about="">
        <dc:format>image/svg+xml</dc:format>
        <dc:type
           rdf:resource="http://purl.org/dc/dcmitype/StillImage" />
        <dc:title />
      </cc:Work>
    </rdf:RDF>
  </metadata>
  <g
     transform="translate(0,-1028.3622)"
     id="layer1">
    <path
       d="M 5,1032.3622 C 3.895431,1032.3622 3,1033.2576 3,1034.3622 L 3,1048.3622 C 3,1049.4668 3.89543,1050.3622 5,1050.3622 L 11,1050.3622 13,1050.3622 19,1050.3622 C 20.10457,1050.3622 21,1049.4668 21,1048.3622 L 21,1034.3622 C 21,1033.2576 20.104569,1032.3622 19,1032.3622 L 13,1032.3622 11,1032.3622 5,1032.3622 z"
       inkscape:connector-curvature="0"
       id="path2987-6-0-1"
       style="fill:#bdc3c7;fill-opacity:1;fill-rule:nonzero;stroke:none" />
    <path
       d="M 5,3 C 3.895431,3 3,3.8954 3,5 L 3,19 C 3,20.1046 3.89543,21 5,21 L 11,21 13,21 19,21 C 20.10457,21 21,20.1046 21,19 L 21,5 C 21,3.8954 20.104569,3 19,3 L 13,3 11,3 5,3 z"
       inkscape:connector-curvature="0"
       transform="translate(0,1028.3622)"
       id="path2987-6-0"
       style="fill:#ecf0f1;fill-opacity:1;fill-rule:nonzero;stroke:none" />
    <path
       d="M 5,1031.3622 C 3.895431,1031.3622 3,1032.2576 3,1033.3622 L 3,1036.3622 21,1036.3622 21,1033.3622 C 21,1032.2576 20.104569,1031.3622 19,1031.3622 L 13,1031.3622 11,1031.3622 5,1031.3622 z"
       inkscape:connector-curvature="0"
       id="path2987-6-0-3"
       style="fill:#e74c3c;fill-opacity:1;fill-rule:nonzero;stroke:none" />
    <path
       d="M 7,5.5 A 1.5,1.5 0 1 1 4,5.5 1.5,1.5 0 1 1 7,5.5 z"
       transform="translate(0.5,1028.3622)"
       id="path3201"
       style="fill:#c0392b;fill-opacity:1;fill-rule:nonzero;stroke:none" />
    <path
       d="M 6,1 C 5.4477153,1 5,1.4477153 5,2 L 5,5 C 5,5.5522847 5.4477153,6 6,6 6.5522847,6 7,5.5522847 7,5 L 7,2 C 7,1.4477153 6.5522847,1 6,1 z"
       inkscape:connector-curvature="0"
       transform="translate(0,1028.3622)"
       id="rect3118"
       style="fill:#bdc3c7;fill-opacity:1;fill-rule:nonzero;stroke:none" />
    <path
       d="M 7,5.5 A 1.5,1.5 0 1 1 4,5.5 1.5,1.5 0 1 1 7,5.5 z"
       transform="translate(12.5,1028.3622)"
       id="path3201-2"
       style="fill:#c0392b;fill-opacity:1;fill-rule:nonzero;stroke:none" />
    <path
       d="M 18,1029.3622 C 17.447715,1029.3622 17,1029.8099 17,1030.3622 L 17,1033.3622 C 17,1033.9145 17.447715,1034.3622 18,1034.3622 18.552285,1034.3622 19,1033.9145 19,1033.3622 L 19,1030.3622 C 19,1029.8099 18.552285,1029.3622 18,1029.3622 z"
       inkscape:connector-curvature="0"
       id="rect3118-9"
       style="fill:#bdc3c7;fill-opacity:1;fill-rule:nonzero;stroke:none" />
    <rect
       width="18"
       height="1"
       x="3"
       y="8"
       transform="translate(0,1028.3622)"
       id="rect3588"
       style="fill:#c0392b;fill-opacity:1;fill-rule:nonzero;stroke:none" />
    <path
       d="M 8,1039.3622 8,1040.3622 10,1040.3622 C 10.552285,1040.3622 11,1040.8099 11,1041.3622 11,1041.9145 10.552285,1042.3622 10,1042.3622 L 9,1042.3622 9,1043.3622 10,1043.3622 C 10.552285,1043.3622 11,1043.8099 11,1044.3622 11,1044.9145 10.552285,1045.3622 10,1045.3622 L 8,1045.3622 8,1046.3622 10,1046.3622 C 11.104569,1046.3622 12,1045.4668 12,1044.3622 12,1043.7613 11.731949,1043.2288 11.3125,1042.8622 11.731949,1042.4956 12,1041.963 12,1041.3622 12,1040.2576 11.104569,1039.3622 10,1039.3622 L 8,1039.3622 z"
       inkscape:connector-curvature="0"
       id="path3696"
       style="fill:#95a5a6;fill-opacity:1;fill-rule:nonzero;stroke:none" />
    <path
       d="M 13,1039.3622 13,1040.3622 14,1040.3622 14,1045.3622 13,1045.3622 13,1046.3622 14,1046.3622 15,1046.3622 16,1046.3622 16,1045.3622 15,1045.3622 15,1039.3622 14,1039.3622 13,1039.3622 z"
       inkscape:connector-curvature="0"
       id="rect3761"
       style="fill:#95a5a6;fill-opacity:1;fill-rule:nonzero;stroke:none" />
  </g>
</svg>
