<?xml version="1.0" encoding="UTF-8" standalone="no"?>
<!-- Created with Inkscape (http://www.inkscape.org/) -->

<svg
   xmlns:dc="http://purl.org/dc/elements/1.1/"
   xmlns:cc="http://creativecommons.org/ns#"
   xmlns:rdf="http://www.w3.org/1999/02/22-rdf-syntax-ns#"
   xmlns:svg="http://www.w3.org/2000/svg"
   xmlns="http://www.w3.org/2000/svg"
   xmlns:sodipodi="http://sodipodi.sourceforge.net/DTD/sodipodi-0.dtd"
   xmlns:inkscape="http://www.inkscape.org/namespaces/inkscape"
   width="24"
   height="24"
   id="svg2"
   version="1.1"
   inkscape:version="0.48.3.1 r9886"
   sodipodi:docname="camera.svg">
  <defs
     id="defs4" />
  <sodipodi:namedview
     id="base"
     pagecolor="#ffffff"
     bordercolor="#666666"
     borderopacity="1.0"
     inkscape:pageopacity="0.0"
     inkscape:pageshadow="2"
     inkscape:zoom="3.1576714"
     inkscape:cx="83.934361"
     inkscape:cy="52.23338"
     inkscape:document-units="px"
     inkscape:current-layer="layer1"
     showgrid="true"
     inkscape:window-width="1920"
     inkscape:window-height="1150"
     inkscape:window-x="0"
     inkscape:window-y="0"
     inkscape:window-maximized="1"
     inkscape:snap-global="true">
    <inkscape:grid
       type="xygrid"
       id="grid2985"
       empspacing="4"
       visible="true"
       enabled="true"
       snapvisiblegridlinesonly="true" />
  </sodipodi:namedview>
  <metadata
     id="metadata7">
    <rdf:RDF>
      <cc:Work
         rdf:about="">
        <dc:format>image/svg+xml</dc:format>
        <dc:type
           rdf:resource="http://purl.org/dc/dcmitype/StillImage" />
        <dc:title />
      </cc:Work>
    </rdf:RDF>
  </metadata>
  <g
     inkscape:label="Layer 1"
     inkscape:groupmode="layer"
     id="layer1"
     transform="translate(0,-1028.3622)">
    <path
       inkscape:connector-curvature="0"
       style="fill:#c0392b;fill-opacity:1;fill-rule:nonzero;stroke:none"
       d="M 2,1034.3622 C 0.895431,1034.3622 0,1035.2576 0,1036.3622 L 0,1038.3622 0,1046.3622 0,1048.3622 C 0,1049.4668 0.895431,1050.3622 2,1050.3622 L 18,1050.3622 22,1050.3622 C 23.104569,1050.3622 24,1049.4668 24,1048.3622 L 24,1038.3622 24,1036.3622 C 24,1035.2576 23.104569,1034.3622 22,1034.3622 L 18,1034.3622 6,1034.3622 2,1034.3622 z"
       id="path4463-6-0-6-5" />
    <path
       inkscape:connector-curvature="0"
       style="fill:#c0392b;fill-opacity:1;fill-rule:nonzero;stroke:none"
       d="M 2,1031.3622 C 0.895431,1031.3622 0,1032.2576 0,1033.3622 L 0,1035.3622 0,1043.3622 0,1045.3622 C 0,1046.4668 0.895431,1047.3622 2,1047.3622 L 18,1047.3622 22,1047.3622 C 23.104569,1047.3622 24,1046.4668 24,1045.3622 L 24,1035.3622 24,1033.3622 C 24,1032.2576 23.104569,1031.3622 22,1031.3622 L 18,1031.3622 6,1031.3622 2,1031.3622 z"
       id="path4463-6-0-6" />
    <path
       style="fill:#e74c3c;fill-opacity:1;fill-rule:nonzero;stroke:none"
       d="M 2,1033.3622 C 0.895431,1033.3622 0,1034.2576 0,1035.3622 L 0,1037.3622 0,1045.3622 0,1047.3622 C 0,1048.4668 0.895431,1049.3622 2,1049.3622 L 18,1049.3622 22,1049.3622 C 23.104569,1049.3622 24,1048.4668 24,1047.3622 L 24,1037.3622 24,1035.3622 C 24,1034.2576 23.104569,1033.3622 22,1033.3622 L 18,1033.3622 6,1033.3622 2,1033.3622 z"
       id="path4463-6-0"
       inkscape:connector-curvature="0" />
    <path
       sodipodi:type="arc"
       style="fill:#c0392b;fill-opacity:1;fill-rule:nonzero;stroke:none"
       id="path3919-8"
       sodipodi:cx="11"
       sodipodi:cy="13"
       sodipodi:rx="6"
       sodipodi:ry="6"
       d="M 17,13 C 17,16.313708 14.313708,19 11,19 7.6862915,19 5,16.313708 5,13 5,9.6862915 7.6862915,7 11,7 14.313708,7 17,9.6862915 17,13 z"
       transform="translate(1,1029.3622)" />
    <path
       sodipodi:type="arc"
       style="fill:#ecf0f1;fill-opacity:1;fill-rule:nonzero;stroke:none"
       id="path3919"
       sodipodi:cx="11"
       sodipodi:cy="13"
       sodipodi:rx="6"
       sodipodi:ry="6"
       d="M 17,13 C 17,16.313708 14.313708,19 11,19 7.6862915,19 5,16.313708 5,13 5,9.6862915 7.6862915,7 11,7 14.313708,7 17,9.6862915 17,13 z"
       transform="translate(1,1028.3622)" />
    <path
       sodipodi:type="arc"
       style="fill:#34495e;fill-opacity:1;fill-rule:nonzero;stroke:none"
       id="path3703-5-4"
       sodipodi:cx="12"
       sodipodi:cy="12.5"
       sodipodi:rx="3"
       sodipodi:ry="3.5"
       d="M 15,12.5 C 15,14.432997 13.656854,16 12,16 10.343146,16 9,14.432997 9,12.5 9,10.567003 10.343146,9 12,9 13.656854,9 15,10.567003 15,12.5 z"
       transform="matrix(1.3333334,0,0,1.1428571,-4.0000014,1027.0765)" />
    <path
       sodipodi:type="arc"
       style="fill:#2c3e50;fill-opacity:1;fill-rule:nonzero;stroke:none"
       id="path3703-0-8-8"
       sodipodi:cx="12"
       sodipodi:cy="12.5"
       sodipodi:rx="3"
       sodipodi:ry="3.5"
       d="M 15,12.5 C 15,14.432997 13.656854,16 12,16 10.343146,16 9,14.432997 9,12.5 9,10.567003 10.343146,9 12,9 13.656854,9 15,10.567003 15,12.5 z"
       transform="matrix(1,0,0,0.85714087,0,1030.6479)" />
    <path
       transform="translate(0,1028.3622)"
       sodipodi:type="arc"
       style="fill:#34495e;fill-opacity:1;fill-rule:nonzero;stroke:none"
       id="path3778-4-8"
       sodipodi:cx="12"
       sodipodi:cy="13"
       sodipodi:rx="2"
       sodipodi:ry="2"
       d="M 14,13 C 14,14.104569 13.104569,15 12,15 10.895431,15 10,14.104569 10,13 10,11.895431 10.895431,11 12,11 13.104569,11 14,11.895431 14,13 z" />
    <path
       transform="translate(0,1028.3622)"
       sodipodi:type="arc"
       style="fill:#3498db;fill-opacity:1;fill-rule:nonzero;stroke:none"
       id="path3787-1-7"
       sodipodi:cx="12"
       sodipodi:cy="13"
       sodipodi:rx="1"
       sodipodi:ry="1"
       d="M 13,13 C 13,13.552285 12.552285,14 12,14 11.447715,14 11,13.552285 11,13 11,12.447715 11.447715,12 12,12 12.552285,12 13,12.447715 13,13 z" />
    <path
       sodipodi:type="arc"
       style="fill:#ecf0f1;fill-opacity:1;fill-rule:nonzero;stroke:none"
       id="path3723-5-4"
       sodipodi:cx="23.5"
       sodipodi:cy="12.5"
       sodipodi:rx="1.5"
       sodipodi:ry="1.5"
       d="M 25,12.5 C 25,13.328427 24.328427,14 23.5,14 22.671573,14 22,13.328427 22,12.5 22,11.671573 22.671573,11 23.5,11 24.328427,11 25,11.671573 25,12.5 z"
       transform="matrix(0.66666667,0,0,0.66665554,-4.6666674,1031.029)" />
    <rect
       style="fill:#ecf0f1;fill-opacity:1;fill-rule:nonzero;stroke:none"
       id="rect3774-0-5"
       width="3"
       height="1.0000174"
       x="19"
       y="1036.3622" />
    <rect
       style="fill:#c0392b;fill-opacity:1;fill-rule:nonzero;stroke:none"
       id="rect3776-5-4"
       width="3"
       height="1"
       x="19"
       y="1035.3622" />
    <path
       style="fill:#c0392b;fill-opacity:1;fill-rule:nonzero;stroke:none"
       d="M 4 2 C 2.895431 2 2 2.8954 2 4 L 4 4 L 7 4 L 9 4 C 9 2.8954 8.104569 2 7 2 L 4 2 z "
       transform="translate(0,1028.3622)"
       id="path4463" />
  </g>
</svg>
