<?xml version="1.0" encoding="UTF-8" standalone="no"?>
<!-- Created with Inkscape (http://www.inkscape.org/) -->

<svg
   xmlns:dc="http://purl.org/dc/elements/1.1/"
   xmlns:cc="http://creativecommons.org/ns#"
   xmlns:rdf="http://www.w3.org/1999/02/22-rdf-syntax-ns#"
   xmlns:svg="http://www.w3.org/2000/svg"
   xmlns="http://www.w3.org/2000/svg"
   xmlns:sodipodi="http://sodipodi.sourceforge.net/DTD/sodipodi-0.dtd"
   xmlns:inkscape="http://www.inkscape.org/namespaces/inkscape"
   version="1.1"
   width="24"
   height="24"
   id="svg2"
   inkscape:version="0.48.3.1 r9886"
   sodipodi:docname="camera-alt.svg">
  <sodipodi:namedview
     pagecolor="#ffffff"
     bordercolor="#666666"
     borderopacity="1"
     objecttolerance="10"
     gridtolerance="10"
     guidetolerance="10"
     inkscape:pageopacity="0"
     inkscape:pageshadow="2"
     inkscape:window-width="1920"
     inkscape:window-height="1150"
     id="namedview3333"
     showgrid="false"
     inkscape:zoom="19.666667"
     inkscape:cx="-3.2194118"
     inkscape:cy="9.2774158"
     inkscape:window-x="0"
     inkscape:window-y="0"
     inkscape:window-maximized="1"
     inkscape:current-layer="layer1" />
  <defs
     id="defs4" />
  <metadata
     id="metadata7">
    <rdf:RDF>
      <cc:Work
         rdf:about="">
        <dc:format>image/svg+xml</dc:format>
        <dc:type
           rdf:resource="http://purl.org/dc/dcmitype/StillImage" />
        <dc:title />
      </cc:Work>
    </rdf:RDF>
  </metadata>
  <g
     transform="translate(0,-1028.3622)"
     id="layer1">
    <path
       d="M 2,1034.3622 C 0.895431,1034.3622 0,1035.2576 0,1036.3622 L 0,1038.3622 0,1046.3622 0,1048.3622 C 0,1049.4668 0.895431,1050.3622 2,1050.3622 L 18,1050.3622 22,1050.3622 C 23.104569,1050.3622 24,1049.4668 24,1048.3622 L 24,1038.3622 24,1036.3622 C 24,1035.2576 23.104569,1034.3622 22,1034.3622 L 18,1034.3622 6,1034.3622 2,1034.3622 z"
       inkscape:connector-curvature="0"
       id="path4463-6-0-6-5"
       style="fill:#c0392b;fill-opacity:1;fill-rule:nonzero;stroke:none" />
    <path
       d="M 2,1031.3622 C 0.895431,1031.3622 0,1032.2576 0,1033.3622 L 0,1035.3622 0,1043.3622 0,1045.3622 C 0,1046.4668 0.895431,1047.3622 2,1047.3622 L 18,1047.3622 22,1047.3622 C 23.104569,1047.3622 24,1046.4668 24,1045.3622 L 24,1035.3622 24,1033.3622 C 24,1032.2576 23.104569,1031.3622 22,1031.3622 L 18,1031.3622 6,1031.3622 2,1031.3622 z"
       inkscape:connector-curvature="0"
       id="path4463-6-0-6"
       style="fill:#c0392b;fill-opacity:1;fill-rule:nonzero;stroke:none" />
    <path
       d="M 2,1033.3622 C 0.895431,1033.3622 0,1034.2576 0,1035.3622 L 0,1037.3622 0,1045.3622 0,1047.3622 C 0,1048.4668 0.895431,1049.3622 2,1049.3622 L 18,1049.3622 22,1049.3622 C 23.104569,1049.3622 24,1048.4668 24,1047.3622 L 24,1037.3622 24,1035.3622 C 24,1034.2576 23.104569,1033.3622 22,1033.3622 L 18,1033.3622 6,1033.3622 2,1033.3622 z"
       inkscape:connector-curvature="0"
       id="path4463-6-0"
       style="fill:#e74c3c;fill-opacity:1;fill-rule:nonzero;stroke:none" />
    <path
       d="M 17,13 A 6,6 0 1 1 5,13 6,6 0 1 1 17,13 z"
       transform="translate(1,1029.3622)"
       id="path3919-8"
       style="fill:#c0392b;fill-opacity:1;fill-rule:nonzero;stroke:none" />
    <path
       d="M 17,13 A 6,6 0 1 1 5,13 6,6 0 1 1 17,13 z"
       transform="translate(1,1028.3622)"
       id="path3919"
       style="fill:#ecf0f1;fill-opacity:1;fill-rule:nonzero;stroke:none" />
    <path
       d="M 15,12.5 A 3,3.5 0 1 1 9,12.5 3,3.5 0 1 1 15,12.5 z"
       transform="matrix(1.3333334,0,0,1.1428571,-4.0000014,1027.0765)"
       id="path3703-5-4"
       style="fill:#34495e;fill-opacity:1;fill-rule:nonzero;stroke:none" />
    <path
       d="M 15,12.5 A 3,3.5 0 1 1 9,12.5 3,3.5 0 1 1 15,12.5 z"
       transform="matrix(1,0,0,0.85714087,0,1030.6479)"
       id="path3703-0-8-8"
       style="fill:#2c3e50;fill-opacity:1;fill-rule:nonzero;stroke:none" />
    <path
       d="M 14,13 A 2,2 0 1 1 10,13 2,2 0 1 1 14,13 z"
       transform="translate(0,1028.3622)"
       id="path3778-4-8"
       style="fill:#34495e;fill-opacity:1;fill-rule:nonzero;stroke:none" />
    <path
       d="M 13,13 A 1,1 0 1 1 11,13 1,1 0 1 1 13,13 z"
       transform="translate(0,1028.3622)"
       id="path3787-1-7"
       style="fill:#3498db;fill-opacity:1;fill-rule:nonzero;stroke:none" />
    <path
       d="M 25,12.5 A 1.5,1.5 0 1 1 22,12.5 1.5,1.5 0 1 1 25,12.5 z"
       transform="matrix(0.66666667,0,0,0.66665554,-4.6666674,1031.029)"
       id="path3723-5-4"
       style="fill:#ecf0f1;fill-opacity:1;fill-rule:nonzero;stroke:none" />
    <rect
       width="3"
       height="1.0000174"
       x="19"
       y="1036.3622"
       id="rect3774-0-5"
       style="fill:#ecf0f1;fill-opacity:1;fill-rule:nonzero;stroke:none" />
    <rect
       width="3"
       height="1"
       x="19"
       y="1035.3622"
       id="rect3776-5-4"
       style="fill:#7f8c8d;fill-opacity:1;fill-rule:nonzero;stroke:none" />
    <path
       d="M 4,2 C 2.895431,2 2,2.8954 2,4 L 4,4 7,4 9,4 C 9,2.8954 8.104569,2 7,2 L 4,2 z"
       inkscape:connector-curvature="0"
       transform="translate(0,1028.3622)"
       id="path4463"
       style="fill:#c0392b;fill-opacity:1;fill-rule:nonzero;stroke:none" />
  </g>
</svg>
