<?xml version="1.0" encoding="UTF-8" standalone="no"?>
<!-- Created with Inkscape (http://www.inkscape.org/) -->

<svg
   xmlns:dc="http://purl.org/dc/elements/1.1/"
   xmlns:cc="http://creativecommons.org/ns#"
   xmlns:rdf="http://www.w3.org/1999/02/22-rdf-syntax-ns#"
   xmlns:svg="http://www.w3.org/2000/svg"
   xmlns="http://www.w3.org/2000/svg"
   xmlns:sodipodi="http://sodipodi.sourceforge.net/DTD/sodipodi-0.dtd"
   xmlns:inkscape="http://www.inkscape.org/namespaces/inkscape"
   version="1.1"
   width="24"
   height="24"
   id="svg2"
   inkscape:version="0.48.3.1 r9886"
   sodipodi:docname="cat.svg">
  <sodipodi:namedview
     pagecolor="#ffffff"
     bordercolor="#666666"
     borderopacity="1"
     objecttolerance="10"
     gridtolerance="10"
     guidetolerance="10"
     inkscape:pageopacity="0"
     inkscape:pageshadow="2"
     inkscape:window-width="1920"
     inkscape:window-height="1150"
     id="namedview3363"
     showgrid="true"
     inkscape:zoom="9.8333333"
     inkscape:cx="56.794632"
     inkscape:cy="31.844455"
     inkscape:window-x="0"
     inkscape:window-y="0"
     inkscape:window-maximized="1"
     inkscape:current-layer="layer1">
    <inkscape:grid
       type="xygrid"
       id="grid4179"
       empspacing="4"
       visible="true"
       enabled="true"
       snapvisiblegridlinesonly="true" />
  </sodipodi:namedview>
  <defs
     id="defs4" />
  <metadata
     id="metadata7">
    <rdf:RDF>
      <cc:Work
         rdf:about="">
        <dc:format>image/svg+xml</dc:format>
        <dc:type
           rdf:resource="http://purl.org/dc/dcmitype/StillImage" />
        <dc:title />
      </cc:Work>
    </rdf:RDF>
  </metadata>
  <g
     transform="translate(0,-1028.3622)"
     id="layer1">
    <path
       d="M 5,1038.3622 C 5,1040.0191 6.3431466,1041.3622 8,1041.3622 9.6568534,1041.3622 11,1040.0191 11,1038.3622 L 5,1038.3622 z"
       inkscape:connector-curvature="0"
       id="path3122-5"
       style="fill:#ecf0f1;fill-opacity:1;fill-rule:nonzero;stroke:none" />
    <path
       d="M -22,26 -0.24166985,39.437822 -22.75833,51.562178 z"
       transform="matrix(-0.34913583,-0.11287257,-0.10443563,0.40600903,18.034338,1017.3228)"
       id="path3372-8"
       style="fill:#f39c12;fill-opacity:1;fill-rule:nonzero;stroke:none" />
    <path
       d="M -22,26 -0.24166985,39.437822 -22.75833,51.562178 z"
       transform="matrix(0.34913583,-0.11287257,0.10443563,0.40600903,5.9656618,1017.3228)"
       id="path3372"
       style="fill:#f39c12;fill-opacity:1;fill-rule:nonzero;stroke:none" />
    <path
       d="M 22,13 A 10,9 0 1 1 2,13 10,9 0 1 1 22,13 z"
       transform="translate(0,1028.3622)"
       id="path3620"
       style="fill:#f39c12;fill-opacity:1;fill-rule:nonzero;stroke:none" />
    <path
       d="M 22,13 A 10,9 0 1 1 2,13 10,9 0 1 1 22,13 z"
       transform="matrix(0.9,0,0,0.88888889,1.2,1029.8066)"
       id="path3620-9"
       style="fill:#f1c40f;fill-opacity:1;fill-rule:nonzero;stroke:none" />
    <path
       d="M -22,26 -0.24166985,39.437822 -22.75833,51.562178 z"
       transform="matrix(0.34913583,-0.11287257,0.10443563,0.40600903,7.9656619,1019.3228)"
       id="path3372-58"
       style="fill:#f1c40f;fill-opacity:1;fill-rule:nonzero;stroke:none" />
    <path
       d="M -22,26 -0.24166985,39.437822 -22.75833,51.562178 z"
       transform="matrix(-0.34913583,-0.11287257,-0.10443563,0.40600903,16.034338,1019.3228)"
       id="path3372-58-1"
       style="fill:#f1c40f;fill-opacity:1;fill-rule:nonzero;stroke:none" />
    <path
       d="M 11,1042.3622 11,1044.3622 C 11,1045.4668 10.104569,1046.3622 9,1046.3622 7.895431,1046.3622 7,1045.4668 7,1044.3622 L 6,1044.3622 C 6,1046.0191 7.343146,1047.3622 9,1047.3622 10.656854,1047.3622 12,1046.0191 12,1044.3622 L 12,1042.3622 11,1042.3622 z"
       inkscape:connector-curvature="0"
       id="path3694"
       style="fill:#e67e22;fill-opacity:1;fill-rule:nonzero;stroke:none" />
    <path
       d="M 13,1042.3622 13,1044.3622 C 13,1045.4668 13.895431,1046.3622 15,1046.3622 16.104569,1046.3622 17,1045.4668 17,1044.3622 L 18,1044.3622 C 18,1046.0191 16.656854,1047.3622 15,1047.3622 13.343146,1047.3622 12,1046.0191 12,1044.3622 L 12,1042.3622 13,1042.3622 z"
       inkscape:connector-curvature="0"
       id="path3694-1"
       style="fill:#e67e22;fill-opacity:1;fill-rule:nonzero;stroke:none" />
    <path
       d="M 0,11.53125 0,12.3125 6,14.625 0,14.59375 0,15.3125 6.03125,15.34375 6.09375,15.34375 0,17.6875 0,18.46875 9,15 0,11.53125 z"
       inkscape:connector-curvature="0"
       transform="translate(0,1028.3622)"
       id="path4182"
       style="fill:#e67e22;fill-opacity:1;fill-rule:nonzero;stroke:none" />
    <path
       d="M 24,1039.8934 24,1040.6747 18,1042.9872 24,1042.9559 24,1043.6747 17.96875,1043.7059 17.90625,1043.7059 24,1046.0497 24,1046.8309 15,1043.3622 24,1039.8934 z"
       inkscape:connector-curvature="0"
       id="path4182-5"
       style="fill:#e67e22;fill-opacity:1;fill-rule:nonzero;stroke:none" />
    <path
       d="M 8,1036.3622 C 6.343146,1036.3622 5,1037.7053 5,1039.3622 5,1041.0191 6.343146,1042.3622 8,1042.3622 9.656854,1042.3622 11,1041.0191 11,1039.3622 11,1037.7053 9.656854,1036.3622 8,1036.3622 z"
       inkscape:connector-curvature="0"
       id="path3779-2-0"
       style="fill:#ecf0f1;fill-opacity:1;fill-rule:nonzero;stroke:none" />
    <path
       d="M 8,1037.3622 C 6.89543,1037.3622 6,1038.2576 6,1039.3622 6,1040.4668 6.89543,1041.3622 8,1041.3622 9.10457,1041.3622 10,1040.4668 10,1039.3622 10,1038.2576 9.10457,1037.3622 8,1037.3622 z"
       inkscape:connector-curvature="0"
       id="path3777-2-1"
       style="fill:#2c3e50;fill-opacity:1;fill-rule:nonzero;stroke:none" />
    <path
       d="M 8,1037.3622 C 7.447715,1037.3622 7,1037.8099 7,1038.3622 7,1038.9145 7.447715,1039.3622 8,1039.3622 8.552285,1039.3622 9,1038.9145 9,1038.3622 9,1037.8099 8.552285,1037.3622 8,1037.3622 z"
       inkscape:connector-curvature="0"
       id="path4269-5-5-0"
       style="fill:#ecf0f1;fill-opacity:1;fill-rule:nonzero;stroke:none" />
    <path
       d="M 16,1036.3622 C 14.343146,1036.3622 13,1037.7053 13,1039.3622 13,1041.0191 14.343146,1042.3622 16,1042.3622 17.656854,1042.3622 19,1041.0191 19,1039.3622 19,1037.7053 17.656854,1036.3622 16,1036.3622 z"
       inkscape:connector-curvature="0"
       id="path3779-2-0-1"
       style="fill:#ecf0f1;fill-opacity:1;fill-rule:nonzero;stroke:none" />
    <path
       d="M 16,1037.3622 C 14.89543,1037.3622 14,1038.2576 14,1039.3622 14,1040.4668 14.89543,1041.3622 16,1041.3622 17.10457,1041.3622 18,1040.4668 18,1039.3622 18,1038.2576 17.10457,1037.3622 16,1037.3622 z"
       inkscape:connector-curvature="0"
       id="path3777-2-1-8"
       style="fill:#2c3e50;fill-opacity:1;fill-rule:nonzero;stroke:none" />
    <path
       d="M 16,1037.3622 C 15.447715,1037.3622 15,1037.8099 15,1038.3622 15,1038.9145 15.447715,1039.3622 16,1039.3622 16.552285,1039.3622 17,1038.9145 17,1038.3622 17,1037.8099 16.552285,1037.3622 16,1037.3622 z"
       inkscape:connector-curvature="0"
       id="path4269-5-5-0-0"
       style="fill:#ecf0f1;fill-opacity:1;fill-rule:nonzero;stroke:none" />
    <path
       d="M 10.21875,1041.3622 C 9.942608,1041.3622 9.71875,1041.5861 9.71875,1041.8622 9.71875,1042.0003 9.753268,1042.1155 9.84375,1042.206 9.888991,1042.2512 9.940181,1042.3056 10,1042.331 L 11.53125,1043.8622 11.625,1043.9872 C 11.716718,1044.0957 11.846775,1044.1747 12,1044.1747 12.153225,1044.1747 12.283282,1044.0957 12.375,1043.9872 L 12.46875,1043.8622 14,1042.331 C 14.059819,1042.3056 14.111009,1042.2512 14.15625,1042.206 14.246732,1042.1155 14.28125,1042.0003 14.28125,1041.8622 14.28125,1041.5861 14.057392,1041.3622 13.78125,1041.3622 L 12,1041.3622 10.21875,1041.3622 z"
       inkscape:connector-curvature="0"
       id="path3234-4"
       style="fill:#c0392b;fill-opacity:1;fill-rule:nonzero;stroke:none" />
  </g>
</svg>
