<?xml version="1.0" encoding="UTF-8" standalone="no"?>
<!-- Created with Inkscape (http://www.inkscape.org/) -->

<svg
   xmlns:dc="http://purl.org/dc/elements/1.1/"
   xmlns:cc="http://creativecommons.org/ns#"
   xmlns:rdf="http://www.w3.org/1999/02/22-rdf-syntax-ns#"
   xmlns:svg="http://www.w3.org/2000/svg"
   xmlns="http://www.w3.org/2000/svg"
   xmlns:sodipodi="http://sodipodi.sourceforge.net/DTD/sodipodi-0.dtd"
   xmlns:inkscape="http://www.inkscape.org/namespaces/inkscape"
   version="1.1"
   width="24"
   height="24"
   id="svg2"
   inkscape:version="0.48.3.1 r9886"
   sodipodi:docname="clock.svg">
  <sodipodi:namedview
     pagecolor="#ffffff"
     bordercolor="#666666"
     borderopacity="1"
     objecttolerance="10"
     gridtolerance="10"
     guidetolerance="10"
     inkscape:pageopacity="0"
     inkscape:pageshadow="2"
     inkscape:window-width="1920"
     inkscape:window-height="1150"
     id="namedview3410"
     showgrid="false"
     inkscape:zoom="6.9532167"
     inkscape:cx="35.988232"
     inkscape:cy="-28.384409"
     inkscape:window-x="0"
     inkscape:window-y="0"
     inkscape:window-maximized="1"
     inkscape:current-layer="layer1" />
  <defs
     id="defs4" />
  <metadata
     id="metadata7">
    <rdf:RDF>
      <cc:Work
         rdf:about="">
        <dc:format>image/svg+xml</dc:format>
        <dc:type
           rdf:resource="http://purl.org/dc/dcmitype/StillImage" />
        <dc:title />
      </cc:Work>
    </rdf:RDF>
  </metadata>
  <g
     transform="translate(0,-1028.3622)"
     id="layer1">
    <path
       d="M 22,12 A 10,10 0 1 1 2,12 10,10 0 1 1 22,12 z"
       transform="matrix(1.008517,-0.43849682,0.43849679,1.0085169,-5.3641651,1033.5219)"
       id="path3035-3-8"
       style="fill:#1abc9c;fill-opacity:1;fill-rule:nonzero;stroke:none" />
    <path
       d="M 23,12.5 A 8.5,8.5 0 1 1 6,12.5 8.5,8.5 0 1 1 23,12.5 z"
       transform="matrix(1.0588236,0,0,1.0588235,-3.3529415,1027.1269)"
       id="path3107"
       style="fill:#ecf0f1;fill-opacity:1;fill-rule:nonzero;stroke:none" />
    <path
       d="M 1.0338746,1039.8254 C 0.95120445,1041.465 1.2099006,1043.124 1.9088746,1044.7316 4.3306256,1050.3015 10.807739,1052.8721 16.377625,1050.4504 20.667877,1048.585 23.155934,1044.2979 22.971375,1039.8879 22.767616,1043.929 20.33991,1047.7276 16.377625,1049.4504 10.807739,1051.8721 4.3306256,1049.3015 1.9088746,1043.7316 1.3524986,1042.452 1.0889226,1041.1407 1.0338746,1039.8254 z"
       inkscape:connector-curvature="0"
       id="path3035-3-8-3"
       style="fill:#16a085;fill-opacity:1;fill-rule:nonzero;stroke:none" />
    <path
       d="M 20,1040.3622 C 20,1040.9145 19.5523,1041.3622 19,1041.3622 L 13,1041.3622 13,1039.3622 19,1039.3622 C 19.5523,1039.3622 20,1039.8099 20,1040.3622 z"
       inkscape:connector-curvature="0"
       id="rect3028"
       style="fill:#3498db;fill-opacity:1;fill-rule:nonzero;stroke:none" />
    <path
       d="M 12,5 C 11.4477,5 11,5.4477 11,6 L 11,10 11,11 13,11 13,10 13,6 C 13,5.4477 12.5523,5 12,5 z"
       inkscape:connector-curvature="0"
       transform="translate(0,1028.3622)"
       id="rect3028-9"
       style="fill:#2c3e50;fill-opacity:1;fill-rule:nonzero;stroke:none" />
    <rect
       width="7"
       height="1"
       x="-735.16736"
       y="743.68488"
       transform="matrix(0.70710678,-0.70710678,0.70710678,0.70710678,0,0)"
       id="rect3077"
       style="fill:#c0392b;fill-opacity:1;fill-rule:nonzero;stroke:none" />
    <path
       d="M 12,1038.3622 C 10.895431,1038.3622 10,1039.2576 10,1040.3622 10,1041.4668 10.895431,1042.3622 12,1042.3622 13.104569,1042.3622 14,1041.4668 14,1040.3622 14,1039.2576 13.104569,1038.3622 12,1038.3622 z M 12,1039.3622 C 12.552285,1039.3622 13,1039.8099 13,1040.3622 13,1040.9145 12.552285,1041.3622 12,1041.3622 11.447715,1041.3622 11,1040.9145 11,1040.3622 11,1039.8099 11.447715,1039.3622 12,1039.3622 z"
       inkscape:connector-curvature="0"
       id="path3002-4"
       style="fill:#34495e;fill-opacity:1;fill-rule:nonzero;stroke:none" />
  </g>
</svg>
