<?xml version="1.0" encoding="UTF-8" standalone="no"?>
<!-- Created with Inkscape (http://www.inkscape.org/) -->

<svg
   xmlns:dc="http://purl.org/dc/elements/1.1/"
   xmlns:cc="http://creativecommons.org/ns#"
   xmlns:rdf="http://www.w3.org/1999/02/22-rdf-syntax-ns#"
   xmlns:svg="http://www.w3.org/2000/svg"
   xmlns="http://www.w3.org/2000/svg"
   xmlns:sodipodi="http://sodipodi.sourceforge.net/DTD/sodipodi-0.dtd"
   xmlns:inkscape="http://www.inkscape.org/namespaces/inkscape"
   version="1.1"
   width="24"
   height="24"
   id="svg2"
   inkscape:version="0.48.3.1 r9886"
   sodipodi:docname="cloud-sync.svg">
  <sodipodi:namedview
     pagecolor="#ffffff"
     bordercolor="#666666"
     borderopacity="1"
     objecttolerance="10"
     gridtolerance="10"
     guidetolerance="10"
     inkscape:pageopacity="0"
     inkscape:pageshadow="2"
     inkscape:window-width="1920"
     inkscape:window-height="1150"
     id="namedview3422"
     showgrid="true"
     inkscape:zoom="5.6568543"
     inkscape:cx="1.7917576"
     inkscape:cy="-18.819959"
     inkscape:window-x="0"
     inkscape:window-y="0"
     inkscape:window-maximized="1"
     inkscape:current-layer="layer1"
     inkscape:snap-global="true">
    <inkscape:grid
       type="xygrid"
       id="grid4177"
       empspacing="4"
       visible="true"
       enabled="true"
       snapvisiblegridlinesonly="true" />
  </sodipodi:namedview>
  <defs
     id="defs4">
    <inkscape:path-effect
       effect="spiro"
       id="path-effect3007"
       is_visible="true" />
  </defs>
  <metadata
     id="metadata7">
    <rdf:RDF>
      <cc:Work
         rdf:about="">
        <dc:format>image/svg+xml</dc:format>
        <dc:type
           rdf:resource="http://purl.org/dc/dcmitype/StillImage" />
        <dc:title />
      </cc:Work>
    </rdf:RDF>
  </metadata>
  <g
     transform="translate(0,-1028.3622)"
     id="layer1">
    <path
       d="M 9.5,1033.3584 C 5.9101491,1033.3584 3,1036.2685 3,1039.8584 3,1039.8904 2.9995397,1039.9203 3,1039.9522 1.2160951,1040.8615 0,1042.7188 0,1044.8584 0,1047.896 2.4624339,1050.3584 5.5,1050.3584 5.5105147,1050.3584 5.5207492,1050.3585 5.53125,1050.3584 L 18.75,1050.3584 C 18.834894,1050.3627 18.914041,1050.3584 19,1050.3584 21.761424,1050.3584 24,1048.1198 24,1045.3584 24,1043.2632 22.70305,1041.4772 20.875,1040.7334 20.946138,1040.4553 21,1040.1587 21,1039.8584 21,1037.9254 19.432997,1036.3584 17.5,1036.3584 16.702425,1036.3584 15.96359,1036.628 15.375,1037.0772 14.331644,1034.8815 12.09267,1033.3584 9.5,1033.3584 z"
       inkscape:connector-curvature="0"
       id="path3088-2"
       style="fill:#95a5a6;fill-opacity:1;fill-rule:nonzero;stroke:none" />
    <path
       d="M 9.5,1032.3603 C 5.9101491,1032.3603 3,1035.2704 3,1038.8603 3,1038.8923 2.9995397,1038.9222 3,1038.954 1.2160951,1039.8634 0,1041.7207 0,1043.8603 0,1046.8979 2.4624339,1049.3603 5.5,1049.3603 5.5105147,1049.3603 5.5207492,1049.3604 5.53125,1049.3603 L 18.75,1049.3603 C 18.834894,1049.3646 18.914041,1049.3603 19,1049.3603 21.761424,1049.3603 24,1047.1217 24,1044.3603 24,1042.2651 22.70305,1040.4791 20.875,1039.7353 20.946138,1039.4572 21,1039.1606 21,1038.8603 21,1036.9273 19.432997,1035.3603 17.5,1035.3603 16.702425,1035.3603 15.96359,1035.6299 15.375,1036.079 14.331644,1033.8834 12.09267,1032.3603 9.5,1032.3603 z"
       inkscape:connector-curvature="0"
       id="path3088"
       style="fill:#bdc3c7;fill-opacity:1;fill-rule:nonzero;stroke:none" />
    <path
       style="fill:#2980b9;fill-opacity:1;fill-rule:nonzero;stroke:none"
       d="M 12,1037.3622 C 9.583754,1037.3622 7.559981,1039.0838 7.09375,1041.3622 L 8.75,1041.3622 C 9.194925,1039.9598 10.481555,1038.9247 12.03125,1038.9247 12.968865,1038.9247 13.820639,1039.3148 14.4375,1039.9247 L 13,1041.3622 15.3125,1041.3622 16.90625,1041.3622 17,1041.3622 17,1037.3622 15.53125,1038.831 C 14.624404,1037.9252 13.379641,1037.3622 12,1037.3622 z M 7,1043.3622 7,1047.3622 8.46875,1045.8935 C 9.375596,1046.7993 10.620359,1047.3622 12,1047.3622 14.416246,1047.3622 16.440019,1045.6406 16.90625,1043.3622 L 15.25,1043.3622 C 14.805075,1044.7646 13.518445,1045.7997 11.96875,1045.7997 11.031135,1045.7997 10.179361,1045.4096 9.5625,1044.7997 L 11,1043.3622 8.6875,1043.3622 7.09375,1043.3622 7,1043.3622 z"
       id="path3975-0"
       inkscape:connector-curvature="0" />
  </g>
</svg>
