<?xml version="1.0" encoding="UTF-8" standalone="no"?>
<!-- Created with Inkscape (http://www.inkscape.org/) -->

<svg
   xmlns:dc="http://purl.org/dc/elements/1.1/"
   xmlns:cc="http://creativecommons.org/ns#"
   xmlns:rdf="http://www.w3.org/1999/02/22-rdf-syntax-ns#"
   xmlns:svg="http://www.w3.org/2000/svg"
   xmlns="http://www.w3.org/2000/svg"
   xmlns:sodipodi="http://sodipodi.sourceforge.net/DTD/sodipodi-0.dtd"
   xmlns:inkscape="http://www.inkscape.org/namespaces/inkscape"
   width="24"
   height="24"
   id="svg2"
   version="1.1"
   inkscape:version="0.48.3.1 r9886"
   sodipodi:docname="0-start.svg">
  <defs
     id="defs4" />
  <sodipodi:namedview
     id="base"
     pagecolor="#ffffff"
     bordercolor="#666666"
     borderopacity="1.0"
     inkscape:pageopacity="0.0"
     inkscape:pageshadow="2"
     inkscape:zoom="22.627417"
     inkscape:cx="17.185863"
     inkscape:cy="18.560217"
     inkscape:document-units="px"
     inkscape:current-layer="layer1"
     showgrid="true"
     inkscape:window-width="1920"
     inkscape:window-height="1150"
     inkscape:window-x="0"
     inkscape:window-y="0"
     inkscape:window-maximized="1"
     showguides="true"
     inkscape:guide-bbox="true"
     inkscape:snap-bbox="true"
     inkscape:snap-bbox-midpoints="false"
     inkscape:snap-global="true"
     inkscape:bbox-nodes="true">
    <inkscape:grid
       type="xygrid"
       id="grid2985"
       empspacing="4"
       visible="true"
       enabled="true"
       snapvisiblegridlinesonly="true" />
  </sodipodi:namedview>
  <metadata
     id="metadata7">
    <rdf:RDF>
      <cc:Work
         rdf:about="">
        <dc:format>image/svg+xml</dc:format>
        <dc:type
           rdf:resource="http://purl.org/dc/dcmitype/StillImage" />
        <dc:title></dc:title>
      </cc:Work>
    </rdf:RDF>
  </metadata>
  <g
     inkscape:label="Layer 1"
     inkscape:groupmode="layer"
     id="layer1"
     transform="translate(0,-1028.3622)">
    <path
       style="fill:#2c3e50;fill-opacity:1;fill-rule:nonzero;stroke:none"
       d="M 3,1030.3622 C 1.89543,1030.3622 1,1031.2576 1,1032.3622 L 1,1050.3622 C 1,1051.4668 1.89543,1052.3622 3,1052.3622 L 21,1052.3622 C 22.10457,1052.3622 23,1051.4668 23,1050.3622 L 23,1032.3622 C 23,1031.2576 22.10457,1030.3622 21,1030.3622 L 3,1030.3622 z M 3,1032.3622 21,1032.3622 21,1050.3622 3,1050.3622 3,1032.3622 z"
       id="path3772-9-8-4-0"
       inkscape:connector-curvature="0" />
    <path
       style="fill:#34495e;fill-opacity:1;fill-rule:nonzero;stroke:none"
       d="M 3,1029.3622 C 1.89543,1029.3622 1,1030.2576 1,1031.3622 L 1,1049.3622 C 1,1050.4668 1.89543,1051.3622 3,1051.3622 L 21,1051.3622 C 22.10457,1051.3622 23,1050.4668 23,1049.3622 L 23,1031.3622 C 23,1030.2576 22.10457,1029.3622 21,1029.3622 L 3,1029.3622 z"
       id="path3772-9"
       inkscape:connector-curvature="0" />
    <path
       style="fill:#2c3e50;fill-opacity:1;fill-rule:nonzero;stroke:none"
       d="M 17.40625 4.375 L 16.40625 5.34375 L 16.40625 7.40625 C 16.024218 7.43785 15.659359 7.46315 15.28125 7.53125 L 14.75 5.5625 L 13.5 4.84375 L 12.8125 6.09375 L 13.34375 8.0625 C 12.993153 8.1883 12.621161 8.3405 12.28125 8.5 L 11.28125 6.71875 L 9.875 6.34375 L 9.53125 7.71875 L 10.5625 9.5 C 10.252305 9.7155 9.949439 9.9394 9.65625 10.1875 L 8.1875 8.75 L 6.78125 8.75 L 6.78125 10.15625 L 8.25 11.625 C 8.001924 11.9182 7.777943 12.22105 7.5625 12.53125 L 5.78125 11.46875 L 4.40625 11.84375 L 4.78125 13.21875 L 6.53125 14.25 C 6.371793 14.5899 6.250737 14.93065 6.125 15.28125 L 4.125 14.75 L 2.90625 15.46875 L 3.59375 16.6875 L 5.59375 17.21875 C 5.5256366 17.59685 5.4690907 17.96165 5.4375 18.34375 L 3.40625 18.34375 L 2.40625 19.34375 L 3.40625 20.34375 L 5.4375 20.34375 C 5.4691105 20.72575 5.5256443 21.09045 5.59375 21.46875 L 3.59375 22 L 3.03125 23 L 12.46875 23 L 14.4375 22 C 14.486623 22.0548 14.50975 22.1348 14.5625 22.1875 C 14.926665 22.551685 15.36353 22.81261 15.8125 23 L 19 23 C 19.447361 22.8055 19.852907 22.5534 20.21875 22.1875 C 20.584593 21.8217 20.868 21.3849 21.0625 20.9375 L 22.96875 21.25 C 22.979109 21.167528 23 21.085282 23 21 L 23 19.21875 L 21.375 18.9375 C 21.285296 18.0528 20.896512 17.20895 20.21875 16.53125 C 20.166 16.47845 20.086071 16.4241 20.03125 16.375 L 22.8125 10.96875 C 22.881552 11.013366 22.935371 11.075735 23 11.125 L 23 7.625 L 22.5 8.5 C 22.160079 8.3406 21.819282 8.1883 21.46875 8.0625 L 22 6.09375 L 21.28125 4.84375 L 20.03125 5.5625 L 19.53125 7.53125 C 19.15303 7.46315 18.757048 7.43785 18.375 7.40625 L 18.375 5.34375 L 17.40625 4.375 z M 17.1875 9.34375 C 18.488892 9.31385 19.797115 9.55075 21.03125 10.03125 L 18.25 15.4375 C 17.273575 15.2203 16.259348 15.38445 15.375 15.90625 L 11.0625 11.625 C 12.840843 10.1655 15.018513 9.39345 17.1875 9.34375 z M 9.65625 13.03125 L 13.96875 17.34375 C 13.447007 18.22805 13.251578 19.24235 13.46875 20.21875 L 8.0625 22.96875 C 6.78481 19.68685 7.306289 15.9055 9.625 13.0625 C 9.631471 13.0546 9.649773 13.03915 9.65625 13.03125 z "
       transform="translate(0,1028.3622)"
       id="path3772-9-0" />
    <path
       style="fill:#bdc3c7;fill-opacity:1;fill-rule:nonzero;stroke:none"
       d="M 17.34375 3.4375 L 16.34375 4.40625 L 16.34375 6.46875 C 15.961718 6.50035 15.596859 6.52565 15.21875 6.59375 L 14.6875 4.625 L 13.4375 3.90625 L 12.75 5.15625 L 13.28125 7.125 C 12.930653 7.2508 12.558661 7.403 12.21875 7.5625 L 11.21875 5.78125 L 9.8125 5.40625 L 9.46875 6.78125 L 10.5 8.5625 C 10.189805 8.778 9.886939 9.0019 9.59375 9.25 L 8.125 7.8125 L 6.71875 7.8125 L 6.71875 9.21875 L 8.1875 10.6875 C 7.9394243 10.9807 7.7154427 11.28355 7.5 11.59375 L 5.71875 10.53125 L 4.34375 10.90625 L 4.71875 12.28125 L 6.46875 13.3125 C 6.3092925 13.6524 6.1882371 13.99315 6.0625 14.34375 L 4.0625 13.8125 L 2.84375 14.53125 L 3.53125 15.75 L 5.53125 16.28125 C 5.4631366 16.65935 5.4065907 17.02415 5.375 17.40625 L 3.34375 17.40625 L 2.34375 18.40625 L 3.34375 19.40625 L 5.375 19.40625 C 5.4066105 19.78825 5.4631443 20.15295 5.53125 20.53125 L 3.53125 21.0625 L 2.84375 22.3125 L 4.0625 23 L 6.0625 22.46875 C 6.1276871 22.650408 6.2090935 22.820439 6.28125 23 L 10.5625 23 L 14.375 21.0625 C 14.424123 21.1173 14.44725 21.1973 14.5 21.25 C 15.177762 21.9278 16.05281 22.2853 16.9375 22.375 L 17.03125 23 L 19.09375 23 L 18.9375 22.0625 C 19.384861 21.868 19.790407 21.6159 20.15625 21.25 C 20.522093 20.8842 20.8055 20.4474 21 20 L 23 20.3125 L 23 18.28125 L 21.3125 18 C 21.222796 17.1153 20.834012 16.27145 20.15625 15.59375 C 20.1035 15.54095 20.023571 15.4866 19.96875 15.4375 L 22.75 10.03125 C 22.838528 10.088455 22.912684 10.159694 23 10.21875 L 23 6.5625 L 22.4375 7.5625 C 22.097579 7.4031 21.756782 7.2508 21.40625 7.125 L 21.9375 5.15625 L 21.21875 3.90625 L 19.96875 4.625 L 19.46875 6.59375 C 19.09053 6.52565 18.694548 6.50035 18.3125 6.46875 L 18.3125 4.40625 L 17.34375 3.4375 z M 17.125 8.40625 C 18.426392 8.3764006 19.734615 8.6132625 20.96875 9.09375 L 18.1875 14.5 C 17.211075 14.2828 16.196848 14.44695 15.3125 14.96875 L 11 10.6875 C 12.778343 9.228 14.956013 8.455999 17.125 8.40625 z M 9.59375 12.09375 L 13.90625 16.40625 C 13.384507 17.29055 13.189078 18.30485 13.40625 19.28125 L 8 22.03125 C 6.7223104 18.74935 7.2437885 14.968 9.5625 12.125 C 9.568971 12.1171 9.587273 12.10165 9.59375 12.09375 z "
       id="path3772"
       transform="translate(0,1028.3622)" />
    <path
       style="fill:#95a5a6;fill-opacity:1;fill-rule:nonzero;stroke:none"
       d="M 6.71875 7.8125 L 6.71875 9.21875 L 8.1875 10.6875 C 7.939424 10.9807 7.715443 11.28355 7.5 11.59375 L 5.71875 10.53125 L 4.34375 10.90625 L 4.71875 12.28125 L 6.46875 13.3125 C 6.309293 13.6524 6.188237 13.99315 6.0625 14.34375 L 4.0625 13.8125 L 2.84375 14.53125 L 3.53125 15.75 L 5.53125 16.28125 C 5.4631366 16.65935 5.4065907 17.02415 5.375 17.40625 L 3.34375 17.40625 L 2.34375 18.40625 L 3.34375 19.40625 L 5.375 19.40625 C 5.4066105 19.78825 5.4631443 20.15295 5.53125 20.53125 L 3.53125 21.0625 L 2.84375 22.3125 L 4.0625 23 L 6.0625 22.46875 C 6.127687 22.65035 6.209094 22.8204 6.28125 23 L 10.5625 23 L 14.375 21.0625 C 14.424123 21.1173 14.44725 21.1973 14.5 21.25 C 15.177762 21.9278 16.05281 22.2853 16.9375 22.375 L 17.03125 23 L 19.09375 23 L 18.9375 22.0625 C 19.384861 21.868 19.790407 21.6159 20.15625 21.25 C 20.172259 21.233993 20.171807 21.203774 20.1875 21.1875 L 6.8125 7.8125 L 6.71875 7.8125 z M 9.59375 12.09375 L 13.90625 16.40625 C 13.384507 17.29055 13.189078 18.30485 13.40625 19.28125 L 8 22.03125 C 6.72231 18.74935 7.243789 14.968 9.5625 12.125 C 9.568971 12.1171 9.587273 12.10165 9.59375 12.09375 z "
       transform="translate(0,1028.3622)"
       id="path3772-5" />
  </g>
</svg>
