<?xml version="1.0" encoding="UTF-8" standalone="no"?>
<!-- Created with Inkscape (http://www.inkscape.org/) -->

<svg
   xmlns:dc="http://purl.org/dc/elements/1.1/"
   xmlns:cc="http://creativecommons.org/ns#"
   xmlns:rdf="http://www.w3.org/1999/02/22-rdf-syntax-ns#"
   xmlns:svg="http://www.w3.org/2000/svg"
   xmlns="http://www.w3.org/2000/svg"
   xmlns:sodipodi="http://sodipodi.sourceforge.net/DTD/sodipodi-0.dtd"
   xmlns:inkscape="http://www.inkscape.org/namespaces/inkscape"
   width="24"
   height="24"
   id="svg2"
   version="1.1"
   inkscape:version="0.48.3.1 r9886"
   sodipodi:docname="cog.svg">
  <defs
     id="defs4" />
  <sodipodi:namedview
     id="base"
     pagecolor="#ffffff"
     bordercolor="#666666"
     borderopacity="1.0"
     inkscape:pageopacity="0.0"
     inkscape:pageshadow="2"
     inkscape:zoom="7.178707"
     inkscape:cx="7.1783956"
     inkscape:cy="23.223251"
     inkscape:document-units="px"
     inkscape:current-layer="layer1"
     showgrid="true"
     inkscape:window-width="1920"
     inkscape:window-height="1150"
     inkscape:window-x="0"
     inkscape:window-y="0"
     inkscape:window-maximized="1"
     showguides="true"
     inkscape:guide-bbox="true"
     inkscape:snap-bbox="true"
     inkscape:snap-bbox-midpoints="false"
     inkscape:snap-global="true"
     inkscape:bbox-nodes="true">
    <inkscape:grid
       type="xygrid"
       id="grid2985"
       empspacing="4"
       visible="true"
       enabled="true"
       snapvisiblegridlinesonly="true" />
  </sodipodi:namedview>
  <metadata
     id="metadata7">
    <rdf:RDF>
      <cc:Work
         rdf:about="">
        <dc:format>image/svg+xml</dc:format>
        <dc:type
           rdf:resource="http://purl.org/dc/dcmitype/StillImage" />
        <dc:title />
      </cc:Work>
    </rdf:RDF>
  </metadata>
  <g
     inkscape:label="Layer 1"
     inkscape:groupmode="layer"
     id="layer1"
     transform="translate(0,-1028.3622)">
    <path
       style="fill:#95a5a6;fill-opacity:1;fill-rule:nonzero;stroke:none"
       d="M 4.2218254,1031.1698 6.3431458,1031.8769 6.4978607,1032.0316 C 6.8410585,1031.805 7.1956987,1031.5927 7.5585209,1031.4129 L 7.4922296,1031.214 7.9120743,1029.0264 9.8566179,1028.4961 11.337123,1030.1976 11.381282,1030.3743 C 11.797023,1030.3485 12.203012,1030.3485 12.618718,1030.3743 L 12.662948,1030.1976 14.143417,1028.4961 16.087961,1029.0264 16.507841,1031.214 16.441514,1031.4129 C 16.804288,1031.5927 17.158905,1031.8049 17.502175,1032.0316 L 17.656854,1031.8769 19.778175,1031.1698 21.192388,1032.584 20.485281,1034.7053 20.330602,1034.86 C 20.55726,1035.2033 20.76946,1035.5579 20.94932,1035.9207 L 21.148229,1035.8544 23.335806,1036.2742 23.866136,1038.2188 22.164695,1039.6993 21.987883,1039.7435 C 22.013695,1040.1592 22.013726,1040.5652 21.987883,1040.9809 L 22.164695,1041.0251 23.866171,1042.5057 23.335841,1044.4502 21.148229,1044.87 20.949356,1044.8037 C 20.769462,1045.1665 20.557233,1045.5211 20.330637,1045.8644 L 20.485281,1046.0191 21.192388,1048.1404 19.778175,1049.5546 17.656854,1048.8475 17.50221,1048.6928 C 17.158941,1048.9194 16.804301,1049.1317 16.44155,1049.3116 L 16.507841,1049.5104 16.087996,1051.698 14.143453,1052.2284 12.662948,1050.5269 12.618718,1050.3501 C 12.202977,1050.3759 11.796988,1050.3759 11.381282,1050.3501 L 11.337123,1050.5269 9.8565826,1052.2283 7.9120389,1051.698 7.4922296,1049.5104 7.5584855,1049.3115 C 7.1957115,1049.1317 6.8410946,1048.9195 6.4978254,1048.6928 L 6.3431458,1048.8475 4.2218254,1049.5546 2.8076118,1048.1404 3.5147186,1046.0191 3.6693982,1045.8644 C 3.4427394,1045.5211 3.2305395,1045.1665 3.0506798,1044.8037 L 2.8518414,1044.87 0.66419441,1044.4502 0.13386433,1042.5056 1.8353754,1041.0251 2.0121167,1040.9809 C 1.9863052,1040.5652 1.9862741,1040.1592 2.0121167,1039.7435 L 1.8353754,1039.6993 0.13389968,1038.2188 0.66422977,1036.2743 2.8518414,1035.8544 3.0507152,1035.9207 C 3.2305381,1035.5579 3.442767,1035.2033 3.6694336,1034.8601 L 3.5147186,1034.7053 2.8076118,1032.584 4.2218254,1031.1698 z M 7.0502525,1035.4125 C 4.3165827,1038.1461 4.3165777,1042.5783 7.0502525,1045.3119 9.7839273,1048.0456 14.216078,1048.0456 16.949747,1045.3119 19.683417,1042.5783 19.683422,1038.1461 16.949747,1035.4125 14.216073,1032.6788 9.7839224,1032.6788 7.0502525,1035.4125 z"
       id="rect3392"
       inkscape:connector-curvature="0" />
    <path
       style="fill:#7f8c8d;fill-opacity:1;fill-rule:nonzero;stroke:none"
       d="M 6.3431458,1034.7053 C 9.4673401,1031.5812 14.532644,1031.5811 17.656854,1034.7053 20.781064,1037.8296 20.781049,1042.8949 17.656854,1046.0191 14.53266,1049.1432 9.4673556,1049.1433 6.3431458,1046.0191 3.2189359,1042.8948 3.2189514,1037.8295 6.3431458,1034.7053 z M 7.8236859,1034.7717 9.9892004,1036.9372 C 10.873548,1036.4154 11.885468,1036.234 12.861822,1036.4511 L 14.253938,1033.7331 C 12.11189,1033.0057 9.7022261,1033.3653 7.8236859,1034.7717 z M 6.4094724,1036.1859 C 5.0031381,1038.0644 4.6435184,1040.4741 5.3709093,1042.6161 L 8.088851,1041.224 C 7.8717501,1040.2477 8.0532439,1039.2357 8.5749869,1038.3514 L 6.4094724,1036.1859 z M 10.585786,1038.948 C 9.8047375,1039.729 9.8047163,1040.9953 10.585786,1041.7764 11.366857,1042.5575 12.633165,1042.5575 13.414214,1041.7764 14.195262,1040.9954 14.195284,1039.7291 13.414214,1038.948 12.633143,1038.1669 11.366835,1038.1669 10.585786,1038.948 z M 16.02167,1034.6612 14.629553,1037.3791 C 14.692438,1037.4346 14.768252,1037.4736 14.828427,1037.5338 15.517503,1038.2228 15.896338,1039.1085 15.977476,1040.0086 L 18.982679,1040.4506 C 19.005028,1038.6304 18.338576,1036.8013 16.949747,1035.4125 16.662026,1035.1247 16.343003,1034.8883 16.02167,1034.6612 z M 6.2989516,1044.3839 C 6.5260502,1044.7052 6.7625308,1045.0242 7.0502525,1045.3119 8.439081,1046.7008 10.268151,1047.3672 12.088388,1047.3449 L 11.646447,1044.3397 C 10.746261,1044.2585 9.8606484,1043.8797 9.1715729,1043.1906 9.1113981,1043.1305 9.0723785,1043.0546 9.0168933,1042.9918 L 6.2989516,1044.3839 z M 15.668152,1041.9532 C 15.473652,1042.4006 15.19427,1042.8248 14.828427,1043.1906 14.462584,1043.5565 14.038387,1043.8359 13.591026,1044.0304 L 14.055029,1047.0576 C 15.112787,1046.7331 16.112881,1046.1488 16.949747,1045.3119 17.786614,1044.4751 18.37093,1043.475 18.695417,1042.4172 L 15.668152,1041.9532 z"
       id="rect3145"
       inkscape:connector-curvature="0" />
  </g>
</svg>
