<?xml version="1.0" encoding="UTF-8" standalone="no"?>
<!-- Created with Inkscape (http://www.inkscape.org/) -->

<svg
   xmlns:dc="http://purl.org/dc/elements/1.1/"
   xmlns:cc="http://creativecommons.org/ns#"
   xmlns:rdf="http://www.w3.org/1999/02/22-rdf-syntax-ns#"
   xmlns:svg="http://www.w3.org/2000/svg"
   xmlns="http://www.w3.org/2000/svg"
   xmlns:sodipodi="http://sodipodi.sourceforge.net/DTD/sodipodi-0.dtd"
   xmlns:inkscape="http://www.inkscape.org/namespaces/inkscape"
   width="24"
   height="24"
   id="svg2"
   version="1.1"
   inkscape:version="0.48.3.1 r9886"
   sodipodi:docname="cogs.svg">
  <defs
     id="defs4" />
  <sodipodi:namedview
     id="base"
     pagecolor="#ffffff"
     bordercolor="#666666"
     borderopacity="1.0"
     inkscape:pageopacity="0.0"
     inkscape:pageshadow="2"
     inkscape:zoom="22.627417"
     inkscape:cx="15.711124"
     inkscape:cy="10.845852"
     inkscape:document-units="px"
     inkscape:current-layer="layer1"
     showgrid="true"
     inkscape:window-width="1920"
     inkscape:window-height="1150"
     inkscape:window-x="0"
     inkscape:window-y="0"
     inkscape:window-maximized="1"
     showguides="true"
     inkscape:guide-bbox="true"
     inkscape:snap-bbox="true"
     inkscape:snap-bbox-midpoints="false"
     inkscape:snap-global="true"
     inkscape:bbox-nodes="true">
    <inkscape:grid
       type="xygrid"
       id="grid2985"
       empspacing="4"
       visible="true"
       enabled="true"
       snapvisiblegridlinesonly="true" />
  </sodipodi:namedview>
  <metadata
     id="metadata7">
    <rdf:RDF>
      <cc:Work
         rdf:about="">
        <dc:format>image/svg+xml</dc:format>
        <dc:type
           rdf:resource="http://purl.org/dc/dcmitype/StillImage" />
        <dc:title />
      </cc:Work>
    </rdf:RDF>
  </metadata>
  <g
     inkscape:label="Layer 1"
     inkscape:groupmode="layer"
     id="layer1"
     transform="translate(0,-1028.3622)">
    <path
       style="fill:#7f8c8d;fill-opacity:1;fill-rule:nonzero;stroke:none"
       d="M 16,1030.3622 16,1031.4247 C 15.688283,1031.4885 15.382678,1031.6004 15.125,1031.7685 L 14.375,1031.0185 13.65625,1031.7372 14.40625,1032.4872 C 14.238208,1032.7449 14.126287,1033.0505 14.0625,1033.3622 L 13,1033.3622 13,1034.3622 14.0625,1034.3622 C 14.126287,1034.6739 14.238208,1034.9795 14.40625,1035.2372 L 13.65625,1035.9872 14.375,1036.706 15.125,1035.956 C 15.382678,1036.124 15.688283,1036.2359 16,1036.2997 L 16,1037.3622 17,1037.3622 17,1036.2997 C 17.311717,1036.2359 17.617322,1036.124 17.875,1035.956 L 18.625,1036.706 19.34375,1035.9872 18.59375,1035.2372 C 18.761792,1034.9795 18.873713,1034.6739 18.9375,1034.3622 L 20,1034.3622 20,1033.3622 18.9375,1033.3622 C 18.873713,1033.0505 18.761792,1032.7449 18.59375,1032.4872 L 19.34375,1031.7372 18.625,1031.0185 17.875,1031.7685 C 17.617322,1031.6004 17.311717,1031.4885 17,1031.4247 L 17,1030.3622 16,1030.3622 z M 16.5,1032.3622 C 17.328427,1032.3622 18,1033.0338 18,1033.8622 18,1034.6906 17.328427,1035.3622 16.5,1035.3622 15.671573,1035.3622 15,1034.6906 15,1033.8622 15,1033.0338 15.671573,1032.3622 16.5,1032.3622 z"
       id="rect3320-6"
       inkscape:connector-curvature="0" />
    <path
       style="fill:#95a5a6;fill-opacity:1;fill-rule:nonzero;stroke:none"
       d="M 19,1035.3309 19,1036.3622 C 18.729549,1036.4004 18.465639,1036.4845 18.21875,1036.5809 L 17.6875,1035.6747 16.8125,1036.1747 17.34375,1037.0809 C 17.120372,1037.2559 16.925009,1037.4513 16.75,1037.6747 L 15.84375,1037.1434 15.34375,1038.0184 16.25,1038.5497 C 16.153647,1038.7965 16.069468,1039.0604 16.03125,1039.3309 L 15,1039.3309 15,1040.3309 16.03125,1040.3309 C 16.069468,1040.6014 16.153647,1040.8653 16.25,1041.1122 L 15.34375,1041.6434 15.84375,1042.5184 16.75,1041.9872 C 16.925009,1042.2105 17.120372,1042.4059 17.34375,1042.5809 L 16.8125,1043.4872 17.6875,1043.9872 18.21875,1043.0809 C 18.465639,1043.1773 18.729549,1043.2614 19,1043.2997 L 19,1044.3309 20,1044.3309 20,1043.2997 C 20.270451,1043.2614 20.534361,1043.1773 20.78125,1043.0809 L 21.3125,1043.9872 22.1875,1043.4872 21.65625,1042.5809 C 21.879628,1042.4059 22.074991,1042.2105 22.25,1041.9872 L 23.15625,1042.5184 23.65625,1041.6434 22.75,1041.1122 C 22.846353,1040.8653 22.930532,1040.6014 22.96875,1040.3309 L 24,1040.3309 24,1039.3309 22.96875,1039.3309 C 22.930532,1039.0604 22.846353,1038.7965 22.75,1038.5497 L 23.65625,1038.0184 23.15625,1037.1434 22.25,1037.6747 C 22.074991,1037.4513 21.879628,1037.2559 21.65625,1037.0809 L 22.1875,1036.1747 21.3125,1035.6747 20.78125,1036.5809 C 20.534361,1036.4845 20.270451,1036.4004 20,1036.3622 L 20,1035.3309 19,1035.3309 z M 19.5,1037.3309 C 20.880712,1037.3309 22,1038.4502 22,1039.8309 22,1041.2116 20.880712,1042.3309 19.5,1042.3309 18.119288,1042.3309 17,1041.2116 17,1039.8309 17,1038.4502 18.119288,1037.3309 19.5,1037.3309 z"
       id="rect3460"
       inkscape:connector-curvature="0" />
    <path
       style="fill:#bdc3c7;fill-opacity:1;fill-rule:nonzero;stroke:none"
       d="M 10,1033.3309 7.96875,1033.3622 7.96875,1035.4559 C 7.6086402,1035.5186 7.2568087,1035.6057 6.90625,1035.7372 L 5.84375,1033.9247 4.125,1034.9247 5.15625,1036.7372 C 4.8670917,1036.9751 4.6094102,1037.2379 4.375,1037.5184 L 2.5625,1036.4872 1.5625,1038.2059 3.375,1039.2684 C 3.2406711,1039.6284 3.1261391,1039.9833 3.0625,1040.3622 L 0.96875,1040.3622 0.96875,1042.3622 3.09375,1042.3934 C 3.1565085,1042.7535 3.2435931,1043.1053 3.375,1043.4559 L 1.5625,1044.4872 2.5625,1046.2372 4.375,1045.1747 C 4.6128931,1045.4637 4.8758085,1045.7215 5.15625,1045.9559 L 4.09375,1047.7684 5.84375,1048.7997 6.875,1046.9872 C 7.2349391,1047.1215 7.6210711,1047.2048 8,1047.2684 L 8,1049.3622 10,1049.3622 10,1047.2684 C 10.36011,1047.2057 10.711892,1047.1186 11.0625,1046.9872 L 12.125,1048.7997 13.84375,1047.7997 12.8125,1045.9872 C 13.101609,1045.7492 13.359341,1045.4864 13.59375,1045.2059 L 15.40625,1046.2372 16.4375,1044.4872 14.59375,1043.4559 C 14.728079,1043.0959 14.842611,1042.7411 14.90625,1042.3622 L 17,1042.3622 17,1040.3309 14.875,1040.3309 C 14.812241,1039.9708 14.725156,1039.619 14.59375,1039.2684 L 16.40625,1038.2372 15.40625,1036.4872 13.59375,1037.5497 C 13.355856,1037.2607 13.092941,1037.0028 12.8125,1036.7684 L 13.875,1034.9247 12.125,1033.9247 11.09375,1035.7372 C 10.733812,1035.6029 10.347679,1035.5195 9.96875,1035.4559 L 10,1033.3309 z M 9,1038.3622 C 10.656854,1038.3622 12,1039.7053 12,1041.3622 12,1043.019 10.656854,1044.3622 9,1044.3622 7.3431458,1044.3622 6,1043.019 6,1041.3622 6,1039.7053 7.3431458,1038.3622 9,1038.3622 z"
       id="path2999"
       inkscape:connector-curvature="0" />
  </g>
</svg>
