<?xml version="1.0" encoding="UTF-8" standalone="no"?>
<!-- Created with Inkscape (http://www.inkscape.org/) -->

<svg
   xmlns:dc="http://purl.org/dc/elements/1.1/"
   xmlns:cc="http://creativecommons.org/ns#"
   xmlns:rdf="http://www.w3.org/1999/02/22-rdf-syntax-ns#"
   xmlns:svg="http://www.w3.org/2000/svg"
   xmlns="http://www.w3.org/2000/svg"
   xmlns:sodipodi="http://sodipodi.sourceforge.net/DTD/sodipodi-0.dtd"
   xmlns:inkscape="http://www.inkscape.org/namespaces/inkscape"
   width="24"
   height="24"
   id="svg2"
   version="1.1"
   inkscape:version="0.48.3.1 r9886"
   sodipodi:docname="computer.svg">
  <defs
     id="defs4">
    <inkscape:path-effect
       effect="spiro"
       id="path-effect3261"
       is_visible="true" />
    <inkscape:path-effect
       effect="spiro"
       id="path-effect3261-8"
       is_visible="true" />
  </defs>
  <sodipodi:namedview
     id="base"
     pagecolor="#ffffff"
     bordercolor="#666666"
     borderopacity="1.0"
     inkscape:pageopacity="0.0"
     inkscape:pageshadow="2"
     inkscape:zoom="16"
     inkscape:cx="30.389027"
     inkscape:cy="0.051359969"
     inkscape:document-units="px"
     inkscape:current-layer="layer1"
     showgrid="true"
     inkscape:window-width="1920"
     inkscape:window-height="1150"
     inkscape:window-x="0"
     inkscape:window-y="0"
     inkscape:window-maximized="1"
     showguides="true"
     inkscape:guide-bbox="true"
     inkscape:snap-bbox="true"
     inkscape:snap-bbox-midpoints="false"
     inkscape:snap-global="true"
     inkscape:bbox-nodes="true">
    <inkscape:grid
       type="xygrid"
       id="grid2985"
       empspacing="4"
       visible="true"
       enabled="true"
       snapvisiblegridlinesonly="true" />
  </sodipodi:namedview>
  <metadata
     id="metadata7">
    <rdf:RDF>
      <cc:Work
         rdf:about="">
        <dc:format>image/svg+xml</dc:format>
        <dc:type
           rdf:resource="http://purl.org/dc/dcmitype/StillImage" />
        <dc:title />
      </cc:Work>
    </rdf:RDF>
  </metadata>
  <g
     inkscape:label="Layer 1"
     inkscape:groupmode="layer"
     id="layer1"
     transform="translate(0,-1028.3622)">
    <path
       style="fill:#95a5a6;fill-opacity:1;fill-rule:nonzero;stroke:none"
       d="M 8.875 19 C 8.887819 19.1691 8.90625 19.3268 8.90625 19.5 C 8.90625 21.3632 8.1596576 23.0051 7 24 L 11 24 L 13 24 L 17 24 C 15.840342 23.0051 15.09375 21.3632 15.09375 19.5 C 15.09375 19.3268 15.112181 19.1691 15.125 19 L 13 19 L 11 19 L 8.875 19 z "
       transform="translate(0,1028.3622)"
       id="rect3049" />
    <path
       style="fill:#7f8c8d;fill-opacity:1;fill-rule:nonzero;stroke:none"
       d="M 8.875,1047.3622 C 8.887819,1047.5313 8.90625,1047.689 8.90625,1047.8622 8.90625,1048.3846 8.86004,1048.884 8.75,1049.3622 L 15.25,1049.3622 C 15.13996,1048.884 15.09375,1048.3846 15.09375,1047.8622 15.09375,1047.689 15.112181,1047.5313 15.125,1047.3622 L 13,1047.3622 11,1047.3622 8.875,1047.3622 z"
       id="rect3049-8"
       inkscape:connector-curvature="0" />
    <path
       style="fill:#bdc3c7;fill-opacity:1;fill-rule:nonzero;stroke:none"
       d="M 1,1031.3622 C 0.447715,1031.3622 0,1031.8099 0,1032.3622 L 0,1033.3622 0,1035.3622 0,1037.3622 0,1039.3622 0,1040.3622 0,1041.3622 0,1042.3622 0,1044.3622 0,1046.3622 0,1047.3622 C 0,1047.9145 0.447715,1048.3622 1,1048.3622 L 2,1048.3622 15,1048.3622 21,1048.3622 22,1048.3622 23,1048.3622 C 23.552285,1048.3622 24,1047.9145 24,1047.3622 L 24,1046.3622 24,1039.3622 24,1038.3622 24,1037.3622 24,1035.3622 24,1033.3622 24,1032.3622 C 24,1031.8099 23.552285,1031.3622 23,1031.3622 L 22,1031.3622 17,1031.3622 16,1031.3622 7,1031.3622 3,1031.3622 2,1031.3622 1,1031.3622 z"
       id="path2994"
       inkscape:connector-curvature="0" />
    <rect
       style="fill:#34495e;fill-opacity:1;fill-rule:nonzero;stroke:none"
       id="rect3248"
       width="22"
       height="14.000017"
       x="1"
       y="1032.3622" />
    <path
       style="fill:#2c3e50;fill-opacity:1;fill-rule:nonzero;stroke:none"
       d="M 23,1033.3622 2,1046.3622 21.582278,1046.3622 23,1046.3622 23,1044.8384 23,1033.3622 z"
       id="rect3040-9"
       inkscape:connector-curvature="0" />
  </g>
</svg>
