<?xml version="1.0" encoding="UTF-8" standalone="no"?>
<!-- Created with Inkscape (http://www.inkscape.org/) -->

<svg
   xmlns:dc="http://purl.org/dc/elements/1.1/"
   xmlns:cc="http://creativecommons.org/ns#"
   xmlns:rdf="http://www.w3.org/1999/02/22-rdf-syntax-ns#"
   xmlns:svg="http://www.w3.org/2000/svg"
   xmlns="http://www.w3.org/2000/svg"
   xmlns:sodipodi="http://sodipodi.sourceforge.net/DTD/sodipodi-0.dtd"
   xmlns:inkscape="http://www.inkscape.org/namespaces/inkscape"
   width="24"
   height="24"
   id="svg2"
   version="1.1"
   inkscape:version="0.48.3.1 r9886"
   sodipodi:docname="component-alt.svg">
  <defs
     id="defs4">
    <inkscape:path-effect
       effect="spiro"
       id="path-effect3261"
       is_visible="true" />
    <inkscape:path-effect
       effect="spiro"
       id="path-effect3261-8"
       is_visible="true" />
  </defs>
  <sodipodi:namedview
     id="base"
     pagecolor="#ffffff"
     bordercolor="#666666"
     borderopacity="1.0"
     inkscape:pageopacity="0.0"
     inkscape:pageshadow="2"
     inkscape:zoom="20.48"
     inkscape:cx="25.87052"
     inkscape:cy="6.1791618"
     inkscape:document-units="px"
     inkscape:current-layer="layer1"
     showgrid="true"
     inkscape:window-width="1920"
     inkscape:window-height="1150"
     inkscape:window-x="0"
     inkscape:window-y="0"
     inkscape:window-maximized="1"
     showguides="true"
     inkscape:guide-bbox="true"
     inkscape:snap-bbox="true"
     inkscape:snap-bbox-midpoints="false"
     inkscape:snap-global="true"
     inkscape:bbox-nodes="true">
    <inkscape:grid
       type="xygrid"
       id="grid2985"
       empspacing="4"
       visible="true"
       enabled="true"
       snapvisiblegridlinesonly="true" />
  </sodipodi:namedview>
  <metadata
     id="metadata7">
    <rdf:RDF>
      <cc:Work
         rdf:about="">
        <dc:format>image/svg+xml</dc:format>
        <dc:type
           rdf:resource="http://purl.org/dc/dcmitype/StillImage" />
        <dc:title />
      </cc:Work>
    </rdf:RDF>
  </metadata>
  <g
     inkscape:label="Layer 1"
     inkscape:groupmode="layer"
     id="layer1"
     transform="translate(0,-1028.3622)">
    <path
       style="fill:#e67e22;fill-opacity:1;fill-rule:nonzero;stroke:none"
       d="M -2e-7,1036.0289 0,1044.3622 12,1052.3622 12,1044.0289 z"
       id="rect3058"
       inkscape:connector-curvature="0"
       sodipodi:nodetypes="ccccc" />
    <path
       style="fill:#f39c12;fill-opacity:1;fill-rule:nonzero;stroke:none"
       d="M 23.999999,1036.0289 24,1044.3622 12,1052.3622 12,1044.0289 z"
       id="rect3058-0"
       inkscape:connector-curvature="0"
       sodipodi:nodetypes="ccccc" />
    <path
       inkscape:connector-curvature="0"
       style="fill:#f1c40f;fill-opacity:1;fill-rule:nonzero;stroke:none"
       d="M 12,1028.3622 -2e-7,1036.0289 12,1044.0289 23.999999,1036.0289 12,1028.3622 z"
       id="rect3165"
       sodipodi:nodetypes="cccccc" />
    <path
       inkscape:connector-curvature="0"
       style="fill:#e67e22;fill-opacity:1;fill-rule:nonzero;stroke:none"
       d="M 8.5,1030.6123 8.5,1032.1123 C 8.5,1033.355 10.067003,1034.3623 12,1034.3623 13.932996,1034.3623 15.5,1033.355 15.5,1032.1123 L 15.5,1030.6123 8.5,1030.6123 z"
       id="path3220-32-1-8" />
    <path
       inkscape:connector-curvature="0"
       style="fill:#e67e22;fill-opacity:1;fill-rule:nonzero;stroke:none"
       d="M 8.5,1030.6123 8.5,1032.1123 C 8.5,1033.355 10.067003,1034.3623 12,1034.3623 L 12,1030.6123 8.5,1030.6123 z"
       id="path3220-32-8" />
    <path
       sodipodi:type="arc"
       style="fill:#f1c40f;fill-opacity:1;fill-rule:nonzero;stroke:none"
       id="path3220-3-0-1"
       sodipodi:cx="12.5"
       sodipodi:cy="9"
       sodipodi:rx="3.5"
       sodipodi:ry="3"
       d="M 16,9 A 3.5,3 0 1 1 9,9 3.5,3 0 1 1 16,9 z"
       transform="matrix(1,0,0,0.74999736,-0.5,1023.8623)" />
    <path
       inkscape:connector-curvature="0"
       style="fill:#e67e22;fill-opacity:1;fill-rule:nonzero;stroke:none"
       d="M 15,1034.6123 15,1036.1123 C 15,1037.355 16.567003,1038.3623 18.5,1038.3623 20.432996,1038.3623 22,1037.355 22,1036.1123 L 22,1034.6123 15,1034.6123 z"
       id="path3220-32-1-4-0" />
    <path
       inkscape:connector-curvature="0"
       style="fill:#e67e22;fill-opacity:1;fill-rule:nonzero;stroke:none"
       d="M 15,1034.6123 15,1036.1123 C 15,1037.355 16.567003,1038.3623 18.5,1038.3623 L 18.5,1034.6123 15,1034.6123 z"
       id="path3220-32-6-0" />
    <path
       sodipodi:type="arc"
       style="fill:#f1c40f;fill-opacity:1;fill-rule:nonzero;stroke:none"
       id="path3220-3-0-2-4"
       sodipodi:cx="12.5"
       sodipodi:cy="9"
       sodipodi:rx="3.5"
       sodipodi:ry="3"
       d="M 16,9 A 3.5,3 0 1 1 9,9 3.5,3 0 1 1 16,9 z"
       transform="matrix(1,0,0,0.74999736,6,1027.8623)" />
    <path
       inkscape:connector-curvature="0"
       style="fill:#e67e22;fill-opacity:1;fill-rule:nonzero;stroke:none"
       d="M 2,1034.1123 2,1035.6123 C 2,1036.855 3.5670031,1037.8623 5.5000001,1037.8623 7.4329964,1037.8623 8.9999996,1036.855 8.9999996,1035.6123 L 8.9999996,1034.1123 2,1034.1123 z"
       id="path3220-32-1-8-0" />
    <path
       inkscape:connector-curvature="0"
       style="fill:#e67e22;fill-opacity:1;fill-rule:nonzero;stroke:none"
       d="M 2,1034.1123 2,1035.6123 C 2,1036.855 3.5670031,1037.8623 5.5000001,1037.8623 L 5.5000001,1034.1123 2,1034.1123 z"
       id="path3220-32-8-3" />
    <path
       sodipodi:type="arc"
       style="fill:#f1c40f;fill-opacity:1;fill-rule:nonzero;stroke:none"
       id="path3220-3-0-1-5"
       sodipodi:cx="12.5"
       sodipodi:cy="9"
       sodipodi:rx="3.5"
       sodipodi:ry="3"
       d="M 16,9 A 3.5,3 0 1 1 9,9 3.5,3 0 1 1 16,9 z"
       transform="matrix(1,0,0,0.74999736,-7,1027.3623)" />
    <path
       inkscape:connector-curvature="0"
       style="fill:#e67e22;fill-opacity:1;fill-rule:nonzero;stroke:none"
       d="M 8.5,1038.1123 8.5,1039.6123 C 8.5,1040.855 10.067003,1041.8623 12,1041.8623 13.932996,1041.8623 15.5,1040.855 15.5,1039.6123 L 15.5,1038.1123 8.5,1038.1123 z"
       id="path3220-32-1-4-0-0" />
    <path
       inkscape:connector-curvature="0"
       style="fill:#e67e22;fill-opacity:1;fill-rule:nonzero;stroke:none"
       d="M 8.5,1038.1123 8.5,1039.6123 C 8.5,1040.855 10.067003,1041.8623 12,1041.8623 L 12,1038.1123 8.5,1038.1123 z"
       id="path3220-32-6-0-7" />
    <path
       sodipodi:type="arc"
       style="fill:#f1c40f;fill-opacity:1;fill-rule:nonzero;stroke:none"
       id="path3220-3-0-2-4-6"
       sodipodi:cx="12.5"
       sodipodi:cy="9"
       sodipodi:rx="3.5"
       sodipodi:ry="3"
       d="M 16,9 A 3.5,3 0 1 1 9,9 3.5,3 0 1 1 16,9 z"
       transform="matrix(1,0,0,0.74999736,-0.5,1031.3623)" />
  </g>
</svg>
