<?xml version="1.0" encoding="UTF-8" standalone="no"?>
<!-- Created with Inkscape (http://www.inkscape.org/) -->

<svg
   xmlns:dc="http://purl.org/dc/elements/1.1/"
   xmlns:cc="http://creativecommons.org/ns#"
   xmlns:rdf="http://www.w3.org/1999/02/22-rdf-syntax-ns#"
   xmlns:svg="http://www.w3.org/2000/svg"
   xmlns="http://www.w3.org/2000/svg"
   xmlns:sodipodi="http://sodipodi.sourceforge.net/DTD/sodipodi-0.dtd"
   xmlns:inkscape="http://www.inkscape.org/namespaces/inkscape"
   width="24"
   height="24"
   id="svg2"
   version="1.1"
   inkscape:version="0.48.3.1 r9886"
   sodipodi:docname="compas.svg">
  <defs
     id="defs4" />
  <sodipodi:namedview
     id="base"
     pagecolor="#ffffff"
     bordercolor="#666666"
     borderopacity="1.0"
     inkscape:pageopacity="0.0"
     inkscape:pageshadow="2"
     inkscape:zoom="32"
     inkscape:cx="19.190765"
     inkscape:cy="15.132111"
     inkscape:document-units="px"
     inkscape:current-layer="layer1"
     showgrid="true"
     inkscape:window-width="1920"
     inkscape:window-height="1150"
     inkscape:window-x="0"
     inkscape:window-y="0"
     inkscape:window-maximized="1"
     inkscape:snap-global="true"
     inkscape:snap-bbox="true"
     inkscape:bbox-paths="true"
     inkscape:bbox-nodes="true"
     inkscape:snap-bbox-edge-midpoints="true"
     inkscape:snap-bbox-midpoints="true">
    <inkscape:grid
       type="xygrid"
       id="grid2985"
       empspacing="4"
       visible="true"
       enabled="true"
       snapvisiblegridlinesonly="true" />
  </sodipodi:namedview>
  <metadata
     id="metadata7">
    <rdf:RDF>
      <cc:Work
         rdf:about="">
        <dc:format>image/svg+xml</dc:format>
        <dc:type
           rdf:resource="http://purl.org/dc/dcmitype/StillImage" />
        <dc:title />
      </cc:Work>
    </rdf:RDF>
  </metadata>
  <g
     inkscape:label="Layer 1"
     inkscape:groupmode="layer"
     id="layer1"
     transform="translate(0,-1028.3622)">
    <path
       style="fill:#95a5a6;fill-opacity:1;fill-rule:nonzero;stroke:none"
       d="M 11.5,1030.8622 11.5,1039.8622 1.5,1039.8622 1.5,1040.8622 11.5,1040.8622 11.5,1049.8622 12.5,1049.8622 12.5,1040.8622 22.5,1040.8622 22.5,1039.8622 12.5,1039.8622 12.5,1030.8622 11.5,1030.8622 z"
       id="rect3106"
       inkscape:connector-curvature="0" />
    <path
       sodipodi:type="arc"
       style="fill:#34495e;fill-opacity:1;fill-rule:nonzero;stroke:none"
       id="path2996-1"
       sodipodi:cx="12"
       sodipodi:cy="12"
       sodipodi:rx="12"
       sodipodi:ry="12"
       d="M 24,12 C 24,18.627417 18.627417,24 12,24 5.372583,24 0,18.627417 0,12 0,5.372583 5.372583,0 12,0 18.627417,0 24,5.372583 24,12 z"
       transform="matrix(0.91666666,0,0,0.91666666,1,1029.3622)" />
    <path
       style="fill:#2c3e50;fill-opacity:1;fill-rule:nonzero;stroke:none"
       d="M 12 1 C 5.372583 1 0 6.3726 0 13 L 2 13 C 2 7.4771 6.477152 3 12 3 C 17.522848 3 22 7.4771 22 13 L 24 13 C 24 6.3726 18.627417 1 12 1 z "
       transform="translate(0,1028.3622)"
       id="path2996-9" />
    <path
       style="fill:#7f8c8d;fill-opacity:1;fill-rule:nonzero;stroke:none"
       d="M 12,1028.3622 C 5.372583,1028.3622 0,1033.7348 0,1040.3622 0,1046.9896 5.372583,1052.3622 12,1052.3622 18.627417,1052.3622 24,1046.9896 24,1040.3622 24,1033.7348 18.627417,1028.3622 12,1028.3622 z M 12,1030.3622 C 17.522848,1030.3622 22,1034.8393 22,1040.3622 22,1045.8851 17.522848,1050.3622 12,1050.3622 6.477152,1050.3622 2,1045.8851 2,1040.3622 2,1034.8393 6.477152,1030.3622 12,1030.3622 z"
       id="path2996"
       inkscape:connector-curvature="0" />
    <path
       sodipodi:type="arc"
       style="fill:#95a5a6;fill-opacity:1;fill-rule:nonzero;stroke:none"
       id="path3019"
       sodipodi:cx="12"
       sodipodi:cy="12"
       sodipodi:rx="1"
       sodipodi:ry="1"
       d="M 13,12 C 13,12.552285 12.552285,13 12,13 11.447715,13 11,12.552285 11,12 11,11.447715 11.447715,11 12,11 12.552285,11 13,11.447715 13,12 z"
       transform="translate(0,1028.3622)" />
    <path
       style="fill:#2c3e50;fill-opacity:1;fill-rule:nonzero;stroke:none"
       d="M 16.0625,1033.3622 10.375,1040.6435 8.3125,1049.6122 14,1042.3622 16.0625,1033.3622 z"
       id="path2998-9"
       inkscape:connector-curvature="0" />
    <path
       sodipodi:type="star"
       style="fill:#e74c3c;fill-opacity:1;fill-rule:nonzero;stroke:none"
       id="path2998"
       sodipodi:sides="3"
       sodipodi:cx="0.39774755"
       sodipodi:cy="18.431534"
       sodipodi:r1="5.3509636"
       sodipodi:r2="2.6754818"
       sodipodi:arg1="0.52359878"
       sodipodi:arg2="1.5707963"
       inkscape:flatsided="true"
       inkscape:rounded="0"
       inkscape:randomized="0"
       d="M 5.0318179,21.107016 -4.2363229,21.107016 0.39774757,13.08057 z"
       transform="matrix(0.3895506,0.18578705,-0.48269092,1.0120864,22.033237,1018.9261)"
       inkscape:transform-center-y="-1.5001038" />
    <path
       sodipodi:type="star"
       style="fill:#ecf0f1;fill-opacity:1;fill-rule:nonzero;stroke:none"
       id="path2998-0"
       sodipodi:sides="3"
       sodipodi:cx="0.39774755"
       sodipodi:cy="18.431534"
       sodipodi:r1="5.3509636"
       sodipodi:r2="2.6754818"
       sodipodi:arg1="0.52359878"
       sodipodi:arg2="1.5707963"
       inkscape:flatsided="true"
       inkscape:rounded="0"
       inkscape:randomized="0"
       d="M 5.0318179,21.107016 -4.2363229,21.107016 0.39774757,13.08057 z"
       transform="matrix(-0.3895506,-0.18578705,0.48269092,-1.0120864,1.9667553,1061.7983)"
       inkscape:transform-center-y="1.5001287" />
    <path
       style="fill:#bdc3c7;fill-opacity:1;fill-rule:nonzero;stroke:none"
       d="M 12 11 C 11.447715 11 11 11.447715 11 12 L 13 12 C 13 11.447715 12.552285 11 12 11 z "
       transform="translate(0,1028.3622)"
       id="path3179" />
    <path
       inkscape:connector-curvature="0"
       style="fill:#7f8c8d;fill-opacity:1;fill-rule:nonzero;stroke:none"
       d="M 12,1041.3622 C 12.552285,1041.3622 13,1040.9145 13,1040.3622 L 11,1040.3622 C 11,1040.9145 11.447715,1041.3622 12,1041.3622 z"
       id="path3179-7" />
  </g>
</svg>
