<?xml version="1.0" encoding="UTF-8" standalone="no"?>
<!-- Created with Inkscape (http://www.inkscape.org/) -->

<svg
   xmlns:dc="http://purl.org/dc/elements/1.1/"
   xmlns:cc="http://creativecommons.org/ns#"
   xmlns:rdf="http://www.w3.org/1999/02/22-rdf-syntax-ns#"
   xmlns:svg="http://www.w3.org/2000/svg"
   xmlns="http://www.w3.org/2000/svg"
   xmlns:sodipodi="http://sodipodi.sourceforge.net/DTD/sodipodi-0.dtd"
   xmlns:inkscape="http://www.inkscape.org/namespaces/inkscape"
   width="24"
   height="24"
   id="svg2"
   version="1.1"
   inkscape:version="0.48.3.1 r9886"
   sodipodi:docname="compass-alt.svg">
  <defs
     id="defs4" />
  <sodipodi:namedview
     id="base"
     pagecolor="#ffffff"
     bordercolor="#666666"
     borderopacity="1.0"
     inkscape:pageopacity="0.0"
     inkscape:pageshadow="2"
     inkscape:zoom="16"
     inkscape:cx="15.621403"
     inkscape:cy="8.6820726"
     inkscape:document-units="px"
     inkscape:current-layer="layer1"
     showgrid="true"
     inkscape:window-width="1920"
     inkscape:window-height="1150"
     inkscape:window-x="0"
     inkscape:window-y="0"
     inkscape:window-maximized="1"
     inkscape:snap-global="true"
     inkscape:snap-bbox="true"
     inkscape:bbox-paths="true"
     inkscape:bbox-nodes="true"
     inkscape:snap-bbox-edge-midpoints="true"
     inkscape:snap-bbox-midpoints="true">
    <inkscape:grid
       type="xygrid"
       id="grid2985"
       empspacing="4"
       visible="true"
       enabled="true"
       snapvisiblegridlinesonly="true" />
  </sodipodi:namedview>
  <metadata
     id="metadata7">
    <rdf:RDF>
      <cc:Work
         rdf:about="">
        <dc:format>image/svg+xml</dc:format>
        <dc:type
           rdf:resource="http://purl.org/dc/dcmitype/StillImage" />
        <dc:title />
      </cc:Work>
    </rdf:RDF>
  </metadata>
  <g
     inkscape:label="Layer 1"
     inkscape:groupmode="layer"
     id="layer1"
     transform="translate(0,-1028.3622)">
    <path
       transform="translate(0,1029.3622)"
       sodipodi:type="arc"
       style="fill:#95a5a6;fill-opacity:1;fill-rule:nonzero;stroke:none"
       id="path3038-9"
       sodipodi:cx="12"
       sodipodi:cy="12"
       sodipodi:rx="11"
       sodipodi:ry="11"
       d="M 23,12 A 11,11 0 1 1 1,12 11,11 0 1 1 23,12 z" />
    <path
       sodipodi:type="arc"
       style="fill:#bdc3c7;fill-opacity:1;fill-rule:nonzero;stroke:none"
       id="path3038"
       sodipodi:cx="12"
       sodipodi:cy="12"
       sodipodi:rx="11"
       sodipodi:ry="11"
       d="M 23,12 A 11,11 0 1 1 1,12 11,11 0 1 1 23,12 z"
       transform="translate(0,1028.3622)" />
    <path
       sodipodi:type="arc"
       style="fill:#3498db;fill-opacity:1;fill-rule:nonzero;stroke:none"
       id="path3040"
       sodipodi:cx="11.5"
       sodipodi:cy="12"
       sodipodi:rx="8.5"
       sodipodi:ry="9"
       d="M 20,12 A 8.5,9 0 1 1 3,12 8.5,9 0 1 1 20,12 z"
       transform="matrix(1.0588235,0,0,1,-0.17647025,1028.3622)" />
    <path
       style="fill:#2980b9;fill-opacity:1;fill-rule:nonzero;stroke:none"
       d="M 16,1033.3622 10,1040.3622 8,1049.3622 14,1042.3622 16,1033.3622 z"
       id="path2998-1-5-8"
       inkscape:connector-curvature="0" />
    <path
       style="fill:#2980b9;fill-opacity:1;fill-rule:nonzero;stroke:none"
       d="M 12,1031.3622 C 7.029437,1031.3622 3,1035.3916 3,1040.3622 3,1040.5338 3.021776,1040.693 3.03125,1040.8622 3.296257,1036.1295 7.201001,1032.3622 12,1032.3622 16.798998,1032.3622 20.703743,1036.1295 20.96875,1040.8622 20.978224,1040.693 21,1040.5338 21,1040.3622 21,1035.3916 16.970563,1031.3622 12,1031.3622 z"
       id="path3040-5"
       inkscape:connector-curvature="0" />
    <path
       style="fill:#e74c3c;fill-opacity:1;fill-rule:nonzero;stroke:none"
       inkscape:transform-center-y="-1.5001038"
       d="M 14,1041.3622 10,1039.3622 16,1032.3622 z"
       id="path2998-1-5"
       inkscape:connector-curvature="0"
       sodipodi:nodetypes="cccc" />
    <path
       style="fill:#ecf0f1;fill-opacity:1;fill-rule:nonzero;stroke:none"
       inkscape:transform-center-y="1.5001287"
       d="M 10,1039.3622 14,1041.3622 8,1048.3622 z"
       id="path2998-0-9-5"
       inkscape:connector-curvature="0"
       sodipodi:nodetypes="cccc" />
    <path
       style="fill:#bdc3c7;fill-opacity:1;fill-rule:nonzero;stroke:none"
       d="M 12,1029.3622 C 5.924868,1029.3622 1,1034.2871 1,1040.3622 1,1046.4373 5.924868,1051.3622 12,1051.3622 18.075132,1051.3622 23,1046.4373 23,1040.3622 23,1034.2871 18.075132,1029.3622 12,1029.3622 z M 12,1031.3622 C 16.970563,1031.3622 21,1035.3916 21,1040.3622 21,1045.3328 16.970563,1049.3622 12,1049.3622 7.029437,1049.3622 3,1045.3328 3,1040.3622 3,1035.3916 7.029437,1031.3622 12,1031.3622 z"
       id="path3038-8"
       inkscape:connector-curvature="0" />
    <path
       style="fill:#c0392b;stroke:none;stroke-width:1px;stroke-linecap:butt;stroke-linejoin:miter;stroke-opacity:1;fill-opacity:1"
       d="M 16,4 12,12 14,13 z"
       id="path4022"
       inkscape:connector-curvature="0"
       transform="translate(0,1028.3622)" />
    <path
       inkscape:connector-curvature="0"
       style="fill:#bdc3c7;fill-opacity:1;fill-rule:nonzero;stroke:none"
       d="M 12,1039.3622 C 11.447715,1039.3622 11,1039.8099 11,1040.3622 L 13,1040.3622 C 13,1039.8099 12.552285,1039.3622 12,1039.3622 z"
       id="path3179-78-2" />
    <path
       style="fill:#bdc3c7;stroke:none;stroke-width:1px;stroke-linecap:butt;stroke-linejoin:miter;stroke-opacity:1;fill-opacity:1"
       d="M 12,12 8,20 14,13 z"
       id="path4024"
       inkscape:connector-curvature="0"
       transform="translate(0,1028.3622)" />
    <path
       inkscape:connector-curvature="0"
       style="fill:#7f8c8d;fill-opacity:1;fill-rule:nonzero;stroke:none"
       d="M 12,1041.3622 C 12.552285,1041.3622 13,1040.9145 13,1040.3622 L 11,1040.3622 C 11,1040.9145 11.447715,1041.3622 12,1041.3622 z"
       id="path3179-7-8-1" />
  </g>
</svg>
