<?xml version="1.0" encoding="UTF-8" standalone="no"?>
<!-- Created with Inkscape (http://www.inkscape.org/) -->

<svg
   xmlns:dc="http://purl.org/dc/elements/1.1/"
   xmlns:cc="http://creativecommons.org/ns#"
   xmlns:rdf="http://www.w3.org/1999/02/22-rdf-syntax-ns#"
   xmlns:svg="http://www.w3.org/2000/svg"
   xmlns="http://www.w3.org/2000/svg"
   xmlns:sodipodi="http://sodipodi.sourceforge.net/DTD/sodipodi-0.dtd"
   xmlns:inkscape="http://www.inkscape.org/namespaces/inkscape"
   width="24"
   height="24"
   id="svg2"
   version="1.1"
   inkscape:version="0.48.3.1 r9886"
   sodipodi:docname="cone.svg">
  <defs
     id="defs4" />
  <sodipodi:namedview
     id="base"
     pagecolor="#ffffff"
     bordercolor="#666666"
     borderopacity="1.0"
     inkscape:pageopacity="0.0"
     inkscape:pageshadow="2"
     inkscape:zoom="45.254834"
     inkscape:cx="11.22246"
     inkscape:cy="7.8090276"
     inkscape:document-units="px"
     inkscape:current-layer="layer1"
     showgrid="true"
     inkscape:window-width="1920"
     inkscape:window-height="1150"
     inkscape:window-x="0"
     inkscape:window-y="0"
     inkscape:window-maximized="1"
     showguides="true"
     inkscape:guide-bbox="true"
     inkscape:snap-bbox="true"
     inkscape:snap-bbox-midpoints="false"
     inkscape:snap-global="true"
     inkscape:bbox-nodes="true">
    <inkscape:grid
       type="xygrid"
       id="grid2985"
       empspacing="4"
       visible="true"
       enabled="true"
       snapvisiblegridlinesonly="true" />
  </sodipodi:namedview>
  <metadata
     id="metadata7">
    <rdf:RDF>
      <cc:Work
         rdf:about="">
        <dc:format>image/svg+xml</dc:format>
        <dc:type
           rdf:resource="http://purl.org/dc/dcmitype/StillImage" />
        <dc:title />
      </cc:Work>
    </rdf:RDF>
  </metadata>
  <g
     inkscape:label="Layer 1"
     inkscape:groupmode="layer"
     id="layer1"
     transform="translate(0,-1028.3622)">
    <path
       inkscape:connector-curvature="0"
       style="fill:#ecf0f1;fill-opacity:1;fill-rule:nonzero;stroke:none"
       d="M 10.285774,1030.3622 4.93943,1048.3622 10.285774,1048.3622 13.850003,1048.3622 19.196347,1048.3622 13.850003,1030.3622 10.285774,1030.3622 z"
       id="path3382-1" />
    <path
       style="fill:#f39c12;fill-opacity:1;fill-rule:nonzero;stroke:none"
       d="M 4 19 L 2 21 L 22 21 L 20 19 L 4 19 z "
       transform="translate(0,1028.3622)"
       id="rect3069-4-9-7" />
    <path
       style="fill:#e67e22;fill-opacity:1;fill-rule:nonzero;stroke:none"
       d="M 10.285774,1030.3622 9.3947165,1033.3622 14.741061,1033.3622 13.850003,1030.3622 10.285774,1030.3622 z M 8.1973583,1037.3622 7,1041.3622 17.135777,1041.3622 15.938418,1037.3622 8.1973583,1037.3622 z M 5.8304873,1045.3622 4.93943,1048.3622 10.285774,1048.3622 13.850003,1048.3622 19.196347,1048.3622 18.305289,1045.3622 5.8304873,1045.3622 z"
       id="path3382"
       inkscape:connector-curvature="0" />
    <path
       style="fill:#bdc3c7;fill-opacity:1;fill-rule:nonzero;stroke:none"
       d="M 10.285774,1030.3622 4.93943,1048.3622 10.285774,1048.3622 12.067889,1048.3622 12.067889,1030.3622 10.285774,1030.3622 z"
       id="path3382-1-3"
       inkscape:connector-curvature="0" />
    <path
       style="fill:#d35400;fill-opacity:1;fill-rule:nonzero;stroke:none"
       d="M 10.285774,1030.3622 9.3947165,1033.3622 12.067889,1033.3622 12.067889,1030.3622 10.285774,1030.3622 z M 8.1973583,1037.3622 7,1041.3622 12.067889,1041.3622 12.067889,1037.3622 8.1973583,1037.3622 z M 5.8304873,1045.3622 4.93943,1048.3622 10.285774,1048.3622 12.067889,1048.3622 12.067889,1045.3622 5.8304873,1045.3622 z"
       id="path3382-7"
       inkscape:connector-curvature="0" />
    <rect
       style="fill:#e67e22;fill-opacity:1;fill-rule:nonzero;stroke:none"
       id="rect3554"
       width="20"
       height="1"
       x="2"
       y="1049.3622" />
  </g>
</svg>
