<?xml version="1.0" encoding="UTF-8" standalone="no"?>
<!-- Created with Inkscape (http://www.inkscape.org/) -->

<svg
   xmlns:dc="http://purl.org/dc/elements/1.1/"
   xmlns:cc="http://creativecommons.org/ns#"
   xmlns:rdf="http://www.w3.org/1999/02/22-rdf-syntax-ns#"
   xmlns:svg="http://www.w3.org/2000/svg"
   xmlns="http://www.w3.org/2000/svg"
   xmlns:sodipodi="http://sodipodi.sourceforge.net/DTD/sodipodi-0.dtd"
   xmlns:inkscape="http://www.inkscape.org/namespaces/inkscape"
   version="1.1"
   width="24"
   height="24"
   id="svg2"
   inkscape:version="0.48.3.1 r9886"
   sodipodi:docname="database.svg">
  <sodipodi:namedview
     pagecolor="#ffffff"
     bordercolor="#666666"
     borderopacity="1"
     objecttolerance="10"
     gridtolerance="10"
     guidetolerance="10"
     inkscape:pageopacity="0"
     inkscape:pageshadow="2"
     inkscape:window-width="1920"
     inkscape:window-height="1150"
     id="namedview3453"
     showgrid="false"
     inkscape:zoom="9.8333333"
     inkscape:cx="12"
     inkscape:cy="12"
     inkscape:window-x="0"
     inkscape:window-y="0"
     inkscape:window-maximized="1"
     inkscape:current-layer="layer1" />
  <defs
     id="defs4" />
  <metadata
     id="metadata7">
    <rdf:RDF>
      <cc:Work
         rdf:about="">
        <dc:format>image/svg+xml</dc:format>
        <dc:type
           rdf:resource="http://purl.org/dc/dcmitype/StillImage" />
        <dc:title />
      </cc:Work>
    </rdf:RDF>
  </metadata>
  <g
     transform="translate(0,-1028.3622)"
     id="layer1">
    <path
       d="M 16,21.5 A 0.5,1.5 0 1 1 15.99997,21.483677 L 15.5,21.5 z"
       transform="matrix(3,0,0,1,-28,1027.3622)"
       id="path3085"
       style="fill:#7f8c8d;fill-opacity:1;fill-rule:nonzero;stroke:none" />
    <path
       d="M 3,8 3,11 3,15 3,21 C 3,22.1046 3.895431,23 5,23 L 19,23 C 20.10457,23 21,22.1046 21,21 L 21,15 21,11 21,8 3,8 z"
       inkscape:connector-curvature="0"
       transform="translate(0,1028.3622)"
       id="path2987-88-2"
       style="fill:#7f8c8d;fill-opacity:1;fill-rule:nonzero;stroke:none" />
    <path
       d="M 3,8 3,10 3,14 3,20 C 3,21.1046 3.89543,22 5,22 L 19,22 C 20.104569,22 21,21.1046 21,20 L 21,14 21,10 21,8 3,8 z"
       inkscape:connector-curvature="0"
       transform="translate(0,1028.3622)"
       id="path2987-88"
       style="fill:#95a5a6;fill-opacity:1;fill-rule:nonzero;stroke:none" />
    <path
       d="M 3,8 3,11 3,17 C 3,18.1046 3.89543,19 5,19 L 19,19 C 20.104569,19 21,18.1046 21,17 L 21,11 21,8 3,8 z"
       inkscape:connector-curvature="0"
       transform="translate(0,1028.3622)"
       id="path2987"
       style="fill:#bdc3c7;fill-opacity:1;fill-rule:nonzero;stroke:none" />
    <path
       d="M 16,21.5 A 0.5,1.5 0 1 1 15.99997,21.483677 L 15.5,21.5 z"
       transform="matrix(3,0,0,1,-28,1022.3622)"
       id="path3085-2"
       style="fill:#7f8c8d;fill-opacity:1;fill-rule:nonzero;stroke:none" />
    <path
       d="M 3,1031.3622 3,1034.3622 3,1038.3622 3,1044.3622 C 3,1045.4668 3.895431,1046.3622 5,1046.3622 L 19,1046.3622 C 20.10457,1046.3622 21,1045.4668 21,1044.3622 L 21,1038.3622 21,1034.3622 21,1031.3622 3,1031.3622 z"
       inkscape:connector-curvature="0"
       id="path2987-88-2-3"
       style="fill:#7f8c8d;fill-opacity:1;fill-rule:nonzero;stroke:none" />
    <path
       d="M 3,1031.3622 3,1033.3622 3,1037.3622 3,1043.3622 C 3,1044.4668 3.89543,1045.3622 5,1045.3622 L 19,1045.3622 C 20.104569,1045.3622 21,1044.4668 21,1043.3622 L 21,1037.3622 21,1033.3622 21,1031.3622 3,1031.3622 z"
       inkscape:connector-curvature="0"
       id="path2987-88-5"
       style="fill:#95a5a6;fill-opacity:1;fill-rule:nonzero;stroke:none" />
    <path
       d="M 3,1031.3622 3,1034.3622 3,1040.3622 C 3,1041.4668 3.89543,1042.3622 5,1042.3622 L 19,1042.3622 C 20.104569,1042.3622 21,1041.4668 21,1040.3622 L 21,1034.3622 21,1031.3622 3,1031.3622 z"
       inkscape:connector-curvature="0"
       id="path2987-1"
       style="fill:#bdc3c7;fill-opacity:1;fill-rule:nonzero;stroke:none" />
    <path
       d="M 16,21.5 A 0.5,1.5 0 1 1 15.99997,21.483677 L 15.5,21.5 z"
       transform="matrix(3,0,0,1,-28,1017.3622)"
       id="path3085-5"
       style="fill:#7f8c8d;fill-opacity:1;fill-rule:nonzero;stroke:none" />
    <path
       d="M 3,4 3,5 3,11 C 3,12.1046 3.895431,13 5,13 L 19,13 C 20.10457,13 21,12.1046 21,11 L 21,5 21,4 3,4 z"
       inkscape:connector-curvature="0"
       transform="translate(0,1028.3622)"
       id="path2987-88-2-9"
       style="fill:#7f8c8d;fill-opacity:1;fill-rule:nonzero;stroke:none" />
    <path
       d="M 3,4 3,10 C 3,11.1046 3.89543,12 5,12 L 19,12 C 20.104569,12 21,11.1046 21,10 L 21,4 3,4 z"
       inkscape:connector-curvature="0"
       transform="translate(0,1028.3622)"
       id="path2987-88-27"
       style="fill:#95a5a6;fill-opacity:1;fill-rule:nonzero;stroke:none" />
    <path
       d="M 3,4 3,7 C 3,8.1046 3.89543,9 5,9 L 19,9 C 20.104569,9 21,8.1046 21,7 L 21,4 3,4 z"
       inkscape:connector-curvature="0"
       transform="translate(0,1028.3622)"
       id="path2987-05"
       style="fill:#bdc3c7;fill-opacity:1;fill-rule:nonzero;stroke:none" />
    <path
       d="M 21,1034.3622 21,1031.3622 C 21,1030.2576 20.10457,1029.3622 19,1029.3622 L 5,1029.3622 C 3.895431,1029.3622 3,1030.2576 3,1031.3622 L 3,1034.3622 21,1034.3622 z"
       inkscape:connector-curvature="0"
       id="path2987-05-9"
       style="fill:#bdc3c7;fill-opacity:1;fill-rule:nonzero;stroke:none" />
  </g>
</svg>
