<?xml version="1.0" encoding="UTF-8" standalone="no"?>
<!-- Created with Inkscape (http://www.inkscape.org/) -->

<svg
   xmlns:dc="http://purl.org/dc/elements/1.1/"
   xmlns:cc="http://creativecommons.org/ns#"
   xmlns:rdf="http://www.w3.org/1999/02/22-rdf-syntax-ns#"
   xmlns:svg="http://www.w3.org/2000/svg"
   xmlns="http://www.w3.org/2000/svg"
   xmlns:sodipodi="http://sodipodi.sourceforge.net/DTD/sodipodi-0.dtd"
   xmlns:inkscape="http://www.inkscape.org/namespaces/inkscape"
   version="1.1"
   width="24"
   height="24"
   id="svg2"
   inkscape:version="0.48.3.1 r9886"
   sodipodi:docname="drive.svg">
  <sodipodi:namedview
     pagecolor="#ffffff"
     bordercolor="#666666"
     borderopacity="1"
     objecttolerance="10"
     gridtolerance="10"
     guidetolerance="10"
     inkscape:pageopacity="0"
     inkscape:pageshadow="2"
     inkscape:window-width="1920"
     inkscape:window-height="1150"
     id="namedview3518"
     showgrid="true"
     inkscape:zoom="32"
     inkscape:cx="26.100495"
     inkscape:cy="8.6281264"
     inkscape:window-x="0"
     inkscape:window-y="0"
     inkscape:window-maximized="1"
     inkscape:current-layer="layer1"
     inkscape:snap-bbox="true">
    <inkscape:grid
       type="xygrid"
       id="grid2990"
       empspacing="4"
       visible="true"
       enabled="true"
       snapvisiblegridlinesonly="true" />
  </sodipodi:namedview>
  <defs
     id="defs4" />
  <metadata
     id="metadata7">
    <rdf:RDF>
      <cc:Work
         rdf:about="">
        <dc:format>image/svg+xml</dc:format>
        <dc:type
           rdf:resource="http://purl.org/dc/dcmitype/StillImage" />
        <dc:title />
      </cc:Work>
    </rdf:RDF>
  </metadata>
  <g
     transform="translate(0,-1028.3622)"
     id="layer1">
    <path
       d="M 21,1035.3622 21,1039.3622 21,1043.3622 21,1049.3622 C 21,1050.4668 20.10457,1051.3622 19,1051.3622 L 5,1051.3622 C 3.895431,1051.3622 3,1050.4668 3,1049.3622 L 3,1043.3622 3,1039.3622 3,1035.3622 21,1035.3622 z"
       inkscape:connector-curvature="0"
       id="path2987-88-2"
       style="fill:#7f8c8d;fill-opacity:1;fill-rule:nonzero;stroke:none" />
    <path
       d="M 3,1034.3622 3,1038.3622 3,1042.3622 3,1048.3622 C 3,1049.4668 3.89543,1050.3622 5,1050.3622 L 19,1050.3622 C 20.104569,1050.3622 21,1049.4668 21,1048.3622 L 21,1042.3622 21,1038.3622 21,1034.3622 3,1034.3622 z"
       inkscape:connector-curvature="0"
       id="path2987-88"
       style="fill:#95a5a6;fill-opacity:1;fill-rule:nonzero;stroke:none" />
    <rect
       style="fill:#7f8c8d;fill-opacity:1;fill-rule:nonzero;stroke:none"
       id="rect3239-3"
       width="5"
       height="3.9998071"
       x="15"
       y="1046.3622" />
    <path
       style="fill:#bdc3c7;fill-opacity:1;fill-rule:nonzero;stroke:none"
       d="M 5 1 C 3.89543 1 3 1.8954 3 3 L 3 6 L 3 7 L 3 9 L 3 11 L 3 13 L 3 14 L 3 17 C 3 18.1046 3.89543 19 5 19 L 19 19 C 20.104569 19 21 18.1046 21 17 L 21 14 L 21 11 L 21 7 L 21 6 L 21 3 C 21 1.8954 20.104569 1 19 1 L 5 1 z "
       transform="translate(0,1028.3622)"
       id="path2987" />
    <rect
       style="fill:#f1c40f;fill-opacity:1;fill-rule:nonzero;stroke:none"
       id="rect3239"
       width="3"
       height="1"
       x="16"
       y="20"
       transform="translate(0,1028.3622)" />
  </g>
</svg>
