<?xml version="1.0" encoding="UTF-8" standalone="no"?>
<!-- Created with Inkscape (http://www.inkscape.org/) -->

<svg
   xmlns:dc="http://purl.org/dc/elements/1.1/"
   xmlns:cc="http://creativecommons.org/ns#"
   xmlns:rdf="http://www.w3.org/1999/02/22-rdf-syntax-ns#"
   xmlns:svg="http://www.w3.org/2000/svg"
   xmlns="http://www.w3.org/2000/svg"
   xmlns:sodipodi="http://sodipodi.sourceforge.net/DTD/sodipodi-0.dtd"
   xmlns:inkscape="http://www.inkscape.org/namespaces/inkscape"
   width="24"
   height="24"
   id="svg2"
   version="1.1"
   inkscape:version="0.48.3.1 r9886"
   sodipodi:docname="device-tablet.svg">
  <defs
     id="defs4">
    <inkscape:path-effect
       effect="spiro"
       id="path-effect3261"
       is_visible="true" />
    <inkscape:path-effect
       effect="spiro"
       id="path-effect3261-8"
       is_visible="true" />
  </defs>
  <sodipodi:namedview
     id="base"
     pagecolor="#ffffff"
     bordercolor="#666666"
     borderopacity="1.0"
     inkscape:pageopacity="0.0"
     inkscape:pageshadow="2"
     inkscape:zoom="45.254834"
     inkscape:cx="7.1903886"
     inkscape:cy="10.508862"
     inkscape:document-units="px"
     inkscape:current-layer="layer1"
     showgrid="true"
     inkscape:window-width="1920"
     inkscape:window-height="1150"
     inkscape:window-x="0"
     inkscape:window-y="0"
     inkscape:window-maximized="1"
     showguides="true"
     inkscape:guide-bbox="true"
     inkscape:snap-bbox="true"
     inkscape:snap-bbox-midpoints="false"
     inkscape:snap-global="true"
     inkscape:bbox-nodes="false"
     inkscape:snap-nodes="true">
    <inkscape:grid
       type="xygrid"
       id="grid2985"
       empspacing="4"
       visible="true"
       enabled="true"
       snapvisiblegridlinesonly="true" />
  </sodipodi:namedview>
  <metadata
     id="metadata7">
    <rdf:RDF>
      <cc:Work
         rdf:about="">
        <dc:format>image/svg+xml</dc:format>
        <dc:type
           rdf:resource="http://purl.org/dc/dcmitype/StillImage" />
        <dc:title />
      </cc:Work>
    </rdf:RDF>
  </metadata>
  <g
     inkscape:label="Layer 1"
     inkscape:groupmode="layer"
     id="layer1"
     transform="translate(0,-1028.3622)">
    <path
       inkscape:connector-curvature="0"
       style="fill:#95a5a6;fill-opacity:1;fill-rule:nonzero;stroke:none"
       d="M 2,1033.3622 C 1.4477,1033.3622 1,1033.8099 1,1034.3622 L 1,1035.3622 1,1036.3622 1,1037.3622 1,1038.3622 1,1039.3622 1,1043.3622 1,1044.3622 1,1045.3622 1,1046.3622 1,1047.3622 1,1048.3622 C 1,1048.9145 1.4477,1049.3622 2,1049.3622 L 3,1049.3622 4,1049.3622 11,1049.3622 12,1049.3622 13,1049.3622 20,1049.3622 21,1049.3622 22,1049.3622 C 22.5523,1049.3622 23,1048.9145 23,1048.3622 L 23,1047.3622 23,1046.3622 23,1045.3622 23,1044.3622 23,1039.3622 23,1038.3622 23,1037.3622 23,1036.3622 23,1035.3622 23,1034.3622 C 23,1033.8099 22.5523,1033.3622 22,1033.3622 L 21,1033.3622 20,1033.3622 13,1033.3622 12,1033.3622 11,1033.3622 4,1033.3622 3,1033.3622 2,1033.3622 z"
       id="path3312-5-3" />
    <path
       style="fill:#bdc3c7;fill-opacity:1;fill-rule:nonzero;stroke:none"
       d="M 2,1032.3622 C 1.4477,1032.3622 1,1032.8099 1,1033.3622 L 1,1034.3622 1,1035.3622 1,1036.3622 1,1037.3622 1,1038.3622 1,1042.3622 1,1043.3622 1,1044.3622 1,1045.3622 1,1046.3622 1,1047.3622 C 1,1047.9145 1.4477,1048.3622 2,1048.3622 L 3,1048.3622 4,1048.3622 11,1048.3622 12,1048.3622 13,1048.3622 20,1048.3622 21,1048.3622 22,1048.3622 C 22.5523,1048.3622 23,1047.9145 23,1047.3622 L 23,1046.3622 23,1045.3622 23,1044.3622 23,1043.3622 23,1038.3622 23,1037.3622 23,1036.3622 23,1035.3622 23,1034.3622 23,1033.3622 C 23,1032.8099 22.5523,1032.3622 22,1032.3622 L 21,1032.3622 20,1032.3622 13,1032.3622 12,1032.3622 11,1032.3622 4,1032.3622 3,1032.3622 2,1032.3622 z"
       id="path3312-5"
       inkscape:connector-curvature="0" />
    <rect
       style="fill:#2c3e50;fill-opacity:1;fill-rule:nonzero;stroke:none"
       id="rect3470"
       width="18"
       height="12.000017"
       x="3"
       y="1034.3622" />
    <path
       style="fill:#34495e;fill-opacity:1;fill-rule:nonzero;stroke:none"
       d="M 3,1034.3622 3,1044.3622 21,1037.456 21,1034.3622 3,1034.3622 z"
       id="rect3470-4"
       inkscape:connector-curvature="0" />
    <path
       sodipodi:type="arc"
       style="fill:#95a5a6;fill-opacity:1;fill-rule:nonzero;stroke:none"
       id="path3100"
       sodipodi:cx="13.015184"
       sodipodi:cy="18.961864"
       sodipodi:rx="1.0385631"
       sodipodi:ry="0.9722718"
       d="M 14.053748,18.961864 A 1.0385631,0.9722718 0 1 1 11.976621,18.961864 1.0385631,0.9722718 0 1 1 14.053748,18.961864 z"
       transform="matrix(0.96286877,0,0,1.028532,9.4680854,1020.8593)" />
    <path
       sodipodi:type="arc"
       style="fill:#7f8c8d;fill-opacity:1;fill-rule:nonzero;stroke:none"
       id="path3102"
       sodipodi:cx="10.5"
       sodipodi:cy="4.5"
       sodipodi:rx="0.5"
       sodipodi:ry="0.5"
       d="M 11,4.5 A 0.5,0.5 0 1 1 10,4.5 0.5,0.5 0 1 1 11,4.5 z"
       transform="translate(-8.5,1035.8622)" />
    <path
       style="fill:#7f8c8d;fill-opacity:1;fill-rule:nonzero;stroke:none"
       d="M 22,1039.3622 C 21.447715,1039.3622 21,1039.8099 21,1040.3622 L 23,1040.3622 C 23,1039.8099 22.552285,1039.3622 22,1039.3622 z"
       id="path3100-9"
       inkscape:connector-curvature="0" />
    <path
       sodipodi:type="arc"
       style="fill:#bdc3c7;fill-opacity:1;fill-rule:nonzero;stroke:none"
       id="path3102-3"
       sodipodi:cx="10.5"
       sodipodi:cy="4.5"
       sodipodi:rx="0.5"
       sodipodi:ry="0.5"
       d="M 11,4.5 A 0.5,0.5 0 1 1 10,4.5 0.5,0.5 0 1 1 11,4.5 z"
       transform="translate(11.5,1035.8622)" />
  </g>
</svg>
