<?xml version="1.0" encoding="UTF-8" standalone="no"?>
<!-- Created with Inkscape (http://www.inkscape.org/) -->

<svg
   xmlns:dc="http://purl.org/dc/elements/1.1/"
   xmlns:cc="http://creativecommons.org/ns#"
   xmlns:rdf="http://www.w3.org/1999/02/22-rdf-syntax-ns#"
   xmlns:svg="http://www.w3.org/2000/svg"
   xmlns="http://www.w3.org/2000/svg"
   xmlns:sodipodi="http://sodipodi.sourceforge.net/DTD/sodipodi-0.dtd"
   xmlns:inkscape="http://www.inkscape.org/namespaces/inkscape"
   version="1.1"
   width="24"
   height="24"
   id="svg2"
   inkscape:version="0.48.3.1 r9886"
   sodipodi:docname="device-tv.svg">
  <sodipodi:namedview
     pagecolor="#ffffff"
     bordercolor="#666666"
     borderopacity="1"
     objecttolerance="10"
     gridtolerance="10"
     guidetolerance="10"
     inkscape:pageopacity="0"
     inkscape:pageshadow="2"
     inkscape:window-width="1920"
     inkscape:window-height="1150"
     id="namedview4792"
     showgrid="true"
     inkscape:zoom="27.812869"
     inkscape:cx="10.399526"
     inkscape:cy="13.208484"
     inkscape:window-x="0"
     inkscape:window-y="0"
     inkscape:window-maximized="1"
     inkscape:current-layer="layer1"
     inkscape:snap-global="true"
     inkscape:snap-bbox="true">
    <inkscape:grid
       type="xygrid"
       id="grid4131"
       empspacing="4"
       visible="true"
       enabled="true"
       snapvisiblegridlinesonly="true" />
  </sodipodi:namedview>
  <defs
     id="defs4" />
  <metadata
     id="metadata7">
    <rdf:RDF>
      <cc:Work
         rdf:about="">
        <dc:format>image/svg+xml</dc:format>
        <dc:type
           rdf:resource="http://purl.org/dc/dcmitype/StillImage" />
        <dc:title />
      </cc:Work>
    </rdf:RDF>
  </metadata>
  <g
     transform="translate(0,-1028.3622)"
     id="layer1">
    <path
       style="fill:#16a085;fill-opacity:1;fill-rule:nonzero;stroke:none"
       d="M 2,1031.3622 C 0.895431,1031.3622 0,1032.2576 0,1033.3622 L 0,1034.3622 0,1035.3622 0,1036.3622 0,1037.3622 0,1038.3622 0,1039.3622 0,1040.3622 0,1041.3622 0,1042.3622 0,1043.3622 0,1044.3622 0,1045.3622 0,1046.3622 0,1047.3622 0,1048.3622 C 0,1049.4668 0.895431,1050.3622 2,1050.3622 L 4,1050.3622 11,1050.3622 13,1050.3622 20,1050.3622 22,1050.3622 C 23.10457,1050.3622 24,1049.4668 24,1048.3622 L 24,1047.3622 24,1045.3622 24,1044.3622 24,1043.3622 24,1041.3622 24,1040.3622 24,1039.3622 24,1038.3622 24,1037.3622 24,1036.3622 24,1035.3622 24,1034.3622 24,1033.3622 C 24,1032.2576 23.10457,1031.3622 22,1031.3622 L 20,1031.3622 13,1031.3622 11,1031.3622 4,1031.3622 2,1031.3622 z"
       id="path2987-6-6-5-1"
       inkscape:connector-curvature="0" />
    <path
       style="fill:#1abc9c;fill-opacity:1;fill-rule:nonzero;stroke:none"
       d="M 12.138846,1031.3622 C 8.9053091,1031.368 5.6159006,1031.45 2.4803464,1032.237 1.1225595,1032.494 0.7085635,1033.8446 0.50704852,1034.935 -0.10370979,1037.7479 -0.07468655,1040.6456 0.13791726,1043.4937 0.46272994,1045.0361 0.33834013,1046.8293 1.565347,1048.065 2.6873216,1048.8742 4.2082698,1048.8874 5.5601257,1049.1088 8.9949236,1049.4661 12.461393,1049.3502 15.910386,1049.3207 18.043071,1049.2131 20.252447,1049.0417 22.220302,1048.2351 23.54737,1047.3757 23.55304,1045.7145 23.812624,1044.391 24.08701,1041.9626 24.00616,1039.5111 23.907471,1037.0758 23.762115,1035.8117 23.580845,1034.5175 23.06117,1033.3347 22.558659,1032.3219 21.304723,1032.1321 20.245955,1031.9243 17.585189,1031.4022 14.848687,1031.3649 12.138846,1031.3622 z"
       id="rect2999-09"
       inkscape:connector-curvature="0" />
    <path
       style="fill:#2c3e50;fill-opacity:1;fill-rule:nonzero;stroke:none"
       d="M 10.536293,1033.3672 C 8.2315798,1033.3717 5.8870441,1033.4355 3.6521685,1034.0478 2.6844018,1034.2478 2.3893249,1035.2985 2.2456945,1036.1468 1.8103747,1038.3353 1.8310611,1040.5897 1.9825951,1042.8056 2.2141063,1044.0056 2.1254471,1045.4007 3,1046.3622 3.7996907,1046.9917 4.883751,1047.002 5.8472903,1047.1742 8.2954528,1047.4522 10.766189,1047.3621 13.224469,1047.3391 14.744547,1047.2553 16.319286,1047.122 17.721881,1046.4944 18.667752,1045.8258 18.671794,1044.5334 18.856813,1043.5037 19.052382,1041.6144 18.994756,1039.7071 18.924416,1037.8125 18.820812,1036.829 18.691612,1035.8221 18.321212,1034.9018 17.963045,1034.1139 17.069299,1033.9662 16.314659,1033.8045 14.41819,1033.3983 12.46774,1033.3694 10.536293,1033.3672 z"
       id="rect2999"
       inkscape:connector-curvature="0" />
    <path
       style="fill:#34495e;fill-opacity:1;fill-rule:nonzero;stroke:none"
       d="M 10.619935,1033.751 C 8.579381,1033.7528 6.5035687,1033.778 4.5248475,1034.0203 3.668004,1034.0995 3.4067478,1034.5153 3.2795803,1034.851 2.8941553,1035.7171 2.9124704,1036.6092 3.046636,1037.4862 3.2516119,1037.9611 3.1731147,1038.5131 3.9474291,1038.8937 4.6554619,1039.1428 5.6152702,1039.1468 6.4683712,1039.2149 8.635933,1039.325 10.823481,1039.2893 13,1039.2803 14.345851,1039.2471 15.740099,1039.1943 16.981932,1038.946 17.81939,1038.6814 17.822969,1038.1699 17.986782,1037.7624 18.159935,1037.0148 18.108914,1036.26 18.046636,1035.5102 17.954907,1035.1209 17.840516,1034.7225 17.512569,1034.3583 17.195454,1034.0465 16.404147,1033.988 15.736001,1033.9241 14.0569,1033.7633 12.330005,1033.7519 10.619935,1033.751 z"
       id="rect2999-0"
       inkscape:connector-curvature="0" />
    <path
       sodipodi:type="arc"
       style="fill:#16a085;fill-opacity:1;fill-rule:nonzero;stroke:none"
       id="path3305"
       sodipodi:cx="21.5"
       sodipodi:cy="14.5"
       sodipodi:rx="1.5"
       sodipodi:ry="1.5"
       d="M 23,14.5 C 23,15.328427 22.328427,16 21.5,16 20.671573,16 20,15.328427 20,14.5 20,13.671573 20.671573,13 21.5,13 22.328427,13 23,13.671573 23,14.5 z"
       transform="translate(0,1027.3622)" />
    <path
       sodipodi:type="arc"
       style="fill:#bdc3c7;fill-opacity:1;fill-rule:nonzero;stroke:none"
       id="path3535"
       sodipodi:cx="21.5"
       sodipodi:cy="13.5"
       sodipodi:rx="0.5"
       sodipodi:ry="0.5"
       d="M 22,13.5 C 22,13.776142 21.776142,14 21.5,14 21.223858,14 21,13.776142 21,13.5 21,13.223858 21.223858,13 21.5,13 21.776142,13 22,13.223858 22,13.5 z"
       transform="translate(0,1028.3622)" />
    <path
       sodipodi:type="arc"
       style="fill:#16a085;fill-opacity:1;fill-rule:nonzero;stroke:none"
       id="path3305-1"
       sodipodi:cx="21.5"
       sodipodi:cy="14.5"
       sodipodi:rx="1.5"
       sodipodi:ry="1.5"
       d="M 23,14.5 C 23,15.328427 22.328427,16 21.5,16 20.671573,16 20,15.328427 20,14.5 20,13.671573 20.671573,13 21.5,13 22.328427,13 23,13.671573 23,14.5 z"
       transform="translate(0,1031.3622)" />
    <path
       transform="translate(0,1032.3622)"
       sodipodi:type="arc"
       style="fill:#bdc3c7;fill-opacity:1;fill-rule:nonzero;stroke:none"
       id="path3535-7"
       sodipodi:cx="21.5"
       sodipodi:cy="13.5"
       sodipodi:rx="0.5"
       sodipodi:ry="0.5"
       d="M 22,13.5 C 22,13.776142 21.776142,14 21.5,14 21.223858,14 21,13.776142 21,13.5 21,13.223858 21.223858,13 21.5,13 21.776142,13 22,13.223858 22,13.5 z" />
    <path
       style="fill:#16a085;fill-opacity:1;fill-rule:nonzero;stroke:none"
       d="M 20,1034.3622 20,1035.3622 23,1035.3622 23,1034.3622 20,1034.3622 z M 20,1036.3622 20,1037.3622 23,1037.3622 23,1036.3622 20,1036.3622 z M 20,1038.3622 20,1039.3622 23,1039.3622 23,1038.3622 20,1038.3622 z"
       id="rect3640"
       inkscape:connector-curvature="0" />
    <path
       d="M 8,1043.3622 8,1037.3622 13,1040.3622 z"
       id="path3674"
       style="fill:#ecf0f1;fill-opacity:1;fill-rule:nonzero;stroke:none"
       inkscape:connector-curvature="0"
       sodipodi:nodetypes="cccc" />
    <path
       style="fill:#bdc3c7;fill-opacity:1;fill-rule:nonzero;stroke:none"
       d="M 8,1039.3622 8,1043.3622 13,1040.3622 11.34375,1039.3622 8,1039.3622 z"
       id="path3674-4"
       inkscape:connector-curvature="0" />
  </g>
</svg>
