<?xml version="1.0" encoding="UTF-8" standalone="no"?>
<!-- Created with Inkscape (http://www.inkscape.org/) -->

<svg
   xmlns:dc="http://purl.org/dc/elements/1.1/"
   xmlns:cc="http://creativecommons.org/ns#"
   xmlns:rdf="http://www.w3.org/1999/02/22-rdf-syntax-ns#"
   xmlns:svg="http://www.w3.org/2000/svg"
   xmlns="http://www.w3.org/2000/svg"
   xmlns:sodipodi="http://sodipodi.sourceforge.net/DTD/sodipodi-0.dtd"
   xmlns:inkscape="http://www.inkscape.org/namespaces/inkscape"
   version="1.1"
   width="24"
   height="24"
   id="svg2"
   inkscape:version="0.48.3.1 r9886"
   sodipodi:docname="disc-vinyl.svg">
  <sodipodi:namedview
     pagecolor="#ffffff"
     bordercolor="#666666"
     borderopacity="1"
     objecttolerance="10"
     gridtolerance="10"
     guidetolerance="10"
     inkscape:pageopacity="0"
     inkscape:pageshadow="2"
     inkscape:window-width="1920"
     inkscape:window-height="1150"
     id="namedview3493"
     showgrid="false"
     inkscape:zoom="9.8333333"
     inkscape:cx="12"
     inkscape:cy="12"
     inkscape:window-x="0"
     inkscape:window-y="0"
     inkscape:window-maximized="1"
     inkscape:current-layer="layer1" />
  <defs
     id="defs4" />
  <metadata
     id="metadata7">
    <rdf:RDF>
      <cc:Work
         rdf:about="">
        <dc:format>image/svg+xml</dc:format>
        <dc:type
           rdf:resource="http://purl.org/dc/dcmitype/StillImage" />
        <dc:title />
      </cc:Work>
    </rdf:RDF>
  </metadata>
  <g
     transform="translate(0,-1028.3622)"
     id="layer1">
    <path
       d="M 12,1037.3622 C 9.790861,1037.3622 8,1039.1531 8,1041.3622 8,1043.5713 9.790861,1045.3622 12,1045.3622 14.209139,1045.3622 16,1043.5713 16,1041.3622 16,1039.1531 14.209139,1037.3622 12,1037.3622 z M 12,1040.3622 C 12.552285,1040.3622 13,1040.8099 13,1041.3622 13,1041.9145 12.552285,1042.3622 12,1042.3622 11.447715,1042.3622 11,1041.9145 11,1041.3622 11,1040.8099 11.447715,1040.3622 12,1040.3622 z"
       inkscape:connector-curvature="0"
       id="path3212-5"
       style="fill:#e67e22;fill-opacity:1;fill-rule:nonzero;stroke:none" />
    <path
       d="M 5.0502522,1034.1698 C 1.1450093,1038.0751 1.1450093,1044.4067 5.0502522,1048.312 8.9554948,1052.2172 15.287145,1052.2172 19.192388,1048.312 23.09763,1044.4067 23.09763,1038.0751 19.192388,1034.1698 15.287145,1030.2646 8.9554948,1030.2646 5.0502522,1034.1698 z M 10,1039.1196 C 11.171572,1037.948 13.071068,1037.948 14.24264,1039.1196 15.414213,1040.2912 15.414213,1042.1906 14.24264,1043.3622 13.071068,1044.5338 11.171572,1044.5338 10,1043.3622 8.828427,1042.1906 8.828427,1040.2912 10,1039.1196 z"
       inkscape:connector-curvature="0"
       id="path2989-2"
       style="fill:#bdc3c7;fill-opacity:1;fill-rule:nonzero;stroke:none" />
    <path
       d="M 4.9289322,1033.2911 C 1.0236893,1037.1964 1.0236893,1043.528 4.9289322,1047.4333 8.8341748,1051.3385 15.165825,1051.3385 19.071068,1047.4333 22.97631,1043.528 22.97631,1037.1964 19.071068,1033.2911 15.165825,1029.3859 8.8341748,1029.3859 4.9289322,1033.2911 z M 9.8786797,1038.2409 C 11.050252,1037.0693 12.949748,1037.0693 14.12132,1038.2409 15.292893,1039.4125 15.292893,1041.3119 14.12132,1042.4835 12.949748,1043.6551 11.050252,1043.6551 9.8786797,1042.4835 8.707107,1041.3119 8.707107,1039.4125 9.8786797,1038.2409 z"
       inkscape:connector-curvature="0"
       id="path2989"
       style="fill:#34495e;fill-opacity:1;fill-rule:nonzero;stroke:none" />
    <path
       d="M 3.3392403,1035.3627 C 2.9387103,1036.0565 2.6457593,1036.7704 2.4266053,1037.506 L 9.4014323,1038.8627 4.7391233,1033.5007 C 4.2116463,1034.0582 3.7397983,1034.669 3.3392403,1035.3627 z"
       inkscape:connector-curvature="0"
       id="path2989-7-79"
       style="fill:#ecf0f1;fill-opacity:1;fill-rule:nonzero;stroke:none" />
    <path
       d="M 20.659766,1045.3627 C 21.060296,1044.6689 21.353247,1043.955 21.572401,1043.2194 L 14.597574,1041.8627 19.259883,1047.2247 C 19.78736,1046.6672 20.259208,1046.0564 20.659766,1045.3627 z"
       inkscape:connector-curvature="0"
       id="path2989-7-7-1"
       style="fill:#ecf0f1;fill-opacity:1;fill-rule:nonzero;stroke:none" />
    <path
       d="M 12,1036.3622 C 9.790861,1036.3622 8,1038.1531 8,1040.3622 8,1042.5713 9.790861,1044.3622 12,1044.3622 14.209139,1044.3622 16,1042.5713 16,1040.3622 16,1038.1531 14.209139,1036.3622 12,1036.3622 z M 12,1039.3622 C 12.552285,1039.3622 13,1039.8099 13,1040.3622 13,1040.9145 12.552285,1041.3622 12,1041.3622 11.447715,1041.3622 11,1040.9145 11,1040.3622 11,1039.8099 11.447715,1039.3622 12,1039.3622 z"
       inkscape:connector-curvature="0"
       id="path3212"
       style="fill:#f1c40f;fill-opacity:1;fill-rule:nonzero;stroke:none" />
  </g>
</svg>
