<?xml version="1.0" encoding="UTF-8" standalone="no"?>
<!-- Created with Inkscape (http://www.inkscape.org/) -->

<svg
   xmlns:dc="http://purl.org/dc/elements/1.1/"
   xmlns:cc="http://creativecommons.org/ns#"
   xmlns:rdf="http://www.w3.org/1999/02/22-rdf-syntax-ns#"
   xmlns:svg="http://www.w3.org/2000/svg"
   xmlns="http://www.w3.org/2000/svg"
   xmlns:sodipodi="http://sodipodi.sourceforge.net/DTD/sodipodi-0.dtd"
   xmlns:inkscape="http://www.inkscape.org/namespaces/inkscape"
   width="24"
   height="24"
   id="svg2"
   version="1.1"
   inkscape:version="0.48.3.1 r9886"
   sodipodi:docname="disc-vinyl.svg">
  <defs
     id="defs4">
    <inkscape:path-effect
       effect="spiro"
       id="path-effect3261"
       is_visible="true" />
    <inkscape:path-effect
       effect="spiro"
       id="path-effect3261-8"
       is_visible="true" />
  </defs>
  <sodipodi:namedview
     id="base"
     pagecolor="#ffffff"
     bordercolor="#666666"
     borderopacity="1.0"
     inkscape:pageopacity="0.0"
     inkscape:pageshadow="2"
     inkscape:zoom="11.313709"
     inkscape:cx="29.358167"
     inkscape:cy="8.9168923"
     inkscape:document-units="px"
     inkscape:current-layer="layer1"
     showgrid="true"
     inkscape:window-width="1920"
     inkscape:window-height="1150"
     inkscape:window-x="0"
     inkscape:window-y="0"
     inkscape:window-maximized="1"
     showguides="true"
     inkscape:guide-bbox="true"
     inkscape:snap-bbox="true"
     inkscape:snap-bbox-midpoints="false"
     inkscape:snap-global="true"
     inkscape:bbox-nodes="false"
     inkscape:snap-nodes="false">
    <inkscape:grid
       type="xygrid"
       id="grid2985"
       empspacing="4"
       visible="true"
       enabled="true"
       snapvisiblegridlinesonly="true" />
  </sodipodi:namedview>
  <metadata
     id="metadata7">
    <rdf:RDF>
      <cc:Work
         rdf:about="">
        <dc:format>image/svg+xml</dc:format>
        <dc:type
           rdf:resource="http://purl.org/dc/dcmitype/StillImage" />
        <dc:title />
      </cc:Work>
    </rdf:RDF>
  </metadata>
  <g
     inkscape:label="Layer 1"
     inkscape:groupmode="layer"
     id="layer1"
     transform="translate(0,-1028.3622)">
    <path
       style="fill:#2c3e50;fill-opacity:1;fill-rule:nonzero;stroke:none"
       d="M 12,1029.3622 C 5.924868,1029.3622 1,1034.2871 1,1040.3622 1,1046.4373 5.924868,1051.3622 12,1051.3622 18.075132,1051.3622 23,1046.4373 23,1040.3622 23,1034.2871 18.075132,1029.3622 12,1029.3622 z M 12,1033.3622 C 15.865994,1033.3622 19,1036.4962 19,1040.3622 19,1044.2282 15.865994,1047.3622 12,1047.3622 8.134006,1047.3622 5,1044.2282 5,1040.3622 5,1036.4962 8.134006,1033.3622 12,1033.3622 z"
       id="path3110"
       inkscape:connector-curvature="0" />
    <path
       style="fill:#2c3e50;fill-opacity:1;fill-rule:nonzero;stroke:none"
       d="M 17,1031.7019 C 12.217075,1028.9405 6.1011629,1030.5793 3.3397485,1035.3622 0.57833415,1040.1451 2.2170766,1046.261 7.0000006,1049.0225 11.782925,1051.7839 17.898838,1050.1451 20.660251,1045.3622 23.421666,1040.5793 21.782923,1034.4634 17,1031.7019 z M 13,1038.6301 C 13.956585,1039.1824 14.284333,1040.4056 13.732061,1041.3622 13.179762,1042.3188 11.956586,1042.6465 11,1042.0943 10.043415,1041.542 9.7156669,1040.3188 10.267939,1039.3622 10.820238,1038.4056 12.043414,1038.0779 13,1038.6301 z"
       id="path3060"
       inkscape:connector-curvature="0" />
    <path
       style="fill:#34495e;fill-opacity:1;fill-rule:nonzero;stroke:none"
       d="M 6.0098103,1032.296 C 3.7609863,1033.9761 2.3881819,1036.4636 2.0723103,1039.1159 L 10.037348,1040.0701 C 10.1017,1039.5389 10.36676,1039.0521 10.818598,1038.7169 L 6.0098103,1032.296 z M 21.923027,1041.4835 13.985003,1040.545 C 13.919867,1041.0747 13.627522,1041.5481 13.17669,1041.8826 L 17.985527,1048.3034 C 20.234352,1046.6234 21.607156,1044.1358 21.923027,1041.4835 z"
       id="path3060-0"
       inkscape:connector-curvature="0" />
    <path
       d="M 12,1036.3622 C 9.790861,1036.3622 8,1038.1531 8,1040.3622 8,1042.5713 9.790861,1044.3622 12,1044.3622 14.209139,1044.3622 16,1042.5713 16,1040.3622 16,1038.1531 14.209139,1036.3622 12,1036.3622 z M 12,1039.3622 C 12.552285,1039.3622 13,1039.8099 13,1040.3622 13,1040.9145 12.552285,1041.3622 12,1041.3622 11.447715,1041.3622 11,1040.9145 11,1040.3622 11,1039.8099 11.447715,1039.3622 12,1039.3622 z"
       inkscape:connector-curvature="0"
       id="path3212"
       style="fill:#f1c40f;fill-opacity:1;fill-rule:nonzero;stroke:none" />
  </g>
</svg>
