<?xml version="1.0" encoding="UTF-8" standalone="no"?>
<!-- Created with Inkscape (http://www.inkscape.org/) -->

<svg
   xmlns:dc="http://purl.org/dc/elements/1.1/"
   xmlns:cc="http://creativecommons.org/ns#"
   xmlns:rdf="http://www.w3.org/1999/02/22-rdf-syntax-ns#"
   xmlns:svg="http://www.w3.org/2000/svg"
   xmlns="http://www.w3.org/2000/svg"
   xmlns:sodipodi="http://sodipodi.sourceforge.net/DTD/sodipodi-0.dtd"
   xmlns:inkscape="http://www.inkscape.org/namespaces/inkscape"
   width="24"
   height="24"
   id="svg2"
   version="1.1"
   inkscape:version="0.48.3.1 r9886"
   sodipodi:docname="disc-vinyl.svg">
  <defs
     id="defs4">
    <inkscape:path-effect
       effect="spiro"
       id="path-effect3261"
       is_visible="true" />
    <inkscape:path-effect
       effect="spiro"
       id="path-effect3261-8"
       is_visible="true" />
  </defs>
  <sodipodi:namedview
     id="base"
     pagecolor="#ffffff"
     bordercolor="#666666"
     borderopacity="1.0"
     inkscape:pageopacity="0.0"
     inkscape:pageshadow="2"
     inkscape:zoom="22.627417"
     inkscape:cx="20.85646"
     inkscape:cy="13.864642"
     inkscape:document-units="px"
     inkscape:current-layer="layer1"
     showgrid="true"
     inkscape:window-width="1920"
     inkscape:window-height="1150"
     inkscape:window-x="0"
     inkscape:window-y="0"
     inkscape:window-maximized="1"
     showguides="true"
     inkscape:guide-bbox="true"
     inkscape:snap-bbox="true"
     inkscape:snap-bbox-midpoints="false"
     inkscape:snap-global="true"
     inkscape:bbox-nodes="false"
     inkscape:snap-nodes="false">
    <inkscape:grid
       type="xygrid"
       id="grid2985"
       empspacing="4"
       visible="true"
       enabled="true"
       snapvisiblegridlinesonly="true" />
  </sodipodi:namedview>
  <metadata
     id="metadata7">
    <rdf:RDF>
      <cc:Work
         rdf:about="">
        <dc:format>image/svg+xml</dc:format>
        <dc:type
           rdf:resource="http://purl.org/dc/dcmitype/StillImage" />
        <dc:title></dc:title>
      </cc:Work>
    </rdf:RDF>
  </metadata>
  <g
     inkscape:label="Layer 1"
     inkscape:groupmode="layer"
     id="layer1"
     transform="translate(0,-1028.3622)">
    <path
       style="fill:#2c3e50;fill-opacity:1;fill-rule:nonzero;stroke:none"
       d="M 12,1029.3622 C 5.924868,1029.3622 1,1034.2871 1,1040.3622 1,1046.4373 5.924868,1051.3622 12,1051.3622 18.075132,1051.3622 23,1046.4373 23,1040.3622 23,1034.2871 18.075132,1029.3622 12,1029.3622 z M 12,1033.3622 C 15.865994,1033.3622 19,1036.4962 19,1040.3622 19,1044.2282 15.865994,1047.3622 12,1047.3622 8.134006,1047.3622 5,1044.2282 5,1040.3622 5,1036.4962 8.134006,1033.3622 12,1033.3622 z"
       id="path3110"
       inkscape:connector-curvature="0" />
    <path
       style="fill:#2c3e50;fill-opacity:1;fill-rule:nonzero;stroke:none"
       d="M 17,1031.7019 C 12.217075,1028.9405 6.1011629,1030.5793 3.3397485,1035.3622 0.57833415,1040.1451 2.2170766,1046.261 7.0000006,1049.0225 11.782925,1051.7839 17.898838,1050.1451 20.660251,1045.3622 23.421666,1040.5793 21.782923,1034.4634 17,1031.7019 z M 13,1038.6301 C 13.956585,1039.1824 14.284333,1040.4056 13.732061,1041.3622 13.179762,1042.3188 11.956586,1042.6465 11,1042.0943 10.043415,1041.542 9.7156669,1040.3188 10.267939,1039.3622 10.820238,1038.4056 12.043414,1038.0779 13,1038.6301 z"
       id="path3060"
       inkscape:connector-curvature="0" />
    <path
       style="fill:#ecf0f1;fill-opacity:1;fill-rule:nonzero;stroke:none"
       d="M 16.499499,1019.7646 C 15.064621,1018.9362 13.22985,1019.4278 12.401423,1020.8627 11.572996,1022.2976 12.064622,1024.1323 13.499499,1024.9608 14.934377,1025.7892 16.769148,1025.2976 17.597575,1023.8627 18.426002,1022.4278 17.934377,1020.5931 16.499499,1019.7646 z M 15.999499,1020.6306 C 16.956084,1021.1829 17.28383,1022.4061 16.73155,1023.3627 16.17927,1024.3193 14.956084,1024.647 13.999499,1024.0948 13.042914,1023.5425 12.715168,1022.3193 13.267448,1021.3627 13.819728,1020.4061 15.042914,1020.0784 15.999499,1020.6306 z"
       id="path3015"
       inkscape:connector-curvature="0" />
    <path
       style="fill:#34495e;fill-opacity:1;fill-rule:nonzero;stroke:none"
       d="M 6.0098103,1032.296 C 3.7609863,1033.9761 2.3881819,1036.4636 2.0723103,1039.1159 L 10.037348,1040.0701 C 10.1017,1039.5389 10.36676,1039.0521 10.818598,1038.7169 L 6.0098103,1032.296 z M 21.923027,1041.4835 13.985003,1040.545 C 13.919867,1041.0747 13.627522,1041.5481 13.17669,1041.8826 L 17.985527,1048.3034 C 20.234352,1046.6234 21.607156,1044.1358 21.923027,1041.4835 z"
       id="path3060-0"
       inkscape:connector-curvature="0" />
    <path
       style="fill:#ecf0f1;fill-opacity:1;fill-rule:nonzero;stroke:none"
       d="M 47.9375,1014.3548 C 45.688676,1016.0349 44.315872,1018.5224 44,1021.1747 L 51.965038,1022.1289 C 52.02939,1021.5977 52.29445,1021.1109 52.746288,1020.7757 L 47.9375,1014.3548 z M 63.850717,1023.5423 55.912693,1022.6038 C 55.847557,1023.1335 55.555212,1023.6069 55.10438,1023.9414 L 59.913217,1030.3622 C 62.162042,1028.6822 63.534846,1026.1946 63.850717,1023.5423 z"
       id="path3060-0-8"
       inkscape:connector-curvature="0" />
    <path
       style="fill:#bdc3c7;fill-opacity:1;fill-rule:nonzero;stroke:none"
       d="M 30,1027.3622 C 27.790861,1027.3622 26,1029.153 26,1031.3622 26,1033.5714 27.790861,1035.3622 30,1035.3622 32.209139,1035.3622 34,1033.5714 34,1031.3622 34,1029.153 32.209139,1027.3622 30,1027.3622 z M 30,1028.3622 C 31.656854,1028.3622 33,1029.7053 33,1031.3622 33,1033.0191 31.656854,1034.3622 30,1034.3622 28.343146,1034.3622 27,1033.0191 27,1031.3622 27,1029.7053 28.343146,1028.3622 30,1028.3622 z"
       id="path3087"
       inkscape:connector-curvature="0" />
    <path
       style="fill:#bdc3c7;fill-opacity:1;fill-rule:nonzero;stroke:none"
       d="M 42.282572,1028.3636 C 38.736255,1028.2715 35.243544,1030.0753 33.345072,1033.3636 30.583657,1038.1465 32.218398,1044.2583 37.001322,1047.0198 41.784246,1049.7812 47.896159,1048.1465 50.657572,1043.3636 53.418987,1038.5807 51.784245,1032.4688 47.001322,1029.7073 45.506658,1028.8444 43.894534,1028.4054 42.282572,1028.3636 z M 42.001322,1029.3636 C 46.971885,1029.3636 51.001322,1033.393 51.001322,1038.3636 51.001322,1043.3341 46.971885,1047.3636 42.001322,1047.3636 37.030759,1047.3636 33.001322,1043.3341 33.001322,1038.3636 33.001322,1033.393 37.030759,1029.3636 42.001322,1029.3636 z"
       id="path3060-9-4"
       inkscape:connector-curvature="0" />
    <path
       d="M 12,1036.3622 C 9.790861,1036.3622 8,1038.1531 8,1040.3622 8,1042.5713 9.790861,1044.3622 12,1044.3622 14.209139,1044.3622 16,1042.5713 16,1040.3622 16,1038.1531 14.209139,1036.3622 12,1036.3622 z M 12,1039.3622 C 12.552285,1039.3622 13,1039.8099 13,1040.3622 13,1040.9145 12.552285,1041.3622 12,1041.3622 11.447715,1041.3622 11,1040.9145 11,1040.3622 11,1039.8099 11.447715,1039.3622 12,1039.3622 z"
       inkscape:connector-curvature="0"
       id="path3212"
       style="fill:#f1c40f;fill-opacity:1;fill-rule:nonzero;stroke:none" />
  </g>
</svg>
