<?xml version="1.0" encoding="UTF-8" standalone="no"?>
<!-- Created with Inkscape (http://www.inkscape.org/) -->

<svg
   xmlns:dc="http://purl.org/dc/elements/1.1/"
   xmlns:cc="http://creativecommons.org/ns#"
   xmlns:rdf="http://www.w3.org/1999/02/22-rdf-syntax-ns#"
   xmlns:svg="http://www.w3.org/2000/svg"
   xmlns="http://www.w3.org/2000/svg"
   xmlns:sodipodi="http://sodipodi.sourceforge.net/DTD/sodipodi-0.dtd"
   xmlns:inkscape="http://www.inkscape.org/namespaces/inkscape"
   version="1.1"
   width="24"
   height="24"
   id="svg2"
   inkscape:version="0.48.3.1 r9886"
   sodipodi:docname="drive.svg">
  <sodipodi:namedview
     pagecolor="#ffffff"
     bordercolor="#666666"
     borderopacity="1"
     objecttolerance="10"
     gridtolerance="10"
     guidetolerance="10"
     inkscape:pageopacity="0"
     inkscape:pageshadow="2"
     inkscape:window-width="1920"
     inkscape:window-height="1150"
     id="namedview3518"
     showgrid="false"
     inkscape:zoom="9.8333333"
     inkscape:cx="12"
     inkscape:cy="12"
     inkscape:window-x="0"
     inkscape:window-y="0"
     inkscape:window-maximized="1"
     inkscape:current-layer="layer1" />
  <defs
     id="defs4" />
  <metadata
     id="metadata7">
    <rdf:RDF>
      <cc:Work
         rdf:about="">
        <dc:format>image/svg+xml</dc:format>
        <dc:type
           rdf:resource="http://purl.org/dc/dcmitype/StillImage" />
        <dc:title />
      </cc:Work>
    </rdf:RDF>
  </metadata>
  <g
     transform="translate(0,-1028.3622)"
     id="layer1">
    <path
       d="M 21,1035.3622 21,1039.3622 21,1043.3622 21,1049.3622 C 21,1050.4668 20.10457,1051.3622 19,1051.3622 L 5,1051.3622 C 3.895431,1051.3622 3,1050.4668 3,1049.3622 L 3,1043.3622 3,1039.3622 3,1035.3622 21,1035.3622 z"
       inkscape:connector-curvature="0"
       id="path2987-88-2"
       style="fill:#7f8c8d;fill-opacity:1;fill-rule:nonzero;stroke:none" />
    <path
       d="M 3,1034.3622 3,1038.3622 3,1042.3622 3,1048.3622 C 3,1049.4668 3.89543,1050.3622 5,1050.3622 L 19,1050.3622 C 20.104569,1050.3622 21,1049.4668 21,1048.3622 L 21,1042.3622 21,1038.3622 21,1034.3622 3,1034.3622 z"
       inkscape:connector-curvature="0"
       id="path2987-88"
       style="fill:#95a5a6;fill-opacity:1;fill-rule:nonzero;stroke:none" />
    <path
       d="M 3,1034.3622 3,1035.3622 3,1039.3622 3,1045.3622 C 3,1046.4668 3.89543,1047.3622 5,1047.3622 L 19,1047.3622 C 20.104569,1047.3622 21,1046.4668 21,1045.3622 L 21,1039.3622 21,1035.3622 21,1034.3622 3,1034.3622 z"
       inkscape:connector-curvature="0"
       id="path2987"
       style="fill:#bdc3c7;fill-opacity:1;fill-rule:nonzero;stroke:none" />
    <path
       d="M 3,1042.3622 3,1041.3622 3,1037.3622 3,1031.3622 C 3,1030.2576 3.89543,1029.3622 5,1029.3622 L 19,1029.3622 C 20.104569,1029.3622 21,1030.2576 21,1031.3622 L 21,1037.3622 21,1041.3622 21,1042.3622 3,1042.3622 z"
       inkscape:connector-curvature="0"
       id="path2987-0"
       style="fill:#bdc3c7;fill-opacity:1;fill-rule:nonzero;stroke:none" />
    <path
       d="M 16,21.5 A 0.5,1.5 0 1 1 15.99997,21.483677 L 15.5,21.5 z"
       transform="matrix(3,0,0,1,-28,1027.3622)"
       id="path3085"
       style="fill:#7f8c8d;fill-opacity:1;fill-rule:nonzero;stroke:none" />
    <path
       d="M 16,21.5 A 0.5,1.5 0 1 1 15.99997,21.483677 L 15.5,21.5 z"
       transform="matrix(3,0,0,1,-31,1027.3622)"
       id="path3085-9"
       style="fill:#7f8c8d;fill-opacity:1;fill-rule:nonzero;stroke:none" />
    <path
       d="M 14,20.5 A 0.5,0.5 0 1 1 13.99997,20.494559 L 13.5,20.5 z"
       transform="translate(2,1028.3622)"
       id="path3105"
       style="fill:#f1c40f;fill-opacity:1;fill-rule:nonzero;stroke:none" />
    <path
       d="M 14,20.5 A 0.5,0.5 0 1 1 13.99997,20.494559 L 13.5,20.5 z"
       transform="translate(5,1028.3622)"
       id="path3105-2"
       style="fill:#2ecc71;fill-opacity:1;fill-rule:nonzero;stroke:none" />
  </g>
</svg>
