<?xml version="1.0" encoding="UTF-8" standalone="no"?>
<!-- Created with Inkscape (http://www.inkscape.org/) -->

<svg
   xmlns:dc="http://purl.org/dc/elements/1.1/"
   xmlns:cc="http://creativecommons.org/ns#"
   xmlns:rdf="http://www.w3.org/1999/02/22-rdf-syntax-ns#"
   xmlns:svg="http://www.w3.org/2000/svg"
   xmlns="http://www.w3.org/2000/svg"
   xmlns:sodipodi="http://sodipodi.sourceforge.net/DTD/sodipodi-0.dtd"
   xmlns:inkscape="http://www.inkscape.org/namespaces/inkscape"
   version="1.1"
   width="24"
   height="24"
   id="svg2"
   inkscape:version="0.48.3.1 r9886"
   sodipodi:docname="enveloppe-letter.svg">
  <sodipodi:namedview
     pagecolor="#ffffff"
     bordercolor="#666666"
     borderopacity="1"
     objecttolerance="10"
     gridtolerance="10"
     guidetolerance="10"
     inkscape:pageopacity="0"
     inkscape:pageshadow="2"
     inkscape:window-width="1920"
     inkscape:window-height="1150"
     id="namedview3546"
     showgrid="true"
     inkscape:zoom="21.971207"
     inkscape:cx="19.706093"
     inkscape:cy="3.9502468"
     inkscape:window-x="0"
     inkscape:window-y="0"
     inkscape:window-maximized="1"
     inkscape:current-layer="layer1">
    <inkscape:grid
       type="xygrid"
       id="grid2986"
       empspacing="4"
       visible="true"
       enabled="true"
       snapvisiblegridlinesonly="true" />
  </sodipodi:namedview>
  <defs
     id="defs4" />
  <metadata
     id="metadata7">
    <rdf:RDF>
      <cc:Work
         rdf:about="">
        <dc:format>image/svg+xml</dc:format>
        <dc:type
           rdf:resource="http://purl.org/dc/dcmitype/StillImage" />
        <dc:title />
      </cc:Work>
    </rdf:RDF>
  </metadata>
  <g
     transform="translate(0,-1028.3622)"
     id="layer1">
    <path
       d="M 3,1036.3622 C 1.895431,1036.3622 1,1037.2576 1,1038.3622 L 1,1041.3622 1,1043.3622 1,1045.3622 1,1047.3622 1,1050.3622 C 1,1051.4668 1.895431,1052.3622 3,1052.3622 L 12,1052.3622 21,1052.3622 C 22.104569,1052.3622 23,1051.4668 23,1050.3622 L 23,1043.3622 23,1041.3622 23,1038.3622 C 23,1037.2576 22.104569,1036.3622 21,1036.3622 L 12,1036.3622 3,1036.3622 z"
       inkscape:connector-curvature="0"
       id="path2987-6-6-1"
       style="fill:#7f8c8d;fill-opacity:1;fill-rule:nonzero;stroke:none" />
    <path
       d="M 2.9999999,1035.3622 C 1.895431,1035.3622 1,1036.2576 1,1037.3622 L 1,1040.3622 1,1042.3622 1,1044.3622 1,1046.3622 1,1049.3622 C 1,1050.4668 1.895431,1051.3622 2.9999999,1051.3622 L 12,1051.3622 21,1051.3622 C 22.104569,1051.3622 23,1050.4668 23,1049.3622 L 23,1042.3622 23,1040.3622 23,1037.3622 C 23,1036.2576 22.104569,1035.3622 21,1035.3622 L 12,1035.3622 2.9999999,1035.3622 z"
       inkscape:connector-curvature="0"
       id="path2987-6-6"
       style="fill:#bdc3c7;fill-opacity:1;fill-rule:nonzero;stroke:none" />
    <path
       style="fill:#7f8c8d;fill-opacity:1;fill-rule:nonzero;stroke:none"
       d="M 3,1035.3622 C 2.447716,1035.3622 1.955679,1035.594 1.59375,1035.956 L 12,1046.3622 22.40625,1035.956 C 22.044321,1035.594 21.552284,1035.3622 21,1035.3622 L 3,1035.3622 z"
       id="path2987-6-6-5-7"
       inkscape:connector-curvature="0" />
    <path
       style="fill:#f1c40f;fill-opacity:1;fill-rule:nonzero;stroke:none"
       d="M 5,1028.3622 C 3.895431,1028.3622 3,1029.2576 3,1030.3622 L 3,1035.3622 3,1037.3622 12,1046.3622 21,1037.3622 21,1035.3622 21,1034.3622 15,1028.3622 5,1028.3622 z"
       id="path2987"
       inkscape:connector-curvature="0" />
    <path
       d="M 21,1034.3622 15,1028.3622 15,1032.3622 C 15,1033.4668 15.89543,1034.3622 17,1034.3622 L 21,1034.3622 z"
       inkscape:connector-curvature="0"
       id="path2987-80-5-7"
       style="fill:#f39c12;fill-opacity:1;fill-rule:nonzero;stroke:none" />
    <path
       style="fill:#f39c12;fill-opacity:1;fill-rule:nonzero;stroke:none"
       d="M 3,1036.3622 3,1037.3622 12,1046.3622 21,1037.3622 21,1036.3622 12,1045.3622 3,1036.3622 z"
       id="path2987-69"
       inkscape:connector-curvature="0" />
    <path
       style="fill:#95a5a6;fill-opacity:1;fill-rule:nonzero;stroke:none"
       d="M 10 14 L 1.59375 22.40625 C 1.955679 22.76825 2.447716 23 3 23 L 21 23 C 21.552284 23 22.044321 22.76825 22.40625 22.40625 L 14 14 L 10 14 z "
       transform="translate(0,1028.3622)"
       id="path2987-6-6-5-6" />
  </g>
</svg>
