<?xml version="1.0" encoding="UTF-8" standalone="no"?>
<!-- Created with Inkscape (http://www.inkscape.org/) -->

<svg
   xmlns:dc="http://purl.org/dc/elements/1.1/"
   xmlns:cc="http://creativecommons.org/ns#"
   xmlns:rdf="http://www.w3.org/1999/02/22-rdf-syntax-ns#"
   xmlns:svg="http://www.w3.org/2000/svg"
   xmlns="http://www.w3.org/2000/svg"
   xmlns:sodipodi="http://sodipodi.sourceforge.net/DTD/sodipodi-0.dtd"
   xmlns:inkscape="http://www.inkscape.org/namespaces/inkscape"
   version="1.1"
   width="24"
   height="24"
   id="svg2"
   inkscape:version="0.48.3.1 r9886"
   sodipodi:docname="enveloppe-alt.svg">
  <sodipodi:namedview
     pagecolor="#ffffff"
     bordercolor="#666666"
     borderopacity="1"
     objecttolerance="10"
     gridtolerance="10"
     guidetolerance="10"
     inkscape:pageopacity="0"
     inkscape:pageshadow="2"
     inkscape:window-width="1920"
     inkscape:window-height="1150"
     id="namedview3546"
     showgrid="false"
     inkscape:zoom="9.8333333"
     inkscape:cx="12"
     inkscape:cy="12"
     inkscape:window-x="0"
     inkscape:window-y="0"
     inkscape:window-maximized="1"
     inkscape:current-layer="layer1" />
  <defs
     id="defs4" />
  <metadata
     id="metadata7">
    <rdf:RDF>
      <cc:Work
         rdf:about="">
        <dc:format>image/svg+xml</dc:format>
        <dc:type
           rdf:resource="http://purl.org/dc/dcmitype/StillImage" />
        <dc:title />
      </cc:Work>
    </rdf:RDF>
  </metadata>
  <g
     transform="translate(0,-1028.3622)"
     id="layer1">
    <path
       d="M 3,1033.3622 C 1.895431,1033.3622 1,1034.2576 1,1035.3622 L 1,1038.3622 1,1040.3622 1,1042.3622 1,1044.3622 1,1047.3622 C 1,1048.4668 1.895431,1049.3622 3,1049.3622 L 12,1049.3622 21,1049.3622 C 22.104569,1049.3622 23,1048.4668 23,1047.3622 L 23,1040.3622 23,1038.3622 23,1035.3622 C 23,1034.2576 22.104569,1033.3622 21,1033.3622 L 12,1033.3622 3,1033.3622 z"
       inkscape:connector-curvature="0"
       id="path2987-6-6-1"
       style="fill:#d35400;fill-opacity:1;fill-rule:nonzero;stroke:none" />
    <path
       d="M 3,4 C 1.895431,4 1,4.8954 1,6 L 1,9 1,11 1,13 1,15 1,18 C 1,19.1046 1.895431,20 3,20 L 12,20 21,20 C 22.104569,20 23,19.1046 23,18 L 23,11 23,9 23,6 C 23,4.8954 22.104569,4 21,4 L 12,4 3,4 z"
       inkscape:connector-curvature="0"
       transform="translate(0,1028.3622)"
       id="path2987-6-6"
       style="fill:#f39c12;fill-opacity:1;fill-rule:nonzero;stroke:none" />
    <path
       d="M 3,1048.3622 C 2.399153,1048.3622 1.866615,1048.0941 1.5,1047.6747 1.806955,1046.6793 3.240353,1045.1336 5.46875,1042.6747 11.62858,1035.8778 11.626688,1035.8523 18.15625,1042.5184 20.747285,1045.1637 22.287683,1046.7666 22.4375,1047.7372 22.07337,1048.118 21.568472,1048.3622 21,1048.3622 L 12,1048.3622 3,1048.3622 z"
       inkscape:connector-curvature="0"
       id="path2987-6-6-7-8"
       style="fill:#e67e22;fill-opacity:1;fill-rule:nonzero;stroke:none" />
    <path
       d="M 3,1032.3622 C 2.399153,1032.3622 1.866615,1032.6303 1.5,1033.0497 1.806955,1034.0451 3.240353,1035.5908 5.46875,1038.0497 11.62858,1044.8466 11.626688,1044.8721 18.15625,1038.206 20.747285,1035.5607 22.287683,1033.9578 22.4375,1032.9872 22.07337,1032.6064 21.568472,1032.3622 21,1032.3622 L 12,1032.3622 3,1032.3622 z"
       inkscape:connector-curvature="0"
       id="path2987-6-6-7"
       style="fill:#f1c40f;fill-opacity:1;fill-rule:nonzero;stroke:none" />
  </g>
</svg>
