<?xml version="1.0" encoding="UTF-8" standalone="no"?>
<!-- Created with Inkscape (http://www.inkscape.org/) -->

<svg
   xmlns:dc="http://purl.org/dc/elements/1.1/"
   xmlns:cc="http://creativecommons.org/ns#"
   xmlns:rdf="http://www.w3.org/1999/02/22-rdf-syntax-ns#"
   xmlns:svg="http://www.w3.org/2000/svg"
   xmlns="http://www.w3.org/2000/svg"
   xmlns:sodipodi="http://sodipodi.sourceforge.net/DTD/sodipodi-0.dtd"
   xmlns:inkscape="http://www.inkscape.org/namespaces/inkscape"
   version="1.1"
   width="24"
   height="24"
   id="svg2"
   inkscape:version="0.48.3.1 r9886"
   sodipodi:docname="enveloppe.svg">
  <sodipodi:namedview
     pagecolor="#ffffff"
     bordercolor="#666666"
     borderopacity="1"
     objecttolerance="10"
     gridtolerance="10"
     guidetolerance="10"
     inkscape:pageopacity="0"
     inkscape:pageshadow="2"
     inkscape:window-width="1920"
     inkscape:window-height="1150"
     id="namedview3546"
     showgrid="true"
     inkscape:zoom="21.971207"
     inkscape:cx="12.074117"
     inkscape:cy="8.476039"
     inkscape:window-x="0"
     inkscape:window-y="0"
     inkscape:window-maximized="1"
     inkscape:current-layer="layer1">
    <inkscape:grid
       type="xygrid"
       id="grid2986"
       empspacing="4"
       visible="true"
       enabled="true"
       snapvisiblegridlinesonly="true" />
  </sodipodi:namedview>
  <defs
     id="defs4" />
  <metadata
     id="metadata7">
    <rdf:RDF>
      <cc:Work
         rdf:about="">
        <dc:format>image/svg+xml</dc:format>
        <dc:type
           rdf:resource="http://purl.org/dc/dcmitype/StillImage" />
        <dc:title></dc:title>
      </cc:Work>
    </rdf:RDF>
  </metadata>
  <g
     transform="translate(0,-1028.3622)"
     id="layer1">
    <path
       d="M 3,1033.3622 C 1.895431,1033.3622 1,1034.2576 1,1035.3622 L 1,1038.3622 1,1040.3622 1,1042.3622 1,1044.3622 1,1047.3622 C 1,1048.4668 1.895431,1049.3622 3,1049.3622 L 12,1049.3622 21,1049.3622 C 22.104569,1049.3622 23,1048.4668 23,1047.3622 L 23,1040.3622 23,1038.3622 23,1035.3622 C 23,1034.2576 22.104569,1033.3622 21,1033.3622 L 12,1033.3622 3,1033.3622 z"
       inkscape:connector-curvature="0"
       id="path2987-6-6-1"
       style="fill:#7f8c8d;fill-opacity:1;fill-rule:nonzero;stroke:none" />
    <path
       d="M 2.9999999,1032.3622 C 1.895431,1032.3622 1,1033.2576 1,1034.3622 L 1,1037.3622 1,1039.3622 1,1041.3622 1,1043.3622 1,1046.3622 C 1,1047.4668 1.895431,1048.3622 2.9999999,1048.3622 L 12,1048.3622 21,1048.3622 C 22.104569,1048.3622 23,1047.4668 23,1046.3622 L 23,1039.3622 23,1037.3622 23,1034.3622 C 23,1033.2576 22.104569,1032.3622 21,1032.3622 L 12,1032.3622 2.9999999,1032.3622 z"
       inkscape:connector-curvature="0"
       id="path2987-6-6"
       style="fill:#bdc3c7;fill-opacity:1;fill-rule:nonzero;stroke:none" />
    <path
       inkscape:connector-curvature="0"
       style="fill:#95a5a6;fill-opacity:1;fill-rule:nonzero;stroke:none"
       d="M 3,1048.3622 C 2.447716,1048.3622 1.955679,1048.1304 1.59375,1047.7684 L 12,1037.3622 22.40625,1047.7684 C 22.044321,1048.1304 21.552284,1048.3622 21,1048.3622 L 3,1048.3622 z"
       id="path2987-6-6-5-6" />
    <path
       style="fill:#7f8c8d;fill-opacity:1;fill-rule:nonzero;stroke:none"
       d="M 1.84375 5 L 12 17 L 22.15625 5 L 1.84375 5 z "
       transform="translate(0,1028.3622)"
       id="path2987-6-6-5" />
    <path
       style="fill:#ecf0f1;fill-opacity:1;fill-rule:nonzero;stroke:none"
       d="M 3,1032.3622 C 2.447716,1032.3622 1.955679,1032.594 1.59375,1032.956 L 12,1043.3622 22.40625,1032.956 C 22.044321,1032.594 21.552284,1032.3622 21,1032.3622 L 3,1032.3622 z"
       id="path2987-6-6-5-7"
       inkscape:connector-curvature="0" />
  </g>
</svg>
