<?xml version="1.0" encoding="UTF-8" standalone="no"?>
<!-- Created with Inkscape (http://www.inkscape.org/) -->

<svg
   xmlns:dc="http://purl.org/dc/elements/1.1/"
   xmlns:cc="http://creativecommons.org/ns#"
   xmlns:rdf="http://www.w3.org/1999/02/22-rdf-syntax-ns#"
   xmlns:svg="http://www.w3.org/2000/svg"
   xmlns="http://www.w3.org/2000/svg"
   xmlns:sodipodi="http://sodipodi.sourceforge.net/DTD/sodipodi-0.dtd"
   xmlns:inkscape="http://www.inkscape.org/namespaces/inkscape"
   width="24"
   height="24"
   id="svg2"
   version="1.1"
   inkscape:version="0.48.3.1 r9886"
   sodipodi:docname="error.svg">
  <defs
     id="defs4" />
  <sodipodi:namedview
     id="base"
     pagecolor="#ffffff"
     bordercolor="#666666"
     borderopacity="1.0"
     inkscape:pageopacity="0.0"
     inkscape:pageshadow="2"
     inkscape:zoom="25.26137"
     inkscape:cx="14.727854"
     inkscape:cy="11.881829"
     inkscape:document-units="px"
     inkscape:current-layer="layer1"
     showgrid="true"
     inkscape:window-width="1920"
     inkscape:window-height="1150"
     inkscape:window-x="0"
     inkscape:window-y="0"
     inkscape:window-maximized="1">
    <inkscape:grid
       type="xygrid"
       id="grid2985"
       empspacing="4"
       visible="true"
       enabled="true"
       snapvisiblegridlinesonly="true" />
  </sodipodi:namedview>
  <metadata
     id="metadata7">
    <rdf:RDF>
      <cc:Work
         rdf:about="">
        <dc:format>image/svg+xml</dc:format>
        <dc:type
           rdf:resource="http://purl.org/dc/dcmitype/StillImage" />
        <dc:title></dc:title>
      </cc:Work>
    </rdf:RDF>
  </metadata>
  <g
     inkscape:label="Layer 1"
     inkscape:groupmode="layer"
     id="layer1"
     transform="translate(0,-1028.3622)">
    <path
       sodipodi:type="arc"
       style="fill:#c0392b;fill-opacity:1;fill-rule:nonzero;stroke:none"
       id="path2984"
       sodipodi:cx="12"
       sodipodi:cy="12"
       sodipodi:rx="10"
       sodipodi:ry="10"
       d="M 22,12 C 22,17.522847 17.522847,22 12,22 6.4771525,22 2,17.522847 2,12 2,6.4771525 6.4771525,2 12,2 17.522847,2 22,6.4771525 22,12 z"
       transform="translate(0,1029.3622)" />
    <path
       transform="translate(0,1028.3622)"
       sodipodi:type="arc"
       style="fill:#e74c3c;fill-opacity:1;fill-rule:nonzero;stroke:none"
       id="path2984-4"
       sodipodi:cx="12"
       sodipodi:cy="12"
       sodipodi:rx="10"
       sodipodi:ry="10"
       d="M 22,12 C 22,17.522847 17.522847,22 12,22 6.4771525,22 2,17.522847 2,12 2,6.4771525 6.4771525,2 12,2 17.522847,2 22,6.4771525 22,12 z" />
    <path
       style="fill:#c0392b;fill-opacity:1;fill-rule:nonzero;stroke:none"
       d="M 7.0502525,1037.827 10.585786,1041.3625 7.0502525,1044.898 8.4644661,1046.3122 12,1042.7767 15.535534,1046.3122 16.949747,1044.898 13.414214,1041.3625 16.949747,1037.827 15.535534,1036.4128 12,1039.9483 8.4644661,1036.4128 7.0502525,1037.827 z"
       id="rect2987-16"
       inkscape:connector-curvature="0" />
    <path
       style="fill:#ecf0f1;fill-opacity:1;fill-rule:nonzero;stroke:none"
       d="M 7.0502525,1036.8267 10.585786,1040.3622 7.0502525,1043.8977 8.4644661,1045.3119 12,1041.7764 15.535534,1045.3119 16.949747,1043.8977 13.414214,1040.3622 16.949747,1036.8267 15.535534,1035.4125 12,1038.948 8.4644661,1035.4125 7.0502525,1036.8267 z"
       id="rect2987"
       inkscape:connector-curvature="0" />
  </g>
</svg>
