<?xml version="1.0" encoding="UTF-8" standalone="no"?>
<!-- Created with Inkscape (http://www.inkscape.org/) -->

<svg
   xmlns:dc="http://purl.org/dc/elements/1.1/"
   xmlns:cc="http://creativecommons.org/ns#"
   xmlns:rdf="http://www.w3.org/1999/02/22-rdf-syntax-ns#"
   xmlns:svg="http://www.w3.org/2000/svg"
   xmlns="http://www.w3.org/2000/svg"
   xmlns:sodipodi="http://sodipodi.sourceforge.net/DTD/sodipodi-0.dtd"
   xmlns:inkscape="http://www.inkscape.org/namespaces/inkscape"
   version="1.1"
   width="24"
   height="24"
   id="svg2"
   inkscape:version="0.48.3.1 r9886"
   sodipodi:docname="file-zip.svg">
  <sodipodi:namedview
     pagecolor="#ffffff"
     bordercolor="#666666"
     borderopacity="1"
     objecttolerance="10"
     gridtolerance="10"
     guidetolerance="10"
     inkscape:pageopacity="0"
     inkscape:pageshadow="2"
     inkscape:window-width="1920"
     inkscape:window-height="1150"
     id="namedview3918"
     showgrid="true"
     inkscape:zoom="2.4583333"
     inkscape:cx="96.344604"
     inkscape:cy="10.122548"
     inkscape:window-x="0"
     inkscape:window-y="0"
     inkscape:window-maximized="1"
     inkscape:current-layer="layer1">
    <inkscape:grid
       type="xygrid"
       id="grid4153"
       empspacing="4"
       visible="true"
       enabled="true"
       snapvisiblegridlinesonly="true" />
  </sodipodi:namedview>
  <defs
     id="defs4" />
  <metadata
     id="metadata7">
    <rdf:RDF>
      <cc:Work
         rdf:about="">
        <dc:format>image/svg+xml</dc:format>
        <dc:type
           rdf:resource="http://purl.org/dc/dcmitype/StillImage" />
        <dc:title />
      </cc:Work>
    </rdf:RDF>
  </metadata>
  <g
     transform="translate(0,-1028.3622)"
     id="layer1">
    <path
       d="M 5,1030.3622 C 3.895431,1030.3622 3,1031.2576 3,1032.3622 L 3,1040.3622 3,1044.3622 3,1050.3622 C 3,1051.4668 3.89543,1052.3622 5,1052.3622 L 19,1052.3622 C 20.104569,1052.3622 21,1051.4668 21,1050.3622 L 21,1044.3622 21,1040.3622 21,1036.3622 15,1030.3622 5,1030.3622 z"
       inkscape:connector-curvature="0"
       id="path2987-88"
       style="fill:#95a5a6;fill-opacity:1;fill-rule:nonzero;stroke:none" />
    <path
       d="M 5,1029.3622 C 3.895431,1029.3622 3,1030.2576 3,1031.3622 L 3,1039.3622 3,1043.3622 3,1049.3622 C 3,1050.4668 3.89543,1051.3622 5,1051.3622 L 19,1051.3622 C 20.104569,1051.3622 21,1050.4668 21,1049.3622 L 21,1043.3622 21,1039.3622 21,1035.3622 15,1029.3622 5,1029.3622 z"
       inkscape:connector-curvature="0"
       id="path2987-51"
       style="fill:#bdc3c7;fill-opacity:1;fill-rule:nonzero;stroke:none" />
    <path
       d="M 21,1035.3622 15,1029.3622 15,1033.3622 C 15,1034.4668 15.89543,1035.3622 17,1035.3622 L 21,1035.3622 z"
       inkscape:connector-curvature="0"
       id="path2987-80"
       style="fill:#95a5a6;fill-opacity:1;fill-rule:nonzero;stroke:none" />
    <path
       d="M 12,1041.3622 C 10.895431,1041.3622 10,1042.2576 10,1043.3622 L 10,1047.3622 C 10,1048.4668 10.895431,1049.3622 12,1049.3622 13.104569,1049.3622 14,1048.4668 14,1047.3622 L 14,1043.3622 C 14,1042.2576 13.104569,1041.3622 12,1041.3622 z M 12,1042.3622 C 12.552285,1042.3622 13,1042.8099 13,1043.3622 13,1043.9145 12.552285,1044.3622 12,1044.3622 11.447715,1044.3622 11,1043.9145 11,1043.3622 11,1042.8099 11.447715,1042.3622 12,1042.3622 z M 12,1045.3622 C 12.552285,1045.3622 13,1045.8099 13,1046.3622 L 13,1047.3622 C 13,1047.9145 12.552285,1048.3622 12,1048.3622 11.447715,1048.3622 11,1047.9145 11,1047.3622 L 11,1046.3622 C 11,1045.8099 11.447715,1045.3622 12,1045.3622 z"
       inkscape:connector-curvature="0"
       id="path3185-0"
       style="fill:#bdc3c7;fill-opacity:1;fill-rule:nonzero;stroke:none" />
    <path
       d="M 10,1029.3622 10,1039.3622 C 10,1040.4668 10.895431,1041.3622 12,1041.3622 13.104569,1041.3622 14,1040.4668 14,1039.3622 L 14,1029.3622 10,1029.3622 z"
       inkscape:connector-curvature="0"
       id="path4062-0-9"
       style="fill:#7f8c8d;fill-opacity:1;fill-rule:nonzero;stroke:none" />
    <path
       d="M 12,1029.3622 12,1030.3622 13,1030.3622 13,1029.3622 12,1029.3622 z M 12,1030.3622 11,1030.3622 11,1031.3622 12,1031.3622 12,1030.3622 z M 12,1031.3622 12,1032.3622 13,1032.3622 13,1031.3622 12,1031.3622 z M 12,1032.3622 11,1032.3622 11,1033.3622 12,1033.3622 12,1032.3622 z M 12,1033.3622 12,1034.3622 13,1034.3622 13,1033.3622 12,1033.3622 z M 12,1034.3622 11,1034.3622 11,1035.3622 12,1035.3622 12,1034.3622 z M 12,1035.3622 12,1036.3622 13,1036.3622 13,1035.3622 12,1035.3622 z M 12,1036.3622 11,1036.3622 11,1037.3622 12,1037.3622 12,1036.3622 z M 12,1037.3622 12,1038.3622 13,1038.3622 13,1037.3622 12,1037.3622 z M 12,1038.3622 11,1038.3622 11,1039.3622 12,1039.3622 12,1038.3622 z M 12,1039.3622 12,1040.3622 C 12.552285,1040.3622 13,1039.9145 13,1039.3622 L 12,1039.3622 z"
       inkscape:connector-curvature="0"
       id="rect3991-06-6"
       style="fill:#95a5a6;fill-opacity:1;fill-rule:nonzero;stroke:none" />
    <path
       d="M 11,1029.3622 11,1030.3622 12,1030.3622 12,1029.3622 11,1029.3622 z M 11,1031.3622 11,1032.3622 12,1032.3622 12,1031.3622 11,1031.3622 z M 11,1033.3622 11,1034.3622 12,1034.3622 12,1033.3622 11,1033.3622 z M 11,1035.3622 11,1036.3622 12,1036.3622 12,1035.3622 11,1035.3622 z M 11,1037.3622 11,1038.3622 12,1038.3622 12,1037.3622 11,1037.3622 z M 11,1039.3622 C 11,1039.9145 11.447715,1040.3622 12,1040.3622 L 12,1039.3622 11,1039.3622 z"
       inkscape:connector-curvature="0"
       id="rect3991-0-7-5"
       style="fill:#ecf0f1;fill-opacity:1;fill-rule:nonzero;stroke:none" />
    <path
       d="M 12,1041.3622 C 10.895431,1041.3622 10,1042.2576 10,1043.3622 L 10,1047.3622 C 10,1048.4668 10.895431,1049.3622 12,1049.3622 13.104569,1049.3622 14,1048.4668 14,1047.3622 L 14,1043.3622 C 14,1042.2576 13.104569,1041.3622 12,1041.3622 z M 12,1042.3622 C 12.552285,1042.3622 13,1042.8099 13,1043.3622 13,1043.9145 12.552285,1044.3622 12,1044.3622 11.447715,1044.3622 11,1043.9145 11,1043.3622 11,1042.8099 11.447715,1042.3622 12,1042.3622 z M 12,1045.3622 C 12.552285,1045.3622 13,1045.8099 13,1046.3622 L 13,1047.3622 C 13,1047.9145 12.552285,1048.3622 12,1048.3622 11.447715,1048.3622 11,1047.9145 11,1047.3622 L 11,1046.3622 C 11,1045.8099 11.447715,1045.3622 12,1045.3622 z"
       inkscape:connector-curvature="0"
       id="path3185-6"
       style="fill:#95a5a6;fill-opacity:1;fill-rule:nonzero;stroke:none" />
    <path
       d="M 12,1040.3622 C 10.895431,1040.3622 10,1041.2576 10,1042.3622 L 10,1046.3622 C 10,1047.4668 10.895431,1048.3622 12,1048.3622 13.104569,1048.3622 14,1047.4668 14,1046.3622 L 14,1042.3622 C 14,1041.2576 13.104569,1040.3622 12,1040.3622 z M 12,1041.3622 C 12.552285,1041.3622 13,1041.8099 13,1042.3622 13,1042.9145 12.552285,1043.3622 12,1043.3622 11.447715,1043.3622 11,1042.9145 11,1042.3622 11,1041.8099 11.447715,1041.3622 12,1041.3622 z M 12,1044.3622 C 12.552285,1044.3622 13,1044.8099 13,1045.3622 L 13,1046.3622 C 13,1046.9145 12.552285,1047.3622 12,1047.3622 11.447715,1047.3622 11,1046.9145 11,1046.3622 L 11,1045.3622 C 11,1044.8099 11.447715,1044.3622 12,1044.3622 z"
       inkscape:connector-curvature="0"
       id="path3185"
       style="fill:#ecf0f1;fill-opacity:1;fill-rule:nonzero;stroke:none" />
  </g>
</svg>
