<?xml version="1.0" encoding="UTF-8" standalone="no"?>
<!-- Created with Inkscape (http://www.inkscape.org/) -->

<svg
   xmlns:dc="http://purl.org/dc/elements/1.1/"
   xmlns:cc="http://creativecommons.org/ns#"
   xmlns:rdf="http://www.w3.org/1999/02/22-rdf-syntax-ns#"
   xmlns:svg="http://www.w3.org/2000/svg"
   xmlns="http://www.w3.org/2000/svg"
   xmlns:sodipodi="http://sodipodi.sourceforge.net/DTD/sodipodi-0.dtd"
   xmlns:inkscape="http://www.inkscape.org/namespaces/inkscape"
   version="1.1"
   width="24"
   height="24"
   id="svg2"
   inkscape:version="0.48.3.1 r9886"
   sodipodi:docname="file-code.svg">
  <sodipodi:namedview
     pagecolor="#ffffff"
     bordercolor="#666666"
     borderopacity="1"
     objecttolerance="10"
     gridtolerance="10"
     guidetolerance="10"
     inkscape:pageopacity="0"
     inkscape:pageshadow="2"
     inkscape:window-width="1920"
     inkscape:window-height="1150"
     id="namedview3563"
     showgrid="true"
     inkscape:zoom="27.812867"
     inkscape:cx="28.175492"
     inkscape:cy="8.2380145"
     inkscape:window-x="0"
     inkscape:window-y="0"
     inkscape:window-maximized="1"
     inkscape:current-layer="layer1">
    <inkscape:grid
       type="xygrid"
       id="grid2985"
       empspacing="4"
       visible="true"
       enabled="true"
       snapvisiblegridlinesonly="true" />
  </sodipodi:namedview>
  <defs
     id="defs4" />
  <metadata
     id="metadata7">
    <rdf:RDF>
      <cc:Work
         rdf:about="">
        <dc:format>image/svg+xml</dc:format>
        <dc:type
           rdf:resource="http://purl.org/dc/dcmitype/StillImage" />
        <dc:title />
      </cc:Work>
    </rdf:RDF>
  </metadata>
  <g
     transform="translate(0,-1028.3622)"
     id="layer1">
    <path
       d="M 5,1030.3622 C 3.895431,1030.3622 3,1031.2576 3,1032.3622 L 3,1040.3622 3,1044.3622 3,1050.3622 C 3,1051.4668 3.89543,1052.3622 5,1052.3622 L 19,1052.3622 C 20.104569,1052.3622 21,1051.4668 21,1050.3622 L 21,1044.3622 21,1040.3622 21,1036.3622 15,1030.3622 5,1030.3622 z"
       inkscape:connector-curvature="0"
       id="path2987-88"
       style="fill:#95a5a6;fill-opacity:1;fill-rule:nonzero;stroke:none" />
    <path
       d="M 5,1029.3622 C 3.895431,1029.3622 3,1030.2576 3,1031.3622 L 3,1039.3622 3,1043.3622 3,1049.3622 C 3,1050.4668 3.89543,1051.3622 5,1051.3622 L 19,1051.3622 C 20.104569,1051.3622 21,1050.4668 21,1049.3622 L 21,1043.3622 21,1039.3622 21,1035.3622 15,1029.3622 5,1029.3622 z"
       inkscape:connector-curvature="0"
       id="path2987"
       style="fill:#bdc3c7;fill-opacity:1;fill-rule:nonzero;stroke:none" />
    <path
       d="M 21,1035.3622 15,1029.3622 15,1033.3622 C 15,1034.4668 15.89543,1035.3622 17,1035.3622 L 21,1035.3622 z"
       inkscape:connector-curvature="0"
       id="path2987-80"
       style="fill:#95a5a6;fill-opacity:1;fill-rule:nonzero;stroke:none" />
    <g
       style="font-size:8px;font-style:normal;font-variant:normal;font-weight:normal;font-stretch:normal;text-align:end;line-height:125%;letter-spacing:0px;word-spacing:0px;text-anchor:end;fill:#16a085;fill-opacity:1;stroke:none;font-family:Wingdings;-inkscape-font-specification:Wingdings"
       id="text2987">
      <path
         d="M 9.3973217,1044.8604 9.0066967,1045.251 C 8.954609,1045.3031 8.8947132,1045.3291 8.8270092,1045.3291 8.7592967,1045.3291 8.6994009,1045.3031 8.6473217,1045.251 L 5.0066967,1041.6104 C 4.954613,1041.5583 4.9285713,1041.4984 4.9285717,1041.4307 4.9285713,1041.363 4.954613,1041.3031 5.0066967,1041.251 L 8.6473217,1037.6104 C 8.6994009,1037.5583 8.7592967,1037.5322 8.8270092,1037.5322 8.8947132,1037.5322 8.954609,1037.5583 9.0066967,1037.6104 L 9.3973217,1038.001 C 9.4494002,1038.0531 9.4754418,1038.113 9.4754467,1038.1807 9.4754418,1038.2484 9.4494002,1038.3083 9.3973217,1038.3604 L 6.3270092,1041.4307 9.3973217,1044.501 C 9.4494002,1044.5531 9.4754418,1044.613 9.4754467,1044.6807 9.4754418,1044.7484 9.4494002,1044.8083 9.3973217,1044.8604 M 14.014509,1036.5244 11.100447,1046.6104 C 11.079607,1046.6781 11.03794,1046.7275 10.975447,1046.7588 10.918149,1046.7952 10.858253,1046.8031 10.795759,1046.7822 L 10.311384,1046.6494 C 10.24367,1046.6286 10.191587,1046.5869 10.155134,1046.5244 10.123879,1046.4671 10.11867,1046.4046 10.139509,1046.3369 L 13.053572,1036.251 C 13.074397,1036.1833 13.113459,1036.1338 13.170759,1036.1025 13.233251,1036.0661 13.29575,1036.0583 13.358259,1036.0791 L 13.842634,1036.2119 C 13.910333,1036.2328 13.959812,1036.2744 13.991072,1036.3369 14.027521,1036.3942 14.035333,1036.4567 14.014509,1036.5244 M 19.147322,1041.6104 15.506697,1045.251 C 15.454602,1045.3031 15.394707,1045.3291 15.327009,1045.3291 15.25929,1045.3291 15.199394,1045.3031 15.147322,1045.251 L 14.756697,1044.8604 C 14.704603,1044.8083 14.678562,1044.7484 14.678572,1044.6807 14.678562,1044.613 14.704603,1044.5531 14.756697,1044.501 L 17.827009,1041.4307 14.756697,1038.3604 C 14.704603,1038.3083 14.678562,1038.2484 14.678572,1038.1807 14.678562,1038.113 14.704603,1038.0531 14.756697,1038.001 L 15.147322,1037.6104 C 15.199394,1037.5583 15.25929,1037.5322 15.327009,1037.5322 15.394707,1037.5322 15.454602,1037.5583 15.506697,1037.6104 L 19.147322,1041.251 C 19.19939,1041.3031 19.225432,1041.363 19.225447,1041.4307 19.225432,1041.4984 19.19939,1041.5583 19.147322,1041.6104"
         style="font-size:14px;fill:#16a085"
         id="path2994" />
    </g>
  </g>
</svg>
