<?xml version="1.0" encoding="UTF-8" standalone="no"?>
<!-- Created with Inkscape (http://www.inkscape.org/) -->

<svg
   xmlns:dc="http://purl.org/dc/elements/1.1/"
   xmlns:cc="http://creativecommons.org/ns#"
   xmlns:rdf="http://www.w3.org/1999/02/22-rdf-syntax-ns#"
   xmlns:svg="http://www.w3.org/2000/svg"
   xmlns="http://www.w3.org/2000/svg"
   xmlns:sodipodi="http://sodipodi.sourceforge.net/DTD/sodipodi-0.dtd"
   xmlns:inkscape="http://www.inkscape.org/namespaces/inkscape"
   version="1.1"
   width="24"
   height="24"
   id="svg2"
   inkscape:version="0.48.3.1 r9886"
   sodipodi:docname="file-font.svg">
  <sodipodi:namedview
     pagecolor="#ffffff"
     bordercolor="#666666"
     borderopacity="1"
     objecttolerance="10"
     gridtolerance="10"
     guidetolerance="10"
     inkscape:pageopacity="0"
     inkscape:pageshadow="2"
     inkscape:window-width="1920"
     inkscape:window-height="1150"
     id="namedview4657"
     showgrid="true"
     inkscape:zoom="27.812867"
     inkscape:cx="12.155614"
     inkscape:cy="11.8401"
     inkscape:window-x="0"
     inkscape:window-y="0"
     inkscape:window-maximized="1"
     inkscape:current-layer="text2987">
    <inkscape:grid
       type="xygrid"
       id="grid4139"
       empspacing="4"
       visible="true"
       enabled="true"
       snapvisiblegridlinesonly="true" />
  </sodipodi:namedview>
  <defs
     id="defs4" />
  <metadata
     id="metadata7">
    <rdf:RDF>
      <cc:Work
         rdf:about="">
        <dc:format>image/svg+xml</dc:format>
        <dc:type
           rdf:resource="http://purl.org/dc/dcmitype/StillImage" />
        <dc:title />
      </cc:Work>
    </rdf:RDF>
  </metadata>
  <g
     transform="translate(0,-1028.3622)"
     id="layer1">
    <path
       d="M 5,1030.3622 C 3.895431,1030.3622 3,1031.2576 3,1032.3622 L 3,1040.3622 3,1044.3622 3,1050.3622 C 3,1051.4668 3.89543,1052.3622 5,1052.3622 L 19,1052.3622 C 20.104569,1052.3622 21,1051.4668 21,1050.3622 L 21,1044.3622 21,1040.3622 21,1036.3622 15,1030.3622 5,1030.3622 z"
       inkscape:connector-curvature="0"
       id="path2987-3"
       style="fill:#95a5a6;fill-opacity:1;fill-rule:nonzero;stroke:none" />
    <path
       d="M 5,1029.3622 C 3.895431,1029.3622 3,1030.2576 3,1031.3622 L 3,1039.3622 3,1043.3622 3,1049.3622 C 3,1050.4668 3.89543,1051.3622 5,1051.3622 L 19,1051.3622 C 20.104569,1051.3622 21,1050.4668 21,1049.3622 L 21,1043.3622 21,1039.3622 21,1035.3622 15,1029.3622 5,1029.3622 z"
       inkscape:connector-curvature="0"
       id="path2987"
       style="fill:#bdc3c7;fill-opacity:1;fill-rule:nonzero;stroke:none" />
    <g
       transform="scale(0.94972507,1.0529363)"
       style="font-size:18.2114563px;font-style:normal;font-variant:normal;font-weight:normal;font-stretch:normal;text-align:end;line-height:125%;letter-spacing:0px;word-spacing:0px;text-anchor:end;fill:#000000;fill-opacity:1;stroke:none;font-family:Wingdings;-inkscape-font-specification:Wingdings"
       id="text2987">
      <path
         d="M 14.479193,990.90724 10.872157,990.90724 10.15075,991.80041 9.3262851,992.78805 C 9.1659703,992.9999 9.0485987,993.1917 8.9741697,993.36346 8.916913,993.49514 8.888286,993.62683 8.8882874,993.75852 8.888286,993.89593 8.9598541,994.02475 9.1029925,994.14498 9.2518519,994.25949 9.4951842,994.32534 9.8329882,994.34251 L 9.8329882,994.70614 6.3176178,994.70614 6.3176178,994.34251 C 6.6267927,994.29098 7.0246527,994.1822 7.2651211,994.01616 7.5857464,993.78714 7.8223171,993.52238 8.4234904,992.80669 L 16.201017,982.35971 16.846981,982.35971 16.846981,992.28989 C 16.829795,992.788 16.875286,993.08005 16.875296,993.18311 16.875286,993.57244 16.95258,993.85585 17.107177,994.03334 17.26748,994.21082 17.530851,994.31389 17.89729,994.34251 L 17.899917,994.70614 12.635236,994.70614 12.635236,994.35105 C 13.133345,994.30525 13.648996,994.25663 13.723433,994.22228 13.88374,994.14212 14.190635,994.00833 14.322327,993.75641 14.454006,993.49877 14.712473,993.00572 14.741108,992.37593 L 14.741108,990.90724 M 14.741108,989.95751 14.741108,986.15861 11.582299,989.95751 14.741108,989.95751"
         style="font-size:25.04075432000000134px;font-style:italic;font-weight:bold;fill:#34495e;font-family:Times New Roman;-inkscape-font-specification:Times New Roman"
         id="path2992"
         inkscape:connector-curvature="0"
         sodipodi:nodetypes="cccccccccccccccccccccccccccccc" />
    </g>
    <path
       d="M 21,1035.3622 15,1029.3622 15,1033.3622 C 15,1034.4668 15.89543,1035.3622 17,1035.3622 L 21,1035.3622 z"
       inkscape:connector-curvature="0"
       id="path2987-80"
       style="fill:#95a5a6;fill-opacity:1;fill-rule:nonzero;stroke:none" />
  </g>
</svg>
