<?xml version="1.0" encoding="UTF-8" standalone="no"?>
<!-- Created with Inkscape (http://www.inkscape.org/) -->

<svg
   xmlns:dc="http://purl.org/dc/elements/1.1/"
   xmlns:cc="http://creativecommons.org/ns#"
   xmlns:rdf="http://www.w3.org/1999/02/22-rdf-syntax-ns#"
   xmlns:svg="http://www.w3.org/2000/svg"
   xmlns="http://www.w3.org/2000/svg"
   xmlns:sodipodi="http://sodipodi.sourceforge.net/DTD/sodipodi-0.dtd"
   xmlns:inkscape="http://www.inkscape.org/namespaces/inkscape"
   version="1.1"
   width="24"
   height="24"
   id="svg2"
   inkscape:version="0.48.3.1 r9886"
   sodipodi:docname="file-pdf.svg">
  <sodipodi:namedview
     pagecolor="#ffffff"
     bordercolor="#666666"
     borderopacity="1"
     objecttolerance="10"
     gridtolerance="10"
     guidetolerance="10"
     inkscape:pageopacity="0"
     inkscape:pageshadow="2"
     inkscape:window-width="1920"
     inkscape:window-height="1150"
     id="namedview3701"
     showgrid="true"
     inkscape:zoom="13.906434"
     inkscape:cx="27.832291"
     inkscape:cy="8.3986172"
     inkscape:window-x="0"
     inkscape:window-y="0"
     inkscape:window-maximized="1"
     inkscape:current-layer="layer1">
    <inkscape:grid
       type="xygrid"
       id="grid4159"
       empspacing="4"
       visible="true"
       enabled="true"
       snapvisiblegridlinesonly="true" />
  </sodipodi:namedview>
  <defs
     id="defs4" />
  <metadata
     id="metadata7">
    <rdf:RDF>
      <cc:Work
         rdf:about="">
        <dc:format>image/svg+xml</dc:format>
        <dc:type
           rdf:resource="http://purl.org/dc/dcmitype/StillImage" />
        <dc:title />
      </cc:Work>
    </rdf:RDF>
  </metadata>
  <g
     transform="translate(0,-1028.3622)"
     id="layer1">
    <path
       d="M 5,1030.3622 C 3.895431,1030.3622 3,1031.2576 3,1032.3622 L 3,1040.3622 3,1044.3622 3,1050.3622 C 3,1051.4668 3.89543,1052.3622 5,1052.3622 L 19,1052.3622 C 20.104569,1052.3622 21,1051.4668 21,1050.3622 L 21,1044.3622 21,1040.3622 21,1036.3622 15,1030.3622 5,1030.3622 z"
       inkscape:connector-curvature="0"
       id="path2987-9"
       style="fill:#c0392b;fill-opacity:1;fill-rule:nonzero;stroke:none" />
    <path
       d="M 5,1029.3622 C 3.895431,1029.3622 3,1030.2576 3,1031.3622 L 3,1039.3622 3,1043.3622 3,1049.3622 C 3,1050.4668 3.89543,1051.3622 5,1051.3622 L 19,1051.3622 C 20.104569,1051.3622 21,1050.4668 21,1049.3622 L 21,1043.3622 21,1039.3622 21,1035.3622 15,1029.3622 5,1029.3622 z"
       inkscape:connector-curvature="0"
       id="path2987"
       style="fill:#e74c3c;fill-opacity:1;fill-rule:nonzero;stroke:none" />
    <path
       d="M 21,1035.3622 15,1029.3622 15,1033.3622 C 15,1034.4668 15.89543,1035.3622 17,1035.3622 L 21,1035.3622 z"
       inkscape:connector-curvature="0"
       id="path2987-80"
       style="fill:#c0392b;fill-opacity:1;fill-rule:nonzero;stroke:none" />
    <path
       d="M 19.112246,1039.3624 C 18.915051,1039.3632 18.838092,1039.3734 18.822254,1039.397 18.73224,1039.531 18.221336,1040.1609 18.00005,1040.4113 17.939919,1040.4794 17.84957,1040.5843 17.798943,1040.6441 17.055646,1041.522 15.475892,1043.0456 14.527912,1043.7984 14.403526,1043.8971 14.284122,1043.9938 14.262363,1044.0127 14.196219,1044.07 13.563679,1044.524 13.280171,1044.7179 12.374583,1045.3373 11.312617,1045.8375 10.488017,1046.0342 8.8598804,1046.4228 7.5896047,1046.2813 5.9403533,1045.525 5.4419699,1045.2965 4.7319027,1044.8814 4.3426148,1044.5913 3.9605896,1044.3067 4.000851,1044.282 4.0015128,1044.7985 L 4.0015128,1045.2517 4.2592849,1045.4189 C 4.5899744,1045.6343 5.303806,1046.0267 5.7692438,1046.2485 6.1238252,1046.4177 6.2342561,1046.502 6.0359037,1046.4527 5.8530937,1046.4072 4.8156876,1046.429 4.4170567,1046.4865 4.2062474,1046.5167 4.0262557,1046.5415 4.0170666,1046.5415 4.0078832,1046.5415 4.0004019,1046.7092 4.0004019,1046.9139 L 4.0004019,1047.2854 4.1337318,1047.2557 C 4.7073253,1047.1277 5.9384208,1047.088 6.5114528,1047.1793 7.1862581,1047.287 7.6610622,1047.4326 8.2314055,1047.7047 9.3194792,1048.2243 10.222431,1049.1534 10.614681,1050.158 L 10.694679,1050.3622 11.13467,1050.3622 11.574656,1050.3622 11.551323,1050.2725 C 11.409862,1049.7224 11.014494,1049.0406 10.523575,1048.5008 10.20175,1048.1471 9.6332615,1047.6572 9.4091557,1047.5406 9.3775815,1047.5241 9.3433774,1047.5017 9.3336033,1047.4904 9.2972245,1047.449 8.9170547,1047.2314 8.7547266,1047.159 8.6622846,1047.1176 8.5869562,1047.0719 8.5869562,1047.058 8.5869562,1047.0438 8.6570132,1047.041 8.7425058,1047.0516 8.9559567,1047.0785 9.8157586,1047.0081 10.204691,1046.9313 11.283274,1046.7183 12.303034,1046.3102 13.333505,1045.6801 13.704231,1045.4536 14.54449,1044.8414 14.88013,1044.5537 15.129659,1044.3395 15.210378,1044.3006 15.1079,1044.4434 15.072427,1044.4927 15.003344,1044.5971 14.953461,1044.675 14.903575,1044.753 14.817674,1044.8852 14.763465,1044.9689 13.985156,1046.1693 13.486128,1047.741 13.35128,1049.4152 13.33175,1049.6578 13.315769,1049.9698 13.315722,1050.1091 L 13.315722,1050.3622 15.647886,1050.3622 17.980052,1050.3622 17.904498,1050.2561 C 17.483908,1049.6695 16.963059,1048.3785 16.787857,1047.4885 16.643754,1046.7563 16.600841,1045.7165 16.691198,1045.1384 16.952851,1043.4637 17.846337,1042.1476 19.380017,1041.1768 19.537735,1041.0769 19.741731,1040.9615 19.833341,1040.9205 L 20,1040.8461 20,1040.491 C 20,1040.2953 19.988003,1040.141 19.973337,1040.147 19.60885,1040.2984 18.798505,1040.7701 18.42671,1041.0482 18.227882,1041.1968 18.215622,1041.1529 18.403374,1040.9655 18.670836,1040.6984 19.133236,1040.1947 19.624458,1039.6347 L 19.853337,1039.3735 19.352242,1039.3643 C 19.257795,1039.3625 19.177977,1039.3619 19.112246,1039.3624 z"
       inkscape:connector-curvature="0"
       id="path3067"
       style="fill:#ecf0f1;fill-opacity:1" />
  </g>
</svg>
