<?xml version="1.0" encoding="UTF-8" standalone="no"?>
<!-- Created with Inkscape (http://www.inkscape.org/) -->

<svg
   xmlns:dc="http://purl.org/dc/elements/1.1/"
   xmlns:cc="http://creativecommons.org/ns#"
   xmlns:rdf="http://www.w3.org/1999/02/22-rdf-syntax-ns#"
   xmlns:svg="http://www.w3.org/2000/svg"
   xmlns="http://www.w3.org/2000/svg"
   xmlns:sodipodi="http://sodipodi.sourceforge.net/DTD/sodipodi-0.dtd"
   xmlns:inkscape="http://www.inkscape.org/namespaces/inkscape"
   version="1.1"
   width="24"
   height="24"
   id="svg2"
   inkscape:version="0.48.3.1 r9886"
   sodipodi:docname="file-zip-alt.svg">
  <sodipodi:namedview
     pagecolor="#ffffff"
     bordercolor="#666666"
     borderopacity="1"
     objecttolerance="10"
     gridtolerance="10"
     guidetolerance="10"
     inkscape:pageopacity="0"
     inkscape:pageshadow="2"
     inkscape:window-width="1920"
     inkscape:window-height="1150"
     id="namedview3879"
     showgrid="false"
     inkscape:zoom="3.4766083"
     inkscape:cx="-65.397328"
     inkscape:cy="5.3267153"
     inkscape:window-x="0"
     inkscape:window-y="0"
     inkscape:window-maximized="1"
     inkscape:current-layer="layer1" />
  <defs
     id="defs4" />
  <metadata
     id="metadata7">
    <rdf:RDF>
      <cc:Work
         rdf:about="">
        <dc:format>image/svg+xml</dc:format>
        <dc:type
           rdf:resource="http://purl.org/dc/dcmitype/StillImage" />
        <dc:title />
      </cc:Work>
    </rdf:RDF>
  </metadata>
  <g
     transform="translate(0,-1028.3622)"
     id="layer1">
    <g
       transform="translate(-72,66)"
       id="g3526">
      <path
         d="M 76,965.3622 C 74.89543,965.3622 74,966.2576 74,967.3622 L 74,975.3622 74,977.3622 74,978.3622 74,984.3622 C 74,985.4668 74.89543,986.3622 76,986.3622 L 78,986.3622 90,986.3622 92,986.3622 C 93.10457,986.3622 94,985.4668 94,984.3622 L 94,978.3622 94,977.3622 94,975.3622 94,971.3622 94,967.3622 C 94,966.2576 93.10457,965.3622 92,965.3622 L 90,965.3622 88,965.3622 86,965.3622 78,965.3622 76,965.3622 z"
         inkscape:connector-curvature="0"
         id="path2987-22-6-7-2"
         style="fill:#e67e22;fill-opacity:1;fill-rule:nonzero;stroke:none" />
      <path
         d="M 76,-64 C 74.89543,-64 74,-63.1046 74,-62 L 74,-54 74,-52 74,-51 74,-45 C 74,-43.8954 74.89543,-43 76,-43 L 78,-43 90,-43 92,-43 C 93.104569,-43 94,-43.8954 94,-45 L 94,-51 94,-52 94,-54 94,-58 94,-62 C 94,-63.1046 93.10457,-64 92,-64 L 90,-64 88,-64 86,-64 78,-64 76,-64 z"
         inkscape:connector-curvature="0"
         transform="translate(0,1028.3622)"
         id="path2987-22-6-4-33"
         style="fill:#f39c12;fill-opacity:1;fill-rule:nonzero;stroke:none" />
      <path
         d="M 76,-65 C 74.89543,-65 74,-64.1046 74,-63 L 74,-55 74,-53 74,-52 74,-46 C 74,-44.8954 74.89543,-44 76,-44 L 78,-44 90,-44 92,-44 C 93.104569,-44 94,-44.8954 94,-46 L 94,-52 94,-53 94,-55 94,-59 94,-63 C 94,-64.1046 93.10457,-65 92,-65 L 90,-65 88,-65 86,-65 78,-65 76,-65 z"
         inkscape:connector-curvature="0"
         transform="translate(0,1028.3622)"
         id="path2987-22-6-7"
         style="fill:#e67e22;fill-opacity:1;fill-rule:nonzero;stroke:none" />
      <path
         d="M 76,-66 C 74.89543,-66 74,-65.1046 74,-64 L 74,-56 74,-54 74,-53 74,-47 C 74,-45.8954 74.89543,-45 76,-45 L 78,-45 90,-45 92,-45 C 93.104569,-45 94,-45.8954 94,-47 L 94,-53 94,-54 94,-56 94,-60 94,-64 C 94,-65.1046 93.10457,-66 92,-66 L 90,-66 88,-66 86,-66 78,-66 76,-66 z"
         inkscape:connector-curvature="0"
         transform="translate(0,1028.3622)"
         id="path2987-22-17"
         style="fill:#f1c40f;fill-opacity:1;fill-rule:nonzero;stroke:none" />
    </g>
    <path
       d="M 17,1040.3622 C 15.895431,1040.3622 15,1041.2576 15,1042.3622 L 15,1046.3622 C 15,1047.4668 15.895431,1048.3622 17,1048.3622 18.104569,1048.3622 19,1047.4668 19,1046.3622 L 19,1042.3622 C 19,1041.2576 18.104569,1040.3622 17,1040.3622 z M 17,1041.3622 C 17.552285,1041.3622 18,1041.8099 18,1042.3622 18,1042.9145 17.552285,1043.3622 17,1043.3622 16.447715,1043.3622 16,1042.9145 16,1042.3622 16,1041.8099 16.447715,1041.3622 17,1041.3622 z M 17,1044.3622 C 17.552285,1044.3622 18,1044.8099 18,1045.3622 L 18,1046.3622 C 18,1046.9145 17.552285,1047.3622 17,1047.3622 16.447715,1047.3622 16,1046.9145 16,1046.3622 L 16,1045.3622 C 16,1044.8099 16.447715,1044.3622 17,1044.3622 z"
       inkscape:connector-curvature="0"
       id="path3185-0"
       style="fill:#f39c12;fill-opacity:1;fill-rule:nonzero;stroke:none" />
    <g
       transform="translate(5,0)"
       id="g3532">
      <path
         d="M 10,1028.3622 10,1038.3622 C 10,1039.4668 10.895431,1040.3622 12,1040.3622 13.104569,1040.3622 14,1039.4668 14,1038.3622 L 14,1028.3622 10,1028.3622 z"
         inkscape:connector-curvature="0"
         id="path4062-0-9"
         style="fill:#34495e;fill-opacity:1;fill-rule:nonzero;stroke:none" />
      <path
         d="M 12,1028.3622 12,1029.3622 13,1029.3622 13,1028.3622 12,1028.3622 z M 12,1029.3622 11,1029.3622 11,1030.3622 12,1030.3622 12,1029.3622 z M 12,1030.3622 12,1031.3622 13,1031.3622 13,1030.3622 12,1030.3622 z M 12,1031.3622 11,1031.3622 11,1032.3622 12,1032.3622 12,1031.3622 z M 12,1032.3622 12,1033.3622 13,1033.3622 13,1032.3622 12,1032.3622 z M 12,1033.3622 11,1033.3622 11,1034.3622 12,1034.3622 12,1033.3622 z M 12,1034.3622 12,1035.3622 13,1035.3622 13,1034.3622 12,1034.3622 z M 12,1035.3622 11,1035.3622 11,1036.3622 12,1036.3622 12,1035.3622 z M 12,1036.3622 12,1037.3622 13,1037.3622 13,1036.3622 12,1036.3622 z M 12,1037.3622 11,1037.3622 11,1038.3622 12,1038.3622 12,1037.3622 z M 12,1038.3622 12,1039.3622 C 12.552285,1039.3622 13,1038.9145 13,1038.3622 L 12,1038.3622 z"
         inkscape:connector-curvature="0"
         id="rect3991-06-6"
         style="fill:#95a5a6;fill-opacity:1;fill-rule:nonzero;stroke:none" />
      <path
         d="M 11,1028.3622 11,1029.3622 12,1029.3622 12,1028.3622 11,1028.3622 z M 11,1030.3622 11,1031.3622 12,1031.3622 12,1030.3622 11,1030.3622 z M 11,1032.3622 11,1033.3622 12,1033.3622 12,1032.3622 11,1032.3622 z M 11,1034.3622 11,1035.3622 12,1035.3622 12,1034.3622 11,1034.3622 z M 11,1036.3622 11,1037.3622 12,1037.3622 12,1036.3622 11,1036.3622 z M 11,1038.3622 C 11,1038.9145 11.447715,1039.3622 12,1039.3622 L 12,1038.3622 11,1038.3622 z"
         inkscape:connector-curvature="0"
         id="rect3991-0-7-5"
         style="fill:#ecf0f1;fill-opacity:1;fill-rule:nonzero;stroke:none" />
    </g>
    <path
       d="M 17,1039.3622 C 15.895431,1039.3622 15,1040.2576 15,1041.3622 L 15,1045.3622 C 15,1046.4668 15.895431,1047.3622 17,1047.3622 18.104569,1047.3622 19,1046.4668 19,1045.3622 L 19,1041.3622 C 19,1040.2576 18.104569,1039.3622 17,1039.3622 z M 17,1040.3622 C 17.552285,1040.3622 18,1040.8099 18,1041.3622 18,1041.9145 17.552285,1042.3622 17,1042.3622 16.447715,1042.3622 16,1041.9145 16,1041.3622 16,1040.8099 16.447715,1040.3622 17,1040.3622 z M 17,1043.3622 C 17.552285,1043.3622 18,1043.8099 18,1044.3622 L 18,1045.3622 C 18,1045.9145 17.552285,1046.3622 17,1046.3622 16.447715,1046.3622 16,1045.9145 16,1045.3622 L 16,1044.3622 C 16,1043.8099 16.447715,1043.3622 17,1043.3622 z"
       inkscape:connector-curvature="0"
       id="path3185"
       style="fill:#ecf0f1;fill-opacity:1;fill-rule:nonzero;stroke:none" />
  </g>
</svg>
