<?xml version="1.0" encoding="UTF-8" standalone="no"?>
<!-- Created with Inkscape (http://www.inkscape.org/) -->

<svg
   xmlns:dc="http://purl.org/dc/elements/1.1/"
   xmlns:cc="http://creativecommons.org/ns#"
   xmlns:rdf="http://www.w3.org/1999/02/22-rdf-syntax-ns#"
   xmlns:svg="http://www.w3.org/2000/svg"
   xmlns="http://www.w3.org/2000/svg"
   xmlns:sodipodi="http://sodipodi.sourceforge.net/DTD/sodipodi-0.dtd"
   xmlns:inkscape="http://www.inkscape.org/namespaces/inkscape"
   version="1.1"
   width="24"
   height="24"
   id="svg2"
   inkscape:version="0.48.3.1 r9886"
   sodipodi:docname="file-exe.svg">
  <sodipodi:namedview
     pagecolor="#ffffff"
     bordercolor="#666666"
     borderopacity="1"
     objecttolerance="10"
     gridtolerance="10"
     guidetolerance="10"
     inkscape:pageopacity="0"
     inkscape:pageshadow="2"
     inkscape:window-width="1920"
     inkscape:window-height="1150"
     id="namedview3622"
     showgrid="true"
     inkscape:zoom="9.8333333"
     inkscape:cx="14.548236"
     inkscape:cy="-3.6635848"
     inkscape:window-x="0"
     inkscape:window-y="0"
     inkscape:window-maximized="1"
     inkscape:current-layer="layer1">
    <inkscape:grid
       type="xygrid"
       id="grid4171"
       empspacing="4"
       visible="true"
       enabled="true"
       snapvisiblegridlinesonly="true" />
  </sodipodi:namedview>
  <defs
     id="defs4" />
  <metadata
     id="metadata7">
    <rdf:RDF>
      <cc:Work
         rdf:about="">
        <dc:format>image/svg+xml</dc:format>
        <dc:type
           rdf:resource="http://purl.org/dc/dcmitype/StillImage" />
        <dc:title />
      </cc:Work>
    </rdf:RDF>
  </metadata>
  <g
     transform="translate(0,-1028.3622)"
     id="layer1">
    <path
       d="M 5,1030.3622 C 3.895431,1030.3622 3,1031.2576 3,1032.3622 L 3,1040.3622 3,1044.3622 3,1050.3622 C 3,1051.4668 3.89543,1052.3622 5,1052.3622 L 19,1052.3622 C 20.104569,1052.3622 21,1051.4668 21,1050.3622 L 21,1044.3622 21,1040.3622 21,1036.3622 15,1030.3622 5,1030.3622 z"
       inkscape:connector-curvature="0"
       id="path2987-2"
       style="fill:#95a5a6;fill-opacity:1;fill-rule:nonzero;stroke:none" />
    <path
       d="M 5,1029.3622 C 3.895431,1029.3622 3,1030.2576 3,1031.3622 L 3,1039.3622 3,1043.3622 3,1049.3622 C 3,1050.4668 3.89543,1051.3622 5,1051.3622 L 19,1051.3622 C 20.104569,1051.3622 21,1050.4668 21,1049.3622 L 21,1043.3622 21,1039.3622 21,1035.3622 15,1029.3622 5,1029.3622 z"
       inkscape:connector-curvature="0"
       id="path2987"
       style="fill:#bdc3c7;fill-opacity:1;fill-rule:nonzero;stroke:none" />
    <g
       id="text2993"
       style="font-size:8px;font-style:normal;font-variant:normal;font-weight:normal;font-stretch:normal;text-align:end;line-height:125%;letter-spacing:0px;word-spacing:0px;text-anchor:end;fill:#2980b9;fill-opacity:1;stroke:none;font-family:FontAwesome;-inkscape-font-specification:FontAwesome">
      <g
         id="text2996"
         style="line-height:125%;font-family:FontAwesome;-inkscape-font-specification:FontAwesome">
        <path
           d="M 13.410156,1042.7762 C 13.800773,1042.3856 13.996086,1041.9143 13.996094,1041.3622 13.996086,1040.8101 13.800773,1040.3388 13.410156,1039.9481 13.019524,1039.5575 12.548171,1039.3622 11.996094,1039.3622 11.444005,1039.3622 10.972651,1039.5575 10.582031,1039.9481 10.191402,1040.3388 9.9960898,1040.8101 9.9960938,1041.3622 9.9960898,1041.9143 10.191402,1042.3856 10.582031,1042.7762 10.972651,1043.1669 11.444005,1043.3622 11.996094,1043.3622 12.548171,1043.3622 13.019524,1043.1669 13.410156,1042.7762 M 17.996094,1040.5106 17.996094,1042.245 C 17.996082,1042.3075 17.975248,1042.3674 17.933594,1042.4247 17.891915,1042.482 17.839832,1042.5158 17.777344,1042.5262 L 16.332031,1042.745 C 16.233063,1043.0262 16.1315,1043.2632 16.027344,1043.4559 16.209625,1043.7164 16.488271,1044.0757 16.863281,1044.5341 16.915354,1044.5966 16.941395,1044.6617 16.941406,1044.7294 16.941395,1044.7971 16.917958,1044.857 16.871094,1044.9091 16.730458,1045.1018 16.472646,1045.383 16.097656,1045.7528 15.722647,1046.1226 15.477855,1046.3075 15.363281,1046.3075 15.300772,1046.3075 15.233064,1046.2841 15.160156,1046.2372 L 14.082031,1045.3934 C 13.852857,1045.5132 13.615878,1045.6122 13.371094,1045.6903 13.287753,1046.3986 13.212232,1046.883 13.144531,1047.1434 13.108066,1047.2893 13.014316,1047.3622 12.863281,1047.3622 L 11.128906,1047.3622 C 11.055985,1047.3622 10.99088,1047.3387 10.933594,1047.2919 10.881506,1047.2502 10.85286,1047.1955 10.847656,1047.1278 L 10.628906,1045.6903 C 10.373694,1045.607 10.139319,1045.5106 9.9257813,1045.4012 L 8.8242188,1046.2372 C 8.7721326,1046.2841 8.7070285,1046.3075 8.6289063,1046.3075 8.555987,1046.3075 8.4908829,1046.2788 8.4335938,1046.2216 7.777342,1045.6278 7.3476549,1045.1903 7.1445312,1044.9091 7.1080718,1044.857 7.0898427,1044.7971 7.0898437,1044.7294 7.0898427,1044.6669 7.110676,1044.607 7.1523437,1044.5497 7.2304675,1044.4403 7.3632799,1044.2684 7.5507812,1044.0341 7.7382795,1043.7945 7.8789044,1043.6096 7.9726562,1043.4794 7.8320294,1043.219 7.7252587,1042.9611 7.6523437,1042.7059 L 6.2226562,1042.495 C 6.1549478,1042.4846 6.1002603,1042.4533 6.0585937,1042.4012 6.0169271,1042.344 5.9960937,1042.2815 5.9960937,1042.2137 L 5.9960937,1040.4794 C 5.9960937,1040.4169 6.0169271,1040.357 6.0585937,1040.2997 6.1002603,1040.2424 6.1497394,1040.2085 6.2070312,1040.1981 L 7.6601562,1039.9794 C 7.7330712,1039.7398 7.8346336,1039.5002 7.9648437,1039.2606 7.7565087,1038.9638 7.4778631,1038.6044 7.1289062,1038.1825 7.0768218,1038.12 7.0507802,1038.0575 7.0507812,1037.995 7.0507802,1037.9429 7.0742177,1037.883 7.1210937,1037.8153 7.2565092,1037.6278 7.5117172,1037.3492 7.8867187,1036.9794 8.2669248,1036.6044 8.5143204,1036.4169 8.6289063,1036.4169 8.6966119,1036.4169 8.7643201,1036.4429 8.8320313,1036.495 L 9.9101563,1037.3309 C 10.139319,1037.2112 10.376298,1037.1122 10.621094,1037.0341 10.704422,1036.3257 10.779943,1035.8414 10.847656,1035.5809 10.88411,1035.4351 10.97786,1035.3622 11.128906,1035.3622 L 12.863281,1035.3622 C 12.936191,1035.3622 12.998691,1035.3856 13.050781,1035.4325 13.108066,1035.4742 13.139316,1035.5289 13.144531,1035.5966 L 13.363281,1037.0341 C 13.618482,1037.1174 13.852857,1037.2138 14.066406,1037.3231 L 15.175781,1036.4872 C 15.222647,1036.4403 15.285147,1036.4169 15.363281,1036.4169 15.43098,1036.4169 15.496084,1036.4429 15.558594,1036.495 16.230459,1037.1148 16.660146,1037.5575 16.847656,1037.8231 16.884104,1037.8648 16.902333,1037.9221 16.902344,1037.995 16.902333,1038.0575 16.8815,1038.1174 16.839844,1038.1747 16.761708,1038.2841 16.628896,1038.4585 16.441406,1038.6981 16.253896,1038.9325 16.113271,1039.1148 16.019531,1039.245 16.154938,1039.5054 16.261708,1039.7606 16.339844,1040.0106 L 17.769531,1040.2294 C 17.837228,1040.2398 17.891915,1040.2736 17.933594,1040.3309 17.975248,1040.383 17.996082,1040.4429 17.996094,1040.5106"
           inkscape:connector-curvature="0"
           id="path3022"
           style="font-size:14px;fill:#7f8c8d" />
      </g>
    </g>
    <path
       d="M 21,1035.3622 15,1029.3622 15,1033.3622 C 15,1034.4668 15.89543,1035.3622 17,1035.3622 L 21,1035.3622 z"
       inkscape:connector-curvature="0"
       id="path2987-80"
       style="fill:#95a5a6;fill-opacity:1;fill-rule:nonzero;stroke:none" />
  </g>
</svg>
