<?xml version="1.0" encoding="UTF-8" standalone="no"?>
<!-- Created with Inkscape (http://www.inkscape.org/) -->

<svg
   xmlns:dc="http://purl.org/dc/elements/1.1/"
   xmlns:cc="http://creativecommons.org/ns#"
   xmlns:rdf="http://www.w3.org/1999/02/22-rdf-syntax-ns#"
   xmlns:svg="http://www.w3.org/2000/svg"
   xmlns="http://www.w3.org/2000/svg"
   xmlns:sodipodi="http://sodipodi.sourceforge.net/DTD/sodipodi-0.dtd"
   xmlns:inkscape="http://www.inkscape.org/namespaces/inkscape"
   version="1.1"
   width="24"
   height="24"
   id="svg2"
   inkscape:version="0.48.3.1 r9886"
   sodipodi:docname="file-video.svg">
  <sodipodi:namedview
     pagecolor="#ffffff"
     bordercolor="#666666"
     borderopacity="1"
     objecttolerance="10"
     gridtolerance="10"
     guidetolerance="10"
     inkscape:pageopacity="0"
     inkscape:pageshadow="2"
     inkscape:window-width="1920"
     inkscape:window-height="1150"
     id="namedview4321"
     showgrid="true"
     inkscape:zoom="27.812867"
     inkscape:cx="25.302558"
     inkscape:cy="14.655177"
     inkscape:window-x="0"
     inkscape:window-y="0"
     inkscape:window-maximized="1"
     inkscape:current-layer="layer1">
    <inkscape:grid
       type="xygrid"
       id="grid2990"
       empspacing="4"
       visible="true"
       enabled="true"
       snapvisiblegridlinesonly="true" />
  </sodipodi:namedview>
  <defs
     id="defs4" />
  <metadata
     id="metadata7">
    <rdf:RDF>
      <cc:Work
         rdf:about="">
        <dc:format>image/svg+xml</dc:format>
        <dc:type
           rdf:resource="http://purl.org/dc/dcmitype/StillImage" />
        <dc:title />
      </cc:Work>
    </rdf:RDF>
  </metadata>
  <g
     transform="translate(0,-1028.3622)"
     id="layer1">
    <path
       style="fill:#e74c3c;fill-opacity:1;fill-rule:nonzero;stroke:none"
       d="M 4 1 C 2.89543 1 2 1.8954 2 3 L 2 6 L 2 17 L 2 20 L 2 21 C 2 22.1046 2.8954305 23 4 23 L 6 23 L 18 23 L 20 23 C 21.104569 23 22 22.1046 22 21 L 22 20 L 22 17 L 22 6 L 22 3 C 22 1.8954 21.10457 1 20 1 L 18 1 L 6 1 L 4 1 z M 3.5 3 L 4.5 3 C 4.776142 3 5 3.2238 5 3.5 L 5 4.5 C 5 4.7762 4.776142 5 4.5 5 L 3.5 5 C 3.223858 5 3 4.7762 3 4.5 L 3 3.5 C 3 3.2238 3.223858 3 3.5 3 z M 19.5 3 L 20.5 3 C 20.776142 3 21 3.2238 21 3.5 L 21 4.5 C 21 4.7762 20.776142 5 20.5 5 L 19.5 5 C 19.223858 5 19 4.7762 19 4.5 L 19 3.5 C 19 3.2238 19.223858 3 19.5 3 z M 3.5 6 L 4.5 6 C 4.776142 6 5 6.2238 5 6.5 L 5 7.5 C 5 7.7762 4.776142 8 4.5 8 L 3.5 8 C 3.223858 8 3 7.7762 3 7.5 L 3 6.5 C 3 6.2238 3.223858 6 3.5 6 z M 19.5 6 L 20.5 6 C 20.776142 6 21 6.2238 21 6.5 L 21 7.5 C 21 7.7762 20.776142 8 20.5 8 L 19.5 8 C 19.223858 8 19 7.7762 19 7.5 L 19 6.5 C 19 6.2238 19.223858 6 19.5 6 z M 3.5 9 L 4.5 9 C 4.776142 9 5 9.2238 5 9.5 L 5 10.5 C 5 10.7762 4.776142 11 4.5 11 L 3.5 11 C 3.223858 11 3 10.7762 3 10.5 L 3 9.5 C 3 9.2238 3.223858 9 3.5 9 z M 19.5 9 L 20.5 9 C 20.776142 9 21 9.2238 21 9.5 L 21 10.5 C 21 10.7762 20.776142 11 20.5 11 L 19.5 11 C 19.223858 11 19 10.7762 19 10.5 L 19 9.5 C 19 9.2238 19.223858 9 19.5 9 z M 3.5 12 L 4.5 12 C 4.776142 12 5 12.2238 5 12.5 L 5 13.5 C 5 13.7762 4.776142 14 4.5 14 L 3.5 14 C 3.223858 14 3 13.7762 3 13.5 L 3 12.5 C 3 12.2238 3.223858 12 3.5 12 z M 19.5 12 L 20.5 12 C 20.776142 12 21 12.2238 21 12.5 L 21 13.5 C 21 13.7762 20.776142 14 20.5 14 L 19.5 14 C 19.223858 14 19 13.7762 19 13.5 L 19 12.5 C 19 12.2238 19.223858 12 19.5 12 z M 3.5 15 L 4.5 15 C 4.776142 15 5 15.2238 5 15.5 L 5 16.5 C 5 16.7762 4.776142 17 4.5 17 L 3.5 17 C 3.223858 17 3 16.7762 3 16.5 L 3 15.5 C 3 15.2238 3.223858 15 3.5 15 z M 19.5 15 L 20.5 15 C 20.776142 15 21 15.2238 21 15.5 L 21 16.5 C 21 16.7762 20.776142 17 20.5 17 L 19.5 17 C 19.223858 17 19 16.7762 19 16.5 L 19 15.5 C 19 15.2238 19.223858 15 19.5 15 z M 3.5 18 L 4.5 18 C 4.776142 18 5 18.2238 5 18.5 L 5 19.5 C 5 19.7762 4.776142 20 4.5 20 L 3.5 20 C 3.223858 20 3 19.7762 3 19.5 L 3 18.5 C 3 18.2238 3.223858 18 3.5 18 z M 19.5 18 L 20.5 18 C 20.776142 18 21 18.2238 21 18.5 L 21 19.5 C 21 19.7762 20.776142 20 20.5 20 L 19.5 20 C 19.223858 20 19 19.7762 19 19.5 L 19 18.5 C 19 18.2238 19.223858 18 19.5 18 z "
       transform="translate(0,1028.3622)"
       id="rect3826-4-1" />
    <path
       style="fill:#c0392b;fill-opacity:1;fill-rule:nonzero;stroke:none"
       d="M 2,1040.3622 2,1045.3622 2,1048.3622 2,1049.3622 C 2,1050.4668 2.89543,1051.3622 4,1051.3622 L 6,1051.3622 18,1051.3622 20,1051.3622 C 21.104569,1051.3622 22,1050.4668 22,1049.3622 L 22,1048.3622 22,1045.3622 22,1040.3622 20.5,1040.3622 C 20.776142,1040.3622 21,1040.586 21,1040.8622 L 21,1041.8622 C 21,1042.1384 20.776142,1042.3622 20.5,1042.3622 L 19.5,1042.3622 C 19.223858,1042.3622 19,1042.1384 19,1041.8622 L 19,1040.8622 C 19,1040.586 19.223858,1040.3622 19.5,1040.3622 L 4.5,1040.3622 C 4.776142,1040.3622 5,1040.586 5,1040.8622 L 5,1041.8622 C 5,1042.1384 4.776142,1042.3622 4.5,1042.3622 L 3.5,1042.3622 C 3.223858,1042.3622 3,1042.1384 3,1041.8622 L 3,1040.8622 C 3,1040.586 3.223858,1040.3622 3.5,1040.3622 L 2,1040.3622 z M 3.5,1043.3622 4.5,1043.3622 C 4.776142,1043.3622 5,1043.586 5,1043.8622 L 5,1044.8622 C 5,1045.1384 4.776142,1045.3622 4.5,1045.3622 L 3.5,1045.3622 C 3.223858,1045.3622 3,1045.1384 3,1044.8622 L 3,1043.8622 C 3,1043.586 3.223858,1043.3622 3.5,1043.3622 z M 19.5,1043.3622 20.5,1043.3622 C 20.776142,1043.3622 21,1043.586 21,1043.8622 L 21,1044.8622 C 21,1045.1384 20.776142,1045.3622 20.5,1045.3622 L 19.5,1045.3622 C 19.223858,1045.3622 19,1045.1384 19,1044.8622 L 19,1043.8622 C 19,1043.586 19.223858,1043.3622 19.5,1043.3622 z M 3.5,1046.3622 4.5,1046.3622 C 4.776142,1046.3622 5,1046.586 5,1046.8622 L 5,1047.8622 C 5,1048.1384 4.776142,1048.3622 4.5,1048.3622 L 3.5,1048.3622 C 3.223858,1048.3622 3,1048.1384 3,1047.8622 L 3,1046.8622 C 3,1046.586 3.223858,1046.3622 3.5,1046.3622 z M 19.5,1046.3622 20.5,1046.3622 C 20.776142,1046.3622 21,1046.586 21,1046.8622 L 21,1047.8622 C 21,1048.1384 20.776142,1048.3622 20.5,1048.3622 L 19.5,1048.3622 C 19.223858,1048.3622 19,1048.1384 19,1047.8622 L 19,1046.8622 C 19,1046.586 19.223858,1046.3622 19.5,1046.3622 z"
       id="rect3826-4-1-3"
       inkscape:connector-curvature="0" />
    <path
       d="M 5,22.000055 5,1.8038571 22.660255,11.901956 z"
       transform="matrix(0.28312162,0,0,0.29708562,8.5843919,1036.8263)"
       id="path3674"
       style="fill:#ecf0f1;fill-opacity:1;fill-rule:nonzero;stroke:none"
       inkscape:connector-curvature="0"
       sodipodi:nodetypes="cccc" />
  </g>
</svg>
