<?xml version="1.0" encoding="UTF-8" standalone="no"?>
<!-- Created with Inkscape (http://www.inkscape.org/) -->

<svg
   xmlns:dc="http://purl.org/dc/elements/1.1/"
   xmlns:cc="http://creativecommons.org/ns#"
   xmlns:rdf="http://www.w3.org/1999/02/22-rdf-syntax-ns#"
   xmlns:svg="http://www.w3.org/2000/svg"
   xmlns="http://www.w3.org/2000/svg"
   xmlns:sodipodi="http://sodipodi.sourceforge.net/DTD/sodipodi-0.dtd"
   xmlns:inkscape="http://www.inkscape.org/namespaces/inkscape"
   version="1.1"
   width="24"
   height="24"
   id="svg2"
   inkscape:version="0.48.3.1 r9886"
   sodipodi:docname="file-link.svg">
  <sodipodi:namedview
     pagecolor="#ffffff"
     bordercolor="#666666"
     borderopacity="1"
     objecttolerance="10"
     gridtolerance="10"
     guidetolerance="10"
     inkscape:pageopacity="0"
     inkscape:pageshadow="2"
     inkscape:window-width="1920"
     inkscape:window-height="1150"
     id="namedview3622"
     showgrid="true"
     inkscape:zoom="27.812867"
     inkscape:cx="16.547513"
     inkscape:cy="11.704799"
     inkscape:window-x="0"
     inkscape:window-y="0"
     inkscape:window-maximized="1"
     inkscape:current-layer="layer1">
    <inkscape:grid
       type="xygrid"
       id="grid2988"
       empspacing="4"
       visible="true"
       enabled="true"
       snapvisiblegridlinesonly="true" />
  </sodipodi:namedview>
  <defs
     id="defs4" />
  <metadata
     id="metadata7">
    <rdf:RDF>
      <cc:Work
         rdf:about="">
        <dc:format>image/svg+xml</dc:format>
        <dc:type
           rdf:resource="http://purl.org/dc/dcmitype/StillImage" />
        <dc:title />
      </cc:Work>
    </rdf:RDF>
  </metadata>
  <g
     transform="translate(0,-1028.3622)"
     id="layer1">
    <path
       d="M 5,1030.3622 C 3.895431,1030.3622 3,1031.2576 3,1032.3622 L 3,1040.3622 3,1044.3622 3,1050.3622 C 3,1051.4668 3.89543,1052.3622 5,1052.3622 L 19,1052.3622 C 20.104569,1052.3622 21,1051.4668 21,1050.3622 L 21,1044.3622 21,1040.3622 21,1036.3622 15,1030.3622 5,1030.3622 z"
       inkscape:connector-curvature="0"
       id="path2987-2"
       style="fill:#95a5a6;fill-opacity:1;fill-rule:nonzero;stroke:none" />
    <path
       d="M 5,1029.3622 C 3.895431,1029.3622 3,1030.2576 3,1031.3622 L 3,1039.3622 3,1043.3622 3,1049.3622 C 3,1050.4668 3.89543,1051.3622 5,1051.3622 L 19,1051.3622 C 20.104569,1051.3622 21,1050.4668 21,1049.3622 L 21,1043.3622 21,1039.3622 21,1035.3622 15,1029.3622 5,1029.3622 z"
       inkscape:connector-curvature="0"
       id="path2987"
       style="fill:#bdc3c7;fill-opacity:1;fill-rule:nonzero;stroke:none" />
    <path
       d="M 21,1035.3622 15,1029.3622 15,1033.3622 C 15,1034.4668 15.89543,1035.3622 17,1035.3622 L 21,1035.3622 z"
       inkscape:connector-curvature="0"
       id="path2987-80"
       style="fill:#95a5a6;fill-opacity:1;fill-rule:nonzero;stroke:none" />
    <g
       transform="translate(24.073759,1030.4315)"
       style="font-size:14px;font-style:normal;font-variant:normal;font-weight:normal;font-stretch:normal;text-align:end;line-height:125%;letter-spacing:0px;word-spacing:0px;text-anchor:end;fill:#7f8c8d;fill-opacity:1;stroke:none;font-family:Wingdings;-inkscape-font-specification:Wingdings"
       id="text2990">
      <path
         d="M -7.2221961,13.805719 C -7.2222075,13.597389 -7.2951241,13.420306 -7.4409461,13.274469 L -9.0659461,11.649469 C -9.2117888,11.503641 -9.388872,11.430724 -9.5971961,11.430719 -9.8159549,11.430724 -10.003455,11.514058 -10.159696,11.680719 -10.14408,11.696349 -10.0946,11.745828 -10.011259,11.829157 -9.9279339,11.907286 -9.8732465,11.961974 -9.8471961,11.993219 -9.8159549,12.024474 -9.7768924,12.073953 -9.7300086,12.141657 -9.6779342,12.209369 -9.6440801,12.277078 -9.6284461,12.344782 -9.6076218,12.407286 -9.5972051,12.477598 -9.5971961,12.555719 -9.5972051,12.764056 -9.6701217,12.941139 -9.8159461,13.086969 -9.9617881,13.232806 -10.138871,13.305722 -10.347196,13.305719 -10.425329,13.305722 -10.498246,13.29791 -10.565946,13.282282 -10.628454,13.261452 -10.693558,13.227597 -10.761259,13.180719 -10.828975,13.128639 -10.878454,13.089577 -10.909696,13.063532 -10.940954,13.032285 -10.998245,12.974994 -11.081571,12.891657 -11.159704,12.808327 -11.206578,12.758848 -11.222196,12.743219 -11.394078,12.904681 -11.480016,13.094785 -11.480009,13.313532 -11.480016,13.521868 -11.407099,13.698951 -11.261259,13.844782 L -9.6518836,15.461969 C -9.5112677,15.602595 -9.3341845,15.672908 -9.1206336,15.672907 -8.91231,15.672908 -8.7352268,15.605199 -8.5893836,15.469782 L -7.4409461,14.329157 C -7.2951241,14.183326 -7.2222075,14.008847 -7.2221961,13.805719 M -12.714384,8.2979069 C -12.714389,8.0895818 -12.787306,7.9124986 -12.933134,7.7666569 L -14.542509,6.1494694 C -14.688346,6.0036463 -14.865429,5.9307298 -15.073759,5.9307194 -15.276887,5.9307298 -15.45397,6.0010422 -15.605009,6.1416569 L -16.753446,7.2822819 C -16.899281,7.4281241 -16.972198,7.6026031 -16.972196,7.8057194 -16.972198,8.014061 -16.899281,8.1911442 -16.753446,8.3369694 L -15.128446,9.9619694 C -14.987825,10.102601 -14.810742,10.172913 -14.597196,10.172907 -14.37845,10.172913 -14.190951,10.092184 -14.034696,9.9307194 -14.050326,9.9151008 -14.099805,9.8682258 -14.183134,9.7900944 -14.266471,9.7067676 -14.323763,9.649476 -14.355009,9.6182194 -14.381054,9.5869761 -14.420117,9.537497 -14.472196,9.4697819 -14.519075,9.4020804 -14.552929,9.3369763 -14.573759,9.2744694 -14.589388,9.2067681 -14.5972,9.1338515 -14.597196,9.0557194 -14.5972,8.8473935 -14.524284,8.6703103 -14.378446,8.5244694 -14.232617,8.378644 -14.055534,8.3057274 -13.847196,8.3057194 -13.769076,8.3057274 -13.698764,8.316144 -13.636259,8.3369694 -13.568555,8.3526023 -13.500847,8.3864565 -13.433134,8.4385319 -13.365431,8.4854147 -13.315951,8.5244772 -13.284696,8.5557194 -13.253451,8.5817688 -13.198764,8.6364562 -13.120634,8.7197819 -13.037306,8.8031227 -12.987827,8.8526018 -12.972196,8.8682194 -12.800327,8.7067686 -12.714389,8.5166647 -12.714384,8.2979069 M -6.3784461,12.211969 C -5.9409588,12.649473 -5.722209,13.180723 -5.7221961,13.805719 -5.722209,14.430721 -5.9435629,14.959367 -6.3862586,15.391657 L -7.5346961,16.532282 C -7.9669984,16.964573 -8.4956437,17.180719 -9.1206336,17.180719 -9.7508508,17.180719 -10.2821,16.959365 -10.714384,16.516657 L -12.323759,14.899469 C -12.756056,14.46718 -12.972202,13.938534 -12.972196,13.313532 -12.972202,12.672911 -12.743035,12.12864 -12.284696,11.680719 L -12.972196,10.993219 C -13.420118,11.451558 -13.961784,11.680724 -14.597196,11.680719 -15.222199,11.680724 -15.753449,11.461974 -16.190946,11.024469 L -17.815946,9.3994694 C -18.253446,8.9619767 -18.472196,8.4307273 -18.472196,7.8057194 -18.472196,7.1807285 -18.250842,6.6520832 -17.808134,6.2197819 L -16.659696,5.0791569 C -16.227407,4.6468769 -15.698762,4.4307313 -15.073759,4.4307194 -14.443554,4.4307313 -13.912305,4.6520852 -13.480009,5.0947819 L -11.870634,6.7119694 C -11.438349,7.1442702 -11.222203,7.6729155 -11.222196,8.2979069 -11.222203,8.9385392 -11.45137,9.4828095 -11.909696,9.9307194 L -11.222196,10.618219 C -10.774287,10.159892 -10.232621,9.9307258 -9.5971961,9.9307194 -8.9722057,9.9307258 -8.4409563,10.149476 -8.0034461,10.586969 L -6.3784461,12.211969"
         id="path2997"
         inkscape:connector-curvature="0"
         style="fill:#7f8c8d" />
    </g>
  </g>
</svg>
