<?xml version="1.0" encoding="UTF-8" standalone="no"?>
<!-- Created with Inkscape (http://www.inkscape.org/) -->

<svg
   xmlns:dc="http://purl.org/dc/elements/1.1/"
   xmlns:cc="http://creativecommons.org/ns#"
   xmlns:rdf="http://www.w3.org/1999/02/22-rdf-syntax-ns#"
   xmlns:svg="http://www.w3.org/2000/svg"
   xmlns="http://www.w3.org/2000/svg"
   xmlns:sodipodi="http://sodipodi.sourceforge.net/DTD/sodipodi-0.dtd"
   xmlns:inkscape="http://www.inkscape.org/namespaces/inkscape"
   version="1.1"
   width="24"
   height="24"
   id="svg2"
   inkscape:version="0.48.3.1 r9886"
   sodipodi:docname="file-zip.svg">
  <sodipodi:namedview
     pagecolor="#ffffff"
     bordercolor="#666666"
     borderopacity="1"
     objecttolerance="10"
     gridtolerance="10"
     guidetolerance="10"
     inkscape:pageopacity="0"
     inkscape:pageshadow="2"
     inkscape:window-width="1920"
     inkscape:window-height="1150"
     id="namedview3838"
     showgrid="false"
     inkscape:zoom="4.9166667"
     inkscape:cx="11.551206"
     inkscape:cy="20.538264"
     inkscape:window-x="0"
     inkscape:window-y="0"
     inkscape:window-maximized="1"
     inkscape:current-layer="layer1" />
  <defs
     id="defs4" />
  <metadata
     id="metadata7">
    <rdf:RDF>
      <cc:Work
         rdf:about="">
        <dc:format>image/svg+xml</dc:format>
        <dc:type
           rdf:resource="http://purl.org/dc/dcmitype/StillImage" />
        <dc:title />
      </cc:Work>
    </rdf:RDF>
  </metadata>
  <g
     transform="translate(0,-1028.3622)"
     id="layer1">
    <path
       d="M 2,1033.3622 C 0.895431,1033.3622 0,1034.2576 0,1035.3622 L 0,1049.3622 C 0,1050.4668 0.89543,1051.3622 2,1051.3622 L 22,1051.3622 C 23.104569,1051.3622 24,1050.4668 24,1049.3622 L 24,1035.3622 C 24,1034.2576 23.10457,1033.3622 22,1033.3622 L 2,1033.3622 z"
       inkscape:connector-curvature="0"
       id="path2987-6-7-6"
       style="fill:#e67e22;fill-opacity:1;fill-rule:nonzero;stroke:none" />
    <path
       d="M 2,1032.3622 C 0.895431,1032.3622 0,1033.2576 0,1034.3622 L 0,1048.3622 C 0,1049.4668 0.89543,1050.3622 2,1050.3622 L 22,1050.3622 C 23.104569,1050.3622 24,1049.4668 24,1048.3622 L 24,1034.3622 C 24,1033.2576 23.10457,1032.3622 22,1032.3622 L 2,1032.3622 z"
       inkscape:connector-curvature="0"
       id="path2987-6-8"
       style="fill:#f39c12;fill-opacity:1;fill-rule:nonzero;stroke:none" />
    <path
       d="M 2,1031.3622 C 0.895431,1031.3622 0,1032.2576 0,1033.3622 L 0,1047.3622 C 0,1048.4668 0.89543,1049.3622 2,1049.3622 L 22,1049.3622 C 23.104569,1049.3622 24,1048.4668 24,1047.3622 L 24,1033.3622 C 24,1032.2576 23.10457,1031.3622 22,1031.3622 L 2,1031.3622 z"
       inkscape:connector-curvature="0"
       id="path2987-6-7"
       style="fill:#e67e22;fill-opacity:1;fill-rule:nonzero;stroke:none" />
    <path
       d="M 2,1030.3622 C 0.895431,1030.3622 0,1031.2576 0,1032.3622 L 0,1046.3622 C 0,1047.4668 0.89543,1048.3622 2,1048.3622 L 22,1048.3622 C 23.104569,1048.3622 24,1047.4668 24,1046.3622 L 24,1032.3622 C 24,1031.2576 23.10457,1030.3622 22,1030.3622 L 2,1030.3622 z"
       inkscape:connector-curvature="0"
       id="path2987-6"
       style="fill:#f1c40f;fill-opacity:1;fill-rule:nonzero;stroke:none" />
    <path
       d="M 16,1030.3622 16,1031.3622 16,1044.3622 C 16,1045.4668 16.895431,1046.3622 18,1046.3622 19.104569,1046.3622 20,1045.4668 20,1044.3622 L 20,1031.3622 20,1030.3622 16,1030.3622 z"
       inkscape:connector-curvature="0"
       id="path4062"
       style="fill:#34495e;fill-opacity:1;fill-rule:nonzero;stroke:none" />
    <path
       d="M 18,2 18,3 19,3 19,2 18,2 z M 18,3 17,3 17,4 18,4 18,3 z M 18,4 18,5 19,5 19,4 18,4 z M 18,5 17,5 17,6 18,6 18,5 z M 18,6 18,7 19,7 19,6 18,6 z M 18,7 17,7 17,8 18,8 18,7 z M 18,8 18,9 19,9 19,8 18,8 z M 18,9 17,9 17,10 18,10 18,9 z M 18,10 18,11 19,11 19,10 18,10 z M 18,11 17,11 17,12 18,12 18,11 z M 18,12 18,13 19,13 19,12 18,12 z M 18,13 17,13 17,14 18,14 18,13 z M 18,14 18,15 19,15 19,14 18,14 z M 18,15 17,15 17,16 18,16 18,15 z M 18,16 18,17 19,17 19,16 18,16 z"
       inkscape:connector-curvature="0"
       transform="translate(0,1028.3622)"
       id="rect3991"
       style="fill:#7f8c8d;fill-opacity:1;fill-rule:nonzero;stroke:none" />
    <path
       d="M 17,1030.3622 17,1031.3622 18,1031.3622 18,1030.3622 17,1030.3622 z M 17,1032.3622 17,1033.3622 18,1033.3622 18,1032.3622 17,1032.3622 z M 17,1034.3622 17,1035.3622 18,1035.3622 18,1034.3622 17,1034.3622 z M 17,1036.3622 17,1037.3622 18,1037.3622 18,1036.3622 17,1036.3622 z M 17,1038.3622 17,1039.3622 18,1039.3622 18,1038.3622 17,1038.3622 z M 17,1040.3622 17,1041.3622 18,1041.3622 18,1040.3622 17,1040.3622 z M 17,1042.3622 17,1043.3622 18,1043.3622 18,1042.3622 17,1042.3622 z M 17,1044.3622 17,1045.3622 18,1045.3622 18,1044.3622 17,1044.3622 z"
       inkscape:connector-curvature="0"
       id="rect3991-0"
       style="fill:#bdc3c7;fill-opacity:1;fill-rule:nonzero;stroke:none" />
  </g>
</svg>
