<?xml version="1.0" encoding="UTF-8" standalone="no"?>
<!-- Created with Inkscape (http://www.inkscape.org/) -->

<svg
   xmlns:dc="http://purl.org/dc/elements/1.1/"
   xmlns:cc="http://creativecommons.org/ns#"
   xmlns:rdf="http://www.w3.org/1999/02/22-rdf-syntax-ns#"
   xmlns:svg="http://www.w3.org/2000/svg"
   xmlns="http://www.w3.org/2000/svg"
   xmlns:sodipodi="http://sodipodi.sourceforge.net/DTD/sodipodi-0.dtd"
   xmlns:inkscape="http://www.inkscape.org/namespaces/inkscape"
   width="24"
   height="24"
   id="svg2"
   version="1.1"
   inkscape:version="0.48.3.1 r9886"
   sodipodi:docname="flag-ALT.svg">
  <defs
     id="defs4" />
  <sodipodi:namedview
     id="base"
     pagecolor="#ffffff"
     bordercolor="#666666"
     borderopacity="1.0"
     inkscape:pageopacity="0.0"
     inkscape:pageshadow="2"
     inkscape:zoom="32"
     inkscape:cx="12.378747"
     inkscape:cy="11.314166"
     inkscape:document-units="px"
     inkscape:current-layer="layer1"
     showgrid="true"
     inkscape:window-width="1920"
     inkscape:window-height="1150"
     inkscape:window-x="0"
     inkscape:window-y="0"
     inkscape:window-maximized="1"
     inkscape:snap-nodes="true"
     inkscape:snap-global="true"
     inkscape:snap-bbox="true"
     inkscape:bbox-paths="true">
    <inkscape:grid
       type="xygrid"
       id="grid2985"
       empspacing="4"
       visible="true"
       enabled="true"
       snapvisiblegridlinesonly="true" />
  </sodipodi:namedview>
  <metadata
     id="metadata7">
    <rdf:RDF>
      <cc:Work
         rdf:about="">
        <dc:format>image/svg+xml</dc:format>
        <dc:type
           rdf:resource="http://purl.org/dc/dcmitype/StillImage" />
        <dc:title />
      </cc:Work>
    </rdf:RDF>
  </metadata>
  <g
     inkscape:label="Layer 1"
     inkscape:groupmode="layer"
     id="layer1"
     transform="translate(0,-1028.3622)">
    <rect
       style="fill:#ecf0f1;fill-opacity:1;fill-rule:nonzero;stroke:none"
       id="rect2985"
       width="1"
       height="21.999998"
       x="3"
       y="1030.3622" />
    <path
       style="fill:#bdc3c7;fill-opacity:1;fill-rule:nonzero;stroke:none"
       d="M 17.5,1030.3622 C 15.25,1030.3622 13,1031.5051 13,1031.5051 13,1031.5051 10.75,1032.6479 8.5,1032.6479 6.25,1032.6479 4,1031.5051 4,1031.5051 L 4,1045.2193 C 4,1045.2193 6.25,1046.3622 8.5,1046.3622 10.75,1046.3622 13,1045.2193 13,1045.2193 13,1045.2193 15.25,1044.0765 17.5,1044.0765 19.75,1044.0765 22,1045.2193 22,1045.2193 L 22,1031.5051 C 22,1031.5051 19.75,1030.3622 17.5,1030.3622 z"
       id="rect2989"
       inkscape:connector-curvature="0" />
    <rect
       style="fill:#bdc3c7;fill-opacity:1;fill-rule:nonzero;stroke:none"
       id="rect2985-6"
       width="1"
       height="22.000017"
       x="2"
       y="1030.3622" />
    <path
       style="fill:#95a5a6;fill-opacity:1;fill-rule:nonzero;stroke:none"
       d="M 17.5,1043.2059 C 15.25,1043.2059 13,1044.3622 13,1044.3622 13,1044.3622 10.75,1045.5184 8.5,1045.5184 6.25,1045.5184 4,1044.3622 4,1044.3622 L 4,1045.3622 C 4,1045.3622 6.25,1046.5184 8.5,1046.5184 10.75,1046.5184 13,1045.3622 13,1045.3622 13,1045.3622 15.25,1044.2059 17.5,1044.2059 19.75,1044.2059 22,1045.3622 22,1045.3622 L 22,1044.3622 C 22,1044.3622 19.75,1043.2059 17.5,1043.2059 z"
       id="rect2989-7"
       inkscape:connector-curvature="0" />
    <path
       style="fill:#95a5a6;fill-opacity:1;fill-rule:nonzero;stroke:none"
       d="M 3,1029.3622 C 2.4477153,1029.3622 2,1029.8099 2,1030.3622 L 4,1030.3622 C 4,1029.8099 3.5522847,1029.3622 3,1029.3622 z"
       id="path3328"
       inkscape:connector-curvature="0" />
    <path
       style="fill:#bdc3c7;fill-opacity:1;fill-rule:nonzero;stroke:none"
       d="M 3,1029.3622 3,1030.3622 4,1030.3622 C 4,1029.8099 3.5522847,1029.3622 3,1029.3622 z"
       id="path3328-4"
       inkscape:connector-curvature="0" />
    <path
       style="fill:#2c3e50;fill-opacity:1;fill-rule:nonzero;stroke:none"
       d="M 19,1030.5185 19,1035.3622 22,1036.3622 22,1031.5185 C 22,1031.5185 20.653151,1030.8314 19,1030.5185 z M 19,1035.3622 15,1034.3622 15,1039.3622 19,1040.3622 z M 19,1040.3622 19,1043.3622 C 20.653151,1043.6752 22,1044.3622 22,1044.3622 L 22,1040.3622 z M 15,1039.3622 11,1040.3622 11,1045.1122 C 12.15743,1044.7771 13,1044.3622 13,1044.3622 13,1044.3622 13.84257,1043.9473 15,1043.6122 z M 11,1040.3622 11,1035.3622 7,1036.3622 7,1041.3622 z M 7,1041.3622 4,1040.3622 4,1044.3622 C 4,1044.3622 5.346849,1045.0492 7,1045.3622 z M 7,1036.3622 7,1032.4872 C 5.346849,1032.1827 4,1031.5185 4,1031.5185 L 4,1035.3622 z M 11,1035.3622 15,1034.3622 15,1030.7685 C 13.843128,1031.1035 13,1031.5185 13,1031.5185 13,1031.5185 12.15743,1031.9424 11,1032.2685 z"
       id="rect2989-2"
       inkscape:connector-curvature="0"
       sodipodi:nodetypes="cccccccccccccccccccccccccccccccccccccccccc" />
  </g>
</svg>
