<?xml version="1.0" encoding="UTF-8" standalone="no"?>
<!-- Created with Inkscape (http://www.inkscape.org/) -->

<svg
   xmlns:dc="http://purl.org/dc/elements/1.1/"
   xmlns:cc="http://creativecommons.org/ns#"
   xmlns:rdf="http://www.w3.org/1999/02/22-rdf-syntax-ns#"
   xmlns:svg="http://www.w3.org/2000/svg"
   xmlns="http://www.w3.org/2000/svg"
   xmlns:sodipodi="http://sodipodi.sourceforge.net/DTD/sodipodi-0.dtd"
   xmlns:inkscape="http://www.inkscape.org/namespaces/inkscape"
   width="24"
   height="24"
   id="svg2"
   version="1.1"
   inkscape:version="0.48.3.1 r9886"
   sodipodi:docname="flask.svg">
  <defs
     id="defs4" />
  <sodipodi:namedview
     id="base"
     pagecolor="#ffffff"
     bordercolor="#666666"
     borderopacity="1.0"
     inkscape:pageopacity="0.0"
     inkscape:pageshadow="2"
     inkscape:zoom="16"
     inkscape:cx="2.622137"
     inkscape:cy="5.2732754"
     inkscape:document-units="px"
     inkscape:current-layer="text2993"
     showgrid="true"
     inkscape:window-width="1920"
     inkscape:window-height="1150"
     inkscape:window-x="0"
     inkscape:window-y="0"
     inkscape:window-maximized="1"
     inkscape:snap-nodes="true"
     inkscape:snap-bbox="true"
     inkscape:snap-global="true"
     inkscape:snap-bbox-midpoints="false">
    <inkscape:grid
       type="xygrid"
       id="grid2985"
       empspacing="4"
       visible="true"
       enabled="true"
       snapvisiblegridlinesonly="true" />
  </sodipodi:namedview>
  <metadata
     id="metadata7">
    <rdf:RDF>
      <cc:Work
         rdf:about="">
        <dc:format>image/svg+xml</dc:format>
        <dc:type
           rdf:resource="http://purl.org/dc/dcmitype/StillImage" />
        <dc:title />
      </cc:Work>
    </rdf:RDF>
  </metadata>
  <g
     inkscape:label="Layer 1"
     inkscape:groupmode="layer"
     id="layer1"
     transform="translate(0,-1028.3622)">
    <g
       style="font-size:8px;font-style:normal;font-variant:normal;font-weight:normal;font-stretch:normal;text-align:end;line-height:125%;letter-spacing:0px;word-spacing:0px;text-anchor:end;fill:#2980b9;fill-opacity:1;stroke:none;font-family:FontAwesome;-inkscape-font-specification:FontAwesome"
       id="text2993">
      <path
         style="fill:#ecf0f1;stroke:none;stroke-width:1px;stroke-linecap:butt;stroke-linejoin:miter;stroke-opacity:1;fill-opacity:1"
         d="M 9,1030.3622 15,1030.3622 15,1038.3622 22,1049.3622 20,1051.3622 4,1051.3622 2,1049.3622 9,1038.3622 z"
         id="path2992"
         inkscape:connector-curvature="0" />
      <path
         sodipodi:type="arc"
         style="fill:#2ecc71;fill-opacity:1;fill-rule:nonzero;stroke:none"
         id="path3851"
         sodipodi:cx="15.5"
         sodipodi:cy="15.5"
         sodipodi:rx="1.5"
         sodipodi:ry="1.5"
         d="M 17,15.5 A 1.5,1.5 0 1 1 14,15.5 1.5,1.5 0 1 1 17,15.5 z"
         transform="translate(-0.5,1028.3622)" />
      <path
         style="font-size:8px;font-style:normal;font-variant:normal;font-weight:normal;font-stretch:normal;text-align:end;line-height:125%;letter-spacing:0px;word-spacing:0px;text-anchor:end;fill:#bdc3c7;fill-opacity:1;stroke:none;font-family:FontAwesome;-inkscape-font-specification:FontAwesome"
         d="M 12,1030.3622 12,1051.3622 4,1051.3622 2,1049.3622 9,1038.3622 9,1030.3622 12,1030.3622 z"
         id="path2992-8"
         inkscape:connector-curvature="0" />
      <path
         sodipodi:type="arc"
         style="fill:#2ecc71;fill-opacity:1;fill-rule:nonzero;stroke:none"
         id="path3849"
         sodipodi:cx="30"
         sodipodi:cy="10"
         sodipodi:rx="2"
         sodipodi:ry="2"
         d="M 32,10 A 2,2 0 1 1 28,10 2,2 0 1 1 32,10 z"
         transform="translate(-19,1033.3622)" />
      <path
         style="font-size:8px;font-style:normal;font-variant:normal;font-weight:normal;font-stretch:normal;text-align:end;line-height:125%;letter-spacing:0px;word-spacing:0px;text-anchor:end;fill:#27ae60;fill-opacity:1;stroke:none;font-family:FontAwesome;-inkscape-font-specification:FontAwesome"
         d="M 5,1050.3622 C 10,1050.3622 15,1050.3622 20,1050.3622 20.333333,1050.0289 20.666667,1049.6955 21,1049.3622 19.666667,1047.3622 18.333333,1045.3622 17,1043.3622 13.666667,1043.3622 10.333333,1043.3622 7,1043.3622 5.666667,1045.3622 4.333333,1047.3622 3,1049.3622 3.333333,1049.6955 3.666667,1050.0289 4,1050.3622 4.333333,1050.3622 4.666667,1050.3622 5,1050.3622 z"
         id="path3804-7"
         inkscape:connector-curvature="0" />
      <path
         style="fill:#2ecc71;fill-opacity:1;stroke:none"
         d="M 17,1043.3622 21,1049.3622 C 20.666667,1049.6955 20.333333,1050.0289 20,1050.3622 L 19,1050.3622 12,1050.3622 12,1043.3622 17,1043.3622 z"
         id="path3804"
         inkscape:connector-curvature="0" />
      <path
         style="font-size:8px;font-style:normal;font-variant:normal;font-weight:normal;font-stretch:normal;text-align:end;line-height:125%;letter-spacing:0px;word-spacing:0px;text-anchor:end;fill:#27ae60;fill-opacity:1;stroke:none;font-family:FontAwesome;-inkscape-font-specification:FontAwesome"
         d="M 7,1043.3622 6.34375,1044.3622 17.65625,1044.3622 17,1043.3622 7,1043.3622 z"
         id="path3804-7-6"
         inkscape:connector-curvature="0" />
      <path
         style="font-size:8px;font-style:normal;font-variant:normal;font-weight:normal;font-stretch:normal;text-align:end;line-height:125%;letter-spacing:0px;word-spacing:0px;text-anchor:end;fill:#bdc3c7;fill-opacity:1;stroke:none;font-family:FontAwesome;-inkscape-font-specification:FontAwesome"
         d="M 3,1050.3622 4,1051.3622 20,1051.3622 21,1050.3622 3,1050.3622 z"
         id="path2992-9"
         inkscape:connector-curvature="0" />
    </g>
  </g>
</svg>
