<?xml version="1.0" encoding="UTF-8" standalone="no"?>
<!-- Created with Inkscape (http://www.inkscape.org/) -->

<svg
   xmlns:dc="http://purl.org/dc/elements/1.1/"
   xmlns:cc="http://creativecommons.org/ns#"
   xmlns:rdf="http://www.w3.org/1999/02/22-rdf-syntax-ns#"
   xmlns:svg="http://www.w3.org/2000/svg"
   xmlns="http://www.w3.org/2000/svg"
   xmlns:sodipodi="http://sodipodi.sourceforge.net/DTD/sodipodi-0.dtd"
   xmlns:inkscape="http://www.inkscape.org/namespaces/inkscape"
   version="1.1"
   width="24"
   height="24"
   id="svg2"
   inkscape:version="0.48.3.1 r9886"
   sodipodi:docname="floppy.svg">
  <sodipodi:namedview
     pagecolor="#ffffff"
     bordercolor="#666666"
     borderopacity="1"
     objecttolerance="10"
     gridtolerance="10"
     guidetolerance="10"
     inkscape:pageopacity="0"
     inkscape:pageshadow="2"
     inkscape:window-width="1920"
     inkscape:window-height="1150"
     id="namedview3944"
     showgrid="true"
     inkscape:zoom="13.906433"
     inkscape:cx="43.121105"
     inkscape:cy="27.107642"
     inkscape:window-x="0"
     inkscape:window-y="0"
     inkscape:window-maximized="1"
     inkscape:current-layer="layer1">
    <inkscape:grid
       type="xygrid"
       id="grid2992"
       empspacing="4"
       visible="true"
       enabled="true"
       snapvisiblegridlinesonly="true" />
  </sodipodi:namedview>
  <defs
     id="defs4" />
  <metadata
     id="metadata7">
    <rdf:RDF>
      <cc:Work
         rdf:about="">
        <dc:format>image/svg+xml</dc:format>
        <dc:type
           rdf:resource="http://purl.org/dc/dcmitype/StillImage" />
        <dc:title />
      </cc:Work>
    </rdf:RDF>
  </metadata>
  <g
     transform="translate(0,-1028.3622)"
     id="layer1">
    <path
       style="fill:#2980b9;fill-opacity:1;fill-rule:nonzero;stroke:none"
       d="M 4,1037.3622 4,1039.3622 4,1041.3622 4,1047.3622 C 4,1048.4668 4.89543,1049.3622 6,1049.3622 L 20,1049.3622 C 21.104569,1049.3622 22,1048.4668 22,1047.3622 L 22,1041.3622 22,1039.3622 22,1037.3622 4,1037.3622 z"
       id="path2987-1"
       inkscape:connector-curvature="0" />
    <path
       inkscape:connector-curvature="0"
       style="fill:#3498db;fill-opacity:1;fill-rule:nonzero;stroke:none"
       d="M 6,1031.3622 C 4.895431,1031.3622 4,1032.2576 4,1033.3622 L 4,1035.3622 4,1037.3622 4,1038.3622 4,1040.3622 4,1046.3622 C 4,1047.4668 4.89543,1048.3622 6,1048.3622 L 20,1048.3622 C 21.104569,1048.3622 22,1047.4668 22,1046.3622 L 22,1040.3622 22,1038.3622 22,1037.3622 22,1035.3622 22,1034.3622 19,1031.3622 18,1031.3622 16,1031.3622 6,1031.3622 z"
       id="path2987" />
    <path
       style="fill:#ecf0f1;fill-opacity:1;fill-rule:nonzero;stroke:none"
       d="M 9,1041.3622 C 7.89543,1041.3622 7,1042.2576 7,1043.3622 L 7,1045.206 7,1048.3622 19,1048.3622 19,1045.206 19,1043.3622 C 19,1042.2576 18.10457,1041.3622 17,1041.3622 L 14,1041.3622 9,1041.3622 z"
       id="path2987-2"
       inkscape:connector-curvature="0" />
    <rect
       style="fill:#bdc3c7;fill-opacity:1;fill-rule:nonzero;stroke:none"
       id="rect3109"
       width="12"
       height="1"
       x="7"
       y="1048.3622" />
    <path
       style="fill:#2980b9;fill-opacity:1;fill-rule:nonzero;stroke:none"
       d="M 7,1031.3622 7,1032.3622 7,1034.3622 C 7,1035.4668 7.89543,1036.3622 9,1036.3622 L 10,1036.3622 14,1036.3622 15,1036.3622 C 16.10457,1036.3622 17,1035.4668 17,1034.3622 L 17,1032.5185 17,1032.3622 17,1031.3622 7,1031.3622 z"
       id="path2987-2-2-0-6"
       inkscape:connector-curvature="0" />
    <path
       style="fill:#ecf0f1;fill-opacity:1;fill-rule:nonzero;stroke:none"
       d="M 8,1031.3622 8,1032.3622 8,1034.3622 C 8,1035.4668 8.89543,1036.3622 10,1036.3622 L 11,1036.3622 15,1036.3622 16,1036.3622 C 17.10457,1036.3622 18,1035.4668 18,1034.3622 L 18,1032.5185 18,1032.3622 18,1031.3622 8,1031.3622 z"
       id="path2987-2-2-0"
       inkscape:connector-curvature="0" />
    <path
       inkscape:connector-curvature="0"
       style="fill:#95a5a6;fill-opacity:1;fill-rule:nonzero;stroke:none"
       d="M 9,1032.3622 9,1034.3622 C 9,1034.9145 9.447715,1035.3622 10,1035.3622 L 11,1035.3622 12,1035.3622 C 12.552285,1035.3622 13,1034.9145 13,1034.3622 L 13,1032.3622 11,1032.3622 9,1032.3622 z"
       id="rect3169" />
    <rect
       style="fill:#bdc3c7;fill-opacity:1;fill-rule:nonzero;stroke:none"
       id="rect3239"
       width="8"
       height="1"
       x="9"
       y="1043.3622" />
    <rect
       style="fill:#bdc3c7;fill-opacity:1;fill-rule:nonzero;stroke:none"
       id="rect3239-7"
       width="8"
       height="1"
       x="9"
       y="1045.3622" />
    <rect
       style="fill:#bdc3c7;fill-opacity:1;fill-rule:nonzero;stroke:none"
       id="rect3278"
       width="4"
       height="1"
       x="9"
       y="1031.3622" />
  </g>
</svg>
