<?xml version="1.0" encoding="UTF-8" standalone="no"?>
<!-- Created with Inkscape (http://www.inkscape.org/) -->

<svg
   xmlns:dc="http://purl.org/dc/elements/1.1/"
   xmlns:cc="http://creativecommons.org/ns#"
   xmlns:rdf="http://www.w3.org/1999/02/22-rdf-syntax-ns#"
   xmlns:svg="http://www.w3.org/2000/svg"
   xmlns="http://www.w3.org/2000/svg"
   xmlns:sodipodi="http://sodipodi.sourceforge.net/DTD/sodipodi-0.dtd"
   xmlns:inkscape="http://www.inkscape.org/namespaces/inkscape"
   version="1.1"
   width="24"
   height="24"
   id="svg2"
   inkscape:version="0.48.3.1 r9886"
   sodipodi:docname="floppy.svg">
  <sodipodi:namedview
     pagecolor="#ffffff"
     bordercolor="#666666"
     borderopacity="1"
     objecttolerance="10"
     gridtolerance="10"
     guidetolerance="10"
     inkscape:pageopacity="0"
     inkscape:pageshadow="2"
     inkscape:window-width="1920"
     inkscape:window-height="1150"
     id="namedview3944"
     showgrid="false"
     inkscape:zoom="9.8333333"
     inkscape:cx="63.804721"
     inkscape:cy="31.427756"
     inkscape:window-x="0"
     inkscape:window-y="0"
     inkscape:window-maximized="1"
     inkscape:current-layer="layer1" />
  <defs
     id="defs4" />
  <metadata
     id="metadata7">
    <rdf:RDF>
      <cc:Work
         rdf:about="">
        <dc:format>image/svg+xml</dc:format>
        <dc:type
           rdf:resource="http://purl.org/dc/dcmitype/StillImage" />
        <dc:title />
      </cc:Work>
    </rdf:RDF>
  </metadata>
  <g
     transform="translate(0,-1028.3622)"
     id="layer1">
    <path
       d="M 3,1037.3622 3,1039.3622 3,1041.3622 3,1047.3622 C 3,1048.4668 3.89543,1049.3622 5,1049.3622 L 19,1049.3622 C 20.104569,1049.3622 21,1048.4668 21,1047.3622 L 21,1041.3622 21,1039.3622 21,1037.3622 3,1037.3622 z"
       inkscape:connector-curvature="0"
       id="path2987-1"
       style="fill:#2980b9;fill-opacity:1;fill-rule:nonzero;stroke:none" />
    <path
       d="M 5,3 C 3.895431,3 3,3.8954 3,5 L 3,7 3,9 3,10 3,12 3,18 C 3,19.1046 3.89543,20 5,20 L 19,20 C 20.104569,20 21,19.1046 21,18 L 21,12 21,10 21,9 21,7 21,6 18,3 17,3 15,3 5,3 z"
       inkscape:connector-curvature="0"
       transform="translate(0,1028.3622)"
       id="path2987"
       style="fill:#3498db;fill-opacity:1;fill-rule:nonzero;stroke:none" />
    <path
       d="M 6,3 6,4 6,5 6,7 C 6,8.1046 6.89543,9 8,9 L 9,9 13,9 15,9 16,9 C 17.10457,9 18,8.1046 18,7 L 18,5.15625 18,5 18,4 18,3 6,3 z"
       inkscape:connector-curvature="0"
       transform="translate(0,1028.3622)"
       id="rect3343"
       style="fill:#2980b9;fill-opacity:1;fill-rule:nonzero;stroke:none" />
    <path
       d="M 8,1041.3622 C 6.89543,1041.3622 6,1042.2576 6,1043.3622 L 6,1045.206 6,1048.3622 18,1048.3622 18,1045.206 18,1043.3622 C 18,1042.2576 17.10457,1041.3622 16,1041.3622 L 13,1041.3622 8,1041.3622 z"
       inkscape:connector-curvature="0"
       id="path2987-2"
       style="fill:#ecf0f1;fill-opacity:1;fill-rule:nonzero;stroke:none" />
    <rect
       width="12"
       height="1"
       x="6"
       y="1048.3622"
       id="rect3109"
       style="fill:#bdc3c7;fill-opacity:1;fill-rule:nonzero;stroke:none" />
    <path
       d="M 7,1031.3622 7,1032.3622 7,1034.3622 C 7,1035.4668 7.89543,1036.3622 9,1036.3622 L 10,1036.3622 14,1036.3622 15,1036.3622 C 16.10457,1036.3622 17,1035.4668 17,1034.3622 L 17,1032.5185 17,1032.3622 17,1031.3622 7,1031.3622 z"
       inkscape:connector-curvature="0"
       id="path2987-2-2-0"
       style="fill:#ecf0f1;fill-opacity:1;fill-rule:nonzero;stroke:none" />
    <path
       style="fill:#95a5a6;fill-opacity:1;fill-rule:nonzero;stroke:none"
       d="M 8 4 L 8 6 C 8 6.5523 8.447715 7 9 7 L 10 7 L 11 7 C 11.552285 7 12 6.5523 12 6 L 12 4 L 10 4 L 8 4 z "
       transform="translate(0,1028.3622)"
       id="rect3169" />
    <rect
       width="8"
       height="1"
       x="8"
       y="15"
       transform="translate(0,1028.3622)"
       id="rect3239"
       style="fill:#bdc3c7;fill-opacity:1;fill-rule:nonzero;stroke:none" />
    <rect
       width="8"
       height="1"
       x="8"
       y="1045.3622"
       id="rect3239-7"
       style="fill:#bdc3c7;fill-opacity:1;fill-rule:nonzero;stroke:none" />
    <rect
       width="4"
       height="1"
       x="8"
       y="1031.3622"
       id="rect3278"
       style="fill:#bdc3c7;fill-opacity:1;fill-rule:nonzero;stroke:none" />
  </g>
</svg>
