<?xml version="1.0" encoding="UTF-8" standalone="no"?>
<!-- Created with Inkscape (http://www.inkscape.org/) -->

<svg
   xmlns:dc="http://purl.org/dc/elements/1.1/"
   xmlns:cc="http://creativecommons.org/ns#"
   xmlns:rdf="http://www.w3.org/1999/02/22-rdf-syntax-ns#"
   xmlns:svg="http://www.w3.org/2000/svg"
   xmlns="http://www.w3.org/2000/svg"
   xmlns:sodipodi="http://sodipodi.sourceforge.net/DTD/sodipodi-0.dtd"
   xmlns:inkscape="http://www.inkscape.org/namespaces/inkscape"
   version="1.1"
   width="24"
   height="24"
   id="svg2"
   inkscape:version="0.48.3.1 r9886"
   sodipodi:docname="floppy.svg">
  <sodipodi:namedview
     pagecolor="#ffffff"
     bordercolor="#666666"
     borderopacity="1"
     objecttolerance="10"
     gridtolerance="10"
     guidetolerance="10"
     inkscape:pageopacity="0"
     inkscape:pageshadow="2"
     inkscape:window-width="1920"
     inkscape:window-height="1150"
     id="namedview3944"
     showgrid="true"
     inkscape:zoom="27.812867"
     inkscape:cx="23.669614"
     inkscape:cy="10.206195"
     inkscape:window-x="0"
     inkscape:window-y="0"
     inkscape:window-maximized="1"
     inkscape:current-layer="layer1">
    <inkscape:grid
       type="xygrid"
       id="grid2992"
       empspacing="4"
       visible="true"
       enabled="true"
       snapvisiblegridlinesonly="true" />
  </sodipodi:namedview>
  <defs
     id="defs4" />
  <metadata
     id="metadata7">
    <rdf:RDF>
      <cc:Work
         rdf:about="">
        <dc:format>image/svg+xml</dc:format>
        <dc:type
           rdf:resource="http://purl.org/dc/dcmitype/StillImage" />
        <dc:title />
      </cc:Work>
    </rdf:RDF>
  </metadata>
  <g
     transform="translate(0,-1028.3622)"
     id="layer1">
    <path
       style="fill:#3498db;fill-opacity:1;fill-rule:nonzero;stroke:none"
       d="M 5,1031.3622 C 3.895431,1031.3622 3,1032.2576 3,1033.3622 L 3,1047.3622 C 3,1048.4668 3.895431,1049.3622 5,1049.3622 L 18,1049.3622 19,1049.3622 C 20.104569,1049.3622 21,1048.4668 21,1047.3622 L 21,1034.3622 18,1031.3622 5,1031.3622 z"
       id="path3010"
       inkscape:connector-curvature="0" />
    <path
       style="fill:#2980b9;fill-opacity:1;fill-rule:nonzero;stroke:none"
       d="M 7,1031.3622 7,1032.3622 7,1037.3622 C 7,1037.9145 7.447715,1038.3622 8,1038.3622 L 16,1038.3622 C 16.552285,1038.3622 17,1037.9145 17,1037.3622 L 17,1032.3622 17,1031.3622 7,1031.3622 z"
       id="rect3055-1"
       inkscape:connector-curvature="0" />
    <path
       style="fill:#ecf0f1;fill-opacity:1;fill-rule:nonzero;stroke:none"
       d="M 7 3 L 7 8 C 7 8.5522847 7.4477153 9 8 9 L 16 9 C 16.552285 9 17 8.5522847 17 8 L 17 3 L 7 3 z "
       transform="translate(0,1028.3622)"
       id="rect3055" />
    <path
       style="fill:#ecf0f1;fill-opacity:1;fill-rule:nonzero;stroke:none"
       d="M 6,1040.3622 C 5.447715,1040.3622 5,1040.8099 5,1041.3622 L 5,1044.3622 5,1046.3622 5,1049.3622 9,1049.3622 15,1049.3622 19,1049.3622 19,1046.3622 19,1044.3622 19,1041.3622 C 19,1040.8099 18.552285,1040.3622 18,1040.3622 L 14,1040.3622 10,1040.3622 6,1040.3622 z"
       id="rect3055-7"
       inkscape:connector-curvature="0" />
    <rect
       style="fill:#bdc3c7;fill-opacity:1;fill-rule:nonzero;stroke:none"
       id="rect3159"
       width="14"
       height="1"
       x="5"
       y="1048.3622" />
    <rect
       style="fill:#bdc3c7;fill-opacity:1;fill-rule:nonzero;stroke:none"
       id="rect3161-0"
       width="10"
       height="1"
       x="7"
       y="1042.3622" />
    <rect
       style="fill:#bdc3c7;fill-opacity:1;fill-rule:nonzero;stroke:none"
       id="rect3161-0-2"
       width="10"
       height="1"
       x="7"
       y="1044.3622" />
    <rect
       style="fill:#3498db;fill-opacity:1;fill-rule:nonzero;stroke:none"
       id="rect3081"
       width="3"
       height="3.9999826"
       x="13"
       y="1032.3622" />
    <rect
       style="fill:#2980b9;fill-opacity:1;fill-rule:nonzero;stroke:none"
       id="rect3064"
       width="3"
       height="0.9999826"
       x="13"
       y="1032.3622" />
  </g>
</svg>
