<?xml version="1.0" encoding="UTF-8" standalone="no"?>
<!-- Created with Inkscape (http://www.inkscape.org/) -->

<svg
   xmlns:dc="http://purl.org/dc/elements/1.1/"
   xmlns:cc="http://creativecommons.org/ns#"
   xmlns:rdf="http://www.w3.org/1999/02/22-rdf-syntax-ns#"
   xmlns:svg="http://www.w3.org/2000/svg"
   xmlns="http://www.w3.org/2000/svg"
   xmlns:sodipodi="http://sodipodi.sourceforge.net/DTD/sodipodi-0.dtd"
   xmlns:inkscape="http://www.inkscape.org/namespaces/inkscape"
   version="1.1"
   width="24"
   height="24"
   id="svg2"
   inkscape:version="0.48.3.1 r9886"
   sodipodi:docname="flower.svg">
  <sodipodi:namedview
     pagecolor="#ffffff"
     bordercolor="#666666"
     borderopacity="1"
     objecttolerance="10"
     gridtolerance="10"
     guidetolerance="10"
     inkscape:pageopacity="0"
     inkscape:pageshadow="2"
     inkscape:window-width="1920"
     inkscape:window-height="1150"
     id="namedview3563"
     showgrid="true"
     inkscape:zoom="3.4766083"
     inkscape:cx="-99.798095"
     inkscape:cy="-12.707005"
     inkscape:window-x="0"
     inkscape:window-y="0"
     inkscape:window-maximized="1"
     inkscape:current-layer="layer1"
     inkscape:snap-nodes="true"
     inkscape:snap-bbox="true">
    <inkscape:grid
       type="xygrid"
       id="grid4175"
       empspacing="4"
       visible="true"
       enabled="true"
       snapvisiblegridlinesonly="true" />
  </sodipodi:namedview>
  <defs
     id="defs4" />
  <metadata
     id="metadata7">
    <rdf:RDF>
      <cc:Work
         rdf:about="">
        <dc:format>image/svg+xml</dc:format>
        <dc:type
           rdf:resource="http://purl.org/dc/dcmitype/StillImage" />
        <dc:title />
      </cc:Work>
    </rdf:RDF>
  </metadata>
  <g
     transform="translate(0,-1028.3622)"
     id="layer1">
    <g
       id="g3388"
       transform="matrix(0.91661151,0,0,0.91661308,1.0013238,86.753243)">
      <path
         id="path2986-2"
         d="M 16.045813,1028.8444 C 15.910791,1028.7802 15.76558,1028.7545 15.615893,1028.742 15.496579,1028.7342 15.383025,1028.753 15.267841,1028.7728 15.235733,1028.7787 15.200543,1028.7593 15.169178,1028.7675 15.112179,1028.7872 15.061788,1028.815 15.007035,1028.8379 14.911271,1028.8706 14.814644,1028.9133 14.72327,1028.9612 14.69781,1028.9753 14.667148,1028.9815 14.642199,1028.9964 14.570082,1029.0376 14.514453,1029.1052 14.445681,1029.154 14.38459,1029.1979 14.318266,1029.2344 14.260605,1029.2826 14.253378,1029.2886 14.256299,1029.3055 14.249126,1029.3117 14.19562,1029.3571 14.143779,1029.4028 14.093131,1029.4517 14.031076,1029.5112 13.954253,1029.5462 13.896613,1029.6093 13.766353,1029.7542 13.64326,1029.9404 13.533406,1030.1044 13.515523,1030.1303 13.486976,1030.1543 13.469961,1030.1801 13.304135,1030.4413 13.167994,1030.7096 13.050266,1030.9887 12.924332,1031.2874 12.840693,1031.6 12.753023,1031.9129 12.744866,1031.942 12.726381,1031.9711 12.718612,1032.0001 12.712255,1032.0322 12.719714,1032.0667 12.713308,1032.0988 12.538427,1032.7682 12.386667,1033.4503 12.247362,1034.1321 12.235315,1034.184 12.231243,1034.2371 12.219088,1034.289 12.134325,1034.6909 12.040266,1035.0929 11.917348,1035.48 11.822387,1035.8345 11.727376,1036.189 11.632355,1036.5434 11.491778,1036.0846 11.341714,1035.6227 11.202025,1035.1643 10.587371,1033.4355 10.524444,1031.4943 9.4647158,1029.9442 8.8978404,1029.1454 7.9181526,1028.2564 6.8704033,1028.6861 6.5886133,1028.7861 6.355326,1029.0092 6.2058893,1029.2637 5.5732794,1030.5649 6.0594395,1032.0888 6.7418643,1033.271 7.7379511,1034.7598 8.6353731,1036.3155 9.5322874,1037.8651 8.6642951,1037.4024 7.7921964,1036.924 6.9371791,1036.4386 6.9007557,1036.4163 6.8687412,1036.3861 6.8323789,1036.3636 6.751293,1036.3174 6.663097,1036.278 6.5821937,1036.2314 6.0794925,1035.9168 5.576988,1035.6029 5.0574063,1035.3277 5.0309172,1035.3136 4.9970106,1035.3072 4.9701972,1035.2933 4.411893,1035.0041 3.8437652,1034.7528 3.2144433,1034.6346 3.1746612,1034.6278 3.1276247,1034.6237 3.0867111,1034.6178 2.9121268,1034.5907 2.7096917,1034.5729 2.5351705,1034.5682 2.4395929,1034.5664 2.3528738,1034.5875 2.2567367,1034.5928 2.1018112,1034.6008 1.9505984,1034.617 1.7985798,1034.6472 1.7159396,1034.6642 1.6285546,1034.6588 1.5492269,1034.6833 1.5213099,1034.6914 1.4958733,1034.7096 1.4681551,1034.7185 1.3708643,1034.7526 1.2736575,1034.7941 1.1843909,1034.8417 1.130218,1034.866 1.075541,1034.8839 1.0222473,1034.9122 0.89758558,1034.9911 0.79184142,1035.1034 0.69880415,1035.2212 0.6926199,1035.2289 0.69336545,1035.2427 0.6873138,1035.2504 0.603392,1035.3621 0.52217243,1035.4728 0.48014959,1035.6054 0.43091441,1035.7382 0.40039595,1035.8769 0.38923865,1036.0063 0.38812812,1036.0167 0.37863979,1036.0249 0.37779665,1036.0352 0.36991194,1036.1546 0.38865248,1036.2682 0.40850632,1036.3833 0.41428771,1036.4154 0.39500474,1036.4507 0.40316461,1036.482 0.42285139,1036.539 0.45060033,1036.5894 0.47359025,1036.6442 0.50629172,1036.7399 0.54904955,1036.8366 0.59685067,1036.9279 0.61099937,1036.9534 0.61717688,1036.9841 0.63206917,1037.0089 0.67328652,1037.0811 0.74084486,1037.1368 0.78970395,1037.2055 0.83354432,1037.2667 0.87011281,1037.333 0.91828035,1037.3905 1.0313332,1037.5265 1.1431041,1037.6482 1.274073,1037.7661 1.4047943,1037.8817 1.5648896,1038.0069 1.7109745,1038.1063 1.7448754,1038.13 1.7820897,1038.159 1.8157744,1038.1813 2.8882213,1038.862 4.1311937,1039.0724 5.3669495,1039.313 5.4578833,1039.334 5.5492585,1039.3655 5.6400789,1039.387 6.1376613,1039.4867 6.6383023,1039.5822 7.1157217,1039.7338 7.6225638,1039.8697 8.1308679,1039.997 8.6380625,1040.1326 6.924874,1040.6529 5.2071456,1041.1773 3.4630154,1041.5854 2.1572901,1041.9837 0.76186342,1042.7654 0.33607092,1044.1481 0.2714817,1044.4362 0.28974206,1044.7585 0.42735573,1045.024 0.89979598,1046.0532 2.2226829,1046.072 3.182172,1045.8752 5.0146704,1045.4657 6.3856367,1044.0901 8.0148925,1043.2461 8.4298105,1043.0065 8.8547947,1042.7713 9.2706746,1042.532 9.0982469,1042.8558 8.9257726,1043.1796 8.7531493,1043.5036 8.555669,1043.8601 8.3633188,1044.227 8.1606643,1044.5801 7.7736839,1045.2207 7.3812327,1045.8629 7.0269251,1046.518 7.0096689,1046.5459 6.9807379,1046.5659 6.963432,1046.5938 6.9493331,1046.6203 6.9429547,1046.6542 6.9290581,1046.681 6.6397994,1047.2393 6.3884827,1047.8074 6.2702591,1048.4367 6.265072,1048.4672 6.2695596,1048.5043 6.2649174,1048.5355 6.2333049,1048.7302 6.1961537,1048.9503 6.192467,1049.1451 6.1907224,1049.302 6.2285218,1049.447 6.246917,1049.6032 6.2566438,1049.6873 6.266429,1049.7695 6.2829683,1049.8525 6.2998893,1049.9353 6.2944016,1050.0226 6.3189823,1050.1019 6.3270587,1050.1298 6.3452304,1050.1554 6.3541893,1050.1831 6.388329,1050.2804 6.4297884,1050.3775 6.4774606,1050.4667 6.5017977,1050.5209 6.5196828,1050.5756 6.5478868,1050.6289 6.6269134,1050.7535 6.7391078,1050.8593 6.8570192,1050.9524 6.9646514,1051.0404 7.1006519,1051.1123 7.2410854,1051.171 7.3666159,1051.2309 7.5030217,1051.2471 7.6419351,1051.2619 7.7712413,1051.2731 7.8944717,1051.2641 8.0190206,1051.2427 8.0511286,1051.2368 8.0863563,1051.2562 8.1177206,1051.248 8.2743668,1051.1939 8.4232651,1051.1323 8.5635914,1051.0544 8.5888054,1051.0412 8.6198263,1051.0333 8.6446626,1051.0192 8.7171899,1050.9759 8.7730337,1050.9104 8.8412187,1050.8615 8.9684079,1050.7712 9.0796555,1050.6732 9.193731,1050.5639 9.2543957,1050.5053 9.3336508,1050.4692 9.3902856,1050.4062 9.5316099,1050.2515 9.6422243,1050.0726 9.7534563,1049.9111 9.7723758,1049.8829 9.7985657,1049.8642 9.816938,1049.8354 10.571615,1048.6464 10.760593,1047.2484 11.039537,1045.8834 11.143604,1045.435 11.257571,1044.9825 11.36955,1044.5354 11.464524,1044.1808 11.559486,1043.8265 11.654507,1043.4721 11.795084,1043.9309 11.945148,1044.3929 12.084849,1044.8511 12.699491,1046.58 12.762454,1048.5211 13.822183,1050.0712 14.389059,1050.87 15.36871,1051.7591 16.416459,1051.3295 16.69826,1051.2293 16.931573,1051.0063 17.081009,1050.7517 17.713619,1049.4505 17.227422,1047.9268 16.545009,1046.7444 15.548911,1045.2557 14.651489,1043.7 13.754574,1042.1504 14.217883,1042.3974 14.676227,1042.6513 15.139343,1042.898 15.553635,1043.095 15.953685,1043.3344 16.349683,1043.5769 16.467593,1043.6438 16.587126,1043.7165 16.704679,1043.7841 17.179845,1044.0814 17.664517,1044.3596 18.153725,1044.6243 18.181584,1044.6415 18.201649,1044.6704 18.229492,1044.6877 18.256911,1044.7023 18.289129,1044.7079 18.316702,1044.7222 18.60521,1044.8717 18.890755,1045.0238 19.194976,1045.1357 19.479395,1045.2402 19.76835,1045.3238 20.072418,1045.3809 20.1122,1045.3877 20.159238,1045.3919 20.200188,1045.3977 20.407877,1045.43 20.643075,1045.4526 20.850391,1045.4526 21.070152,1045.4511 21.275169,1045.412 21.488319,1045.3682 21.533799,1045.3591 21.582398,1045.3672 21.62753,1045.3559 21.691055,1045.3393 21.75756,1045.3185 21.818743,1045.297 21.881239,1045.2767 21.948382,1045.2629 22.009957,1045.238 22.044284,1045.2223 22.069338,1045.1915 22.10247,1045.1738 22.156655,1045.1494 22.211321,1045.1316 22.264614,1045.1034 22.291997,1045.086 22.301917,1045.0471 22.328107,1045.0275 22.421176,1044.957 22.512412,1044.8867 22.588106,1044.7941 22.594587,1044.786 22.593249,1044.7735 22.599548,1044.7651 22.679675,1044.663 22.752094,1044.5407 22.806749,1044.4101 22.8665,1044.2845 22.882714,1044.1482 22.897623,1044.0093 22.90878,1043.8799 22.899802,1043.7568 22.878392,1043.6322 22.872574,1043.6001 22.891858,1043.5649 22.883696,1043.5335 22.86401,1043.4765 22.836261,1043.4261 22.813271,1043.3714 22.773051,1043.2755 22.73965,1043.1769 22.690047,1043.0875 22.676849,1043.0624 22.669043,1043.0313 22.654829,1043.0065 22.635472,1042.974 22.611079,1042.9456 22.590553,1042.9139 22.525227,1042.8108 22.448087,1042.7205 22.36863,1042.6248 22.362529,1042.6176 22.345688,1042.6207 22.33956,1042.6134 22.293291,1042.5589 22.24916,1042.5093 22.199505,1042.4574 22.157224,1042.4137 22.133134,1042.3546 22.088556,1042.3129 22.063996,1042.2897 22.037813,1042.272 22.012789,1042.2495 21.848905,1042.1043 21.658258,1041.9539 21.471087,1041.8343 21.209867,1041.6685 20.941642,1041.5323 20.662442,1041.4145 20.363788,1041.2886 20.051203,1041.205 19.738303,1041.1173 19.708417,1041.109 19.681048,1041.091 19.651094,1041.0829 19.618947,1041.0766 19.584507,1041.084 19.552394,1041.0776 19.014241,1040.9371 18.470071,1040.8096 17.919912,1040.7026 17.785672,1040.6763 17.652852,1040.6389 17.519061,1040.6116 16.562865,1040.3828 15.599048,1040.1371 14.648799,1039.8829 16.361988,1039.3626 18.079679,1038.8383 19.823846,1038.4301 21.129572,1038.0319 22.525035,1037.25 22.950828,1035.8673 23.015417,1035.5792 22.997119,1035.257 22.859506,1034.9915 22.387066,1033.9624 21.064227,1033.9434 20.104727,1034.1403 18.272229,1034.5498 16.901225,1035.9254 15.271968,1036.7694 14.857063,1037.0089 14.432067,1037.2442 14.016187,1037.4835 14.188615,1037.1597 14.36109,1036.8359 14.53375,1036.5118 14.75704,1036.1088 14.982583,1035.7002 15.212611,1035.3015 15.576204,1034.708 15.930793,1034.1061 16.259985,1033.4974 16.290086,1033.4417 16.32875,1033.3906 16.357841,1033.3344 16.507314,1033.0459 16.659571,1032.7604 16.771362,1032.4562 16.875874,1032.1719 16.959484,1031.8829 17.016639,1031.5787 17.022808,1031.5453 17.016497,1031.5137 17.021944,1031.4801 17.050855,1031.2862 17.092123,1031.08 17.094431,1030.8704 17.096006,1030.7858 17.062754,1030.7053 17.05838,1030.6211 17.049666,1030.4632 17.03527,1030.3156 17.003942,1030.1628 16.987549,1030.0805 16.991398,1029.9946 16.967891,1029.9135 16.959407,1029.8863 16.942104,1029.8593 16.932672,1029.8325 16.901269,1029.7353 16.852048,1029.6435 16.809449,1029.5486 16.785075,1029.4945 16.767179,1029.4399 16.739023,1029.3865 16.721675,1029.3591 16.682736,1029.3492 16.663257,1029.3231 16.592602,1029.23 16.522415,1029.1388 16.42988,1029.0631 16.421614,1029.0566 16.409217,1029.0579 16.40081,1029.0516 16.298655,1028.9716 16.176369,1028.8991 16.045813,1028.8444 z"
         style="fill:#c0392b;fill-opacity:1;fill-rule:nonzero;stroke:none"
         inkscape:connector-curvature="0" />
      <path
         id="path2986"
         transform="translate(0,1028.3622)"
         d="M 12,0 C 11.85083,-0.01025 11.70633,0.0191875 11.5625,0.0625 11.448639,0.0989478 11.349877,0.15805201 11.25,0.21875 11.222276,0.23592814 11.182429,0.23090244 11.15625,0.25 11.110475,0.289225 11.073778,0.33352485 11.03125,0.375 10.954176,0.44055289 10.879959,0.515784 10.8125,0.59375 10.793999,0.61625571 10.767751,0.63326661 10.75,0.65625 10.698028,0.721063 10.671081,0.80434081 10.625,0.875 10.584292,0.93822046 10.535987,0.9965687 10.5,1.0625 10.495498,1.0707123 10.504434,1.0854924 10.5,1.09375 10.466892,1.1557051 10.435424,1.2172037 10.40625,1.28125 10.37035,1.3593769 10.311739,1.4201268 10.28125,1.5 10.21324,1.6825179 10.167049,1.9009314 10.125,2.09375 10.117882,2.1244872 10.100121,2.1572114 10.09375,2.1875 10.035338,2.4913244 10.007105,2.7908196 10,3.09375 9.9924002,3.4177853 10.029282,3.7392387 10.0625,4.0625 10.065604,4.0925493 10.059095,4.1264348 10.0625,4.15625 10.068363,4.1884958 10.087939,4.2177576 10.09375,4.25 10.176681,4.9369401 10.285707,5.6270136 10.40625,6.3125 10.414079,6.3651716 10.429783,6.4160636 10.4375,6.46875 10.506093,6.8737064 10.566079,7.2822987 10.59375,7.6875 10.635485,8.0521937 10.677142,8.4167183 10.71875,8.78125 10.419663,8.4060888 10.110588,8.0313373 9.8125,7.65625 8.6064591,6.27345 7.835753,4.4907 6.28125,3.4375 5.460864,2.9024 4.2233122,2.43465 3.40625,3.21875 3.180824,3.41525 3.0456089,3.7083 3,4 2.8888429,5.4425 3.9001698,6.68175 4.96875,7.53125 6.441551,8.55075 7.847132,9.66875 9.25,10.78125 8.2727439,10.669158 7.2859768,10.544163 6.3125,10.40625 6.2704211,10.39885 6.22958,10.382572 6.1875,10.375 6.0951254,10.361742 5.9985886,10.357401 5.90625,10.34375 5.3232028,10.235599 4.7405657,10.127854 4.15625,10.0625 4.1264348,10.059095 4.0925492,10.065604 4.0625,10.0625 3.4370317,9.998226 2.816316,9.9728566 2.1875,10.09375 2.1480098,10.10206 2.1027294,10.115419 2.0625,10.125 1.8901625,10.163866 1.695309,10.221541 1.53125,10.28125 1.4416827,10.314681 1.3687379,10.36605 1.28125,10.40625 1.1400619,10.470562 1.005327,10.541082 0.875,10.625 0.80434081,10.671077 0.721063,10.698032 0.65625,10.75 0.63326685,10.76775 0.6162555,10.793999 0.59375,10.8125 0.515784,10.879954 0.44055288,10.954181 0.375,11.03125 0.33352501,11.073778 0.289225,11.110475 0.25,11.15625 0.163,11.2755 0.1058125,11.41865 0.0625,11.5625 0.05953018,11.571777 0.06529297,11.584378 0.0625,11.59375 0.02540736,11.72846 -0.0095325,11.861291 0,12 0.0029125,12.141525 0.02542969,12.281852 0.0625,12.40625 0.06529192,12.416389 0.05946812,12.427431 0.0625,12.4375 0.0989478,12.55136 0.15805201,12.650128 0.21875,12.75 0.23592814,12.777725 0.23090244,12.817573 0.25,12.84375 0.289225,12.889525 0.33352502,12.926222 0.375,12.96875 0.44055289,13.045819 0.515784,13.120046 0.59375,13.1875 0.6162555,13.206001 0.63326685,13.23225 0.65625,13.25 0.721063,13.301968 0.80434081,13.328923 0.875,13.375 0.93821961,13.415707 0.99656972,13.464015 1.0625,13.5 1.2175549,13.584997 1.3661753,13.657136 1.53125,13.71875 1.695309,13.778459 1.8901625,13.836134 2.0625,13.875 2.1027294,13.884581 2.1480098,13.89794 2.1875,13.90625 3.4348984,14.146069 4.6684176,13.885858 5.90625,13.65625 5.9985886,13.642599 6.0951254,13.638258 6.1875,13.625 6.6869717,13.535124 7.1877462,13.440375 7.6875,13.40625 8.208831,13.34665 8.728379,13.27855 9.25,13.21875 7.847132,14.33125 6.441551,15.44925 4.96875,16.46875 3.90017,17.31825 2.888843,18.5575 3,20 3.045609,20.2917 3.180824,20.58475 3.40625,20.78125 4.223312,21.56535 5.460864,21.0976 6.28125,20.5625 7.835753,19.5093 8.606459,17.72655 9.8125,16.34375 10.110588,15.968663 10.419663,15.593911 10.71875,15.21875 10.677142,15.583284 10.635485,15.947788 10.59375,16.3125 10.540825,16.716595 10.496496,17.128456 10.4375,17.53125 10.312513,18.269144 10.183023,19.010531 10.09375,19.75 10.087939,19.782242 10.068363,19.811504 10.0625,19.84375 10.059095,19.873565 10.065604,19.907451 10.0625,19.9375 9.9982274,20.562968 9.9728563,21.183684 10.09375,21.8125 10.100121,21.842789 10.117882,21.875513 10.125,21.90625 10.167049,22.099069 10.21324,22.317482 10.28125,22.5 10.33719,22.646545 10.425573,22.767649 10.5,22.90625 10.539878,22.980875 10.579148,23.05379 10.625,23.125 10.671081,23.195659 10.698028,23.278937 10.75,23.34375 10.767751,23.366733 10.793999,23.383744 10.8125,23.40625 10.879959,23.484216 10.954176,23.559447 11.03125,23.625 11.073778,23.666475 11.110475,23.710775 11.15625,23.75 11.275509,23.837 11.41867,23.894187 11.5625,23.9375 11.694917,23.979887 11.847816,23.996868 12,24 12.138728,24.009533 12.271558,23.974593 12.40625,23.9375 12.530649,23.90043 12.641985,23.846894 12.75,23.78125 12.777724,23.764072 12.817571,23.769098 12.84375,23.75 12.969631,23.642131 13.085558,23.530255 13.1875,23.40625 13.206119,23.384731 13.232095,23.366079 13.25,23.34375 13.301615,23.276919 13.329543,23.195596 13.375,23.125 13.460218,22.994328 13.527751,22.862377 13.59375,22.71875 13.628707,22.64201 13.689177,22.579366 13.71875,22.5 13.793488,22.304207 13.830761,22.097287 13.875,21.90625 13.882244,21.873032 13.899716,21.845937 13.90625,21.8125 14.172126,20.429575 13.835041,19.059639 13.59375,17.6875 13.526065,17.232148 13.466098,16.769451 13.40625,16.3125 13.364515,15.947788 13.322858,15.583284 13.28125,15.21875 13.580337,15.593911 13.889412,15.968663 14.1875,16.34375 15.393541,17.72655 16.164247,19.5093 17.71875,20.5625 18.539136,21.0976 19.776688,21.56535 20.59375,20.78125 20.819176,20.58475 20.954391,20.2917 21,20 21.111157,18.5575 20.09983,17.31825 19.03125,16.46875 17.558449,15.44925 16.152868,14.33125 14.75,13.21875 15.271621,13.27855 15.791169,13.34665 16.3125,13.40625 16.77015,13.4375 17.23012,13.51332 17.6875,13.59375 17.821741,13.612768 17.959584,13.636416 18.09375,13.65625 18.644839,13.758473 19.197815,13.839586 19.75,13.90625 19.782228,13.912041 19.811526,13.93164 19.84375,13.9375 19.874608,13.940951 19.906636,13.934328 19.9375,13.9375 20.260761,13.970719 20.582215,14.007599 20.90625,14 21.20918,13.992896 21.508676,13.964662 21.8125,13.90625 21.85199,13.89794 21.897271,13.884581 21.9375,13.875 22.142544,13.828755 22.369657,13.763588 22.5625,13.6875 22.766425,13.605574 22.942766,13.493835 23.125,13.375 23.163985,13.349897 23.212135,13.339462 23.25,13.3125 23.303019,13.273773 23.357233,13.229908 23.40625,13.1875 23.456979,13.145797 23.514335,13.108114 23.5625,13.0625 23.588673,13.035225 23.60066,12.997367 23.625,12.96875 23.666475,12.926222 23.710775,12.889525 23.75,12.84375 23.769098,12.817573 23.764072,12.777724 23.78125,12.75 23.841948,12.650128 23.901052,12.55136 23.9375,12.4375 23.940532,12.427431 23.934708,12.416389 23.9375,12.40625 23.97457,12.281852 23.997087,12.141525 24,12 24.009532,11.861291 23.974593,11.72846 23.9375,11.59375 23.90043,11.469351 23.846894,11.358012 23.78125,11.25 23.764072,11.222275 23.769098,11.182427 23.75,11.15625 23.710775,11.110475 23.666475,11.073778 23.625,11.03125 23.552419,10.956826 23.485162,10.877371 23.40625,10.8125 23.384731,10.793881 23.366079,10.767904 23.34375,10.75 23.313826,10.726889 23.280701,10.70936 23.25,10.6875 23.151392,10.615471 23.046499,10.559753 22.9375,10.5 22.929168,10.495453 22.914622,10.504474 22.90625,10.5 22.843192,10.46614 22.783964,10.436217 22.71875,10.40625 22.66336,10.381019 22.619288,10.334905 22.5625,10.3125 22.531129,10.299896 22.500296,10.293025 22.46875,10.28125 22.263045,10.206384 22.030503,10.136349 21.8125,10.09375 21.508676,10.035338 21.20918,10.007104 20.90625,10 20.582215,9.9924008 20.260761,10.029281 19.9375,10.0625 19.906636,10.065672 19.874608,10.059049 19.84375,10.0625 19.811526,10.06836 19.782228,10.087959 19.75,10.09375 19.197815,10.160414 18.644839,10.241527 18.09375,10.34375 17.959263,10.368696 17.82197,10.382604 17.6875,10.40625 16.714023,10.544163 15.727256,10.669158 14.75,10.78125 16.152868,9.6687312 17.558449,8.5508092 19.03125,7.53125 20.09983,6.68175 21.111157,5.4425 21,4 20.954391,3.7083 20.819176,3.41525 20.59375,3.21875 19.776688,2.43465 18.539136,2.9024 17.71875,3.4375 16.164247,4.4907 15.393541,6.27345 14.1875,7.65625 13.889412,8.0313929 13.580337,8.4060909 13.28125,8.78125 13.322858,8.4167181 13.364516,8.05221 13.40625,7.6875 13.466098,7.2305403 13.526065,6.7678545 13.59375,6.3125 13.714293,5.6270136 13.823319,4.9369401 13.90625,4.25 13.913841,4.1871259 13.931037,4.1253976 13.9375,4.0625 13.970718,3.7392387 14.0076,3.4177853 14,3.09375 13.992895,2.7908196 13.964662,2.4913244 13.90625,2.1875 13.899716,2.154064 13.882244,2.1269672 13.875,2.09375 13.830761,1.9027126 13.793488,1.6957925 13.71875,1.5 13.689177,1.4206358 13.628707,1.3579888 13.59375,1.28125 13.527751,1.137623 13.460218,1.0056717 13.375,0.875 13.329543,0.80440477 13.301615,0.72307984 13.25,0.65625 13.232095,0.63392139 13.206119,0.61526948 13.1875,0.59375 13.122628,0.51483831 13.043174,0.44758122 12.96875,0.375 12.926222,0.33352501 12.889525,0.289225 12.84375,0.25 12.817571,0.23090244 12.777724,0.23592814 12.75,0.21875 12.650123,0.15805201 12.551361,0.0989478 12.4375,0.0625 12.427432,0.05946812 12.416388,0.06529192 12.40625,0.0625 12.281851,0.02542969 12.141521,0.0029125 12,0 z"
         style="fill:#e74c3c;fill-opacity:1;fill-rule:nonzero;stroke:none"
         inkscape:connector-curvature="0" />
    </g>
    <path
       sodipodi:type="arc"
       style="fill:#c0392b;fill-opacity:1;fill-rule:nonzero;stroke:none"
       id="path3363"
       sodipodi:cx="12"
       sodipodi:cy="12"
       sodipodi:rx="4"
       sodipodi:ry="4"
       d="M 16,12 A 4,4 0 1 1 8,12 4,4 0 1 1 16,12 z"
       transform="translate(0,1028.3622)" />
    <path
       sodipodi:type="arc"
       style="fill:#e67e22;fill-opacity:1;fill-rule:nonzero;stroke:none"
       id="path3365"
       sodipodi:cx="12"
       sodipodi:cy="12.5"
       sodipodi:rx="2"
       sodipodi:ry="2.5"
       d="M 14,12.5 A 2,2.5 0 1 1 10,12.5 2,2.5 0 1 1 14,12.5 z"
       transform="matrix(1,0,0,0.8,0,1030.3622)" />
  </g>
</svg>
