<?xml version="1.0" encoding="UTF-8" standalone="no"?>
<!-- Created with Inkscape (http://www.inkscape.org/) -->

<svg
   xmlns:dc="http://purl.org/dc/elements/1.1/"
   xmlns:cc="http://creativecommons.org/ns#"
   xmlns:rdf="http://www.w3.org/1999/02/22-rdf-syntax-ns#"
   xmlns:svg="http://www.w3.org/2000/svg"
   xmlns="http://www.w3.org/2000/svg"
   version="1.1"
   width="24"
   height="24"
   id="svg2">
  <defs
     id="defs4" />
  <metadata
     id="metadata7">
    <rdf:RDF>
      <cc:Work
         rdf:about="">
        <dc:format>image/svg+xml</dc:format>
        <dc:type
           rdf:resource="http://purl.org/dc/dcmitype/StillImage" />
        <dc:title></dc:title>
      </cc:Work>
    </rdf:RDF>
  </metadata>
  <g
     transform="translate(0,-1028.3622)"
     id="layer1">
    <path
       d="M 2,1033.3622 C 0.895431,1033.3622 0,1034.2576 0,1035.3622 L 0,1049.3622 C 0,1050.4668 0.89543,1051.3622 2,1051.3622 L 22,1051.3622 C 23.104569,1051.3622 24,1050.4668 24,1049.3622 L 24,1035.3622 C 24,1034.2576 23.10457,1033.3622 22,1033.3622 L 2,1033.3622 z"
       id="path2987-6-10"
       style="fill:#2980b9;fill-opacity:1;fill-rule:nonzero;stroke:none" />
    <path
       d="M 3,1029.3622 C 1.895431,1029.3622 1,1030.2576 1,1031.3622 L 1,1045.3622 C 1,1046.4668 1.89543,1047.3622 3,1047.3622 L 14,1047.3622 19,1047.3622 21,1047.3622 C 22.104569,1047.3622 23,1046.4668 23,1045.3622 L 23,1036.3622 23,1033.3622 C 23,1032.2576 22.104569,1031.3622 21,1031.3622 L 19,1031.3622 14,1031.3622 13,1031.3622 10,1029.3622 3,1029.3622 z"
       id="path2987-6-1-6-9"
       style="fill:#2980b9;fill-opacity:1;fill-rule:nonzero;stroke:none" />
    <path
       d="M 23,1042.3622 23,1034.3622 C 23,1033.2576 22.10457,1032.3622 21,1032.3622 L 10,1032.3622 5,1032.3622 3,1032.3622 C 1.895431,1032.3622 1,1033.2576 1,1034.3622 L 1,1042.3622 23,1042.3622 z"
       id="path2987-6-1-6-9-1-9"
       style="fill:#bdc3c7;fill-opacity:1;fill-rule:nonzero;stroke:none" />
    <path
       d="M 2,1033.3622 C 0.895431,1033.3622 0,1034.2576 0,1035.3622 L 0,1041.3622 0,1042.3622 0,1048.3622 C 0,1049.4668 0.89543,1050.3622 2,1050.3622 L 22,1050.3622 C 23.104569,1050.3622 24,1049.4668 24,1048.3622 L 24,1042.3622 24,1041.3622 24,1035.3622 C 24,1034.2576 23.10457,1033.3622 22,1033.3622 L 2,1033.3622 z"
       id="path2987-6-8"
       style="fill:#3498db;fill-opacity:1;fill-rule:nonzero;stroke:none" />
    <path
       d="M 6.25,1035.3622 C 5.906249,1035.3623 5.619791,1035.4924 5.375,1035.7372 5.130208,1035.982 5,1036.2685 5,1036.6122 L 5,1047.1122 C 5,1047.456 5.130208,1047.7424 5.375,1047.9872 5.619791,1048.2319 5.906249,1048.3622 6.25,1048.3622 L 11,1048.3622 13,1048.3622 17.75,1048.3622 C 18.093751,1048.3621 18.380209,1048.232 18.625,1047.9872 18.869792,1047.7424 19,1047.4559 19,1047.1122 L 19,1036.6122 C 19,1036.2684 18.869792,1035.982 18.625,1035.7372 18.380209,1035.4925 18.093751,1035.3622 17.75,1035.3622 L 13,1035.3622 11,1035.3622 6.25,1035.3622 z M 6.5,1036.3622 7.5,1036.3622 C 7.635414,1036.3623 7.744789,1036.4195 7.84375,1036.5185 7.942705,1036.6174 7.999997,1036.7268 8,1036.8622 L 8,1037.8622 C 7.999997,1037.9977 7.942705,1038.1071 7.84375,1038.206 7.744789,1038.305 7.635414,1038.3623 7.5,1038.3622 L 6.5,1038.3622 C 6.364582,1038.3623 6.255207,1038.305 6.15625,1038.206 6.05729,1038.1071 5.999999,1037.9977 6,1037.8622 L 6,1036.8622 C 5.999999,1036.7268 6.05729,1036.6174 6.15625,1036.5185 6.255207,1036.4195 6.364582,1036.3623 6.5,1036.3622 z M 9.5,1036.3622 11,1036.3622 13,1036.3622 14.5,1036.3622 C 14.635421,1036.3622 14.744796,1036.4195 14.84375,1036.5185 14.942713,1036.6175 15.000004,1036.7267 15,1036.8622 L 15,1040.8622 C 15.000004,1040.9976 14.942713,1041.1071 14.84375,1041.206 14.744796,1041.305 14.635421,1041.3622 14.5,1041.3622 L 13,1041.3622 11,1041.3622 9.5,1041.3622 C 9.364579,1041.3622 9.255204,1041.305 9.15625,1041.206 9.057287,1041.1071 8.999996,1040.9977 9,1040.8622 L 9,1036.8622 C 8.999996,1036.7268 9.057287,1036.6174 9.15625,1036.5185 9.255204,1036.4195 9.364579,1036.3623 9.5,1036.3622 z M 16.5,1036.3622 17.5,1036.3622 C 17.635418,1036.3622 17.744793,1036.4195 17.84375,1036.5185 17.94271,1036.6175 18.000001,1036.7267 18,1036.8622 L 18,1037.8622 C 18.000001,1037.9976 17.94271,1038.1071 17.84375,1038.206 17.744793,1038.305 17.635418,1038.3622 17.5,1038.3622 L 16.5,1038.3622 C 16.364586,1038.3622 16.255211,1038.305 16.15625,1038.206 16.057295,1038.1071 16.000003,1037.9976 16,1037.8622 L 16,1036.8622 C 16.000003,1036.7267 16.057295,1036.6175 16.15625,1036.5185 16.255211,1036.4195 16.364586,1036.3622 16.5,1036.3622 z M 6.5,1039.3622 7.5,1039.3622 C 7.635414,1039.3623 7.744789,1039.4195 7.84375,1039.5185 7.942705,1039.6174 7.999997,1039.7268 8,1039.8622 L 8,1040.8622 C 7.999997,1040.9977 7.942705,1041.1071 7.84375,1041.206 7.744789,1041.305 7.635414,1041.3622 7.5,1041.3622 L 6.5,1041.3622 C 6.364582,1041.3622 6.255207,1041.305 6.15625,1041.206 6.05729,1041.1071 5.999999,1040.9977 6,1040.8622 L 6,1039.8622 C 5.999999,1039.7268 6.05729,1039.6174 6.15625,1039.5185 6.255207,1039.4195 6.364582,1039.3623 6.5,1039.3622 z M 16.5,1039.3622 17.5,1039.3622 C 17.635418,1039.3622 17.744793,1039.4195 17.84375,1039.5185 17.94271,1039.6175 18.000001,1039.7267 18,1039.8622 L 18,1040.8622 C 18.000001,1040.9976 17.94271,1041.1071 17.84375,1041.206 17.744793,1041.305 17.635418,1041.3622 17.5,1041.3622 L 16.5,1041.3622 C 16.364586,1041.3622 16.255211,1041.305 16.15625,1041.206 16.057295,1041.1071 16.000003,1040.9976 16,1040.8622 L 16,1039.8622 C 16.000003,1039.7267 16.057295,1039.6175 16.15625,1039.5185 16.255211,1039.4195 16.364586,1039.3622 16.5,1039.3622 z M 6.5,1042.3622 7.5,1042.3622 C 7.635414,1042.3622 7.744789,1042.4195 7.84375,1042.5185 7.942705,1042.6174 7.999997,1042.7268 8,1042.8622 L 8,1043.8622 C 7.999997,1043.9977 7.942705,1044.107 7.84375,1044.206 7.744789,1044.305 7.635414,1044.3622 7.5,1044.3622 L 6.5,1044.3622 C 6.364582,1044.3622 6.255207,1044.305 6.15625,1044.206 6.05729,1044.107 5.999999,1043.9977 6,1043.8622 L 6,1042.8622 C 5.999999,1042.7268 6.05729,1042.6174 6.15625,1042.5185 6.255207,1042.4195 6.364582,1042.3622 6.5,1042.3622 z M 9.5,1042.3622 11,1042.3622 13,1042.3622 14.5,1042.3622 C 14.635421,1042.3622 14.744796,1042.4195 14.84375,1042.5185 14.942713,1042.6174 15.000004,1042.7267 15,1042.8622 L 15,1046.8622 C 15.000004,1046.9976 14.942713,1047.1071 14.84375,1047.206 14.744796,1047.305 14.635421,1047.3621 14.5,1047.3622 L 13,1047.3622 11,1047.3622 9.5,1047.3622 C 9.364579,1047.3622 9.255204,1047.305 9.15625,1047.206 9.057287,1047.1069 8.999996,1046.9977 9,1046.8622 L 9,1042.8622 C 8.999996,1042.7268 9.057287,1042.6174 9.15625,1042.5185 9.255204,1042.4195 9.364579,1042.3622 9.5,1042.3622 z M 16.5,1042.3622 17.5,1042.3622 C 17.635418,1042.3622 17.744793,1042.4195 17.84375,1042.5185 17.94271,1042.6174 18.000001,1042.7267 18,1042.8622 L 18,1043.8622 C 18.000001,1043.9976 17.94271,1044.1071 17.84375,1044.206 17.744793,1044.305 17.635418,1044.3621 17.5,1044.3622 L 16.5,1044.3622 C 16.364586,1044.3621 16.255211,1044.305 16.15625,1044.206 16.057295,1044.1071 16.000003,1043.9976 16,1043.8622 L 16,1042.8622 C 16.000003,1042.7267 16.057295,1042.6174 16.15625,1042.5185 16.255211,1042.4195 16.364586,1042.3622 16.5,1042.3622 z M 6.5,1045.3622 7.5,1045.3622 C 7.635414,1045.3622 7.744789,1045.4194 7.84375,1045.5185 7.942705,1045.6173 7.999997,1045.7268 8,1045.8622 L 8,1046.8622 C 7.999997,1046.9977 7.942705,1047.1069 7.84375,1047.206 7.744789,1047.305 7.635414,1047.3622 7.5,1047.3622 L 6.5,1047.3622 C 6.364582,1047.3622 6.255207,1047.305 6.15625,1047.206 6.05729,1047.1069 5.999999,1046.9977 6,1046.8622 L 6,1045.8622 C 5.999999,1045.7268 6.05729,1045.6173 6.15625,1045.5185 6.255207,1045.4194 6.364582,1045.3622 6.5,1045.3622 z M 16.5,1045.3622 17.5,1045.3622 C 17.635418,1045.3621 17.744793,1045.4195 17.84375,1045.5185 17.94271,1045.6174 18.000001,1045.7267 18,1045.8622 L 18,1046.8622 C 18.000001,1046.9976 17.94271,1047.1071 17.84375,1047.206 17.744793,1047.305 17.635418,1047.3621 17.5,1047.3622 L 16.5,1047.3622 C 16.364586,1047.3621 16.255211,1047.305 16.15625,1047.206 16.057295,1047.1071 16.000003,1046.9976 16,1046.8622 L 16,1045.8622 C 16.000003,1045.7267 16.057295,1045.6174 16.15625,1045.5185 16.255211,1045.4195 16.364586,1045.3621 16.5,1045.3622 z"
       id="path3003-2"
       style="font-size:14px;font-style:normal;font-variant:normal;font-weight:normal;font-stretch:normal;text-align:end;line-height:125%;letter-spacing:0px;word-spacing:0px;text-anchor:end;fill:#2980b9;fill-opacity:1;stroke:none;font-family:FontAwesome;-inkscape-font-specification:FontAwesome" />
  </g>
</svg>
