<?xml version="1.0" encoding="UTF-8" standalone="no"?>
<!-- Created with Inkscape (http://www.inkscape.org/) -->

<svg
   xmlns:dc="http://purl.org/dc/elements/1.1/"
   xmlns:cc="http://creativecommons.org/ns#"
   xmlns:rdf="http://www.w3.org/1999/02/22-rdf-syntax-ns#"
   xmlns:svg="http://www.w3.org/2000/svg"
   xmlns="http://www.w3.org/2000/svg"
   xmlns:sodipodi="http://sodipodi.sourceforge.net/DTD/sodipodi-0.dtd"
   xmlns:inkscape="http://www.inkscape.org/namespaces/inkscape"
   version="1.1"
   width="24"
   height="24"
   id="svg2"
   inkscape:version="0.48.3.1 r9886"
   sodipodi:docname="folder-picture.svg">
  <sodipodi:namedview
     pagecolor="#ffffff"
     bordercolor="#666666"
     borderopacity="1"
     objecttolerance="10"
     gridtolerance="10"
     guidetolerance="10"
     inkscape:pageopacity="0"
     inkscape:pageshadow="2"
     inkscape:window-width="1920"
     inkscape:window-height="1150"
     id="namedview11"
     showgrid="true"
     inkscape:snap-bbox="true"
     inkscape:snap-nodes="false"
     inkscape:zoom="11.313709"
     inkscape:cx="34.643612"
     inkscape:cy="13.988094"
     inkscape:window-x="0"
     inkscape:window-y="0"
     inkscape:window-maximized="1"
     inkscape:current-layer="layer1">
    <inkscape:grid
       type="xygrid"
       id="grid2988" />
  </sodipodi:namedview>
  <defs
     id="defs4" />
  <metadata
     id="metadata7">
    <rdf:RDF>
      <cc:Work
         rdf:about="">
        <dc:format>image/svg+xml</dc:format>
        <dc:type
           rdf:resource="http://purl.org/dc/dcmitype/StillImage" />
        <dc:title />
      </cc:Work>
    </rdf:RDF>
  </metadata>
  <g
     transform="translate(0,-1028.3622)"
     id="layer1">
    <path
       d="M 2,1033.3622 C 0.895431,1033.3622 0,1034.2576 0,1035.3622 L 0,1049.3622 C 0,1050.4668 0.89543,1051.3622 2,1051.3622 L 22,1051.3622 C 23.104569,1051.3622 24,1050.4668 24,1049.3622 L 24,1035.3622 C 24,1034.2576 23.10457,1033.3622 22,1033.3622 L 2,1033.3622 z"
       id="path2987-6-10"
       style="fill:#2980b9;fill-opacity:1;fill-rule:nonzero;stroke:none" />
    <path
       d="M 3,1029.3622 C 1.895431,1029.3622 1,1030.2576 1,1031.3622 L 1,1045.3622 C 1,1046.4668 1.89543,1047.3622 3,1047.3622 L 14,1047.3622 19,1047.3622 21,1047.3622 C 22.104569,1047.3622 23,1046.4668 23,1045.3622 L 23,1036.3622 23,1033.3622 C 23,1032.2576 22.104569,1031.3622 21,1031.3622 L 19,1031.3622 14,1031.3622 13,1031.3622 10,1029.3622 3,1029.3622 z"
       id="path2987-6-1-6-9"
       style="fill:#2980b9;fill-opacity:1;fill-rule:nonzero;stroke:none" />
    <path
       d="M 23,1042.3622 23,1034.3622 C 23,1033.2576 22.10457,1032.3622 21,1032.3622 L 10,1032.3622 5,1032.3622 3,1032.3622 C 1.895431,1032.3622 1,1033.2576 1,1034.3622 L 1,1042.3622 23,1042.3622 z"
       id="path2987-6-1-6-9-1-9"
       style="fill:#bdc3c7;fill-opacity:1;fill-rule:nonzero;stroke:none" />
    <path
       d="M 2,1033.3622 C 0.895431,1033.3622 0,1034.2576 0,1035.3622 L 0,1041.3622 0,1042.3622 0,1048.3622 C 0,1049.4668 0.89543,1050.3622 2,1050.3622 L 22,1050.3622 C 23.104569,1050.3622 24,1049.4668 24,1048.3622 L 24,1042.3622 24,1041.3622 24,1035.3622 C 24,1034.2576 23.10457,1033.3622 22,1033.3622 L 2,1033.3622 z"
       id="path2987-6-8"
       style="fill:#3498db;fill-opacity:1;fill-rule:nonzero;stroke:none" />
    <path
       style="font-size:14px;font-style:normal;font-variant:normal;font-weight:normal;font-stretch:normal;text-align:end;line-height:125%;letter-spacing:0px;word-spacing:0px;text-anchor:end;fill:#2980b9;fill-opacity:1;stroke:none;font-family:Wingdings;-inkscape-font-specification:Wingdings"
       d="M 5.25,1036.3622 C 4.906249,1036.3622 4.619791,1036.4924 4.375,1036.7372 4.130208,1036.982 4,1037.2684 4,1037.6122 L 4,1047.1122 C 4,1047.4559 4.130208,1047.7424 4.375,1047.9872 4.619791,1048.232 4.906249,1048.3622 5.25,1048.3622 L 17,1048.3622 18,1048.3622 18.75,1048.3622 C 19.093736,1048.3622 19.380193,1048.232 19.625,1047.9872 19.869776,1047.7424 19.999985,1047.4559 20,1047.1122 L 20,1037.6122 C 19.999985,1037.2684 19.869776,1036.982 19.625,1036.7372 19.380193,1036.4924 19.093736,1036.3622 18.75,1036.3622 L 18,1036.3622 17,1036.3622 5.25,1036.3622 z M 5.25,1037.3622 17,1037.3622 18,1037.3622 18.75,1037.3622 C 18.817695,1037.3622 18.890611,1037.3726 18.9375,1037.4247 18.989569,1037.4716 18.999986,1037.5445 19,1037.6122 L 19,1047.1122 C 18.999986,1047.1799 18.989569,1047.2476 18.9375,1047.2997 18.890611,1047.3465 18.817695,1047.3622 18.75,1047.3622 L 18,1047.3622 17,1047.3622 5.25,1047.3622 C 5.182291,1047.3622 5.114582,1047.3465 5.0625,1047.2997 5.015623,1047.2476 4.999999,1047.1799 5,1047.1122 L 5,1037.6122 C 4.999999,1037.5445 5.015623,1037.4716 5.0625,1037.4247 5.114582,1037.3726 5.182291,1037.3622 5.25,1037.3622 z M 7.5,1038.3622 C 7.08333,1038.3622 6.729164,1038.508 6.4375,1038.7997 6.145831,1039.0914 5.999998,1039.4455 6,1039.8622 5.999998,1040.2789 6.145831,1040.633 6.4375,1040.9247 6.729164,1041.2164 7.08333,1041.3622 7.5,1041.3622 7.916663,1041.3622 8.270829,1041.2164 8.5625,1040.9247 8.854162,1040.633 8.999995,1040.2789 9,1039.8622 8.999995,1039.4455 8.854162,1039.0914 8.5625,1038.7997 8.270829,1038.508 7.916663,1038.3622 7.5,1038.3622 z M 13.75,1039.6122 9.75,1043.6122 8.5,1042.3622 6,1044.8622 6,1046.3622 18,1046.3622 18,1044.3622 13.75,1039.6122 z"
       id="path2997-3"
       inkscape:connector-curvature="0" />
  </g>
</svg>
