<?xml version="1.0" encoding="UTF-8" standalone="no"?>
<!-- Created with Inkscape (http://www.inkscape.org/) -->

<svg
   xmlns:dc="http://purl.org/dc/elements/1.1/"
   xmlns:cc="http://creativecommons.org/ns#"
   xmlns:rdf="http://www.w3.org/1999/02/22-rdf-syntax-ns#"
   xmlns:svg="http://www.w3.org/2000/svg"
   xmlns="http://www.w3.org/2000/svg"
   xmlns:sodipodi="http://sodipodi.sourceforge.net/DTD/sodipodi-0.dtd"
   xmlns:inkscape="http://www.inkscape.org/namespaces/inkscape"
   version="1.1"
   width="24"
   height="24"
   id="svg2"
   inkscape:version="0.48.3.1 r9886"
   sodipodi:docname="folder-document.svg">
  <sodipodi:namedview
     pagecolor="#ffffff"
     bordercolor="#666666"
     borderopacity="1"
     objecttolerance="10"
     gridtolerance="10"
     guidetolerance="10"
     inkscape:pageopacity="0"
     inkscape:pageshadow="2"
     inkscape:window-width="1920"
     inkscape:window-height="1150"
     id="namedview11"
     showgrid="true"
     inkscape:snap-nodes="true"
     inkscape:snap-bbox="true"
     inkscape:zoom="13.906433"
     inkscape:cx="23.812956"
     inkscape:cy="8.199336"
     inkscape:window-x="0"
     inkscape:window-y="0"
     inkscape:window-maximized="1"
     inkscape:current-layer="layer1">
    <inkscape:grid
       type="xygrid"
       id="grid2988" />
  </sodipodi:namedview>
  <defs
     id="defs4" />
  <metadata
     id="metadata7">
    <rdf:RDF>
      <cc:Work
         rdf:about="">
        <dc:format>image/svg+xml</dc:format>
        <dc:type
           rdf:resource="http://purl.org/dc/dcmitype/StillImage" />
        <dc:title />
      </cc:Work>
    </rdf:RDF>
  </metadata>
  <g
     transform="translate(0,-1028.3622)"
     id="layer1">
    <path
       d="M 2,1033.3622 C 0.895431,1033.3622 0,1034.2576 0,1035.3622 L 0,1049.3622 C 0,1050.4668 0.89543,1051.3622 2,1051.3622 L 22,1051.3622 C 23.104569,1051.3622 24,1050.4668 24,1049.3622 L 24,1035.3622 C 24,1034.2576 23.10457,1033.3622 22,1033.3622 L 2,1033.3622 z"
       id="path2987-6-10"
       style="fill:#2980b9;fill-opacity:1;fill-rule:nonzero;stroke:none" />
    <path
       d="M 3,1029.3622 C 1.895431,1029.3622 1,1030.2576 1,1031.3622 L 1,1045.3622 C 1,1046.4668 1.89543,1047.3622 3,1047.3622 L 14,1047.3622 19,1047.3622 21,1047.3622 C 22.104569,1047.3622 23,1046.4668 23,1045.3622 L 23,1036.3622 23,1033.3622 C 23,1032.2576 22.104569,1031.3622 21,1031.3622 L 19,1031.3622 14,1031.3622 13,1031.3622 10,1029.3622 3,1029.3622 z"
       id="path2987-6-1-6-9"
       style="fill:#2980b9;fill-opacity:1;fill-rule:nonzero;stroke:none" />
    <path
       d="M 23,1042.3622 23,1034.3622 C 23,1033.2576 22.10457,1032.3622 21,1032.3622 L 10,1032.3622 5,1032.3622 3,1032.3622 C 1.895431,1032.3622 1,1033.2576 1,1034.3622 L 1,1042.3622 23,1042.3622 z"
       id="path2987-6-1-6-9-1-9"
       style="fill:#bdc3c7;fill-opacity:1;fill-rule:nonzero;stroke:none" />
    <path
       d="M 2,1033.3622 C 0.895431,1033.3622 0,1034.2576 0,1035.3622 L 0,1041.3622 0,1042.3622 0,1048.3622 C 0,1049.4668 0.89543,1050.3622 2,1050.3622 L 22,1050.3622 C 23.104569,1050.3622 24,1049.4668 24,1048.3622 L 24,1042.3622 24,1041.3622 24,1035.3622 C 24,1034.2576 23.10457,1033.3622 22,1033.3622 L 2,1033.3622 z"
       id="path2987-6-8"
       style="fill:#3498db;fill-opacity:1;fill-rule:nonzero;stroke:none" />
    <path
       style="font-size:14px;font-style:normal;font-variant:normal;font-weight:normal;font-stretch:normal;text-align:end;line-height:125%;letter-spacing:0px;word-spacing:0px;text-anchor:end;fill:#2980b9;fill-opacity:1;stroke:none;font-family:Wingdings;-inkscape-font-specification:Wingdings"
       d="M 7.75,1035.3622 C 7.541666,1035.3622 7.364583,1035.4352 7.21875,1035.581 7.072917,1035.7269 7,1035.9039 7,1036.1122 L 7,1045.3622 7,1047.6122 C 7,1047.8205 7.072917,1047.9977 7.21875,1048.1435 7.364583,1048.2894 7.541666,1048.3622 7.75,1048.3622 L 12,1048.3622 17.25,1048.3622 C 17.458324,1048.3622 17.635407,1048.2894 17.78125,1048.1435 17.927073,1047.9977 17.99999,1047.8205 18,1047.6122 L 18,1045.3622 18,1039.6122 C 17.99999,1039.4038 17.947907,1039.1747 17.84375,1038.9247 17.739574,1038.6747 17.614574,1038.4769 17.46875,1038.331 L 15.03125,1035.8935 C 14.88541,1035.7477 14.687493,1035.6227 14.4375,1035.5185 14.187494,1035.4144 13.958327,1035.3622 13.75,1035.3622 L 12,1035.3622 7.75,1035.3622 z M 8,1036.3622 12,1036.3622 13,1036.3622 13,1039.6122 C 12.999995,1039.8205 13.072912,1039.9977 13.21875,1040.1435 13.364578,1040.2894 13.541661,1040.3622 13.75,1040.3622 L 17,1040.3622 17,1045.3622 17,1047.3622 12,1047.3622 8,1047.3622 8,1045.3622 8,1036.3622 z M 14,1036.4247 C 14.151036,1036.4768 14.249993,1036.5186 14.3125,1036.581 L 16.75,1039.0497 C 16.812491,1039.1122 16.885408,1039.2111 16.9375,1039.3622 L 14,1039.3622 14,1036.4247 z M 9.25,1041.3622 C 9.177081,1041.3622 9.109372,1041.3778 9.0625,1041.4247 9.015622,1041.4716 8.999998,1041.5393 9,1041.6122 L 9,1042.1122 C 8.999998,1042.1851 9.015622,1042.2528 9.0625,1042.2997 9.109372,1042.3465 9.177081,1042.3622 9.25,1042.3622 L 12,1042.3622 15.75,1042.3622 C 15.822909,1042.3622 15.890617,1042.3465 15.9375,1042.2997 15.984367,1042.2528 15.999992,1042.1851 16,1042.1122 L 16,1041.6122 C 15.999992,1041.5393 15.984367,1041.4716 15.9375,1041.4247 15.890617,1041.3778 15.822909,1041.3622 15.75,1041.3622 L 12,1041.3622 9.25,1041.3622 z M 9.25,1043.3622 C 9.177081,1043.3622 9.109372,1043.3778 9.0625,1043.4247 9.015622,1043.4716 8.999998,1043.5393 9,1043.6122 L 9,1044.1122 C 8.999998,1044.1851 9.015622,1044.2528 9.0625,1044.2997 9.109372,1044.3465 9.177081,1044.3622 9.25,1044.3622 L 12,1044.3622 15.75,1044.3622 C 15.822909,1044.3622 15.890617,1044.3465 15.9375,1044.2997 15.984367,1044.2528 15.999992,1044.1851 16,1044.1122 L 16,1043.6122 C 15.999992,1043.5393 15.984367,1043.4716 15.9375,1043.4247 15.890617,1043.3778 15.822909,1043.3622 15.75,1043.3622 L 12,1043.3622 9.25,1043.3622 z M 9.25,1045.3622 C 9.177081,1045.3622 9.109372,1045.3778 9.0625,1045.4247 9.015622,1045.4716 8.999998,1045.5393 9,1045.6122 L 9,1046.1122 C 8.999998,1046.1851 9.015622,1046.2528 9.0625,1046.2997 9.109372,1046.3465 9.177081,1046.3622 9.25,1046.3622 L 12,1046.3622 15.75,1046.3622 C 15.822909,1046.3622 15.890617,1046.3465 15.9375,1046.2997 15.984367,1046.2528 15.999992,1046.1851 16,1046.1122 L 16,1045.6122 C 15.999992,1045.5393 15.984367,1045.4716 15.9375,1045.4247 15.890617,1045.3778 15.822909,1045.3622 15.75,1045.3622 L 12,1045.3622 9.25,1045.3622 z"
       id="path2997-5-4"
       inkscape:connector-curvature="0" />
  </g>
</svg>
