<?xml version="1.0" encoding="UTF-8" standalone="no"?>
<!-- Created with Inkscape (http://www.inkscape.org/) -->

<svg
   xmlns:dc="http://purl.org/dc/elements/1.1/"
   xmlns:cc="http://creativecommons.org/ns#"
   xmlns:rdf="http://www.w3.org/1999/02/22-rdf-syntax-ns#"
   xmlns:svg="http://www.w3.org/2000/svg"
   xmlns="http://www.w3.org/2000/svg"
   xmlns:sodipodi="http://sodipodi.sourceforge.net/DTD/sodipodi-0.dtd"
   xmlns:inkscape="http://www.inkscape.org/namespaces/inkscape"
   width="24"
   height="24"
   id="svg2"
   version="1.1"
   inkscape:version="0.48.3.1 r9886"
   sodipodi:docname="folder-blue-alt.svg">
  <defs
     id="defs4" />
  <sodipodi:namedview
     id="base"
     pagecolor="#ffffff"
     bordercolor="#666666"
     borderopacity="1.0"
     inkscape:pageopacity="0.0"
     inkscape:pageshadow="2"
     inkscape:zoom="35.724974"
     inkscape:cx="15.318615"
     inkscape:cy="21.519277"
     inkscape:document-units="px"
     inkscape:current-layer="layer1"
     showgrid="true"
     inkscape:window-width="1920"
     inkscape:window-height="1150"
     inkscape:window-x="0"
     inkscape:window-y="0"
     inkscape:window-maximized="1">
    <inkscape:grid
       type="xygrid"
       id="grid2985"
       empspacing="4"
       visible="true"
       enabled="true"
       snapvisiblegridlinesonly="true" />
  </sodipodi:namedview>
  <metadata
     id="metadata7">
    <rdf:RDF>
      <cc:Work
         rdf:about="">
        <dc:format>image/svg+xml</dc:format>
        <dc:type
           rdf:resource="http://purl.org/dc/dcmitype/StillImage" />
        <dc:title />
      </cc:Work>
    </rdf:RDF>
  </metadata>
  <g
     inkscape:label="Layer 1"
     inkscape:groupmode="layer"
     id="layer1"
     transform="translate(0,-1028.3622)">
    <path
       style="fill:#2980b9;fill-opacity:1;fill-rule:nonzero;stroke:none"
       d="M 2,1034.3622 C 0.895431,1034.3622 0,1035.2576 0,1036.3622 L 0,1050.3622 C 0,1051.4668 0.89543,1052.3622 2,1052.3622 L 22,1052.3622 C 23.104569,1052.3622 24,1051.4668 24,1050.3622 L 24,1036.3622 C 24,1035.2576 23.10457,1034.3622 22,1034.3622 L 2,1034.3622 z"
       id="path2987-6-10"
       inkscape:connector-curvature="0" />
    <path
       style="fill:#2980b9;fill-opacity:1;fill-rule:nonzero;stroke:none"
       d="M 3,1030.3622 C 1.895431,1030.3622 1,1031.2576 1,1032.3622 L 1,1046.3622 C 1,1047.4668 1.89543,1048.3622 3,1048.3622 L 14,1048.3622 19,1048.3622 21,1048.3622 C 22.104569,1048.3622 23,1047.4668 23,1046.3622 L 23,1037.3622 23,1034.3622 C 23,1033.2576 22.104569,1032.3622 21,1032.3622 L 19,1032.3622 14,1032.3622 13,1032.3622 10,1030.3622 3,1030.3622 z"
       id="path2987-6-1-6-9"
       inkscape:connector-curvature="0" />
    <path
       style="fill:#bdc3c7;fill-opacity:1;fill-rule:nonzero;stroke:none"
       d="M 23,1043.3622 23,1035.3622 C 23,1034.2576 22.10457,1033.3622 21,1033.3622 L 10,1033.3622 5,1033.3622 3,1033.3622 C 1.895431,1033.3622 1,1034.2576 1,1035.3622 L 1,1043.3622 23,1043.3622 z"
       id="path2987-6-1-6-9-1-9"
       inkscape:connector-curvature="0" />
    <path
       style="fill:#3498db;fill-opacity:1;fill-rule:nonzero;stroke:none"
       d="M 2,1034.3622 C 0.895431,1034.3622 0,1035.2576 0,1036.3622 L 0,1042.3622 0,1043.3622 0,1049.3622 C 0,1050.4668 0.89543,1051.3622 2,1051.3622 L 22,1051.3622 C 23.104569,1051.3622 24,1050.4668 24,1049.3622 L 24,1043.3622 24,1042.3622 24,1036.3622 C 24,1035.2576 23.10457,1034.3622 22,1034.3622 L 2,1034.3622 z"
       id="path2987-6-8"
       inkscape:connector-curvature="0" />
  </g>
</svg>
