<?xml version="1.0" encoding="UTF-8" standalone="no"?>
<!-- Created with Inkscape (http://www.inkscape.org/) -->

<svg
   xmlns:dc="http://purl.org/dc/elements/1.1/"
   xmlns:cc="http://creativecommons.org/ns#"
   xmlns:rdf="http://www.w3.org/1999/02/22-rdf-syntax-ns#"
   xmlns:svg="http://www.w3.org/2000/svg"
   xmlns="http://www.w3.org/2000/svg"
   xmlns:sodipodi="http://sodipodi.sourceforge.net/DTD/sodipodi-0.dtd"
   xmlns:inkscape="http://www.inkscape.org/namespaces/inkscape"
   version="1.1"
   width="24"
   height="24"
   id="svg2"
   inkscape:version="0.48.3.1 r9886"
   sodipodi:docname="folder-music.svg">
  <sodipodi:namedview
     pagecolor="#ffffff"
     bordercolor="#666666"
     borderopacity="1"
     objecttolerance="10"
     gridtolerance="10"
     guidetolerance="10"
     inkscape:pageopacity="0"
     inkscape:pageshadow="2"
     inkscape:window-width="1920"
     inkscape:window-height="1150"
     id="namedview11"
     showgrid="true"
     inkscape:snap-nodes="false"
     inkscape:snap-bbox="true"
     inkscape:zoom="27.812867"
     inkscape:cx="20.408306"
     inkscape:cy="10.199268"
     inkscape:window-x="0"
     inkscape:window-y="0"
     inkscape:window-maximized="1"
     inkscape:current-layer="svg2">
    <inkscape:grid
       type="xygrid"
       id="grid2988" />
  </sodipodi:namedview>
  <defs
     id="defs4" />
  <metadata
     id="metadata7">
    <rdf:RDF>
      <cc:Work
         rdf:about="">
        <dc:format>image/svg+xml</dc:format>
        <dc:type
           rdf:resource="http://purl.org/dc/dcmitype/StillImage" />
        <dc:title />
      </cc:Work>
    </rdf:RDF>
  </metadata>
  <g
     transform="translate(0,-1028.3622)"
     id="layer1">
    <path
       d="M 2,1033.3622 C 0.895431,1033.3622 0,1034.2576 0,1035.3622 L 0,1049.3622 C 0,1050.4668 0.89543,1051.3622 2,1051.3622 L 22,1051.3622 C 23.104569,1051.3622 24,1050.4668 24,1049.3622 L 24,1035.3622 C 24,1034.2576 23.10457,1033.3622 22,1033.3622 L 2,1033.3622 z"
       id="path2987-6-10"
       style="fill:#2980b9;fill-opacity:1;fill-rule:nonzero;stroke:none" />
    <path
       d="M 3,1029.3622 C 1.895431,1029.3622 1,1030.2576 1,1031.3622 L 1,1045.3622 C 1,1046.4668 1.89543,1047.3622 3,1047.3622 L 14,1047.3622 19,1047.3622 21,1047.3622 C 22.104569,1047.3622 23,1046.4668 23,1045.3622 L 23,1036.3622 23,1033.3622 C 23,1032.2576 22.104569,1031.3622 21,1031.3622 L 19,1031.3622 14,1031.3622 13,1031.3622 10,1029.3622 3,1029.3622 z"
       id="path2987-6-1-6-9"
       style="fill:#2980b9;fill-opacity:1;fill-rule:nonzero;stroke:none" />
    <path
       d="M 23,1042.3622 23,1034.3622 C 23,1033.2576 22.10457,1032.3622 21,1032.3622 L 10,1032.3622 5,1032.3622 3,1032.3622 C 1.895431,1032.3622 1,1033.2576 1,1034.3622 L 1,1042.3622 23,1042.3622 z"
       id="path2987-6-1-6-9-1-9"
       style="fill:#bdc3c7;fill-opacity:1;fill-rule:nonzero;stroke:none" />
    <path
       d="M 2,1033.3622 C 0.895431,1033.3622 0,1034.2576 0,1035.3622 L 0,1041.3622 0,1042.3622 0,1048.3622 C 0,1049.4668 0.89543,1050.3622 2,1050.3622 L 22,1050.3622 C 23.104569,1050.3622 24,1049.4668 24,1048.3622 L 24,1042.3622 24,1041.3622 24,1035.3622 C 24,1034.2576 23.10457,1033.3622 22,1033.3622 L 2,1033.3622 z"
       id="path2987-6-8"
       style="fill:#3498db;fill-opacity:1;fill-rule:nonzero;stroke:none" />
  </g>
  <path
     inkscape:connector-curvature="0"
     id="path2997"
     style="font-size:14px;font-style:normal;font-variant:normal;font-weight:normal;font-stretch:normal;text-align:end;line-height:125%;letter-spacing:0px;word-spacing:0px;text-anchor:end;fill:#2980b9;fill-opacity:1;stroke:none;font-family:FontAwesome;-inkscape-font-specification:FontAwesome"
     d="M 17,7.75 17,16.499999 C 16.999988,16.760417 16.911446,16.992188 16.734375,17.195312 16.55728,17.398438 16.333322,17.557292 16.0625,17.671874 15.791655,17.78125 15.520822,17.864583 15.25,17.921874 14.984365,17.973958 14.734365,17.999999 14.5,17.999999 14.265615,17.999999 14.013011,17.973958 13.742187,17.921874 13.476554,17.864583 13.208325,17.78125 12.9375,17.671874 12.666659,17.557292 12.442701,17.398438 12.265625,17.195312 12.088534,16.992188 11.999993,16.760417 12,16.499999 11.999993,16.239585 12.088534,16.007814 12.265625,15.804687 12.442701,15.601564 12.666659,15.445315 12.9375,15.335937 13.208325,15.221356 13.476554,15.138023 13.742187,15.085937 14.013011,15.028648 14.265615,15.000003 14.5,15 15.046865,15.000003 15.546864,15.101565 16,15.304687 L 16,11.109374 9.9999997,12.960937 9.9999997,18.499999 C 9.9999947,18.760415 9.9114527,18.992186 9.7343747,19.195312 9.5572867,19.398436 9.3333287,19.554685 9.0624997,19.664062 8.7916617,19.778643 8.5208287,19.861977 8.2499997,19.914062 7.9843717,19.971352 7.7343717,19.999998 7.4999997,19.999999 7.2656217,19.999998 7.0130177,19.971352 6.7421867,19.914062 6.4765607,19.861977 6.2083317,19.778643 5.9374997,19.664062 5.6666657,19.554685 5.4427077,19.398436 5.2656247,19.195312 5.0885407,18.992186 4.9999997,18.760415 4.9999997,18.499999 4.9999997,18.239583 5.0885407,18.007812 5.2656247,17.804687 5.4427077,17.601562 5.6666657,17.445312 5.9374997,17.335937 6.2083317,17.221354 6.4765607,17.138021 6.7421867,17.085937 7.0130177,17.028646 7.2656217,17 7.4999997,16.999999 8.0468717,17 8.5468707,17.101563 8.9999997,17.304687 L 8.9999997,9.7500005 C 8.9999957,9.58855 9.0494747,9.4427169 9.1484367,9.3125 9.2473907,9.1770921 9.3749947,9.0833422 9.5312497,9.03125 L 16.03125,7.03125 C 16.093739,7.0104276 16.166655,7.000011 16.25,7 16.458321,7.000011 16.635405,7.0729276 16.78125,7.21875 16.927071,7.3645939 16.999988,7.5416771 17,7.75" />
</svg>
