<?xml version="1.0" encoding="UTF-8" standalone="no"?>
<!-- Created with Inkscape (http://www.inkscape.org/) -->

<svg
   xmlns:dc="http://purl.org/dc/elements/1.1/"
   xmlns:cc="http://creativecommons.org/ns#"
   xmlns:rdf="http://www.w3.org/1999/02/22-rdf-syntax-ns#"
   xmlns:svg="http://www.w3.org/2000/svg"
   xmlns="http://www.w3.org/2000/svg"
   xmlns:sodipodi="http://sodipodi.sourceforge.net/DTD/sodipodi-0.dtd"
   xmlns:inkscape="http://www.inkscape.org/namespaces/inkscape"
   version="1.1"
   width="24"
   height="24"
   id="svg2"
   inkscape:version="0.48.3.1 r9886"
   sodipodi:docname="folder-home.svg">
  <sodipodi:namedview
     pagecolor="#ffffff"
     bordercolor="#666666"
     borderopacity="1"
     objecttolerance="10"
     gridtolerance="10"
     guidetolerance="10"
     inkscape:pageopacity="0"
     inkscape:pageshadow="2"
     inkscape:window-width="1920"
     inkscape:window-height="1150"
     id="namedview11"
     showgrid="true"
     inkscape:zoom="9.8333335"
     inkscape:cx="-20.440677"
     inkscape:cy="-0.39504784"
     inkscape:window-x="0"
     inkscape:window-y="0"
     inkscape:window-maximized="1"
     inkscape:current-layer="svg2"
     inkscape:snap-global="true"
     inkscape:snap-bbox="true">
    <inkscape:grid
       type="xygrid"
       id="grid2988"
       empspacing="4"
       visible="true"
       enabled="true"
       snapvisiblegridlinesonly="true" />
  </sodipodi:namedview>
  <defs
     id="defs4" />
  <metadata
     id="metadata7">
    <rdf:RDF>
      <cc:Work
         rdf:about="">
        <dc:format>image/svg+xml</dc:format>
        <dc:type
           rdf:resource="http://purl.org/dc/dcmitype/StillImage" />
        <dc:title />
      </cc:Work>
    </rdf:RDF>
  </metadata>
  <g
     transform="translate(0,-1028.3622)"
     id="layer1">
    <path
       d="M 2,1033.3622 C 0.895431,1033.3622 0,1034.2576 0,1035.3622 L 0,1049.3622 C 0,1050.4668 0.89543,1051.3622 2,1051.3622 L 22,1051.3622 C 23.104569,1051.3622 24,1050.4668 24,1049.3622 L 24,1035.3622 C 24,1034.2576 23.10457,1033.3622 22,1033.3622 L 2,1033.3622 z"
       id="path2987-6-10"
       style="fill:#2980b9;fill-opacity:1;fill-rule:nonzero;stroke:none" />
    <path
       d="M 3,1029.3622 C 1.895431,1029.3622 1,1030.2576 1,1031.3622 L 1,1045.3622 C 1,1046.4668 1.89543,1047.3622 3,1047.3622 L 14,1047.3622 19,1047.3622 21,1047.3622 C 22.104569,1047.3622 23,1046.4668 23,1045.3622 L 23,1036.3622 23,1033.3622 C 23,1032.2576 22.104569,1031.3622 21,1031.3622 L 19,1031.3622 14,1031.3622 13,1031.3622 10,1029.3622 3,1029.3622 z"
       id="path2987-6-1-6-9"
       style="fill:#2980b9;fill-opacity:1;fill-rule:nonzero;stroke:none" />
    <path
       d="M 23,1042.3622 23,1034.3622 C 23,1033.2576 22.10457,1032.3622 21,1032.3622 L 10,1032.3622 5,1032.3622 3,1032.3622 C 1.895431,1032.3622 1,1033.2576 1,1034.3622 L 1,1042.3622 23,1042.3622 z"
       id="path2987-6-1-6-9-1-9"
       style="fill:#bdc3c7;fill-opacity:1;fill-rule:nonzero;stroke:none" />
    <path
       d="M 2,1033.3622 C 0.895431,1033.3622 0,1034.2576 0,1035.3622 L 0,1041.3622 0,1042.3622 0,1048.3622 C 0,1049.4668 0.89543,1050.3622 2,1050.3622 L 22,1050.3622 C 23.104569,1050.3622 24,1049.4668 24,1048.3622 L 24,1042.3622 24,1041.3622 24,1035.3622 C 24,1034.2576 23.10457,1033.3622 22,1033.3622 L 2,1033.3622 z"
       id="path2987-6-8"
       style="fill:#3498db;fill-opacity:1;fill-rule:nonzero;stroke:none" />
  </g>
  <path
     style="fill:#2980b9;fill-opacity:1;fill-rule:nonzero;stroke:none"
     d="M 12 8.34375 L 5.46875 14 L 6.40625 15 L 7 14.46875 L 7 19 L 11 19 L 11 16 L 13 16 L 13 19 L 17 19 L 17 14.46875 L 17.59375 15 L 18.53125 14 L 17 12.6875 L 17 9 L 15 9 L 15 10.9375 L 12 8.34375 z "
     id="rect2988-9" />
</svg>
