<?xml version="1.0" encoding="UTF-8" standalone="no"?>
<!-- Created with Inkscape (http://www.inkscape.org/) -->

<svg
   xmlns:dc="http://purl.org/dc/elements/1.1/"
   xmlns:cc="http://creativecommons.org/ns#"
   xmlns:rdf="http://www.w3.org/1999/02/22-rdf-syntax-ns#"
   xmlns:svg="http://www.w3.org/2000/svg"
   xmlns="http://www.w3.org/2000/svg"
   xmlns:sodipodi="http://sodipodi.sourceforge.net/DTD/sodipodi-0.dtd"
   xmlns:inkscape="http://www.inkscape.org/namespaces/inkscape"
   version="1.1"
   width="24"
   height="24"
   id="svg2"
   inkscape:version="0.48.3.1 r9886"
   sodipodi:docname="folder-blue.svg">
  <sodipodi:namedview
     pagecolor="#ffffff"
     bordercolor="#666666"
     borderopacity="1"
     objecttolerance="10"
     gridtolerance="10"
     guidetolerance="10"
     inkscape:pageopacity="0"
     inkscape:pageshadow="2"
     inkscape:window-width="1920"
     inkscape:window-height="1150"
     id="namedview3960"
     showgrid="false"
     inkscape:zoom="6.9532167"
     inkscape:cx="4.0252112"
     inkscape:cy="14.392355"
     inkscape:window-x="0"
     inkscape:window-y="0"
     inkscape:window-maximized="1"
     inkscape:current-layer="layer1" />
  <defs
     id="defs4" />
  <metadata
     id="metadata7">
    <rdf:RDF>
      <cc:Work
         rdf:about="">
        <dc:format>image/svg+xml</dc:format>
        <dc:type
           rdf:resource="http://purl.org/dc/dcmitype/StillImage" />
        <dc:title />
      </cc:Work>
    </rdf:RDF>
  </metadata>
  <g
     transform="translate(0,-1028.3622)"
     id="layer1">
    <path
       d="M 12,1034.3622 C 12,1035.4668 11.10457,1036.3622 10,1036.3622 L 5,1036.3622 2,1036.3622 C 0.895431,1036.3622 0,1037.2576 0,1038.3622 L 0,1046.3622 0,1049.3622 C 0,1050.4668 0.89543,1051.3622 2,1051.3622 L 22,1051.3622 C 23.10457,1051.3622 24,1050.4668 24,1049.3622 L 24,1046.3622 24,1036.3622 C 24,1035.2576 23.10457,1034.3622 22,1034.3622 L 12,1034.3622 z"
       inkscape:connector-curvature="0"
       id="path2987-6-2-4-2"
       style="fill:#2980b9;fill-opacity:1;fill-rule:nonzero;stroke:none" />
    <path
       d="M 2,2 C 0.895431,2 0,2.8954 0,4 L 0,9 10,9 10,10 24,10 24,5 C 24,3.8954 23.10457,3 22,3 L 11.71875,3 C 11.372707,2.4031043 10.739604,2 10,2 L 2,2 z"
       inkscape:connector-curvature="0"
       transform="translate(0,1028.3622)"
       id="path2987-8"
       style="fill:#2980b9;fill-opacity:1;fill-rule:nonzero;stroke:none" />
    <path
       d="M 12,1033.3622 C 12,1034.4668 11.10457,1035.3622 10,1035.3622 L 5,1035.3622 2,1035.3622 C 0.895431,1035.3622 0,1036.2576 0,1037.3622 L 0,1045.3622 0,1048.3622 C 0,1049.4668 0.89543,1050.3622 2,1050.3622 L 22,1050.3622 C 23.10457,1050.3622 24,1049.4668 24,1048.3622 L 24,1045.3622 24,1035.3622 C 24,1034.2576 23.10457,1033.3622 22,1033.3622 L 12,1033.3622 z"
       inkscape:connector-curvature="0"
       id="path2987-6-2-4"
       style="fill:#3498db;fill-opacity:1;fill-rule:nonzero;stroke:none" />
  </g>
</svg>
