<?xml version="1.0" encoding="UTF-8" standalone="no"?>
<!-- Created with Inkscape (http://www.inkscape.org/) -->

<svg
   xmlns:dc="http://purl.org/dc/elements/1.1/"
   xmlns:cc="http://creativecommons.org/ns#"
   xmlns:rdf="http://www.w3.org/1999/02/22-rdf-syntax-ns#"
   xmlns:svg="http://www.w3.org/2000/svg"
   xmlns="http://www.w3.org/2000/svg"
   xmlns:sodipodi="http://sodipodi.sourceforge.net/DTD/sodipodi-0.dtd"
   xmlns:inkscape="http://www.inkscape.org/namespaces/inkscape"
   version="1.1"
   width="24"
   height="24"
   id="svg2"
   inkscape:version="0.48.3.1 r9886"
   sodipodi:docname="gamepad.svg">
  <sodipodi:namedview
     pagecolor="#ffffff"
     bordercolor="#666666"
     borderopacity="1"
     objecttolerance="10"
     gridtolerance="10"
     guidetolerance="10"
     inkscape:pageopacity="0"
     inkscape:pageshadow="2"
     inkscape:window-width="1920"
     inkscape:window-height="1150"
     id="namedview3999"
     showgrid="true"
     inkscape:zoom="3.4766083"
     inkscape:cx="72.539175"
     inkscape:cy="-51.139806"
     inkscape:window-x="0"
     inkscape:window-y="0"
     inkscape:window-maximized="1"
     inkscape:current-layer="layer1">
    <inkscape:grid
       type="xygrid"
       id="grid4151"
       empspacing="5"
       visible="true"
       enabled="true"
       snapvisiblegridlinesonly="true" />
  </sodipodi:namedview>
  <defs
     id="defs4" />
  <metadata
     id="metadata7">
    <rdf:RDF>
      <cc:Work
         rdf:about="">
        <dc:format>image/svg+xml</dc:format>
        <dc:type
           rdf:resource="http://purl.org/dc/dcmitype/StillImage" />
        <dc:title />
      </cc:Work>
    </rdf:RDF>
  </metadata>
  <g
     transform="translate(0,-1028.3622)"
     id="layer1">
    <path
       d="M 6,1034.3622 6,1034.3935 C 5.29293,1034.4208 4.565347,1034.4855 3.9375,1034.7372 1.600869,1035.5467 -0.005475,1037.919 0,1040.3622 -0.005475,1042.8054 1.600869,1045.1777 3.9375,1045.9872 4.91224,1046.3779 6.094037,1046.3718 7.125,1046.3622 9.075,1046.3622 10.296687,1044.3053 12,1044.3622 13.703313,1044.3053 14.925,1046.3622 16.875,1046.3622 17.905963,1046.3718 19.08776,1046.3779 20.0625,1045.9872 22.399131,1045.1777 24.005475,1042.8054 24,1040.3622 24.005475,1037.919 22.399131,1035.5467 20.0625,1034.7372 19.430588,1034.4839 18.708443,1034.3891 18,1034.3622 L 16.875,1034.3622 7.125,1034.3622 6.34375,1034.3622 z"
       inkscape:connector-curvature="0"
       id="rect3280-8-5-7-9-1-7"
       style="fill:#95a5a6;fill-opacity:1;fill-rule:nonzero;stroke:none" />
    <path
       d="M 6,1033.3622 6,1033.3935 C 5.29293,1033.4208 4.565347,1033.4855 3.9375,1033.7372 1.600869,1034.5467 -0.005475,1036.919 0,1039.3622 -0.005475,1041.8054 1.600869,1044.1777 3.9375,1044.9872 4.91224,1045.3779 6.094037,1045.3718 7.125,1045.3622 9.075,1045.3622 10.296687,1043.3053 12,1043.3622 13.703313,1043.3053 14.925,1045.3622 16.875,1045.3622 17.905963,1045.3718 19.08776,1045.3779 20.0625,1044.9872 22.399131,1044.1777 24.005475,1041.8054 24,1039.3622 24.005475,1036.919 22.399131,1034.5467 20.0625,1033.7372 19.430588,1033.4839 18.708443,1033.3891 18,1033.3622 L 16.875,1033.3622 7.125,1033.3622 6.34375,1033.3622 z"
       inkscape:connector-curvature="0"
       id="rect3280-8-5-7-9-1"
       style="fill:#bdc3c7;fill-opacity:1;fill-rule:nonzero;stroke:none" />
    <path
       d="M 11,11 A 4,4 0 1 1 3,11 4,4 0 1 1 11,11 z"
       transform="translate(-1,1028.3622)"
       id="path3076"
       style="fill:#ecf0f1;fill-opacity:1;fill-rule:nonzero;stroke:none" />
    <path
       d="M 6,1036.3622 C 5.4477153,1036.3622 5,1036.8099 5,1037.3622 L 5,1038.3622 4,1038.3622 C 3.4477153,1038.3622 3,1038.8099 3,1039.3622 3,1039.9145 3.4477153,1040.3622 4,1040.3622 L 5,1040.3622 5,1041.3622 C 5,1041.9145 5.4477153,1042.3622 6,1042.3622 6.5522847,1042.3622 7,1041.9145 7,1041.3622 L 7,1040.3622 8,1040.3622 C 8.5522847,1040.3622 9,1039.9145 9,1039.3622 9,1038.8099 8.5522847,1038.3622 8,1038.3622 L 7,1038.3622 7,1037.3622 C 7,1036.8099 6.5522847,1036.3622 6,1036.3622 z"
       inkscape:connector-curvature="0"
       id="rect3015"
       style="fill:#7f8c8d;fill-opacity:1;fill-rule:nonzero;stroke:none" />
    <path
       d="M 11,11 A 4,4 0 1 1 3,11 4,4 0 1 1 11,11 z"
       transform="translate(11,1028.3622)"
       id="path3076-3"
       style="fill:#ecf0f1;fill-opacity:1;fill-rule:nonzero;stroke:none" />
    <path
       d="M 16,10 A 1,1 0 1 1 14,10 1,1 0 1 1 16,10 z"
       transform="translate(1,1029.3622)"
       id="path3096"
       style="fill:#27ae60;fill-opacity:1;fill-rule:nonzero;stroke:none" />
    <path
       d="M 16,10 A 1,1 0 1 1 14,10 1,1 0 1 1 16,10 z"
       transform="translate(3,1031.3622)"
       id="path3096-0"
       style="fill:#f39c12;fill-opacity:1;fill-rule:nonzero;stroke:none" />
    <path
       d="M 16,10 A 1,1 0 1 1 14,10 1,1 0 1 1 16,10 z"
       transform="translate(3,1027.3622)"
       id="path3096-1"
       style="fill:#2980b9;fill-opacity:1;fill-rule:nonzero;stroke:none" />
    <path
       d="M 16,10 A 1,1 0 1 1 14,10 1,1 0 1 1 16,10 z"
       transform="translate(5,1029.3622)"
       id="path3096-0-0"
       style="fill:#c0392b;fill-opacity:1;fill-rule:nonzero;stroke:none" />
    <path
       d="M 11.5,11 C 11.223858,11 11,11.223858 11,11.5 11,11.776142 11.223858,12 11.5,12 L 12.5,12 C 12.776142,12 13,11.776142 13,11.5 13,11.223858 12.776142,11 12.5,11 L 11.5,11 z"
       inkscape:connector-curvature="0"
       transform="translate(0,1028.3622)"
       id="path3237"
       style="fill:#7f8c8d;fill-opacity:1;fill-rule:nonzero;stroke:none" />
  </g>
</svg>
