<?xml version="1.0" encoding="UTF-8" standalone="no"?>
<!-- Created with Inkscape (http://www.inkscape.org/) -->

<svg
   xmlns:dc="http://purl.org/dc/elements/1.1/"
   xmlns:cc="http://creativecommons.org/ns#"
   xmlns:rdf="http://www.w3.org/1999/02/22-rdf-syntax-ns#"
   xmlns:svg="http://www.w3.org/2000/svg"
   xmlns="http://www.w3.org/2000/svg"
   xmlns:sodipodi="http://sodipodi.sourceforge.net/DTD/sodipodi-0.dtd"
   xmlns:inkscape="http://www.inkscape.org/namespaces/inkscape"
   version="1.1"
   width="24"
   height="24"
   id="svg2"
   inkscape:version="0.48.3.1 r9886"
   sodipodi:docname="gift.svg">
  <sodipodi:namedview
     pagecolor="#ffffff"
     bordercolor="#666666"
     borderopacity="1"
     objecttolerance="10"
     gridtolerance="10"
     guidetolerance="10"
     inkscape:pageopacity="0"
     inkscape:pageshadow="2"
     inkscape:window-width="1920"
     inkscape:window-height="1150"
     id="namedview4636"
     showgrid="true"
     inkscape:zoom="55.625732"
     inkscape:cx="12.284799"
     inkscape:cy="10.17883"
     inkscape:window-x="0"
     inkscape:window-y="0"
     inkscape:window-maximized="1"
     inkscape:current-layer="layer1"
     inkscape:snap-nodes="true"
     inkscape:snap-bbox="true">
    <inkscape:grid
       type="xygrid"
       id="grid4141"
       empspacing="4"
       visible="true"
       enabled="true"
       snapvisiblegridlinesonly="true" />
  </sodipodi:namedview>
  <defs
     id="defs4" />
  <metadata
     id="metadata7">
    <rdf:RDF>
      <cc:Work
         rdf:about="">
        <dc:format>image/svg+xml</dc:format>
        <dc:type
           rdf:resource="http://purl.org/dc/dcmitype/StillImage" />
        <dc:title />
      </cc:Work>
    </rdf:RDF>
  </metadata>
  <g
     transform="translate(0,-1028.3622)"
     id="layer1">
    <path
       style="fill:#f39c12;fill-opacity:1;fill-rule:nonzero;stroke:none"
       d="M 0.9999998,1037.3622 0.9999998,1040.3622 0.9999998,1042.3622 0.9999998,1049.3622 C 0.9999998,1050.4668 1.8954308,1051.3622 2.9999998,1051.3622 L 12,1051.3622 21,1051.3622 C 22.104569,1051.3622 23,1050.4668 23,1049.3622 L 23,1042.3622 23,1040.3622 23,1037.3622 0.9999998,1037.3622 z"
       id="path2987-6-0-1-8"
       inkscape:connector-curvature="0" />
    <path
       style="fill:#f1c40f;fill-opacity:1;fill-rule:nonzero;stroke:none"
       d="M 1,1036.3622 1,1039.3622 1,1041.3622 1,1048.3622 C 1,1049.4668 1.895431,1050.3622 3,1050.3622 L 12,1050.3622 21,1050.3622 C 22.104569,1050.3622 23,1049.4668 23,1048.3622 L 23,1041.3622 23,1039.3622 23,1036.3622 1,1036.3622 z"
       id="path2987-6-0-1"
       inkscape:connector-curvature="0" />
    <path
       style="fill:#f1c40f;fill-opacity:1;fill-rule:nonzero;stroke:none"
       d="M 2,1034.3622 C 0.895431,1034.3622 0,1035.2576 0,1036.3622 L 0,1038.3622 24,1038.3622 24,1036.3622 C 24,1035.2576 23.104569,1034.3622 22,1034.3622 L 20,1034.3622 13,1034.3622 11,1034.3622 4,1034.3622 2,1034.3622 z"
       id="path2987-6-0-5"
       inkscape:connector-curvature="0" />
    <rect
       style="fill:#e74c3c;fill-opacity:1;fill-rule:nonzero;stroke:none"
       id="rect3037"
       width="6"
       height="18.000017"
       x="9"
       y="1033.3622" />
    <path
       style="fill:#c0392b;fill-opacity:1;fill-rule:nonzero;stroke:none"
       d="M 7.8847852,1029.3649 C 6.8861875,1029.3419 5.9114855,1029.7925 5.3768979,1030.6142 4.599316,1031.8093 5.0640331,1033.3403 6.4108513,1034.0303 6.8440109,1034.2521 7.3078631,1034.3571 7.7747902,1034.3621 7.8522632,1034.3628 7.9287523,1034.3571 8.0057799,1034.3523 L 11.305632,1034.3621 12.69157,1034.3621 15.99142,1034.3523 C 16.068449,1034.3571 16.144938,1034.3628 16.222411,1034.3621 16.689339,1034.3571 17.164189,1034.2521 17.597349,1034.0303 18.944167,1033.3403 19.397886,1031.8093 18.620304,1030.6142 17.842722,1029.419 16.128294,1029.0066 14.781475,1029.6967 14.348316,1029.9185 14.00778,1030.2286 13.76952,1030.5848 L 13.747521,1030.624 C 13.715537,1030.6732 13.687574,1030.7193 13.659526,1030.7703 L 11.998601,1033.3081 10.337676,1030.7703 C 10.309626,1030.7193 10.281665,1030.6732 10.249679,1030.624 L 10.227679,1030.5848 C 9.9894205,1030.2286 9.6598845,1029.9185 9.226725,1029.6967 8.8058446,1029.481 8.3386934,1029.3754 7.8847852,1029.3649 z M 7.7197927,1030.6142 C 7.9902998,1030.5973 8.2702223,1030.6507 8.5227566,1030.78 8.6075499,1030.8235 8.6836929,1030.8805 8.7537463,1030.9362 8.8029804,1030.9753 8.8438948,1031.0188 8.8857404,1031.0632 8.8984136,1031.0766 8.906749,1031.0885 8.918739,1031.1021 8.9411693,1031.1277 8.9647346,1031.1535 8.9847358,1031.1802 8.9960373,1031.1957 9.007209,1031.2036 9.0177344,1031.2193 9.020273,1031.2231 9.026241,1031.2255 9.028734,1031.2291 L 9.028734,1031.2486 C 9.0447266,1031.2733 9.0697067,1031.2915 9.0837314,1031.3168 L 10.249679,1033.1128 7.9177838,1033.1128 C 7.8792699,1033.1155 7.8245414,1033.1133 7.7857897,1033.1128 7.7651615,1033.1126 7.7514457,1033.1041 7.7307921,1033.1031 7.6945948,1033.1012 7.656932,1033.0978 7.6207971,1033.0932 7.601349,1033.091 7.5851946,1033.0866 7.5657994,1033.0837 7.5017589,1033.0735 7.4416688,1033.0628 7.3788081,1033.0447 7.2893658,1033.0187 7.1996132,1032.9903 7.1148198,1032.9471 6.9464715,1032.8607 6.7960917,1032.7447 6.6858389,1032.6152 6.3550763,1032.2266 6.3062498,1031.6871 6.5978431,1031.239 6.8408375,1030.8655 7.2689469,1030.6423 7.7197927,1030.6142 z M 16.288408,1030.6142 C 16.739251,1030.6423 17.167364,1030.8655 17.410358,1031.239 17.701952,1031.6871 17.642125,1032.2266 17.311362,1032.6152 17.201108,1032.7447 17.061728,1032.8607 16.893381,1032.9471 16.808587,1032.9903 16.718835,1033.0187 16.629394,1033.0447 16.566532,1033.0628 16.495442,1033.0735 16.431402,1033.0837 16.412007,1033.0866 16.395853,1033.091 16.376404,1033.0932 16.34027,1033.0978 16.302606,1033.1012 16.266409,1033.1031 16.245754,1033.1041 16.232039,1033.1126 16.211412,1033.1128 16.17266,1033.1133 16.117931,1033.1155 16.079417,1033.1128 L 13.747521,1033.1128 14.91347,1031.3168 C 14.927494,1031.2915 14.952475,1031.2733 14.968467,1031.2486 L 14.979468,1031.2291 C 14.981959,1031.2255 14.976929,1031.2231 14.979468,1031.2193 14.989992,1031.2036 15.001164,1031.1957 15.012466,1031.1802 15.032466,1031.1535 15.056033,1031.1277 15.078461,1031.1021 15.090453,1031.0885 15.098787,1031.0766 15.111461,1031.0632 15.153305,1031.0188 15.205219,1030.9753 15.254455,1030.9362 15.324506,1030.8805 15.40065,1030.8235 15.485444,1030.78 15.737977,1030.6507 16.0179,1030.5973 16.288408,1030.6142 z"
       id="path2990-7"
       inkscape:connector-curvature="0" />
    <rect
       style="fill:#f39c12;fill-opacity:1;fill-rule:nonzero;stroke:none"
       id="rect3282"
       width="22"
       height="3.0000174"
       x="1"
       y="1038.3622" />
    <rect
       style="fill:#c0392b;fill-opacity:1;fill-rule:nonzero;stroke:none"
       id="rect3284"
       width="6"
       height="3.0000174"
       x="9"
       y="1038.3622" />
    <rect
       style="fill:#c0392b;fill-opacity:1;fill-rule:nonzero;stroke:none"
       id="rect3284-3"
       width="6"
       height="1"
       x="9"
       y="1050.3622" />
    <rect
       style="fill:#e67e22;fill-opacity:1;fill-rule:nonzero;stroke:none"
       id="rect2991"
       width="8"
       height="1"
       x="1"
       y="10"
       transform="translate(0,1028.3622)" />
    <rect
       style="fill:#e67e22;fill-opacity:1;fill-rule:nonzero;stroke:none"
       id="rect2991-1"
       width="8"
       height="1"
       x="15"
       y="1038.3622" />
  </g>
</svg>
