<?xml version="1.0" encoding="UTF-8" standalone="no"?>
<!-- Created with Inkscape (http://www.inkscape.org/) -->

<svg
   xmlns:dc="http://purl.org/dc/elements/1.1/"
   xmlns:cc="http://creativecommons.org/ns#"
   xmlns:rdf="http://www.w3.org/1999/02/22-rdf-syntax-ns#"
   xmlns:svg="http://www.w3.org/2000/svg"
   xmlns="http://www.w3.org/2000/svg"
   xmlns:sodipodi="http://sodipodi.sourceforge.net/DTD/sodipodi-0.dtd"
   xmlns:inkscape="http://www.inkscape.org/namespaces/inkscape"
   version="1.1"
   width="24"
   height="24"
   id="svg2"
   inkscape:version="0.48.3.1 r9886"
   sodipodi:docname="globe.svg">
  <sodipodi:namedview
     pagecolor="#ffffff"
     bordercolor="#666666"
     borderopacity="1"
     objecttolerance="10"
     gridtolerance="10"
     guidetolerance="10"
     inkscape:pageopacity="0"
     inkscape:pageshadow="2"
     inkscape:window-width="1920"
     inkscape:window-height="1150"
     id="namedview4020"
     showgrid="false"
     inkscape:zoom="1.2291667"
     inkscape:cx="201.5607"
     inkscape:cy="-22.526143"
     inkscape:window-x="0"
     inkscape:window-y="0"
     inkscape:window-maximized="1"
     inkscape:current-layer="layer1" />
  <defs
     id="defs4" />
  <metadata
     id="metadata7">
    <rdf:RDF>
      <cc:Work
         rdf:about="">
        <dc:format>image/svg+xml</dc:format>
        <dc:type
           rdf:resource="http://purl.org/dc/dcmitype/StillImage" />
        <dc:title />
      </cc:Work>
    </rdf:RDF>
  </metadata>
  <g
     transform="translate(0,-1028.3622)"
     id="layer1">
    <g
       transform="matrix(0.91636227,-0.39854005,0.39842852,0.91661877,-413.50601,91.526583)"
       id="g4088">
      <path
         d="M 22,12 A 10,10 0 1 1 2,12 10,10 0 1 1 22,12 z"
         transform="matrix(1.1,0,0,1.1,-1.2,1027.1622)"
         id="path3035-3-8"
         style="fill:#3498db;fill-opacity:1;fill-rule:nonzero;stroke:none" />
      <path
         d="M 12,1 C 10.860913,1 9.7520779,1.1786017 8.71875,1.5 8.8070538,1.6390509 8.8317199,1.6467175 8.9375,1.8125 9.471171,2.649 9.54484,2.7321 9.6875,2.75 9.773022,2.7607 10.001676,2.77705 10.21875,2.78125 L 10.625,2.78125 10.90625,2.09375 11.1875,1.40625 12.1875,1.09375 C 12.287941,1.0627777 12.309609,1.0608989 12.40625,1.03125 12.270194,1.0262644 12.137275,1 12,1 z M 14.25,1.25 C 14.226218,1.2738 14.390143,1.55455 14.625,1.90625 14.919012,2.34635 15.043242,2.55055 15.09375,2.53125 15.197823,2.4911968 15.719282,2.1026143 16.09375,1.8125 15.511815,1.5787191 14.907435,1.3822099 14.28125,1.25 14.279103,1.2513988 14.251202,1.2487982 14.25,1.25 z M 6.09375,2.71875 C 5.1484028,3.3214369 4.2819482,4.0520574 3.5625,4.90625 2.3201038,6.3813328 1.4859332,8.2014649 1.15625,10.1875 1.311288,10.175483 1.4503179,10.156464 1.78125,10.15625 2.726754,10.15525 2.637141,10.11475 2.96875,10.59375 3.153779,10.86095 3.15959,10.8605 3.4375,10.875 3.76862,10.8925 3.765188,10.88065 3.59375,10.34375 3.527019,10.13485 3.469092,9.9287 3.46875,9.875 3.468336,9.8104 3.655897,9.6311 4.03125,9.3125 4.657696,8.7807 4.60434,8.87085 4.5,8.34375 4.47844,8.23505 4.527099,8.1424 4.71875,7.9375 4.946578,7.6941 4.947227,7.70315 5.1875,7.71875 L 5.4375,7.71875 5.46875,7.3125 C 5.482165,7.0799 5.485989,6.8889 5.5,6.875 5.514009,6.8611 6.13779,6.4812 6.875,6.0625 7.612209,5.6437 8.243751,5.2871 8.28125,5.25 8.339516,5.1921 8.199892,4.9928 7.375,4 6.844134,3.361 6.404803,2.81385 6.375,2.78125 6.3693616,2.7750981 6.1545427,2.7335731 6.09375,2.71875 z M 17.78125,3.3125 C 17.742611,3.2804 17.647956,3.34985 17.46875,3.53125 L 17.21875,3.8125 17.40625,4.03125 C 17.515067,4.16055 17.667004,4.32745 17.75,4.40625 17.932958,4.57995 17.940265,4.6237 17.78125,4.9375 17.712348,5.0735 17.6731,5.2125 17.6875,5.25 17.707493,5.3021 17.823202,5.313 18.1875,5.3125 18.449928,5.3121 18.688003,5.30095 18.71875,5.28125 18.749496,5.26155 18.793777,5.1128 18.8125,4.9375 L 18.84375,4.59375 18.46875,4.3125 C 18.140253,4.0551 18.089519,3.9875 17.96875,3.6875 17.894764,3.5036 17.812109,3.3381 17.78125,3.3125 z M 16.78125,4.1875 C 16.716296,4.1851 16.34375,4.8289 16.34375,4.9375 16.34375,4.9751 16.455992,5.10685 16.59375,5.21875 16.731508,5.33095 16.853873,5.40625 16.875,5.40625 16.917024,5.40625 17.246,5.0593 17.3125,4.9375 17.342481,4.8825 17.27666,4.76585 17.09375,4.53125 16.954737,4.35275 16.813603,4.1886 16.78125,4.1875 z M 20,4.46875 C 20.012615,4.5122247 20.0625,4.5747569 20.0625,4.59375 20.0625,4.63965 19.836099,4.8448 19.59375,5.0625 19.20167,5.4149 19.154135,5.4703 18.9375,5.5 18.737143,5.5276 18.619852,5.5655 18.3125,5.8125 18.107087,5.9777 17.916616,6.1553 17.90625,6.1875 17.895884,6.2197 17.984643,6.35025 18.09375,6.46875 18.321544,6.71575 18.340464,6.7929 18.1875,7.0625 L 18.0625,7.25 17.6875,7.21875 C 17.473815,7.21125 17.18994,7.2027 17.0625,7.1875 16.770874,7.153 16.779704,7.16105 17.03125,7.84375 17.403392,8.85355 17.436288,8.9375 17.5,8.9375 17.53541,8.9375 17.93052,8.5677 18.40625,8.125 18.88198,7.6822 19.315428,7.3125 19.34375,7.3125 19.37207,7.3125 19.444876,7.3438 19.53125,7.375 19.681284,7.4293 19.706345,7.4117 19.96875,7.1875 L 20.25,6.96875 20.53125,7.15625 C 21.174326,7.59735 21.253235,7.69075 21.3125,7.96875 21.404003,8.39815 21.46072,8.59375 21.5,8.59375 21.53807,8.59375 21.900433,8.09435 22,7.90625 22.048451,7.81465 21.988938,7.7598 21.625,7.25 21.39771,6.9316 21.21875,6.62405 21.21875,6.59375 21.21875,6.56335 21.268736,6.50505 21.3125,6.46875 21.370447,6.4206173 21.473644,6.5117361 21.6875,6.75 21.232456,5.9123398 20.648448,5.1570955 20,4.46875 z M 21,8.0625 C 20.935596,8.0634 20.717122,8.3842 20.75,8.4375 20.767095,8.4651 20.84863,8.50795 20.90625,8.53125 20.96387,8.55455 21.044667,8.59205 21.09375,8.59375 21.169295,8.59635 21.185437,8.5717 21.15625,8.4375 21.106771,8.2101 21.043651,8.0618 21,8.0625 z M 20.15625,8.4375 19.34375,8.5 18.53125,8.59375 17.03125,9.875 15.5625,11.125 15.59375,12.375 C 15.613255,13.0609 15.638839,13.6571 15.65625,13.6875 15.673661,13.7179 15.887959,13.9519 16.15625,14.1875 16.424544,14.423 16.705779,14.64925 16.78125,14.71875 16.917255,14.84385 16.955584,14.85605 18.125,14.90625 L 19.28125,14.96875 19.8125,15.28125 C 20.094208,15.46445 20.330365,15.64395 20.34375,15.65625 20.357137,15.66875 20.275802,15.74175 20.15625,15.84375 L 19.9375,16.03125 20.28125,16.4375 C 20.470529,16.662 20.718937,16.979 20.84375,17.125 L 21.0625,17.375 21.0625,17.90625 21.0625,18.25 C 22.287635,16.476214 23,14.318868 23,12 23,11.083451 22.867482,10.194974 22.65625,9.34375 22.586701,9.2964625 22.490813,9.2185647 22.46875,9.21875 22.433017,9.21895 22.281443,9.33495 22.125,9.46875 21.968558,9.60265 21.812615,9.71885 21.78125,9.71875 21.749895,9.71855 21.478198,9.63295 21.15625,9.53125 L 20.5625,9.34375 20.5625,9.09375 C 20.5625,8.86225 20.557757,8.8078 20.375,8.625 L 20.15625,8.4375 z M 4.28125,10.53125 C 4.257908,10.54555 4.25,10.6313 4.25,10.75 4.25,10.9578 4.245446,10.97745 4.46875,11.09375 4.743639,11.23685 4.790067,11.26065 4.75,11.15625 4.68858,10.99625 4.32214,10.50605 4.28125,10.53125 z M 3.125,11.28125 C 3.063816,11.31905 2.954552,11.8295 3,11.875 3.022147,11.8971 3.317774,11.96845 3.625,12.03125 3.977661,12.10345 4.181829,12.12215 4.21875,12.09375 4.302537,12.02925 4.3935,11.70395 4.34375,11.65625 4.281053,11.59585 3.17086,11.25285 3.125,11.28125 z M 1.84375,11.65625 1.5,11.84375 C 1.30233,11.95295 1.090213,12.0625 1.03125,12.0625 1.027098,12.0625 1.0052947,12.063725 1,12.0625 1.0026827,12.540519 1.0631822,13.00702 1.125,13.46875 L 1.34375,13.59375 1.6875,13.5625 2.03125,13.5625 2.25,14 C 2.370733,14.2472 2.486063,14.4758 2.53125,14.5 2.576437,14.5241 2.872779,14.53125 3.15625,14.53125 L 3.65625,14.53125 3.65625,14.9375 C 3.65625,15.3498 3.65494,15.3634 3.4375,15.6875 3.312821,15.8734 3.216367,16.08685 3.21875,16.15625 3.221056,16.22365 3.481727,16.8871 3.78125,17.625 L 4.3125,18.9375 4.84375,19.21875 C 5.237791,19.40975 5.375,19.4928 5.375,19.5625 5.375,19.585678 5.2470053,20.263631 5.1875,20.625 6.2258485,21.44674 7.3944944,22.093978 8.6875,22.5 9.8359083,21.270299 10.929539,20.076514 11.09375,19.90625 L 11.34375,19.65625 11.40625,19 C 11.454106,18.63 11.498828,18.2903 11.5,18.25 11.501171,18.2098 11.669582,18.0138 11.84375,17.8125 12.017919,17.6113 12.15614,17.42345 12.15625,17.40625 12.156362,17.38885 11.658574,17.04805 11.0625,16.65625 L 9.96875,15.9375 9.59375,15.9375 C 9.336535,15.9375 9.202903,15.9217 9.15625,15.875 9.117566,15.8363 9.064339,15.61305 9.03125,15.34375 8.999153,15.08265 8.951865,14.8357 8.9375,14.8125 8.923136,14.7892 8.675246,14.78175 8.375,14.78125 8.074755,14.78095 7.786278,14.773 7.75,14.75 7.709474,14.7243 7.685208,14.5162 7.65625,14.25 7.630328,14.0119 7.588785,13.80815 7.5625,13.78125 7.536213,13.75445 7.189104,13.73385 6.78125,13.71875 6.104892,13.69355 5.98644,13.66985 5.625,13.53125 L 5.21875,13.375 4.6875,13.625 4.125,13.84375 3.53125,13.84375 C 2.852617,13.84425 2.906348,13.9177 2.8125,13.3125 2.780142,13.1038 2.744489,12.92225 2.71875,12.90625 2.693011,12.89045 2.54439,12.86075 2.40625,12.84375 L 2.15625,12.8125 2.1875,12.625 C 2.188879,12.5178 2.197696,12.30415 2.21875,12.15625 L 2.25,11.875 2.0625,11.75 1.84375,11.65625 z M 4.96875,11.9375 C 4.944129,11.9622 4.921424,12.06275 4.90625,12.15625 L 4.875,12.3125 5.84375,12.6875 C 6.829525,13.0418 7.001736,13.06085 7.15625,12.90625 7.215117,12.84735 7.204596,12.84155 7.0625,12.78125 6.971504,12.74255 6.488395,12.50175 5.96875,12.28125 5.395358,12.03805 4.995918,11.9104 4.96875,11.9375 z"
         inkscape:connector-curvature="0"
         transform="translate(0,1028.3622)"
         id="path3035-3"
         style="fill:#2ecc71;fill-opacity:1;fill-rule:nonzero;stroke:none" />
    </g>
    <g
       transform="translate(-91.993976,16)"
       id="g3113">
      <path
         d="M 103.90625,-15 C 102.47742,-14.985723 101.01782,-14.699341 99.625,-14.09375 94.053701,-11.671384 91.483884,-5.1962994 93.90625,0.375 95.696399,4.4922383 99.719688,6.9695004 103.9375,7 102.06812,3.7656705 101,0.00427835 101,-4 101,-8.0042784 102.06812,-11.76567 103.9375,-15 103.92701,-14.999925 103.91675,-15.000105 103.90625,-15 z"
         inkscape:connector-curvature="0"
         transform="translate(0,1028.3622)"
         id="path3035-3-8-6"
         style="fill:#2980b9;fill-opacity:1;fill-rule:nonzero;stroke:none" />
      <path
         d="M 103.6875,-14.96875 C 103.06062,-14.95105 102.43947,-14.90965 101.8125,-14.78125 101.81109,-14.77915 101.78187,-14.7516 101.78125,-14.75 101.76893,-14.7187 102.05064,-14.5414 102.40625,-14.3125 102.85137,-14.0262 103.02388,-13.8996 103.0625,-13.9375 103.14197,-14.0157 103.45977,-14.55335 103.6875,-14.96875 z M 100,-14.21875 C 99.873241,-14.16905 99.75089,-14.14855 99.625,-14.09375 98.580381,-13.63965 97.631978,-13.05045 96.8125,-12.34375 96.948925,-12.25145 96.961889,-12.2349 97.125,-12.125 97.947953,-11.5707 98.049534,-11.522 98.1875,-11.5625 98.270195,-11.5868 98.486754,-11.6673 98.6875,-11.75 L 99.0625,-11.90625 99.0625,-12.65625 99.03125,-13.40625 99.84375,-14.09375 C 99.923511,-14.16225 99.923197,-14.15305 100,-14.21875 z M 95.1875,-10.21875 C 95.179876,-10.22215 94.967911,-10.16695 94.90625,-10.15625 94.279616,-9.22665 93.756685,-8.22655 93.4375,-7.15625 92.886307,-5.30815 92.854191,-3.29655 93.34375,-1.34375 93.481139,-1.41665 93.602849,-1.4928 93.90625,-1.625 94.772941,-2.0029 94.661149,-1.9945 95.15625,-1.6875 95.432476,-1.5162 95.458106,-1.5274 95.71875,-1.625 96.029387,-1.7409 95.9963,-1.7635 95.625,-2.1875 95.480507,-2.3525 95.365475,-2.5134 95.34375,-2.5625 95.317612,-2.6216 95.407813,-2.83945 95.625,-3.28125 95.987446,-4.01875 95.99336,-3.9333 95.6875,-4.375 95.624385,-4.4661 95.624694,-4.57945 95.71875,-4.84375 95.830632,-5.15785 95.835933,-5.13725 96.0625,-5.21875 L 96.28125,-5.3125 96.15625,-5.6875 C 96.075806,-5.9062 95.992693,-6.1067 96,-6.125 96.007304,-6.1433 96.42838,-6.72835 96.9375,-7.40625 97.446579,-8.08425 97.886654,-8.66975 97.90625,-8.71875 97.936597,-8.79515 97.714844,-8.9185 96.5625,-9.5 95.820869,-9.8743 95.22783,-10.20075 95.1875,-10.21875 z M 96.34375,-2.28125 C 96.328045,-2.25885 96.358921,-2.1713 96.40625,-2.0625 96.489108,-1.8719 96.498842,-1.86145 96.75,-1.84375 97.05915,-1.82215 97.109622,-1.82645 97.03125,-1.90625 96.911126,-2.02845 96.3712,-2.32065 96.34375,-2.28125 z M 98.59375,-1.34375 C 97.970939,-1.33815 97.545359,-1.2857 97.53125,-1.25 97.51852,-1.2176 97.539134,-1.12305 97.5625,-1.03125 L 97.59375,-0.875 98.625,-0.9375 C 99.670293,-1.0057 99.857445,-1.0466 99.9375,-1.25 99.968,-1.3274 99.935606,-1.3139 99.78125,-1.3125 99.68237,-1.3117 99.15822,-1.34875 98.59375,-1.34375 z M 96.84375,-1.28125 C 96.762169,-1.31165 95.624482,-1.1693 95.59375,-1.125 95.552712,-1.0659 95.658929,-0.55485 95.71875,-0.53125 95.747872,-0.51985 96.036963,-0.56 96.34375,-0.625 96.695952,-0.6994 96.883715,-0.7717 96.90625,-0.8125 96.95737,-0.9051 96.908393,-1.25735 96.84375,-1.28125 z M 100.65625,-0.59375 C 100.62145,-0.60785 100.2863,-0.49255 99.90625,-0.34375 99.275937,-0.09715 99.16798,-0.0795 98.78125,-0.0625 L 98.34375,-0.03125 97.9375,0.40625 97.53125,0.8125 96.96875,1.0625 C 96.346598,1.3336 96.421129,1.36135 96.09375,0.84375 95.98086,0.66525 95.873734,0.53565 95.84375,0.53125 95.813846,0.52705 95.695962,0.55425 95.5625,0.59375 L 95.3125,0.65625 95.25,0.46875 C 95.20852,0.36995 95.133415,0.17525 95.09375,0.03125 L 95.03125,-0.25 94.78125,-0.28125 94.5625,-0.28125 94.3125,0.03125 C 94.174765,0.21025 94.022823,0.414 93.96875,0.4375 93.964943,0.4392 93.942844,0.4365 93.9375,0.4375 94.130563,0.8748 94.384201,1.2887 94.625,1.6875 L 94.875,1.6875 95.1875,1.53125 95.5,1.40625 95.875,1.71875 C 96.084288,1.89725 96.261411,2.0583 96.3125,2.0625 96.363549,2.0665 96.646288,1.95675 96.90625,1.84375 L 97.375,1.625 97.53125,2 C 97.695648,2.3781 97.695177,2.39735 97.625,2.78125 97.584786,3.00145 97.595142,3.2498 97.625,3.3125 97.653989,3.3734 98.149842,3.8802 98.71875,4.4375 L 99.71875,5.40625 100.3125,5.46875 C 100.75002,5.48675 100.90971,5.4986 100.9375,5.5625 100.94674,5.5838 101.09798,6.2698 101.1875,6.625 102.07749,6.8610767 103.01001,6.988649 103.9375,7 102.73119,4.9128901 101.84279,2.6038868 101.375,0.15625 101.33285,0.16995412 101.23058,0.2206181 101.21875,0.21875 101.17134,0.21135 101.0702,0.01385 100.9375,-0.21875 100.81879,-0.42675 100.69108,-0.57955 100.65625,-0.59375 z"
         inkscape:connector-curvature="0"
         transform="translate(0,1028.3622)"
         id="path3035-3-3"
         style="fill:#27ae60;fill-opacity:1;fill-rule:nonzero;stroke:none" />
    </g>
  </g>
</svg>
