<?xml version="1.0" encoding="UTF-8" standalone="no"?>
<!-- Created with Inkscape (http://www.inkscape.org/) -->

<svg
   xmlns:dc="http://purl.org/dc/elements/1.1/"
   xmlns:cc="http://creativecommons.org/ns#"
   xmlns:rdf="http://www.w3.org/1999/02/22-rdf-syntax-ns#"
   xmlns:svg="http://www.w3.org/2000/svg"
   xmlns="http://www.w3.org/2000/svg"
   xmlns:sodipodi="http://sodipodi.sourceforge.net/DTD/sodipodi-0.dtd"
   xmlns:inkscape="http://www.inkscape.org/namespaces/inkscape"
   version="1.1"
   width="24"
   height="24"
   id="svg2"
   inkscape:version="0.48.3.1 r9886"
   sodipodi:docname="globe.svg">
  <sodipodi:namedview
     pagecolor="#ffffff"
     bordercolor="#666666"
     borderopacity="1"
     objecttolerance="10"
     gridtolerance="10"
     guidetolerance="10"
     inkscape:pageopacity="0"
     inkscape:pageshadow="2"
     inkscape:window-width="1920"
     inkscape:window-height="1150"
     id="namedview4020"
     showgrid="true"
     inkscape:zoom="18.901639"
     inkscape:cx="0.46569167"
     inkscape:cy="23.957967"
     inkscape:window-x="0"
     inkscape:window-y="0"
     inkscape:window-maximized="1"
     inkscape:current-layer="layer1"
     inkscape:snap-bbox="true"
     inkscape:snap-nodes="true">
    <inkscape:grid
       type="xygrid"
       id="grid2988"
       empspacing="4"
       visible="true"
       enabled="true"
       snapvisiblegridlinesonly="true" />
  </sodipodi:namedview>
  <defs
     id="defs4" />
  <metadata
     id="metadata7">
    <rdf:RDF>
      <cc:Work
         rdf:about="">
        <dc:format>image/svg+xml</dc:format>
        <dc:type
           rdf:resource="http://purl.org/dc/dcmitype/StillImage" />
        <dc:title />
      </cc:Work>
    </rdf:RDF>
  </metadata>
  <g
     transform="translate(0,-1028.3622)"
     id="layer1">
    <path
       sodipodi:type="arc"
       style="fill:#2980b9;fill-opacity:1;fill-rule:nonzero;stroke:none"
       id="path2987"
       sodipodi:cx="12"
       sodipodi:cy="12"
       sodipodi:rx="11"
       sodipodi:ry="11"
       d="M 23,12 A 11,11 0 1 1 1,12 11,11 0 1 1 23,12 z"
       transform="translate(0,1028.3622)" />
    <path
       style="fill:#3498db;fill-opacity:1;fill-rule:nonzero;stroke:none"
       d="M 12,1029.3622 12,1051.3622 C 18.075132,1051.3622 23,1046.4373 23,1040.3622 23,1034.2871 18.075132,1029.3622 12,1029.3622 z"
       id="path2987-9"
       inkscape:connector-curvature="0" />
    <path
       style="fill:#2ecc71;fill-opacity:1;fill-rule:nonzero;stroke:none"
       d="M 12,1029.363 12,1029.5817 12.40625,1029.4567 C 12.507235,1029.4278 12.527839,1029.4219 12.625,1029.3942 12.489174,1029.3865 12.387147,1029.3658 12.25,1029.363 12.168816,1029.3613 12.080897,1029.3628 12,1029.363 z M 14.46875,1029.6755 C 14.4445,1029.6988 14.616353,1029.9755 14.84375,1030.3317 15.128428,1030.7774 15.230392,1030.9749 15.28125,1030.9567 15.386051,1030.9188 15.932408,1030.5515 16.3125,1030.2692 15.73592,1030.0238 15.12288,1029.8204 14.5,1029.6755 14.497826,1029.6769 14.469976,1029.6743 14.46875,1029.6755 z M 17.96875,1031.8005 C 17.930808,1031.7676 17.839024,1031.8416 17.65625,1032.0192 L 17.375,1032.2692 17.5625,1032.5192 C 17.668553,1032.6506 17.824954,1032.8138 17.90625,1032.8942 18.085462,1033.0715 18.102827,1033.1152 17.9375,1033.4255 17.865862,1033.56 17.830136,1033.7002 17.84375,1033.738 17.862652,1033.7904 17.948531,1033.7936 18.3125,1033.8005 18.574692,1033.8054 18.812626,1033.7883 18.84375,1033.7692 18.874873,1033.7501 18.946435,1033.6003 18.96875,1033.4255 L 19,1033.0817 18.625,1032.8005 C 18.302108,1032.5366 18.27073,1032.4778 18.15625,1032.1755 18.086119,1031.9903 17.999053,1031.8267 17.96875,1031.8005 z M 16.9375,1032.6442 C 16.872656,1032.6405 16.502236,1033.2857 16.5,1033.3942 16.499226,1033.4318 16.614674,1033.5609 16.75,1033.6755 16.88532,1033.7905 16.978893,1033.8626 17,1033.863 17.041985,1033.8639 17.399805,1033.5146 17.46875,1033.3942 17.499836,1033.3399 17.427909,1033.2262 17.25,1032.988 17.114791,1032.8068 16.9698,1032.6459 16.9375,1032.6442 z M 20.15625,1032.988 C 20.167959,1033.0317 20.219141,1033.094 20.21875,1033.113 20.217805,1033.1589 19.996605,1033.3691 19.75,1033.5817 19.35103,1033.9259 19.279544,1033.9628 19.0625,1033.988 18.861761,1034.0115 18.749651,1034.0599 18.4375,1034.3005 18.228877,1034.4614 18.042269,1034.6435 18.03125,1034.6755 18.02023,1034.7075 18.112184,1034.836 18.21875,1034.9567 18.441246,1035.2081 18.439623,1035.2842 18.28125,1035.5505 L 18.15625,1035.738 17.78125,1035.7067 C 17.567919,1035.6949 17.283258,1035.662 17.15625,1035.6442 16.865605,1035.6038 16.887743,1035.6132 17.125,1036.3005 17.476006,1037.3171 17.498847,1037.3929 17.5625,1037.3942 17.597877,1037.3949 18.015599,1037.0456 18.5,1036.613 18.984404,1036.1802 19.409204,1035.8311 19.4375,1035.8317 19.465794,1035.8322 19.539348,1035.8613 19.625,1035.8942 19.773776,1035.9516 19.795723,1035.9254 20.0625,1035.7067 L 20.34375,1035.488 20.625,1035.6755 C 21.258396,1036.1294 21.352764,1036.2402 21.40625,1036.5192 21.488828,1036.9501 21.523257,1037.1434 21.5625,1037.1442 21.600535,1037.145 21.990403,1036.6426 22.09375,1036.4567 22.144041,1036.3662 22.071853,1036.3173 21.71875,1035.8005 21.498226,1035.4777 21.343126,1035.1744 21.34375,1035.1442 21.344375,1035.1138 21.393029,1035.0545 21.4375,1035.0192 21.496384,1034.9723 21.572499,1035.058 21.78125,1035.3005 21.343876,1034.4541 20.789923,1033.6891 20.15625,1032.988 z M 21.09375,1036.613 C 21.029387,1036.6125 20.78075,1036.9341 20.8125,1036.988 20.829011,1037.0159 20.911663,1037.0572 20.96875,1037.0817 21.025836,1037.1061 21.107248,1037.1415 21.15625,1037.1442 21.231672,1037.1484 21.245147,1037.1227 21.21875,1036.988 21.173999,1036.7597 21.137375,1036.6132 21.09375,1036.613 z M 20.21875,1036.9567 19.40625,1037.0192 18.59375,1037.0817 17.09375,1038.3317 15.59375,1039.5505 15.59375,1040.8005 C 15.599116,1041.4863 15.608231,1042.0822 15.625,1042.113 15.641769,1042.1437 15.861809,1042.3721 16.125,1042.613 16.388196,1042.8538 16.64478,1043.1045 16.71875,1043.1755 16.852053,1043.3033 16.895207,1043.3202 18.0625,1043.3942 L 19.21875,1043.4567 19.75,1043.8005 C 20.027674,1043.9893 20.26813,1044.1629 20.28125,1044.1755 20.294367,1044.1882 20.184041,1044.2635 20.0625,1044.363 L 19.84375,1044.5505 20.1875,1044.9567 C 20.37198,1045.1849 20.628309,1045.4958 20.75,1045.6442 L 20.9375,1045.9255 20.9375,1046.4567 20.9375,1046.8005 C 22.198012,1045.053 22.95226,1042.8988 23,1040.5817 23.01887,1039.6658 22.91226,1038.7804 22.71875,1037.9255 22.650239,1037.8768 22.553296,1037.8007 22.53125,1037.8005 22.495546,1037.8 22.346552,1037.8887 22.1875,1038.0192 22.028447,1038.1498 21.843834,1038.2699 21.8125,1038.2692 21.781178,1038.2684 21.538305,1038.1899 21.21875,1038.0817 L 20.625,1037.863 20.625,1037.613 C 20.629766,1037.3817 20.616324,1037.3306 20.4375,1037.1442 L 20.21875,1036.9567 z M 12,1045.738 12,1045.8317 C 12.007352,1045.8204 12.062423,1045.7721 12.0625,1045.7692 12.062524,1045.7683 12.002511,1045.7406 12,1045.738 z"
       id="path3035-3-7"
       inkscape:connector-curvature="0" />
    <path
       style="fill:#27ae60;fill-opacity:1;fill-rule:nonzero;stroke:none"
       d="M 12 1 C 10.939027 0.99984909 9.9092334 1.1568243 8.9375 1.4375 C 9.0228588 1.5782 9.0539815 1.5822 9.15625 1.75 C 9.6722024 2.5967 9.7328413 2.69795 9.875 2.71875 C 9.960222 2.73115 10.189465 2.7414 10.40625 2.75 L 10.8125 2.75 L 11.125 2.0625 L 11.40625 1.40625 L 12 1.21875 L 12 1 z M 6.28125 2.59375 C 5.324375 3.17675 4.4551142 3.9111 3.71875 4.75 C 2.4471419 6.1987 1.5890142 7.99085 1.21875 9.96875 C 1.373891 9.95985 1.5131216 9.931 1.84375 9.9375 C 2.7883942 9.9558 2.6785613 9.92085 3 10.40625 C 3.1793556 10.67695 3.1913973 10.6673 3.46875 10.6875 C 3.7992014 10.7117 3.7852248 10.69625 3.625 10.15625 C 3.5626319 9.94615 3.5304861 9.7412 3.53125 9.6875 C 3.5321663 9.623 3.7121873 9.46695 4.09375 9.15625 C 4.7305613 8.63765 4.687141 8.7164 4.59375 8.1875 C 4.574448 8.0785 4.616809 7.98205 4.8125 7.78125 C 5.0451269 7.54265 5.0415219 7.57325 5.28125 7.59375 L 5.53125 7.59375 L 5.5625 7.1875 C 5.5806913 6.9554 5.6107159 6.7636 5.625 6.75 C 5.6392821 6.7364 6.2548563 6.37215 7 5.96875 C 7.7451447 5.56525 8.3992721 5.2238 8.4375 5.1875 C 8.4969038 5.1308 8.3349344 4.91515 7.53125 3.90625 C 7.0140339 3.25695 6.591604 2.68945 6.5625 2.65625 C 6.5569935 2.64995 6.3416809 2.60985 6.28125 2.59375 z M 4.3125 10.375 C 4.2888854 10.3888 4.2836938 10.47515 4.28125 10.59375 C 4.2769719 10.80145 4.2792983 10.8167 4.5 10.9375 C 4.771687 11.0861 4.8191303 11.1052 4.78125 11 C 4.7231812 10.8389 4.3538708 10.3506 4.3125 10.375 z M 3.15625 11.09375 C 3.0943447 11.13035 2.955531 11.6411 3 11.6875 C 3.0216714 11.71 3.319353 11.77475 3.625 11.84375 C 3.9758462 11.92305 4.1812787 11.9651 4.21875 11.9375 C 4.3037869 11.8748 4.4237216 11.5487 4.375 11.5 C 4.3136049 11.4384 3.202652 11.06635 3.15625 11.09375 z M 1.875 11.4375 L 1.5 11.625 C 1.3002659 11.7301 1.0901581 11.84495 1.03125 11.84375 C 1.0271018 11.84375 1.0052645 11.84505 1 11.84375 C 0.9928388 12.32145 1.0414958 12.7874 1.09375 13.25 L 1.3125 13.375 L 1.65625 13.34375 L 2 13.34375 L 2.21875 13.8125 C 2.3342813 14.062 2.4553533 14.2874 2.5 14.3125 C 2.5446488 14.3375 2.841793 14.33795 3.125 14.34375 L 3.625 14.34375 L 3.59375 14.75 C 3.5852617 15.162 3.59891 15.1805 3.375 15.5 C 3.2466098 15.6832 3.155298 15.89935 3.15625 15.96875 C 3.1571662 16.03615 3.4034476 16.6941 3.6875 17.4375 L 4.1875 18.78125 L 4.71875 19.0625 C 5.1084919 19.2613 5.220185 19.33655 5.21875 19.40625 C 5.2182729 19.42935 5.0981397 20.10885 5.03125 20.46875 C 6.0517139 21.31095 7.1853074 22.0054 8.46875 22.4375 C 9.6414058 21.2321 10.769936 20.0418 10.9375 19.875 L 11.1875 19.625 L 11.25 18.96875 C 11.305428 18.60005 11.373 18.25895 11.375 18.21875 C 11.376998 18.17855 11.5406 18.0101 11.71875 17.8125 C 11.881667 17.631887 11.978152 17.478418 12 17.4375 L 12 17.375 C 11.969433 17.337129 11.536742 17.015326 10.96875 16.625 L 9.90625 15.90625 L 9.53125 15.875 C 9.2742745 15.8698 9.1393981 15.8601 9.09375 15.8125 C 9.0558988 15.773 8.9962639 15.55105 8.96875 15.28125 C 8.9420583 15.01965 8.888874 14.7735 8.875 14.75 C 8.8611291 14.7264 8.6124562 14.72535 8.3125 14.71875 C 8.0125407 14.71235 7.7232707 14.67995 7.6875 14.65625 C 7.6475409 14.62975 7.6484506 14.42285 7.625 14.15625 C 7.6040041 13.91785 7.5569567 13.7149 7.53125 13.6875 C 7.5055392 13.6602 7.1571633 13.61715 6.75 13.59375 C 6.0747905 13.55485 5.952 13.55215 5.59375 13.40625 L 5.1875 13.21875 L 4.65625 13.46875 L 4.09375 13.6875 L 3.5 13.65625 C 2.8219885 13.64295 2.8625509 13.7317 2.78125 13.125 C 2.7532188 12.9158 2.7441356 12.73535 2.71875 12.71875 C 2.6933603 12.70245 2.5439114 12.67605 2.40625 12.65625 L 2.15625 12.59375 L 2.1875 12.4375 C 2.1910847 12.3304 2.1946707 12.11615 2.21875 11.96875 L 2.25 11.6875 L 2.09375 11.53125 L 1.875 11.4375 z M 4.96875 11.78125 C 4.9436434 11.80545 4.9233348 11.9069 4.90625 12 L 4.875 12.15625 L 5.84375 12.5625 C 6.8213129 12.9367 6.998697 12.9638 7.15625 12.8125 C 7.2162748 12.7548 7.2032223 12.7506 7.0625 12.6875 C 6.9723855 12.6469 6.4833716 12.38725 5.96875 12.15625 C 5.4008988 11.90155 4.9964507 11.75465 4.96875 11.78125 z "
       transform="translate(0,1028.3622)"
       id="path3035-3" />
  </g>
</svg>
