<?xml version="1.0" encoding="UTF-8" standalone="no"?>
<!-- Created with Inkscape (http://www.inkscape.org/) -->

<svg
   xmlns:dc="http://purl.org/dc/elements/1.1/"
   xmlns:cc="http://creativecommons.org/ns#"
   xmlns:rdf="http://www.w3.org/1999/02/22-rdf-syntax-ns#"
   xmlns:svg="http://www.w3.org/2000/svg"
   xmlns="http://www.w3.org/2000/svg"
   xmlns:sodipodi="http://sodipodi.sourceforge.net/DTD/sodipodi-0.dtd"
   xmlns:inkscape="http://www.inkscape.org/namespaces/inkscape"
   version="1.1"
   width="24"
   height="24"
   id="svg2"
   inkscape:version="0.48.3.1 r9886"
   sodipodi:docname="headphone.svg">
  <sodipodi:namedview
     pagecolor="#ffffff"
     bordercolor="#666666"
     borderopacity="1"
     objecttolerance="10"
     gridtolerance="10"
     guidetolerance="10"
     inkscape:pageopacity="0"
     inkscape:pageshadow="2"
     inkscape:window-width="1920"
     inkscape:window-height="1150"
     id="namedview3802"
     showgrid="true"
     inkscape:zoom="27.812867"
     inkscape:cx="-2.7893314"
     inkscape:cy="11.748398"
     inkscape:window-x="0"
     inkscape:window-y="0"
     inkscape:window-maximized="1"
     inkscape:current-layer="layer1">
    <inkscape:grid
       type="xygrid"
       id="grid4157"
       empspacing="4"
       visible="true"
       enabled="true"
       snapvisiblegridlinesonly="true" />
  </sodipodi:namedview>
  <defs
     id="defs4" />
  <metadata
     id="metadata7">
    <rdf:RDF>
      <cc:Work
         rdf:about="">
        <dc:format>image/svg+xml</dc:format>
        <dc:type
           rdf:resource="http://purl.org/dc/dcmitype/StillImage" />
        <dc:title />
      </cc:Work>
    </rdf:RDF>
  </metadata>
  <g
     transform="translate(0,-1028.3622)"
     id="layer1">
    <path
       style="fill:#34495e;fill-opacity:1;fill-rule:nonzero;stroke:none"
       d="M 19,1040.3622 19,1042.3622 19,1050.3622 19,1052.3622 18,1052.3622 17.5,1052.3622 C 16.671573,1052.3622 16,1051.6906 16,1050.8622 L 16,1048.8622 16,1048.3622 16,1046.3622 16,1044.3622 16,1043.8622 16,1041.8622 C 16,1041.0338 16.671573,1040.3622 17.5,1040.3622 L 18,1040.3622 19,1040.3622 z"
       id="path4134-7"
       inkscape:connector-curvature="0" />
    <path
       inkscape:connector-curvature="0"
       style="fill:#c0392b;fill-opacity:1;fill-rule:nonzero;stroke:none"
       d="M 20,1041.3622 C 20.552285,1041.3622 21,1041.8099 21,1042.3622 L 21,1044.3622 21,1048.3622 21,1050.3622 C 21,1050.9145 20.552285,1051.3622 20,1051.3622 L 19,1051.3622 19,1049.3622 19,1043.3622 19,1041.3622 20,1041.3622 z"
       id="rect3866-1-75-0" />
    <rect
       style="fill:#e74c3c;fill-opacity:1;fill-rule:nonzero;stroke:none"
       id="rect3866-2-44-4"
       width="2"
       height="11.999976"
       x="-20.000002"
       y="1040.3622"
       transform="scale(-1,1)" />
    <path
       style="fill:#c0392b;fill-opacity:1;fill-rule:nonzero;stroke:none"
       d="M 4 13 C 3.447715 13 3 13.4477 3 14 L 3 16 L 3 20 L 3 22 C 3 22.5523 3.447715 23 4 23 L 5 23 L 5 21 L 5 15 L 5 13 L 4 13 z "
       transform="translate(0,1028.3622)"
       id="rect3866-1-75" />
    <path
       style="fill:#34495e;fill-opacity:1;fill-rule:nonzero;stroke:none"
       d="M 5,1040.3622 5,1042.3622 5,1050.3622 5,1052.3622 6,1052.3622 6.5,1052.3622 C 7.328427,1052.3622 8,1051.6906 8,1050.8622 L 8,1048.8622 8,1048.3622 8,1046.3622 8,1044.3622 8,1043.8622 8,1041.8622 C 8,1041.0338 7.328427,1040.3622 6.5,1040.3622 L 6,1040.3622 5,1040.3622 z"
       id="path4134"
       inkscape:connector-curvature="0" />
    <path
       style="fill:#34495e;fill-opacity:1;fill-rule:nonzero;stroke:none"
       d="M 11.96875,1028.2997 C 5.893618,1028.2997 0.96875,1033.2246 0.96875,1039.2997 L 0.96875,1040.2997 1.96875,1040.2997 C 2.01047,1035.7163 5.0996,1031.8864 9.28125,1030.706 9.503862,1030.6367 9.7391,1030.5705 9.96875,1030.5185 10.031801,1030.5054 10.092773,1030.499 10.15625,1030.4872 10.408259,1030.4356 10.678298,1030.3922 10.9375,1030.3622 11.2809,1030.3224 11.614683,1030.2997 11.96875,1030.2997 12.322817,1030.2997 12.6566,1030.3224 13,1030.3622 13.27105,1030.39 13.517039,1030.4381 13.78125,1030.4872 14.074189,1030.5471 14.374433,1030.6183 14.65625,1030.706 18.8379,1031.8864 21.92703,1035.7163 21.96875,1040.2997 L 22.96875,1040.2997 22.96875,1039.2997 C 22.96875,1033.2246 18.043882,1028.2997 11.96875,1028.2997 z"
       id="path2988-4"
       inkscape:connector-curvature="0" />
    <path
       style="fill:#2c3e50;fill-opacity:1;fill-rule:nonzero;stroke:none"
       d="M 11.96875,1029.2997 C 5.893618,1029.2997 0.96875,1034.2246 0.96875,1040.2997 L 1.96875,1040.2997 C 2.01047,1035.7163 5.0996,1031.8863 9.28125,1030.7059 9.503862,1030.6366 9.7391,1030.5704 9.96875,1030.5184 10.031801,1030.5053 10.092773,1030.499 10.15625,1030.4872 10.408259,1030.4356 10.678298,1030.3922 10.9375,1030.3622 11.2809,1030.3224 11.614683,1030.2997 11.96875,1030.2997 12.322817,1030.2997 12.6566,1030.3224 13,1030.3622 13.27105,1030.39 13.517039,1030.4381 13.78125,1030.4872 14.074189,1030.5471 14.374433,1030.6182 14.65625,1030.7059 18.8379,1031.8863 21.92703,1035.7163 21.96875,1040.2997 L 22.96875,1040.2997 C 22.96875,1034.2246 18.043882,1029.2997 11.96875,1029.2997 z"
       id="path2988-4-7"
       inkscape:connector-curvature="0" />
    <path
       sodipodi:type="arc"
       style="fill:#2c3e50;fill-opacity:1;fill-rule:nonzero;stroke:none"
       id="path3785"
       sodipodi:cx="2"
       sodipodi:cy="14"
       sodipodi:rx="2"
       sodipodi:ry="2"
       d="M 4,14 C 4,15.104569 3.1045695,16 2,16 0.8954305,16 0,15.104569 0,14 0,12.895431 0.8954305,12 2,12 3.1045695,12 4,12.895431 4,14 z"
       transform="matrix(0.75,0,0,0.75,0.5,1030.3622)" />
    <path
       inkscape:connector-curvature="0"
       style="fill:#34495e;fill-opacity:1;fill-rule:nonzero;stroke:none"
       d="M 1.4470857,1040.5667 3,1046.3622 C 3.0714599,1046.6289 3.3456393,1046.7872 3.6123724,1046.7158 3.8791055,1046.6443 4.0373857,1046.3701 3.9659258,1046.1034 L 2.4130115,1040.3078 1.4470857,1040.5667 z"
       id="path3825-7" />
    <path
       sodipodi:type="arc"
       style="fill:#2c3e50;fill-opacity:1;fill-rule:nonzero;stroke:none"
       id="path3785-3"
       sodipodi:cx="2"
       sodipodi:cy="14"
       sodipodi:rx="2"
       sodipodi:ry="2"
       d="M 4,14 C 4,15.104569 3.1045695,16 2,16 0.8954305,16 0,15.104569 0,14 0,12.895431 0.8954305,12 2,12 3.1045695,12 4,12.895431 4,14 z"
       transform="matrix(-0.75,0,0,0.75,23.5,1030.3622)" />
    <path
       inkscape:connector-curvature="0"
       style="fill:#34495e;fill-opacity:1;fill-rule:nonzero;stroke:none"
       d="M 22.552914,1040.5667 21,1046.3622 C 20.92854,1046.6289 20.654361,1046.7872 20.387628,1046.7158 20.120894,1046.6443 19.962614,1046.3701 20.034074,1046.1034 L 21.586989,1040.3078 22.552914,1040.5667 z"
       id="path3825-7-3" />
    <path
       sodipodi:type="arc"
       style="fill:#34495e;fill-opacity:1;fill-rule:nonzero;stroke:none"
       id="path4072"
       sodipodi:cx="2"
       sodipodi:cy="13"
       sodipodi:rx="1"
       sodipodi:ry="1"
       d="M 3,13 C 3,13.552285 2.5522847,14 2,14 1.4477153,14 1,13.552285 1,13 1,12.447715 1.4477153,12 2,12 2.5522847,12 3,12.447715 3,13 z"
       transform="translate(0,1027.8229)" />
    <path
       sodipodi:type="arc"
       style="fill:#34495e;fill-opacity:1;fill-rule:nonzero;stroke:none"
       id="path4072-0"
       sodipodi:cx="2"
       sodipodi:cy="13"
       sodipodi:rx="1"
       sodipodi:ry="1"
       d="M 3,13 C 3,13.552285 2.5522847,14 2,14 1.4477153,14 1,13.552285 1,13 1,12.447715 1.4477153,12 2,12 2.5522847,12 3,12.447715 3,13 z"
       transform="translate(20,1027.8207)" />
    <rect
       style="fill:#e74c3c;fill-opacity:1;fill-rule:nonzero;stroke:none"
       id="rect3866-2-44"
       width="2"
       height="11.999976"
       x="4"
       y="1040.3622" />
  </g>
</svg>
