<?xml version="1.0" encoding="UTF-8" standalone="no"?>
<!-- Created with Inkscape (http://www.inkscape.org/) -->

<svg
   xmlns:dc="http://purl.org/dc/elements/1.1/"
   xmlns:cc="http://creativecommons.org/ns#"
   xmlns:rdf="http://www.w3.org/1999/02/22-rdf-syntax-ns#"
   xmlns:svg="http://www.w3.org/2000/svg"
   xmlns="http://www.w3.org/2000/svg"
   xmlns:sodipodi="http://sodipodi.sourceforge.net/DTD/sodipodi-0.dtd"
   xmlns:inkscape="http://www.inkscape.org/namespaces/inkscape"
   version="1.1"
   width="24"
   height="24"
   id="svg2"
   inkscape:version="0.48.3.1 r9886"
   sodipodi:docname="headphone (copy).svg">
  <sodipodi:namedview
     pagecolor="#ffffff"
     bordercolor="#666666"
     borderopacity="1"
     objecttolerance="10"
     gridtolerance="10"
     guidetolerance="10"
     inkscape:pageopacity="0"
     inkscape:pageshadow="2"
     inkscape:window-width="1920"
     inkscape:window-height="1150"
     id="namedview3802"
     showgrid="true"
     inkscape:zoom="11.313709"
     inkscape:cx="49.520607"
     inkscape:cy="-1.4910104"
     inkscape:window-x="0"
     inkscape:window-y="0"
     inkscape:window-maximized="1"
     inkscape:current-layer="layer1"
     inkscape:snap-nodes="true"
     inkscape:snap-bbox="true">
    <inkscape:grid
       type="xygrid"
       id="grid4157"
       empspacing="4"
       visible="true"
       enabled="true"
       snapvisiblegridlinesonly="true" />
  </sodipodi:namedview>
  <defs
     id="defs4" />
  <metadata
     id="metadata7">
    <rdf:RDF>
      <cc:Work
         rdf:about="">
        <dc:format>image/svg+xml</dc:format>
        <dc:type
           rdf:resource="http://purl.org/dc/dcmitype/StillImage" />
        <dc:title />
      </cc:Work>
    </rdf:RDF>
  </metadata>
  <g
     transform="translate(0,-1028.3622)"
     id="layer1">
    <path
       style="fill:#f39c12;fill-opacity:1;fill-rule:nonzero;stroke:none"
       d="M 18,1040.3621 C 18.552285,1040.3621 19,1040.8098 19,1041.3621 L 19,1043.3621 19,1047.3621 19,1049.3621 C 19,1049.9144 18.552285,1050.3621 18,1050.3621 L 17,1050.3621 17,1048.3621 17,1042.3621 17,1040.3621 18,1040.3621 z"
       id="rect3866-1-75-4-1"
       inkscape:connector-curvature="0" />
    <path
       style="fill:#e67e22;fill-opacity:1;fill-rule:nonzero;stroke:none"
       d="M 18,1050.3622 C 18.552285,1050.3622 19,1049.9145 19,1049.3622 L 19,1047.3622 19,1045.3622 17,1045.3622 17,1048.3622 17,1050.3622 18,1050.3622 z"
       id="rect3866-1-75-4-17-8"
       inkscape:connector-curvature="0" />
    <path
       style="fill:#f39c12;fill-opacity:1;fill-rule:nonzero;stroke:none"
       d="M 6,1040.3621 C 5.447715,1040.3621 5,1040.8098 5,1041.3621 L 5,1043.3621 5,1047.3621 5,1049.3621 C 5,1049.9144 5.447715,1050.3621 6,1050.3621 L 7,1050.3621 7,1048.3621 7,1042.3621 7,1040.3621 6,1040.3621 z"
       id="rect3866-1-75-4"
       inkscape:connector-curvature="0" />
    <path
       style="fill:#2c3e50;fill-opacity:1;fill-rule:nonzero;stroke:none"
       d="M 2,1036.363 2,1038.4568 C 1.413588,1038.6606 1,1039.2072 1,1039.863 1,1040.6914 1.6715729,1041.363 2.5,1041.363 2.5205056,1041.363 2.5421944,1041.3638 2.5625,1041.363 L 5,1045.613 5,1042.8943 3.75,1040.7068 C 3.9117365,1040.4673 4,1040.1737 4,1039.863 4,1039.2072 3.586412,1038.6606 3,1038.4568 L 3,1036.363 2,1036.363 z"
       id="rect3048"
       inkscape:connector-curvature="0" />
    <path
       style="fill:#34495e;fill-opacity:1;fill-rule:nonzero;stroke:none"
       d="M 7,1039.3621 7,1041.3621 7,1049.3621 7,1051.3621 8,1051.3621 8.5,1051.3621 C 9.328427,1051.3621 10,1050.6905 10,1049.8621 L 10,1047.8621 10,1047.3621 10,1045.3621 10,1043.3621 10,1042.8621 10,1040.8621 C 10,1040.0337 9.328427,1039.3621 8.5,1039.3621 L 8,1039.3621 7,1039.3621 z"
       id="path4134-4"
       inkscape:connector-curvature="0" />
    <path
       style="fill:#2c3e50;fill-opacity:1;fill-rule:nonzero;stroke:none"
       d="M 7,1051.3621 7,1049.3621 7,1045.3621 10,1045.3621 10,1047.3621 10,1047.8621 10,1049.8621 C 10,1050.6905 9.328427,1051.3621 8.5,1051.3621 L 8,1051.3621 7,1051.3621 z"
       id="path4134-4-1-3"
       inkscape:connector-curvature="0" />
    <rect
       style="fill:#f1c40f;fill-opacity:1;fill-rule:nonzero;stroke:none"
       id="rect3866-2-44-6"
       width="2"
       height="11.999976"
       x="6"
       y="1039.3622" />
    <path
       style="fill:#34495e;fill-opacity:1;fill-rule:nonzero;stroke:none"
       d="M 11,1028.3622 C 7.0614314,1028.3046 3.208271,1031.292 1.375,1035.7685 1.0096152,1037.2876 2.8679779,1038.0358 3.28125,1036.581 4.8470896,1033.115 7.9111062,1030.9376 11,1030.9247 L 13,1030.9247 C 16.088894,1030.9376 19.15291,1033.115 20.71875,1036.581 21.132022,1038.0358 22.990385,1037.2876 22.625,1035.7685 20.791729,1031.292 16.938569,1028.3046 13,1028.3622 L 11,1028.3622 z"
       id="path3011"
       inkscape:connector-curvature="0" />
    <path
       style="fill:#34495e;fill-opacity:1;fill-rule:nonzero;stroke:none"
       d="M 17,1039.3621 17,1041.3621 17,1049.3621 17,1051.3621 16,1051.3621 15.5,1051.3621 C 14.671573,1051.3621 14,1050.6905 14,1049.8621 L 14,1047.8621 14,1047.3621 14,1045.3621 14,1043.3621 14,1042.8621 14,1040.8621 C 14,1040.0337 14.671573,1039.3621 15.5,1039.3621 L 16,1039.3621 17,1039.3621 z"
       id="path4134-4-2"
       inkscape:connector-curvature="0" />
    <path
       style="fill:#2c3e50;fill-opacity:1;fill-rule:nonzero;stroke:none"
       d="M 17,1051.3621 17,1049.3621 17,1045.3621 14,1045.3621 14,1047.3621 14,1047.8621 14,1049.8621 C 14,1050.6905 14.671573,1051.3621 15.5,1051.3621 L 16,1051.3621 17,1051.3621 z"
       id="path4134-4-1"
       inkscape:connector-curvature="0" />
    <rect
       style="fill:#f1c40f;fill-opacity:1;fill-rule:nonzero;stroke:none"
       id="rect3866-2-44-6-8"
       width="2"
       height="11.999976"
       x="-18"
       y="1039.3622"
       transform="scale(-1,1)" />
    <path
       style="fill:#2c3e50;fill-opacity:1;fill-rule:nonzero;stroke:none"
       d="M 11,1029.9247 C 7.195919,1029.8691 3.495476,1032.6696 1.59375,1036.8935 2.051744,1037.5083 2.997125,1037.5499 3.28125,1036.5497 4.84709,1033.0837 7.911106,1030.9376 11,1030.9247 L 13,1030.9247 C 16.088894,1030.9376 19.15291,1033.0837 20.71875,1036.5497 21.002875,1037.5499 21.948256,1037.5083 22.40625,1036.8935 20.504524,1032.6696 16.804081,1029.8691 13,1029.9247 L 11,1029.9247 z"
       id="path3011-3"
       inkscape:connector-curvature="0" />
    <path
       style="fill:#e67e22;fill-opacity:1;fill-rule:nonzero;stroke:none"
       d="M 6,1050.3622 C 5.447715,1050.3622 5,1049.9145 5,1049.3622 L 5,1047.3622 5,1045.3622 7,1045.3622 7,1048.3622 7,1050.3622 6,1050.3622 z"
       id="rect3866-1-75-4-17"
       inkscape:connector-curvature="0" />
    <rect
       style="fill:#f39c12;fill-opacity:1;fill-rule:nonzero;stroke:none"
       id="rect3981"
       width="2"
       height="6"
       x="6"
       y="1045.3621" />
    <rect
       style="fill:#f39c12;fill-opacity:1;fill-rule:nonzero;stroke:none"
       id="rect3983"
       width="2"
       height="6"
       x="16"
       y="1045.3621" />
    <path
       style="fill:#2c3e50;fill-opacity:1;fill-rule:nonzero;stroke:none"
       d="M 22,1036.3622 22,1038.456 C 22.586412,1038.6598 23,1039.2064 23,1039.8622 23,1040.6906 22.328427,1041.3622 21.5,1041.3622 21.479494,1041.3622 21.457806,1041.363 21.4375,1041.3622 L 19,1045.6122 19,1042.8935 20.25,1040.706 C 20.088264,1040.4665 20,1040.1729 20,1039.8622 20,1039.2064 20.413588,1038.6598 21,1038.456 L 21,1036.3622 22,1036.3622 z"
       id="rect3048-3"
       inkscape:connector-curvature="0" />
    <path
       sodipodi:type="arc"
       style="fill:#7f8c8d;fill-opacity:1;fill-rule:nonzero;stroke:none"
       id="path4141"
       sodipodi:cx="2.5"
       sodipodi:cy="11.5"
       sodipodi:rx="0.5"
       sodipodi:ry="0.5"
       d="M 3,11.5 A 0.5,0.5 0 1 1 2,11.5 0.5,0.5 0 1 1 3,11.5 z"
       transform="translate(0,1028.3622)" />
    <path
       transform="translate(19,1028.3622)"
       sodipodi:type="arc"
       style="fill:#7f8c8d;fill-opacity:1;fill-rule:nonzero;stroke:none"
       id="path4141-0"
       sodipodi:cx="2.5"
       sodipodi:cy="11.5"
       sodipodi:rx="0.5"
       sodipodi:ry="0.5"
       d="M 3,11.5 A 0.5,0.5 0 1 1 2,11.5 0.5,0.5 0 1 1 3,11.5 z" />
  </g>
</svg>
