<?xml version="1.0" encoding="UTF-8" standalone="no"?>
<!-- Created with Inkscape (http://www.inkscape.org/) -->

<svg
   xmlns:dc="http://purl.org/dc/elements/1.1/"
   xmlns:cc="http://creativecommons.org/ns#"
   xmlns:rdf="http://www.w3.org/1999/02/22-rdf-syntax-ns#"
   xmlns:svg="http://www.w3.org/2000/svg"
   xmlns="http://www.w3.org/2000/svg"
   xmlns:sodipodi="http://sodipodi.sourceforge.net/DTD/sodipodi-0.dtd"
   xmlns:inkscape="http://www.inkscape.org/namespaces/inkscape"
   version="1.1"
   width="24"
   height="24"
   id="svg2"
   inkscape:version="0.48.3.1 r9886"
   sodipodi:docname="heart.svg">
  <sodipodi:namedview
     pagecolor="#ffffff"
     bordercolor="#666666"
     borderopacity="1"
     objecttolerance="10"
     gridtolerance="10"
     guidetolerance="10"
     inkscape:pageopacity="0"
     inkscape:pageshadow="2"
     inkscape:window-width="1920"
     inkscape:window-height="1150"
     id="namedview4038"
     showgrid="false"
     inkscape:zoom="1.2291667"
     inkscape:cx="34.494237"
     inkscape:cy="-65.480341"
     inkscape:window-x="0"
     inkscape:window-y="0"
     inkscape:window-maximized="1"
     inkscape:current-layer="layer1" />
  <defs
     id="defs4" />
  <metadata
     id="metadata7">
    <rdf:RDF>
      <cc:Work
         rdf:about="">
        <dc:format>image/svg+xml</dc:format>
        <dc:type
           rdf:resource="http://purl.org/dc/dcmitype/StillImage" />
        <dc:title />
      </cc:Work>
    </rdf:RDF>
  </metadata>
  <g
     transform="translate(0,-1028.3622)"
     id="layer1">
    <path
       d="M 8.5,1032.3622 C 5.462434,1032.3622 3,1034.8614 3,1037.9443 3,1039.4697 3.616667,1040.8378 4.59375,1041.8455 4.727456,1041.9833 4.852864,1042.1345 5,1042.2577 L 12,1049.3622 19,1042.2577 19.34375,1041.9089 C 20.357389,1040.8963 21,1039.5018 21,1037.9443 21,1034.8614 18.537566,1032.3622 15.5,1032.3622 14.171065,1032.3622 12.950724,1032.8345 12,1033.6309 11.049276,1032.8345 9.828935,1032.3622 8.5,1032.3622 z"
       inkscape:connector-curvature="0"
       id="path3014-8-1"
       style="fill:#c0392b;fill-opacity:1;fill-rule:nonzero;stroke:none" />
    <path
       d="M 8.8888888,1033.3622 C 6.1888302,1033.3622 4,1035.5674 4,1038.2876 4,1039.6337 4.5481484,1040.8407 5.4166666,1041.7298 5.5355164,1041.8515 5.6469902,1041.9848 5.7777778,1042.0936 L 12,1048.3622 18.222222,1042.0936 18.527778,1041.7858 C 19.428791,1040.8923 20,1039.662 20,1038.2876 20,1035.5674 17.81117,1033.3622 15.111112,1033.3622 13.929835,1033.3622 12.845088,1033.7789 12,1034.4816 11.154912,1033.7789 10.070164,1033.3622 8.8888888,1033.3622 z"
       inkscape:connector-curvature="0"
       id="path3014-8-1-2"
       style="fill:#e74c3c;fill-opacity:1;fill-rule:nonzero;stroke:none" />
  </g>
</svg>
