<?xml version="1.0" encoding="UTF-8" standalone="no"?>
<!-- Created with Inkscape (http://www.inkscape.org/) -->

<svg
   xmlns:dc="http://purl.org/dc/elements/1.1/"
   xmlns:cc="http://creativecommons.org/ns#"
   xmlns:rdf="http://www.w3.org/1999/02/22-rdf-syntax-ns#"
   xmlns:svg="http://www.w3.org/2000/svg"
   xmlns="http://www.w3.org/2000/svg"
   xmlns:sodipodi="http://sodipodi.sourceforge.net/DTD/sodipodi-0.dtd"
   xmlns:inkscape="http://www.inkscape.org/namespaces/inkscape"
   version="1.1"
   width="24"
   height="24"
   id="svg2"
   inkscape:version="0.48.3.1 r9886"
   sodipodi:docname="home.svg">
  <sodipodi:namedview
     pagecolor="#ffffff"
     bordercolor="#666666"
     borderopacity="1"
     objecttolerance="10"
     gridtolerance="10"
     guidetolerance="10"
     inkscape:pageopacity="0"
     inkscape:pageshadow="2"
     inkscape:window-width="1920"
     inkscape:window-height="1150"
     id="namedview4705"
     showgrid="true"
     inkscape:zoom="2.8284271"
     inkscape:cx="79.50685"
     inkscape:cy="10.95816"
     inkscape:window-x="0"
     inkscape:window-y="0"
     inkscape:window-maximized="1"
     inkscape:current-layer="layer1">
    <inkscape:grid
       type="xygrid"
       id="grid4137"
       empspacing="4"
       visible="true"
       enabled="true"
       snapvisiblegridlinesonly="true" />
  </sodipodi:namedview>
  <defs
     id="defs4" />
  <metadata
     id="metadata7">
    <rdf:RDF>
      <cc:Work
         rdf:about="">
        <dc:format>image/svg+xml</dc:format>
        <dc:type
           rdf:resource="http://purl.org/dc/dcmitype/StillImage" />
        <dc:title />
      </cc:Work>
    </rdf:RDF>
  </metadata>
  <g
     transform="translate(0,-1028.3622)"
     id="layer1">
    <rect
       style="fill:#c0392b;fill-opacity:1;fill-rule:nonzero;stroke:none"
       id="rect3950"
       width="3"
       height="5.9999237"
       x="17"
       y="1031.3622" />
    <path
       style="fill:#bdc3c7;fill-opacity:1;stroke:none"
       d="M 12 3.03125 L 3 12 L 3 13.8125 L 3 19.1875 L 3 21 L 4 21 L 12 21 L 20 21 L 21 21 L 21 19.1875 L 21 13.8125 L 21 12 L 12 3.03125 z "
       id="path3789-5"
       transform="translate(0,1028.3622)" />
    <path
       style="fill:#95a5a6;fill-opacity:1;stroke:none"
       d="M 12,1031.9755 3,1040.9442 3,1042.7567 3,1042.913 12,1033.9442 21,1042.913 21,1042.7567 21,1040.9442 12,1031.9755 z"
       id="path3789-5-3"
       inkscape:connector-curvature="0" />
    <path
       style="fill:#e74c3c;fill-opacity:1;fill-rule:nonzero;stroke:none"
       d="M 12,1029.3622 0.686292,1040.6759 2.100505,1042.0901 12,1032.1906 21.899495,1042.0901 23.313708,1040.6759 12,1029.3622 z"
       id="rect2991"
       inkscape:connector-curvature="0" />
    <path
       sodipodi:type="arc"
       style="fill:#3498db;fill-opacity:1;fill-rule:nonzero;stroke:none"
       id="path3791"
       sodipodi:cx="12"
       sodipodi:cy="9"
       sodipodi:rx="2"
       sodipodi:ry="2"
       d="M 14,9 A 2,2 0 1 1 10,9 2,2 0 1 1 14,9 z"
       transform="translate(0,1029.3622)" />
    <rect
       style="fill:#e67e22;fill-opacity:1;fill-rule:nonzero;stroke:none"
       id="rect3793"
       width="4"
       height="5.9999828"
       x="10"
       y="1043.3622" />
    <path
       sodipodi:type="arc"
       style="fill:#d35400;fill-opacity:1;fill-rule:nonzero;stroke:none"
       id="path3989-9"
       sodipodi:cx="11.5"
       sodipodi:cy="17.5"
       sodipodi:rx="0.5"
       sodipodi:ry="0.5"
       d="M 12,17.5 A 0.5,0.5 0 1 1 11,17.5 0.5,0.5 0 1 1 12,17.5 z"
       transform="translate(1.5,1029.3622)" />
    <path
       style="fill:#2980b9;fill-opacity:1;fill-rule:nonzero;stroke:none"
       d="M 12,1036.3622 C 10.895431,1036.3622 10,1037.2576 10,1038.3622 10,1038.5348 10.021396,1038.7024 10.0625,1038.8622 10.284463,1037.9995 11.068019,1037.3622 12,1037.3622 12.931981,1037.3622 13.715537,1037.9995 13.9375,1038.8622 13.978604,1038.7024 14,1038.5348 14,1038.3622 14,1037.2576 13.104569,1036.3622 12,1036.3622 z"
       id="path3791-8"
       inkscape:connector-curvature="0" />
    <path
       sodipodi:type="arc"
       style="fill:#f1c40f;fill-opacity:1;fill-rule:nonzero;stroke:none"
       id="path3989"
       sodipodi:cx="11.5"
       sodipodi:cy="17.5"
       sodipodi:rx="0.5"
       sodipodi:ry="0.5"
       d="M 12,17.5 A 0.5,0.5 0 1 1 11,17.5 0.5,0.5 0 1 1 12,17.5 z"
       transform="translate(1.5,1028.8834)" />
    <rect
       style="fill:#d35400;fill-opacity:1;fill-rule:nonzero;stroke:none"
       id="rect4047"
       width="4"
       height="1"
       x="10"
       y="1042.3622" />
  </g>
</svg>
