<?xml version="1.0" encoding="UTF-8" standalone="no"?>
<!-- Created with Inkscape (http://www.inkscape.org/) -->

<svg
   xmlns:dc="http://purl.org/dc/elements/1.1/"
   xmlns:cc="http://creativecommons.org/ns#"
   xmlns:rdf="http://www.w3.org/1999/02/22-rdf-syntax-ns#"
   xmlns:svg="http://www.w3.org/2000/svg"
   xmlns="http://www.w3.org/2000/svg"
   xmlns:sodipodi="http://sodipodi.sourceforge.net/DTD/sodipodi-0.dtd"
   xmlns:inkscape="http://www.inkscape.org/namespaces/inkscape"
   version="1.1"
   width="24"
   height="24"
   id="svg2"
   inkscape:version="0.48.3.1 r9886"
   sodipodi:docname="image.svg">
  <sodipodi:namedview
     pagecolor="#ffffff"
     bordercolor="#666666"
     borderopacity="1"
     objecttolerance="10"
     gridtolerance="10"
     guidetolerance="10"
     inkscape:pageopacity="0"
     inkscape:pageshadow="2"
     inkscape:window-width="1920"
     inkscape:window-height="1150"
     id="namedview4059"
     showgrid="true"
     inkscape:zoom="9.8333333"
     inkscape:cx="12"
     inkscape:cy="12"
     inkscape:window-x="0"
     inkscape:window-y="0"
     inkscape:window-maximized="1"
     inkscape:current-layer="layer1">
    <inkscape:grid
       type="xygrid"
       id="grid4149"
       empspacing="4"
       visible="true"
       enabled="true"
       snapvisiblegridlinesonly="true" />
  </sodipodi:namedview>
  <defs
     id="defs4" />
  <metadata
     id="metadata7">
    <rdf:RDF>
      <cc:Work
         rdf:about="">
        <dc:format>image/svg+xml</dc:format>
        <dc:type
           rdf:resource="http://purl.org/dc/dcmitype/StillImage" />
        <dc:title />
      </cc:Work>
    </rdf:RDF>
  </metadata>
  <g
     transform="translate(0,-1028.3622)"
     id="layer1">
    <path
       d="M 23,1048.3622 C 23,1049.4668 22.1046,1050.3622 21,1050.3622 L 13,1050.3622 9,1050.3622 3,1050.3622 C 1.8954,1050.3622 1,1049.4668 1,1048.3622 L 1,1034.3622 C 1,1033.2576 1.8954,1032.3622 3,1032.3622 L 9,1032.3622 13,1032.3622 17,1032.3622 21,1032.3622 C 22.1046,1032.3622 23,1033.2576 23,1034.3622 L 23,1038.3622 23,1048.3622 z"
       inkscape:connector-curvature="0"
       id="path2987-2"
       style="fill:#95a5a6;fill-opacity:1;fill-rule:nonzero;stroke:none" />
    <path
       d="M 1,1047.3622 C 1,1048.4668 1.8954,1049.3622 3,1049.3622 L 11,1049.3622 15,1049.3622 21,1049.3622 C 22.1046,1049.3622 23,1048.4668 23,1047.3622 L 23,1033.3622 C 23,1032.2576 22.1046,1031.3622 21,1031.3622 L 15,1031.3622 11,1031.3622 7,1031.3622 3,1031.3622 C 1.8954,1031.3622 1,1032.2576 1,1033.3622 L 1,1037.3622 1,1047.3622 z"
       inkscape:connector-curvature="0"
       id="path2987"
       style="fill:#bdc3c7;fill-opacity:1;fill-rule:nonzero;stroke:none" />
    <rect
       width="18"
       height="14"
       x="3"
       y="5"
       transform="translate(0,1028.3622)"
       id="rect3020"
       style="fill:#f39c12;fill-opacity:1;fill-rule:nonzero;stroke:none" />
    <path
       d="M 16.625,8.625 6.28125,19 21,19 21,13 16.625,8.625 z"
       inkscape:connector-curvature="0"
       transform="translate(0,1028.3622)"
       id="rect3020-7"
       style="fill:#e67e22;fill-opacity:1;fill-rule:nonzero;stroke:none" />
    <path
       d="M 8,8 A 2,2 0 1 1 4,8 2,2 0 1 1 8,8 z"
       transform="matrix(1.75,0,0,1.75,-3,1024.3622)"
       id="path3073"
       style="fill:#f1c40f;fill-opacity:1;fill-rule:nonzero;stroke:none" />
    <path
       d="M 8.09375,11.09375 3,16.1875 3,19 16,19 8.09375,11.09375 z"
       inkscape:connector-curvature="0"
       transform="translate(0,1028.3622)"
       id="rect3052"
       style="fill:#d35400;fill-opacity:1;fill-rule:nonzero;stroke:none" />
  </g>
</svg>
