<?xml version="1.0" encoding="UTF-8" standalone="no"?>
<!-- Created with Inkscape (http://www.inkscape.org/) -->

<svg
   xmlns:dc="http://purl.org/dc/elements/1.1/"
   xmlns:cc="http://creativecommons.org/ns#"
   xmlns:rdf="http://www.w3.org/1999/02/22-rdf-syntax-ns#"
   xmlns:svg="http://www.w3.org/2000/svg"
   xmlns="http://www.w3.org/2000/svg"
   xmlns:sodipodi="http://sodipodi.sourceforge.net/DTD/sodipodi-0.dtd"
   xmlns:inkscape="http://www.inkscape.org/namespaces/inkscape"
   width="24"
   height="24"
   id="svg2"
   version="1.1"
   inkscape:version="0.48.3.1 r9886"
   sodipodi:docname="institution.svg">
  <defs
     id="defs4" />
  <sodipodi:namedview
     id="base"
     pagecolor="#ffffff"
     bordercolor="#666666"
     borderopacity="1.0"
     inkscape:pageopacity="0.0"
     inkscape:pageshadow="2"
     inkscape:zoom="22.627417"
     inkscape:cx="16.825756"
     inkscape:cy="6.3875134"
     inkscape:document-units="px"
     inkscape:current-layer="text2993"
     showgrid="true"
     inkscape:window-width="1920"
     inkscape:window-height="1150"
     inkscape:window-x="0"
     inkscape:window-y="0"
     inkscape:window-maximized="1"
     inkscape:snap-nodes="true"
     inkscape:snap-bbox="true"
     inkscape:snap-global="true">
    <inkscape:grid
       type="xygrid"
       id="grid2985"
       empspacing="4"
       visible="true"
       enabled="true"
       snapvisiblegridlinesonly="true" />
  </sodipodi:namedview>
  <metadata
     id="metadata7">
    <rdf:RDF>
      <cc:Work
         rdf:about="">
        <dc:format>image/svg+xml</dc:format>
        <dc:type
           rdf:resource="http://purl.org/dc/dcmitype/StillImage" />
        <dc:title />
      </cc:Work>
    </rdf:RDF>
  </metadata>
  <g
     inkscape:label="Layer 1"
     inkscape:groupmode="layer"
     id="layer1"
     transform="translate(0,-1028.3622)">
    <g
       style="font-size:8px;font-style:normal;font-variant:normal;font-weight:normal;font-stretch:normal;text-align:end;line-height:125%;letter-spacing:0px;word-spacing:0px;text-anchor:end;fill:#2980b9;fill-opacity:1;stroke:none;font-family:FontAwesome;-inkscape-font-specification:FontAwesome"
       id="text2993">
      <path
         style="fill:#1abc9c;fill-opacity:1;fill-rule:nonzero;stroke:none"
         d="M 3,1035.3622 3,1048.3622 6,1048.3622 6,1035.3622 3,1035.3622 z M 8,1035.3622 8,1048.3622 11,1048.3622 11,1035.3622 8,1035.3622 z M 13,1035.3622 13,1048.3622 16,1048.3622 16,1035.3622 13,1035.3622 z M 18,1035.3622 18,1048.3622 21,1048.3622 21,1035.3622 18,1035.3622 z"
         id="rect2987"
         inkscape:connector-curvature="0" />
      <path
         style="font-size:8px;font-style:normal;font-variant:normal;font-weight:normal;font-stretch:normal;text-align:end;line-height:125%;letter-spacing:0px;word-spacing:0px;text-anchor:end;fill:#16a085;fill-opacity:1;fill-rule:nonzero;stroke:none;font-family:FontAwesome;-inkscape-font-specification:FontAwesome"
         d="M 4,1047.3622 C 2.89543,1047.3622 2,1048.2576 2,1049.3622 L 2,1050.3622 12,1050.3622 22,1050.3622 22,1049.3622 C 22,1048.2576 21.10457,1047.3622 20,1047.3622 L 12,1047.3622 4,1047.3622 z"
         id="path3030-1"
         inkscape:connector-curvature="0" />
      <path
         style="fill:#1abc9c;fill-opacity:1;fill-rule:nonzero;stroke:none"
         d="M 2,1048.3622 C 0.89543053,1048.3622 2.8719013e-8,1049.2576 2.8719013e-8,1050.3622 L 2.8719013e-8,1051.3622 24,1051.3622 24,1050.3622 C 24,1049.2576 23.104569,1048.3622 22,1048.3622 L 2,1048.3622 z"
         id="path3030"
         inkscape:connector-curvature="0" />
      <rect
         style="fill:#16a085;fill-opacity:1;fill-rule:nonzero;stroke:none"
         id="rect3098"
         width="24"
         height="1"
         x="2.8719013e-08"
         y="1050.3622" />
      <path
         style="fill:#1abc9c;fill-opacity:1;fill-rule:nonzero;stroke:none"
         d="M 12 1 L 0 6 L 0 7 L 24 7 L 24 6 L 12 1 z "
         transform="translate(0,1028.3622)"
         id="path3028" />
      <rect
         style="fill:#16a085;fill-opacity:1;fill-rule:nonzero;stroke:none"
         id="rect3128"
         width="1.5"
         height="13"
         x="3"
         y="1035.3622" />
      <rect
         style="fill:#16a085;fill-opacity:1;fill-rule:nonzero;stroke:none"
         id="rect3130"
         width="1.5"
         height="13"
         x="8"
         y="1035.3622" />
      <rect
         style="fill:#16a085;fill-opacity:1;fill-rule:nonzero;stroke:none"
         id="rect3132"
         width="1.5"
         height="12"
         x="13"
         y="1035.3622" />
      <rect
         style="fill:#16a085;fill-opacity:1;fill-rule:nonzero;stroke:none"
         id="rect3134"
         width="1.5"
         height="12"
         x="18"
         y="1035.3622" />
      <path
         style="font-size:8px;font-style:normal;font-variant:normal;font-weight:normal;font-stretch:normal;text-align:end;line-height:125%;letter-spacing:0px;word-spacing:0px;text-anchor:end;fill:#16a085;fill-opacity:1;fill-rule:nonzero;stroke:none;font-family:FontAwesome;-inkscape-font-specification:FontAwesome"
         d="M 2.28125,1035.3622 C 2.6272924,1035.9591 3.2603954,1036.3622 4,1036.3622 L 12,1036.3622 20,1036.3622 C 20.739605,1036.3622 21.372708,1035.9591 21.71875,1035.3622 L 2.28125,1035.3622 z"
         id="path3030-1-5"
         inkscape:connector-curvature="0" />
    </g>
  </g>
</svg>
