<?xml version="1.0" encoding="UTF-8" standalone="no"?>
<!-- Created with Inkscape (http://www.inkscape.org/) -->

<svg
   xmlns:dc="http://purl.org/dc/elements/1.1/"
   xmlns:cc="http://creativecommons.org/ns#"
   xmlns:rdf="http://www.w3.org/1999/02/22-rdf-syntax-ns#"
   xmlns:svg="http://www.w3.org/2000/svg"
   xmlns="http://www.w3.org/2000/svg"
   xmlns:sodipodi="http://sodipodi.sourceforge.net/DTD/sodipodi-0.dtd"
   xmlns:inkscape="http://www.inkscape.org/namespaces/inkscape"
   version="1.1"
   width="24"
   height="24"
   id="svg2"
   inkscape:version="0.48.3.1 r9886"
   sodipodi:docname="key.svg">
  <sodipodi:namedview
     pagecolor="#ffffff"
     bordercolor="#666666"
     borderopacity="1"
     objecttolerance="10"
     gridtolerance="10"
     guidetolerance="10"
     inkscape:pageopacity="0"
     inkscape:pageshadow="2"
     inkscape:window-width="1920"
     inkscape:window-height="1150"
     id="namedview4792"
     showgrid="true"
     inkscape:zoom="55.625734"
     inkscape:cx="9.8016381"
     inkscape:cy="12.114534"
     inkscape:window-x="0"
     inkscape:window-y="0"
     inkscape:window-maximized="1"
     inkscape:current-layer="g3847"
     inkscape:snap-global="true">
    <inkscape:grid
       type="xygrid"
       id="grid4131"
       empspacing="4"
       visible="true"
       enabled="true"
       snapvisiblegridlinesonly="true" />
  </sodipodi:namedview>
  <defs
     id="defs4" />
  <metadata
     id="metadata7">
    <rdf:RDF>
      <cc:Work
         rdf:about="">
        <dc:format>image/svg+xml</dc:format>
        <dc:type
           rdf:resource="http://purl.org/dc/dcmitype/StillImage" />
        <dc:title />
      </cc:Work>
    </rdf:RDF>
  </metadata>
  <g
     transform="translate(0,-1028.3622)"
     id="layer1">
    <g
       id="g3847"
       transform="matrix(0.70710678,0.70710678,-0.70710678,0.70710678,740.06138,298.15869)">
      <path
         id="path3769-0"
         d="M 10.54134,1028.8619 C 7.2276315,1028.8619 4.5413396,1031.5482 4.5413395,1034.8619 4.5413396,1038.1756 7.2276315,1040.8619 10.54134,1040.8619 13.855048,1040.8619 16.54134,1038.1756 16.541341,1034.8619 16.54134,1031.5482 13.855048,1028.8619 10.54134,1028.8619 z M 10.54134,1030.8619 C 11.645909,1030.8619 12.54134,1031.7573 12.54134,1032.8619 12.54134,1033.9664 11.645909,1034.8619 10.54134,1034.8619 9.4367705,1034.8619 8.5413395,1033.9664 8.5413395,1032.8619 8.5413395,1031.7573 9.4367705,1030.8619 10.54134,1030.8619 z"
         style="fill:#f39c12;fill-opacity:1;fill-rule:nonzero;stroke:none"
         inkscape:connector-curvature="0" />
      <path
         id="path3769"
         transform="translate(0,1028.3622)"
         d="M 10,0 C 6.6862915,0 4,2.6862915 4,6 4,9.3137085 6.6862915,12 10,12 13.313708,12 16,9.3137085 16,6 16,2.6862915 13.313708,0 10,0 z M 10,2 C 11.104569,2 12,2.8954305 12,4 12,5.1045695 11.104569,6 10,6 8.8954305,6 8,5.1045695 8,4 8,2.8954305 8.8954305,2 10,2 z"
         style="fill:#f1c40f;fill-opacity:1;fill-rule:nonzero;stroke:none"
         inkscape:connector-curvature="0" />
      <rect
         y="1039.3622"
         x="7"
         height="2"
         width="6"
         id="rect3774"
         style="fill:#f1c40f;fill-opacity:1;fill-rule:nonzero;stroke:none" />
      <path
         transform="translate(0,1028.3622)"
         inkscape:connector-curvature="0"
         id="path3776"
         d="M 8,13 8,22 10,24 12,22 12,21 10,20 12,19 12,18 11,17 12,16 12,13 z"
         style="fill:#f1c40f;fill-opacity:1;stroke:none" />
      <path
         inkscape:connector-curvature="0"
         id="path3776-8"
         d="M 11,1041.3622 11,1045.3622 12,1044.3622 12,1041.3622 11,1041.3622 z M 11,1045.3622 11,1047.8622 12,1047.3622 12,1046.3622 11,1045.3622 z M 11,1048.8622 11,1051.3622 12,1050.3622 12,1049.3622 11,1048.8622 z"
         style="fill:#f39c12;fill-opacity:1;stroke:none" />
      <path
         inkscape:connector-curvature="0"
         id="path3776-6"
         d="M 9,1041.3622 9,1051.3622 10,1052.3622 10,1048.3622 10,1041.3622 9,1041.3622 z"
         style="fill:#f39c12;fill-opacity:1;stroke:none" />
    </g>
  </g>
</svg>
