<?xml version="1.0" encoding="UTF-8" standalone="no"?>
<!-- Created with Inkscape (http://www.inkscape.org/) -->

<svg
   xmlns:dc="http://purl.org/dc/elements/1.1/"
   xmlns:cc="http://creativecommons.org/ns#"
   xmlns:rdf="http://www.w3.org/1999/02/22-rdf-syntax-ns#"
   xmlns:svg="http://www.w3.org/2000/svg"
   xmlns="http://www.w3.org/2000/svg"
   xmlns:sodipodi="http://sodipodi.sourceforge.net/DTD/sodipodi-0.dtd"
   xmlns:inkscape="http://www.inkscape.org/namespaces/inkscape"
   version="1.1"
   width="24"
   height="24"
   id="svg2"
   inkscape:version="0.48.3.1 r9886"
   sodipodi:docname="keyring.svg">
  <sodipodi:namedview
     pagecolor="#ffffff"
     bordercolor="#666666"
     borderopacity="1"
     objecttolerance="10"
     gridtolerance="10"
     guidetolerance="10"
     inkscape:pageopacity="0"
     inkscape:pageshadow="2"
     inkscape:window-width="1920"
     inkscape:window-height="1150"
     id="namedview4792"
     showgrid="true"
     inkscape:zoom="9.8333338"
     inkscape:cx="28.725465"
     inkscape:cy="1.1516404"
     inkscape:window-x="0"
     inkscape:window-y="0"
     inkscape:window-maximized="1"
     inkscape:current-layer="g3847"
     inkscape:snap-global="true">
    <inkscape:grid
       type="xygrid"
       id="grid4131"
       empspacing="4"
       visible="true"
       enabled="true"
       snapvisiblegridlinesonly="true" />
  </sodipodi:namedview>
  <defs
     id="defs4" />
  <metadata
     id="metadata7">
    <rdf:RDF>
      <cc:Work
         rdf:about="">
        <dc:format>image/svg+xml</dc:format>
        <dc:type
           rdf:resource="http://purl.org/dc/dcmitype/StillImage" />
        <dc:title />
      </cc:Work>
    </rdf:RDF>
  </metadata>
  <g
     transform="translate(0,-1028.3622)"
     id="layer1">
    <g
       id="g3847"
       transform="matrix(0.70710678,0.70710678,-0.70710678,0.70710678,740.06138,298.15869)">
      <g
         id="g3173"
         transform="translate(-8.0162564,10.970001)">
        <path
           style="fill:#95a5a6;fill-opacity:1;fill-rule:nonzero;stroke:none"
           d="M 19.076913,1026.8966 C 19.430466,1027.2501 19.78402,1027.6037 20.137573,1027.9572 21.551786,1026.543 22.966,1025.1288 24.380214,1023.7146 24.02666,1023.361 23.673107,1023.0075 23.319553,1022.6539 21.90534,1024.0681 20.491126,1025.4823 19.076913,1026.8966 z M 23.673107,1024.4217 C 22.612447,1025.2466 21.551786,1026.0716 20.491126,1026.8966 22.730298,1029.1357 24.969469,1031.3749 27.208641,1033.6141 28.15145,1033.6141 29.094258,1033.6141 30.037068,1033.6141 30.037068,1032.6713 30.037068,1031.7285 30.037068,1030.7856 29.801366,1030.5499 29.565663,1030.3142 29.329961,1030.0785 28.622854,1030.3142 27.915747,1030.5499 27.208641,1030.7856 27.444343,1030.0785 27.680045,1029.3714 27.915747,1028.6643 27.680045,1028.4286 27.444343,1028.1929 27.208641,1027.9572 26.737237,1027.9572 26.265831,1027.9572 25.794427,1027.9572 25.794427,1027.4858 25.794427,1027.0144 25.794427,1026.543 25.08732,1025.8359 24.380214,1025.1288 23.673107,1024.4217 z"
           id="path3769-9-2"
           inkscape:connector-curvature="0" />
        <path
           style="fill:#7f8c8d;fill-opacity:1;stroke:none"
           d="M 22.966,1025.1288 25.794428,1027.9572 25.794428,1026.543 23.673107,1024.4217 22.966,1025.1288 z M 25.794428,1027.9572 27.562195,1029.725 27.915749,1028.6643 27.208642,1027.9572 25.794428,1027.9572 z M 28.269301,1030.4321 30.037068,1032.1998 30.037068,1030.7856 29.329961,1030.0785 28.269301,1030.4321 z"
           id="path3776-8-4-2"
           inkscape:connector-curvature="0" />
        <path
           style="fill:#7f8c8d;fill-opacity:1;stroke:none"
           d="M 21.551787,1026.543 28.622855,1033.6141 30.037068,1033.6141 27.208641,1030.7856 22.258894,1025.8359 21.551787,1026.543 z"
           id="path3776-6-1-3"
           inkscape:connector-curvature="0" />
      </g>
      <g
         id="g3998"
         transform="matrix(0.92992548,0.36774801,-0.36774801,0.92992548,351.28136,91.205171)">
        <path
           id="path3769-9-2-1"
           transform="matrix(0.70710678,-0.70710678,0.70710678,0.70710678,-6.9705667,1039.6343)"
           d="M 52.03125,-8 C 50.374447,-8.0000516 48.835861,-7.3358756 47.75,-6.25 46.664245,-5.1642305 46.000046,-3.6568466 46,-2 46.000018,0.21415612 47.218968,2.1512518 49,3.1875 L 49,5 54,5 55,5 55,3.1875 C 56.796472,2.1469617 58.000018,0.22079706 58,-2 58.000043,-5.3137421 55.344996,-8.0000389 52.03125,-8 z M 54,5 50,5.03125 50,14 52.03125,16 54,14 54,13 52,12 54,11 54,10 53.03125,9 54,8 54,5 z M 52.03125,-6 C 53.135855,-6.0000368 53.999951,-5.1358003 54,-4.03125 53.999978,-2.9266297 53.104605,-2.0000368 52,-2 50.895466,-2.0000332 49.999979,-2.8953783 50,-4 49.999975,-4.5522751 50.231838,-5.0443676 50.59375,-5.40625 50.955718,-5.7682887 51.478983,-6.000017 52.03125,-6 z"
           style="fill:#bdc3c7;fill-opacity:1;fill-rule:nonzero;stroke:none"
           inkscape:connector-curvature="0" />
        <path
           id="path3776-8-4-2-2"
           transform="matrix(0.70710678,-0.70710678,0.70710678,0.70710678,-6.9705667,1039.6343)"
           d="M 51,5 51,15 52,16 52,12 52,5 51,5 z M 53,5 53,9 54,8 54,5 53,5 z M 53,9 53,11.5 54,11 54,10 53,9 z M 53,12.5 53,15 54,14 54,13 53,12.5 z"
           style="fill:#95a5a6;fill-opacity:1;stroke:none"
           inkscape:connector-curvature="0" />
      </g>
      <path
         style="fill:#7f8c8d;fill-opacity:1;fill-rule:nonzero;stroke:none"
         d="M 7.1715689,1025.4921 C 5.6094718,1027.0542 5.6094718,1029.5869 7.1715689,1031.149 8.7336661,1032.7111 11.266326,1032.7111 12.828423,1031.149 14.39052,1029.5869 14.39052,1027.0542 12.828423,1025.4921 11.266326,1023.93 8.7336661,1023.93 7.1715689,1025.4921 z M 8.5857825,1026.9064 C 9.3668307,1026.1253 10.633163,1026.1253 11.41421,1026.9064 12.195256,1027.6874 12.195258,1028.9537 11.41421,1029.7348 10.633161,1030.5158 9.3668287,1030.5158 8.5857825,1029.7348 7.8047363,1028.9537 7.8047343,1027.6874 8.5857825,1026.9064 z"
         id="path3024"
         inkscape:connector-curvature="0" />
      <path
         id="path3769-0"
         d="M 9.1271225,1027.4477 C 5.8134145,1027.4477 3.1271225,1030.134 3.1271225,1033.4477 3.1271225,1036.7614 5.8134145,1039.4477 9.1271225,1039.4477 12.440831,1039.4477 15.127123,1036.7614 15.127124,1033.4477 15.127123,1030.134 12.440831,1027.4477 9.1271225,1027.4477 z M 9.1271225,1029.4477 C 10.231692,1029.4477 11.127123,1030.3431 11.127123,1031.4477 11.127123,1032.5522 10.231692,1033.4477 9.1271225,1033.4477 8.0225535,1033.4477 7.1271225,1032.5522 7.1271225,1031.4477 7.1271225,1030.3431 8.0225535,1029.4477 9.1271225,1029.4477 z"
         style="fill:#f39c12;fill-opacity:1;fill-rule:nonzero;stroke:none"
         inkscape:connector-curvature="0" />
      <path
         id="path3769"
         d="M 8.5857825,1026.948 C 5.2720745,1026.948 2.5857825,1029.6343 2.5857825,1032.948 2.5857825,1036.2617 5.2720745,1038.948 8.5857825,1038.948 11.899491,1038.948 14.585783,1036.2617 14.585783,1032.948 14.585783,1029.6343 11.899491,1026.948 8.5857825,1026.948 z M 8.5857825,1028.948 C 9.6903518,1028.948 10.585783,1029.8434 10.585783,1030.948 10.585783,1032.0526 9.6903518,1032.948 8.5857825,1032.948 7.4812135,1032.948 6.5857825,1032.0526 6.5857825,1030.948 6.5857825,1029.8434 7.4812135,1028.948 8.5857825,1028.948 z"
         style="fill:#f1c40f;fill-opacity:1;fill-rule:nonzero;stroke:none"
         inkscape:connector-curvature="0" />
      <rect
         y="1037.948"
         x="5.585783"
         height="2"
         width="6"
         id="rect3774"
         style="fill:#f1c40f;fill-opacity:1;fill-rule:nonzero;stroke:none" />
      <path
         inkscape:connector-curvature="0"
         id="path3776"
         d="M 6.5857825,1039.948 6.5857825,1048.948 8.5857825,1050.948 10.585783,1048.948 10.585783,1047.948 8.5857825,1046.948 10.585783,1045.948 10.585783,1044.948 9.5857828,1043.948 10.585783,1042.948 10.585783,1039.948 z"
         style="fill:#f1c40f;fill-opacity:1;stroke:none" />
      <path
         inkscape:connector-curvature="0"
         id="path3776-8"
         d="M 9.5857828,1039.948 9.5857828,1043.948 10.585783,1042.948 10.585783,1039.948 9.5857828,1039.948 z M 9.5857828,1043.948 9.5857828,1046.448 10.585783,1045.948 10.585783,1044.948 9.5857828,1043.948 z M 9.5857828,1047.448 9.5857828,1049.948 10.585783,1048.948 10.585783,1047.948 9.5857828,1047.448 z"
         style="fill:#f39c12;fill-opacity:1;stroke:none" />
      <path
         inkscape:connector-curvature="0"
         id="path3776-6"
         d="M 7.5857825,1039.948 7.5857825,1049.948 8.5857825,1050.948 8.5857825,1046.948 8.5857825,1039.948 7.5857825,1039.948 z"
         style="fill:#f39c12;fill-opacity:1;stroke:none" />
      <path
         style="fill:#7f8c8d;fill-opacity:1;fill-rule:nonzero;stroke:none"
         d="M 20 0 C 17.790859 2.1213204e-06 16.000002 1.7908591 16 4 C 15.999999 4.8854473 16.29423 5.712326 16.78125 6.375 L 18.3125 5.0625 C 18.119822 4.7550617 18.000011 4.3895766 18 4 C 18.000038 2.895396 18.895465 1.9999661 20 2 C 20.511356 1.999983 20.958884 2.2155463 21.3125 2.53125 L 22.875 1.21875 C 22.147635 0.46584503 21.129546 -7.2309511e-07 20 0 z "
         transform="matrix(0.70710678,-0.70710678,0.70710678,0.70710678,-6.9705667,1039.6343)"
         id="path3024-0" />
      <path
         style="fill:#95a5a6;fill-opacity:1;fill-rule:nonzero;stroke:none"
         d="M 7.1715689,1025.4921 C 5.6094718,1027.0542 5.6094718,1029.5869 7.1715689,1031.149 7.7976748,1031.7751 8.590419,1032.1516 9.4033747,1032.2759 L 9.4475689,1031.7898 C 9.1434762,1031.6168 8.8435908,1031.4068 8.5857825,1031.149 7.0236854,1029.5869 7.0236854,1027.0542 8.5857825,1025.4921 9.0132694,1025.0647 9.5119514,1024.7576 10.04419,1024.5641 L 10.066287,1024.321 C 9.0195786,1024.3029 7.9702786,1024.6934 7.1715689,1025.4921 z"
         id="path3024-0-9"
         inkscape:connector-curvature="0" />
    </g>
  </g>
</svg>
