<?xml version="1.0" encoding="UTF-8" standalone="no"?>
<!-- Created with Inkscape (http://www.inkscape.org/) -->

<svg
   xmlns:dc="http://purl.org/dc/elements/1.1/"
   xmlns:cc="http://creativecommons.org/ns#"
   xmlns:rdf="http://www.w3.org/1999/02/22-rdf-syntax-ns#"
   xmlns:svg="http://www.w3.org/2000/svg"
   xmlns="http://www.w3.org/2000/svg"
   xmlns:sodipodi="http://sodipodi.sourceforge.net/DTD/sodipodi-0.dtd"
   xmlns:inkscape="http://www.inkscape.org/namespaces/inkscape"
   version="1.1"
   width="24"
   height="24"
   id="svg2"
   inkscape:version="0.48.3.1 r9886"
   sodipodi:docname="keyring.svg">
  <sodipodi:namedview
     pagecolor="#ffffff"
     bordercolor="#666666"
     borderopacity="1"
     objecttolerance="10"
     gridtolerance="10"
     guidetolerance="10"
     inkscape:pageopacity="0"
     inkscape:pageshadow="2"
     inkscape:window-width="1920"
     inkscape:window-height="1150"
     id="namedview4792"
     showgrid="true"
     inkscape:zoom="13.906434"
     inkscape:cx="27.34654"
     inkscape:cy="33.208131"
     inkscape:window-x="0"
     inkscape:window-y="0"
     inkscape:window-maximized="1"
     inkscape:current-layer="g3847"
     inkscape:snap-global="true">
    <inkscape:grid
       type="xygrid"
       id="grid4131"
       empspacing="4"
       visible="true"
       enabled="true"
       snapvisiblegridlinesonly="true" />
  </sodipodi:namedview>
  <defs
     id="defs4" />
  <metadata
     id="metadata7">
    <rdf:RDF>
      <cc:Work
         rdf:about="">
        <dc:format>image/svg+xml</dc:format>
        <dc:type
           rdf:resource="http://purl.org/dc/dcmitype/StillImage" />
        <dc:title />
      </cc:Work>
    </rdf:RDF>
  </metadata>
  <g
     transform="translate(0,-1028.3622)"
     id="layer1">
    <g
       id="g3847"
       transform="matrix(0.70710678,0.70710678,-0.70710678,0.70710678,740.06138,298.15869)">
      <g
         id="g3055"
         transform="matrix(0.71939513,-0.69460107,0.69460107,0.71939513,-692.0008,314.62533)">
        <rect
           style="fill:#95a5a6;fill-opacity:1;fill-rule:nonzero;stroke:none"
           id="rect3774-6"
           width="6"
           height="2"
           x="4.4405761"
           y="1008.0731" />
        <path
           style="fill:#95a5a6;fill-opacity:1;stroke:none"
           d="M 5.4405744,1010.0731 5.4405744,1019.0731 7.4405754,1021.0731 9.4405754,1019.0731 9.4405754,1018.0731 7.4405744,1017.0731 9.4405754,1016.0731 9.4405754,1015.0731 8.4405754,1014.0731 9.4405754,1013.0731 9.4405754,1010.0731 z"
           id="path3776-3"
           inkscape:connector-curvature="0" />
        <path
           style="fill:#7f8c8d;fill-opacity:1;stroke:none"
           d="M 8.4405754,1010.0731 8.4405754,1014.0731 9.4405754,1013.0731 9.4405754,1010.0731 8.4405754,1010.0731 z M 8.4405754,1014.0731 8.4405754,1016.5731 9.4405754,1016.0731 9.4405754,1015.0731 8.4405754,1014.0731 z M 8.4405754,1017.5731 8.4405754,1020.0731 9.4405754,1019.0731 9.4405754,1018.0731 8.4405754,1017.5731 z"
           id="path3776-8-9"
           inkscape:connector-curvature="0" />
        <path
           style="fill:#7f8c8d;fill-opacity:1;stroke:none"
           d="M 6.4405744,1010.0731 6.4405744,1020.0731 7.4405754,1021.0731 7.4405744,1017.0731 7.4405744,1010.0731 6.4405744,1010.0731 z"
           id="path3776-6-9"
           inkscape:connector-curvature="0" />
      </g>
      <path
         style="fill:#7f8c8d;fill-opacity:1;fill-rule:nonzero;stroke:none"
         d="M 7.1715689,1025.4921 C 5.6094718,1027.0542 5.6094718,1029.5869 7.1715689,1031.149 8.7336661,1032.7111 11.266326,1032.7111 12.828423,1031.149 14.39052,1029.5869 14.39052,1027.0542 12.828423,1025.4921 11.266326,1023.93 8.7336661,1023.93 7.1715689,1025.4921 z M 8.5857825,1026.9064 C 9.3668307,1026.1253 10.633163,1026.1253 11.41421,1026.9064 12.195256,1027.6874 12.195258,1028.9537 11.41421,1029.7348 10.633161,1030.5158 9.3668287,1030.5158 8.5857825,1029.7348 7.8047363,1028.9537 7.8047343,1027.6874 8.5857825,1026.9064 z"
         id="path3024"
         inkscape:connector-curvature="0" />
      <path
         id="path3769-0-1"
         d="M 8.9981905,1027.9582 C 5.7973935,1028.8158 3.8979005,1032.1058 4.7555495,1035.3066 5.6131975,1038.5074 8.9032225,1040.4069 12.10402,1039.5493 15.304817,1038.6916 17.204309,1035.4016 16.346661,1032.2008 15.489012,1029 12.198987,1027.1005 8.9981905,1027.9582 z M 9.5158288,1029.89 C 10.58276,1029.6041 11.679427,1030.2373 11.965319,1031.3042 12.251185,1032.3711 11.618036,1033.4678 10.551106,1033.7537 9.4841728,1034.0396 8.3874795,1033.4064 8.1016145,1032.3395 7.8157225,1031.2725 8.4488965,1030.1759 9.5158288,1029.89 z"
         style="fill:#95a5a6;fill-opacity:1;fill-rule:nonzero;stroke:none"
         inkscape:connector-curvature="0" />
      <path
         id="path3769-07"
         d="M 8.3459645,1027.6156 C 5.1451675,1028.4732 3.2456745,1031.7633 4.1033235,1034.9641 4.9609725,1038.1648 8.2509965,1040.0643 11.451794,1039.2067 14.65259,1038.349 16.552083,1035.059 15.694434,1031.8582 14.836786,1028.6574 11.546761,1026.7579 8.3459645,1027.6156 z M 8.8636025,1029.5474 C 9.9305338,1029.2616 11.027201,1029.8947 11.313092,1030.9617 11.598984,1032.0286 10.96581,1033.1253 9.8988788,1033.4111 8.8319465,1033.697 7.7352795,1033.0639 7.4493895,1031.9969 7.1634975,1030.93 7.7966695,1029.8333 8.8636025,1029.5474 z"
         style="fill:#bdc3c7;fill-opacity:1;fill-rule:nonzero;stroke:none"
         inkscape:connector-curvature="0" />
      <rect
         y="1005.7607"
         x="-260.90491"
         height="2"
         width="6"
         id="rect3774-5"
         style="fill:#bdc3c7;fill-opacity:1;fill-rule:nonzero;stroke:none"
         transform="matrix(0.96592583,-0.25881905,0.25881905,0.96592583,0,0)" />
      <path
         inkscape:connector-curvature="0"
         id="path3776-9"
         d="M 9.7787608,1040.6903 12.108132,1049.3836 14.557622,1050.7978 15.971836,1048.3483 15.713016,1047.3824 13.522346,1046.9341 15.195379,1045.4505 14.93656,1044.4846 13.711814,1043.7775 14.418921,1042.5528 13.642464,1039.655 z"
         style="fill:#bdc3c7;fill-opacity:1;stroke:none" />
      <path
         inkscape:connector-curvature="0"
         id="path3776-8-0"
         d="M 12.676538,1039.9138 13.711814,1043.7775 14.418921,1042.5528 13.642464,1039.655 12.676538,1039.9138 z M 13.711814,1043.7775 14.358861,1046.1923 15.195379,1045.4505 14.93656,1044.4846 13.711814,1043.7775 z M 14.617681,1047.1582 15.264729,1049.5731 15.971836,1048.3483 15.713016,1047.3824 14.617681,1047.1582 z"
         style="fill:#95a5a6;fill-opacity:1;stroke:none" />
      <path
         inkscape:connector-curvature="0"
         id="path3776-6-5"
         d="M 10.744687,1040.4314 13.332876,1050.0907 14.557622,1050.7978 13.522346,1046.9341 11.710612,1040.1726 10.744687,1040.4314 z"
         style="fill:#95a5a6;fill-opacity:1;stroke:none" />
      <path
         id="path3769-0"
         d="M 9.1271225,1027.4477 C 5.8134145,1027.4477 3.1271225,1030.134 3.1271225,1033.4477 3.1271225,1036.7614 5.8134145,1039.4477 9.1271225,1039.4477 12.440831,1039.4477 15.127123,1036.7614 15.127124,1033.4477 15.127123,1030.134 12.440831,1027.4477 9.1271225,1027.4477 z M 9.1271225,1029.4477 C 10.231692,1029.4477 11.127123,1030.3431 11.127123,1031.4477 11.127123,1032.5522 10.231692,1033.4477 9.1271225,1033.4477 8.0225535,1033.4477 7.1271225,1032.5522 7.1271225,1031.4477 7.1271225,1030.3431 8.0225535,1029.4477 9.1271225,1029.4477 z"
         style="fill:#f39c12;fill-opacity:1;fill-rule:nonzero;stroke:none"
         inkscape:connector-curvature="0" />
      <path
         id="path3769"
         d="M 8.5857825,1026.948 C 5.2720745,1026.948 2.5857825,1029.6343 2.5857825,1032.948 2.5857825,1036.2617 5.2720745,1038.948 8.5857825,1038.948 11.899491,1038.948 14.585783,1036.2617 14.585783,1032.948 14.585783,1029.6343 11.899491,1026.948 8.5857825,1026.948 z M 8.5857825,1028.948 C 9.6903518,1028.948 10.585783,1029.8434 10.585783,1030.948 10.585783,1032.0526 9.6903518,1032.948 8.5857825,1032.948 7.4812135,1032.948 6.5857825,1032.0526 6.5857825,1030.948 6.5857825,1029.8434 7.4812135,1028.948 8.5857825,1028.948 z"
         style="fill:#f1c40f;fill-opacity:1;fill-rule:nonzero;stroke:none"
         inkscape:connector-curvature="0" />
      <rect
         y="1037.948"
         x="5.585783"
         height="2"
         width="6"
         id="rect3774"
         style="fill:#f1c40f;fill-opacity:1;fill-rule:nonzero;stroke:none" />
      <path
         inkscape:connector-curvature="0"
         id="path3776"
         d="M 6.5857825,1039.948 6.5857825,1048.948 8.5857825,1050.948 10.585783,1048.948 10.585783,1047.948 8.5857825,1046.948 10.585783,1045.948 10.585783,1044.948 9.5857828,1043.948 10.585783,1042.948 10.585783,1039.948 z"
         style="fill:#f1c40f;fill-opacity:1;stroke:none" />
      <path
         inkscape:connector-curvature="0"
         id="path3776-8"
         d="M 9.5857828,1039.948 9.5857828,1043.948 10.585783,1042.948 10.585783,1039.948 9.5857828,1039.948 z M 9.5857828,1043.948 9.5857828,1046.448 10.585783,1045.948 10.585783,1044.948 9.5857828,1043.948 z M 9.5857828,1047.448 9.5857828,1049.948 10.585783,1048.948 10.585783,1047.948 9.5857828,1047.448 z"
         style="fill:#f39c12;fill-opacity:1;stroke:none" />
      <path
         inkscape:connector-curvature="0"
         id="path3776-6"
         d="M 7.5857825,1039.948 7.5857825,1049.948 8.5857825,1050.948 8.5857825,1046.948 8.5857825,1039.948 7.5857825,1039.948 z"
         style="fill:#f39c12;fill-opacity:1;stroke:none" />
      <path
         style="fill:#7f8c8d;fill-opacity:1;fill-rule:nonzero;stroke:none"
         d="M 20 0 C 17.790859 2.1213204e-06 16.000002 1.7908591 16 4 C 15.999999 4.8854473 16.29423 5.712326 16.78125 6.375 L 18.3125 5.0625 C 18.119822 4.7550617 18.000011 4.3895766 18 4 C 18.000038 2.895396 18.895465 1.9999661 20 2 C 20.511356 1.999983 20.958884 2.2155463 21.3125 2.53125 L 22.875 1.21875 C 22.147635 0.46584503 21.129546 -7.2309511e-07 20 0 z "
         transform="matrix(0.70710678,-0.70710678,0.70710678,0.70710678,-6.9705667,1039.6343)"
         id="path3024-0" />
      <path
         style="fill:#95a5a6;fill-opacity:1;fill-rule:nonzero;stroke:none"
         d="M 7.1715689,1025.4921 C 5.6094718,1027.0542 5.6094718,1029.5869 7.1715689,1031.149 7.7976748,1031.7751 8.590419,1032.1516 9.4033747,1032.2759 L 9.4475689,1031.7898 C 9.1434762,1031.6168 8.8435908,1031.4068 8.5857825,1031.149 7.0236854,1029.5869 7.0236854,1027.0542 8.5857825,1025.4921 9.0132694,1025.0647 9.5119514,1024.7576 10.04419,1024.5641 L 10.066287,1024.321 C 9.0195786,1024.3029 7.9702786,1024.6934 7.1715689,1025.4921 z"
         id="path3024-0-9"
         inkscape:connector-curvature="0" />
    </g>
  </g>
</svg>
