<?xml version="1.0" encoding="UTF-8" standalone="no"?>
<!-- Created with Inkscape (http://www.inkscape.org/) -->

<svg
   xmlns:dc="http://purl.org/dc/elements/1.1/"
   xmlns:cc="http://creativecommons.org/ns#"
   xmlns:rdf="http://www.w3.org/1999/02/22-rdf-syntax-ns#"
   xmlns:svg="http://www.w3.org/2000/svg"
   xmlns="http://www.w3.org/2000/svg"
   xmlns:sodipodi="http://sodipodi.sourceforge.net/DTD/sodipodi-0.dtd"
   xmlns:inkscape="http://www.inkscape.org/namespaces/inkscape"
   width="24"
   height="24"
   id="svg2"
   version="1.1"
   inkscape:version="0.48.3.1 r9886"
   sodipodi:docname="lock.svg">
  <defs
     id="defs4" />
  <sodipodi:namedview
     id="base"
     pagecolor="#ffffff"
     bordercolor="#666666"
     borderopacity="1.0"
     inkscape:pageopacity="0.0"
     inkscape:pageshadow="2"
     inkscape:zoom="5.6568543"
     inkscape:cx="6.7154012"
     inkscape:cy="7.4691614"
     inkscape:document-units="px"
     inkscape:current-layer="layer1"
     showgrid="true"
     inkscape:window-width="1920"
     inkscape:window-height="1150"
     inkscape:window-x="0"
     inkscape:window-y="0"
     inkscape:window-maximized="1"
     inkscape:snap-global="true">
    <inkscape:grid
       type="xygrid"
       id="grid2985"
       empspacing="4"
       visible="true"
       enabled="true"
       snapvisiblegridlinesonly="true" />
  </sodipodi:namedview>
  <metadata
     id="metadata7">
    <rdf:RDF>
      <cc:Work
         rdf:about="">
        <dc:format>image/svg+xml</dc:format>
        <dc:type
           rdf:resource="http://purl.org/dc/dcmitype/StillImage" />
        <dc:title />
      </cc:Work>
    </rdf:RDF>
  </metadata>
  <g
     inkscape:label="Layer 1"
     inkscape:groupmode="layer"
     id="layer1"
     transform="translate(0,-1028.3622)">
    <path
       inkscape:connector-curvature="0"
       style="fill:#f1c40f;fill-opacity:1;fill-rule:nonzero;stroke:none"
       d="M 5,1037.3622 C 3.895431,1037.3622 3,1038.2576 3,1039.3622 L 3,1040.3622 3,1046.3622 3,1047.3622 C 3,1048.4668 3.895431,1049.3622 5,1049.3622 L 7,1049.3622 17,1049.3622 19,1049.3622 C 20.104569,1049.3622 21,1048.4668 21,1047.3622 L 21,1040.3622 21,1039.3622 C 21,1038.2576 20.104569,1037.3622 19,1037.3622 L 17,1037.3622 5,1037.3622 z"
       id="path4463-6-3-7-4" />
    <path
       style="fill:#f39c12;fill-opacity:1;fill-rule:nonzero;stroke:none"
       d="M 5,1040.3622 C 3.895431,1040.3622 3,1041.2576 3,1042.3622 L 3,1043.3622 3,1049.3622 3,1050.3622 C 3,1051.4668 3.895431,1052.3622 5,1052.3622 L 7,1052.3622 17,1052.3622 19,1052.3622 C 20.104569,1052.3622 21,1051.4668 21,1050.3622 L 21,1043.3622 21,1042.3622 C 21,1041.2576 20.104569,1040.3622 19,1040.3622 L 17,1040.3622 5,1040.3622 z"
       id="path4463-6-3-7"
       inkscape:connector-curvature="0" />
    <path
       style="fill:#bdc3c7;fill-opacity:1;fill-rule:nonzero;stroke:none"
       d="M 12,1029.3622 C 8.134007,1029.3622 5,1032.4962 5,1036.3622 L 8,1036.3622 C 8,1034.1531 9.790861,1032.3622 12,1032.3622 14.209139,1032.3622 16,1034.1531 16,1036.3622 L 19,1036.3622 C 19,1032.4962 15.865993,1029.3622 12,1029.3622 z"
       id="path3078"
       inkscape:connector-curvature="0" />
    <path
       style="fill:#e67e22;fill-opacity:1;fill-rule:nonzero;stroke:none"
       d="M 5 14 L 5 15 L 19 15 L 19 14 L 5 14 z M 5 16 L 5 17 L 19 17 L 19 16 L 5 16 z M 5 18 L 5 19 L 19 19 L 19 18 L 5 18 z M 5 20 L 5 21 L 19 21 L 19 20 L 5 20 z "
       transform="translate(0,1028.3622)"
       id="rect3314" />
    <path
       style="fill:#7f8c8d;fill-opacity:1;fill-rule:nonzero;stroke:none"
       d="M 5,1037.3622 5,1038.3622 C 5,1038.9145 5.6715729,1039.3622 6.5,1039.3622 7.3284271,1039.3622 8,1038.9145 8,1038.3622 L 8,1037.3622 C 8,1037.9145 7.3284271,1038.3622 6.5,1038.3622 5.6715729,1038.3622 5,1037.9145 5,1037.3622 z"
       id="path3117"
       inkscape:connector-curvature="0" />
    <path
       style="fill:#7f8c8d;fill-opacity:1;fill-rule:nonzero;stroke:none"
       d="M 16,1037.3622 16,1038.3622 C 16,1038.9145 16.671573,1039.3622 17.5,1039.3622 18.328427,1039.3622 19,1038.9145 19,1038.3622 L 19,1037.3622 C 19,1037.9145 18.328427,1038.3622 17.5,1038.3622 16.671573,1038.3622 16,1037.9145 16,1037.3622 z"
       id="path3117-1"
       inkscape:connector-curvature="0" />
    <path
       style="fill:#95a5a6;fill-opacity:1;fill-rule:nonzero;stroke:none"
       d="M 12 2.4375 C 11.648946 2.4375 11.300528 2.4713086 10.96875 2.53125 C 10.722424 2.575753 10.482431 2.6441169 10.25 2.71875 C 10.033276 2.7885736 9.827138 2.8748947 9.625 2.96875 C 9.519002 3.0179535 9.4140576 3.069595 9.3125 3.125 C 9.1806439 3.1968955 9.0611676 3.2931977 8.9375 3.375 C 8.8216502 3.4514604 8.7019 3.5091621 8.59375 3.59375 C 8.4530703 3.7035117 8.3139373 3.8149183 8.1875 3.9375 C 8.1505517 3.9736792 8.1294023 4.0252912 8.09375 4.0625 C 7.9253746 4.2368588 7.7625436 4.3980956 7.625 4.59375 C 7.4848313 4.7931385 7.3545993 5.0003181 7.25 5.21875 C 7.2459516 5.2272101 7.2539924 5.2415143 7.25 5.25 C 7.1389008 5.4858873 7.034147 5.7459063 6.96875 6 C 6.7158241 6.5844213 6.0264404 7 5.21875 7 C 5.1588127 7 5.1355513 7.0017944 5.09375 7 C 5.0832997 6.9995514 5.0770185 7.0014019 5.0625 7 L 5 8 L 5 9 L 5 10 L 8 10 L 8 9 L 8 8 C 8 7.7238625 8.0404664 7.4478877 8.09375 7.1875 C 8.466735 5.3647861 10.067003 4 12 4 C 14.209139 4 16 5.7909 16 8 L 16 9 L 16 10 L 19 10 L 19 9 L 19 8 L 18.9375 7 C 18.922981 7.0014 18.9167 6.999552 18.90625 7 L 18.78125 7 C 17.97356 7 17.284176 6.5844 17.03125 6 C 16.965853 5.7459063 16.861099 5.4858873 16.75 5.25 C 16.746008 5.2415143 16.754048 5.2272101 16.75 5.21875 C 16.645401 5.0003181 16.515169 4.7931385 16.375 4.59375 C 16.237456 4.3980956 16.074625 4.2368588 15.90625 4.0625 C 15.869525 4.0244696 15.850594 3.9744324 15.8125 3.9375 C 15.686063 3.8149183 15.54693 3.7035117 15.40625 3.59375 C 15.301652 3.5121399 15.174353 3.4489871 15.0625 3.375 C 14.939965 3.2941275 14.817978 3.1961824 14.6875 3.125 C 14.586701 3.0700388 14.480216 3.0176032 14.375 2.96875 C 14.172862 2.8748947 13.966724 2.7885736 13.75 2.71875 C 13.517569 2.6441172 13.277576 2.5757527 13.03125 2.53125 C 12.699472 2.471309 12.351054 2.4375 12 2.4375 z "
       transform="translate(0,1028.3622)"
       id="rect3112" />
  </g>
</svg>
