<?xml version="1.0" encoding="UTF-8" standalone="no"?>
<!-- Created with Inkscape (http://www.inkscape.org/) -->

<svg
   xmlns:dc="http://purl.org/dc/elements/1.1/"
   xmlns:cc="http://creativecommons.org/ns#"
   xmlns:rdf="http://www.w3.org/1999/02/22-rdf-syntax-ns#"
   xmlns:svg="http://www.w3.org/2000/svg"
   xmlns="http://www.w3.org/2000/svg"
   xmlns:sodipodi="http://sodipodi.sourceforge.net/DTD/sodipodi-0.dtd"
   xmlns:inkscape="http://www.inkscape.org/namespaces/inkscape"
   version="1.1"
   width="24"
   height="24"
   id="svg2"
   inkscape:version="0.48.3.1 r9886"
   sodipodi:docname="lock-open.svg">
  <sodipodi:namedview
     pagecolor="#ffffff"
     bordercolor="#666666"
     borderopacity="1"
     objecttolerance="10"
     gridtolerance="10"
     guidetolerance="10"
     inkscape:pageopacity="0"
     inkscape:pageshadow="2"
     inkscape:window-width="1920"
     inkscape:window-height="1150"
     id="namedview4163"
     showgrid="false"
     inkscape:zoom="9.8333333"
     inkscape:cx="12"
     inkscape:cy="12"
     inkscape:window-x="0"
     inkscape:window-y="0"
     inkscape:window-maximized="1"
     inkscape:current-layer="layer1" />
  <defs
     id="defs4" />
  <metadata
     id="metadata7">
    <rdf:RDF>
      <cc:Work
         rdf:about="">
        <dc:format>image/svg+xml</dc:format>
        <dc:type
           rdf:resource="http://purl.org/dc/dcmitype/StillImage" />
        <dc:title />
      </cc:Work>
    </rdf:RDF>
  </metadata>
  <g
     transform="translate(0,-1028.3622)"
     id="layer1">
    <path
       d="M 12,3 C 9.2385767,3 7,5.6863 7,9 L 7,10 C 7,10.5523 7.3835125,11 7.84375,11 8.3039875,11 8.65625,10.5523 8.65625,10 L 8.65625,9 C 8.65625,6.6528 10.159051,4.75 12,4.75 12.920475,4.75 13.740535,5.2309 14.34375,6 L 16.3125,6 C 15.446125,4.2152779 13.845287,3 12,3 z"
       inkscape:connector-curvature="0"
       transform="translate(0,1028.3622)"
       id="path3119-5-3"
       style="fill:#7f8c8d;fill-opacity:1;fill-rule:nonzero;stroke:none" />
    <path
       d="M 6,1037.3622 C 4.895431,1037.3622 4,1038.2576 4,1039.3622 L 4,1046.3622 C 4,1047.4668 4.895431,1048.3622 6,1048.3622 L 18,1048.3622 C 19.104569,1048.3622 20,1047.4668 20,1046.3622 L 20,1039.3622 C 20,1038.2576 19.104569,1037.3622 18,1037.3622 L 6,1037.3622 z"
       inkscape:connector-curvature="0"
       id="path4463-6"
       style="fill:#f1c40f;fill-opacity:1;fill-rule:nonzero;stroke:none" />
    <rect
       width="3.4354475"
       height="1"
       x="14.346828"
       y="1034.3622"
       id="rect3096"
       style="fill:#7f8c8d;fill-opacity:1;fill-rule:nonzero;stroke:none" />
    <path
       d="M 12,1.5625 C 8.686292,1.5625 6,4.2488 6,7.5625 L 6,8.5625 C 6,9.1148 6.447715,9.5625 7,9.5625 7.552285,9.5625 8,9.1148 8,8.5625 L 8,7.5625 C 8,5.2153 9.790861,3.3125 12,3.3125 13.69045,3.3125 15.133141,4.4251116 15.71875,6 L 17.78125,6 C 17.093598,3.4440883 14.773094,1.5625 12,1.5625 z"
       inkscape:connector-curvature="0"
       transform="translate(0,1028.3622)"
       id="path3119-5"
       style="fill:#bdc3c7;fill-opacity:1;fill-rule:nonzero;stroke:none" />
    <path
       d="M 6,1039.3622 C 4.895431,1039.3622 4,1040.2576 4,1041.3622 L 4,1048.3622 C 4,1049.4668 4.895431,1050.3622 6,1050.3622 L 18,1050.3622 C 19.104569,1050.3622 20,1049.4668 20,1048.3622 L 20,1041.3622 C 20,1040.2576 19.104569,1039.3622 18,1039.3622 L 6,1039.3622 z"
       inkscape:connector-curvature="0"
       id="path4463-6-3"
       style="fill:#f39c12;fill-opacity:1;fill-rule:nonzero;stroke:none" />
    <path
       d="M 6.3270357,1037.3622 C 5.9866947,1037.3622 5.6700907,1037.4623 5.3895357,1037.6122 5.6114987,1038.4749 6.3950547,1039.1122 7.3270357,1039.1122 8.3463257,1039.1122 9.1719707,1038.3479 9.2957857,1037.3622 L 6.3270357,1037.3622 z"
       inkscape:connector-curvature="0"
       id="path4463-6-8"
       style="fill:#7f8c8d;fill-opacity:1;fill-rule:nonzero;stroke:none" />
    <path
       d="M 17.791723,1037.3226 C 18.132064,1037.3226 18.448668,1037.4227 18.729223,1037.5726 18.50726,1038.4353 17.723704,1039.0726 16.791723,1039.0726 15.772433,1039.0726 14.946788,1038.3083 14.822973,1037.3226 L 17.791723,1037.3226 z"
       inkscape:connector-curvature="0"
       id="path4463-6-8-3"
       style="fill:#7f8c8d;fill-opacity:1;fill-rule:nonzero;stroke:none" />
    <path
       d="M 12,2 C 8.686292,2 6,4.6863 6,8 L 6,9 C 6,9.5523 6.447715,10 7,10 7.552285,10 8,9.5523 8,9 L 8,8 C 8,5.6528 9.790861,3.75 12,3.75 13.523502,3.75 14.824555,4.6684048 15.5,6 L 17.65625,6 C 16.833,3.668835 14.612997,2 12,2 z"
       inkscape:connector-curvature="0"
       transform="translate(0,1028.3622)"
       id="path3119"
       style="fill:#95a5a6;fill-opacity:1;fill-rule:nonzero;stroke:none" />
    <rect
       width="12"
       height="1"
       x="6"
       y="1041.3622"
       id="rect3136"
       style="fill:#e67e22;fill-opacity:1;fill-rule:nonzero;stroke:none" />
    <rect
       width="12"
       height="1"
       x="6"
       y="1043.3622"
       id="rect3136-6"
       style="fill:#e67e22;fill-opacity:1;fill-rule:nonzero;stroke:none" />
    <rect
       width="12"
       height="1"
       x="6"
       y="1045.3622"
       id="rect3136-3"
       style="fill:#e67e22;fill-opacity:1;fill-rule:nonzero;stroke:none" />
    <rect
       width="12"
       height="1"
       x="6"
       y="1047.3622"
       id="rect3136-61"
       style="fill:#e67e22;fill-opacity:1;fill-rule:nonzero;stroke:none" />
  </g>
</svg>
