<?xml version="1.0" encoding="UTF-8" standalone="no"?>
<!-- Created with Inkscape (http://www.inkscape.org/) -->

<svg
   xmlns:dc="http://purl.org/dc/elements/1.1/"
   xmlns:cc="http://creativecommons.org/ns#"
   xmlns:rdf="http://www.w3.org/1999/02/22-rdf-syntax-ns#"
   xmlns:svg="http://www.w3.org/2000/svg"
   xmlns="http://www.w3.org/2000/svg"
   xmlns:sodipodi="http://sodipodi.sourceforge.net/DTD/sodipodi-0.dtd"
   xmlns:inkscape="http://www.inkscape.org/namespaces/inkscape"
   width="24"
   height="24"
   id="svg2"
   version="1.1"
   inkscape:version="0.48.3.1 r9886"
   sodipodi:docname="lock.svg">
  <defs
     id="defs4" />
  <sodipodi:namedview
     id="base"
     pagecolor="#ffffff"
     bordercolor="#666666"
     borderopacity="1.0"
     inkscape:pageopacity="0.0"
     inkscape:pageshadow="2"
     inkscape:zoom="8"
     inkscape:cx="47.461962"
     inkscape:cy="44.573733"
     inkscape:document-units="px"
     inkscape:current-layer="layer1"
     showgrid="true"
     inkscape:window-width="1920"
     inkscape:window-height="1150"
     inkscape:window-x="0"
     inkscape:window-y="0"
     inkscape:window-maximized="1"
     inkscape:snap-global="true">
    <inkscape:grid
       type="xygrid"
       id="grid2985"
       empspacing="4"
       visible="true"
       enabled="true"
       snapvisiblegridlinesonly="true" />
  </sodipodi:namedview>
  <metadata
     id="metadata7">
    <rdf:RDF>
      <cc:Work
         rdf:about="">
        <dc:format>image/svg+xml</dc:format>
        <dc:type
           rdf:resource="http://purl.org/dc/dcmitype/StillImage" />
        <dc:title />
      </cc:Work>
    </rdf:RDF>
  </metadata>
  <g
     inkscape:label="Layer 1"
     inkscape:groupmode="layer"
     id="layer1"
     transform="translate(0,-1028.3622)">
    <path
       inkscape:connector-curvature="0"
       style="fill:#f1c40f;fill-opacity:1;fill-rule:nonzero;stroke:none"
       d="M 5,1037.3622 C 3.895431,1037.3622 3,1038.2576 3,1039.3622 L 3,1040.3622 3,1046.3622 3,1047.3622 C 3,1048.4668 3.895431,1049.3622 5,1049.3622 L 7,1049.3622 17,1049.3622 19,1049.3622 C 20.104569,1049.3622 21,1048.4668 21,1047.3622 L 21,1040.3622 21,1039.3622 C 21,1038.2576 20.104569,1037.3622 19,1037.3622 L 17,1037.3622 5,1037.3622 z"
       id="path4463-6-3-7-4" />
    <path
       style="fill:#f39c12;fill-opacity:1;fill-rule:nonzero;stroke:none"
       d="M 5,1040.3622 C 3.895431,1040.3622 3,1041.2576 3,1042.3622 L 3,1043.3622 3,1049.3622 3,1050.3622 C 3,1051.4668 3.895431,1052.3622 5,1052.3622 L 7,1052.3622 17,1052.3622 19,1052.3622 C 20.104569,1052.3622 21,1051.4668 21,1050.3622 L 21,1043.3622 21,1042.3622 C 21,1041.2576 20.104569,1040.3622 19,1040.3622 L 17,1040.3622 5,1040.3622 z"
       id="path4463-6-3-7"
       inkscape:connector-curvature="0" />
    <rect
       style="fill:#95a5a6;fill-opacity:1;fill-rule:nonzero;stroke:none"
       id="rect3112"
       width="3"
       height="1"
       x="5"
       y="1037.3622" />
    <path
       style="fill:#bdc3c7;fill-opacity:1;fill-rule:nonzero;stroke:none"
       d="M 12,1029.3622 C 8.134007,1029.3622 5,1032.4962 5,1036.3622 L 8,1036.3622 C 8,1034.1531 9.790861,1032.3622 12,1032.3622 14.209139,1032.3622 16,1034.1531 16,1036.3622 L 19,1036.3622 C 19,1032.4962 15.865993,1029.3622 12,1029.3622 z"
       id="path3078"
       inkscape:connector-curvature="0" />
    <path
       style="fill:#95a5a6;fill-opacity:1;fill-rule:nonzero;stroke:none"
       d="M 12 2.4375 C 9.5532368 2.4375 7.4919878 3.9670108 6.96875 6 C 6.7158241 6.5844213 6.0264404 7 5.21875 7 C 5.1438284 7 5.1350927 7.0070093 5.0625 7 L 5 8 L 5 9 L 8 9 L 8 8 C 8 5.7909 9.790861 4 12 4 C 14.209139 4 16 5.7909 16 8 L 19 8 C 19 7.6588 18.953415 7.3281 18.90625 7 L 17.15625 7 C 17.15625 4.4753 14.840322 2.4375 12 2.4375 z "
       transform="translate(0,1028.3622)"
       id="rect3140" />
    <rect
       style="fill:#95a5a6;fill-opacity:1;fill-rule:nonzero;stroke:none"
       id="rect3142"
       width="3"
       height="1"
       x="16"
       y="8"
       transform="translate(0,1028.3622)" />
    <rect
       style="fill:#e67e22;fill-opacity:1;fill-rule:nonzero;stroke:none"
       id="rect3314"
       width="14"
       height="1"
       x="5"
       y="1042.3622" />
    <rect
       style="fill:#e67e22;fill-opacity:1;fill-rule:nonzero;stroke:none"
       id="rect3314-0"
       width="14"
       height="1"
       x="5"
       y="1044.3622" />
    <rect
       style="fill:#e67e22;fill-opacity:1;fill-rule:nonzero;stroke:none"
       id="rect3314-0-2"
       width="14"
       height="1"
       x="5"
       y="1046.3622" />
    <rect
       style="fill:#e67e22;fill-opacity:1;fill-rule:nonzero;stroke:none"
       id="rect3314-0-0"
       width="14"
       height="1"
       x="5"
       y="1048.3622" />
    <path
       style="fill:#7f8c8d;fill-opacity:1;fill-rule:nonzero;stroke:none"
       d="M 5,1037.3622 5,1038.3622 C 5,1038.9145 5.6715729,1039.3622 6.5,1039.3622 7.3284271,1039.3622 8,1038.9145 8,1038.3622 L 8,1037.3622 C 8,1037.9145 7.3284271,1038.3622 6.5,1038.3622 5.6715729,1038.3622 5,1037.9145 5,1037.3622 z"
       id="path3117"
       inkscape:connector-curvature="0" />
    <path
       style="fill:#95a5a6;fill-opacity:1;fill-rule:nonzero;stroke:none"
       d="M 12 2.4375 C 9.1596781 2.4375 6.84375 4.4753 6.84375 7 L 5.09375 7 C 5.046585 7.3281 5 7.6588 5 8 L 8 8 C 8 5.7909 9.7908607 4 12 4 C 14.209139 4 16 5.7909 16 8 L 16 9 L 16 10 L 19 10 L 19 9 L 19 8 L 18.9375 7 C 18.864907 7.007 18.856172 7 18.78125 7 C 17.97356 7 17.284176 6.5844 17.03125 6 C 16.508012 3.967 14.446763 2.4375 12 2.4375 z "
       id="rect3110"
       transform="translate(0,1028.3622)" />
    <path
       style="fill:#7f8c8d;fill-opacity:1;fill-rule:nonzero;stroke:none"
       d="M 16,1037.3622 16,1038.3622 C 16,1038.9145 16.671573,1039.3622 17.5,1039.3622 18.328427,1039.3622 19,1038.9145 19,1038.3622 L 19,1037.3622 C 19,1037.9145 18.328427,1038.3622 17.5,1038.3622 16.671573,1038.3622 16,1037.9145 16,1037.3622 z"
       id="path3117-1"
       inkscape:connector-curvature="0" />
  </g>
</svg>
