<?xml version="1.0" encoding="UTF-8" standalone="no"?>
<!-- Created with Inkscape (http://www.inkscape.org/) -->

<svg
   xmlns:dc="http://purl.org/dc/elements/1.1/"
   xmlns:cc="http://creativecommons.org/ns#"
   xmlns:rdf="http://www.w3.org/1999/02/22-rdf-syntax-ns#"
   xmlns:svg="http://www.w3.org/2000/svg"
   xmlns="http://www.w3.org/2000/svg"
   xmlns:sodipodi="http://sodipodi.sourceforge.net/DTD/sodipodi-0.dtd"
   xmlns:inkscape="http://www.inkscape.org/namespaces/inkscape"
   width="24"
   height="24"
   id="svg2"
   version="1.1"
   inkscape:version="0.48.3.1 r9886"
   sodipodi:docname="map-marker.svg">
  <defs
     id="defs4" />
  <sodipodi:namedview
     id="base"
     pagecolor="#ffffff"
     bordercolor="#666666"
     borderopacity="1.0"
     inkscape:pageopacity="0.0"
     inkscape:pageshadow="2"
     inkscape:zoom="11.313709"
     inkscape:cx="-3.1759797"
     inkscape:cy="10.997857"
     inkscape:document-units="px"
     inkscape:current-layer="layer1"
     showgrid="true"
     inkscape:window-width="1920"
     inkscape:window-height="1150"
     inkscape:window-x="0"
     inkscape:window-y="0"
     inkscape:window-maximized="1"
     inkscape:snap-bbox="true"
     inkscape:snap-global="true">
    <inkscape:grid
       type="xygrid"
       id="grid2985"
       empspacing="4"
       visible="true"
       enabled="true"
       snapvisiblegridlinesonly="true" />
  </sodipodi:namedview>
  <metadata
     id="metadata7">
    <rdf:RDF>
      <cc:Work
         rdf:about="">
        <dc:format>image/svg+xml</dc:format>
        <dc:type
           rdf:resource="http://purl.org/dc/dcmitype/StillImage" />
        <dc:title />
      </cc:Work>
    </rdf:RDF>
  </metadata>
  <g
     inkscape:label="Layer 1"
     inkscape:groupmode="layer"
     id="layer1"
     transform="translate(0,-1028.3622)">
    <path
       style="fill:#e74c3c;fill-opacity:1;fill-rule:nonzero;stroke:none"
       d="M 12 0 C 7.5817219 2.3684758e-15 4 3.5817219 4 8 C 4 9.4210015 4.3815985 10.749639 5.03125 11.90625 C 5.1390768 12.09822 5.2522099 12.286997 5.375 12.46875 L 12 24 L 18.625 12.46875 C 18.726814 12.318045 18.814674 12.157779 18.90625 12 L 18.96875 11.90625 C 19.618402 10.749639 20 9.4210015 20 8 C 20 3.5817219 16.418278 -1.8947807e-15 12 0 z "
       transform="translate(0,1028.3622)"
       id="path2990" />
    <path
       sodipodi:type="arc"
       style="fill:#c0392b;fill-opacity:1;fill-rule:nonzero;stroke:none"
       id="path2997"
       sodipodi:cx="12"
       sodipodi:cy="8"
       sodipodi:rx="4"
       sodipodi:ry="4"
       d="M 16,8 C 16,10.209139 14.209139,12 12,12 9.790861,12 8,10.209139 8,8 8,5.790861 9.790861,4 12,4 14.209139,4 16,5.790861 16,8 z"
       transform="matrix(1.25,0,0,1.25,-3,1026.3622)" />
    <path
       sodipodi:type="arc"
       style="fill:#ecf0f1;fill-opacity:1;fill-rule:nonzero;stroke:none"
       id="path2997-7"
       sodipodi:cx="12"
       sodipodi:cy="8"
       sodipodi:rx="4"
       sodipodi:ry="4"
       d="M 16,8 C 16,10.209139 14.209139,12 12,12 9.790861,12 8,10.209139 8,8 8,5.790861 9.790861,4 12,4 14.209139,4 16,5.790861 16,8 z"
       transform="matrix(0.75,0,0,0.75,3,1030.3622)" />
  </g>
</svg>
