<?xml version="1.0" encoding="UTF-8" standalone="no"?>
<!-- Created with Inkscape (http://www.inkscape.org/) -->

<svg
   xmlns:dc="http://purl.org/dc/elements/1.1/"
   xmlns:cc="http://creativecommons.org/ns#"
   xmlns:rdf="http://www.w3.org/1999/02/22-rdf-syntax-ns#"
   xmlns:svg="http://www.w3.org/2000/svg"
   xmlns="http://www.w3.org/2000/svg"
   xmlns:sodipodi="http://sodipodi.sourceforge.net/DTD/sodipodi-0.dtd"
   xmlns:inkscape="http://www.inkscape.org/namespaces/inkscape"
   version="1.1"
   width="24"
   height="24"
   id="svg2"
   inkscape:version="0.48.3.1 r9886"
   sodipodi:docname="map-map-marker.svg">
  <sodipodi:namedview
     pagecolor="#ffffff"
     bordercolor="#666666"
     borderopacity="1"
     objecttolerance="10"
     gridtolerance="10"
     guidetolerance="10"
     inkscape:pageopacity="0"
     inkscape:pageshadow="2"
     inkscape:window-width="1920"
     inkscape:window-height="1150"
     id="namedview4459"
     showgrid="true"
     inkscape:zoom="16"
     inkscape:cx="24.861546"
     inkscape:cy="20.517787"
     inkscape:window-x="0"
     inkscape:window-y="0"
     inkscape:window-maximized="1"
     inkscape:current-layer="layer1"
     inkscape:snap-global="true"
     showguides="true"
     inkscape:guide-bbox="true">
    <inkscape:grid
       type="xygrid"
       id="grid4145"
       empspacing="4"
       visible="true"
       enabled="true"
       snapvisiblegridlinesonly="true" />
  </sodipodi:namedview>
  <defs
     id="defs4" />
  <metadata
     id="metadata7">
    <rdf:RDF>
      <cc:Work
         rdf:about="">
        <dc:format>image/svg+xml</dc:format>
        <dc:type
           rdf:resource="http://purl.org/dc/dcmitype/StillImage" />
        <dc:title />
      </cc:Work>
    </rdf:RDF>
  </metadata>
  <g
     transform="translate(0,-1028.3622)"
     id="layer1">
    <path
       style="fill:#ecf0f1;fill-opacity:1;fill-rule:nonzero;stroke:none"
       d="M 8,1030.3622 16,1031.3622 16,1050.3622 8,1049.3622 z"
       id="rect3052"
       inkscape:connector-curvature="0"
       sodipodi:nodetypes="ccccc" />
    <path
       style="fill:#bdc3c7;fill-opacity:1;fill-rule:nonzero;stroke:none"
       d="M 2,1031.3622 8,1030.3622 8,1049.3622 2,1050.3622 z"
       id="rect3054"
       inkscape:connector-curvature="0"
       sodipodi:nodetypes="ccccc" />
    <path
       style="fill:#bdc3c7;fill-opacity:1;fill-rule:nonzero;stroke:none"
       d="M 16,1031.3622 22,1030.3622 22,1049.3622 16,1050.3622 z"
       id="rect3054-5"
       inkscape:connector-curvature="0"
       sodipodi:nodetypes="ccccc" />
    <path
       style="fill:#27ae60;fill-opacity:1;fill-rule:nonzero;stroke:none"
       d="M 3,1032.3622 8,1031.3622 8,1048.3622 3,1049.3622 z"
       id="rect3054-1"
       inkscape:connector-curvature="0"
       sodipodi:nodetypes="ccccc" />
    <path
       style="fill:#2ecc71;fill-opacity:1;fill-rule:nonzero;stroke:none"
       d="M 8,1031.3622 16,1032.3622 16,1049.3622 8,1048.3622 z"
       id="rect3052-5"
       inkscape:connector-curvature="0"
       sodipodi:nodetypes="ccccc" />
    <path
       style="fill:#c0392b;fill-opacity:1;fill-rule:nonzero;stroke:none"
       d="M 13 1 C 11.343146 1 10 2.3431689 10 4 C 10 5.6568311 11.343146 7 13 7 C 14.656854 7 16 5.6568311 16 4 C 16 2.3431689 14.656854 1 13 1 z M 13 3 C 13.552285 3 14 3.4477153 14 4 C 14 4.5522847 13.552285 5 13 5 C 12.447715 5 12 4.5522847 12 4 C 12 3.4477153 12.447715 3 13 3 z "
       id="path3006"
       transform="translate(0,1028.3622)" />
    <path
       style="fill:#27ae60;fill-opacity:1;fill-rule:nonzero;stroke:none"
       d="M 21,1048.3622 16,1049.3622 16,1032.3622 21,1031.3622 z"
       id="rect3054-1-3"
       inkscape:connector-curvature="0"
       sodipodi:nodetypes="ccccc" />
    <path
       style="fill:#f39c12;fill-opacity:1;fill-rule:nonzero;stroke:none"
       d="M 5.6874999,1031.8184 3.375,1032.2872 8,1037.1622 8,1034.2559 5.6874999,1031.8184 z"
       id="rect3054-1-8"
       inkscape:connector-curvature="0" />
    <path
       style="fill:#f39c12;fill-opacity:1;fill-rule:nonzero;stroke:none"
       d="M 21,1046.3622 16,1047.3622 16,1041.3622 21,1038.3622 z"
       id="rect3054-1-3-7-2"
       inkscape:connector-curvature="0"
       sodipodi:nodetypes="ccccc" />
    <path
       style="fill:#2980b9;fill-opacity:1;fill-rule:nonzero;stroke:none"
       d="M 21,1048.3622 16,1049.3622 16,1043.3622 21,1040.3622 z"
       id="rect3054-1-3-7"
       inkscape:connector-curvature="0"
       sodipodi:nodetypes="ccccc" />
    <path
       style="fill:#f1c40f;fill-opacity:1;fill-rule:nonzero;stroke:none"
       d="M 8,1042.3622 16,1041.3622 16,1047.3622 8,1046.3622 z"
       id="rect3052-5-9-8"
       inkscape:connector-curvature="0"
       sodipodi:nodetypes="ccccc" />
    <path
       style="fill:#3498db;fill-opacity:1;fill-rule:nonzero;stroke:none"
       d="M 8,1044.3622 16,1043.3622 16,1049.3622 8,1048.3622 z"
       id="rect3052-5-9"
       inkscape:connector-curvature="0"
       sodipodi:nodetypes="ccccc" />
    <path
       style="fill:#f39c12;fill-opacity:1;fill-rule:nonzero;stroke:none"
       d="M 3,1045.3622 8,1042.3622 8,1046.3622 3,1047.3622 z"
       id="rect3054-1-1-1"
       inkscape:connector-curvature="0"
       sodipodi:nodetypes="ccccc" />
    <path
       style="fill:#2980b9;fill-opacity:1;fill-rule:nonzero;stroke:none"
       d="M 3,1047.3622 8,1044.3622 8,1048.3622 3,1049.3622 z"
       id="rect3054-1-1"
       inkscape:connector-curvature="0"
       sodipodi:nodetypes="ccccc" />
    <path
       transform="translate(0,1028.3622)"
       style="fill:#f1c40f;fill-opacity:1;fill-rule:nonzero;stroke:none"
       d="M 8,8.8007812 8,5.9023437 12,14.5625 10.53125,14.5625 z"
       id="rect4155"
       inkscape:connector-curvature="0"
       sodipodi:nodetypes="ccccc" />
    <path
       inkscape:connector-curvature="0"
       style="fill:#e74c3c;fill-opacity:1;fill-rule:nonzero;stroke:none"
       d="M 13,1028.3622 C 10.79086,1028.3622 9,1030.1532 9,1032.3622 9,1033.0728 9.1908,1033.737 9.515626,1034.3154 9.569538,1034.4114 9.626104,1034.5058 9.6875,1034.5966 L 13,1040.3622 16.3125,1034.5966 C 16.363406,1034.5212 16.407336,1034.4412 16.453126,1034.3622 L 16.484376,1034.3154 C 16.809202,1033.737 17,1033.0728 17,1032.3622 17,1030.1532 15.20914,1028.3622 13,1028.3622 z M 13,1030.3622 C 14.104568,1030.3622 15,1031.2578 15,1032.3622 15,1033.4668 14.104568,1034.3622 13,1034.3622 11.89543,1034.3622 11,1033.4668 11,1032.3622 11,1031.2578 11.89543,1030.3622 13,1030.3622 z"
       id="path2990" />
  </g>
</svg>
