<?xml version="1.0" encoding="UTF-8" standalone="no"?>
<!-- Created with Inkscape (http://www.inkscape.org/) -->

<svg
   xmlns:dc="http://purl.org/dc/elements/1.1/"
   xmlns:cc="http://creativecommons.org/ns#"
   xmlns:rdf="http://www.w3.org/1999/02/22-rdf-syntax-ns#"
   xmlns:svg="http://www.w3.org/2000/svg"
   xmlns="http://www.w3.org/2000/svg"
   xmlns:sodipodi="http://sodipodi.sourceforge.net/DTD/sodipodi-0.dtd"
   xmlns:inkscape="http://www.inkscape.org/namespaces/inkscape"
   width="24"
   height="24"
   id="svg2"
   version="1.1"
   inkscape:version="0.48.3.1 r9886"
   sodipodi:docname="map-alt.svg">
  <defs
     id="defs4">
    <inkscape:path-effect
       effect="spiro"
       id="path-effect3261"
       is_visible="true" />
    <inkscape:path-effect
       effect="spiro"
       id="path-effect3261-8"
       is_visible="true" />
  </defs>
  <sodipodi:namedview
     id="base"
     pagecolor="#ffffff"
     bordercolor="#666666"
     borderopacity="1.0"
     inkscape:pageopacity="0.0"
     inkscape:pageshadow="2"
     inkscape:zoom="11.313709"
     inkscape:cx="6.8303093"
     inkscape:cy="11.401079"
     inkscape:document-units="px"
     inkscape:current-layer="layer1"
     showgrid="true"
     inkscape:window-width="1920"
     inkscape:window-height="1150"
     inkscape:window-x="0"
     inkscape:window-y="0"
     inkscape:window-maximized="1"
     showguides="true"
     inkscape:guide-bbox="true"
     inkscape:snap-bbox="true"
     inkscape:snap-bbox-midpoints="false"
     inkscape:snap-global="true"
     inkscape:bbox-nodes="true">
    <inkscape:grid
       type="xygrid"
       id="grid2985"
       empspacing="4"
       visible="true"
       enabled="true"
       snapvisiblegridlinesonly="true" />
  </sodipodi:namedview>
  <metadata
     id="metadata7">
    <rdf:RDF>
      <cc:Work
         rdf:about="">
        <dc:format>image/svg+xml</dc:format>
        <dc:type
           rdf:resource="http://purl.org/dc/dcmitype/StillImage" />
        <dc:title />
      </cc:Work>
    </rdf:RDF>
  </metadata>
  <g
     inkscape:label="Layer 1"
     inkscape:groupmode="layer"
     id="layer1"
     transform="translate(0,-1028.3622)">
    <path
       style="fill:#bdc3c7;fill-opacity:1;fill-rule:nonzero;stroke:none"
       d="M 8,1051.3622 0,1050.3622 0,1030.3622 0,1029.3622 8,1030.3622 8,1050.3622 8,1051.3622 z"
       id="rect3016"
       inkscape:connector-curvature="0" />
    <rect
       style="fill:#bdc3c7;fill-opacity:1;fill-rule:nonzero;stroke:none"
       id="rect3018-0"
       width="8"
       height="21.000019"
       x="8"
       y="-1051.3622"
       transform="scale(1,-1)" />
    <path
       inkscape:connector-curvature="0"
       style="fill:#bdc3c7;fill-opacity:1;fill-rule:nonzero;stroke:none"
       d="M 16,1051.3622 24,1050.3622 24,1030.3622 24,1029.3622 16,1030.3622 16,1050.3622 16,1051.3622 z"
       id="rect3016-0" />
    <rect
       style="fill:#3498db;fill-opacity:1;fill-rule:nonzero;stroke:none"
       id="rect4157"
       width="8"
       height="13"
       x="8"
       y="1036.3622" />
    <path
       style="fill:#2ecc71;fill-opacity:1;fill-rule:nonzero;stroke:none"
       d="M 8,1032.3622 8,1043.581 C 8.73792,1043.7374 9.475693,1043.9337 10.1875,1044.1747 12.00644,1044.8979 14.0722,1045.3828 16,1044.956 L 16,1032.3622 8,1032.3622 z"
       id="rect3247-2-7"
       inkscape:connector-curvature="0" />
    <path
       inkscape:connector-curvature="0"
       style="fill:#2980b9;fill-opacity:1;fill-rule:nonzero;stroke:none"
       d="M 2,1031.6122 2,1048.6122 8,1049.3622 8,1032.3622 2,1031.6122 z M 22,1031.6122 16,1032.3622 16,1049.3622 22,1048.6122 22,1031.6122 z"
       id="rect3098-3-9" />
    <path
       inkscape:connector-curvature="0"
       style="fill:#27ae60;fill-opacity:1;fill-rule:nonzero;stroke:none"
       d="M 2,1031.6122 2,1042.8935 C 2.779088,1042.5919 3.590727,1042.3859 4.4375,1042.3622 5.636843,1042.2099 6.830022,1043.3281 8.003906,1043.577 L 8,1032.3622 z M 22,1031.6122 16,1032.3622 16,1044.9521 C 16.488738,1044.8438 16.973632,1043.6947 17.4375,1043.456 19.14826,1042.5804 20.6871,1041.3641 22,1039.956 z"
       id="rect3247-2-72"
       sodipodi:nodetypes="cccccccccccc" />
  </g>
</svg>
