<?xml version="1.0" encoding="UTF-8" standalone="no"?>
<!-- Created with Inkscape (http://www.inkscape.org/) -->

<svg
   xmlns:dc="http://purl.org/dc/elements/1.1/"
   xmlns:cc="http://creativecommons.org/ns#"
   xmlns:rdf="http://www.w3.org/1999/02/22-rdf-syntax-ns#"
   xmlns:svg="http://www.w3.org/2000/svg"
   xmlns="http://www.w3.org/2000/svg"
   xmlns:sodipodi="http://sodipodi.sourceforge.net/DTD/sodipodi-0.dtd"
   xmlns:inkscape="http://www.inkscape.org/namespaces/inkscape"
   version="1.1"
   width="24"
   height="24"
   id="svg2"
   inkscape:version="0.48.3.1 r9886"
   sodipodi:docname="map-marker.svg">
  <sodipodi:namedview
     pagecolor="#ffffff"
     bordercolor="#666666"
     borderopacity="1"
     objecttolerance="10"
     gridtolerance="10"
     guidetolerance="10"
     inkscape:pageopacity="0"
     inkscape:pageshadow="2"
     inkscape:window-width="1920"
     inkscape:window-height="1150"
     id="namedview4232"
     showgrid="false"
     inkscape:zoom="9.8333333"
     inkscape:cx="12"
     inkscape:cy="12"
     inkscape:window-x="0"
     inkscape:window-y="0"
     inkscape:window-maximized="1"
     inkscape:current-layer="layer1" />
  <defs
     id="defs4" />
  <metadata
     id="metadata7">
    <rdf:RDF>
      <cc:Work
         rdf:about="">
        <dc:format>image/svg+xml</dc:format>
        <dc:type
           rdf:resource="http://purl.org/dc/dcmitype/StillImage" />
        <dc:title />
      </cc:Work>
    </rdf:RDF>
  </metadata>
  <g
     transform="translate(0,-1028.3622)"
     id="layer1">
    <path
       d="M 12.03125,1030.3622 C 8.1652568,1030.3622 5.03125,1033.4962 5.03125,1037.3622 5.03125,1038.7451 5.4328584,1040.0265 6.125,1041.1122 6.158425,1041.1646 6.1839797,1041.217 6.21875,1041.2685 L 10.5625,1049.331 C 10.76634,1049.9174 11.344162,1050.3622 12,1050.3622 12.655838,1050.3622 13.20241,1049.9174 13.40625,1049.331 L 18.25,1040.581 C 18.748539,1039.6184 19.03125,1038.521 19.03125,1037.3622 19.03125,1033.4962 15.897243,1030.3622 12.03125,1030.3622 z M 12,1034.331 C 13.932997,1034.331 15.5,1035.898 15.5,1037.831 15.5,1039.7639 13.932997,1041.331 12,1041.331 10.067003,1041.331 8.5,1039.7639 8.5,1037.831 8.5,1035.898 10.067003,1034.331 12,1034.331 z"
       inkscape:connector-curvature="0"
       id="path3211-4"
       style="fill:#c0392b;fill-opacity:1;fill-rule:nonzero;stroke:none" />
    <path
       d="M 12.03125,1.03125 C 8.1652568,1.03125 5.03125,4.16525 5.03125,8.03125 5.03125,9.41415 5.4328584,10.69555 6.125,11.78125 6.158425,11.83365 6.1839797,11.886 6.21875,11.9375 L 10.5625,20 C 10.76634,20.586412 11.344162,21.03125 12,21.03125 12.655838,21.03125 13.20241,20.586412 13.40625,20 L 18.25,11.25 C 18.748539,10.2874 19.03125,9.19005 19.03125,8.03125 19.03125,4.16525 15.897243,1.03125 12.03125,1.03125 z M 12,5 C 13.932997,5 15.5,6.5670033 15.5,8.5 15.5,10.432997 13.932997,12 12,12 10.067003,12 8.5,10.432997 8.5,8.5 8.5,6.5670033 10.067003,5 12,5 z"
       inkscape:connector-curvature="0"
       transform="translate(0,1028.3622)"
       id="path3211"
       style="fill:#e74c3c;fill-opacity:1;fill-rule:nonzero;stroke:none" />
  </g>
</svg>
