<?xml version="1.0" encoding="UTF-8" standalone="no"?>
<!-- Created with Inkscape (http://www.inkscape.org/) -->

<svg
   xmlns:dc="http://purl.org/dc/elements/1.1/"
   xmlns:cc="http://creativecommons.org/ns#"
   xmlns:rdf="http://www.w3.org/1999/02/22-rdf-syntax-ns#"
   xmlns:svg="http://www.w3.org/2000/svg"
   xmlns="http://www.w3.org/2000/svg"
   xmlns:sodipodi="http://sodipodi.sourceforge.net/DTD/sodipodi-0.dtd"
   xmlns:inkscape="http://www.inkscape.org/namespaces/inkscape"
   version="1.1"
   width="24"
   height="24"
   id="svg2"
   inkscape:version="0.48.3.1 r9886"
   sodipodi:docname="map.svg">
  <sodipodi:namedview
     pagecolor="#ffffff"
     bordercolor="#666666"
     borderopacity="1"
     objecttolerance="10"
     gridtolerance="10"
     guidetolerance="10"
     inkscape:pageopacity="0"
     inkscape:pageshadow="2"
     inkscape:window-width="1920"
     inkscape:window-height="1150"
     id="namedview4219"
     showgrid="false"
     inkscape:zoom="6.9532167"
     inkscape:cx="-17.401614"
     inkscape:cy="3.7963819"
     inkscape:window-x="0"
     inkscape:window-y="0"
     inkscape:window-maximized="1"
     inkscape:current-layer="g3250" />
  <defs
     id="defs4" />
  <metadata
     id="metadata7">
    <rdf:RDF>
      <cc:Work
         rdf:about="">
        <dc:format>image/svg+xml</dc:format>
        <dc:type
           rdf:resource="http://purl.org/dc/dcmitype/StillImage" />
        <dc:title />
      </cc:Work>
    </rdf:RDF>
  </metadata>
  <g
     transform="translate(0,-1028.3622)"
     id="layer1">
    <g
       id="g3233">
      <g
         id="g3250">
        <path
           d="M 12,1032.3622 7,1033.1955 7,1044.7059 12,1043.8726 z"
           inkscape:connector-curvature="0"
           id="rect3248-1-6-2"
           style="fill:#27ae60;fill-opacity:1;fill-rule:nonzero;stroke:none" />
        <path
           d="M 7,1046.6851 2,1048.0393 2,1051.5289 7,1052.3622 z"
           inkscape:connector-curvature="0"
           id="rect3248-36"
           style="fill:#3498db;fill-opacity:1;fill-rule:nonzero;stroke:none" />
        <path
           d="M 2,1032.3622 2,1045.4091 7,1044.0809 7,1033.1955 z"
           inkscape:connector-curvature="0"
           id="rect3244-26"
           style="fill:#2ecc71;fill-opacity:1;fill-rule:nonzero;stroke:none" />
        <path
           d="M 12,1044.8622 7,1047.5184 7,1052.3622 12,1051.5289 z"
           inkscape:connector-curvature="0"
           id="rect3248-1-6"
           style="fill:#2980b9;fill-opacity:1;fill-rule:nonzero;stroke:none" />
        <path
           d="M 12,1041.817 7,1044.0809 7,1047.5184 12.023327,1045.4878 z"
           inkscape:connector-curvature="0"
           id="rect3240-2-7"
           style="fill:#f39c12;fill-opacity:1;fill-rule:nonzero;stroke:none" />
        <path
           d="M 8.9498697,1032.8662 11.453125,1042.0817 12,1041.9254 12,1032.3622 z"
           inkscape:connector-curvature="0"
           id="rect3242-4-5"
           style="fill:#f39c12;fill-opacity:1;fill-rule:nonzero;stroke:none" />
        <path
           d="M 12.078125,1032.3622 14.5,1043.1955 17,1043.1955 17,1033.1955 z"
           inkscape:connector-curvature="0"
           id="rect3246-6-8"
           style="fill:#2ecc71;fill-opacity:1;fill-rule:nonzero;stroke:none" />
        <path
           d="M 12,1032.3622 12,1042.7268 14.5,1042.3622 12.078125,1032.3622 z"
           inkscape:connector-curvature="0"
           id="rect3242-5-3"
           style="fill:#f1c40f;fill-opacity:1;fill-rule:nonzero;stroke:none" />
        <path
           d="M 17.026042,1041.3335 12,1041.9585 12,1046.1643 17,1045.6955 z"
           inkscape:connector-curvature="0"
           id="rect3240-7-5"
           style="fill:#f1c40f;fill-opacity:1;fill-rule:nonzero;stroke:none" />
        <path
           d="M 17,1033.1955 17,1041.3726 22,1040.0444 22,1032.3622 z"
           inkscape:connector-curvature="0"
           id="rect3246-69-2-8"
           style="fill:#27ae60;fill-opacity:1;fill-rule:nonzero;stroke:none" />
        <path
           d="M 22,1042.3622 17,1044.8361 17,1052.3622 22,1051.5289 z"
           inkscape:connector-curvature="0"
           id="rect3248-8-5-7"
           style="fill:#2980b9;fill-opacity:1;fill-rule:nonzero;stroke:none" />
        <path
           d="M 17,1044.8362 12.003255,1045.4969 12,1051.5289 17,1052.3622 z"
           inkscape:connector-curvature="0"
           id="rect3248-3-9"
           style="fill:#3498db;fill-opacity:1;fill-rule:nonzero;stroke:none" />
        <path
           d="M 7,1044.0809 2,1044.8622 2,1048.1955 7,1047.5184 z"
           inkscape:connector-curvature="0"
           id="rect3240-19"
           style="fill:#f1c40f;fill-opacity:1;fill-rule:nonzero;stroke:none" />
        <path
           d="M 22,1039.0289 17,1041.3726 17,1044.8361 22,1043.1955 z"
           inkscape:connector-curvature="0"
           id="rect3240-24-1-0"
           style="fill:#f39c12;fill-opacity:1;fill-rule:nonzero;stroke:none" />
        <g
           id="text3865"
           style="font-size:8px;font-style:normal;font-variant:normal;font-weight:normal;font-stretch:normal;text-align:end;line-height:125%;letter-spacing:0px;word-spacing:0px;text-anchor:end;fill:#c0392b;fill-opacity:1;stroke:none;font-family:Wingdings;-inkscape-font-specification:Wingdings">
          <path
             d="M 8.4023438,1035.7762 C 8.7929629,1035.3856 8.9882752,1034.9143 8.9882813,1034.3622 8.9882752,1033.8101 8.7929629,1033.3388 8.4023438,1032.9481 8.0117137,1032.5575 7.54036,1032.3622 6.9882812,1032.3622 6.4361945,1032.3622 5.9648408,1032.5575 5.5742187,1032.9481 5.1835916,1033.3388 4.9882792,1033.8101 4.9882812,1034.3622 4.9882792,1034.9143 5.1835916,1035.3856 5.5742187,1035.7762 5.9648408,1036.1669 6.4361945,1036.3622 6.9882812,1036.3622 7.54036,1036.3622 8.0117137,1036.1669 8.4023438,1035.7762 M 10.988281,1034.3622 C 10.988273,1034.9299 10.902336,1035.396 10.730469,1035.7606 L 7.8867187,1041.8075 C 7.8033806,1041.9794 7.6783807,1042.1148 7.5117187,1042.2137 7.3502561,1042.3127 7.1757771,1042.3622 6.9882812,1042.3622 6.8007774,1042.3622 6.6236943,1042.3127 6.4570312,1042.2137 6.2955696,1042.1148 6.1757781,1041.9794 6.0976562,1041.8075 L 3.2460938,1035.7606 C 3.0742187,1035.396 2.9882813,1034.9299 2.9882813,1034.3622 2.9882813,1033.258 3.3789059,1032.3153 4.1601562,1031.5341 4.9414043,1030.7528 5.8841117,1030.3622 6.9882812,1030.3622 8.0924428,1030.3622 9.0351502,1030.7528 9.8164063,1031.5341 10.597649,1032.3153 10.988273,1033.258 10.988281,1034.3622"
             inkscape:connector-curvature="0"
             id="path3038"
             style="font-size:14px;fill:#c0392b" />
        </g>
      </g>
    </g>
  </g>
</svg>
