<?xml version="1.0" encoding="UTF-8" standalone="no"?>
<!-- Created with Inkscape (http://www.inkscape.org/) -->

<svg
   xmlns:dc="http://purl.org/dc/elements/1.1/"
   xmlns:cc="http://creativecommons.org/ns#"
   xmlns:rdf="http://www.w3.org/1999/02/22-rdf-syntax-ns#"
   xmlns:svg="http://www.w3.org/2000/svg"
   xmlns="http://www.w3.org/2000/svg"
   xmlns:sodipodi="http://sodipodi.sourceforge.net/DTD/sodipodi-0.dtd"
   xmlns:inkscape="http://www.inkscape.org/namespaces/inkscape"
   width="24"
   height="24"
   id="svg2"
   version="1.1"
   inkscape:version="0.48.3.1 r9886"
   sodipodi:docname="microphone.svg">
  <defs
     id="defs4" />
  <sodipodi:namedview
     id="base"
     pagecolor="#ffffff"
     bordercolor="#666666"
     borderopacity="1.0"
     inkscape:pageopacity="0.0"
     inkscape:pageshadow="2"
     inkscape:zoom="5.4177215"
     inkscape:cx="46.992176"
     inkscape:cy="-4.1979098"
     inkscape:document-units="px"
     inkscape:current-layer="layer1"
     showgrid="true"
     inkscape:window-width="1920"
     inkscape:window-height="1150"
     inkscape:window-x="0"
     inkscape:window-y="0"
     inkscape:window-maximized="1"
     showguides="true"
     inkscape:guide-bbox="true"
     inkscape:snap-bbox="true"
     inkscape:snap-bbox-midpoints="false"
     inkscape:snap-global="true"
     inkscape:bbox-nodes="true">
    <inkscape:grid
       type="xygrid"
       id="grid2985"
       empspacing="4"
       visible="true"
       enabled="true"
       snapvisiblegridlinesonly="true" />
  </sodipodi:namedview>
  <metadata
     id="metadata7">
    <rdf:RDF>
      <cc:Work
         rdf:about="">
        <dc:format>image/svg+xml</dc:format>
        <dc:type
           rdf:resource="http://purl.org/dc/dcmitype/StillImage" />
        <dc:title />
      </cc:Work>
    </rdf:RDF>
  </metadata>
  <g
     inkscape:label="Layer 1"
     inkscape:groupmode="layer"
     id="layer1"
     transform="translate(0,-1028.3622)">
    <path
       style="fill:#95a5a6;fill-opacity:1;fill-rule:nonzero;stroke:none"
       d="M 19,1038.3622 C 19.552285,1038.3622 20,1038.8099 20,1039.3622 L 20,1040.3622 C 20,1044.4405 16.944443,1047.8059 13,1048.2997 L 13,1050.3622 19,1050.3622 C 19.552285,1050.3622 20,1050.8099 20,1051.3622 20,1051.9145 19.552285,1052.3622 19,1052.3622 L 5,1052.3622 C 4.447715,1052.3622 4,1051.9145 4,1051.3622 4,1050.8099 4.447715,1050.3622 5,1050.3622 L 11,1050.3622 11,1048.2997 C 7.055557,1047.8059 4,1044.4405 4,1040.3622 L 4,1039.3622 C 4,1038.8099 4.447715,1038.3622 5,1038.3622 5.552285,1038.3622 6,1038.8099 6,1039.3622 L 6,1040.3622 C 6,1043.6759 8.686292,1046.3622 12,1046.3622 15.313708,1046.3622 18,1043.6759 18,1040.3622 L 18,1039.3622 C 18,1038.8099 18.447715,1038.3622 19,1038.3622 z"
       id="path3073"
       inkscape:connector-curvature="0" />
    <path
       style="fill:#bdc3c7;fill-opacity:1;fill-rule:nonzero;stroke:none"
       d="M 12,1028.3622 C 14.209139,1028.3622 16,1030.153 16,1032.3622 L 16,1040.3622 C 16,1042.5713 14.209139,1044.3622 12,1044.3622 9.790861,1044.3622 8,1042.5713 8,1040.3622 L 8,1032.3622 C 8,1030.153 9.790861,1028.3622 12,1028.3622 z"
       id="path2996"
       inkscape:connector-curvature="0" />
    <path
       style="fill:#95a5a6;fill-opacity:1;fill-rule:nonzero;stroke:none"
       d="M 12,1028.3622 12,1044.3622 C 9.790861,1044.3622 8,1042.5713 8,1040.3622 L 8,1032.3622 C 8,1030.153 9.790861,1028.3622 12,1028.3622 z"
       id="path2996-9"
       inkscape:connector-curvature="0" />
    <path
       style="fill:#95a5a6;fill-opacity:1;fill-rule:nonzero;stroke:none"
       d="M 16,1033.3622 16,1034.3622 14,1034.3622 14,1033.3622 16,1033.3622 z M 16,1035.3622 16,1036.3622 14,1036.3622 14,1035.3622 16,1035.3622 z M 16,1037.3622 16,1038.3622 14,1038.3622 14,1037.3622 16,1037.3622 z"
       id="rect3242-2"
       inkscape:connector-curvature="0" />
    <path
       style="fill:#7f8c8d;fill-opacity:1;fill-rule:nonzero;stroke:none"
       d="M 10,1033.3622 10,1034.3622 8,1034.3622 8,1033.3622 10,1033.3622 z M 10,1035.3622 10,1036.3622 8,1036.3622 8,1035.3622 10,1035.3622 z M 10,1037.3622 10,1038.3622 8,1038.3622 8,1037.3622 10,1037.3622 z"
       id="rect3242-2-2"
       inkscape:connector-curvature="0" />
  </g>
</svg>
