<?xml version="1.0" encoding="UTF-8" standalone="no"?>
<!-- Created with Inkscape (http://www.inkscape.org/) -->

<svg
   xmlns:dc="http://purl.org/dc/elements/1.1/"
   xmlns:cc="http://creativecommons.org/ns#"
   xmlns:rdf="http://www.w3.org/1999/02/22-rdf-syntax-ns#"
   xmlns:svg="http://www.w3.org/2000/svg"
   xmlns="http://www.w3.org/2000/svg"
   xmlns:sodipodi="http://sodipodi.sourceforge.net/DTD/sodipodi-0.dtd"
   xmlns:inkscape="http://www.inkscape.org/namespaces/inkscape"
   version="1.1"
   width="24"
   height="24"
   id="svg2"
   inkscape:version="0.48.3.1 r9886"
   sodipodi:docname="mixer.svg">
  <sodipodi:namedview
     pagecolor="#ffffff"
     bordercolor="#666666"
     borderopacity="1"
     objecttolerance="10"
     gridtolerance="10"
     guidetolerance="10"
     inkscape:pageopacity="0"
     inkscape:pageshadow="2"
     inkscape:window-width="1920"
     inkscape:window-height="1150"
     id="namedview4442"
     showgrid="true"
     inkscape:zoom="13.906433"
     inkscape:cx="7.6776015"
     inkscape:cy="0.15584133"
     inkscape:window-x="0"
     inkscape:window-y="0"
     inkscape:window-maximized="1"
     inkscape:current-layer="layer1">
    <inkscape:grid
       type="xygrid"
       id="grid4143"
       empspacing="4"
       visible="true"
       enabled="true"
       snapvisiblegridlinesonly="true" />
  </sodipodi:namedview>
  <defs
     id="defs4" />
  <metadata
     id="metadata7">
    <rdf:RDF>
      <cc:Work
         rdf:about="">
        <dc:format>image/svg+xml</dc:format>
        <dc:type
           rdf:resource="http://purl.org/dc/dcmitype/StillImage" />
        <dc:title />
      </cc:Work>
    </rdf:RDF>
  </metadata>
  <g
     transform="translate(0,-1028.3622)"
     id="layer1">
    <path
       style="fill:#2980b9;fill-opacity:1;fill-rule:nonzero;stroke:none"
       d="M 2,1032.3622 C 0.895431,1032.3622 0,1033.2576 0,1034.3622 L 0,1041.3622 0,1042.3622 0,1049.3622 C 0,1050.4668 0.895431,1051.3622 2,1051.3622 L 4,1051.3622 20,1051.3622 22,1051.3622 C 23.104569,1051.3622 24,1050.4668 24,1049.3622 L 24,1042.3622 24,1041.3622 24,1034.3622 C 24,1033.2576 23.104569,1032.3622 22,1032.3622 L 20,1032.3622 4,1032.3622 2,1032.3622 z"
       id="path3183-69-7-0-5"
       inkscape:connector-curvature="0" />
    <path
       style="fill:#3498db;fill-opacity:1;fill-rule:nonzero;stroke:none"
       d="M 2,1029.3622 C 0.895431,1029.3622 0,1030.2576 0,1031.3622 L 0,1038.3622 0,1039.3622 0,1046.3622 C 0,1047.4668 0.895431,1048.3622 2,1048.3622 L 4,1048.3622 20,1048.3622 22,1048.3622 C 23.104569,1048.3622 24,1047.4668 24,1046.3622 L 24,1039.3622 24,1038.3622 24,1031.3622 C 24,1030.2576 23.104569,1029.3622 22,1029.3622 L 20,1029.3622 4,1029.3622 2,1029.3622 z"
       id="path3183-69-7-2"
       inkscape:connector-curvature="0" />
    <path
       style="fill:#34495e;fill-opacity:1;fill-rule:nonzero;stroke:none"
       d="M 5,1031.3622 C 4.447715,1031.3622 4,1031.8099 4,1032.3622 L 4,1036.3622 4,1041.3622 4,1043.3622 4,1045.3622 C 4,1045.9145 4.447715,1046.3622 5,1046.3622 5.552285,1046.3622 6,1045.9145 6,1045.3622 L 6,1043.3622 6,1036.3622 6,1034.3622 6,1032.3622 C 6,1031.8099 5.552285,1031.3622 5,1031.3622 z M 12,1031.3622 C 11.447715,1031.3622 11,1031.8099 11,1032.3622 L 11,1034.3622 11,1036.3622 11,1043.3622 11,1045.3622 C 11,1045.9145 11.447715,1046.3622 12,1046.3622 12.552285,1046.3622 13,1045.9145 13,1045.3622 L 13,1043.3622 13,1036.3622 13,1034.3622 13,1032.3622 C 13,1031.8099 12.552285,1031.3622 12,1031.3622 z M 19,1031.3622 C 18.447715,1031.3622 18,1031.8099 18,1032.3622 L 18,1034.3622 18,1036.3622 18,1043.3622 18,1045.3622 C 18,1045.9145 18.447715,1046.3622 19,1046.3622 19.552285,1046.3622 20,1045.9145 20,1045.3622 L 20,1043.3622 20,1036.3622 20,1034.3622 20,1032.3622 C 20,1031.8099 19.552285,1031.3622 19,1031.3622 z"
       id="path3003-6"
       inkscape:connector-curvature="0" />
    <path
       style="fill:#2c3e50;fill-opacity:1;fill-rule:nonzero;stroke:none"
       d="M 5,1031.3622 5,1046.3622 C 5.552285,1046.3622 6,1045.9145 6,1045.3622 L 6,1043.3622 6,1036.3622 6,1034.3622 6,1032.3622 C 6,1031.8099 5.552285,1031.3622 5,1031.3622 z"
       id="path3003-5-6"
       inkscape:connector-curvature="0" />
    <path
       style="fill:#2c3e50;fill-opacity:1;fill-rule:nonzero;stroke:none"
       d="M 12,1031.3622 12,1046.3622 C 12.552285,1046.3622 13,1045.9145 13,1045.3622 L 13,1043.3622 13,1036.3622 13,1034.3622 13,1032.3622 C 13,1031.8099 12.552285,1031.3622 12,1031.3622 z"
       id="path3003-5-9-81"
       inkscape:connector-curvature="0" />
    <path
       style="fill:#2c3e50;fill-opacity:1;fill-rule:nonzero;stroke:none"
       d="M 19,1031.3622 19,1046.3622 C 19.552285,1046.3622 20,1045.9145 20,1045.3622 L 20,1043.3622 20,1036.3622 20,1034.3622 20,1032.3622 C 20,1031.8099 19.552285,1031.3622 19,1031.3622 z"
       id="path3003-5-9-8-3"
       inkscape:connector-curvature="0" />
    <path
       style="fill:#ecf0f1;fill-opacity:1;fill-rule:nonzero;stroke:none"
       d="M 3,1037.3622 C 2.4477153,1037.3622 2,1037.8099 2,1038.3622 2,1038.9145 2.4477153,1039.3622 3,1039.3622 L 7,1039.3622 C 7.5522847,1039.3622 8,1038.9145 8,1038.3622 8,1037.8099 7.5522847,1037.3622 7,1037.3622 L 3,1037.3622 z"
       id="rect3051-9-7-7"
       inkscape:connector-curvature="0" />
    <path
       style="fill:#95a5a6;fill-opacity:1;fill-rule:nonzero;stroke:none"
       d="M 2,1038.3622 C 2,1038.9145 2.447715,1039.3622 3,1039.3622 L 7,1039.3622 C 7.552285,1039.3622 8,1038.9145 8,1038.3622 L 2,1038.3622 z"
       id="rect3051-9-5-7-71"
       inkscape:connector-curvature="0" />
    <path
       inkscape:connector-curvature="0"
       style="fill:#ecf0f1;fill-opacity:1;fill-rule:nonzero;stroke:none"
       d="M 10,1041.3622 C 9.4477153,1041.3622 9,1041.8099 9,1042.3622 9,1042.9145 9.4477153,1043.3622 10,1043.3622 L 14,1043.3622 C 14.552285,1043.3622 15,1042.9145 15,1042.3622 15,1041.8099 14.552285,1041.3622 14,1041.3622 L 10,1041.3622 z"
       id="rect3051-9-8" />
    <path
       style="fill:#95a5a6;fill-opacity:1;fill-rule:nonzero;stroke:none"
       d="M 9,1042.3622 C 9,1042.9145 9.447715,1043.3622 10,1043.3622 L 14,1043.3622 C 14.552285,1043.3622 15,1042.9145 15,1042.3622 L 9,1042.3622 z"
       id="rect3051-9-5-4"
       inkscape:connector-curvature="0" />
    <path
       style="fill:#ecf0f1;fill-opacity:1;fill-rule:nonzero;stroke:none"
       d="M 17,1033.3622 C 16.447715,1033.3622 16,1033.8099 16,1034.3622 16,1034.9145 16.447715,1035.3622 17,1035.3622 L 21,1035.3622 C 21.552285,1035.3622 22,1034.9145 22,1034.3622 22,1033.8099 21.552285,1033.3622 21,1033.3622 L 17,1033.3622 z"
       id="rect3051-9-7-4-2"
       inkscape:connector-curvature="0" />
    <path
       style="fill:#95a5a6;fill-opacity:1;fill-rule:nonzero;stroke:none"
       d="M 16,1034.3622 C 16,1034.9145 16.447715,1035.3622 17,1035.3622 L 21,1035.3622 C 21.552285,1035.3622 22,1034.9145 22,1034.3622 L 16,1034.3622 z"
       id="rect3051-9-5-7-7-4"
       inkscape:connector-curvature="0" />
  </g>
</svg>
