<?xml version="1.0" encoding="UTF-8" standalone="no"?>
<!-- Created with Inkscape (http://www.inkscape.org/) -->

<svg
   xmlns:dc="http://purl.org/dc/elements/1.1/"
   xmlns:cc="http://creativecommons.org/ns#"
   xmlns:rdf="http://www.w3.org/1999/02/22-rdf-syntax-ns#"
   xmlns:svg="http://www.w3.org/2000/svg"
   xmlns="http://www.w3.org/2000/svg"
   xmlns:sodipodi="http://sodipodi.sourceforge.net/DTD/sodipodi-0.dtd"
   xmlns:inkscape="http://www.inkscape.org/namespaces/inkscape"
   width="24"
   height="24"
   id="svg2"
   version="1.1"
   inkscape:version="0.48.3.1 r9886"
   sodipodi:docname="smartphone.svg">
  <defs
     id="defs4">
    <inkscape:path-effect
       effect="spiro"
       id="path-effect3261"
       is_visible="true" />
    <inkscape:path-effect
       effect="spiro"
       id="path-effect3261-8"
       is_visible="true" />
  </defs>
  <sodipodi:namedview
     id="base"
     pagecolor="#ffffff"
     bordercolor="#666666"
     borderopacity="1.0"
     inkscape:pageopacity="0.0"
     inkscape:pageshadow="2"
     inkscape:zoom="26.316671"
     inkscape:cx="18.163805"
     inkscape:cy="12.639533"
     inkscape:document-units="px"
     inkscape:current-layer="layer1"
     showgrid="true"
     inkscape:window-width="1920"
     inkscape:window-height="1150"
     inkscape:window-x="0"
     inkscape:window-y="0"
     inkscape:window-maximized="1"
     showguides="true"
     inkscape:guide-bbox="true"
     inkscape:snap-bbox="true"
     inkscape:snap-bbox-midpoints="false"
     inkscape:snap-global="true"
     inkscape:bbox-nodes="true">
    <inkscape:grid
       type="xygrid"
       id="grid2985"
       empspacing="4"
       visible="true"
       enabled="true"
       snapvisiblegridlinesonly="true" />
  </sodipodi:namedview>
  <metadata
     id="metadata7">
    <rdf:RDF>
      <cc:Work
         rdf:about="">
        <dc:format>image/svg+xml</dc:format>
        <dc:type
           rdf:resource="http://purl.org/dc/dcmitype/StillImage" />
        <dc:title />
      </cc:Work>
    </rdf:RDF>
  </metadata>
  <g
     inkscape:label="Layer 1"
     inkscape:groupmode="layer"
     id="layer1"
     transform="translate(0,-1028.3622)">
    <path
       inkscape:connector-curvature="0"
       style="fill:#95a5a6;fill-opacity:1;fill-rule:nonzero;stroke:none"
       d="M 7,1029.3622 C 6.4477,1029.3622 6,1029.8099 6,1030.3622 L 6,1031.3622 6,1032.3622 6,1033.3622 6,1034.3622 6,1035.3622 6,1036.3622 6,1037.3622 6,1038.3622 6,1041.3622 6,1042.3622 6,1043.3622 6,1044.3622 6,1045.3622 6,1046.3622 6,1047.3622 6,1048.3622 6,1049.3622 C 6,1049.9145 6.4477,1050.3622 7,1050.3622 L 12,1050.3622 15,1050.3622 16,1050.3622 17,1050.3622 C 17.5523,1050.3622 18,1049.9145 18,1049.3622 L 18,1048.3622 18,1047.3622 18,1046.3622 18,1045.3622 18,1044.3622 18,1043.3622 18,1042.3622 18,1041.3622 18,1034.3622 18,1033.3622 18,1032.3622 18,1031.3622 18,1030.3622 C 18,1029.8099 17.5523,1029.3622 17,1029.3622 L 12,1029.3622 9,1029.3622 8,1029.3622 7,1029.3622 z"
       id="path3312-5-8-6-1" />
    <path
       style="fill:#bdc3c7;fill-opacity:1;fill-rule:nonzero;stroke:none"
       d="M 7,1028.3622 C 6.4477,1028.3622 6,1028.8099 6,1029.3622 L 6,1030.3622 6,1031.3622 6,1032.3622 6,1033.3622 6,1034.3622 6,1035.3622 6,1036.3622 6,1037.3622 6,1040.3622 6,1041.3622 6,1042.3622 6,1043.3622 6,1044.3622 6,1045.3622 6,1046.3622 6,1047.3622 6,1048.3622 C 6,1048.9145 6.4477,1049.3622 7,1049.3622 L 12,1049.3622 15,1049.3622 16,1049.3622 17,1049.3622 C 17.5523,1049.3622 18,1048.9145 18,1048.3622 L 18,1047.3622 18,1046.3622 18,1045.3622 18,1044.3622 18,1043.3622 18,1042.3622 18,1041.3622 18,1040.3622 18,1033.3622 18,1032.3622 18,1031.3622 18,1030.3622 18,1029.3622 C 18,1028.8099 17.5523,1028.3622 17,1028.3622 L 12,1028.3622 9,1028.3622 8,1028.3622 7,1028.3622 z"
       id="path3312-5-8-6"
       inkscape:connector-curvature="0" />
    <path
       sodipodi:type="arc"
       style="fill:#95a5a6;fill-opacity:1;fill-rule:nonzero;stroke:none"
       id="path3395"
       sodipodi:cx="12"
       sodipodi:cy="20"
       sodipodi:rx="1"
       sodipodi:ry="1"
       d="M 13,20 A 1,1 0 1 1 11,20 1,1 0 1 1 13,20 z"
       transform="translate(0,1027.8622)" />
    <rect
       style="fill:#2c3e50;fill-opacity:1;fill-rule:nonzero;stroke:none"
       id="rect3470"
       width="10"
       height="15.000017"
       x="7"
       y="1031.3622" />
    <path
       style="fill:#34495e;fill-opacity:1;fill-rule:nonzero;stroke:none"
       d="M 7,1030.3623 7,1042.3623 17,1034.0749 17,1030.3623 7,1030.3623 z"
       id="rect3470-4"
       inkscape:connector-curvature="0" />
    <rect
       style="fill:#95a5a6;fill-opacity:1;fill-rule:nonzero;stroke:none"
       id="rect3007"
       width="6"
       height="1"
       x="9"
       y="1028.3622" />
    <path
       inkscape:connector-curvature="0"
       style="fill:#bdc3c7;fill-opacity:1;fill-rule:nonzero;stroke:none"
       d="M 35,1030.3622 C 34.4477,1030.3622 34,1030.8099 34,1031.3622 L 34,1032.3622 34,1033.3622 34,1034.3622 34,1035.3622 34,1036.3622 34,1037.3622 34,1038.3622 34,1039.3622 34,1046.3622 34,1047.3622 34,1048.3622 34,1049.3622 34,1050.3622 34,1051.3622 34,1052.3622 34,1053.3622 C 34,1053.9145 34.4477,1054.3622 35,1054.3622 L 36,1054.3622 37,1054.3622 46,1054.3622 47,1054.3622 C 47.5523,1054.3622 48,1053.9145 48,1053.3622 L 48,1052.3622 48,1049.3622 48,1036.3622 48,1035.3622 48,1032.3622 48,1031.3622 C 48,1030.8099 47.5523,1030.3622 47,1030.3622 L 46,1030.3622 37,1030.3622 36,1030.3622 35,1030.3622 z"
       id="path3312-5-8-4" />
  </g>
</svg>
