<?xml version="1.0" encoding="UTF-8" standalone="no"?>
<!-- Created with Inkscape (http://www.inkscape.org/) -->

<svg
   xmlns:dc="http://purl.org/dc/elements/1.1/"
   xmlns:cc="http://creativecommons.org/ns#"
   xmlns:rdf="http://www.w3.org/1999/02/22-rdf-syntax-ns#"
   xmlns:svg="http://www.w3.org/2000/svg"
   xmlns="http://www.w3.org/2000/svg"
   xmlns:sodipodi="http://sodipodi.sourceforge.net/DTD/sodipodi-0.dtd"
   xmlns:inkscape="http://www.inkscape.org/namespaces/inkscape"
   width="24"
   height="24"
   id="svg2"
   version="1.1"
   inkscape:version="0.48.3.1 r9886"
   sodipodi:docname="mobile-phone.svg">
  <defs
     id="defs4">
    <inkscape:path-effect
       effect="spiro"
       id="path-effect3261"
       is_visible="true" />
    <inkscape:path-effect
       effect="spiro"
       id="path-effect3261-8"
       is_visible="true" />
  </defs>
  <sodipodi:namedview
     id="base"
     pagecolor="#ffffff"
     bordercolor="#666666"
     borderopacity="1.0"
     inkscape:pageopacity="0.0"
     inkscape:pageshadow="2"
     inkscape:zoom="9.3043483"
     inkscape:cx="10.820444"
     inkscape:cy="10.8169"
     inkscape:document-units="px"
     inkscape:current-layer="layer1"
     showgrid="true"
     inkscape:window-width="1920"
     inkscape:window-height="1150"
     inkscape:window-x="0"
     inkscape:window-y="0"
     inkscape:window-maximized="1"
     showguides="true"
     inkscape:guide-bbox="true"
     inkscape:snap-bbox="true"
     inkscape:snap-bbox-midpoints="false"
     inkscape:snap-global="true"
     inkscape:bbox-nodes="true">
    <inkscape:grid
       type="xygrid"
       id="grid2985"
       empspacing="4"
       visible="true"
       enabled="true"
       snapvisiblegridlinesonly="true" />
  </sodipodi:namedview>
  <metadata
     id="metadata7">
    <rdf:RDF>
      <cc:Work
         rdf:about="">
        <dc:format>image/svg+xml</dc:format>
        <dc:type
           rdf:resource="http://purl.org/dc/dcmitype/StillImage" />
        <dc:title />
      </cc:Work>
    </rdf:RDF>
  </metadata>
  <g
     inkscape:label="Layer 1"
     inkscape:groupmode="layer"
     id="layer1"
     transform="translate(0,-1028.3622)">
    <path
       inkscape:connector-curvature="0"
       style="fill:#95a5a6;fill-opacity:1;fill-rule:nonzero;stroke:none"
       d="M 7,1030.3621 C 6.4477,1030.3621 6,1030.8098 6,1031.3621 L 6,1032.3621 6,1033.3621 6,1034.3621 6,1035.3621 6,1036.3621 6,1037.3621 6,1038.3621 6,1039.3621 6,1042.3621 6,1043.3621 6,1044.3621 6,1045.3621 6,1046.3621 6,1047.3621 6,1048.3621 6,1049.3621 6,1050.3621 C 6,1050.9144 6.4477,1051.3621 7,1051.3621 L 12,1051.3621 15,1051.3621 16,1051.3621 17,1051.3621 C 17.5523,1051.3621 18,1050.9144 18,1050.3621 L 18,1049.3621 18,1048.3621 18,1047.3621 18,1046.3621 18,1045.3621 18,1044.3621 18,1043.3621 18,1042.3621 18,1035.3621 18,1034.3621 18,1033.3621 18,1032.3621 18,1031.3621 C 18,1030.8098 17.5523,1030.3621 17,1030.3621 L 12,1030.3621 9,1030.3621 8,1030.3621 7,1030.3621 z"
       id="path3312-5-8-6-1" />
    <path
       style="fill:#bdc3c7;fill-opacity:1;fill-rule:nonzero;stroke:none"
       d="M 7,1029.3621 C 6.4477,1029.3621 6,1029.8098 6,1030.3621 L 6,1031.3621 6,1032.3621 6,1033.3621 6,1034.3621 6,1035.3621 6,1036.3621 6,1037.3621 6,1038.3621 6,1041.3621 6,1042.3621 6,1043.3621 6,1044.3621 6,1045.3621 6,1046.3621 6,1047.3621 6,1048.3621 6,1049.3621 C 6,1049.9144 6.4477,1050.3621 7,1050.3621 L 12,1050.3621 15,1050.3621 16,1050.3621 17,1050.3621 C 17.5523,1050.3621 18,1049.9144 18,1049.3621 L 18,1048.3621 18,1047.3621 18,1046.3621 18,1045.3621 18,1044.3621 18,1043.3621 18,1042.3621 18,1041.3621 18,1034.3621 18,1033.3621 18,1032.3621 18,1031.3621 18,1030.3621 C 18,1029.8098 17.5523,1029.3621 17,1029.3621 L 12,1029.3621 9,1029.3621 8,1029.3621 7,1029.3621 z"
       id="path3312-5-8-6"
       inkscape:connector-curvature="0" />
    <path
       sodipodi:type="arc"
       style="fill:#95a5a6;fill-opacity:1;fill-rule:nonzero;stroke:none"
       id="path3395"
       sodipodi:cx="12"
       sodipodi:cy="20"
       sodipodi:rx="1"
       sodipodi:ry="1"
       d="M 13,20 A 1,1 0 1 1 11,20 1,1 0 1 1 13,20 z"
       transform="translate(0,1028.8621)" />
    <rect
       style="fill:#2c3e50;fill-opacity:1;fill-rule:nonzero;stroke:none"
       id="rect3470"
       width="10"
       height="15.000017"
       x="7"
       y="1032.3621" />
    <path
       style="fill:#34495e;fill-opacity:1;fill-rule:nonzero;stroke:none"
       d="M 7,1031.3622 7,1043.3622 17,1035.0748 17,1031.3622 7,1031.3622 z"
       id="rect3470-4"
       inkscape:connector-curvature="0" />
    <rect
       style="fill:#95a5a6;fill-opacity:1;fill-rule:nonzero;stroke:none"
       id="rect3007"
       width="6"
       height="1"
       x="9"
       y="1029.3621" />
  </g>
</svg>
