<?xml version="1.0" encoding="UTF-8" standalone="no"?>
<!-- Created with Inkscape (http://www.inkscape.org/) -->

<svg
   xmlns:dc="http://purl.org/dc/elements/1.1/"
   xmlns:cc="http://creativecommons.org/ns#"
   xmlns:rdf="http://www.w3.org/1999/02/22-rdf-syntax-ns#"
   xmlns:svg="http://www.w3.org/2000/svg"
   xmlns="http://www.w3.org/2000/svg"
   xmlns:sodipodi="http://sodipodi.sourceforge.net/DTD/sodipodi-0.dtd"
   xmlns:inkscape="http://www.inkscape.org/namespaces/inkscape"
   version="1.1"
   width="24"
   height="24"
   id="svg2"
   inkscape:version="0.48.3.1 r9886"
   sodipodi:docname="movie.svg">
  <sodipodi:namedview
     pagecolor="#ffffff"
     bordercolor="#666666"
     borderopacity="1"
     objecttolerance="10"
     gridtolerance="10"
     guidetolerance="10"
     inkscape:pageopacity="0"
     inkscape:pageshadow="2"
     inkscape:window-width="1920"
     inkscape:window-height="1150"
     id="namedview4284"
     showgrid="false"
     inkscape:zoom="9.8333333"
     inkscape:cx="12"
     inkscape:cy="13.284027"
     inkscape:window-x="0"
     inkscape:window-y="0"
     inkscape:window-maximized="1"
     inkscape:current-layer="layer1" />
  <defs
     id="defs4" />
  <metadata
     id="metadata7">
    <rdf:RDF>
      <cc:Work
         rdf:about="">
        <dc:format>image/svg+xml</dc:format>
        <dc:type
           rdf:resource="http://purl.org/dc/dcmitype/StillImage" />
        <dc:title />
      </cc:Work>
    </rdf:RDF>
  </metadata>
  <g
     transform="translate(0,-1028.3622)"
     id="layer1">
    <path
       d="M 4,1030.3622 C 2.8954305,1030.3622 2,1031.2576 2,1032.3622 L 2,1035.3622 2,1046.3622 2,1049.3622 C 2,1050.4668 2.8954305,1051.3622 4,1051.3622 L 6,1051.3622 18,1051.3622 20,1051.3622 C 21.104569,1051.3622 22,1050.4668 22,1049.3622 L 22,1046.3622 22,1035.3622 22,1032.3622 C 22,1031.2576 21.104569,1030.3622 20,1030.3622 L 18,1030.3622 6,1030.3622 4,1030.3622 z"
       inkscape:connector-curvature="0"
       id="rect3826-4-1"
       style="fill:#2c3e50;fill-opacity:1;fill-rule:nonzero;stroke:none" />
    <rect
       width="12"
       height="5.9999967"
       x="6"
       y="1044.3622"
       id="rect3826-4"
       style="fill:#16a085;fill-opacity:1;fill-rule:nonzero;stroke:none" />
    <rect
       width="12"
       height="6.9999828"
       x="6"
       y="1029.3622"
       id="rect3826"
       style="fill:#16a085;fill-opacity:1;fill-rule:nonzero;stroke:none" />
    <rect
       width="12"
       height="9.9999542"
       x="6"
       y="1035.3622"
       id="rect3612-0"
       style="fill:#1abc9c;fill-opacity:1;fill-rule:nonzero;stroke:none" />
    <path
       d="M 4,1029.3622 C 2.8954305,1029.3622 2,1030.2576 2,1031.3622 L 2,1034.3622 2,1045.3622 2,1048.3622 C 2,1049.4668 2.8954305,1050.3622 4,1050.3622 L 6,1050.3622 6,1047.3622 6,1032.3622 6,1029.3622 4,1029.3622 z"
       inkscape:connector-curvature="0"
       id="path3696-4"
       style="fill:#34495e;fill-opacity:1;fill-rule:nonzero;stroke:none" />
    <path
       d="M 20,1029.3622 C 21.104569,1029.3622 22,1030.2576 22,1031.3622 L 22,1034.3622 22,1045.3622 22,1048.3622 C 22,1049.4668 21.104569,1050.3622 20,1050.3622 L 18,1050.3622 18,1047.3622 18,1032.3622 18,1029.3622 20,1029.3622 z"
       inkscape:connector-curvature="0"
       id="path3696-4-7"
       style="fill:#34495e;fill-opacity:1;fill-rule:nonzero;stroke:none" />
    <path
       d="M 3.5,1031.3622 C 3.223858,1031.3622 3,1031.586 3,1031.8622 L 3,1032.8622 C 3,1033.1384 3.223858,1033.3622 3.5,1033.3622 L 4.5,1033.3622 C 4.776142,1033.3622 5,1033.1384 5,1032.8622 L 5,1031.8622 C 5,1031.586 4.776142,1031.3622 4.5,1031.3622 L 3.5,1031.3622 z M 3.5,1034.3622 C 3.223858,1034.3622 3,1034.586 3,1034.8622 L 3,1035.8622 C 3,1036.1384 3.223858,1036.3622 3.5,1036.3622 L 4.5,1036.3622 C 4.776142,1036.3622 5,1036.1384 5,1035.8622 L 5,1034.8622 C 5,1034.586 4.776142,1034.3622 4.5,1034.3622 L 3.5,1034.3622 z M 3.5,1037.3622 C 3.223858,1037.3622 3,1037.586 3,1037.8622 L 3,1038.8622 C 3,1039.1384 3.223858,1039.3622 3.5,1039.3622 L 4.5,1039.3622 C 4.776142,1039.3622 5,1039.1384 5,1038.8622 L 5,1037.8622 C 5,1037.586 4.776142,1037.3622 4.5,1037.3622 L 3.5,1037.3622 z M 3.5,1040.3622 C 3.223858,1040.3622 3,1040.586 3,1040.8622 L 3,1041.8622 C 3,1042.1384 3.223858,1042.3622 3.5,1042.3622 L 4.5,1042.3622 C 4.776142,1042.3622 5,1042.1384 5,1041.8622 L 5,1040.8622 C 5,1040.586 4.776142,1040.3622 4.5,1040.3622 L 3.5,1040.3622 z M 3.5,1043.3622 C 3.223858,1043.3622 3,1043.586 3,1043.8622 L 3,1044.8622 C 3,1045.1384 3.223858,1045.3622 3.5,1045.3622 L 4.5,1045.3622 C 4.776142,1045.3622 5,1045.1384 5,1044.8622 L 5,1043.8622 C 5,1043.586 4.776142,1043.3622 4.5,1043.3622 L 3.5,1043.3622 z M 3.5,1046.3622 C 3.223858,1046.3622 3,1046.586 3,1046.8622 L 3,1047.8622 C 3,1048.1384 3.223858,1048.3622 3.5,1048.3622 L 4.5,1048.3622 C 4.776142,1048.3622 5,1048.1384 5,1047.8622 L 5,1046.8622 C 5,1046.586 4.776142,1046.3622 4.5,1046.3622 L 3.5,1046.3622 z"
       inkscape:connector-curvature="0"
       id="path4018"
       style="fill:#16a085;fill-opacity:1;fill-rule:nonzero;stroke:none" />
    <path
       d="M 19.5,1031.3622 C 19.223858,1031.3622 19,1031.586 19,1031.8622 L 19,1032.8622 C 19,1033.1384 19.223858,1033.3622 19.5,1033.3622 L 20.5,1033.3622 C 20.776142,1033.3622 21,1033.1384 21,1032.8622 L 21,1031.8622 C 21,1031.586 20.776142,1031.3622 20.5,1031.3622 L 19.5,1031.3622 z M 19.5,1034.3622 C 19.223858,1034.3622 19,1034.586 19,1034.8622 L 19,1035.8622 C 19,1036.1384 19.223858,1036.3622 19.5,1036.3622 L 20.5,1036.3622 C 20.776142,1036.3622 21,1036.1384 21,1035.8622 L 21,1034.8622 C 21,1034.586 20.776142,1034.3622 20.5,1034.3622 L 19.5,1034.3622 z M 19.5,1037.3622 C 19.223858,1037.3622 19,1037.586 19,1037.8622 L 19,1038.8622 C 19,1039.1384 19.223858,1039.3622 19.5,1039.3622 L 20.5,1039.3622 C 20.776142,1039.3622 21,1039.1384 21,1038.8622 L 21,1037.8622 C 21,1037.586 20.776142,1037.3622 20.5,1037.3622 L 19.5,1037.3622 z M 19.5,1040.3622 C 19.223858,1040.3622 19,1040.586 19,1040.8622 L 19,1041.8622 C 19,1042.1384 19.223858,1042.3622 19.5,1042.3622 L 20.5,1042.3622 C 20.776142,1042.3622 21,1042.1384 21,1041.8622 L 21,1040.8622 C 21,1040.586 20.776142,1040.3622 20.5,1040.3622 L 19.5,1040.3622 z M 19.5,1043.3622 C 19.223858,1043.3622 19,1043.586 19,1043.8622 L 19,1044.8622 C 19,1045.1384 19.223858,1045.3622 19.5,1045.3622 L 20.5,1045.3622 C 20.776142,1045.3622 21,1045.1384 21,1044.8622 L 21,1043.8622 C 21,1043.586 20.776142,1043.3622 20.5,1043.3622 L 19.5,1043.3622 z M 19.5,1046.3622 C 19.223858,1046.3622 19,1046.586 19,1046.8622 L 19,1047.8622 C 19,1048.1384 19.223858,1048.3622 19.5,1048.3622 L 20.5,1048.3622 C 20.776142,1048.3622 21,1048.1384 21,1047.8622 L 21,1046.8622 C 21,1046.586 20.776142,1046.3622 20.5,1046.3622 L 19.5,1046.3622 z"
       inkscape:connector-curvature="0"
       id="path4018-8"
       style="fill:#16a085;fill-opacity:1;fill-rule:nonzero;stroke:none" />
    <path
       d="M 5,22.000001 5.3397454,1.8038473 22.660255,12.196152 z"
       transform="matrix(0.28312162,0,0,0.29708562,8.5843919,1036.8263)"
       id="path3674"
       style="fill:#ecf0f1;fill-opacity:1;fill-rule:nonzero;stroke:none" />
  </g>
</svg>
