<?xml version="1.0" encoding="UTF-8" standalone="no"?>
<!-- Created with Inkscape (http://www.inkscape.org/) -->

<svg
   xmlns:dc="http://purl.org/dc/elements/1.1/"
   xmlns:cc="http://creativecommons.org/ns#"
   xmlns:rdf="http://www.w3.org/1999/02/22-rdf-syntax-ns#"
   xmlns:svg="http://www.w3.org/2000/svg"
   xmlns="http://www.w3.org/2000/svg"
   xmlns:sodipodi="http://sodipodi.sourceforge.net/DTD/sodipodi-0.dtd"
   xmlns:inkscape="http://www.inkscape.org/namespaces/inkscape"
   version="1.1"
   width="24"
   height="24"
   id="svg2"
   inkscape:version="0.48.3.1 r9886"
   sodipodi:docname="news.svg">
  <sodipodi:namedview
     pagecolor="#ffffff"
     bordercolor="#666666"
     borderopacity="1"
     objecttolerance="10"
     gridtolerance="10"
     guidetolerance="10"
     inkscape:pageopacity="0"
     inkscape:pageshadow="2"
     inkscape:window-width="1920"
     inkscape:window-height="1150"
     id="namedview11"
     showgrid="true"
     inkscape:zoom="19.666666"
     inkscape:cx="23.848717"
     inkscape:cy="6.0651126"
     inkscape:window-x="0"
     inkscape:window-y="0"
     inkscape:window-maximized="1"
     inkscape:current-layer="svg2"
     inkscape:snap-global="true"
     inkscape:snap-bbox="true">
    <inkscape:grid
       type="xygrid"
       id="grid2988"
       empspacing="4"
       visible="true"
       enabled="true"
       snapvisiblegridlinesonly="true" />
  </sodipodi:namedview>
  <defs
     id="defs4" />
  <metadata
     id="metadata7">
    <rdf:RDF>
      <cc:Work
         rdf:about="">
        <dc:format>image/svg+xml</dc:format>
        <dc:type
           rdf:resource="http://purl.org/dc/dcmitype/StillImage" />
        <dc:title />
      </cc:Work>
    </rdf:RDF>
  </metadata>
  <path
     style="fill:#95a5a6;fill-opacity:1;fill-rule:nonzero;stroke:none"
     d="M 1 11 L 1 17 L 1 20 C 1 21.104569 1.895431 22 3 22 L 22 22 C 23.104569 22 24 21.104569 24 20 L 24 17 L 24 11 L 1 11 z "
     id="rect2988-9" />
  <path
     style="fill:#bdc3c7;fill-opacity:1;fill-rule:nonzero;stroke:none"
     d="M 0 2 L 0 11 L 0 18 L 0 21 C 0 22.104569 0.895431 23 2 23 L 21 23 C 22.104569 23 23 22.104569 23 21 L 23 18 L 23 11 L 23 2 L 0 2 z "
     id="rect2988" />
  <path
     style="fill:#7f8c8d;fill-opacity:1;stroke:none"
     d="M 2,4 2,9 3,9 3,6 5,9 6,9 6,4 5,4 5,7 3,4 2,4 z M 7,4 7,9 11,9 11,8 8,8 8,7 10,7 10,6 8,6 8,5 11,5 11,4 7,4 z M 12,4 12,9 13,9 14,7 15,9 16,9 16,4 15,4 15,7 14,5 13,7 13,4 12,4 z M 18.5,4 C 17.671573,4 17,4.6715729 17,5.5 17,6.3284271 17.671573,7 18.5,7 L 19.5,7 C 19.776142,7 20,7.2238576 20,7.5 20,7.7761424 19.776142,8 19.5,8 L 18.53125,8 17,8 17,9 18.53125,9 19.5,9 C 20.328427,9 21,8.3284271 21,7.5 21,6.6715729 20.328427,6 19.5,6 L 19,6 18.5,6 C 18.223858,6 18,5.7761424 18,5.5 18,5.2238576 18.223858,5 18.5,5 L 19,5 19.5,5 21,5 21,4 19.5,4 18.5,4 z"
     id="path3032-9"
     inkscape:connector-curvature="0" />
  <rect
     style="fill:#95a5a6;fill-opacity:1;fill-rule:nonzero;stroke:none"
     id="rect3950"
     width="9"
     height="7"
     x="2"
     y="11" />
  <rect
     style="fill:#95a5a6;fill-opacity:1;fill-rule:nonzero;stroke:none"
     id="rect3952-2"
     width="9"
     height="1"
     x="12"
     y="15" />
  <rect
     style="fill:#95a5a6;fill-opacity:1;fill-rule:nonzero;stroke:none"
     id="rect3952-7"
     width="9"
     height="1"
     x="2"
     y="19" />
  <rect
     style="fill:#95a5a6;fill-opacity:1;fill-rule:nonzero;stroke:none"
     id="rect3952-2-0"
     width="9"
     height="1"
     x="12"
     y="17" />
  <rect
     style="fill:#95a5a6;fill-opacity:1;fill-rule:nonzero;stroke:none"
     id="rect3952-2-5"
     width="9"
     height="1"
     x="12"
     y="13" />
  <rect
     style="fill:#95a5a6;fill-opacity:1;fill-rule:nonzero;stroke:none"
     id="rect3952-2-5-0"
     width="9"
     height="1"
     x="12"
     y="11" />
  <path
     style="fill:#95a5a6;fill-opacity:1;fill-rule:nonzero;stroke:none"
     d="M 0,20 0,21 C 0,22.104569 0.895431,23 2,23 L 21,23 C 22.104569,23 24,22.104569 24,21 L 24,20 C 24,21.104569 22.104569,22 21,22 L 2,22 C 0.895431,22 0,21.104569 0,20 z"
     id="rect2988-5"
     inkscape:connector-curvature="0"
     sodipodi:nodetypes="csssscssc" />
  <rect
     style="fill:#95a5a6;fill-opacity:1;fill-rule:nonzero;stroke:none"
     id="rect3952-2-0-6"
     width="9"
     height="1"
     x="12"
     y="19" />
</svg>
