<?xml version="1.0" encoding="UTF-8" standalone="no"?>
<!-- Created with Inkscape (http://www.inkscape.org/) -->

<svg
   xmlns:dc="http://purl.org/dc/elements/1.1/"
   xmlns:cc="http://creativecommons.org/ns#"
   xmlns:rdf="http://www.w3.org/1999/02/22-rdf-syntax-ns#"
   xmlns:svg="http://www.w3.org/2000/svg"
   xmlns="http://www.w3.org/2000/svg"
   xmlns:sodipodi="http://sodipodi.sourceforge.net/DTD/sodipodi-0.dtd"
   xmlns:inkscape="http://www.inkscape.org/namespaces/inkscape"
   version="1.1"
   width="24"
   height="24"
   id="svg2"
   inkscape:version="0.48.3.1 r9886"
   sodipodi:docname="note.svg">
  <sodipodi:namedview
     pagecolor="#ffffff"
     bordercolor="#666666"
     borderopacity="1"
     objecttolerance="10"
     gridtolerance="10"
     guidetolerance="10"
     inkscape:pageopacity="0"
     inkscape:pageshadow="2"
     inkscape:window-width="1920"
     inkscape:window-height="1150"
     id="namedview4459"
     showgrid="true"
     inkscape:zoom="9.8333333"
     inkscape:cx="12"
     inkscape:cy="12"
     inkscape:window-x="0"
     inkscape:window-y="0"
     inkscape:window-maximized="1"
     inkscape:current-layer="layer1">
    <inkscape:grid
       type="xygrid"
       id="grid4145"
       empspacing="4"
       visible="true"
       enabled="true"
       snapvisiblegridlinesonly="true" />
  </sodipodi:namedview>
  <defs
     id="defs4" />
  <metadata
     id="metadata7">
    <rdf:RDF>
      <cc:Work
         rdf:about="">
        <dc:format>image/svg+xml</dc:format>
        <dc:type
           rdf:resource="http://purl.org/dc/dcmitype/StillImage" />
        <dc:title />
      </cc:Work>
    </rdf:RDF>
  </metadata>
  <g
     transform="translate(0,-1028.3622)"
     id="layer1">
    <path
       d="M 5,1030.3622 C 3.895431,1030.3622 3,1031.2576 3,1032.3622 L 3,1033.3622 5.09375,1033.3622 C 5.2975898,1032.7758 5.8441619,1032.3622 6.5,1032.3622 7.328427,1032.3622 8,1033.0338 8,1033.8622 8,1034.6906 7.328427,1035.3622 6.5,1035.3622 5.8441619,1035.3622 5.2975898,1034.9486 5.09375,1034.3622 L 3,1034.3622 3,1038.3622 5.09375,1038.3622 C 5.2975898,1037.7758 5.8441619,1037.3622 6.5,1037.3622 7.328427,1037.3622 8,1038.0338 8,1038.8622 8,1039.6906 7.328427,1040.3622 6.5,1040.3622 5.8441619,1040.3622 5.2975898,1039.9486 5.09375,1039.3622 L 3,1039.3622 3,1040.3622 3,1043.3622 5.09375,1043.3622 C 5.2975898,1042.7758 5.8441619,1042.3622 6.5,1042.3622 7.328427,1042.3622 8,1043.0338 8,1043.8622 8,1044.6906 7.328427,1045.3622 6.5,1045.3622 5.8441619,1045.3622 5.2975898,1044.9486 5.09375,1044.3622 L 3,1044.3622 3,1048.3622 5.09375,1048.3622 C 5.2975898,1047.7758 5.8441619,1047.3622 6.5,1047.3622 7.328427,1047.3622 8,1048.0338 8,1048.8622 8,1049.6906 7.328427,1050.3622 6.5,1050.3622 5.8441619,1050.3622 5.2975898,1049.9486 5.09375,1049.3622 L 3,1049.3622 3,1050.3622 C 3,1051.4668 3.89543,1052.3622 5,1052.3622 L 19,1052.3622 C 20.104569,1052.3622 21,1051.4668 21,1050.3622 L 21,1044.3622 21,1040.3622 21,1036.3622 15,1030.3622 5,1030.3622 z"
       inkscape:connector-curvature="0"
       id="path2987-8"
       style="fill:#95a5a6;fill-opacity:1;fill-rule:nonzero;stroke:none" />
    <path
       d="M 5,1 C 3.895431,1 3,1.8954 3,3 L 3,4 5.09375,4 C 5.2975898,3.413588 5.8441619,3 6.5,3 7.3284271,3 8,3.6715729 8,4.5 8,5.3284271 7.3284271,6 6.5,6 5.8441619,6 5.2975898,5.586412 5.09375,5 L 3,5 3,9 5.09375,9 C 5.2975898,8.413588 5.8441619,8 6.5,8 7.3284271,8 8,8.6715729 8,9.5 8,10.328427 7.3284271,11 6.5,11 5.8441619,11 5.2975898,10.586412 5.09375,10 L 3,10 3,11 3,14 5.09375,14 C 5.2975898,13.413588 5.8441619,13 6.5,13 7.3284271,13 8,13.671573 8,14.5 8,15.328427 7.3284271,16 6.5,16 5.8441619,16 5.2975898,15.586412 5.09375,15 L 3,15 3,19 5.09375,19 C 5.2975898,18.413588 5.8441619,18 6.5,18 7.3284271,18 8,18.671573 8,19.5 8,20.328427 7.3284271,21 6.5,21 5.8441619,21 5.2975898,20.586412 5.09375,20 L 3,20 3,21 C 3,22.1046 3.89543,23 5,23 L 19,23 C 20.104569,23 21,22.1046 21,21 L 21,15 21,11 21,7 15,1 5,1 z"
       inkscape:connector-curvature="0"
       transform="translate(0,1028.3622)"
       id="path2987"
       style="fill:#bdc3c7;fill-opacity:1;fill-rule:nonzero;stroke:none" />
    <path
       d="M 21,1035.3622 15,1029.3622 15,1033.3622 C 15,1034.4668 15.89543,1035.3622 17,1035.3622 L 21,1035.3622 z"
       inkscape:connector-curvature="0"
       id="path2987-80"
       style="fill:#95a5a6;fill-opacity:1;fill-rule:nonzero;stroke:none" />
  </g>
</svg>
