<?xml version="1.0" encoding="UTF-8" standalone="no"?>
<!-- Created with Inkscape (http://www.inkscape.org/) -->

<svg
   xmlns:dc="http://purl.org/dc/elements/1.1/"
   xmlns:cc="http://creativecommons.org/ns#"
   xmlns:rdf="http://www.w3.org/1999/02/22-rdf-syntax-ns#"
   xmlns:svg="http://www.w3.org/2000/svg"
   xmlns="http://www.w3.org/2000/svg"
   xmlns:sodipodi="http://sodipodi.sourceforge.net/DTD/sodipodi-0.dtd"
   xmlns:inkscape="http://www.inkscape.org/namespaces/inkscape"
   width="24"
   height="24"
   id="svg2"
   version="1.1"
   inkscape:version="0.48.3.1 r9886"
   sodipodi:docname="paperclip.svg">
  <defs
     id="defs4" />
  <sodipodi:namedview
     id="base"
     pagecolor="#ffffff"
     bordercolor="#666666"
     borderopacity="1.0"
     inkscape:pageopacity="0.0"
     inkscape:pageshadow="2"
     inkscape:zoom="25.017984"
     inkscape:cx="8.02441"
     inkscape:cy="6.5097241"
     inkscape:document-units="px"
     inkscape:current-layer="layer1"
     showgrid="true"
     inkscape:window-width="1920"
     inkscape:window-height="1150"
     inkscape:window-x="0"
     inkscape:window-y="0"
     inkscape:window-maximized="1"
     inkscape:snap-nodes="true"
     inkscape:snap-global="true"
     inkscape:snap-bbox="true"
     inkscape:bbox-paths="true">
    <inkscape:grid
       type="xygrid"
       id="grid2985"
       empspacing="4"
       visible="true"
       enabled="true"
       snapvisiblegridlinesonly="true" />
  </sodipodi:namedview>
  <metadata
     id="metadata7">
    <rdf:RDF>
      <cc:Work
         rdf:about="">
        <dc:format>image/svg+xml</dc:format>
        <dc:type
           rdf:resource="http://purl.org/dc/dcmitype/StillImage" />
        <dc:title />
      </cc:Work>
    </rdf:RDF>
  </metadata>
  <g
     inkscape:label="Layer 1"
     inkscape:groupmode="layer"
     id="layer1"
     transform="translate(0,-1028.3622)">
    <g
       style="font-size:8px;font-style:normal;font-variant:normal;font-weight:normal;font-stretch:normal;text-align:end;line-height:125%;letter-spacing:0px;word-spacing:0px;text-anchor:end;fill:#34495e;fill-opacity:1;stroke:none;font-family:Wingdings;-inkscape-font-specification:Wingdings"
       id="text3017-3-7"
       transform="matrix(1.7939539,0,0,-1.7939539,-32.657984,2896.8405)"
       inkscape:export-filename="/home/shen/Desktop/truc.png"
       inkscape:export-xdpi="1836.5354"
       inkscape:export-ydpi="1836.5354" />
    <path
       style="fill:#95a5a6;fill-opacity:1;fill-rule:nonzero;stroke:none"
       d="M 20.828428,1031.5338 C 19.273742,1029.9791 16.757531,1029.9717 15.193635,1031.5117 15.186224,1031.519 15.178998,1031.5263 15.171574,1031.5338 L 13.050253,1033.6551 11.613907,1035.0914 4.9185254,1041.7868 C 2.7706178,1043.9347 2.7706418,1047.4171 4.9185254,1049.565 7.0664089,1051.7129 10.548792,1051.7129 12.6967,1049.565 L 20.828428,1041.4333 19.414214,1040.0191 13.050253,1046.383 11.63604,1047.7972 11.392936,1048.0403 C 11.356025,1048.0772 11.320511,1048.1157 11.282486,1048.1508 9.8492707,1049.4734 7.6642252,1049.4823 6.3327389,1048.1508 5.0012526,1046.8193 5.0100766,1044.6342 6.3327389,1043.201 L 6.443189,1043.0906 6.6862923,1042.8475 8.1005059,1041.4333 13.028121,1036.5057 14.155108,1035.3787 14.464467,1035.0693 16.585787,1032.948 16.607849,1032.9259 C 17.390611,1032.1671 18.640631,1032.1744 19.414214,1032.948 20.187798,1033.7216 20.195148,1034.9716 19.436276,1035.7544 L 19.414214,1035.7764 16.983535,1038.2071 15.171574,1040.0191 14.464467,1040.7262 12.983927,1042.2067 11.282486,1043.9081 C 11.087183,1044.1034 10.770641,1044.1034 10.57538,1043.9081 10.380118,1043.7129 10.380077,1043.3963 10.57538,1043.201 L 12.27682,1041.4996 13.75736,1040.0191 14.464467,1039.3119 16.585787,1037.1906 15.171574,1035.7764 13.050253,1037.8977 12.343147,1038.6048 9.161166,1041.7868 C 9.1536481,1041.7942 9.1464582,1041.8015 9.1390336,1041.809 8.1734086,1042.7746 8.1848552,1044.346 9.161166,1045.3224 10.137477,1046.2987 11.708942,1046.3101 12.674568,1045.3445 12.681992,1045.3371 12.689369,1045.3299 12.6967,1045.3224 L 13.75736,1044.2617 16.585787,1041.4333 20.828428,1037.1906 20.85049,1037.1686 C 22.39051,1035.6047 22.383114,1033.0885 20.828428,1031.5338 z"
       id="path3075-7"
       inkscape:connector-curvature="0" />
  </g>
</svg>
