<?xml version="1.0" encoding="UTF-8" standalone="no"?>
<!-- Created with Inkscape (http://www.inkscape.org/) -->

<svg
   xmlns:dc="http://purl.org/dc/elements/1.1/"
   xmlns:cc="http://creativecommons.org/ns#"
   xmlns:rdf="http://www.w3.org/1999/02/22-rdf-syntax-ns#"
   xmlns:svg="http://www.w3.org/2000/svg"
   xmlns="http://www.w3.org/2000/svg"
   xmlns:sodipodi="http://sodipodi.sourceforge.net/DTD/sodipodi-0.dtd"
   xmlns:inkscape="http://www.inkscape.org/namespaces/inkscape"
   width="24"
   height="24"
   id="svg2"
   version="1.1"
   inkscape:version="0.48.3.1 r9886"
   sodipodi:docname="paperclip.svg">
  <defs
     id="defs4" />
  <sodipodi:namedview
     id="base"
     pagecolor="#ffffff"
     bordercolor="#666666"
     borderopacity="1.0"
     inkscape:pageopacity="0.0"
     inkscape:pageshadow="2"
     inkscape:zoom="8"
     inkscape:cx="10.858197"
     inkscape:cy="5.0537003"
     inkscape:document-units="px"
     inkscape:current-layer="layer1"
     showgrid="true"
     inkscape:window-width="1920"
     inkscape:window-height="1150"
     inkscape:window-x="0"
     inkscape:window-y="0"
     inkscape:window-maximized="1"
     inkscape:snap-nodes="false"
     inkscape:snap-global="true"
     inkscape:snap-bbox="true">
    <inkscape:grid
       type="xygrid"
       id="grid2985"
       empspacing="4"
       visible="true"
       enabled="true"
       snapvisiblegridlinesonly="true" />
  </sodipodi:namedview>
  <metadata
     id="metadata7">
    <rdf:RDF>
      <cc:Work
         rdf:about="">
        <dc:format>image/svg+xml</dc:format>
        <dc:type
           rdf:resource="http://purl.org/dc/dcmitype/StillImage" />
        <dc:title></dc:title>
      </cc:Work>
    </rdf:RDF>
  </metadata>
  <g
     inkscape:label="Layer 1"
     inkscape:groupmode="layer"
     id="layer1"
     transform="translate(0,-1028.3622)">
    <g
       style="font-size:8px;font-style:normal;font-variant:normal;font-weight:normal;font-stretch:normal;text-align:end;line-height:125%;letter-spacing:0px;word-spacing:0px;text-anchor:end;fill:#bdc3c7;fill-opacity:1;stroke:none;font-family:Wingdings;-inkscape-font-specification:Wingdings"
       id="text3017-3"
       transform="matrix(1.7939539,0,0,-1.7939539,-1.2793558,2899.2558)"
       inkscape:export-filename="/home/shen/Desktop/truc.png"
       inkscape:export-xdpi="1836.5354"
       inkscape:export-ydpi="1836.5354">
      <path
         d="M 12.976563,1040.1825 C 12.976552,1040.7919 12.770823,1041.3023 12.359375,1041.7137 11.947907,1042.1252 11.437491,1042.3309 10.828125,1042.3309 10.124992,1042.3309 9.5130133,1042.0705 8.9921875,1041.5497 L 2.921875,1035.4872 C 2.333333,1034.8882 2.0390625,1034.1825 2.0390625,1033.37 2.0390625,1032.5419 2.3255205,1031.8388 2.8984375,1031.2606 3.4713527,1030.6825 4.1718728,1030.3934 5,1030.3934 5.8229129,1030.3934 6.5338496,1030.6877 7.1328125,1031.2762 L 11.859375,1036.0106 C 11.911448,1036.0627 11.93749,1036.12 11.9375,1036.1825 11.93749,1036.2658 11.856761,1036.3882 11.695313,1036.5497 11.539053,1036.7059 11.419261,1036.7841 11.335938,1036.7841 11.26822,1036.7841 11.208324,1036.758 11.15625,1036.7059 L 6.421875,1031.9637 C 6.0104127,1031.5627 5.539059,1031.3622 5.0078125,1031.3622 4.4557267,1031.3622 3.9895814,1031.5575 3.609375,1031.9481 3.2291654,1032.3388 3.0390615,1032.8101 3.0390625,1033.3622 3.0390615,1033.9091 3.2369779,1034.3804 3.6328125,1034.7762 L 9.6953125,1040.8466 C 10.023429,1041.1747 10.401033,1041.3387 10.828125,1041.3387 11.161449,1041.3387 11.437491,1041.2294 11.65625,1041.0106 11.87499,1040.7919 11.984365,1040.5158 11.984375,1040.1825 11.984365,1039.7554 11.820303,1039.3778 11.492188,1039.0497 L 6.953125,1034.5106 C 6.8177035,1034.3856 6.6614537,1034.3231 6.484375,1034.3231 6.333329,1034.3231 6.2083291,1034.3726 6.109375,1034.4716 6.0104127,1034.5705 5.9609335,1034.6955 5.9609375,1034.8466 5.9609335,1035.0132 6.0260376,1035.1669 6.15625,1035.3075 L 9.359375,1038.5106 C 9.4114509,1038.5627 9.4374926,1038.62 9.4375,1038.6825 9.4374926,1038.7658 9.3567635,1038.8882 9.1953125,1039.0497 9.0338471,1039.2111 8.9114514,1039.2919 8.828125,1039.2919 8.7656182,1039.2919 8.7083266,1039.2658 8.65625,1039.2137 L 5.453125,1036.0106 C 5.1249969,1035.6929 4.9609345,1035.3049 4.9609375,1034.8466 4.9609345,1034.4195 5.1093719,1034.0575 5.40625,1033.7606 5.7031213,1033.4638 6.0651001,1033.3153 6.4921875,1033.3153 6.9505159,1033.3153 7.3385363,1033.4794 7.65625,1033.8075 L 12.195313,1038.3466 C 12.716135,1038.857 12.976552,1039.469 12.976563,1040.1825"
         style="font-size:14px;fill:#bdc3c7;fill-opacity:1"
         id="path3024-3"
         inkscape:connector-curvature="0" />
    </g>
    <path
       style="fill:#95a5a6;fill-opacity:1"
       d="M 17.930492,1030.299 C 17.597968,1030.3159 17.265274,1030.3663 16.992992,1030.4553 16.162418,1030.7271 16.267732,1030.6161 10.086743,1036.8615 6.5754465,1040.4092 4.3492205,1042.6936 4.2117425,1042.8928 4.0157275,1043.1766 3.7429925,1043.6984 3.7429925,1043.7678 3.7429925,1043.7821 3.9054415,1043.8615 4.0867425,1043.9553 4.2680405,1044.0492 4.4170165,1044.1102 4.4304925,1044.1115 4.4439705,1044.1129 4.5209845,1044.0178 4.5867425,1043.8928 4.6525005,1043.7677 4.8040265,1043.5277 4.9304925,1043.3615 5.0569545,1043.1954 7.7119115,1040.5058 10.836743,1037.3615 16.902105,1031.2583 16.649043,1031.4853 17.336742,1031.2678 17.898455,1031.0903 18.577038,1031.127 19.086742,1031.3615 19.379467,1031.4962 19.861381,1031.9609 19.961742,1032.2053 19.99702,1032.2911 20.031222,1032.3615 20.055492,1032.3615 20.079765,1032.3615 20.273209,1032.2698 20.461742,1032.174 L 20.805492,1032.0178 20.680492,1031.799 C 20.2806,1031.0516 19.637313,1030.557 18.836742,1030.3615 18.581829,1030.2993 18.263018,1030.2821 17.930492,1030.299 z M 20.867992,1034.674 C 20.860735,1034.6824 20.821835,1034.7669 20.774242,1034.8615 20.726652,1034.9563 20.572674,1035.2033 20.430492,1035.3928 20.041055,1035.9122 11.623733,1044.3265 11.367993,1044.4553 10.396526,1044.9442 9.2854235,1044.6734 8.7429925,1043.799 L 8.6179925,1043.6115 8.2742425,1043.7678 C 8.0862285,1043.8627 7.9086225,1043.9467 7.8992425,1043.9553 7.8446415,1044.0049 8.2195485,1044.5565 8.4929925,1044.8303 8.8555085,1045.1936 9.2973905,1045.4133 9.7742425,1045.5178 10.425909,1045.6607 11.091868,1045.5767 11.711743,1045.2678 12.061226,1045.0936 12.231868,1044.9206 15.836743,1041.299 20.237618,1036.8775 21.015602,1036.063 21.305492,1035.549 21.616006,1034.9983 21.642696,1035.0332 21.242992,1034.8303 21.049928,1034.7321 20.875256,1034.6655 20.867992,1034.674 z M 14.555493,1035.9553 11.805493,1038.7365 C 10.058652,1040.5032 8.9843235,1041.6186 8.8992425,1041.7678 8.8252155,1041.8977 8.7642655,1042.0087 8.7742425,1042.0178 8.7842225,1042.027 8.9612285,1042.1401 9.1492425,1042.2365 L 9.4929925,1042.3928 9.5554925,1042.299 C 9.5938625,1042.2397 10.953133,1040.827 12.586743,1039.174 14.220352,1037.5207 15.555493,1036.1402 15.555493,1036.1115 15.555493,1036.0116 15.306001,1035.9553 14.930493,1035.9553 L 14.555493,1035.9553 z M 19.055492,1040.424 15.024243,1044.549 C 12.795833,1046.8132 10.775055,1048.8086 10.555493,1048.9865 10.113196,1049.3452 9.3511075,1049.7461 8.8992425,1049.8615 7.5926985,1050.1953 6.2040975,1049.9732 5.1804925,1049.2365 4.5635925,1048.7926 3.8046835,1047.8678 3.6492425,1047.3928 L 3.5867425,1047.2365 3.2429925,1047.424 C 3.0432795,1047.5237 2.8676135,1047.615 2.8679925,1047.6428 2.8691755,1047.7304 3.2648825,1048.4097 3.4617425,1048.674 4.3995155,1049.9326 5.5944045,1050.6334 7.1492425,1050.8303 7.7035755,1050.9003 8.5599965,1050.8413 9.1804925,1050.674 9.6889685,1050.5368 10.442771,1050.1484 10.899243,1049.799 11.121266,1049.629 13.137577,1047.6172 15.680493,1045.049 20.626528,1040.0538 20.261251,1040.5198 19.492992,1040.4553 L 19.055492,1040.424 z"
       id="path3000-3"
       inkscape:connector-curvature="0" />
  </g>
</svg>
