<?xml version="1.0" encoding="UTF-8" standalone="no"?>
<!-- Created with Inkscape (http://www.inkscape.org/) -->

<svg
   xmlns:dc="http://purl.org/dc/elements/1.1/"
   xmlns:cc="http://creativecommons.org/ns#"
   xmlns:rdf="http://www.w3.org/1999/02/22-rdf-syntax-ns#"
   xmlns:svg="http://www.w3.org/2000/svg"
   xmlns="http://www.w3.org/2000/svg"
   xmlns:sodipodi="http://sodipodi.sourceforge.net/DTD/sodipodi-0.dtd"
   xmlns:inkscape="http://www.inkscape.org/namespaces/inkscape"
   width="24"
   height="24"
   id="svg2"
   version="1.1"
   inkscape:version="0.48.3.1 r9886"
   sodipodi:docname="paperclip.svg">
  <defs
     id="defs4" />
  <sodipodi:namedview
     id="base"
     pagecolor="#ffffff"
     bordercolor="#666666"
     borderopacity="1.0"
     inkscape:pageopacity="0.0"
     inkscape:pageshadow="2"
     inkscape:zoom="32"
     inkscape:cx="-0.50678779"
     inkscape:cy="13.007772"
     inkscape:document-units="px"
     inkscape:current-layer="layer1"
     showgrid="true"
     inkscape:window-width="1920"
     inkscape:window-height="1150"
     inkscape:window-x="0"
     inkscape:window-y="0"
     inkscape:window-maximized="1"
     inkscape:snap-nodes="false"
     inkscape:snap-global="true"
     inkscape:snap-bbox="true"
     inkscape:bbox-paths="true">
    <inkscape:grid
       type="xygrid"
       id="grid2985"
       empspacing="4"
       visible="true"
       enabled="true"
       snapvisiblegridlinesonly="true" />
  </sodipodi:namedview>
  <metadata
     id="metadata7">
    <rdf:RDF>
      <cc:Work
         rdf:about="">
        <dc:format>image/svg+xml</dc:format>
        <dc:type
           rdf:resource="http://purl.org/dc/dcmitype/StillImage" />
        <dc:title />
      </cc:Work>
    </rdf:RDF>
  </metadata>
  <g
     inkscape:label="Layer 1"
     inkscape:groupmode="layer"
     id="layer1"
     transform="translate(0,-1028.3622)">
    <g
       style="font-size:8px;font-style:normal;font-variant:normal;font-weight:normal;font-stretch:normal;text-align:end;line-height:125%;letter-spacing:0px;word-spacing:0px;text-anchor:end;fill:#34495e;fill-opacity:1;stroke:none;font-family:Wingdings;-inkscape-font-specification:Wingdings"
       id="text3017-3-7"
       transform="matrix(1.7939539,0,0,-1.7939539,-32.657984,2896.8405)"
       inkscape:export-filename="/home/shen/Desktop/truc.png"
       inkscape:export-xdpi="1836.5354"
       inkscape:export-ydpi="1836.5354" />
    <path
       style="fill:#95a5a6;fill-opacity:1;fill-rule:nonzero;stroke:none"
       d="M 20.828428,1031.5338 C 19.273742,1029.9791 16.757531,1029.9717 15.193635,1031.5117 15.186224,1031.519 15.178998,1031.5263 15.171574,1031.5338 L 13.050253,1033.6551 11.613907,1035.0914 4.9185254,1041.7868 C 2.7706178,1043.9347 2.7706418,1047.4171 4.9185254,1049.565 7.0664089,1051.7129 10.548792,1051.7129 12.6967,1049.565 L 20.828428,1041.4333 19.414214,1040.0191 13.050253,1046.383 11.63604,1047.7972 11.392936,1048.0403 C 11.356025,1048.0772 11.320511,1048.1157 11.282486,1048.1508 9.8492707,1049.4734 7.6642252,1049.4823 6.3327389,1048.1508 5.0012526,1046.8193 5.0100766,1044.6342 6.3327389,1043.201 L 6.443189,1043.0906 6.6862923,1042.8475 8.1005059,1041.4333 13.028121,1036.5057 14.155108,1035.3787 14.464467,1035.0693 16.585787,1032.948 16.607849,1032.9259 C 17.390611,1032.1671 18.640631,1032.1744 19.414214,1032.948 20.187798,1033.7216 20.195148,1034.9716 19.436276,1035.7544 L 19.414214,1035.7764 16.983535,1038.2071 15.171574,1040.0191 14.464467,1040.7262 12.983927,1042.2067 11.282486,1043.9081 C 11.087183,1044.1034 10.770641,1044.1034 10.57538,1043.9081 10.380118,1043.7129 10.380077,1043.3963 10.57538,1043.201 L 12.27682,1041.4996 13.75736,1040.0191 14.464467,1039.3119 16.585787,1037.1906 15.171574,1035.7764 13.050253,1037.8977 12.343147,1038.6048 9.161166,1041.7868 C 9.1536481,1041.7942 9.1464582,1041.8015 9.1390336,1041.809 8.1734086,1042.7746 8.1848552,1044.346 9.161166,1045.3224 10.137477,1046.2987 11.708942,1046.3101 12.674568,1045.3445 12.681992,1045.3371 12.689369,1045.3299 12.6967,1045.3224 L 13.75736,1044.2617 16.585787,1041.4333 20.828428,1037.1906 20.85049,1037.1686 C 22.39051,1035.6047 22.383114,1033.0885 20.828428,1031.5338 z"
       id="path3075-7"
       inkscape:connector-curvature="0" />
    <path
       style="fill:#bdc3c7;fill-opacity:1;fill-rule:nonzero;stroke:none"
       d="M 18.034564,1030.3622 C 17.015688,1030.3585 15.972762,1030.7485 15.190814,1031.5185 L 13.065814,1033.6435 11.628313,1035.081 4.9408136,1041.7997 C 2.7929066,1043.9476 2.7929306,1047.4018 4.9408136,1049.5497 6.1332596,1050.7422 7.7261856,1051.275 9.2845636,1051.1435 8.0575016,1051.026 6.8805126,1050.4894 5.9408136,1049.5497 3.7929306,1047.4018 3.7929066,1043.9476 5.9408136,1041.7997 L 12.628314,1035.081 14.065814,1033.6435 16.190814,1031.5185 C 16.847824,1030.8715 17.683304,1030.4942 18.534564,1030.3935 18.36621,1030.3714 18.204084,1030.3628 18.034564,1030.3622 z M 19.034564,1032.3622 C 18.855606,1032.3609 18.677372,1032.3783 18.503314,1032.4247 18.840751,1032.5102 19.145586,1032.692 19.409564,1032.956 20.183148,1033.7296 20.199686,1034.9857 19.440814,1035.7685 L 19.409564,1035.7685 17.003314,1038.206 15.190814,1040.0185 14.472064,1040.7372 13.003314,1042.206 11.472063,1043.706 11.472063,1043.7372 C 11.496474,1043.7974 11.548248,1043.8447 11.597063,1043.8935 11.792324,1044.0888 12.08926,1044.0888 12.284563,1043.8935 L 14.003314,1042.206 15.472064,1040.7372 16.190814,1040.0185 18.003314,1038.206 20.409564,1035.7685 20.440814,1035.7685 C 21.199686,1034.9857 21.183148,1033.7296 20.409564,1032.956 20.022772,1032.5692 19.541612,1032.3659 19.034564,1032.3622 z M 15.190814,1035.7685 13.065814,1037.8935 12.347064,1038.6122 9.1595636,1041.7997 C 8.1939386,1042.7653 8.1832526,1044.3546 9.1595636,1045.331 9.7697576,1045.9411 10.627616,1046.165 11.409563,1046.0185 10.95019,1045.9207 10.517949,1045.6893 10.159564,1045.331 9.1832526,1044.3546 9.1939386,1042.7653 10.159564,1041.7997 L 13.347064,1038.6122 14.065814,1037.8935 15.690814,1036.2685 15.190814,1035.7685 z M 19.409564,1040.0185 13.065814,1046.3935 11.659563,1047.7997 11.409563,1048.0497 C 11.372652,1048.0866 11.322588,1048.1084 11.284563,1048.1435 10.704836,1048.6784 10.004067,1048.9776 9.2845636,1049.081 10.332259,1049.2307 11.431075,1048.9311 12.284563,1048.1435 12.322588,1048.1084 12.372653,1048.0866 12.409564,1048.0497 L 12.659564,1047.7997 14.065814,1046.3935 19.909564,1040.5185 19.409564,1040.0185 z"
       id="path3075-7-2"
       inkscape:connector-curvature="0" />
    <path
       style="fill:#d35400;fill-opacity:1;fill-rule:nonzero;stroke:none"
       d="M -51.171572,1024.5338 C -52.726258,1022.9791 -55.242469,1022.9717 -56.806365,1024.5117 -56.813776,1024.519 -56.821002,1024.5263 -56.828426,1024.5338 L -58.949747,1026.6551 -60.386093,1028.0914 -67.081475,1034.7868 C -69.229382,1036.9347 -69.229358,1040.4171 -67.081475,1042.565 -64.933591,1044.7129 -61.451208,1044.7129 -59.3033,1042.565 L -51.171572,1034.4333 -52.585786,1033.0191 -58.949747,1039.383 -60.36396,1040.7972 -60.607064,1041.0403 C -60.643975,1041.0772 -60.679489,1041.1157 -60.717514,1041.1508 -62.150729,1042.4734 -64.335775,1042.4823 -65.667261,1041.1508 -66.998747,1039.8193 -66.989923,1037.6342 -65.667261,1036.201 L -65.556811,1036.0906 -65.313708,1035.8475 -63.899494,1034.4333 -58.971879,1029.5057 -57.844892,1028.3787 -57.535533,1028.0693 -55.414213,1025.948 -55.392151,1025.9259 C -54.609389,1025.1671 -53.359369,1025.1744 -52.585786,1025.948 -51.812202,1026.7216 -51.804852,1027.9716 -52.563724,1028.7544 L -52.585786,1028.7764 -55.016465,1031.2071 -56.828426,1033.0191 -57.535533,1033.7262 -59.016073,1035.2067 -60.717514,1036.9081 C -60.912817,1037.1034 -61.229359,1037.1034 -61.42462,1036.9081 -61.619882,1036.7129 -61.619923,1036.3963 -61.42462,1036.201 L -59.72318,1034.4996 -58.24264,1033.0191 -57.535533,1032.3119 -55.414213,1030.1906 -56.828426,1028.7764 -58.949747,1030.8977 -59.656853,1031.6048 -62.838834,1034.7868 C -62.846352,1034.7942 -62.853542,1034.8015 -62.860966,1034.809 -63.826591,1035.7746 -63.815145,1037.346 -62.838834,1038.3224 -61.862523,1039.2987 -60.291058,1039.3101 -59.325432,1038.3445 -59.318008,1038.3371 -59.310631,1038.3299 -59.3033,1038.3224 L -58.24264,1037.2617 -55.414213,1034.4333 -51.171572,1030.1906 -51.14951,1030.1686 C -49.60949,1028.6047 -49.616886,1026.0885 -51.171572,1024.5338 z"
       id="path3075-7-2-7"
       inkscape:connector-curvature="0" />
    <path
       style="fill:#8e44ad;fill-opacity:1;fill-rule:nonzero;stroke:none"
       d="M -50.479176,1025.3475 C -52.033862,1023.7928 -54.550073,1023.7854 -56.113969,1025.3254 -56.12138,1025.3327 -56.128606,1025.34 -56.13603,1025.3475 L -58.257351,1027.4688 -59.693697,1028.9051 -66.389079,1035.6005 C -68.536986,1037.7484 -68.536962,1041.2308 -66.389079,1043.3787 -64.241195,1045.5266 -60.758812,1045.5266 -58.610904,1043.3787 L -50.479176,1035.247 -51.89339,1033.8328 -58.257351,1040.1967 -59.671564,1041.6109 -59.914668,1041.854 C -59.951579,1041.8909 -59.987093,1041.9294 -60.025118,1041.9645 -61.458333,1043.2871 -63.643379,1043.296 -64.974865,1041.9645 -66.306351,1040.633 -66.297527,1038.4479 -64.974865,1037.0147 L -64.864415,1036.9043 -64.621312,1036.6612 -63.207098,1035.247 -58.279483,1030.3194 -57.152496,1029.1924 -56.843137,1028.883 -54.721817,1026.7617 -54.699755,1026.7396 C -53.916993,1025.9808 -52.666973,1025.9881 -51.89339,1026.7617 -51.119806,1027.5353 -51.112456,1028.7853 -51.871328,1029.5681 L -51.89339,1029.5901 -54.324069,1032.0208 -56.13603,1033.8328 -56.843137,1034.5399 -58.323677,1036.0204 -60.025118,1037.7218 C -60.220421,1037.9171 -60.536963,1037.9171 -60.732224,1037.7218 -60.927486,1037.5266 -60.927527,1037.21 -60.732224,1037.0147 L -59.030784,1035.3133 -57.550244,1033.8328 -56.843137,1033.1256 -54.721817,1031.0043 -56.13603,1029.5901 -58.257351,1031.7114 -58.964457,1032.4185 -62.146438,1035.6005 C -62.153956,1035.6079 -62.161146,1035.6152 -62.16857,1035.6227 -63.134195,1036.5883 -63.122749,1038.1597 -62.146438,1039.1361 -61.170127,1040.1124 -59.598662,1040.1238 -58.633036,1039.1582 -58.625612,1039.1508 -58.618235,1039.1436 -58.610904,1039.1361 L -57.550244,1038.0754 -54.721817,1035.247 -50.479176,1031.0043 -50.457114,1030.9823 C -48.917094,1029.4184 -48.92449,1026.9022 -50.479176,1025.3475 z"
       id="path3075-7-2-9-9"
       inkscape:connector-curvature="0" />
  </g>
</svg>
