<?xml version="1.0" encoding="UTF-8" standalone="no"?>
<!-- Created with Inkscape (http://www.inkscape.org/) -->

<svg
   xmlns:dc="http://purl.org/dc/elements/1.1/"
   xmlns:cc="http://creativecommons.org/ns#"
   xmlns:rdf="http://www.w3.org/1999/02/22-rdf-syntax-ns#"
   xmlns:svg="http://www.w3.org/2000/svg"
   xmlns="http://www.w3.org/2000/svg"
   xmlns:sodipodi="http://sodipodi.sourceforge.net/DTD/sodipodi-0.dtd"
   xmlns:inkscape="http://www.inkscape.org/namespaces/inkscape"
   version="1.1"
   width="24"
   height="24"
   id="svg2"
   inkscape:version="0.48.3.1 r9886"
   sodipodi:docname="phone.svg">
  <sodipodi:namedview
     pagecolor="#ffffff"
     bordercolor="#666666"
     borderopacity="1"
     objecttolerance="10"
     gridtolerance="10"
     guidetolerance="10"
     inkscape:pageopacity="0"
     inkscape:pageshadow="2"
     inkscape:window-width="1920"
     inkscape:window-height="1150"
     id="namedview3067"
     showgrid="true"
     inkscape:zoom="39.333334"
     inkscape:cx="15.126675"
     inkscape:cy="9.9886316"
     inkscape:window-x="0"
     inkscape:window-y="0"
     inkscape:window-maximized="1"
     inkscape:current-layer="layer1"
     inkscape:snap-nodes="false"
     inkscape:snap-bbox="true">
    <inkscape:grid
       type="xygrid"
       id="grid4202"
       empspacing="4"
       visible="true"
       enabled="true"
       snapvisiblegridlinesonly="true" />
  </sodipodi:namedview>
  <defs
     id="defs4" />
  <metadata
     id="metadata7">
    <rdf:RDF>
      <cc:Work
         rdf:about="">
        <dc:format>image/svg+xml</dc:format>
        <dc:type
           rdf:resource="http://purl.org/dc/dcmitype/StillImage" />
        <dc:title />
      </cc:Work>
    </rdf:RDF>
  </metadata>
  <g
     transform="translate(0,-1028.3622)"
     id="layer1">
    <path
       inkscape:connector-curvature="0"
       id="path2994"
       style="font-size:14px;font-style:normal;font-variant:normal;font-weight:normal;font-stretch:normal;text-align:end;line-height:125%;letter-spacing:0px;word-spacing:0px;text-anchor:end;fill:#e74c3c;fill-opacity:1;stroke:none;font-family:Wingdings;-inkscape-font-specification:Wingdings"
       d="M 23.014866,1046.7692 C 23.014844,1047.0507 22.962724,1047.4213 22.858511,1047.8804 22.754252,1048.3292 22.644802,1048.684 22.530163,1048.9449 22.311244,1049.4667 21.675399,1050.0198 20.622624,1050.6041 19.642778,1051.1363 18.673374,1051.4025 17.714411,1051.4025 17.432954,1051.4025 17.156728,1051.3868 16.885727,1051.3555 16.625119,1051.3137 16.328042,1051.2459 15.994499,1051.152 15.660926,1051.0582 15.410759,1050.985 15.243992,1050.9329 15.087622,1050.8702 14.800972,1050.7606 14.384039,1050.6041 13.967076,1050.4476 13.711696,1050.3537 13.617894,1050.3224 12.596361,1049.9572 11.684287,1049.5242 10.881673,1049.0233 9.5474298,1048.1987 8.1662912,1047.0768 6.7382488,1045.6577 5.3206216,1044.228 4.2000749,1042.8451 3.3766047,1041.5094 2.876265,1040.7057 2.4436808,1039.7928 2.0788525,1038.77 2.0475814,1038.6761 1.9537681,1038.4204 1.7974124,1038.003 1.6410569,1037.5855 1.5316089,1037.2985 1.4690667,1037.1421 1.4169475,1036.975 1.3439823,1036.7245 1.2501689,1036.3908 1.1563555,1036.0566 1.0886017,1035.7594 1.0469056,1035.4985 1.0156345,1035.2273 1,1034.9506 1,1034.6687 1,1033.7086 1.2658034,1032.7382 1.7974124,1031.7572 2.3811386,1030.7032 2.9335957,1030.0665 3.4547816,1029.8473 3.7153716,1029.7328 4.0697788,1029.6231 4.5179995,1029.5188 4.9766393,1029.4144 5.3466811,1029.3622 5.6281251,1029.3622 5.7740517,1029.3622 5.8835016,1029.3779 5.956471,1029.4091 6.1440936,1029.4719 6.4203222,1029.8683 6.7851565,1030.5988 6.8998119,1030.7971 7.0561674,1031.0788 7.2542233,1031.444 7.452267,1031.8093 7.6346822,1032.1434 7.8014669,1032.4459 7.9682394,1032.7382 8.1298065,1033.0147 8.2861701,1033.2756 8.3174333,1033.3173 8.4060351,1033.4477 8.5519737,1033.6669 8.7083231,1033.8862 8.8229826,1034.0738 8.8959559,1034.2304 8.9689152,1034.3766 9.0053978,1034.5226 9.0054058,1034.6687 9.0053978,1034.8776 8.8542538,1035.1384 8.5519737,1035.4514 8.2601025,1035.7646 7.9369683,1036.0515 7.582569,1036.3123 7.2385807,1036.5732 6.9154465,1036.8497 6.6131644,1037.1421 6.3212953,1037.4342 6.1753647,1037.6742 6.1753688,1037.862 6.1753647,1037.956 6.2014244,1038.0759 6.2535475,1038.2221 6.3056606,1038.3577 6.3473547,1038.4622 6.378632,1038.5353 6.4203222,1038.6083 6.4932874,1038.7334 6.5975298,1038.9109 6.7121852,1039.0882 6.7747274,1039.1873 6.7851565,1039.2082 7.5773515,1040.6381 8.4842138,1041.8641 9.5057435,1042.887 10.527257,1043.9097 11.752041,1044.8175 13.180098,1045.6105 13.200935,1045.6209 13.29996,1045.6837 13.477175,1045.7986 13.654365,1045.903 13.779449,1045.9759 13.852428,1046.0177 13.925382,1046.0491 14.029618,1046.0907 14.16514,1046.143 14.311058,1046.195 14.430932,1046.2211 14.524756,1046.2211 14.712371,1046.2211 14.952115,1046.0751 15.243992,1045.7829 15.535841,1045.4801 15.812071,1045.1567 16.072677,1044.8123 16.333256,1044.4574 16.619907,1044.134 16.932633,1043.8417 17.245329,1043.5391 17.505921,1043.388 17.714411,1043.388 17.860327,1043.388 18.006258,1043.4244 18.152206,1043.4973 18.308546,1043.5704 18.496173,1043.6852 18.715086,1043.8417 18.933967,1043.9878 19.064265,1044.0765 19.105976,1044.1079 19.36655,1044.2646 19.642778,1044.4263 19.934659,1044.5931 20.236928,1044.7602 20.570488,1044.9427 20.935335,1045.141 21.300145,1045.3393 21.581586,1045.4958 21.779656,1045.6105 22.509294,1045.9759 22.905394,1046.2525 22.967959,1046.4402 22.999207,1046.5134 23.014844,1046.6229 23.014866,1046.7692" />
    <path
       style="font-size:14px;font-style:normal;font-variant:normal;font-weight:normal;font-stretch:normal;text-align:end;line-height:125%;letter-spacing:0px;word-spacing:0px;text-anchor:end;fill:#c0392b;fill-opacity:1;stroke:none;font-family:Wingdings;-inkscape-font-specification:Wingdings"
       d="M 1.21875 4.75 C 1.07347 5.2576 1 5.77935 1 6.28125 C 1 6.56315 1.031229 6.82255 1.0625 7.09375 C 1.104196 7.35465 1.156187 7.6658 1.25 8 C 1.343813 8.3337 1.41663 8.5829 1.46875 8.75 C 1.531292 8.9064 1.656145 9.2075 1.8125 9.625 C 1.968856 10.0424 2.062478 10.2811 2.09375 10.375 C 2.458578 11.3978 2.87466 12.3213 3.375 13.125 C 4.19847 14.4607 5.332373 15.8203 6.75 17.25 C 8.178042 18.6691 9.540757 19.8004 10.875 20.625 C 11.677614 21.1259 12.603467 21.5723 13.625 21.9375 C 13.718802 21.9688 13.958037 22.06225 14.375 22.21875 C 14.791933 22.37525 15.09363 22.46855 15.25 22.53125 C 15.416767 22.58335 15.666427 22.6562 16 22.75 C 16.333543 22.8439 16.614392 22.92695 16.875 22.96875 C 17.146001 23.00005 17.437293 23 17.71875 23 C 18.677713 23 19.645154 22.75095 20.625 22.21875 C 21.677775 21.63445 22.312331 21.0843 22.53125 20.5625 C 22.645889 20.3016 22.739491 19.9488 22.84375 19.5 C 22.947963 19.0409 22.999978 18.6565 23 18.375 C 22.999978 18.2287 22.999998 18.10445 22.96875 18.03125 C 22.931565 17.91975 22.741571 17.76815 22.46875 17.59375 C 22.216446 18.08825 21.615648 18.60645 20.625 19.15625 C 19.645154 19.68845 18.677713 19.96875 17.71875 19.96875 C 17.437293 19.96875 17.146001 19.93755 16.875 19.90625 C 16.614392 19.86445 16.333543 19.81265 16 19.71875 C 15.666427 19.62495 15.416767 19.5521 15.25 19.5 C 15.09363 19.4373 14.791933 19.31275 14.375 19.15625 C 13.958037 18.99975 13.718802 18.9063 13.625 18.875 C 12.603467 18.5098 11.677614 18.09465 10.875 17.59375 C 9.540757 16.76915 8.178042 15.63785 6.75 14.21875 C 5.332373 12.78905 4.19847 11.3982 3.375 10.0625 C 2.87466 9.2588 2.458578 8.36655 2.09375 7.34375 C 2.062478 7.24985 1.968856 6.9799 1.8125 6.5625 C 1.656145 6.145 1.531292 5.87515 1.46875 5.71875 C 1.41663 5.55165 1.343813 5.30245 1.25 4.96875 C 1.227643 4.88915 1.238147 4.8255 1.21875 4.75 z "
       transform="translate(0,1028.3622)"
       id="path2994-0" />
  </g>
</svg>
