<?xml version="1.0" encoding="UTF-8" standalone="no"?>
<!-- Created with Inkscape (http://www.inkscape.org/) -->

<svg
   xmlns:dc="http://purl.org/dc/elements/1.1/"
   xmlns:cc="http://creativecommons.org/ns#"
   xmlns:rdf="http://www.w3.org/1999/02/22-rdf-syntax-ns#"
   xmlns:svg="http://www.w3.org/2000/svg"
   xmlns="http://www.w3.org/2000/svg"
   xmlns:sodipodi="http://sodipodi.sourceforge.net/DTD/sodipodi-0.dtd"
   xmlns:inkscape="http://www.inkscape.org/namespaces/inkscape"
   version="1.1"
   width="24"
   height="24"
   id="svg2"
   inkscape:version="0.48.3.1 r9886"
   sodipodi:docname="phone.svg">
  <sodipodi:namedview
     pagecolor="#ffffff"
     bordercolor="#666666"
     borderopacity="1"
     objecttolerance="10"
     gridtolerance="10"
     guidetolerance="10"
     inkscape:pageopacity="0"
     inkscape:pageshadow="2"
     inkscape:window-width="1920"
     inkscape:window-height="1150"
     id="namedview3067"
     showgrid="true"
     inkscape:zoom="19.666667"
     inkscape:cx="23.639974"
     inkscape:cy="3.0857748"
     inkscape:window-x="0"
     inkscape:window-y="0"
     inkscape:window-maximized="1"
     inkscape:current-layer="layer1"
     inkscape:snap-nodes="false"
     inkscape:snap-bbox="true">
    <inkscape:grid
       type="xygrid"
       id="grid4202"
       empspacing="4"
       visible="true"
       enabled="true"
       snapvisiblegridlinesonly="true" />
  </sodipodi:namedview>
  <defs
     id="defs4" />
  <metadata
     id="metadata7">
    <rdf:RDF>
      <cc:Work
         rdf:about="">
        <dc:format>image/svg+xml</dc:format>
        <dc:type
           rdf:resource="http://purl.org/dc/dcmitype/StillImage" />
        <dc:title />
      </cc:Work>
    </rdf:RDF>
  </metadata>
  <g
     transform="translate(0,-1028.3622)"
     id="layer1">
    <path
       inkscape:connector-curvature="0"
       id="path2994"
       style="font-size:14px;font-style:normal;font-variant:normal;font-weight:normal;font-stretch:normal;text-align:end;line-height:125%;letter-spacing:0px;word-spacing:0px;text-anchor:end;fill:#e74c3c;fill-opacity:1;stroke:none;font-family:Wingdings;-inkscape-font-specification:Wingdings"
       d="M 23.014866,1046.7692 C 23.014844,1047.0507 22.962724,1047.4213 22.858511,1047.8804 22.754252,1048.3292 22.644802,1048.684 22.530163,1048.9449 22.311244,1049.4667 21.675399,1050.0198 20.622624,1050.6041 19.642778,1051.1363 18.673374,1051.4025 17.714411,1051.4025 17.432954,1051.4025 17.156728,1051.3868 16.885727,1051.3555 16.625119,1051.3137 16.328042,1051.2459 15.994499,1051.152 15.660926,1051.0582 15.410759,1050.985 15.243992,1050.9329 15.087622,1050.8702 14.800972,1050.7606 14.384039,1050.6041 13.967076,1050.4476 13.711696,1050.3537 13.617894,1050.3224 12.596361,1049.9572 11.684287,1049.5242 10.881673,1049.0233 9.5474298,1048.1987 8.1662912,1047.0768 6.7382488,1045.6577 5.3206216,1044.228 4.2000749,1042.8451 3.3766047,1041.5094 2.876265,1040.7057 2.4436808,1039.7928 2.0788525,1038.77 2.0475814,1038.6761 1.9537681,1038.4204 1.7974124,1038.003 1.6410569,1037.5855 1.5316089,1037.2985 1.4690667,1037.1421 1.4169475,1036.975 1.3439823,1036.7245 1.2501689,1036.3908 1.1563555,1036.0566 1.0886017,1035.7594 1.0469056,1035.4985 1.0156345,1035.2273 1,1034.9506 1,1034.6687 1,1033.7086 1.2658034,1032.7382 1.7974124,1031.7572 2.3811386,1030.7032 2.9335957,1030.0665 3.4547816,1029.8473 3.7153716,1029.7328 4.0697788,1029.6231 4.5179995,1029.5188 4.9766393,1029.4144 5.3466811,1029.3622 5.6281251,1029.3622 5.7740517,1029.3622 5.8835016,1029.3779 5.956471,1029.4091 6.1440936,1029.4719 6.4203222,1029.8683 6.7851565,1030.5988 6.8998119,1030.7971 7.0561674,1031.0788 7.2542233,1031.444 7.452267,1031.8093 7.6346822,1032.1434 7.8014669,1032.4459 7.9682394,1032.7382 8.1298065,1033.0147 8.2861701,1033.2756 8.3174333,1033.3173 8.4060351,1033.4477 8.5519737,1033.6669 8.7083231,1033.8862 8.8229826,1034.0738 8.8959559,1034.2304 8.9689152,1034.3766 9.0053978,1034.5226 9.0054058,1034.6687 9.0053978,1034.8776 8.8542538,1035.1384 8.5519737,1035.4514 8.2601025,1035.7646 7.9369683,1036.0515 7.582569,1036.3123 7.2385807,1036.5732 6.9154465,1036.8497 6.6131644,1037.1421 6.3212953,1037.4342 6.1753647,1037.6742 6.1753688,1037.862 6.1753647,1037.956 6.2014244,1038.0759 6.2535475,1038.2221 6.3056606,1038.3577 6.3473547,1038.4622 6.378632,1038.5353 6.4203222,1038.6083 6.4932874,1038.7334 6.5975298,1038.9109 6.7121852,1039.0882 6.7747274,1039.1873 6.7851565,1039.2082 7.5773515,1040.6381 8.4842138,1041.8641 9.5057435,1042.887 10.527257,1043.9097 11.752041,1044.8175 13.180098,1045.6105 13.200935,1045.6209 13.29996,1045.6837 13.477175,1045.7986 13.654365,1045.903 13.779449,1045.9759 13.852428,1046.0177 13.925382,1046.0491 14.029618,1046.0907 14.16514,1046.143 14.311058,1046.195 14.430932,1046.2211 14.524756,1046.2211 14.712371,1046.2211 14.952115,1046.0751 15.243992,1045.7829 15.535841,1045.4801 15.812071,1045.1567 16.072677,1044.8123 16.333256,1044.4574 16.619907,1044.134 16.932633,1043.8417 17.245329,1043.5391 17.505921,1043.388 17.714411,1043.388 17.860327,1043.388 18.006258,1043.4244 18.152206,1043.4973 18.308546,1043.5704 18.496173,1043.6852 18.715086,1043.8417 18.933967,1043.9878 19.064265,1044.0765 19.105976,1044.1079 19.36655,1044.2646 19.642778,1044.4263 19.934659,1044.5931 20.236928,1044.7602 20.570488,1044.9427 20.935335,1045.141 21.300145,1045.3393 21.581586,1045.4958 21.779656,1045.6105 22.509294,1045.9759 22.905394,1046.2525 22.967959,1046.4402 22.999207,1046.5134 23.014844,1046.6229 23.014866,1046.7692" />
    <path
       style="font-size:14px;font-style:normal;font-variant:normal;font-weight:normal;font-stretch:normal;text-align:end;line-height:125%;letter-spacing:0px;word-spacing:0px;text-anchor:end;fill:#c0392b;fill-opacity:1;stroke:none;font-family:Wingdings;-inkscape-font-specification:Wingdings"
       d="M 8.0625,1032.8622 C 7.910963,1032.9951 7.758858,1033.1157 7.59375,1033.2372 7.249762,1033.4981 6.927283,1033.7885 6.625,1034.0809 6.333131,1034.373 6.187496,1034.6119 6.1875,1034.7997 6.187496,1034.8937 6.197877,1034.9972 6.25,1035.1434 6.302114,1035.279 6.343723,1035.3828 6.375,1035.4559 6.41669,1035.5289 6.489507,1035.6534 6.59375,1035.8309 6.708405,1036.0082 6.770821,1036.1225 6.78125,1036.1434 6.885129,1036.331 7.017177,1036.4942 7.125,1036.6747 7.281368,1036.5414 7.427659,1036.3944 7.59375,1036.2684 7.948149,1036.0076 8.270629,1035.7379 8.5625,1035.4247 8.86478,1035.1117 8.999992,1034.8523 9,1034.6434 8.999992,1034.4973 8.979209,1034.3521 8.90625,1034.2059 8.833277,1034.0493 8.718849,1033.8627 8.5625,1033.6434 8.416561,1033.4242 8.312513,1033.2789 8.28125,1033.2372 8.208882,1033.1165 8.137097,1032.9897 8.0625,1032.8622 z M 1.21875,1033.1122 C 1.07347,1033.6198 1,1034.1415 1,1034.6434 1,1034.9253 1.031229,1035.1847 1.0625,1035.4559 1.104196,1035.7168 1.156187,1036.028 1.25,1036.3622 1.343813,1036.6959 1.41663,1036.9451 1.46875,1037.1122 1.531292,1037.2686 1.656145,1037.5697 1.8125,1037.9872 1.968856,1038.4046 2.062478,1038.6433 2.09375,1038.7372 2.458578,1039.76 2.87466,1040.6835 3.375,1041.4872 4.19847,1042.8229 5.332373,1044.1825 6.75,1045.6122 8.178042,1047.0313 9.540757,1048.1626 10.875,1048.9872 11.677614,1049.4881 12.603467,1049.9345 13.625,1050.2997 13.718802,1050.331 13.958037,1050.4244 14.375,1050.5809 14.791933,1050.7374 15.09363,1050.8307 15.25,1050.8934 15.416767,1050.9455 15.666427,1051.0184 16,1051.1122 16.333543,1051.2061 16.614392,1051.2891 16.875,1051.3309 17.146001,1051.3622 17.437293,1051.3622 17.71875,1051.3622 18.677713,1051.3622 19.645154,1051.1131 20.625,1050.5809 21.677775,1049.9966 22.312331,1049.4465 22.53125,1048.9247 22.645889,1048.6638 22.739491,1048.311 22.84375,1047.8622 22.947963,1047.4031 22.999978,1047.0187 23,1046.7372 22.999978,1046.5909 22.999998,1046.4666 22.96875,1046.3934 22.931565,1046.2819 22.741571,1046.1303 22.46875,1045.9559 22.216446,1046.4504 21.615648,1046.9686 20.625,1047.5184 19.645154,1048.0506 18.677713,1048.3309 17.71875,1048.3309 17.437293,1048.3309 17.146001,1048.2997 16.875,1048.2684 16.614392,1048.2266 16.333543,1048.1748 16,1048.0809 15.666427,1047.9871 15.416767,1047.9143 15.25,1047.8622 15.09363,1047.7995 14.791933,1047.6749 14.375,1047.5184 13.958037,1047.3619 13.718802,1047.2685 13.625,1047.2372 12.603467,1046.872 11.677614,1046.4568 10.875,1045.9559 9.540757,1045.1313 8.178042,1044 6.75,1042.5809 5.332373,1041.1512 4.19847,1039.7604 3.375,1038.4247 2.87466,1037.621 2.458578,1036.7287 2.09375,1035.7059 2.062478,1035.612 1.968856,1035.3421 1.8125,1034.9247 1.656145,1034.5072 1.531292,1034.2373 1.46875,1034.0809 1.41663,1033.9138 1.343813,1033.6646 1.25,1033.3309 1.227643,1033.2513 1.238147,1033.1877 1.21875,1033.1122 z"
       id="path2994-0"
       inkscape:connector-curvature="0" />
  </g>
</svg>
