<?xml version="1.0" encoding="UTF-8" standalone="no"?>
<!-- Created with Inkscape (http://www.inkscape.org/) -->

<svg
   xmlns:dc="http://purl.org/dc/elements/1.1/"
   xmlns:cc="http://creativecommons.org/ns#"
   xmlns:rdf="http://www.w3.org/1999/02/22-rdf-syntax-ns#"
   xmlns:svg="http://www.w3.org/2000/svg"
   xmlns="http://www.w3.org/2000/svg"
   xmlns:sodipodi="http://sodipodi.sourceforge.net/DTD/sodipodi-0.dtd"
   xmlns:inkscape="http://www.inkscape.org/namespaces/inkscape"
   version="1.1"
   width="24"
   height="24"
   id="svg2"
   inkscape:version="0.48.3.1 r9886"
   sodipodi:docname="pin.svg">
  <sodipodi:namedview
     pagecolor="#ffffff"
     bordercolor="#666666"
     borderopacity="1"
     objecttolerance="10"
     gridtolerance="10"
     guidetolerance="10"
     inkscape:pageopacity="0"
     inkscape:pageshadow="2"
     inkscape:window-width="1494"
     inkscape:window-height="978"
     id="namedview4657"
     showgrid="true"
     inkscape:zoom="2.8284271"
     inkscape:cx="-77.546482"
     inkscape:cy="33.744466"
     inkscape:window-x="124"
     inkscape:window-y="98"
     inkscape:window-maximized="0"
     inkscape:current-layer="layer1">
    <inkscape:grid
       type="xygrid"
       id="grid4139"
       empspacing="4"
       visible="true"
       enabled="true"
       snapvisiblegridlinesonly="true" />
  </sodipodi:namedview>
  <defs
     id="defs4" />
  <metadata
     id="metadata7">
    <rdf:RDF>
      <cc:Work
         rdf:about="">
        <dc:format>image/svg+xml</dc:format>
        <dc:type
           rdf:resource="http://purl.org/dc/dcmitype/StillImage" />
        <dc:title />
      </cc:Work>
    </rdf:RDF>
  </metadata>
  <g
     transform="translate(0,-1028.3622)"
     id="layer1">
    <g
       id="g3988"
       transform="matrix(0.70710678,0.70710678,-0.70710678,0.70710678,737.6766,297.71503)">
      <path
         id="rect2987"
         d="M 11,1028.3622 11,1041.3622 12,1041.3622 18.40625,1041.3622 C 17.811279,1040.265 16.989749,1039.3323 16,1038.6435 L 16,1030.581 C 16.616239,1029.9626 17.130624,1029.218 17.53125,1028.3622 L 12,1028.3622 11,1028.3622 z"
         style="fill:#c0392b;fill-opacity:1;fill-rule:nonzero;stroke:none"
         inkscape:connector-curvature="0" />
      <path
         id="rect3058"
         transform="translate(0,1028.3622)"
         d="M 11,13 11,15 11,19 11,21 12,23 12,21 12,15 12,13 11,13 z"
         style="fill:#bdc3c7;fill-opacity:1;fill-rule:nonzero;stroke:none"
         inkscape:connector-curvature="0" />
      <path
         id="rect3058-1"
         transform="translate(0,1028.3622)"
         d="M 12,13 12,15 12,19 12,21 12,23 13,21 13,19 13,15 13,13 12,13 z"
         style="fill:#7f8c8d;fill-opacity:1;fill-rule:nonzero;stroke:none"
         inkscape:connector-curvature="0" />
      <path
         inkscape:connector-curvature="0"
         id="rect2987-6"
         d="M 6.46875,1028.3622 C 6.869377,1029.218 7.383761,1029.9625 8,1030.5809 L 8,1038.6434 C 7.010251,1039.3322 6.188722,1040.265 5.59375,1041.3622 L 12,1041.3622 12,1028.3622 6.46875,1028.3622 z"
         style="fill:#e74c3c;fill-opacity:1;fill-rule:nonzero;stroke:none" />
    </g>
  </g>
</svg>
