<?xml version="1.0" encoding="UTF-8" standalone="no"?>
<!-- Created with Inkscape (http://www.inkscape.org/) -->

<svg
   xmlns:dc="http://purl.org/dc/elements/1.1/"
   xmlns:cc="http://creativecommons.org/ns#"
   xmlns:rdf="http://www.w3.org/1999/02/22-rdf-syntax-ns#"
   xmlns:svg="http://www.w3.org/2000/svg"
   xmlns="http://www.w3.org/2000/svg"
   xmlns:sodipodi="http://sodipodi.sourceforge.net/DTD/sodipodi-0.dtd"
   xmlns:inkscape="http://www.inkscape.org/namespaces/inkscape"
   version="1.1"
   width="24"
   height="24"
   id="svg2"
   inkscape:version="0.48.3.1 r9886"
   sodipodi:docname="sticky-note.svg">
  <sodipodi:namedview
     pagecolor="#ffffff"
     bordercolor="#666666"
     borderopacity="1"
     objecttolerance="10"
     gridtolerance="10"
     guidetolerance="10"
     inkscape:pageopacity="0"
     inkscape:pageshadow="2"
     inkscape:window-width="1920"
     inkscape:window-height="1150"
     id="namedview4657"
     showgrid="true"
     inkscape:zoom="19.666667"
     inkscape:cx="32.65095"
     inkscape:cy="4.2292023"
     inkscape:window-x="0"
     inkscape:window-y="0"
     inkscape:window-maximized="1"
     inkscape:current-layer="layer1">
    <inkscape:grid
       type="xygrid"
       id="grid4139"
       empspacing="4"
       visible="true"
       enabled="true"
       snapvisiblegridlinesonly="true" />
  </sodipodi:namedview>
  <defs
     id="defs4" />
  <metadata
     id="metadata7">
    <rdf:RDF>
      <cc:Work
         rdf:about="">
        <dc:format>image/svg+xml</dc:format>
        <dc:type
           rdf:resource="http://purl.org/dc/dcmitype/StillImage" />
        <dc:title />
      </cc:Work>
    </rdf:RDF>
  </metadata>
  <g
     transform="translate(0,-1028.3622)"
     id="layer1">
    <path
       style="fill:#f1c40f;fill-opacity:1;fill-rule:nonzero;stroke:none"
       d="M 2 4 L 2 17.53125 L 2 20 C 2 21.1046 2.89543 22 4 22 L 8 22 L 16 22 L 22 16 L 22 4 L 2 4 z "
       transform="translate(0,1028.3622)"
       id="rect3155" />
    <path
       style="fill:#f39c12;fill-opacity:1;fill-rule:nonzero;stroke:none"
       d="M 5 9 L 5 10 L 19 10 L 19 9 L 5 9 z M 5 12 L 5 13 L 19 13 L 19 12 L 5 12 z M 5 15 L 5 16 L 12 16 L 12 15 L 5 15 z "
       transform="translate(0,1028.3622)"
       id="rect3031" />
    <path
       d="M 22,1044.3622 16,1050.3622 16,1046.3622 C 16,1045.2576 16.89543,1044.3622 18,1044.3622 L 22,1044.3622 z"
       inkscape:connector-curvature="0"
       id="path2987-80-0"
       style="fill:#f39c12;fill-opacity:1;fill-rule:nonzero;stroke:none" />
    <path
       style="fill:#f39c12;fill-opacity:1;fill-rule:nonzero;stroke:none"
       d="M 2,1033.3622 2,1032.3622 C 2,1031.2576 2.89543,1030.3622 4,1030.3622 L 8,1030.3622 16,1030.3622 20,1030.3622 C 21.10457,1030.3622 22,1031.2576 22,1032.3622 L 22,1033.3622 2,1033.3622 z"
       id="rect3155-6"
       inkscape:connector-curvature="0" />
  </g>
</svg>
