<?xml version="1.0" encoding="UTF-8" standalone="no"?>
<!-- Created with Inkscape (http://www.inkscape.org/) -->

<svg
   xmlns:dc="http://purl.org/dc/elements/1.1/"
   xmlns:cc="http://creativecommons.org/ns#"
   xmlns:rdf="http://www.w3.org/1999/02/22-rdf-syntax-ns#"
   xmlns:svg="http://www.w3.org/2000/svg"
   xmlns="http://www.w3.org/2000/svg"
   xmlns:sodipodi="http://sodipodi.sourceforge.net/DTD/sodipodi-0.dtd"
   xmlns:inkscape="http://www.inkscape.org/namespaces/inkscape"
   version="1.1"
   width="24"
   height="24"
   id="svg2"
   inkscape:version="0.48.3.1 r9886"
   sodipodi:docname="profile-full.svg">
  <sodipodi:namedview
     pagecolor="#ffffff"
     bordercolor="#666666"
     borderopacity="1"
     objecttolerance="10"
     gridtolerance="10"
     guidetolerance="10"
     inkscape:pageopacity="0"
     inkscape:pageshadow="2"
     inkscape:window-width="1920"
     inkscape:window-height="1150"
     id="namedview3067"
     showgrid="true"
     inkscape:zoom="22.627417"
     inkscape:cx="8.2391223"
     inkscape:cy="8.3391998"
     inkscape:window-x="0"
     inkscape:window-y="0"
     inkscape:window-maximized="1"
     inkscape:current-layer="layer1"
     inkscape:snap-global="true"
     inkscape:snap-bbox="true">
    <inkscape:grid
       type="xygrid"
       id="grid4202"
       empspacing="4"
       visible="true"
       enabled="true"
       snapvisiblegridlinesonly="true" />
  </sodipodi:namedview>
  <defs
     id="defs4" />
  <metadata
     id="metadata7">
    <rdf:RDF>
      <cc:Work
         rdf:about="">
        <dc:format>image/svg+xml</dc:format>
        <dc:type
           rdf:resource="http://purl.org/dc/dcmitype/StillImage" />
        <dc:title />
      </cc:Work>
    </rdf:RDF>
  </metadata>
  <g
     transform="translate(0,-1028.3622)"
     id="layer1">
    <path
       style="fill:#34495e;fill-opacity:1;fill-rule:nonzero;stroke:none"
       d="M 12 0 C 11.594747 0 11.195034 0.060326405 10.8125 0.15625 C 10.588438 0.2130329 10.37172 0.2875961 10.15625 0.375 C 10.072786 0.40900796 9.988055 0.43033564 9.90625 0.46875 C 9.872232 0.48458233 9.8462429 0.51469334 9.8125 0.53125 C 9.6092704 0.63183023 9.4103619 0.74828705 9.21875 0.875 C 9.1918235 0.89240296 9.1516877 0.88838639 9.125 0.90625 C 9.0686738 0.94488518 9.0239566 0.99043831 8.96875 1.03125 C 8.8119345 1.1438165 8.647193 1.2472413 8.5 1.375 C 8.3657551 1.4956972 8.2506254 1.6474064 8.125 1.78125 C 7.6998822 2.2170696 7.3313782 2.6783278 7.03125 3.21875 C 6.5158036 4.1221993 6.1310151 5.139287 5.96875 6.1875 C 5.8904725 6.1709732 5.8186775 6.1651389 5.75 6.1875 C 5.2248504 6.3584863 5.0955275 7.3559507 5.4375 8.40625 C 5.6381574 9.0225285 5.9721244 9.507722 6.3125 9.78125 C 6.7697522 11.558966 7.7381839 13.040911 9 13.96875 L 9 15 L 8 16 L 6 17 C 4.3826823 17.80071 2.7716462 18.605435 1.15625 19.40625 C 0.26106784 19.94625 -0.08533247 21.0064 0 22 C 0.041664 22.6258 -0.18448273 23.42725 0.4375 23.84375 C 1.0283892 24.14765 1.733445 23.9499 2.375 24 C 4.2515599 23.999077 6.1234072 23.999626 8 24 C 10.668932 24.000532 13.331091 24.000383 16 24 C 18.366572 23.99966 20.727274 24.004143 23.09375 24 C 23.86223 23.9457 24.074781 23.1351 24 22.5 C 24.013666 21.5677 24.069085 20.5241 23.34375 19.8125 C 22.752138 19.2102 21.909557 18.9719 21.1875 18.5625 C 20.127092 18.037375 19.060408 17.525096 18 17 L 16 16 L 15 15 L 15 13.96875 C 16.261816 13.040898 17.230248 11.558926 17.6875 9.78125 C 18.027876 9.50765 18.361843 9.02245 18.5625 8.40625 C 18.904472 7.35595 18.77515 6.3585 18.25 6.1875 C 18.181323 6.1651189 18.109528 6.1709667 18.03125 6.1875 C 17.868985 5.139287 17.484196 4.1221993 16.96875 3.21875 C 16.668622 2.6783278 16.300118 2.2170696 15.875 1.78125 C 15.749375 1.6474069 15.634245 1.4956967 15.5 1.375 C 15.493669 1.369505 15.4751 1.3804682 15.46875 1.375 C 15.076863 1.0251113 14.641752 0.75606192 14.1875 0.53125 C 14.072931 0.47503438 13.961368 0.42271094 13.84375 0.375 C 13.760286 0.34099232 13.678784 0.31073833 13.59375 0.28125 C 13.338512 0.19276766 13.078057 0.10769209 12.8125 0.0625 C 12.792124 0.059094888 12.77044 0.065648138 12.75 0.0625 C 12.500613 0.02335625 12.255368 -0.00275 12 0 z "
       transform="translate(0,1028.3622)"
       id="path4131" />
    <path
       style="fill:#2c3e50;fill-opacity:1;fill-rule:nonzero;stroke:none"
       d="M 0,1051.3622 C 0.026419,1051.6928 0.126509,1051.9977 0.4375,1052.206 1.028389,1052.5099 1.733445,1052.3121 2.375,1052.3622 4.25156,1052.3613 6.123407,1052.3618 8,1052.3622 10.668932,1052.3627 13.331091,1052.3626 16,1052.3622 18.366572,1052.3619 20.727274,1052.3663 23.09375,1052.3622 23.67011,1052.3215 23.935746,1051.8607 24,1051.3622 L 0,1051.3622 z"
       id="path4131-9"
       inkscape:connector-curvature="0" />
  </g>
</svg>
