<?xml version="1.0" encoding="UTF-8" standalone="no"?>
<!-- Created with Inkscape (http://www.inkscape.org/) -->

<svg
   xmlns:dc="http://purl.org/dc/elements/1.1/"
   xmlns:cc="http://creativecommons.org/ns#"
   xmlns:rdf="http://www.w3.org/1999/02/22-rdf-syntax-ns#"
   xmlns:svg="http://www.w3.org/2000/svg"
   xmlns="http://www.w3.org/2000/svg"
   xmlns:sodipodi="http://sodipodi.sourceforge.net/DTD/sodipodi-0.dtd"
   xmlns:inkscape="http://www.inkscape.org/namespaces/inkscape"
   width="24"
   height="24"
   id="svg2"
   version="1.1"
   inkscape:version="0.48.3.1 r9886"
   sodipodi:docname="puzzle.svg">
  <defs
     id="defs4" />
  <sodipodi:namedview
     id="base"
     pagecolor="#ffffff"
     bordercolor="#666666"
     borderopacity="1.0"
     inkscape:pageopacity="0.0"
     inkscape:pageshadow="2"
     inkscape:zoom="22.627417"
     inkscape:cx="7.861091"
     inkscape:cy="5.8326559"
     inkscape:document-units="px"
     inkscape:current-layer="layer1"
     showgrid="true"
     inkscape:window-width="1920"
     inkscape:window-height="1150"
     inkscape:window-x="0"
     inkscape:window-y="0"
     inkscape:window-maximized="1"
     showguides="true"
     inkscape:guide-bbox="true"
     inkscape:snap-bbox="true"
     inkscape:snap-bbox-midpoints="false"
     inkscape:snap-global="true"
     inkscape:bbox-nodes="true">
    <inkscape:grid
       type="xygrid"
       id="grid2985"
       empspacing="4"
       visible="true"
       enabled="true"
       snapvisiblegridlinesonly="true" />
  </sodipodi:namedview>
  <metadata
     id="metadata7">
    <rdf:RDF>
      <cc:Work
         rdf:about="">
        <dc:format>image/svg+xml</dc:format>
        <dc:type
           rdf:resource="http://purl.org/dc/dcmitype/StillImage" />
        <dc:title />
      </cc:Work>
    </rdf:RDF>
  </metadata>
  <g
     inkscape:label="Layer 1"
     inkscape:groupmode="layer"
     id="layer1"
     transform="translate(0,-1028.3622)">
    <path
       style="fill:#16a085;fill-opacity:1;fill-rule:nonzero;stroke:none"
       d="M 9.1317066,1030.2935 C 7.4183866,1030.1201 5.8489106,1032.2292 6.77426,1033.7702 7.7827776,1034.4418 8.5221076,1036.271 7.1898776,1037.0035 5.7784246,1037.8042 3.8805192,1036.6647 2.6302007,1037.8886 1.626647,1039.0402 2.1659489,1040.6403 2.0589314,1042.0108 2.0371811,1044.6199 1.9800317,1047.2309 2.1039444,1049.8384 2.4196464,1051.0939 3.8885805,1051.3745 5,1051.3622 5.975812,1051.4379 7.1117976,1051.3071 7.6923646,1050.4038 8.4505606,1049.1561 6.798344,1048.3651 6.4930556,1047.2849 5.9555437,1045.7028 7.5624456,1044.1648 9.1097626,1044.2751 10.612824,1044.2701 12.110323,1045.8038 11.597461,1047.3303 11.04917,1048.2954 9.5955396,1049.3571 10.487043,1050.5772 11.491433,1051.6334 13.104742,1051.2951 14.403769,1051.277 15.771645,1050.9643 16.356064,1049.4171 15.995063,1048.1615 15.905947,1047.0982 16.224714,1045.6689 17.437665,1045.4153 18.791615,1045.3225 19.453565,1047.207 20.880626,1046.8815 22.595042,1046.7086 23.588615,1044.5827 22.781539,1043.1029 22.291543,1041.9968 20.821508,1041.118 19.697893,1041.8705 18.875236,1042.6448 17.540657,1043.8288 16.520167,1042.6278 15.357864,1041.2559 16.717306,1039.2062 15.457612,1037.8783 14.162841,1036.5797 12.097937,1037.9709 10.755846,1036.8037 9.7849206,1036.026 10.485456,1034.7694 11.153165,1034.0499 12.345428,1032.9744 11.524861,1030.905 10.131006,1030.4472 9.8120276,1030.3358 9.4678836,1030.3023 9.1317066,1030.2935 z"
       id="path3374-1"
       inkscape:connector-curvature="0" />
    <path
       style="fill:#1abc9c;fill-opacity:1;fill-rule:nonzero;stroke:none"
       d="M 9.09375,1029.3622 C 7.3804302,1029.1888 5.810954,1031.2979 6.7363034,1032.8389 7.7448214,1033.5105 8.4841512,1035.3397 7.1519213,1036.0722 5.740468,1036.8729 3.8425626,1035.7334 2.5922441,1036.9573 1.5886904,1038.1089 2.1279923,1039.709 2.0209748,1041.0795 1.9992245,1043.6886 1.9420751,1046.2996 2.0659878,1048.9071 2.3816898,1050.1626 3.8506239,1050.4432 4.9620434,1050.4309 5.9378554,1050.5066 7.0738411,1050.3758 7.6544083,1049.4725 8.4126037,1048.2248 6.7603874,1047.4338 6.455099,1046.3536 5.9175871,1044.7715 7.5244894,1043.2335 9.0718064,1043.3438 10.574867,1043.3388 12.072366,1044.8725 11.559504,1046.399 11.011213,1047.3641 9.5575827,1048.4258 10.449086,1049.6459 11.453476,1050.7021 13.066785,1050.3638 14.365812,1050.3457 15.733688,1050.033 16.318107,1048.4858 15.957106,1047.2302 15.86799,1046.1669 16.186757,1044.7376 17.399708,1044.484 18.753658,1044.3912 19.415608,1046.2757 20.842669,1045.9502 22.557085,1045.7773 23.550658,1043.6514 22.743582,1042.1716 22.253586,1041.0655 20.783551,1040.1867 19.659936,1040.9392 18.837279,1041.7135 17.5027,1042.8975 16.48221,1041.6965 15.319907,1040.3246 16.679349,1038.2749 15.419655,1036.947 14.124884,1035.6484 12.05998,1037.0396 10.717889,1035.8724 9.7469637,1035.0947 10.447499,1033.8381 11.115208,1033.1186 12.307471,1032.0431 11.486904,1029.9737 10.093049,1029.5159 9.7740711,1029.4045 9.4299267,1029.371 9.09375,1029.3622 z"
       id="path3374"
       inkscape:connector-curvature="0" />
  </g>
</svg>
