<?xml version="1.0" encoding="UTF-8" standalone="no"?>
<!-- Created with Inkscape (http://www.inkscape.org/) -->

<svg
   xmlns:dc="http://purl.org/dc/elements/1.1/"
   xmlns:cc="http://creativecommons.org/ns#"
   xmlns:rdf="http://www.w3.org/1999/02/22-rdf-syntax-ns#"
   xmlns:svg="http://www.w3.org/2000/svg"
   xmlns="http://www.w3.org/2000/svg"
   xmlns:sodipodi="http://sodipodi.sourceforge.net/DTD/sodipodi-0.dtd"
   xmlns:inkscape="http://www.inkscape.org/namespaces/inkscape"
   width="24"
   height="24"
   id="svg2"
   version="1.1"
   inkscape:version="0.48.3.1 r9886"
   sodipodi:docname="0-start.svg">
  <defs
     id="defs4" />
  <sodipodi:namedview
     id="base"
     pagecolor="#ffffff"
     bordercolor="#666666"
     borderopacity="1.0"
     inkscape:pageopacity="0.0"
     inkscape:pageshadow="2"
     inkscape:zoom="22.627417"
     inkscape:cx="26.948255"
     inkscape:cy="5.4854495"
     inkscape:document-units="px"
     inkscape:current-layer="layer1"
     showgrid="true"
     inkscape:window-width="1920"
     inkscape:window-height="1150"
     inkscape:window-x="0"
     inkscape:window-y="0"
     inkscape:window-maximized="1"
     showguides="true"
     inkscape:guide-bbox="true"
     inkscape:snap-bbox="true"
     inkscape:snap-bbox-midpoints="false"
     inkscape:snap-global="true"
     inkscape:bbox-nodes="true">
    <inkscape:grid
       type="xygrid"
       id="grid2985"
       empspacing="4"
       visible="true"
       enabled="true"
       snapvisiblegridlinesonly="true" />
  </sodipodi:namedview>
  <metadata
     id="metadata7">
    <rdf:RDF>
      <cc:Work
         rdf:about="">
        <dc:format>image/svg+xml</dc:format>
        <dc:type
           rdf:resource="http://purl.org/dc/dcmitype/StillImage" />
        <dc:title></dc:title>
      </cc:Work>
    </rdf:RDF>
  </metadata>
  <g
     inkscape:label="Layer 1"
     inkscape:groupmode="layer"
     id="layer1"
     transform="translate(0,-1028.3622)">
    <path
       inkscape:connector-curvature="0"
       style="fill:#16a085;fill-opacity:1;fill-rule:nonzero;stroke:none"
       d="M 9.09375,1030.3622 C 7.805921,1030.3182 6.516858,1031.3662 6.46875,1032.6747 6.423679,1033.5523 6.904784,1034.4212 7.6875,1034.831 8.024119,1035.1348 7.955254,1035.6197 7.875,1036.0185 7.699113,1036.6659 7.176177,1037.2404 6.5,1037.3622 L 5,1037.3622 4,1037.3622 C 2.895431,1037.3622 2,1038.2576 2,1039.3622 L 2,1049.3622 C 2,1050.4668 2.895431,1051.3622 4,1051.3622 L 6,1051.3622 6.4375,1051.3622 C 7.113677,1051.2403 7.636613,1050.6659 7.8125,1050.0185 7.892753,1049.6196 7.930369,1049.1349 7.59375,1048.831 6.811034,1048.4212 6.329929,1047.5209 6.375,1046.6435 6.423108,1045.3349 7.712171,1044.3184 9,1044.3622 9.908526,1044.3468 10.835967,1044.8433 11.3125,1045.6122 11.890843,1046.49 11.654393,1047.7074 10.90625,1048.4247 10.663094,1048.7115 10.17452,1048.821 10.1875,1049.2685 9.996857,1050.1821 10.623357,1051.1566 11.53125,1051.3622 L 13,1051.3622 14,1051.3622 C 15.104569,1051.3622 16,1050.4668 16,1049.3622 L 16,1048.3622 16,1046.8622 C 16.233755,1045.985 17.198479,1045.3322 18.09375,1045.5185 18.541779,1045.5056 18.65032,1045.9944 18.9375,1046.2372 19.655715,1046.9844 20.871113,1047.2211 21.75,1046.6435 22.51999,1046.1677 23.015506,1045.2384 23,1044.331 23.043891,1043.045 21.997772,1041.754 20.6875,1041.706 19.808874,1041.6609 18.97277,1042.1744 18.5625,1042.956 18.258235,1043.2923 17.711908,1043.2549 17.3125,1043.1747 16.690787,1043.0062 16.150776,1042.4989 16,1041.8622 L 16,1039.3622 C 16,1038.2576 15.104569,1037.3622 14,1037.3622 L 13,1037.3622 11.625,1037.3622 C 10.717108,1037.1566 10.028107,1036.1823 10.21875,1035.2685 10.205771,1034.8211 10.725595,1034.7115 10.96875,1034.4247 11.716892,1033.7074 11.953343,1032.4899 11.375,1031.6122 10.898467,1030.8431 10.002276,1030.3466 9.09375,1030.3622 z"
       id="path3374-9" />
    <path
       style="fill:#1abc9c;fill-opacity:1;fill-rule:nonzero;stroke:none"
       d="M 9.09375 1 C 7.805921 0.956 6.516858 2.004 6.46875 3.3125 C 6.423679 4.1901 6.904784 5.05895 7.6875 5.46875 C 8.024119 5.77255 7.955254 6.25745 7.875 6.65625 C 7.699113 7.30365 7.176177 7.8782 6.5 8 L 5 8 L 4 8 C 2.895431 8 2 8.8954 2 10 L 2 20 C 2 21.1046 2.895431 22 4 22 L 6 22 L 6.4375 22 C 7.113677 21.8781 7.636613 21.30365 7.8125 20.65625 C 7.892753 20.25735 7.930369 19.77265 7.59375 19.46875 C 6.811034 19.05895 6.329929 18.15865 6.375 17.28125 C 6.423108 15.97265 7.712171 14.9562 9 15 C 9.908526 14.9846 10.835967 15.4811 11.3125 16.25 C 11.890843 17.1278 11.654393 18.3452 10.90625 19.0625 C 10.663094 19.3493 10.17452 19.45875 10.1875 19.90625 C 9.996857 20.81985 10.623357 21.7944 11.53125 22 L 13 22 L 14 22 C 15.104569 22 16 21.1046 16 20 L 16 19 L 16 17.5 C 16.233755 16.6228 17.198479 15.96995 18.09375 16.15625 C 18.541779 16.14335 18.65032 16.6322 18.9375 16.875 C 19.655715 17.6222 20.871113 17.85885 21.75 17.28125 C 22.51999 16.80545 23.015506 15.87615 23 14.96875 C 23.043891 13.68275 21.997772 12.39175 20.6875 12.34375 C 19.808874 12.29865 18.97277 12.81215 18.5625 13.59375 C 18.258235 13.93005 17.711908 13.8927 17.3125 13.8125 C 16.690787 13.644 16.150776 13.1367 16 12.5 L 16 10 C 16 8.8954 15.104569 8 14 8 L 13 8 L 11.625 8 C 10.717108 7.7944 10.028107 6.82005 10.21875 5.90625 C 10.205771 5.45885 10.725595 5.3493 10.96875 5.0625 C 11.716892 4.3452 11.953343 3.1277 11.375 2.25 C 10.898467 1.4809 10.002276 0.9844 9.09375 1 z "
       id="path3374"
       transform="translate(0,1028.3622)" />
  </g>
</svg>
