<?xml version="1.0" encoding="UTF-8" standalone="no"?>
<!-- Created with Inkscape (http://www.inkscape.org/) -->

<svg
   xmlns:dc="http://purl.org/dc/elements/1.1/"
   xmlns:cc="http://creativecommons.org/ns#"
   xmlns:rdf="http://www.w3.org/1999/02/22-rdf-syntax-ns#"
   xmlns:svg="http://www.w3.org/2000/svg"
   xmlns="http://www.w3.org/2000/svg"
   xmlns:sodipodi="http://sodipodi.sourceforge.net/DTD/sodipodi-0.dtd"
   xmlns:inkscape="http://www.inkscape.org/namespaces/inkscape"
   width="24"
   height="24"
   id="svg2"
   version="1.1"
   inkscape:version="0.48.3.1 r9886"
   sodipodi:docname="radio.svg">
  <defs
     id="defs4" />
  <sodipodi:namedview
     id="base"
     pagecolor="#ffffff"
     bordercolor="#666666"
     borderopacity="1.0"
     inkscape:pageopacity="0.0"
     inkscape:pageshadow="2"
     inkscape:zoom="32"
     inkscape:cx="10.652834"
     inkscape:cy="17.573235"
     inkscape:document-units="px"
     inkscape:current-layer="layer1"
     showgrid="true"
     inkscape:window-width="1920"
     inkscape:window-height="1150"
     inkscape:window-x="0"
     inkscape:window-y="0"
     inkscape:window-maximized="1"
     showguides="true"
     inkscape:guide-bbox="true"
     inkscape:snap-bbox="true"
     inkscape:snap-bbox-midpoints="false"
     inkscape:snap-global="false"
     inkscape:bbox-nodes="false"
     inkscape:snap-nodes="true"
     inkscape:snap-bbox-edge-midpoints="false">
    <inkscape:grid
       type="xygrid"
       id="grid2985"
       empspacing="4"
       visible="true"
       enabled="true"
       snapvisiblegridlinesonly="true" />
  </sodipodi:namedview>
  <metadata
     id="metadata7">
    <rdf:RDF>
      <cc:Work
         rdf:about="">
        <dc:format>image/svg+xml</dc:format>
        <dc:type
           rdf:resource="http://purl.org/dc/dcmitype/StillImage" />
        <dc:title />
      </cc:Work>
    </rdf:RDF>
  </metadata>
  <g
     inkscape:label="Layer 1"
     inkscape:groupmode="layer"
     id="layer1"
     transform="translate(0,-1028.3622)">
    <path
       style="fill:#f1c40f;fill-opacity:1;fill-rule:nonzero;stroke:none"
       d="M 8,1031.3622 C 3.9217123,1031.3622 0.55631089,1034.4177 0.0625,1038.3622 L 0,1038.3622 0,1039.3622 0,1042.3622 0.59375,1042.3622 C 1.7797393,1045.2957 4.6414184,1047.3622 8,1047.3622 L 22,1047.3622 C 23.104569,1047.3622 24,1046.4668 24,1045.3622 L 24,1033.3622 C 24,1032.2576 23.104569,1031.3622 22,1031.3622 L 8,1031.3622 z"
       id="rect3399-5"
       inkscape:connector-curvature="0" />
    <path
       style="fill:#f39c12;fill-opacity:1;fill-rule:nonzero;stroke:none"
       d="M 8,1034.3622 C 3.581722,1034.3622 0,1037.9439 0,1042.3622 0,1046.7805 3.581722,1050.3622 8,1050.3622 L 22,1050.3622 C 23.104569,1050.3622 24,1049.4668 24,1048.3622 L 24,1036.3622 C 24,1035.2576 23.104569,1034.3622 22,1034.3622 L 8,1034.3622 z"
       id="rect3399"
       inkscape:connector-curvature="0" />
    <path
       style="fill:#e67e22;fill-opacity:1;fill-rule:nonzero;stroke:none"
       d="M 16,1045.3622 16,1047.3622 C 16,1048.4668 16.895431,1049.3622 18,1049.3622 19.104569,1049.3622 20,1048.4668 20,1047.3622 L 20,1045.3622 18,1045.3622 16,1045.3622 z"
       id="path3445-4"
       inkscape:connector-curvature="0" />
    <path
       style="fill:#f1c40f;fill-opacity:1;fill-rule:nonzero;stroke:none"
       d="M 7.5,1037.8622 C 7.223858,1037.8622 7,1038.0861 7,1038.3622 7,1038.6383 7.223858,1038.8622 7.5,1038.8622 7.776142,1038.8622 8,1038.6383 8,1038.3622 8,1038.0861 7.776142,1037.8622 7.5,1037.8622 z M 5.5,1038.3622 C 5.223858,1038.3622 5,1038.5861 5,1038.8622 5,1039.1383 5.223858,1039.3622 5.5,1039.3622 5.776142,1039.3622 6,1039.1383 6,1038.8622 6,1038.5861 5.776142,1038.3622 5.5,1038.3622 z M 9.5,1038.3622 C 9.223858,1038.3622 9,1038.5861 9,1038.8622 9,1039.1383 9.223858,1039.3622 9.5,1039.3622 9.776142,1039.3622 10,1039.1383 10,1038.8622 10,1038.5861 9.776142,1038.3622 9.5,1038.3622 z M 4.5,1039.8622 C 4.223858,1039.8622 4,1040.0861 4,1040.3622 4,1040.6383 4.223858,1040.8622 4.5,1040.8622 4.776142,1040.8622 5,1040.6383 5,1040.3622 5,1040.0861 4.776142,1039.8622 4.5,1039.8622 z M 6.5,1039.8622 C 6.223858,1039.8622 6,1040.0861 6,1040.3622 6,1040.6383 6.223858,1040.8622 6.5,1040.8622 6.776142,1040.8622 7,1040.6383 7,1040.3622 7,1040.0861 6.776142,1039.8622 6.5,1039.8622 z M 8.5,1039.8622 C 8.223858,1039.8622 8,1040.0861 8,1040.3622 8,1040.6383 8.223858,1040.8622 8.5,1040.8622 8.776142,1040.8622 9,1040.6383 9,1040.3622 9,1040.0861 8.776142,1039.8622 8.5,1039.8622 z M 10.5,1039.8622 C 10.223858,1039.8622 10,1040.0861 10,1040.3622 10,1040.6383 10.223858,1040.8622 10.5,1040.8622 10.776142,1040.8622 11,1040.6383 11,1040.3622 11,1040.0861 10.776142,1039.8622 10.5,1039.8622 z M 3.5,1041.8622 C 3.223858,1041.8622 3,1042.0861 3,1042.3622 3,1042.6383 3.223858,1042.8622 3.5,1042.8622 3.776142,1042.8622 4,1042.6383 4,1042.3622 4,1042.0861 3.776142,1041.8622 3.5,1041.8622 z M 5.5,1041.8622 C 5.223858,1041.8622 5,1042.0861 5,1042.3622 5,1042.6383 5.223858,1042.8622 5.5,1042.8622 5.776142,1042.8622 6,1042.6383 6,1042.3622 6,1042.0861 5.776142,1041.8622 5.5,1041.8622 z M 7.5,1041.8622 C 7.223858,1041.8622 7,1042.0861 7,1042.3622 7,1042.6383 7.223858,1042.8622 7.5,1042.8622 7.776142,1042.8622 8,1042.6383 8,1042.3622 8,1042.0861 7.776142,1041.8622 7.5,1041.8622 z M 9.5,1041.8622 C 9.223858,1041.8622 9,1042.0861 9,1042.3622 9,1042.6383 9.223858,1042.8622 9.5,1042.8622 9.776142,1042.8622 10,1042.6383 10,1042.3622 10,1042.0861 9.776142,1041.8622 9.5,1041.8622 z M 11.5,1041.8622 C 11.223858,1041.8622 11,1042.0861 11,1042.3622 11,1042.6383 11.223858,1042.8622 11.5,1042.8622 11.776142,1042.8622 12,1042.6383 12,1042.3622 12,1042.0861 11.776142,1041.8622 11.5,1041.8622 z M 4.5,1043.8622 C 4.223858,1043.8622 4,1044.0861 4,1044.3622 4,1044.6383 4.223858,1044.8622 4.5,1044.8622 4.776142,1044.8622 5,1044.6383 5,1044.3622 5,1044.0861 4.776142,1043.8622 4.5,1043.8622 z M 6.5,1043.8622 C 6.223858,1043.8622 6,1044.0861 6,1044.3622 6,1044.6383 6.223858,1044.8622 6.5,1044.8622 6.776142,1044.8622 7,1044.6383 7,1044.3622 7,1044.0861 6.776142,1043.8622 6.5,1043.8622 z M 8.5,1043.8622 C 8.223858,1043.8622 8,1044.0861 8,1044.3622 8,1044.6383 8.223858,1044.8622 8.5,1044.8622 8.776142,1044.8622 9,1044.6383 9,1044.3622 9,1044.0861 8.776142,1043.8622 8.5,1043.8622 z M 10.5,1043.8622 C 10.223858,1043.8622 10,1044.0861 10,1044.3622 10,1044.6383 10.223858,1044.8622 10.5,1044.8622 10.776142,1044.8622 11,1044.6383 11,1044.3622 11,1044.0861 10.776142,1043.8622 10.5,1043.8622 z M 5.5,1045.3622 C 5.223858,1045.3622 5,1045.5861 5,1045.8622 5,1046.1383 5.223858,1046.3622 5.5,1046.3622 5.776142,1046.3622 6,1046.1383 6,1045.8622 6,1045.5861 5.776142,1045.3622 5.5,1045.3622 z M 9.5,1045.3622 C 9.223858,1045.3622 9,1045.5861 9,1045.8622 9,1046.1383 9.223858,1046.3622 9.5,1046.3622 9.776142,1046.3622 10,1046.1383 10,1045.8622 10,1045.5861 9.776142,1045.3622 9.5,1045.3622 z M 7.5,1045.8622 C 7.223858,1045.8622 7,1046.0861 7,1046.3622 7,1046.6383 7.223858,1046.8622 7.5,1046.8622 7.776142,1046.8622 8,1046.6383 8,1046.3622 8,1046.0861 7.776142,1045.8622 7.5,1045.8622 z"
       id="path2989"
       inkscape:connector-curvature="0" />
    <path
       style="fill:#d35400;fill-opacity:1;fill-rule:nonzero;stroke:none"
       d="M 7.5,1037.3622 C 7.223858,1037.3622 7,1037.5861 7,1037.8622 7,1038.1383 7.223858,1038.3622 7.5,1038.3622 7.776142,1038.3622 8,1038.1383 8,1037.8622 8,1037.5861 7.776142,1037.3622 7.5,1037.3622 z M 5.5,1037.8622 C 5.223858,1037.8622 5,1038.0861 5,1038.3622 5,1038.6383 5.223858,1038.8622 5.5,1038.8622 5.776142,1038.8622 6,1038.6383 6,1038.3622 6,1038.0861 5.776142,1037.8622 5.5,1037.8622 z M 9.5,1037.8622 C 9.223858,1037.8622 9,1038.0861 9,1038.3622 9,1038.6383 9.223858,1038.8622 9.5,1038.8622 9.776142,1038.8622 10,1038.6383 10,1038.3622 10,1038.0861 9.776142,1037.8622 9.5,1037.8622 z M 4.5,1039.3622 C 4.223858,1039.3622 4,1039.5861 4,1039.8622 4,1040.1383 4.223858,1040.3622 4.5,1040.3622 4.776142,1040.3622 5,1040.1383 5,1039.8622 5,1039.5861 4.776142,1039.3622 4.5,1039.3622 z M 6.5,1039.3622 C 6.223858,1039.3622 6,1039.5861 6,1039.8622 6,1040.1383 6.223858,1040.3622 6.5,1040.3622 6.776142,1040.3622 7,1040.1383 7,1039.8622 7,1039.5861 6.776142,1039.3622 6.5,1039.3622 z M 8.5,1039.3622 C 8.223858,1039.3622 8,1039.5861 8,1039.8622 8,1040.1383 8.223858,1040.3622 8.5,1040.3622 8.776142,1040.3622 9,1040.1383 9,1039.8622 9,1039.5861 8.776142,1039.3622 8.5,1039.3622 z M 10.5,1039.3622 C 10.223858,1039.3622 10,1039.5861 10,1039.8622 10,1040.1383 10.223858,1040.3622 10.5,1040.3622 10.776142,1040.3622 11,1040.1383 11,1039.8622 11,1039.5861 10.776142,1039.3622 10.5,1039.3622 z M 3.5,1041.3622 C 3.223858,1041.3622 3,1041.5861 3,1041.8622 3,1042.1383 3.223858,1042.3622 3.5,1042.3622 3.776142,1042.3622 4,1042.1383 4,1041.8622 4,1041.5861 3.776142,1041.3622 3.5,1041.3622 z M 5.5,1041.3622 C 5.223858,1041.3622 5,1041.5861 5,1041.8622 5,1042.1383 5.223858,1042.3622 5.5,1042.3622 5.776142,1042.3622 6,1042.1383 6,1041.8622 6,1041.5861 5.776142,1041.3622 5.5,1041.3622 z M 7.5,1041.3622 C 7.223858,1041.3622 7,1041.5861 7,1041.8622 7,1042.1383 7.223858,1042.3622 7.5,1042.3622 7.776142,1042.3622 8,1042.1383 8,1041.8622 8,1041.5861 7.776142,1041.3622 7.5,1041.3622 z M 9.5,1041.3622 C 9.223858,1041.3622 9,1041.5861 9,1041.8622 9,1042.1383 9.223858,1042.3622 9.5,1042.3622 9.776142,1042.3622 10,1042.1383 10,1041.8622 10,1041.5861 9.776142,1041.3622 9.5,1041.3622 z M 11.5,1041.3622 C 11.223858,1041.3622 11,1041.5861 11,1041.8622 11,1042.1383 11.223858,1042.3622 11.5,1042.3622 11.776142,1042.3622 12,1042.1383 12,1041.8622 12,1041.5861 11.776142,1041.3622 11.5,1041.3622 z M 4.5,1043.3622 C 4.223858,1043.3622 4,1043.5861 4,1043.8622 4,1044.1383 4.223858,1044.3622 4.5,1044.3622 4.776142,1044.3622 5,1044.1383 5,1043.8622 5,1043.5861 4.776142,1043.3622 4.5,1043.3622 z M 6.5,1043.3622 C 6.223858,1043.3622 6,1043.5861 6,1043.8622 6,1044.1383 6.223858,1044.3622 6.5,1044.3622 6.776142,1044.3622 7,1044.1383 7,1043.8622 7,1043.5861 6.776142,1043.3622 6.5,1043.3622 z M 8.5,1043.3622 C 8.223858,1043.3622 8,1043.5861 8,1043.8622 8,1044.1383 8.223858,1044.3622 8.5,1044.3622 8.776142,1044.3622 9,1044.1383 9,1043.8622 9,1043.5861 8.776142,1043.3622 8.5,1043.3622 z M 10.5,1043.3622 C 10.223858,1043.3622 10,1043.5861 10,1043.8622 10,1044.1383 10.223858,1044.3622 10.5,1044.3622 10.776142,1044.3622 11,1044.1383 11,1043.8622 11,1043.5861 10.776142,1043.3622 10.5,1043.3622 z M 5.5,1044.8622 C 5.223858,1044.8622 5,1045.0861 5,1045.3622 5,1045.6383 5.223858,1045.8622 5.5,1045.8622 5.776142,1045.8622 6,1045.6383 6,1045.3622 6,1045.0861 5.776142,1044.8622 5.5,1044.8622 z M 9.5,1044.8622 C 9.223858,1044.8622 9,1045.0861 9,1045.3622 9,1045.6383 9.223858,1045.8622 9.5,1045.8622 9.776142,1045.8622 10,1045.6383 10,1045.3622 10,1045.0861 9.776142,1044.8622 9.5,1044.8622 z M 7.5,1045.3622 C 7.223858,1045.3622 7,1045.5861 7,1045.8622 7,1046.1383 7.223858,1046.3622 7.5,1046.3622 7.776142,1046.3622 8,1046.1383 8,1045.8622 8,1045.5861 7.776142,1045.3622 7.5,1045.3622 z"
       id="path2989-9"
       inkscape:connector-curvature="0" />
    <path
       style="fill:#f1c40f;fill-opacity:1;fill-rule:nonzero;stroke:none"
       d="M 18,1043.3622 C 16.895431,1043.3622 16,1044.2576 16,1045.3622 L 16,1046.3622 16.28125,1046.3622 C 16.627293,1046.9591 17.260396,1047.3622 18,1047.3622 18.739604,1047.3622 19.372707,1046.9591 19.71875,1046.3622 L 20,1046.3622 20,1045.3622 C 20,1044.2576 19.104569,1043.3622 18,1043.3622 z"
       id="path3445-6"
       inkscape:connector-curvature="0" />
    <path
       sodipodi:type="arc"
       style="fill:#f39c12;fill-opacity:1;fill-rule:nonzero;stroke:none"
       id="path3445"
       sodipodi:cx="18"
       sodipodi:cy="10"
       sodipodi:rx="2"
       sodipodi:ry="2"
       d="M 20,10 C 20,11.104569 19.104569,12 18,12 16.895431,12 16,11.104569 16,10 16,8.8954305 16.895431,8 18,8 19.104569,8 20,8.8954305 20,10 z"
       transform="translate(0,1036.3622)" />
    <path
       style="fill:#e67e22;fill-opacity:1;fill-rule:nonzero;stroke:none"
       d="M 16,1038.3622 16,1040.3622 C 16,1041.4668 16.895431,1042.3622 18,1042.3622 19.104569,1042.3622 20,1041.4668 20,1040.3622 L 20,1038.3622 18,1038.3622 16,1038.3622 z"
       id="path3445-4-4"
       inkscape:connector-curvature="0" />
    <path
       style="fill:#f1c40f;fill-opacity:1;fill-rule:nonzero;stroke:none"
       d="M 18,1036.3622 C 16.895431,1036.3622 16,1037.2576 16,1038.3622 L 16,1039.3622 16.28125,1039.3622 C 16.627293,1039.9591 17.260396,1040.3622 18,1040.3622 18.739604,1040.3622 19.372707,1039.9591 19.71875,1039.3622 L 20,1039.3622 20,1038.3622 C 20,1037.2576 19.104569,1036.3622 18,1036.3622 z"
       id="path3445-6-1"
       inkscape:connector-curvature="0" />
    <path
       sodipodi:type="arc"
       style="fill:#f39c12;fill-opacity:1;fill-rule:nonzero;stroke:none"
       id="path3445-2"
       sodipodi:cx="18"
       sodipodi:cy="10"
       sodipodi:rx="2"
       sodipodi:ry="2"
       d="M 20,10 C 20,11.104569 19.104569,12 18,12 16.895431,12 16,11.104569 16,10 16,8.8954305 16.895431,8 18,8 19.104569,8 20,8.8954305 20,10 z"
       transform="translate(0,1029.3622)" />
    <path
       style="fill:#f39c12;fill-opacity:1;fill-rule:nonzero;stroke:none"
       d="M 8,1032.3622 C 3.921712,1032.3622 0.556311,1035.4177 0.0625,1039.3622 L 0,1039.3622 0,1040.3622 0.0625,1040.3622 C 0.556311,1036.4177 3.921712,1033.3622 8,1033.3622 L 21,1033.3622 21,1032.3622 8,1032.3622 z"
       id="rect3399-5-8"
       inkscape:connector-curvature="0" />
    <path
       style="fill:#bdc3c7;fill-opacity:1;stroke:none"
       d="M 21,1032.3622 0,1028.3622 0,1029.3622 21,1033.3622 21,1033.3622 z"
       id="path3447"
       inkscape:connector-curvature="0"
       sodipodi:nodetypes="cccccc" />
    <path
       style="fill:#7f8c8d;fill-opacity:1;stroke:none"
       d="M 0,1028.8622 0,1029.3622 21,1033.3622 21,1032.827 z"
       id="path3447-4"
       inkscape:connector-curvature="0"
       sodipodi:nodetypes="ccccc" />
  </g>
</svg>
