<?xml version="1.0" encoding="UTF-8" standalone="no"?>
<!-- Created with Inkscape (http://www.inkscape.org/) -->

<svg
   xmlns:dc="http://purl.org/dc/elements/1.1/"
   xmlns:cc="http://creativecommons.org/ns#"
   xmlns:rdf="http://www.w3.org/1999/02/22-rdf-syntax-ns#"
   xmlns:svg="http://www.w3.org/2000/svg"
   xmlns="http://www.w3.org/2000/svg"
   xmlns:sodipodi="http://sodipodi.sourceforge.net/DTD/sodipodi-0.dtd"
   xmlns:inkscape="http://www.inkscape.org/namespaces/inkscape"
   version="1.1"
   width="24"
   height="24"
   id="svg2"
   inkscape:version="0.48.3.1 r9886"
   sodipodi:docname="shop.svg">
  <sodipodi:namedview
     pagecolor="#ffffff"
     bordercolor="#666666"
     borderopacity="1"
     objecttolerance="10"
     gridtolerance="10"
     guidetolerance="10"
     inkscape:pageopacity="0"
     inkscape:pageshadow="2"
     inkscape:window-width="1920"
     inkscape:window-height="1150"
     id="namedview4705"
     showgrid="true"
     inkscape:zoom="45.254834"
     inkscape:cx="22.401697"
     inkscape:cy="11.086956"
     inkscape:window-x="0"
     inkscape:window-y="0"
     inkscape:window-maximized="1"
     inkscape:current-layer="layer1"
     showguides="true"
     inkscape:guide-bbox="true"
     inkscape:snap-global="true">
    <inkscape:grid
       type="xygrid"
       id="grid4137"
       empspacing="4"
       visible="true"
       enabled="true"
       snapvisiblegridlinesonly="true" />
  </sodipodi:namedview>
  <defs
     id="defs4" />
  <metadata
     id="metadata7">
    <rdf:RDF>
      <cc:Work
         rdf:about="">
        <dc:format>image/svg+xml</dc:format>
        <dc:type
           rdf:resource="http://purl.org/dc/dcmitype/StillImage" />
        <dc:title />
      </cc:Work>
    </rdf:RDF>
  </metadata>
  <g
     transform="translate(0,-1028.3622)"
     id="layer1">
    <path
       style="fill:#95a5a6;fill-opacity:1;stroke:none"
       d="M 0,1050.3622 23.999999,1050.3622 19.999998,1044.3622 4,1044.3622 0,1050.3622 0,1050.3622"
       id="path3299-9-9"
       inkscape:connector-curvature="0"
       sodipodi:nodetypes="cccccc" />
    <rect
       style="fill:#f1c40f;fill-opacity:1;fill-rule:nonzero;stroke:none"
       id="rect3187-9"
       width="20"
       height="16.999964"
       x="2"
       y="1032.3622" />
    <rect
       style="fill:#ecf0f1;fill-opacity:1;fill-rule:nonzero;stroke:none"
       id="rect3261"
       width="9"
       height="9"
       x="4"
       y="1039.3622" />
    <rect
       style="fill:#ecf0f1;fill-opacity:1;fill-rule:nonzero;stroke:none"
       id="rect3213"
       width="6"
       height="9"
       x="14"
       y="1040.3622" />
    <rect
       style="fill:#f39c12;fill-opacity:1;fill-rule:nonzero;stroke:none"
       id="rect3187"
       width="20"
       height="3.9999948"
       x="2"
       y="1037.3622" />
    <rect
       style="fill:#bdc3c7;fill-opacity:1;fill-rule:nonzero;stroke:none"
       id="rect4074"
       width="6"
       height="1"
       x="14"
       y="1039.3622" />
    <rect
       style="fill:#bdc3c7;fill-opacity:1;fill-rule:nonzero;stroke:none"
       id="rect4069"
       width="9"
       height="2"
       x="4"
       y="1039.3622" />
    <path
       style="fill:#c0392b;fill-opacity:1;fill-rule:nonzero;stroke:none"
       d="M 0,1036.3622 0,1037.8622 C 0,1038.6906 0.6715729,1039.3622 1.5,1039.3622 2.3284271,1039.3622 3,1038.6906 3,1037.8622 L 3,1036.3622 1.5,1036.3622 0,1036.3622 z"
       id="path3015"
       inkscape:connector-curvature="0" />
    <path
       inkscape:connector-curvature="0"
       style="fill:#bdc3c7;fill-opacity:1;fill-rule:nonzero;stroke:none"
       d="M 3,1036.3622 3,1037.8622 C 3,1038.6906 3.6715729,1039.3622 4.5,1039.3622 5.3284271,1039.3622 6,1038.6906 6,1037.8622 L 6,1036.3622 4.5,1036.3622 3,1036.3622 z"
       id="path3015-7" />
    <path
       inkscape:connector-curvature="0"
       style="fill:#c0392b;fill-opacity:1;fill-rule:nonzero;stroke:none"
       d="M 6,1036.3622 6,1037.8622 C 6,1038.6906 6.671573,1039.3622 7.5,1039.3622 8.328427,1039.3622 9,1038.6906 9,1037.8622 L 9,1036.3622 7.5,1036.3622 6,1036.3622 z"
       id="path3015-9" />
    <path
       inkscape:connector-curvature="0"
       style="fill:#bdc3c7;fill-opacity:1;fill-rule:nonzero;stroke:none"
       d="M 9,1036.3622 9,1037.8622 C 9,1038.6906 9.671573,1039.3622 10.5,1039.3622 11.328427,1039.3622 12,1038.6906 12,1037.8622 L 12,1036.3622 10.5,1036.3622 9,1036.3622 z"
       id="path3015-7-8" />
    <path
       inkscape:connector-curvature="0"
       style="fill:#c0392b;fill-opacity:1;fill-rule:nonzero;stroke:none"
       d="M 12,1036.3622 12,1037.8622 C 12,1038.6906 12.671573,1039.3622 13.5,1039.3622 14.328427,1039.3622 15,1038.6906 15,1037.8622 L 15,1036.3622 13.5,1036.3622 12,1036.3622 z"
       id="path3015-2" />
    <path
       inkscape:connector-curvature="0"
       style="fill:#bdc3c7;fill-opacity:1;fill-rule:nonzero;stroke:none"
       d="M 15,1036.3622 15,1037.8622 C 15,1038.6906 15.671573,1039.3622 16.5,1039.3622 17.328427,1039.3622 18,1038.6906 18,1037.8622 L 18,1036.3622 16.5,1036.3622 15,1036.3622 z"
       id="path3015-7-4" />
    <path
       inkscape:connector-curvature="0"
       style="fill:#c0392b;fill-opacity:1;fill-rule:nonzero;stroke:none"
       d="M 18,1036.3622 18,1037.8622 C 18,1038.6906 18.671573,1039.3622 19.5,1039.3622 20.328427,1039.3622 21,1038.6906 21,1037.8622 L 21,1036.3622 19.5,1036.3622 18,1036.3622 z"
       id="path3015-9-3" />
    <path
       inkscape:connector-curvature="0"
       style="fill:#bdc3c7;fill-opacity:1;fill-rule:nonzero;stroke:none"
       d="M 21,1036.3622 21,1037.8622 C 21,1038.6906 21.671573,1039.3622 22.5,1039.3622 23.328427,1039.3622 24,1038.6906 24,1037.8622 L 24,1036.3622 22.5,1036.3622 21,1036.3622 z"
       id="path3015-7-8-5" />
    <path
       style="fill:#ecf0f1;fill-opacity:1;fill-rule:nonzero;stroke:none"
       d="M 10,1032.3622 12,1032.3622 12,1036.3622 9,1036.3622 z"
       id="rect3086"
       inkscape:connector-curvature="0"
       sodipodi:nodetypes="ccccc" />
    <path
       style="fill:#e74c3c;fill-opacity:1;fill-rule:nonzero;stroke:none"
       d="M 12,1032.3622 14,1032.3622 15,1036.3622 12,1036.3622 z"
       id="rect3088"
       inkscape:connector-curvature="0"
       sodipodi:nodetypes="ccccc" />
    <path
       style="fill:#ecf0f1;fill-opacity:1;fill-rule:nonzero;stroke:none"
       d="M 5,1032.3622 8,1032.3622 6,1036.3622 3,1036.3622 z"
       id="rect3086-6"
       inkscape:connector-curvature="0"
       sodipodi:nodetypes="ccccc" />
    <path
       style="fill:#e74c3c;fill-opacity:1;fill-rule:nonzero;stroke:none"
       d="M 8,1032.3622 10,1032.3622 9,1036.3622 6,1036.3622 z"
       id="rect3088-3"
       inkscape:connector-curvature="0"
       sodipodi:nodetypes="ccccc" />
    <path
       style="fill:#ecf0f1;fill-opacity:1;fill-rule:nonzero;stroke:none"
       d="M 16,1032.3622 14,1032.3622 15,1036.3622 18,1036.3622 z"
       id="rect3088-3-8"
       inkscape:connector-curvature="0"
       sodipodi:nodetypes="ccccc" />
    <path
       style="fill:#e74c3c;fill-opacity:1;fill-rule:nonzero;stroke:none"
       d="M 19,1032.3622 16,1032.3622 18,1036.3622 21,1036.3622 z"
       id="rect3086-6-0"
       inkscape:connector-curvature="0"
       sodipodi:nodetypes="ccccc" />
    <path
       style="fill:#e74c3c;fill-opacity:1;fill-rule:nonzero;stroke:none"
       d="M 2,1032.3622 5,1032.3622 3,1036.3622 0,1036.3622 z"
       id="rect3088-3-1"
       inkscape:connector-curvature="0"
       sodipodi:nodetypes="ccccc" />
    <path
       style="fill:#ecf0f1;fill-opacity:1;fill-rule:nonzero;stroke:none"
       d="M 22,1032.3622 19,1032.3622 21,1036.3622 24,1036.3622 z"
       id="rect3088-3-1-8"
       inkscape:connector-curvature="0"
       sodipodi:nodetypes="ccccc" />
    <rect
       style="fill:#3498db;fill-opacity:1;fill-rule:nonzero;stroke:none"
       id="rect3209"
       width="4"
       height="8.0000172"
       x="15"
       y="1041.3622" />
    <rect
       style="fill:#ecf0f1;fill-opacity:1;fill-rule:nonzero;stroke:none"
       id="rect3211"
       width="5"
       height="1"
       x="14"
       y="1044.3622" />
    <rect
       style="fill:#bdc3c7;fill-opacity:1;fill-rule:nonzero;stroke:none"
       id="rect3215"
       width="1"
       height="1"
       x="19"
       y="1040.3622" />
    <rect
       style="fill:#2980b9;fill-opacity:1;fill-rule:nonzero;stroke:none"
       id="rect3217"
       width="4"
       height="1"
       x="15"
       y="1040.3622" />
    <rect
       style="fill:#bdc3c7;fill-opacity:1;fill-rule:nonzero;stroke:none"
       id="rect3215-7"
       width="1"
       height="1"
       x="14"
       y="1040.3622" />
    <rect
       style="fill:#3498db;fill-opacity:1;fill-rule:nonzero;stroke:none"
       id="rect3255"
       width="7"
       height="7"
       x="5"
       y="1040.3622" />
    <rect
       style="fill:#ecf0f1;fill-opacity:1;fill-rule:nonzero;stroke:none"
       id="rect3257"
       width="9"
       height="1"
       x="4"
       y="1043.3622" />
    <rect
       style="fill:#ecf0f1;fill-opacity:1;fill-rule:nonzero;stroke:none"
       id="rect3259"
       width="1"
       height="7"
       x="8"
       y="1040.3622" />
    <path
       style="fill:#ecf0f1;fill-opacity:1;stroke:none"
       d="M 1,1032.3622 23,1032.3622 19.333333,1030.3622 4.6666668,1030.3622 1,1032.3622 1,1032.3622"
       id="path3299"
       inkscape:connector-curvature="0"
       sodipodi:nodetypes="cccccc" />
    <rect
       style="fill:#bdc3c7;fill-opacity:1;fill-rule:nonzero;stroke:none"
       id="rect4071"
       width="1"
       height="1"
       x="8"
       y="12"
       transform="translate(0,1028.3622)" />
    <path
       style="fill:#bdc3c7;fill-opacity:1;stroke:none"
       d="M 1.0000002,1031.3622 23,1031.3622 19.333333,1029.3622 4.666667,1029.3622 1.0000002,1031.3622 1.0000002,1031.3622"
       id="path3299-9"
       inkscape:connector-curvature="0"
       sodipodi:nodetypes="cccccc" />
    <rect
       style="fill:#7f8c8d;fill-opacity:1;fill-rule:nonzero;stroke:none"
       id="rect4094"
       width="22"
       height="1"
       x="1"
       y="3"
       transform="translate(0,1028.3622)" />
    <rect
       style="fill:#2980b9;fill-opacity:1;fill-rule:nonzero;stroke:none"
       id="rect4114"
       width="4"
       height="3"
       x="15"
       y="1046.3622" />
    <rect
       style="fill:#7f8c8d;fill-opacity:1;fill-rule:nonzero;stroke:none"
       id="rect4116"
       width="24"
       height="1"
       x="0"
       y="22"
       transform="translate(0,1028.3622)" />
    <path
       style="fill:#2980b9;fill-opacity:1;fill-rule:nonzero;stroke:none"
       d="M 5 12 L 5 13 L 8 13 L 8 12 L 5 12 z M 9 12 L 9 13 L 12 13 L 12 12 L 9 12 z "
       transform="translate(0,1028.3622)"
       id="rect3217-1" />
    <path
       inkscape:connector-curvature="0"
       style="fill:#2980b9;fill-opacity:1;fill-rule:nonzero;stroke:none"
       d="M 5,1046.3622 5,1047.3622 8,1047.3622 8,1046.3622 5,1046.3622 z M 9,1046.3622 9,1047.3622 12,1047.3622 12,1046.3622 9,1046.3622 z"
       id="rect3217-1-0" />
    <path
       style="fill:#c0392b;fill-opacity:1;fill-rule:nonzero;stroke:none"
       d="M 2,1032.3622 1.5,1033.3622 4.5,1033.3622 5,1032.3622 2,1032.3622 z M 7,1032.3622 6.75,1033.3622 9.75,1033.3622 10,1032.3622 7,1032.3622 z M 12,1032.3622 12,1033.3622 14.25,1033.3622 14,1032.3622 12,1032.3622 z M 16,1032.3622 16.5,1033.3622 19.5,1033.3622 19,1032.3622 16,1032.3622 z"
       id="rect3088-0"
       inkscape:connector-curvature="0" />
    <path
       style="fill:#bdc3c7;fill-opacity:1;fill-rule:nonzero;stroke:none"
       d="M 5,1032.3622 4.5,1033.3622 7.501301,1033.3622 8,1032.3622 z M 10,1032.3622 9.75,1033.3622 12,1033.3622 12,1032.3622 z M 14,1032.3622 14.25,1033.3622 16.5,1033.3622 16,1032.3622 z M 19,1032.3622 19.5,1033.3622 22.5,1033.3622 22,1032.3622 z"
       id="rect3086-8-4"
       inkscape:connector-curvature="0"
       sodipodi:nodetypes="cccccccccccccccccccc" />
  </g>
</svg>
