<?xml version="1.0" encoding="UTF-8" standalone="no"?>
<!-- Created with Inkscape (http://www.inkscape.org/) -->

<svg
   xmlns:dc="http://purl.org/dc/elements/1.1/"
   xmlns:cc="http://creativecommons.org/ns#"
   xmlns:rdf="http://www.w3.org/1999/02/22-rdf-syntax-ns#"
   xmlns:svg="http://www.w3.org/2000/svg"
   xmlns="http://www.w3.org/2000/svg"
   xmlns:sodipodi="http://sodipodi.sourceforge.net/DTD/sodipodi-0.dtd"
   xmlns:inkscape="http://www.inkscape.org/namespaces/inkscape"
   width="24"
   height="24"
   id="svg2"
   version="1.1"
   inkscape:version="0.48.3.1 r9886"
   sodipodi:docname="info.svg">
  <defs
     id="defs4" />
  <sodipodi:namedview
     id="base"
     pagecolor="#ffffff"
     bordercolor="#666666"
     borderopacity="1.0"
     inkscape:pageopacity="0.0"
     inkscape:pageshadow="2"
     inkscape:zoom="5.6568543"
     inkscape:cx="53.531665"
     inkscape:cy="8.3777691"
     inkscape:document-units="px"
     inkscape:current-layer="layer1"
     showgrid="true"
     inkscape:window-width="1920"
     inkscape:window-height="1150"
     inkscape:window-x="0"
     inkscape:window-y="0"
     inkscape:window-maximized="1"
     inkscape:snap-bbox="true"
     inkscape:snap-global="true"
     showguides="true"
     inkscape:guide-bbox="true">
    <inkscape:grid
       type="xygrid"
       id="grid2985"
       empspacing="4"
       visible="true"
       enabled="true"
       snapvisiblegridlinesonly="true" />
  </sodipodi:namedview>
  <metadata
     id="metadata7">
    <rdf:RDF>
      <cc:Work
         rdf:about="">
        <dc:format>image/svg+xml</dc:format>
        <dc:type
           rdf:resource="http://purl.org/dc/dcmitype/StillImage" />
        <dc:title />
      </cc:Work>
    </rdf:RDF>
  </metadata>
  <g
     inkscape:label="Layer 1"
     inkscape:groupmode="layer"
     id="layer1"
     transform="translate(0,-1028.3622)">
    <g
       style="font-size:14px;font-style:normal;font-variant:normal;font-weight:normal;font-stretch:normal;text-align:end;line-height:125%;letter-spacing:0px;word-spacing:0px;text-anchor:end;fill:#2980b9;fill-opacity:1;stroke:none;font-family:Wingdings;-inkscape-font-specification:Wingdings"
       id="text2994-2"
       transform="matrix(1.1077456,0,0,1.11094,12.262224,-134.07735)" />
    <path
       sodipodi:type="arc"
       style="fill:#2980b9;fill-opacity:1;fill-rule:nonzero;stroke:none"
       id="path2984-2"
       sodipodi:cx="12"
       sodipodi:cy="12"
       sodipodi:rx="10"
       sodipodi:ry="10"
       d="M 22,12 A 10,10 0 1 1 2,12 10,10 0 1 1 22,12 z"
       transform="translate(0,1029.3622)" />
    <path
       transform="translate(0,1028.3622)"
       sodipodi:type="arc"
       style="fill:#3498db;fill-opacity:1;fill-rule:nonzero;stroke:none"
       id="path2984-4-8"
       sodipodi:cx="12"
       sodipodi:cy="12"
       sodipodi:rx="10"
       sodipodi:ry="10"
       d="M 22,12 A 10,10 0 1 1 2,12 10,10 0 1 1 22,12 z" />
    <path
       inkscape:connector-curvature="0"
       style="fill:#2980b9;fill-opacity:1;fill-rule:nonzero;stroke:none"
       d="M 11,1035.3622 11,1037.3622 13,1037.3622 13,1035.3622 11,1035.3622 z M 10,1039.3622 9,1040.3622 11,1040.3622 11,1046.3622 9,1046.3622 9,1047.3622 10,1047.3622 14,1047.3622 15,1047.3622 15,1046.3622 13,1046.3622 13,1039.3622 10,1039.3622 z"
       id="path2989-1-8-5" />
    <path
       style="fill:#ecf0f1;fill-opacity:1;fill-rule:nonzero;stroke:none"
       d="M 11 6 L 11 8 L 13 8 L 13 6 L 11 6 z M 10 10 L 9 11 L 11 11 L 11 17 L 9 17 L 9 18 L 10 18 L 14 18 L 15 18 L 15 17 L 13 17 L 13 10 L 10 10 z "
       transform="translate(0,1028.3622)"
       id="path2989-1-8" />
  </g>
</svg>
