<?xml version="1.0" encoding="UTF-8" standalone="no"?>
<!-- Created with Inkscape (http://www.inkscape.org/) -->

<svg
   xmlns:dc="http://purl.org/dc/elements/1.1/"
   xmlns:cc="http://creativecommons.org/ns#"
   xmlns:rdf="http://www.w3.org/1999/02/22-rdf-syntax-ns#"
   xmlns:svg="http://www.w3.org/2000/svg"
   xmlns="http://www.w3.org/2000/svg"
   xmlns:sodipodi="http://sodipodi.sourceforge.net/DTD/sodipodi-0.dtd"
   xmlns:inkscape="http://www.inkscape.org/namespaces/inkscape"
   width="24"
   height="24"
   id="svg2"
   version="1.1"
   inkscape:version="0.48.3.1 r9886"
   sodipodi:docname="skull.svg">
  <defs
     id="defs4" />
  <sodipodi:namedview
     id="base"
     pagecolor="#ffffff"
     bordercolor="#666666"
     borderopacity="1.0"
     inkscape:pageopacity="0.0"
     inkscape:pageshadow="2"
     inkscape:zoom="16"
     inkscape:cx="7.4170131"
     inkscape:cy="16.920406"
     inkscape:document-units="px"
     inkscape:current-layer="text2993"
     showgrid="true"
     inkscape:window-width="1920"
     inkscape:window-height="1150"
     inkscape:window-x="0"
     inkscape:window-y="0"
     inkscape:window-maximized="1"
     inkscape:snap-nodes="true"
     inkscape:snap-bbox="true"
     inkscape:snap-global="true">
    <inkscape:grid
       type="xygrid"
       id="grid2985"
       empspacing="4"
       visible="true"
       enabled="true"
       snapvisiblegridlinesonly="true" />
  </sodipodi:namedview>
  <metadata
     id="metadata7">
    <rdf:RDF>
      <cc:Work
         rdf:about="">
        <dc:format>image/svg+xml</dc:format>
        <dc:type
           rdf:resource="http://purl.org/dc/dcmitype/StillImage" />
        <dc:title />
      </cc:Work>
    </rdf:RDF>
  </metadata>
  <g
     inkscape:label="Layer 1"
     inkscape:groupmode="layer"
     id="layer1"
     transform="translate(0,-1028.3622)">
    <g
       style="font-size:8px;font-style:normal;font-variant:normal;font-weight:normal;font-stretch:normal;text-align:end;line-height:125%;letter-spacing:0px;word-spacing:0px;text-anchor:end;fill:#2980b9;fill-opacity:1;stroke:none;font-family:FontAwesome;-inkscape-font-specification:FontAwesome"
       id="text2993">
      <path
         style="fill:#95a5a6;fill-rule:nonzero"
         d="M 17,1045.3622 C 17,1048.6759 17,1051.3622 12,1051.3622 7,1051.3622 7,1048.6759 7,1045.3622 7,1042.0485 8.6862915,1039.3622 12,1039.3622 15.313709,1039.3622 17,1042.0485 17,1045.3622 z"
         id="path3352"
         inkscape:connector-curvature="0"
         sodipodi:nodetypes="sssss" />
      <path
         style="fill:#bdc3c7;fill-opacity:1;fill-rule:nonzero;stroke:none"
         d="M 8,1046.3622 8,1049.3622 10,1049.3622 10,1046.3622 8,1046.3622 z M 11,1046.3622 11,1049.3622 13,1049.3622 13,1046.3622 11,1046.3622 z M 14,1046.3622 14,1049.3622 16,1049.3622 16,1046.3622 14,1046.3622 z"
         id="rect3268"
         inkscape:connector-curvature="0" />
      <path
         style="fill:#7f8c8d;fill-opacity:1;fill-rule:nonzero;stroke:none"
         d="M 8,1047.3622 8,1049.3622 9,1049.3622 9,1047.3622 8,1047.3622 z M 11,1047.3622 11,1049.3622 12,1049.3622 12,1047.3622 11,1047.3622 z M 14,1047.3622 14,1049.3622 15,1049.3622 15,1047.3622 14,1047.3622 z"
         id="rect3307"
         inkscape:connector-curvature="0" />
      <path
         style="font-size:8px;font-style:normal;font-variant:normal;font-weight:normal;font-stretch:normal;text-align:end;line-height:125%;letter-spacing:0px;word-spacing:0px;text-anchor:end;fill:#bdc3c7;fill-opacity:1;fill-rule:nonzero;stroke:none;font-family:FontAwesome;-inkscape-font-specification:FontAwesome"
         d="M 7.5,1049.3622 C 8.077396,1050.5875 9.321429,1051.3622 12,1051.3622 14.678571,1051.3622 15.922604,1050.5875 16.5,1049.3622 L 7.5,1049.3622 z"
         id="path3352-7"
         inkscape:connector-curvature="0" />
      <path
         style="fill:#bdc3c7;fill-opacity:1;fill-rule:nonzero;stroke:none"
         d="M 12,1029.3622 C 5,1029.3622 3,1033.3622 3.0625,1040.456 3.3713065,1042.9163 4.9204182,1043.9738 7,1045.3622 7.8081169,1046.4455 7.5938209,1047.0199 9,1047.3622 10.473187,1047.3402 10.52574,1047.3609 12,1047.3622 13.47426,1047.3608 13.526813,1047.3402 15,1047.3622 16.406179,1047.0199 16.191883,1046.4455 17,1045.3622 19.079582,1043.9738 20.628693,1042.9163 20.9375,1040.456 21,1034.3622 19,1029.3622 12,1029.3622 z"
         id="path2990"
         inkscape:connector-curvature="0"
         sodipodi:nodetypes="ccccccccc" />
      <path
         sodipodi:type="arc"
         style="fill:#95a5a6;fill-opacity:1;fill-rule:nonzero;stroke:none"
         id="path3050"
         sodipodi:cx="9.5"
         sodipodi:cy="7.5"
         sodipodi:rx="2.5"
         sodipodi:ry="2.5"
         d="M 12,7.5 C 12,8.8807119 10.880712,10 9.5,10 8.1192881,10 7,8.8807119 7,7.5 7,6.1192881 8.1192881,5 9.5,5 10.880712,5 12,6.1192881 12,7.5 z"
         transform="matrix(1.2,0,0,1.2,-3.4,1031.3622)" />
      <path
         style="fill:#95a5a6;fill-opacity:1;fill-rule:nonzero;stroke:none"
         d="M 12.910472,1046.3607 C 13.190085,1046.3607 13.471037,1046.2451 13.684373,1046.0109 14.111047,1045.5424 14.099331,1044.7925 13.684373,1044.3115 L 12,1042.3622 10.315627,1044.3115 C 9.900669,1044.7925 9.888953,1045.5424 10.315627,1046.0109 10.742301,1046.4793 11.436756,1046.4793 11.86343,1046.0109 L 12,1045.8609 12.136571,1046.0109 C 12.349908,1046.2451 12.63086,1046.3607 12.910472,1046.3607 z"
         id="path2984"
         inkscape:connector-curvature="0" />
      <path
         sodipodi:type="arc"
         style="font-size:8px;font-style:normal;font-variant:normal;font-weight:normal;font-stretch:normal;text-align:end;line-height:125%;letter-spacing:0px;word-spacing:0px;text-anchor:end;fill:#95a5a6;fill-opacity:1;fill-rule:nonzero;stroke:none;font-family:FontAwesome;-inkscape-font-specification:FontAwesome"
         id="path3050-4"
         sodipodi:cx="9.5"
         sodipodi:cy="7.5"
         sodipodi:rx="2.5"
         sodipodi:ry="2.5"
         d="M 12,7.5 C 12,8.8807119 10.880712,10 9.5,10 8.1192881,10 7,8.8807119 7,7.5 7,6.1192881 8.1192881,5 9.5,5 10.880712,5 12,6.1192881 12,7.5 z"
         transform="matrix(1.2,0,0,1.2,4.6,1031.3622)" />
      <path
         style="font-size:8px;font-style:normal;font-variant:normal;font-weight:normal;font-stretch:normal;text-align:end;line-height:125%;letter-spacing:0px;word-spacing:0px;text-anchor:end;fill:#7f8c8d;fill-opacity:1;fill-rule:nonzero;stroke:none;font-family:FontAwesome;-inkscape-font-specification:FontAwesome"
         d="M 8,1037.3622 C 6.343146,1037.3622 5,1038.7053 5,1040.3622 5,1040.537 5.033821,1040.6956 5.0625,1040.8622 5.305716,1039.4496 6.51791,1038.3622 8,1038.3622 9.48209,1038.3622 10.694284,1039.4496 10.9375,1040.8622 10.966179,1040.6956 11,1040.537 11,1040.3622 11,1038.7053 9.656854,1037.3622 8,1037.3622 z"
         id="path3050-5"
         inkscape:connector-curvature="0" />
      <path
         style="font-size:8px;font-style:normal;font-variant:normal;font-weight:normal;font-stretch:normal;text-align:end;line-height:125%;letter-spacing:0px;word-spacing:0px;text-anchor:end;fill:#7f8c8d;fill-opacity:1;fill-rule:nonzero;stroke:none;font-family:FontAwesome;-inkscape-font-specification:FontAwesome"
         d="M 16,1037.3622 C 14.343146,1037.3622 13,1038.7053 13,1040.3622 13,1040.537 13.033821,1040.6956 13.0625,1040.8622 13.305716,1039.4496 14.51791,1038.3622 16,1038.3622 17.48209,1038.3622 18.694284,1039.4496 18.9375,1040.8622 18.966179,1040.6956 19,1040.537 19,1040.3622 19,1038.7053 17.656854,1037.3622 16,1037.3622 z"
         id="path3050-5-7"
         inkscape:connector-curvature="0" />
      <path
         style="font-size:8px;font-style:normal;font-variant:normal;font-weight:normal;font-stretch:normal;text-align:end;line-height:125%;letter-spacing:0px;word-spacing:0px;text-anchor:end;fill:#7f8c8d;fill-opacity:1;fill-rule:nonzero;stroke:none;font-family:FontAwesome;-inkscape-font-specification:FontAwesome"
         d="M 12,1042.3622 10.3125,1044.2997 C 9.986144,1044.678 9.904155,1045.2315 10.09375,1045.6747 10.146274,1045.539 10.214947,1045.4128 10.3125,1045.2997 L 12,1043.3622 13.6875,1045.2997 C 13.785053,1045.4128 13.853726,1045.539 13.90625,1045.6747 14.095845,1045.2315 14.013856,1044.678 13.6875,1044.2997 L 12,1042.3622 z"
         id="path2984-8"
         inkscape:connector-curvature="0" />
    </g>
  </g>
</svg>
