<?xml version="1.0" encoding="UTF-8" standalone="no"?>
<!-- Created with Inkscape (http://www.inkscape.org/) -->

<svg
   xmlns:dc="http://purl.org/dc/elements/1.1/"
   xmlns:cc="http://creativecommons.org/ns#"
   xmlns:rdf="http://www.w3.org/1999/02/22-rdf-syntax-ns#"
   xmlns:svg="http://www.w3.org/2000/svg"
   xmlns="http://www.w3.org/2000/svg"
   xmlns:sodipodi="http://sodipodi.sourceforge.net/DTD/sodipodi-0.dtd"
   xmlns:inkscape="http://www.inkscape.org/namespaces/inkscape"
   width="24"
   height="24"
   id="svg2"
   version="1.1"
   inkscape:version="0.48.3.1 r9886"
   sodipodi:docname="snow-flake.svg">
  <defs
     id="defs4" />
  <sodipodi:namedview
     id="base"
     pagecolor="#ffffff"
     bordercolor="#666666"
     borderopacity="1.0"
     inkscape:pageopacity="0.0"
     inkscape:pageshadow="2"
     inkscape:zoom="16"
     inkscape:cx="6.4559731"
     inkscape:cy="8.6114043"
     inkscape:document-units="px"
     inkscape:current-layer="text2993"
     showgrid="true"
     inkscape:window-width="1920"
     inkscape:window-height="1150"
     inkscape:window-x="0"
     inkscape:window-y="0"
     inkscape:window-maximized="1"
     inkscape:snap-nodes="true"
     inkscape:snap-bbox="true"
     inkscape:snap-global="true"
     inkscape:snap-bbox-midpoints="false">
    <inkscape:grid
       type="xygrid"
       id="grid2985"
       empspacing="4"
       visible="true"
       enabled="true"
       snapvisiblegridlinesonly="true" />
  </sodipodi:namedview>
  <metadata
     id="metadata7">
    <rdf:RDF>
      <cc:Work
         rdf:about="">
        <dc:format>image/svg+xml</dc:format>
        <dc:type
           rdf:resource="http://purl.org/dc/dcmitype/StillImage" />
        <dc:title />
      </cc:Work>
    </rdf:RDF>
  </metadata>
  <g
     inkscape:label="Layer 1"
     inkscape:groupmode="layer"
     id="layer1"
     transform="translate(0,-1028.3622)">
    <g
       style="font-size:8px;font-style:normal;font-variant:normal;font-weight:normal;font-stretch:normal;text-align:end;line-height:125%;letter-spacing:0px;word-spacing:0px;text-anchor:end;fill:#2980b9;fill-opacity:1;stroke:none;font-family:FontAwesome;-inkscape-font-specification:FontAwesome"
       id="text2993">
      <path
         style="fill:#3498db;fill-opacity:1;fill-rule:nonzero;stroke:none"
         d="M 20.750562,1032.1255 C 20.627948,1031.8302 20.261382,1031.6528 19.531067,1031.663 18.257214,1031.8423 15.997998,1036.3269 16.110956,1033.5147 14.182712,1032.3884 15.938192,1036.7464 13.872773,1037.0846 12.571211,1038.5106 13.171867,1036.2499 13.036849,1035.4584 12.826799,1034.5173 13.298703,1033.8356 14.040314,1033.286 L 16.100726,1031.2336 C 15.068291,1028.535 12.515116,1034.241 13.13031,1030.9037 13.620139,1029.8517 12.80942,1028.5405 12.043062,1028.4052 L 12.054651,1028.3622 C 11.853492,1028.3977 11.660687,1028.5189 11.478838,1028.6923 11.314309,1028.8491 11.156911,1029.0392 11.045502,1029.2674 11.038979,1029.2801 11.04021,1029.2974 11.033914,1029.3103 10.977733,1029.4313 10.919998,1029.5536 10.886363,1029.6853 10.882415,1029.6996 10.878421,1029.7138 10.874773,1029.7282 10.850196,1029.8335 10.816634,1029.9476 10.809482,1030.0561 10.808842,1030.0644 10.825842,1030.075 10.825313,1030.0833 10.818739,1030.2116 10.813009,1030.349 10.834934,1030.477 10.836359,1030.4862 10.849184,1030.4952 10.850764,1030.5043 10.87493,1030.6313 10.901741,1030.7563 10.958474,1030.8781 10.962732,1030.8878 10.969835,1030.8957 10.974305,1030.9054 11.045437,1031.2994 11.065288,1031.5682 11.052627,1031.7317 11.052269,1031.7375 11.068907,1031.7532 11.068458,1031.7589 11.060531,1031.8271 11.028681,1031.8726 11.00627,1031.9034 10.98066,1031.9387 10.938969,1031.9718 10.896592,1031.9663 10.854215,1031.9609 10.807857,1031.9423 10.75101,1031.9046 10.580469,1031.7913 10.363682,1031.5458 10.104223,1031.2952 9.7651965,1030.9679 9.3620802,1030.6259 8.9932695,1030.5164 8.797574,1030.4582 8.6180306,1030.4638 8.4437397,1030.5773 8.3599459,1030.632 8.2923469,1030.7088 8.2170352,1030.8162 8.1343827,1030.9273 8.0572207,1031.0554 7.9872256,1031.2384 L 10.038403,1033.2568 C 10.409196,1033.5317 10.712059,1033.8641 10.890991,1034.2202 10.934881,1034.309 10.977696,1034.3855 11.006048,1034.4809 11.035189,1034.5762 11.054155,1034.6707 11.066265,1034.773 11.09363,1034.9854 11.077133,1035.2056 11.022183,1035.4517 10.988457,1035.6495 11.007401,1035.9132 11.025593,1036.2121 11.035347,1036.3678 11.015551,1036.4959 11.023624,1036.6488 11.029847,1036.7907 11.055519,1036.9519 11.049076,1037.0698 11.044259,1037.2017 11.04234,1037.3 11.011204,1037.3819 10.966221,1037.495 10.875556,1037.5396 10.748595,1037.4961 10.626063,1037.4541 10.44365,1037.3268 10.212624,1037.0774 10.204276,1037.0684 10.205302,1037.0595 10.196793,1037.0501 9.9489557,1037.0096 9.7488461,1036.9154 9.5986339,1036.7759 9.5218854,1036.7047 9.4693146,1036.61 9.4129068,1036.5194 9.3527345,1036.4174 9.2906373,1036.2965 9.2503574,1036.177 9.1765652,1035.9675 9.1404627,1035.7353 9.1098493,1035.4952 9.1086644,1035.4855 9.0951567,1035.4778 9.0940185,1035.4681 9.0795897,1035.3497 9.0817527,1035.2368 9.0728094,1035.1172 9.0630355,1034.9801 9.0705254,1034.8561 9.0631891,1034.7234 9.056202,1034.5978 9.0503608,1034.4899 9.0419799,1034.3726 9.0334639,1034.2587 9.0072754,1034.1382 8.9933511,1034.0375 8.986888,1033.9871 8.9657777,1033.9593 8.9574477,1033.9128 8.8640035,1033.3909 8.645569,1033.1043 7.9816242,1033.4921 7.9820637,1033.503 7.9970871,1033.5086 7.997455,1033.5193 8.003005,1033.6809 7.9896363,1033.8149 7.9796556,1033.9288 7.9790605,1033.9366 7.996147,1033.9485 7.9954864,1033.9561 7.9844496,1034.0637 7.9504655,1034.1467 7.9259529,1034.2137 7.8992405,1034.2868 7.8774905,1034.3438 7.8363468,1034.374 7.7952031,1034.4041 7.7373537,1034.4324 7.6834178,1034.4254 7.575545,1034.4113 7.4348911,1034.3103 7.2856804,1034.1814 6.843355,1033.7997 6.2527129,1033.0187 5.6754903,1032.4184 5.2872474,1032.0145 4.9004203,1031.7225 4.5803679,1031.6667 4.5736799,1031.6655 4.5711722,1031.6405 4.5645371,1031.6394 3.8162927,1031.6291 3.4744831,1031.8397 3.3611773,1032.1478 3.3303411,1032.2214 3.305197,1032.2766 3.3032327,1032.3625 3.3014819,1032.4487 3.3241037,1032.5315 3.3476197,1032.6275 3.3915561,1032.8264 3.4815378,1033.0491 3.6136371,1033.2735 3.8606614,1033.6933 4.2376546,1034.1243 4.624532,1034.5091 5.01988,1034.8998 5.4225261,1035.2205 5.7281381,1035.4011 6.1557794,1035.7084 6.3534762,1035.898 6.3749255,1036.0104 6.3804821,1036.0382 6.3642025,1036.0762 6.3517478,1036.0962 6.2376561,1036.279 5.4657604,1036.1627 5.080823,1036.4254 4.9955072,1036.4836 4.9316253,1036.5748 4.8973691,1036.6758 4.9298316,1036.7647 4.9744159,1036.8267 5.0240151,1036.8936 5.1731233,1037.0942 5.3786016,1037.203 5.6422463,1037.2652 6.1705168,1037.4002 6.8692339,1037.3311 7.4966356,1037.4364 7.7023963,1037.4709 7.8946332,1037.5291 8.0747217,1037.6132 8.3448544,1037.7393 8.5754434,1037.9388 8.73734,1038.2498 8.7913058,1038.3534 8.8350173,1038.4772 8.8724697,1038.6079 9.0762812,1038.7444 9.2221265,1038.8426 9.3176993,1038.9335 9.4132721,1039.0244 9.4525429,1039.1247 9.460176,1039.1785 9.4639926,1039.2054 9.4629491,1039.2021 9.4485871,1039.2214 9.4336624,1039.2406 9.424365,1039.2402 9.3937479,1039.2529 9.0875809,1039.3795 8.0480453,1039.2072 7.5795037,1039.2765 7.2007145,1039.3668 6.8507039,1039.3665 6.5310414,1039.2968 6.2113791,1039.227 5.9169043,1039.0806 5.6417188,1038.899 5.5119884,1038.8113 5.3778758,1038.7165 5.2555704,1038.6122 5.1263504,1038.5026 4.9878584,1038.3777 4.86518,1038.2552 4.6267393,1038.0147 4.3901593,1037.7466 4.1666585,1037.494 4.1350676,1037.3806 4.1106177,1037.2812 4.0631902,1037.1904 4.0131158,1037.0893 3.9424131,1037.0099 3.877463,1036.9339 3.8228133,1036.8734 3.7579042,1036.7921 3.6959778,1036.7475 3.6271184,1036.6972 3.5502461,1036.6517 3.4754839,1036.6198 3.4061779,1036.592 3.3032854,1036.5914 3.2318121,1036.5779 3.0033131,1036.5358 2.7624132,1036.5512 2.5683618,1036.6316 2.4236567,1036.6915 2.3284887,1036.7795 2.2435677,1036.8903 2.2012283,1036.9393 2.1635032,1036.9659 2.1381308,1037.0234 2.1133243,1037.0804 2.096406,1037.1309 2.0917753,1037.1951 2.0908274,1037.203 2.1082309,1037.2145 2.107606,1037.2224 2.1064813,1037.2778 2.1159366,1037.3304 2.1319204,1037.39 2.1749155,1037.6117 2.3096934,1037.852 2.6574404,1038.1051 3.2427277,1038.4416 3.5189747,1038.698 3.583803,1038.8808 3.6000102,1038.9266 3.5851718,1038.9563 3.5764559,1038.994 3.565455,1039.0216 3.5770323,1039.0564 3.5532781,1039.0798 3.54732,1039.0872 3.5329193,1039.0885 3.5258584,1039.0956 3.3933386,1039.2063 3.1347148,1039.2638 2.8002217,1039.2938 2.7897601,1039.2948 2.783386,1039.3085 2.7728021,1039.3095 2.6041189,1039.3236 2.4214733,1039.3265 2.2348611,1039.3275 2.2250848,1039.3275 2.2172402,1039.3431 2.2074415,1039.3432 1.8229441,1039.3441 1.4163705,1039.2792 1.0956562,1039.2544 0.78599618,1039.3222 0.56004748,1039.4373 0.39009207,1039.5501 0.37186362,1039.5615 0.35208828,1039.5695 0.33525274,1039.5815 0.19643038,1039.6852 0.10410647,1039.7981 0.05795088,1039.9219 0.05284089,1039.9336 0.05069535,1039.9531 0.04636197,1039.9648 0.0298728,1040.0212 3.6159077e-4,1040.0785 6.3132879e-6,1040.1367 -3.6593476e-4,1040.1455 0.01584725,1040.155 0.01583706,1040.1638 0.01819661,1040.2271 0.03659671,1040.2949 0.05598223,1040.3587 0.1333073,1040.6585 0.39365922,1040.9411 0.74291496,1041.1627 0.91583365,1041.2694 1.0931712,1041.3669 1.2978232,1041.4255 1.7152665,1041.5506 2.1704151,1041.5675 2.5857153,1041.3769 3.3734952,1041.2337 3.652193,1041.2672 3.665839,1041.4111 3.6547739,1041.4952 3.5831027,1041.6103 3.4592072,1041.7473 3.3285292,1041.8919 3.1562659,1042.0582 2.9783788,1042.2407 2.8189575,1042.4044 2.6494969,1042.5836 2.5133811,1042.7614 2.505287,1042.7718 2.5097171,1042.794 2.5017923,1042.8044 2.3635376,1042.9901 2.2387779,1043.1607 2.1939655,1043.3438 2.1732613,1043.4284 2.1582253,1043.5317 2.1676824,1043.613 2.1682715,1043.6211 2.1826011,1043.6322 2.1835132,1043.6402 2.1854103,1043.6511 2.1968115,1043.6566 2.1993439,1043.6674 2.2424501,1043.9238 2.4314294,1044.158 2.9210433,1044.3427 L 4.9814553,1042.2904 C 4.9897783,1042.2794 4.984663,1042.2584 4.9930443,1042.2475 5.1314548,1042.0634 5.2623171,1041.9277 5.4190334,1041.7854 5.8887502,1041.3627 6.4537233,1041.1729 7.164576,1041.3293 7.7011035,1041.4196 8.9013681,1041.1439 9.1950722,1041.3632 9.2180395,1041.3859 9.2371154,1041.4132 9.2425645,1041.4449 9.2466054,1041.4543 9.2564028,1041.4617 9.2583952,1041.4722 9.2592024,1041.4982 9.2464344,1041.5257 9.2352174,1041.558 9.1914683,1041.684 9.0553113,1041.8636 8.7860504,1042.1059 8.7847199,1042.1139 8.8033345,1042.1253 8.8018812,1042.1331 8.7800839,1042.2516 8.7406401,1042.3555 8.6933392,1042.4495 8.0768065,1043.6737 5.4646472,1042.9495 5.0894699,1043.6079 5.0655062,1043.6499 5.0318242,1043.6982 5.0272835,1043.7524 5.0260245,1043.7608 5.0438507,1043.7709 5.0431142,1043.7797 5.041605,1043.8431 5.0292729,1043.9086 5.0558397,1043.9901 5.0821926,1044.0827 5.1334743,1044.1847 5.2025583,1044.3054 5.2086022,1044.3159 5.2119965,1044.3218 5.218389,1044.3326 5.572311,1044.3184 5.7979865,1044.3349 5.9451624,1044.3879 6.0711215,1044.4411 6.1555938,1044.5015 6.1424785,1044.6015 6.0646093,1045.1953 3.8661398,1046.5226 3.422026,1047.4678 3.3852943,1047.5459 3.3471423,1047.6258 3.3366617,1047.6981 3.3354756,1047.7048 3.3534449,1047.7188 3.3524925,1047.7254 3.3512182,1047.8935 3.3469354,1048.0594 3.3663546,1048.1893 3.3674555,1048.1974 3.3810132,1048.2087 3.3821853,1048.2166 3.402734,1048.3395 3.420486,1048.4459 3.4582339,1048.536 3.4615725,1048.5445 3.4705879,1048.5548 3.4740646,1048.5632 3.5559725,1048.7412 3.6807116,1048.8513 3.8212045,1048.9087 4.7004823,1049.3186 6.5927183,1047.49 7.1409523,1046.57 7.4924147,1046.0641 7.687847,1045.9005 7.7978876,1045.9394 7.8400466,1045.9681 7.8707167,1046.0199 7.8928721,1046.1028 7.8961768,1046.1133 7.9056778,1046.1185 7.9087029,1046.1299 7.931341,1046.2238 7.9412526,1046.3396 7.9573317,1046.465 7.999906,1046.8016 8.0630847,1047.2014 8.2677362,1047.3761 8.3109278,1047.408 8.3554911,1047.4278 8.4133182,1047.4379 8.5326032,1047.4678 8.6714884,1047.4581 8.8763472,1047.3539 8.8764727,1047.339 8.8877606,1047.3259 8.8879361,1047.311 8.8897427,1047.0972 8.8794601,1046.9004 8.8930101,1046.691 8.8940149,1046.6763 8.9035272,1046.6627 8.904599,1046.648 8.9190801,1046.4391 8.950749,1046.2267 8.9803429,1046.0238 8.9825105,1046.0094 8.9896786,1045.9952 8.9919318,1045.9808 9.0236204,1045.7724 9.0595796,1045.5683 9.1109262,1045.3682 9.1648132,1045.1596 9.2215604,1044.9488 9.3005906,1044.7512 9.4358209,1044.4131 9.6296822,1044.1145 9.8540573,1043.8169 9.8977127,1043.759 9.9236113,1043.697 9.9710833,1043.6409 10.11241,1043.4724 10.246399,1043.3147 10.424492,1043.1632 10.602428,1043.0112 10.804754,1042.8797 11.023483,1042.7473 L 11.019323,1046.198 C 10.592142,1046.9469 9.7566586,1047.4858 9.1666792,1048.1676 8.9281001,1048.2663 8.7592668,1048.4129 8.6225277,1048.5521 8.5685288,1048.6071 8.5018953,1048.6581 8.4622516,1048.7166 8.4547857,1048.7268 8.4576871,1048.7493 8.4506626,1048.7595 8.4069135,1048.8302 8.3742522,1048.8901 8.3494677,1048.9627 8.3433196,1048.9782 8.3431716,1048.9902 8.3378788,1049.0057 8.3051826,1049.1186 8.2648751,1049.226 8.2725871,1049.3335 8.2792156,1049.4774 8.3275967,1049.621 8.3961279,1049.7346 8.4930843,1049.8847 8.6475665,1049.9932 8.8255268,1050.033 8.8947403,1050.0502 8.9474373,1050.0692 9.0259481,1050.0633 9.1659016,1050.0526 9.324068,1050.01 9.4847353,1049.9091 9.6454025,1049.8082 9.8113252,1049.6549 9.9813943,1049.443 10.115557,1049.2638 10.234854,1049.1 10.336713,1048.9852 10.54043,1048.7554 10.698152,1048.6632 10.798605,1048.6478 10.835336,1048.6491 10.876313,1048.6697 10.900937,1048.6981 10.962737,1048.7686 10.986618,1048.9148 10.997059,1049.1148 11.007499,1049.3148 11.018372,1049.5595 11.012058,1049.8322 11.005424,1050.1052 10.981054,1050.3894 10.992289,1050.6784 10.992614,1050.6875 11.007762,1050.6967 11.008119,1050.7057 11.020183,1050.984 11.036547,1051.2494 11.098031,1051.489 11.158972,1051.7373 11.273918,1051.9486 11.418887,1052.1037 11.494339,1052.1792 11.567307,1052.2452 11.671042,1052.2858 11.78138,1052.334 11.895465,1052.3638 12.044466,1052.3622 14.226266,1052.3857 11.962215,1046.5703 14.108815,1049.4364 15.469254,1051.1326 16.70279,1048.939 14.927995,1048.2045 14.338104,1047.5226 13.477114,1046.9807 13.049819,1046.232 L 13.038148,1042.7539 C 14.788093,1043.8144 15.187679,1045.527 15.203024,1047.3571 16.720606,1048.1289 15.537426,1044.5536 16.943188,1046.5774 17.667664,1047.7931 20.801762,1050.6234 20.757708,1047.7303 20.574577,1046.4675 16.061607,1044.2212 18.892785,1044.3345 20.027195,1042.4199 15.653813,1044.1902 15.313148,1042.1394 13.877088,1040.8472 16.126461,1041.4593 16.923561,1041.3252 17.871478,1041.1167 18.542034,1041.558 19.095702,1042.2943 L 21.162711,1044.3401 C 23.880566,1043.3149 18.1613,1040.7641 21.522495,1041.375 23.149176,1042.1215 25.463278,1039.8438 22.985884,1039.302 21.672722,1039.4031 19.068593,1039.4463 21.409629,1038.1002 23.148565,1036.8351 20.431938,1035.6839 19.92639,1037.4984 19.005774,1038.5388 18.033024,1039.6685 16.517868,1039.3071 15.768087,1039.1963 13.56865,1039.7032 15.199147,1038.6111 15.798501,1036.5201 18.676834,1038.1034 19.196207,1036.6829 18.922266,1035.8747 16.64348,1036.6526 18.354072,1035.4232 19.270888,1034.8816 21.118405,1033.0116 20.750562,1032.1255 z"
         id="rect3842"
         inkscape:connector-curvature="0" />
    </g>
  </g>
</svg>
