<?xml version="1.0" encoding="UTF-8" standalone="no"?>
<!-- Created with Inkscape (http://www.inkscape.org/) -->

<svg
   xmlns:dc="http://purl.org/dc/elements/1.1/"
   xmlns:cc="http://creativecommons.org/ns#"
   xmlns:rdf="http://www.w3.org/1999/02/22-rdf-syntax-ns#"
   xmlns:svg="http://www.w3.org/2000/svg"
   xmlns="http://www.w3.org/2000/svg"
   xmlns:sodipodi="http://sodipodi.sourceforge.net/DTD/sodipodi-0.dtd"
   xmlns:inkscape="http://www.inkscape.org/namespaces/inkscape"
   width="24"
   height="24"
   id="svg2"
   version="1.1"
   inkscape:version="0.48.3.1 r9886"
   sodipodi:docname="snow-flake.svg">
  <defs
     id="defs4" />
  <sodipodi:namedview
     id="base"
     pagecolor="#ffffff"
     bordercolor="#666666"
     borderopacity="1.0"
     inkscape:pageopacity="0.0"
     inkscape:pageshadow="2"
     inkscape:zoom="16"
     inkscape:cx="6.4559731"
     inkscape:cy="8.6114043"
     inkscape:document-units="px"
     inkscape:current-layer="text2993"
     showgrid="true"
     inkscape:window-width="1920"
     inkscape:window-height="1150"
     inkscape:window-x="0"
     inkscape:window-y="0"
     inkscape:window-maximized="1"
     inkscape:snap-nodes="true"
     inkscape:snap-bbox="true"
     inkscape:snap-global="true"
     inkscape:snap-bbox-midpoints="false">
    <inkscape:grid
       type="xygrid"
       id="grid2985"
       empspacing="4"
       visible="true"
       enabled="true"
       snapvisiblegridlinesonly="true" />
  </sodipodi:namedview>
  <metadata
     id="metadata7">
    <rdf:RDF>
      <cc:Work
         rdf:about="">
        <dc:format>image/svg+xml</dc:format>
        <dc:type
           rdf:resource="http://purl.org/dc/dcmitype/StillImage" />
        <dc:title />
      </cc:Work>
    </rdf:RDF>
  </metadata>
  <g
     inkscape:label="Layer 1"
     inkscape:groupmode="layer"
     id="layer1"
     transform="translate(0,-1028.3622)">
    <g
       style="font-size:8px;font-style:normal;font-variant:normal;font-weight:normal;font-stretch:normal;text-align:end;line-height:125%;letter-spacing:0px;word-spacing:0px;text-anchor:end;fill:#2980b9;fill-opacity:1;stroke:none;font-family:FontAwesome;-inkscape-font-specification:FontAwesome"
       id="text2993">
      <path
         style="fill:#3498db;fill-opacity:1;fill-rule:nonzero;stroke:none"
         d="M 9.1875 0.375 C 8.8727337 0.3330125 8.5391657 0.5582 8.1875 1.1875 C 7.7132623 2.3655 10.458974 6.52555 8.09375 5.03125 C 6.1725479 6.11965 10.790729 6.78525 10.0625 8.71875 C 10.647791 10.54005 8.9980388 8.903 8.25 8.625 C 7.3361832 8.3368 6.9821963 7.5946 6.875 6.6875 L 6.125 3.90625 C 3.2923002 3.44745 6.9444392 8.46585 4.375 6.28125 C 3.7111994 5.33975 2.1821942 5.38095 1.6875 5.96875 C 1.4258304 6.69105 2.1653338 8.0207 3.3125 8.125 C 6.4891892 9.2578 0.31135025 8.61985 2.125 10.84375 L 4.90625 10.09375 C 5.7453963 9.73305 6.5435332 9.69635 7.25 10.34375 C 7.8647888 10.85245 10.119941 11.43995 8.25 11.84375 C 6.9396788 13.44105 4.0757979 9.76065 4.09375 11.96875 C 6.570524 13.26985 1.5956123 12.96895 0.8125 13.96875 C -0.66408743 16.44545 3.4000669 15.52975 4.625 14.84375 C 6.5275196 13.99265 4.7208218 15.5516 5.28125 16.1875 C 6.7605145 16.4496 6.8103796 13.2229 8.90625 13.75 C 10.651057 12.8991 9.149514 14.4916 8.875 15.1875 C 8.4383264 16.6622 6.9749935 16.94885 5.625 17.21875 C 3.8135 16.74895 3.4590364 19.6699 5.40625 18.8125 C 7.7204286 17.4804 6.3913356 19.6778 5.65625 20.75 C 4.9001413 23.1368 8.0274275 22.2615 8.1875 20.5 C 9.3203128 17.3233 8.6824332 23.5011 10.90625 21.6875 L 10.15625 18.90625 C 9.7956059 18.06705 9.7589734 17.269 10.40625 16.5625 C 10.915092 15.9478 11.502454 13.6927 11.90625 15.5625 C 13.50363 16.873 9.8230936 19.73675 12.03125 19.71875 C 13.330985 17.24225 13.034429 22.216 14.03125 23 C 16.500103 24.4757 15.595292 20.411 14.90625 19.1875 C 13.85773 16.9799 16.353065 19.77445 16.4375 18.09375 C 14.869677 17.17095 13.580664 15.99155 13.53125 13.96875 L 16.53125 15.6875 C 16.965033 16.4248 17.016658 17.43805 17.3125 18.28125 C 17.068885 20.16345 19.570005 20.1935 18.78125 18.1875 C 17.373207 14.9281 21.256202 19.7515 22.3125 17.875 C 23.409552 16.0218 17.285757 15.06655 20.8125 14.65625 C 22.944105 14.33645 21.664385 12.19175 20.15625 13.34375 C 19.278108 13.50905 18.386683 13.97565 17.53125 13.96875 L 14.53125 12.25 C 16.307814 11.2813 17.979427 11.791 19.5625 12.6875 C 20.975815 11.7739 17.31398 11.0082 19.75 10.8125 C 21.154141 10.7975 25.137353 9.5253 22.625 8.125 C 21.447529 7.6539 17.286535 10.39495 18.78125 8.03125 C 17.692794 6.10995 17.05858 10.7281 15.125 10 C 13.303804 10.5852 14.940842 8.96675 15.21875 8.21875 C 15.507023 7.30485 16.217906 6.95105 17.125 6.84375 L 19.90625 6.09375 C 20.364933 3.26105 15.346563 6.8819 17.53125 4.3125 C 18.976677 3.2931 18.157791 0.18295 16.46875 2.03125 C 15.907735 3.20395 14.659779 5.45135 14.65625 2.78125 C 14.425287 0.66605 12.09365 2.416 13.40625 3.75 C 13.847543 5.054 14.340076 6.447 13.28125 7.5625 C 12.815814 8.1483 12.166757 10.28025 12.03125 8.34375 C 10.52693 6.79215 13.310365 5.11875 12.34375 3.96875 C 11.512872 3.80125 11.05792 6.1357 10.84375 4.0625 C 10.829963 3.00965 10.131799 0.5009625 9.1875 0.375 z "
         transform="translate(0,1028.3622)"
         id="rect3842" />
      <path
         inkscape:connector-curvature="0"
         style="font-size:8px;font-style:normal;font-variant:normal;font-weight:normal;font-stretch:normal;text-align:end;line-height:125%;letter-spacing:0px;word-spacing:0px;text-anchor:end;fill:#2980b9;fill-opacity:1;fill-rule:nonzero;stroke:none;font-family:FontAwesome;-inkscape-font-specification:FontAwesome"
         d="M 22.302218,1046.2324 C 21.24592,1048.1089 17.361732,1043.279 18.769775,1046.5384 19.55853,1048.5444 17.037378,1048.4992 17.280993,1046.617 16.985151,1045.7738 16.931595,1044.7732 16.497812,1044.0359 L 13.52085,1042.3172 C 13.570264,1044.34 14.841768,1045.5159 16.409591,1046.4387 16.325156,1048.1194 13.825182,1045.329 14.873702,1047.5366 15.562744,1048.7601 16.468853,1052.8379 14,1051.3622 13.003179,1050.5782 13.29875,1045.6016 11.999015,1048.0781 9.790859,1048.0961 13.467614,1045.2366 11.870234,1043.9261 11.466438,1042.0563 10.87853,1044.2854 10.369688,1044.9001 9.722411,1045.6066 9.76995,1046.4127 10.130594,1047.2519 L 10.874015,1050.0266 C 8.650198,1051.8402 9.291028,1045.6788 8.158215,1048.8555 7.998142,1050.617 4.881529,1051.4831 5.637638,1049.0963 6.372723,1048.0241 7.704661,1045.8173 5.390482,1047.1494 3.443269,1048.0068 3.799223,1045.1107 5.610723,1045.5805 6.960717,1045.3106 8.404114,1045.023 8.840788,1043.5483 9.115302,1042.8524 10.630802,1041.2441 8.885995,1042.095 6.790125,1041.5679 6.745692,1044.8139 5.266427,1044.5518 4.705999,1043.9159 6.508315,1042.345 4.605796,1043.1961 3.380863,1043.8821 -0.696537,1044.7992 0.780051,1042.3225 1.563163,1041.3227 6.541016,1041.6226 4.064242,1040.3215 4.046289,1038.1134 6.905866,1041.79 8.216187,1040.1927 10.086128,1039.7889 7.856955,1039.2009 7.242166,1038.6922 6.535699,1038.0448 5.729638,1038.0923 4.890492,1038.453 L 2.115684,1039.1965 C 0.302035,1036.9726 6.463471,1037.6135 3.286781,1036.4807 2.139615,1036.3764 1.391298,1035.0328 1.652968,1034.3105 L 22.302218,1046.2324 z"
         id="rect3842-4-6" />
    </g>
  </g>
</svg>
