<?xml version="1.0" encoding="UTF-8" standalone="no"?>
<!-- Created with Inkscape (http://www.inkscape.org/) -->

<svg
   xmlns:dc="http://purl.org/dc/elements/1.1/"
   xmlns:cc="http://creativecommons.org/ns#"
   xmlns:rdf="http://www.w3.org/1999/02/22-rdf-syntax-ns#"
   xmlns:svg="http://www.w3.org/2000/svg"
   xmlns="http://www.w3.org/2000/svg"
   xmlns:sodipodi="http://sodipodi.sourceforge.net/DTD/sodipodi-0.dtd"
   xmlns:inkscape="http://www.inkscape.org/namespaces/inkscape"
   width="24"
   height="24"
   id="svg2"
   version="1.1"
   inkscape:version="0.48.3.1 r9886"
   sodipodi:docname="social-youtube.svg">
  <defs
     id="defs4" />
  <sodipodi:namedview
     id="base"
     pagecolor="#ffffff"
     bordercolor="#666666"
     borderopacity="1.0"
     inkscape:pageopacity="0.0"
     inkscape:pageshadow="2"
     inkscape:zoom="64"
     inkscape:cx="9.6020018"
     inkscape:cy="17.218092"
     inkscape:document-units="px"
     inkscape:current-layer="text2993"
     showgrid="true"
     inkscape:window-width="1920"
     inkscape:window-height="1150"
     inkscape:window-x="0"
     inkscape:window-y="0"
     inkscape:window-maximized="1"
     inkscape:snap-nodes="true"
     inkscape:snap-bbox="true"
     inkscape:snap-global="true"
     inkscape:snap-bbox-midpoints="false"
     inkscape:bbox-paths="true">
    <inkscape:grid
       type="xygrid"
       id="grid2985"
       empspacing="4"
       visible="true"
       enabled="true"
       snapvisiblegridlinesonly="true" />
  </sodipodi:namedview>
  <metadata
     id="metadata7">
    <rdf:RDF>
      <cc:Work
         rdf:about="">
        <dc:format>image/svg+xml</dc:format>
        <dc:type
           rdf:resource="http://purl.org/dc/dcmitype/StillImage" />
        <dc:title />
      </cc:Work>
    </rdf:RDF>
  </metadata>
  <g
     inkscape:label="Layer 1"
     inkscape:groupmode="layer"
     id="layer1"
     transform="translate(0,-1028.3622)">
    <g
       style="font-size:8px;font-style:normal;font-variant:normal;font-weight:normal;font-stretch:normal;text-align:end;line-height:125%;letter-spacing:0px;word-spacing:0px;text-anchor:end;fill:#2980b9;fill-opacity:1;stroke:none;font-family:FontAwesome;-inkscape-font-specification:FontAwesome"
       id="text2993">
      <path
         style="font-size:8px;font-style:normal;font-variant:normal;font-weight:normal;font-stretch:normal;text-align:end;line-height:125%;letter-spacing:0px;word-spacing:0px;text-anchor:end;fill:#c0392b;fill-opacity:1;fill-rule:nonzero;stroke:none;font-family:FontAwesome;-inkscape-font-specification:FontAwesome"
         d="M 12,1039.3622 C 8.989502,1039.3622 6.7593233,1039.4555 5.2743682,1039.6103 4.7956062,1039.6645 4.3642591,1039.8586 4.0072202,1040.1684 3.6501803,1040.4782 3.4060207,1040.8587 3.2924188,1041.3156 3.0814406,1042.2138 3,1043.5346 3,1045.3467 3,1047.1898 3.0814406,1048.5414 3.2924188,1049.4087 3.3979068,1049.8656 3.6501792,1050.2462 4.0072202,1050.556 4.3723709,1050.8658 4.7712312,1051.0677 5.2418773,1051.1141 6.7349483,1051.2767 8.989502,1051.3622 12,1051.3622 15.010481,1051.3622 17.265033,1051.2767 18.758123,1051.1141 19.228749,1051.0677 19.668213,1050.8658 20.025271,1050.556 20.382292,1050.2462 20.59396,1049.8656 20.707581,1049.4087 20.918541,1048.5104 20.999981,1047.1588 21,1045.3467 20.999981,1043.5037 20.918541,1042.1829 20.707581,1041.3156 20.602073,1040.8587 20.390408,1040.4782 20.025271,1040.1684 19.668213,1039.8586 19.228749,1039.6645 18.758123,1039.6103 17.265033,1039.4555 15.010481,1039.3622 12,1039.3622 z"
         id="rect3801-1-2"
         inkscape:connector-curvature="0" />
      <path
         style="font-size:8px;font-style:normal;font-variant:normal;font-weight:normal;font-stretch:normal;text-align:end;line-height:125%;letter-spacing:0px;word-spacing:0px;text-anchor:end;fill:#e74c3c;fill-opacity:1;fill-rule:nonzero;stroke:none;font-family:FontAwesome;-inkscape-font-specification:FontAwesome"
         d="M 12,1038.3622 C 8.9895017,1038.3622 6.7593233,1038.4555 5.2743682,1038.6103 4.7956062,1038.6645 4.3642591,1038.8586 4.0072202,1039.1684 3.6501803,1039.4782 3.4060207,1039.8587 3.2924188,1040.3156 3.0814406,1041.2138 3,1042.5346 3,1044.3467 3,1046.1898 3.0814406,1047.5414 3.2924188,1048.4087 3.3979068,1048.8656 3.6501792,1049.2462 4.0072202,1049.556 4.3723709,1049.8658 4.7712312,1050.0677 5.2418773,1050.1141 6.7349483,1050.2767 8.9895017,1050.3622 12,1050.3622 15.010481,1050.3622 17.265033,1050.2767 18.758123,1050.1141 19.228749,1050.0677 19.668213,1049.8658 20.025271,1049.556 20.382292,1049.2462 20.59396,1048.8656 20.707581,1048.4087 20.918541,1047.5104 20.999981,1046.1588 21,1044.3467 20.999981,1042.5037 20.918541,1041.1829 20.707581,1040.3156 20.602073,1039.8587 20.390408,1039.4782 20.025271,1039.1684 19.668213,1038.8586 19.228749,1038.6645 18.758123,1038.6103 17.265033,1038.4555 15.010481,1038.3622 12,1038.3622 z"
         id="rect3801-1"
         inkscape:connector-curvature="0" />
      <path
         style="fill:#202020;fill-opacity:1;fill-rule:nonzero;stroke:none"
         d="M 6.5 1 L 8 6 L 8 9 L 9 9 L 9 6 L 10.5 1 L 9.5 1 L 8.5 4.34375 L 7.5 1 L 6.5 1 z M 12.5 3 C 11.671573 3 11 3.6716 11 4.5 L 11 7.5 C 11 8.3284 11.671573 9 12.5 9 C 13.328427 9 14 8.3284 14 7.5 L 14 4.5 C 14 3.6716 13.328427 3 12.5 3 z M 15 3 L 15 3.34375 L 15 5 L 15 7.75 C 14.99999 8.1321 15.036242 8.41395 15.09375 8.59375 C 15.187175 8.87085 15.419372 9.0001 15.75 9 C 16.109354 9.0001 16.619061 8.7768 17 8.3125 L 17 8.5625 L 17 9 L 18 9 L 18 3 L 17 3 L 17 7.5 L 17 7.59375 C 16.784368 7.91575 16.412795 8.09375 16.21875 8.09375 C 16.089366 8.09375 16.02155 8.00855 16 7.84375 C 15.9928 7.82885 15.999987 7.6847 16 7.4375 L 16 5 L 16 3.34375 L 16 3 L 15 3 z M 12.5 4 C 12.776142 4 13 4.2239 13 4.5 L 13 7.5 C 13 7.7761 12.776142 8 12.5 8 C 12.223858 8 12 7.7761 12 7.5 L 12 4.5 C 12 4.2239 12.223858 4 12.5 4 z "
         transform="translate(0,1028.3622)"
         id="rect3812" />
      <rect
         style="fill:#ecf0f1;fill-opacity:1;fill-rule:nonzero;stroke:none"
         id="rect4002"
         width="4"
         height="1"
         x="4.5"
         y="1040.3622" />
      <rect
         style="fill:#ecf0f1;fill-opacity:1;fill-rule:nonzero;stroke:none"
         id="rect4004"
         width="1"
         height="7"
         x="6"
         y="1041.3622" />
      <path
         style="font-size:8px;font-style:normal;font-variant:normal;font-weight:normal;font-stretch:normal;text-align:end;line-height:125%;letter-spacing:0px;word-spacing:0px;text-anchor:end;fill:#ecf0f1;fill-opacity:1;fill-rule:nonzero;stroke:none;font-family:FontAwesome;-inkscape-font-specification:FontAwesome"
         d="M 8,1042.3622 8,1042.706 8,1044.3622 8,1047.1122 C 7.99999,1047.4943 8.036242,1047.7762 8.09375,1047.956 8.187175,1048.2331 8.419372,1048.3623 8.75,1048.3622 9.109354,1048.3623 9.619061,1048.139 10,1047.6747 L 10,1047.9247 10,1048.3622 11,1048.3622 11,1042.3622 10,1042.3622 10,1046.8622 10,1046.956 C 9.784368,1047.278 9.412795,1047.456 9.21875,1047.456 9.089366,1047.456 9.02155,1047.3708 9,1047.206 8.9928,1047.1911 8.999987,1047.0469 9,1046.7997 L 9,1044.3622 9,1042.706 9,1042.3622 8,1042.3622 z"
         id="rect3812-3"
         inkscape:connector-curvature="0" />
      <path
         style="font-size:8px;font-style:normal;font-variant:normal;font-weight:normal;font-stretch:normal;text-align:end;line-height:125%;letter-spacing:0px;word-spacing:0px;text-anchor:end;fill:#ecf0f1;fill-opacity:1;fill-rule:nonzero;stroke:none;font-family:FontAwesome;-inkscape-font-specification:FontAwesome"
         d="M 12 12 L 12 14 L 12 20 L 13 20 L 13 19.5625 L 13 19.3125 C 13.380939 19.7768 13.890646 20.0001 14.25 20 C 14.580628 20.0001 14.812825 19.87085 14.90625 19.59375 C 14.963758 19.41395 15.00001 19.1321 15 18.75 L 15 17 L 15 15.25 C 15.00001 14.8679 14.963758 14.58605 14.90625 14.40625 C 14.812825 14.12915 14.580628 13.9999 14.25 14 C 13.890646 13.9999 13.380939 14.2232 13 14.6875 L 13 14 L 13 12 L 12 12 z M 13.78125 14.90625 C 13.910634 14.90625 13.97845 14.99145 14 15.15625 C 14.0072 15.17115 14.000013 15.3153 14 15.5625 L 14 17 L 14 18.4375 C 14.000013 18.6847 14.0072 18.82885 14 18.84375 C 13.97845 19.00855 13.910634 19.09375 13.78125 19.09375 C 13.587205 19.09375 13.215632 18.91575 13 18.59375 L 13 18.5 L 13 15.40625 C 13.215632 15.08425 13.587205 14.90625 13.78125 14.90625 z "
         transform="translate(0,1028.3622)"
         id="rect3812-3-9" />
      <path
         style="font-size:8px;font-style:normal;font-variant:normal;font-weight:normal;font-stretch:normal;text-align:end;line-height:125%;letter-spacing:0px;word-spacing:0px;text-anchor:end;fill:#ecf0f1;fill-opacity:1;fill-rule:nonzero;stroke:none;font-family:FontAwesome;-inkscape-font-specification:FontAwesome"
         d="M 17.5 14 C 16.671573 14 16 14.6716 16 15.5 L 16 18.5 C 16 19.3284 16.671573 20 17.5 20 C 18.328427 20 19 19.3284 19 18.5 L 19 18 L 18 18 L 18 18.5 C 18 18.7761 17.776142 19 17.5 19 C 17.223858 19 17 18.7761 17 18.5 L 17 18 L 17 17 L 18 17 L 19 17 L 19 15.5 C 19 14.6716 18.328427 14 17.5 14 z M 17.5 15 C 17.776142 15 18 15.2239 18 15.5 L 18 16 L 17 16 L 17 15.5 C 17 15.2239 17.223858 15 17.5 15 z "
         transform="translate(0,1028.3622)"
         id="rect3812-5" />
    </g>
  </g>
</svg>
