<?xml version="1.0" encoding="UTF-8" standalone="no"?>
<!-- Created with Inkscape (http://www.inkscape.org/) -->

<svg
   xmlns:dc="http://purl.org/dc/elements/1.1/"
   xmlns:cc="http://creativecommons.org/ns#"
   xmlns:rdf="http://www.w3.org/1999/02/22-rdf-syntax-ns#"
   xmlns:svg="http://www.w3.org/2000/svg"
   xmlns="http://www.w3.org/2000/svg"
   xmlns:sodipodi="http://sodipodi.sourceforge.net/DTD/sodipodi-0.dtd"
   xmlns:inkscape="http://www.inkscape.org/namespaces/inkscape"
   width="24"
   height="24"
   id="svg2"
   version="1.1"
   inkscape:version="0.48.3.1 r9886"
   sodipodi:docname="google.svg">
  <defs
     id="defs4" />
  <sodipodi:namedview
     id="base"
     pagecolor="#ffffff"
     bordercolor="#666666"
     borderopacity="1.0"
     inkscape:pageopacity="0.0"
     inkscape:pageshadow="2"
     inkscape:zoom="24.251465"
     inkscape:cx="1.55735"
     inkscape:cy="14.415712"
     inkscape:document-units="px"
     inkscape:current-layer="text2993"
     showgrid="true"
     inkscape:window-width="1920"
     inkscape:window-height="1150"
     inkscape:window-x="0"
     inkscape:window-y="0"
     inkscape:window-maximized="1"
     inkscape:snap-nodes="true"
     inkscape:snap-bbox="true"
     inkscape:snap-global="true"
     inkscape:snap-bbox-midpoints="false">
    <inkscape:grid
       type="xygrid"
       id="grid2985"
       empspacing="4"
       visible="true"
       enabled="true"
       snapvisiblegridlinesonly="true" />
  </sodipodi:namedview>
  <metadata
     id="metadata7">
    <rdf:RDF>
      <cc:Work
         rdf:about="">
        <dc:format>image/svg+xml</dc:format>
        <dc:type
           rdf:resource="http://purl.org/dc/dcmitype/StillImage" />
        <dc:title></dc:title>
      </cc:Work>
    </rdf:RDF>
  </metadata>
  <g
     inkscape:label="Layer 1"
     inkscape:groupmode="layer"
     id="layer1"
     transform="translate(0,-1028.3622)">
    <g
       style="font-size:8px;font-style:normal;font-variant:normal;font-weight:normal;font-stretch:normal;text-align:end;line-height:125%;letter-spacing:0px;word-spacing:0px;text-anchor:end;fill:#2980b9;fill-opacity:1;stroke:none;font-family:FontAwesome;-inkscape-font-specification:FontAwesome"
       id="text2993">
      <path
         inkscape:connector-curvature="0"
         style="font-size:8px;font-style:normal;font-variant:normal;font-weight:normal;font-stretch:normal;text-align:end;line-height:125%;letter-spacing:0px;word-spacing:0px;text-anchor:end;fill:#c0392b;fill-opacity:1;fill-rule:nonzero;stroke:none;font-family:FontAwesome;-inkscape-font-specification:FontAwesome"
         d="M 4,1031.3622 C 2.8954305,1031.3622 2,1032.2576 2,1033.3622 L 2,1049.3622 C 2,1050.4668 2.8954305,1051.3622 4,1051.3622 L 20,1051.3622 C 21.104569,1051.3622 22,1050.4668 22,1049.3622 L 22,1033.3622 C 22,1032.2576 21.104569,1031.3622 20,1031.3622 L 4,1031.3622 z"
         id="path3243-3" />
      <path
         style="fill:#e74c3c;fill-opacity:1;fill-rule:nonzero;stroke:none"
         d="M 4 2 C 2.8954305 2 2 2.8954305 2 4 L 2 20 C 2 21.104569 2.8954305 22 4 22 L 20 22 C 21.104569 22 22 21.104569 22 20 L 22 4 C 22 2.8954305 21.104569 2 20 2 L 4 2 z "
         transform="translate(0,1028.3622)"
         id="path3243" />
      <path
         inkscape:connector-curvature="0"
         style="font-size:14px;font-style:normal;font-variant:normal;font-weight:normal;font-stretch:normal;text-align:end;line-height:125%;letter-spacing:0px;word-spacing:0px;text-anchor:end;fill:#c0392b;fill-opacity:1;stroke:none;font-family:Wingdings;-inkscape-font-specification:Wingdings"
         d="M 10.875,1035.3622 C 10.390621,1035.3623 9.89583,1035.4143 9.40625,1035.5185 8.682289,1035.68 8.08854,1036.0654 7.59375,1036.6435 7.098957,1037.2164 6.843749,1037.8518 6.84375,1038.581 6.843749,1039.3518 7.135416,1040.0081 7.6875,1040.5185 8.244789,1041.0289 8.911456,1041.2685 9.6875,1041.2685 9.843746,1041.2685 10.010413,1041.2633 10.21875,1041.2372 10.208329,1041.2789 10.213537,1041.3206 10.1875,1041.3935 10.161454,1041.4612 10.14062,1041.5393 10.125,1041.581 10.10937,1041.6226 10.072913,1041.6747 10.0625,1041.7372 10.052079,1041.7945 10.062496,1041.831 10.0625,1041.8935 10.062496,1042.2373 10.229162,1042.6487 10.5625,1043.081 10.166663,1043.0914 9.760413,1043.1123 9.375,1043.1747 8.98958,1043.232 8.578122,1043.3258 8.15625,1043.456 7.734373,1043.581 7.364582,1043.7737 7.03125,1044.0185 6.697916,1044.2581 6.447916,1044.5288 6.28125,1044.8622 6.088542,1045.2476 6,1045.607 6,1045.9247 6,1046.2737 6.0625,1046.5809 6.21875,1046.8622 6.375,1047.1486 6.598958,1047.4039 6.84375,1047.581 7.088541,1047.7633 7.36979,1047.8987 7.6875,1048.0185 8.010415,1048.1435 8.312498,1048.2476 8.625,1048.2997 8.942705,1048.3518 9.255205,1048.3622 9.5625,1048.3622 10.958328,1048.3622 12.052077,1048.0133 12.84375,1047.331 13.572909,1046.6956 13.937492,1045.9768 13.9375,1045.1435 13.937492,1044.8466 13.901033,1044.5549 13.8125,1044.2997 13.729158,1044.0392 13.609367,1043.8258 13.46875,1043.6435 13.333326,1043.456 13.197909,1043.2997 13.03125,1043.1435 12.864576,1042.982 12.69791,1042.8362 12.53125,1042.706 12.364577,1042.5758 12.203118,1042.4508 12.0625,1042.331 11.927077,1042.2112 11.807286,1042.0862 11.71875,1041.956 11.635411,1041.8258 11.593744,1041.6852 11.59375,1041.5497 11.593744,1041.3622 11.661452,1041.18 11.78125,1041.0185 11.901035,1040.8518 12.046869,1040.7008 12.21875,1040.5497 12.390618,1040.3935 12.578118,1040.232 12.75,1040.0497 12.921868,1039.8674 13.067701,1039.6279 13.1875,1039.331 13.307284,1039.0289 13.343743,1038.6851 13.34375,1038.2997 13.343743,1037.8414 13.265617,1037.3779 13.0625,1036.956 12.859368,1036.5341 12.557285,1036.2216 12.1875,1035.9872 L 13.25,1035.9872 14.3125,1035.3622 10.875,1035.3622 z M 9.8125,1035.9247 C 10.156246,1035.9248 10.473953,1036.0236 10.75,1036.2372 11.031244,1036.4507 11.249994,1036.7215 11.40625,1037.0497 11.567702,1037.3778 11.697911,1037.7268 11.78125,1038.081 11.869786,1038.43 11.906244,1038.7685 11.90625,1039.081 11.906244,1039.6018 11.79166,1040.0133 11.5625,1040.331 11.338536,1040.6435 10.973953,1040.7998 10.46875,1040.7997 10.20312,1040.7998 9.958329,1040.7476 9.71875,1040.6122 9.479163,1040.4768 9.260413,1040.2945 9.09375,1040.081 8.92708,1039.8622 8.781247,1039.6019 8.65625,1039.331 8.531247,1039.0602 8.437497,1038.7894 8.375,1038.5185 8.317706,1038.2477 8.281248,1038.0133 8.28125,1037.7685 8.281248,1037.2685 8.421873,1036.8154 8.6875,1036.456 8.953122,1036.0966 9.328122,1035.9248 9.8125,1035.9247 z M 16,1038.3622 16,1040.3622 14,1040.3622 14,1041.3622 16,1041.3622 16,1043.3622 17,1043.3622 17,1041.3622 19,1041.3622 19,1040.3622 17,1040.3622 17,1038.3622 16,1038.3622 z M 10.625,1043.5497 C 10.79687,1043.5497 10.942703,1043.5393 11.03125,1043.5497 11.062495,1043.5706 11.124995,1043.6175 11.25,1043.706 11.380203,1043.7946 11.458327,1043.8623 11.5,1043.8935 11.546869,1043.9248 11.635411,1043.9924 11.75,1044.081 11.869786,1044.1695 11.953119,1044.2216 12,1044.2685 12.052077,1044.3102 12.124994,1044.3987 12.21875,1044.4872 12.312494,1044.5758 12.395827,1044.6383 12.4375,1044.706 12.484369,1044.7685 12.531243,1044.8622 12.59375,1044.956 12.661451,1045.0497 12.723951,1045.1175 12.75,1045.206 12.776035,1045.2893 12.79166,1045.383 12.8125,1045.4872 12.838535,1045.5861 12.843743,1045.6903 12.84375,1045.7997 12.843743,1046.1278 12.770826,1046.4299 12.625,1046.6747 12.484368,1046.9195 12.307285,1047.1018 12.0625,1047.2372 11.817702,1047.3779 11.531245,1047.4872 11.25,1047.5497 10.973953,1047.6174 10.682287,1047.6435 10.375,1047.6435 10.041663,1047.6435 9.703122,1047.5966 9.375,1047.5185 9.046872,1047.4404 8.739581,1047.3362 8.4375,1047.1747 8.140623,1047.0185 7.906248,1046.7997 7.71875,1046.5185 7.536457,1046.2424 7.437499,1045.9351 7.4375,1045.581 7.437499,1045.2685 7.515623,1044.982 7.65625,1044.7372 7.796873,1044.4924 7.968748,1044.2893 8.1875,1044.1435 8.406247,1043.9977 8.677081,1043.8935 8.96875,1043.7997 9.260414,1043.706 9.541663,1043.6175 9.8125,1043.581 10.083329,1043.5446 10.343746,1043.5497 10.625,1043.5497 z"
         id="path3920-9" />
      <path
         style="font-size:14px;line-height:125%;font-family:Wingdings;-inkscape-font-specification:Wingdings;fill:#ecf0f1"
         d="M 10.875 6 C 10.390621 6.0001 9.8958295 6.05205 9.40625 6.15625 C 8.682289 6.31775 8.0885395 6.70315 7.59375 7.28125 C 7.0989572 7.85415 6.8437491 8.48955 6.84375 9.21875 C 6.8437491 9.98955 7.1354155 10.64585 7.6875 11.15625 C 8.2447894 11.66665 8.9114555 11.90625 9.6875 11.90625 C 9.843746 11.90625 10.010413 11.9011 10.21875 11.875 C 10.208329 11.9167 10.213537 11.95835 10.1875 12.03125 C 10.161454 12.09895 10.14062 12.17705 10.125 12.21875 C 10.10937 12.26035 10.072913 12.3125 10.0625 12.375 C 10.052079 12.4323 10.062496 12.46875 10.0625 12.53125 C 10.062496 12.87505 10.229162 13.28645 10.5625 13.71875 C 10.166663 13.72915 9.760413 13.7501 9.375 13.8125 C 8.9895804 13.8698 8.5781224 13.96355 8.15625 14.09375 C 7.7343732 14.21875 7.3645819 14.41145 7.03125 14.65625 C 6.6979159 14.89585 6.4479163 15.1666 6.28125 15.5 C 6.0885416 15.8854 6 16.2448 6 16.5625 C 6 16.9115 6.0625 17.2187 6.21875 17.5 C 6.3749997 17.7864 6.5989577 18.04165 6.84375 18.21875 C 7.0885405 18.40105 7.3697903 18.53645 7.6875 18.65625 C 8.0104146 18.78125 8.3124977 18.8854 8.625 18.9375 C 8.9427054 18.9896 9.2552051 19 9.5625 19 C 10.958328 19 12.052077 18.65105 12.84375 17.96875 C 13.572909 17.33335 13.937492 16.61455 13.9375 15.78125 C 13.937492 15.48435 13.901033 15.1927 13.8125 14.9375 C 13.729158 14.677 13.609367 14.46355 13.46875 14.28125 C 13.333326 14.09375 13.197909 13.93745 13.03125 13.78125 C 12.864576 13.61975 12.69791 13.47395 12.53125 13.34375 C 12.364577 13.21355 12.203118 13.08855 12.0625 12.96875 C 11.927077 12.84895 11.807286 12.72395 11.71875 12.59375 C 11.635411 12.46355 11.593744 12.323 11.59375 12.1875 C 11.593744 12 11.661452 11.81775 11.78125 11.65625 C 11.901035 11.48955 12.046869 11.3386 12.21875 11.1875 C 12.390618 11.0313 12.578118 10.8698 12.75 10.6875 C 12.921868 10.5052 13.067701 10.26565 13.1875 9.96875 C 13.307284 9.66665 13.343743 9.3229 13.34375 8.9375 C 13.343743 8.4792 13.265617 8.01565 13.0625 7.59375 C 12.859368 7.17185 12.557285 6.8594 12.1875 6.625 L 13.25 6.625 L 14.3125 6 L 10.875 6 z M 9.8125 6.5625 C 10.156246 6.5626 10.473953 6.6614 10.75 6.875 C 11.031244 7.0885 11.249994 7.3593 11.40625 7.6875 C 11.567702 8.0156 11.697911 8.36455 11.78125 8.71875 C 11.869786 9.06775 11.906244 9.40625 11.90625 9.71875 C 11.906244 10.23955 11.79166 10.65105 11.5625 10.96875 C 11.338536 11.28125 10.973953 11.4376 10.46875 11.4375 C 10.20312 11.4376 9.958329 11.3854 9.71875 11.25 C 9.4791632 11.1146 9.2604134 10.93225 9.09375 10.71875 C 8.9270804 10.49995 8.7812473 10.23965 8.65625 9.96875 C 8.5312475 9.69795 8.4374975 9.42715 8.375 9.15625 C 8.317706 8.88545 8.2812477 8.65105 8.28125 8.40625 C 8.2812477 7.90625 8.4218726 7.45315 8.6875 7.09375 C 8.9531221 6.73435 9.3281217 6.5626 9.8125 6.5625 z M 16 9 L 16 11 L 14 11 L 14 12 L 16 12 L 16 14 L 17 14 L 17 12 L 19 12 L 19 11 L 17 11 L 17 9 L 16 9 z M 10.625 14.1875 C 10.79687 14.1875 10.942703 14.1771 11.03125 14.1875 C 11.062495 14.2084 11.124995 14.25525 11.25 14.34375 C 11.380203 14.43235 11.458327 14.50005 11.5 14.53125 C 11.546869 14.56255 11.635411 14.63015 11.75 14.71875 C 11.869786 14.80725 11.953119 14.85935 12 14.90625 C 12.052077 14.94795 12.124994 15.0365 12.21875 15.125 C 12.312494 15.2136 12.395827 15.27605 12.4375 15.34375 C 12.484369 15.40625 12.531243 15.49995 12.59375 15.59375 C 12.661451 15.68745 12.723951 15.75525 12.75 15.84375 C 12.776035 15.92705 12.79166 16.0208 12.8125 16.125 C 12.838535 16.2239 12.843743 16.3281 12.84375 16.4375 C 12.843743 16.7656 12.770826 17.0677 12.625 17.3125 C 12.484368 17.5573 12.307285 17.7396 12.0625 17.875 C 11.817702 18.0157 11.531245 18.125 11.25 18.1875 C 10.973953 18.2552 10.682287 18.28125 10.375 18.28125 C 10.041663 18.28125 9.7031215 18.23435 9.375 18.15625 C 9.046872 18.07815 8.7395805 17.974 8.4375 17.8125 C 8.1406228 17.6563 7.906248 17.43745 7.71875 17.15625 C 7.5364567 16.88015 7.4374985 16.57285 7.4375 16.21875 C 7.4374985 15.90625 7.5156234 15.6198 7.65625 15.375 C 7.7968732 15.1302 7.968748 14.92705 8.1875 14.78125 C 8.4062475 14.63545 8.6770807 14.5313 8.96875 14.4375 C 9.2604135 14.3438 9.5416632 14.25525 9.8125 14.21875 C 10.083329 14.18235 10.343746 14.1875 10.625 14.1875 z "
         transform="translate(0,1028.3622)"
         id="path3920" />
    </g>
  </g>
</svg>
