<?xml version="1.0" encoding="UTF-8" standalone="no"?>
<!-- Created with Inkscape (http://www.inkscape.org/) -->

<svg
   xmlns:dc="http://purl.org/dc/elements/1.1/"
   xmlns:cc="http://creativecommons.org/ns#"
   xmlns:rdf="http://www.w3.org/1999/02/22-rdf-syntax-ns#"
   xmlns:svg="http://www.w3.org/2000/svg"
   xmlns="http://www.w3.org/2000/svg"
   xmlns:sodipodi="http://sodipodi.sourceforge.net/DTD/sodipodi-0.dtd"
   xmlns:inkscape="http://www.inkscape.org/namespaces/inkscape"
   width="24"
   height="24"
   id="svg2"
   version="1.1"
   inkscape:version="0.48.3.1 r9886"
   sodipodi:docname="stamp.svg">
  <defs
     id="defs4" />
  <sodipodi:namedview
     id="base"
     pagecolor="#ffffff"
     bordercolor="#666666"
     borderopacity="1.0"
     inkscape:pageopacity="0.0"
     inkscape:pageshadow="2"
     inkscape:zoom="17.862487"
     inkscape:cx="24.695314"
     inkscape:cy="9.3557842"
     inkscape:document-units="px"
     inkscape:current-layer="layer1"
     showgrid="true"
     inkscape:window-width="1920"
     inkscape:window-height="1150"
     inkscape:window-x="0"
     inkscape:window-y="0"
     inkscape:window-maximized="1"
     inkscape:snap-bbox="true"
     inkscape:snap-nodes="true">
    <inkscape:grid
       type="xygrid"
       id="grid2985"
       empspacing="4"
       visible="true"
       enabled="true"
       snapvisiblegridlinesonly="true" />
  </sodipodi:namedview>
  <metadata
     id="metadata7">
    <rdf:RDF>
      <cc:Work
         rdf:about="">
        <dc:format>image/svg+xml</dc:format>
        <dc:type
           rdf:resource="http://purl.org/dc/dcmitype/StillImage" />
        <dc:title />
      </cc:Work>
    </rdf:RDF>
  </metadata>
  <g
     inkscape:label="Layer 1"
     inkscape:groupmode="layer"
     id="layer1"
     transform="translate(0,-1028.3622)">
    <path
       inkscape:connector-curvature="0"
       style="fill:#95a5a6;fill-opacity:1;fill-rule:nonzero;stroke:none"
       d="M 1,1030.3622 1,1032.3622 C 1.5523,1032.3622 2,1032.8099 2,1033.3622 2,1033.9145 1.5523,1034.3622 1,1034.3622 L 1,1036.3622 C 1.5523,1036.3622 2,1036.8099 2,1037.3622 2,1037.9145 1.5523,1038.3622 1,1038.3622 L 1,1040.3622 C 1.5523,1040.3622 2,1040.8099 2,1041.3622 2,1041.9145 1.5523,1042.3622 1,1042.3622 L 1,1044.3622 C 1.5523,1044.3622 2,1044.8099 2,1045.3622 2,1045.9145 1.5523,1046.3622 1,1046.3622 L 1,1048.3622 C 1.5523,1048.3622 2,1048.8099 2,1049.3622 2,1049.9145 1.5523,1050.3622 1,1050.3622 L 1,1052.3622 3,1052.3622 C 3,1051.8099 3.4477153,1051.3622 4,1051.3622 4.5522847,1051.3622 5,1051.8099 5,1052.3622 L 7,1052.3622 C 7,1051.8099 7.447715,1051.3622 8,1051.3622 8.552285,1051.3622 9,1051.8099 9,1052.3622 L 11,1052.3622 C 11,1051.8099 11.447715,1051.3622 12,1051.3622 12.552285,1051.3622 13,1051.8099 13,1052.3622 L 15,1052.3622 C 15,1051.8099 15.447715,1051.3622 16,1051.3622 16.552285,1051.3622 17,1051.8099 17,1052.3622 L 19,1052.3622 C 19,1051.8099 19.447715,1051.3622 20,1051.3622 20.552285,1051.3622 21,1051.8099 21,1052.3622 L 23,1052.3622 23,1050.3622 C 22.4477,1050.3622 22,1049.9145 22,1049.3622 22,1048.8099 22.4477,1048.3622 23,1048.3622 L 23,1046.3622 C 22.4477,1046.3622 22,1045.9145 22,1045.3622 22,1044.8099 22.4477,1044.3622 23,1044.3622 L 23,1042.3622 C 22.4477,1042.3622 22,1041.9145 22,1041.3622 22,1040.8099 22.4477,1040.3622 23,1040.3622 L 23,1038.3622 C 22.4477,1038.3622 22,1037.9145 22,1037.3622 22,1036.8099 22.4477,1036.3622 23,1036.3622 L 23,1034.3622 C 22.4477,1034.3622 22,1033.9145 22,1033.3622 22,1032.8099 22.4477,1032.3622 23,1032.3622 L 23,1030.3622 21,1030.3622 C 21,1030.9145 20.552285,1031.3622 20,1031.3622 19.447715,1031.3622 19,1030.9145 19,1030.3622 L 17,1030.3622 C 17,1030.9145 16.552285,1031.3622 16,1031.3622 15.447715,1031.3622 15,1030.9145 15,1030.3622 L 13,1030.3622 C 13,1030.9145 12.552285,1031.3622 12,1031.3622 11.447715,1031.3622 11,1030.9145 11,1030.3622 L 9,1030.3622 C 9,1030.9145 8.5522847,1031.3622 8,1031.3622 7.4477153,1031.3622 7,1030.9145 7,1030.3622 L 5,1030.3622 C 5,1030.9145 4.5522847,1031.3622 4,1031.3622 3.4477153,1031.3622 3,1030.9145 3,1030.3622 L 1,1030.3622 z"
       id="rect3003-8" />
    <path
       style="fill:#bdc3c7;fill-opacity:1;fill-rule:nonzero;stroke:none"
       d="M 1 1 L 1 3 C 1.5523 3 2 3.4477 2 4 C 2 4.5523 1.5523 5 1 5 L 1 7 C 1.5523 7 2 7.4477 2 8 C 2 8.5523 1.5523 9 1 9 L 1 11 C 1.5523 11 2 11.4477 2 12 C 2 12.5523 1.5523 13 1 13 L 1 15 C 1.5523 15 2 15.4477 2 16 C 2 16.5523 1.5523 17 1 17 L 1 19 C 1.5523 19 2 19.4477 2 20 C 2 20.5523 1.5523 21 1 21 L 1 23 L 3 23 C 3 22.4477 3.4477153 22 4 22 C 4.5522847 22 5 22.4477 5 23 L 7 23 C 7 22.4477 7.447715 22 8 22 C 8.552285 22 9 22.4477 9 23 L 11 23 C 11 22.4477 11.447715 22 12 22 C 12.552285 22 13 22.4477 13 23 L 15 23 C 15 22.4477 15.447715 22 16 22 C 16.552285 22 17 22.4477 17 23 L 19 23 C 19 22.4477 19.447715 22 20 22 C 20.552285 22 21 22.4477 21 23 L 23 23 L 23 21 C 22.4477 21 22 20.5523 22 20 C 22 19.4477 22.4477 19 23 19 L 23 17 C 22.4477 17 22 16.5523 22 16 C 22 15.4477 22.4477 15 23 15 L 23 13 C 22.4477 13 22 12.5523 22 12 C 22 11.4477 22.4477 11 23 11 L 23 9 C 22.4477 9 22 8.5523 22 8 C 22 7.4477 22.4477 7 23 7 L 23 5 C 22.4477 5 22 4.5523 22 4 C 22 3.4477 22.4477 3 23 3 L 23 1 L 21 1 C 21 1.5522847 20.552285 2 20 2 C 19.447715 2 19 1.5522847 19 1 L 17 1 C 17 1.5522847 16.552285 2 16 2 C 15.447715 2 15 1.5522847 15 1 L 13 1 C 13 1.5522847 12.552285 2 12 2 C 11.447715 2 11 1.5522847 11 1 L 9 1 C 9 1.5522847 8.5522847 2 8 2 C 7.4477153 2 7 1.5522847 7 1 L 5 1 C 5 1.5522847 4.5522847 2 4 2 C 3.4477153 2 3 1.5522847 3 1 L 1 1 z "
       transform="translate(0,1028.3622)"
       id="rect3003" />
    <rect
       style="fill:#3498db;fill-opacity:1;fill-rule:nonzero;stroke:none"
       id="rect3283"
       width="16"
       height="16"
       x="4"
       y="4"
       transform="translate(0,1028.3622)" />
    <g
       style="font-size:12.72310925px;font-style:normal;font-variant:normal;font-weight:normal;font-stretch:normal;text-align:end;line-height:125%;letter-spacing:0px;word-spacing:0px;text-anchor:end;fill:#2980b9;fill-opacity:1;stroke:none;font-family:Wingdings;-inkscape-font-specification:Wingdings"
       id="text3252"
       transform="translate(0.27458,-1.054)">
      <path
         d="M 10.439441,1041.0137 C 10.439436,1041.5231 10.547119,1041.9248 10.762489,1042.2189 10.98199,1042.5129 11.278117,1042.66 11.65087,1042.66 12.019469,1042.66 12.313525,1042.5129 12.533039,1042.2189 12.752538,1041.9207 12.862292,1041.519 12.862299,1041.0137 12.862292,1040.5125 12.750467,1040.117 12.526827,1039.8271 12.307313,1039.533 12.011186,1039.386 11.638445,1039.386 11.273975,1039.386 10.98199,1039.533 10.762489,1039.8271 10.547119,1040.117 10.439436,1040.5125 10.439441,1041.0137 M 12.986548,1042.8836 C 12.862292,1043.1777 12.661422,1043.4075 12.38394,1043.5732 12.110585,1043.7347 11.789609,1043.8155 11.421009,1043.8155 10.708642,1043.8155 10.128814,1043.5587 9.6815218,1043.0451 9.2383627,1042.5274 9.0167853,1041.8544 9.0167891,1041.0261 9.0167853,1040.1978 9.2404335,1039.5248 9.6877343,1039.007 10.135026,1038.4893 10.712784,1038.2305 11.421009,1038.2305 11.789609,1038.2305 12.110585,1038.3133 12.38394,1038.479 12.661422,1038.6447 12.862292,1038.8745 12.986548,1039.1686 L 12.986548,1038.3547 14.284951,1038.3547 14.284951,1042.66 C 14.798505,1042.5813 15.202314,1042.3349 15.49638,1041.9207 15.790426,1041.5024 15.937454,1040.9681 15.937465,1040.3179 15.937454,1039.9037 15.8774,1039.5165 15.757303,1039.1561 15.637186,1038.7917 15.454954,1038.4583 15.210607,1038.1559 14.817142,1037.6507 14.324288,1037.2614 13.732043,1036.988 13.143923,1036.7147 12.506111,1036.578 11.818607,1036.578 11.338171,1036.578 10.878449,1036.6422 10.439441,1036.7706 10.000423,1036.8948 9.5945431,1037.0791 9.2218001,1037.3235 8.6088345,1037.7294 8.1304759,1038.2553 7.7867229,1038.9014 7.4471064,1039.5434 7.2772995,1040.2392 7.2773015,1040.9888 7.2772995,1041.6059 7.3870528,1042.1858 7.6065616,1042.7283 7.8302075,1043.2667 8.151184,1043.743 8.5694923,1044.1572 8.9836523,1044.5631 9.4578693,1044.8716 9.9921446,1045.0828 10.530552,1045.2982 11.104168,1045.4059 11.712995,1045.4059 12.234834,1045.4059 12.75668,1045.3085 13.278534,1045.1139 13.800371,1044.9192 14.245597,1044.6562 14.614212,1044.3249 L 15.278944,1045.3313 C 14.76123,1045.7331 14.195897,1046.0395 13.582944,1046.2508 12.974116,1046.4661 12.354942,1046.5738 11.72542,1046.5738 10.959211,1046.5738 10.236496,1046.4371 9.5572727,1046.1638 8.8780406,1045.8946 8.2733622,1045.5011 7.7432357,1044.9834 7.2131042,1044.4657 6.809295,1043.8673 6.5318068,1043.188 6.2543161,1042.5047 6.1155714,1041.7716 6.1155723,1040.9888 6.1155714,1040.235 6.256387,1039.5165 6.5380193,1038.8331 6.819649,1038.1497 7.2213874,1037.5492 7.7432357,1037.0315 8.265079,1036.5179 8.8718282,1036.1203 9.5634852,1035.8387 10.259275,1035.5571 10.979919,1035.4163 11.72542,1035.4162 12.653139,1035.4163 13.495961,1035.5943 14.253889,1035.9505 15.011799,1036.3026 15.645469,1036.812 16.154901,1037.4788 16.465512,1037.8847 16.699515,1038.3258 16.856908,1038.802 17.01842,1039.2742 17.099182,1039.7712 17.099194,1040.293 17.099182,1041.4154 16.761639,1042.2872 16.086564,1042.9085 15.411467,1043.5297 14.458891,1043.8403 13.228834,1043.8403 L 12.986548,1043.8403 12.986548,1042.8836"
         id="path3257"
         inkscape:connector-curvature="0"
         style="fill:#2980b9" />
    </g>
    <rect
       style="fill:#2980b9;fill-opacity:1;fill-rule:nonzero;stroke:none"
       id="rect3303"
       width="16"
       height="1"
       x="4"
       y="19"
       transform="translate(0,1028.3622)" />
  </g>
</svg>
