<?xml version="1.0" encoding="UTF-8" standalone="no"?>
<!-- Created with Inkscape (http://www.inkscape.org/) -->

<svg
   xmlns:dc="http://purl.org/dc/elements/1.1/"
   xmlns:cc="http://creativecommons.org/ns#"
   xmlns:rdf="http://www.w3.org/1999/02/22-rdf-syntax-ns#"
   xmlns:svg="http://www.w3.org/2000/svg"
   xmlns="http://www.w3.org/2000/svg"
   xmlns:sodipodi="http://sodipodi.sourceforge.net/DTD/sodipodi-0.dtd"
   xmlns:inkscape="http://www.inkscape.org/namespaces/inkscape"
   version="1.1"
   width="24"
   height="24"
   id="svg2"
   inkscape:version="0.48.3.1 r9886"
   sodipodi:docname="star.svg">
  <sodipodi:namedview
     pagecolor="#ffffff"
     bordercolor="#666666"
     borderopacity="1"
     objecttolerance="10"
     gridtolerance="10"
     guidetolerance="10"
     inkscape:pageopacity="0"
     inkscape:pageshadow="2"
     inkscape:window-width="1920"
     inkscape:window-height="1150"
     id="namedview4623"
     showgrid="false"
     inkscape:zoom="9.8333333"
     inkscape:cx="12"
     inkscape:cy="12"
     inkscape:window-x="0"
     inkscape:window-y="0"
     inkscape:window-maximized="1"
     inkscape:current-layer="layer1" />
  <defs
     id="defs4" />
  <metadata
     id="metadata7">
    <rdf:RDF>
      <cc:Work
         rdf:about="">
        <dc:format>image/svg+xml</dc:format>
        <dc:type
           rdf:resource="http://purl.org/dc/dcmitype/StillImage" />
        <dc:title />
      </cc:Work>
    </rdf:RDF>
  </metadata>
  <g
     transform="translate(0,-1028.3622)"
     id="layer1">
    <path
       d="M 66.359863,1121.6499 65.723592,1120.9377 65.723626,1119.7353 65.723661,1118.5329 66.113871,1116.2704 C 66.328486,1115.0259 66.50408,1113.9659 66.50408,1113.9148 66.50408,1113.8451 66.373731,1113.7587 65.97969,1113.5677 L 65.455299,1113.3135 64.910713,1111.972 C 64.61119,1111.2341 64.364238,1110.5754 64.361932,1110.508 64.359549,1110.4386 64.452571,1110.2442 64.57725,1110.0583 64.79469,1109.7342 64.796763,1109.7272 64.796763,1109.3149 L 64.796763,1108.8988 64.28136,1108.8988 C 63.997889,1108.8988 63.728985,1108.8789 63.683798,1108.8548 63.638611,1108.8306 63.502859,1108.6083 63.382126,1108.3611 L 63.162615,1107.9116 62.828382,1107.9394 62.494149,1107.9672 61.345036,1107.3232 60.19592,1106.6793 59.836173,1106.2327 C 59.63831,1105.987 59.442435,1105.7729 59.400895,1105.757 59.359353,1105.741 59.142303,1105.7281 58.918562,1105.7281 L 58.511761,1105.7281 57.281142,1104.0942 56.050524,1102.4603 56.103818,1101.643 56.157112,1100.8256 55.776262,1100.2664 C 55.566794,1099.959 55.36041,1099.6853 55.317632,1099.6583 55.264432,1099.6247 55.168738,1099.6283 55.01484,1099.6693 54.891084,1099.7024 54.767337,1099.7157 54.739845,1099.6986 54.712353,1099.6816 54.615381,1099.5123 54.524351,1099.3224 54.351454,1098.9615 54.361219,1098.8944 54.580396,1098.9362 54.647218,1098.949 54.699194,1098.9358 54.699194,1098.9061 54.699194,1098.8353 53.690364,1097.7673 53.558682,1097.6983 53.501816,1097.6687 53.118518,1097.5933 52.706908,1097.5308 L 51.958523,1097.4172 50.078652,1098.3551 C 49.044724,1098.8707 48.186232,1099.2801 48.170894,1099.2648 48.155556,1099.2494 48.410831,1098.9684 48.738172,1098.6403 49.065512,1098.3122 49.333337,1098.0296 49.333337,1098.0124 49.333337,1097.995 49.12434,1097.8218 48.8689,1097.6273 48.613461,1097.4326 48.393744,1097.2276 48.38064,1097.1715 48.367538,1097.1154 48.269611,1096.4878 48.163027,1095.7769 47.985258,1094.5911 47.97583,1094.4793 48.048978,1094.4245 48.092834,1094.3918 48.460123,1094.1965 48.865174,1093.9906 L 49.601629,1093.6163 53.38212,1094.0145 C 55.46139,1094.2334 57.214688,1094.4122 57.278339,1094.4118 57.376293,1094.4112 57.384623,1094.3996 57.332575,1094.3369 57.298753,1094.2962 57.024708,1094.088 56.723586,1093.8744 56.422463,1093.6607 56.148524,1093.4527 56.114831,1093.4121 56.064898,1093.352 56.082856,1093.2188 56.211939,1092.6917 56.299042,1092.3362 56.394916,1092.0194 56.424995,1091.988 56.455074,1091.9564 58.235782,1091.2582 60.382125,1090.4361 L 64.284567,1088.9415 65.406519,1088.9944 C 67.030458,1089.071 67.291903,1089.0955 67.274698,1089.1691 67.266712,1089.2032 66.700422,1089.861 66.016275,1090.6308 65.332128,1091.4007 64.755772,1092.0595 64.735483,1092.095 64.714238,1092.1322 64.730941,1092.1919 64.774863,1092.2357 64.816812,1092.2778 65.607193,1092.9302 66.531266,1093.6857 67.455339,1094.4413 68.211399,1095.0857 68.211399,1095.1178 68.211399,1095.1498 67.962405,1095.4371 67.658081,1095.7562 L 67.104761,1096.3363 66.085169,1096.1519 C 65.524394,1096.0506 65.04589,1095.948 65.021828,1095.9239 64.996018,1095.8981 65.023356,1095.6497 65.088504,1095.3181 65.149238,1095.0092 65.18596,1094.7225 65.170108,1094.6812 65.148267,1094.6243 65.064821,1094.6061 64.825563,1094.6061 64.651913,1094.6061 64.496448,1094.6277 64.480084,1094.6543 64.463721,1094.6807 64.38529,1094.8901 64.305793,1095.1194 L 64.161255,1095.5367 64.267153,1095.9012 C 64.325397,1096.1015 64.358961,1096.2797 64.341739,1096.2969 64.324517,1096.3142 64.030217,1096.3027 63.68774,1096.2717 62.660451,1096.1785 62.777869,1096.1393 62.361993,1096.7144 62.16374,1096.9885 61.992346,1097.2479 61.981117,1097.291 61.96812,1097.3407 62.060619,1097.4514 62.235595,1097.5954 62.448113,1097.7704 62.606614,1097.8505 62.934113,1097.9484 63.167106,1098.0181 63.427607,1098.0971 63.513005,1098.1239 63.620712,1098.1577 63.814958,1098.3427 64.147151,1098.7283 64.410535,1099.0339 64.657002,1099.2797 64.694858,1099.2744 64.758658,1099.2654 65.089446,1098.386 65.089446,1098.2254 65.089446,1098.1884 65.045543,1098.1023 64.991884,1098.0341 64.90627,1097.9253 64.894323,1097.8362 64.894323,1097.3069 64.894323,1096.7522 64.901597,1096.7037 64.98468,1096.7037 65.225246,1096.7037 67.462195,1097.1051 67.509488,1097.1567 67.539291,1097.1893 67.998021,1097.7387 68.528887,1098.3777 69.353779,1099.3705 69.484186,1099.5492 69.42592,1099.6071 69.388421,1099.6442 68.754569,1100.0173 68.01736,1100.4361 67.28015,1100.8548 66.665515,1101.2088 66.651506,1101.2227 66.637495,1101.2366 66.615056,1101.4383 66.601641,1101.6709 L 66.577252,1102.0939 66.33132,1102.078 C 66.091047,1102.0624 66.080027,1102.0679 65.852199,1102.3113 65.660548,1102.5162 65.623682,1102.5843 65.645242,1102.693 65.749582,1103.2201 65.793642,1103.1307 65.167196,1103.6625 64.791843,1103.9811 64.601849,1104.1756 64.602263,1104.2402 64.602605,1104.2939 64.657483,1104.5088 64.724214,1104.7177 64.895652,1105.2546 64.897706,1105.2479 64.566586,1105.2304 64.288676,1105.2159 64.286932,1105.2148 64.101903,1104.9476 63.770294,1104.4686 63.876889,1104.5084 62.931385,1104.5094 62.468316,1104.5097 62.065496,1104.5262 62.03623,1104.5459 61.961174,1104.5964 61.382125,1105.649 61.382125,1105.7349 61.382125,1105.8424 62.040788,1106.411 62.165348,1106.411 62.224311,1106.411 62.434283,1106.3218 62.631953,1106.2126 L 62.991352,1106.0142 63.190943,1106.1263 63.390533,1106.2386 63.352251,1106.5077 C 63.331197,1106.6556 63.312842,1106.8645 63.311463,1106.9717 L 63.308957,1107.1664 63.560117,1107.1975 C 63.698257,1107.2145 63.832339,1107.2414 63.858078,1107.2572 63.883817,1107.2732 63.931351,1107.457 63.963709,1107.6657 64.057557,1108.2709 63.98727,1108.2159 64.665903,1108.2154 L 65.260178,1108.2151 65.815116,1107.9752 66.370056,1107.7351 66.766337,1107.8869 C 67.127777,1108.0255 67.227815,1108.0412 67.904173,1108.0664 68.312027,1108.0815 68.667232,1108.1159 68.693519,1108.1427 68.719804,1108.1696 68.762521,1108.3864 68.788443,1108.6245 68.817401,1108.8907 68.86101,1109.0737 68.901536,1109.0994 68.937814,1109.1224 69.213153,1109.1416 69.513398,1109.1419 69.813644,1109.1424 70.071054,1109.1617 70.085418,1109.185 70.099783,1109.2082 70.137797,1109.441 70.169894,1109.7021 70.202983,1109.9714 70.257798,1110.2065 70.296482,1110.2452 70.343135,1110.2919 70.483657,1110.3134 70.740872,1110.3134 L 71.117033,1110.3134 72.200803,1111.0258 C 72.796877,1111.4176 73.284483,1111.7524 73.284371,1111.7698 73.284261,1111.787 73.141668,1111.9659 72.967499,1112.1671 72.793331,1112.3684 72.64987,1112.5659 72.648699,1112.6061 72.647527,1112.6464 72.607413,1112.982 72.559557,1113.352 L 72.472544,1114.0247 72.227375,1114.2788 C 71.910263,1114.6076 67.677508,1119.1392 67.564493,1119.271 67.485353,1119.3633 67.484389,1119.3877 67.552298,1119.5802 67.592853,1119.6952 67.626031,1119.9352 67.626031,1120.1137 L 67.626031,1120.4382 67.30896,1120.7524 C 67.134569,1120.9253 66.991885,1121.0799 66.991885,1121.0959 66.991885,1121.112 67.101446,1121.2663 67.235352,1121.4388 67.369259,1121.6113 67.479014,1121.7823 67.479255,1121.8188 67.47976,1121.8957 67.101087,1122.3622 67.038249,1122.3622 67.015086,1122.3622 66.709813,1122.0417 66.359863,1121.6499 z M 111.35319,1120.3636 C 111.27758,1120.333 111.2364,1120.2493 111.19465,1120.0414 111.08856,1119.5132 111.07068,1119.5501 111.84557,1118.6955 112.23459,1118.2663 112.55289,1117.8946 112.55289,1117.8691 112.55289,1117.8438 112.43216,1117.6428 112.2846,1117.4224 112.13704,1117.202 112.0163,1116.9973 112.0163,1116.9676 112.0163,1116.8735 112.31012,1116.5035 112.3602,1116.5344 112.38655,1116.5508 112.51958,1116.7292 112.65581,1116.9311 L 112.90351,1117.2982 112.97109,1117.9643 C 113.07947,1119.0328 113.12431,1118.8831 112.45205,1119.6977 L 111.8634,1120.4111 111.65937,1120.408 C 111.54715,1120.4063 111.40937,1120.3862 111.35319,1120.3636 z M 106.73952,1118.2205 C 106.55724,1118.201 106.40734,1118.1501 106.3005,1118.071 106.21127,1118.0052 105.72737,1117.6467 105.22518,1117.2747 104.72299,1116.9028 104.28945,1116.6124 104.26176,1116.6295 104.23408,1116.6466 104.21142,1116.7115 104.21142,1116.7738 104.21142,1116.8359 104.18398,1116.9089 104.15045,1116.9356 104.05912,1117.0087 101.55933,1117.5288 101.51204,1117.4846 101.48957,1117.4636 101.52798,1117.2378 101.5974,1116.9831 101.66682,1116.7283 101.72362,1116.4885 101.72362,1116.4504 101.72362,1116.4121 101.60838,1116.3273 101.46752,1116.2618 L 101.21143,1116.1426 101.1979,1115.4501 101.18439,1114.7574 101.31985,1114.6594 C 101.59638,1114.4594 104.71019,1112.4598 104.74505,1112.4598 104.76496,1112.4598 105.11951,1112.6792 105.53292,1112.9475 105.94634,1113.2157 106.31016,1113.4351 106.34141,1113.4353 106.37681,1113.4353 106.41119,1113.293 106.43263,1113.0574 106.45155,1112.8495 106.48904,1112.6519 106.51594,1112.6184 106.54283,1112.5848 106.66194,1112.5573 106.78063,1112.5573 L 106.99642,1112.5573 107.99416,1114.0694 C 108.54293,1114.901 108.99192,1115.6189 108.99192,1115.6646 108.99192,1115.7405 107.77684,1118.0626 107.66319,1118.2038 107.61154,1118.2679 107.24288,1118.2747 106.73952,1118.2205 z M 83.957263,1117.1688 C 83.562598,1117.141 83.219962,1117.0964 83.195843,1117.0696 83.171735,1117.0427 82.849532,1116.1918 82.479856,1115.1787 L 81.80771,1113.3368 82.009559,1113.049 82.211408,1112.7614 82.211408,1112.254 82.211408,1111.7467 81.984476,1111.4813 C 81.859663,1111.3353 81.60268,1111.0322 81.413401,1110.8077 L 81.069256,1110.3995 81.286622,1110.2142 C 81.406174,1110.1122 81.493036,1110.0187 81.479649,1110.0062 81.466264,1109.9939 81.224823,1109.8336 80.943115,1109.6504 L 80.430919,1109.3171 79.251064,1109.2665 C 78.081648,1109.2163 78.069996,1109.2148 77.933991,1109.0897 77.85852,1109.0202 77.577259,1108.7707 77.308965,1108.5352 77.040674,1108.2996 76.806915,1108.082 76.789504,1108.0516 76.772093,1108.0212 76.741889,1107.4351 76.722384,1106.7492 L 76.686923,1105.5021 78.172499,1104.2283 79.658074,1102.9546 80.478664,1102.8738 81.299253,1102.7929 81.499234,1102.993 C 81.681991,1103.1758 81.699213,1103.2148 81.699213,1103.4463 L 81.699213,1103.6996 82.284579,1103.8843 C 82.606527,1103.986 82.895612,1104.0692 82.926967,1104.0694 82.958332,1104.0695 83.111991,1103.9599 83.268433,1103.826 83.424876,1103.6922 83.582104,1103.5824 83.617837,1103.5822 83.653558,1103.5819 83.782493,1103.6634 83.90434,1103.7633 L 84.125882,1103.9448 85.006398,1103.9843 85.886924,1104.024 86.073552,1103.8417 86.260191,1103.6594 86.260191,1103.2548 C 86.260191,1102.9627 86.243223,1102.8504 86.199215,1102.8516 86.165682,1102.8525 86.009272,1103.029 85.851638,1103.2439 85.694006,1103.4587 85.540432,1103.6265 85.510363,1103.6163 85.480295,1103.6063 85.279992,1103.3652 85.065249,1103.0806 84.661904,1102.5459 84.516256,1102.4353 84.570082,1102.7044 84.586253,1102.7852 84.614389,1103.0301 84.632611,1103.2486 84.660458,1103.5825 84.654805,1103.6393 84.597112,1103.6057 84.559362,1103.5838 84.360037,1103.4483 84.154145,1103.3048 83.878351,1103.1124 83.773111,1103.0085 83.754378,1102.9103 83.740386,1102.8369 83.703463,1102.6157 83.672332,1102.4186 83.618103,1102.0757 83.600688,1102.0426 83.260837,1101.6382 82.560383,1100.8047 82.525799,1100.7712 82.437313,1100.8447 82.393549,1100.881 82.357754,1100.9355 82.357754,1100.9659 82.357754,1100.9962 82.543702,1101.2815 82.770992,1101.5999 83.13493,1102.1097 83.177665,1102.1911 83.129214,1102.2827 83.029647,1102.4708 82.680775,1102.9476 82.642705,1102.9476 82.603425,1102.9476 82.543999,1102.7525 82.452496,1102.3231 82.393231,1102.0451 82.305075,1101.9548 81.661999,1101.5137 L 81.384969,1101.3235 81.110304,1101.5582 C 80.847899,1101.7824 80.82863,1101.7904 80.678596,1101.7361 80.592222,1101.7049 80.498381,1101.6793 80.470061,1101.6793 80.441739,1101.6793 80.029334,1102.0414 79.553604,1102.4842 79.077874,1102.9269 78.659668,1103.289 78.624258,1103.289 78.560546,1103.289 78.530626,1103.2196 78.158484,1102.2098 77.906938,1101.5271 77.907584,1101.5168 78.19921,1101.5513 78.32665,1101.5665 78.605751,1101.585 78.819436,1101.5925 L 79.207955,1101.6061 79.318634,1101.411 C 79.471598,1101.1414 79.460339,1101.0635 79.232545,1100.8165 79.123438,1100.698 79.042653,1100.5749 79.053019,1100.5427 79.063385,1100.5105 79.239932,1100.3492 79.445345,1100.184 79.752697,1099.937 79.861929,1099.878 80.062286,1099.8504 80.278921,1099.8207 80.354303,1099.7733 80.746383,1099.4209 80.988732,1099.2032 81.187017,1098.9874 81.187017,1098.9415 81.187017,1098.8956 81.143115,1098.7557 81.089457,1098.6306 81.035798,1098.5053 80.991895,1098.3832 80.991895,1098.3591 80.991895,1098.3129 81.343772,1098.1183 81.427431,1098.1183 81.454479,1098.1183 81.548647,1098.2183 81.636692,1098.3404 L 81.796775,1098.5626 82.577266,1098.532 C 83.006528,1098.5151 83.379698,1098.48 83.406527,1098.4541 83.433366,1098.4283 83.478214,1098.3151 83.506199,1098.2027 L 83.557094,1097.9981 84.40464,1097.68 C 84.870791,1097.505 85.260261,1097.3376 85.270111,1097.3081 85.279971,1097.2785 85.224189,1097.1859 85.14616,1097.1025 L 85.004273,1096.9505 84.484646,1097.1245 C 84.198844,1097.2203 83.934983,1097.287 83.898274,1097.2728 83.828542,1097.2462 83.57726,1096.74 83.57726,1096.6263 83.57726,1096.5903 83.741777,1096.4338 83.942846,1096.2786 84.143912,1096.1233 84.308548,1095.9734 84.308696,1095.9452 84.309195,1095.8519 83.928566,1095.5188 83.853999,1095.5473 83.787965,1095.5727 82.845558,1096.7604 82.845558,1096.8183 82.845558,1096.8323 82.924916,1096.9188 83.021912,1097.0102 L 83.198256,1097.1766 83.156053,1097.5865 83.11385,1097.9963 82.708241,1098.1291 C 82.074693,1098.3365 82.062462,1098.3351 81.939543,1098.0302 81.882132,1097.8879 81.814381,1097.7506 81.788987,1097.7251 81.759947,1097.6962 81.553952,1097.7055 81.233765,1097.7505 80.953787,1097.7897 80.7103,1097.8062 80.692683,1097.7872 80.651924,1097.743 80.724489,1096.8795 80.776229,1096.7929 80.870202,1096.6358 82.479558,1094.4737 82.572028,1094.3804 82.647784,1094.3039 82.925023,1094.2172 83.626039,1094.0508 84.149215,1093.9264 84.628775,1093.8249 84.691738,1093.8252 84.754702,1093.8255 85.463592,1093.9793 86.267055,1094.1671 87.070529,1094.355 87.737917,1094.5085 87.750146,1094.5085 87.850787,1094.5085 87.329343,1095.3331 87.222115,1095.3436 87.137551,1095.3518 87.159546,1095.3528 86.63824,1095.3164 86.257163,1095.2898 86.162632,1095.2961 86.162632,1095.3484 86.162632,1095.3842 86.314358,1095.5641 86.499807,1095.7482 L 86.83698,1096.0827 87.024193,1095.968 C 87.12716,1095.9049 87.655775,1095.5622 88.198872,1095.2065 L 89.18635,1094.5599 89.926573,1094.5464 C 90.425183,1094.5374 90.672821,1094.5149 90.685231,1094.4775 90.695367,1094.447 90.494448,1094.1836 90.238746,1093.8921 89.983034,1093.6006 89.774126,1093.3402 89.774487,1093.3134 89.774847,1093.2865 90.043427,1092.9897 90.371325,1092.6538 L 90.967516,1092.0429 91.815806,1091.6821 C 92.629862,1091.3359 92.666826,1091.3251 92.731852,1091.414 92.81819,1091.5321 92.919256,1091.8658 92.880442,1091.9045 92.864196,1091.9208 92.541812,1092.041 92.16404,1092.1717 91.786258,1092.3023 91.425379,1092.4369 91.362075,1092.4711 91.240631,1092.5364 90.455317,1093.3754 90.455317,1093.4399 90.455317,1093.4919 90.616125,1093.5998 91.424009,1094.0896 91.80924,1094.3232 92.138147,1094.5005 92.154924,1094.4837 92.171701,1094.4669 92.136394,1094.3679 92.076469,1094.2639 92.016544,1094.1597 91.967509,1094.0645 91.967509,1094.052 91.967509,1094.0271 92.982463,1093.1336 93.072691,1093.079 93.103706,1093.0603 93.575657,1093.1532 94.121464,1093.2855 94.728471,1093.4325 95.1317,1093.5086 95.159804,1093.481 95.18507,1093.4563 95.272875,1093.3102 95.354921,1093.1565 L 95.504097,1092.8767 97.350575,1092.1741 99.197051,1091.4712 100.00911,1091.6537 C 100.45574,1091.7539 101.01325,1091.8795 101.24801,1091.9327 101.48277,1091.986 101.67484,1092.0468 101.67484,1092.068 101.67484,1092.0893 101.29974,1092.3203 100.84129,1092.5812 100.35546,1092.8581 100.02583,1093.0741 100.05109,1093.0995 100.07492,1093.1233 101.27867,1093.263 102.72609,1093.41 104.17351,1093.5569 105.44251,1093.6893 105.54607,1093.7041 105.72995,1093.7303 105.74546,1093.72 106.20751,1093.2661 106.46772,1093.0104 106.70255,1092.8013 106.72932,1092.8013 106.7561,1092.8013 106.87243,1092.9784 106.98784,1093.1951 107.10325,1093.4117 107.22272,1093.5978 107.25333,1093.6086 107.28394,1093.6194 107.92171,1093.6853 108.6706,1093.7548 L 110.03219,1093.8812 110.41342,1094.0729 C 110.85888,1094.2969 110.86779,1094.2975 111.99192,1094.1671 112.44801,1094.1141 112.89253,1094.0705 112.97973,1094.0702 L 113.13826,1094.0696 113.13826,1095.6033 C 113.13826,1096.4468 113.12179,1097.147 113.10167,1097.1592 113.08155,1097.1715 112.59314,1097.2302 112.0163,1097.2895 111.43947,1097.349 110.94128,1097.4188 110.90919,1097.4446 110.86855,1097.4775 110.85856,1097.6126 110.87625,1097.8904 L 110.90164,1098.289 110.26073,1099.1183 C 109.90822,1099.5745 109.60007,1099.9546 109.57595,1099.9632 109.55183,1099.9719 109.5203,1099.9279 109.50588,1099.8657 109.46793,1099.7018 109.28459,1098.5226 109.28459,1098.4423 109.28459,1098.4049 109.42728,1098.1881 109.60168,1097.9603 109.77606,1097.7325 109.91875,1097.5212 109.91875,1097.4908 109.91875,1097.4175 109.92888,1097.417 108.56279,1097.5562 L 107.37757,1097.6771 106.62869,1098.0697 C 106.21681,1098.2857 105.85882,1098.4892 105.83316,1098.5221 105.75982,1098.6159 105.66546,1099.0554 105.70924,1099.0991 105.73093,1099.1207 105.94941,1099.0874 106.19476,1099.025 106.4401,1098.9626 106.66306,1098.9252 106.69023,1098.942 106.7174,1098.9588 106.7554,1099.3038 106.77468,1099.7087 L 106.80972,1100.4451 106.69349,1100.4761 C 106.62957,1100.4932 106.50736,1100.5075 106.42192,1100.5079 106.11488,1100.5093 106.03827,1100.5735 105.94567,1100.9069 105.89851,1101.0768 105.82783,1101.2521 105.78863,1101.2964 105.74941,1101.3407 105.41144,1101.5797 105.03755,1101.8277 104.66367,1102.0757 104.35778,1102.3029 104.35779,1102.3325 104.3578,1102.3623 104.40249,1102.5042 104.45709,1102.6478 104.52944,1102.8382 104.54214,1102.9262 104.50394,1102.9722 104.40719,1103.0888 103.67972,1103.5426 103.62102,1103.5231 103.5891,1103.5125 103.50169,1103.2987 103.42677,1103.0482 103.35187,1102.7976 103.27037,1102.5724 103.2457,1102.5478 103.19329,1102.4953 102.66614,1102.7388 102.63041,1102.8319 102.61759,1102.8652 102.64154,1103.3788 102.68363,1103.9732 102.74853,1104.8898 102.74997,1105.0637 102.6931,1105.1186 102.65623,1105.1542 102.03886,1105.5278 101.32118,1105.9488 100.60349,1106.3698 100.01629,1106.734 100.01629,1106.7582 100.01629,1106.7823 100.16126,1107.0198 100.33844,1107.2858 100.51563,1107.552 100.64665,1107.7924 100.6296,1107.8199 100.58876,1107.886 99.554338,1108.5087 99.485372,1108.5087 99.455962,1108.5087 99.33269,1108.311 99.211417,1108.0696 99.043,1107.7343 98.967637,1107.6305 98.892327,1107.6305 98.737414,1107.6305 98.730168,1107.7406 98.851845,1108.2454 L 98.96532,1108.7161 99.40544,1109.0091 C 99.647509,1109.1703 99.864068,1109.3187 99.886667,1109.3391 99.94365,1109.3905 99.848694,1109.5526 99.70737,1109.6451 99.602534,1109.7138 99.563996,1109.7146 99.356172,1109.652 99.031513,1109.5543 99.023928,1109.5572 99.057578,1109.7645 99.091811,1109.9754 99.195798,1110.0695 99.394687,1110.0695 99.638807,1110.0695 99.708699,1110.148 99.872185,1110.605 99.958557,1110.8465 100.0578,1111.0677 100.09275,1111.0966 100.1277,1111.1257 100.45813,1111.2653 100.82706,1111.4072 101.28365,1111.5827 101.5094,1111.6945 101.53412,1111.7575 101.58232,1111.8804 101.58692,1112.1672 101.54068,1112.1667 101.52057,1112.1665 101.15288,1112.1009 100.72361,1112.0209 100.29435,1111.9407 99.929965,1111.875 99.913867,1111.8748 99.861232,1111.8741 97.577269,1109.3452 97.577269,1109.2876 97.577269,1109.2471 97.691977,1109.2411 97.991911,1109.2661 98.314401,1109.2929 98.406541,1109.2867 98.406541,1109.2381 98.406541,1109.2038 98.105438,1108.5262 97.737442,1107.7323 L 97.068343,1106.2891 97.049727,1105.864 C 97.033715,1105.4984 97.018128,1105.4348 96.938334,1105.4095 96.735205,1105.3451 96.661308,1105.4246 96.571825,1105.8041 L 96.485901,1106.1687 95.875823,1106.6435 C 95.540286,1106.9046 95.231575,1107.1439 95.189798,1107.1752 95.132848,1107.2178 95.107762,1107.3577 95.089467,1107.7345 L 95.065071,1108.237 94.626046,1108.3739 C 94.384582,1108.4491 94.144914,1108.5046 94.093446,1108.4975 94.021695,1108.4872 93.950147,1108.3476 93.786787,1107.8988 93.311414,1106.5928 93.349909,1106.6686 93.122937,1106.5923 L 92.918734,1106.5235 92.918734,1105.9718 C 92.918734,1105.6473 92.898633,1105.4133 92.869955,1105.4036 92.663618,1105.3345 89.110307,1104.7124 89.082916,1104.7406 89.051997,1104.7725 89.500223,1105.5731 89.611063,1105.6838 89.635033,1105.7078 89.796066,1105.6798 89.981918,1105.6194 L 90.310402,1105.5126 90.651146,1105.8507 C 90.83856,1106.0367 90.9919,1106.218 90.9919,1106.2536 90.9919,1106.343 90.371612,1107.1056 90.242954,1107.1743 90.185367,1107.205 89.799169,1107.3558 89.38475,1107.5094 88.886066,1107.6942 88.608297,1107.7742 88.563364,1107.7459 88.526027,1107.7223 88.117857,1106.9755 87.656328,1106.0865 87.194799,1105.1974 86.787956,1104.4347 86.752235,1104.3918 86.68142,1104.3064 86.424709,1104.2881 86.310724,1104.3601 86.26288,1104.3903 86.233065,1104.5157 86.220401,1104.74 L 86.201477,1105.0748 86.792174,1106.2555 C 87.372916,1107.4162 87.387866,1107.4399 87.679501,1107.6674 88.149148,1108.0337 88.368458,1108.1701 88.451429,1108.1471 88.493812,1108.1353 88.789677,1108.1108 89.108894,1108.0924 89.624887,1108.0627 89.686045,1108.0675 89.659896,1108.1356 89.643735,1108.1777 89.091692,1108.9916 88.433154,1109.9439 87.774606,1110.8962 87.235801,1111.7076 87.235801,1111.7468 87.235801,1111.7861 87.291072,1111.8838 87.358615,1111.9641 87.461422,1112.0862 87.489038,1112.1882 87.528094,1112.5897 87.606518,1113.3962 87.64615,1113.3141 86.92504,1113.8396 86.853588,1113.8916 86.824719,1114.0045 86.791941,1114.3596 86.768927,1114.609 86.731517,1114.8379 86.708811,1114.8682 86.413711,1115.2615 84.817581,1117.1528 84.7567,1117.1813 84.711671,1117.2022 84.351919,1117.1966 83.957263,1117.1688 z M 89.955314,1102.9969 C 90.082219,1102.9644 90.162629,1102.9157 90.162629,1102.8715 90.162629,1102.8316 90.077724,1102.6295 89.973939,1102.4221 89.688945,1101.8527 89.689847,1101.8662 89.915949,1101.5666 90.140359,1101.2695 90.143823,1101.2567 90.03312,1101.1343 89.918573,1101.0078 89.862654,1101.0212 89.644108,1101.228 L 89.450807,1101.411 89.494943,1102.1915 C 89.537963,1102.9521 89.57275,1103.1082 89.690592,1103.069 89.722159,1103.0586 89.841286,1103.0261 89.955314,1102.9969 z M 85.436147,1101.8988 C 85.78027,1101.6455 85.75952,1101.6477 86.845555,1101.7499 87.234579,1101.7864 87.570829,1101.7994 87.592769,1101.7787 87.61471,1101.758 87.515929,1101.5519 87.373256,1101.3208 87.10437,1100.8852 86.994304,1100.8012 86.691938,1100.8012 86.562855,1100.8012 86.552878,1100.8148 86.552878,1100.9912 86.552878,1101.1991 86.502856,1101.2396 86.244009,1101.2411 86.11855,1101.2421 86.047362,1101.1947 85.86577,1100.9893 L 85.642081,1100.7365 85.292593,1101.1708 C 85.100387,1101.4096 84.943243,1101.6382 84.943391,1101.6787 84.943901,1101.8177 85.045264,1102.1182 85.09161,1102.1182 85.117111,1102.1182 85.27215,1102.0195 85.436147,1101.8988 z M 91.661924,1101.8134 C 91.68839,1101.7796 91.696508,1101.6436 91.680092,1101.5085 L 91.650438,1101.2647 91.455979,1101.2647 C 91.232631,1101.2647 91.206865,1101.3163 91.258503,1101.6607 91.288965,1101.8637 91.298645,1101.8744 91.452335,1101.8744 91.541309,1101.8744 91.635626,1101.8469 91.661924,1101.8134 z M 55.004072,1115.4775 C 54.83639,1115.367 54.699194,1115.2603 54.699194,1115.2405 54.699194,1115.1779 54.893358,1114.9549 55.036724,1114.8528 L 55.174911,1114.7544 55.475132,1114.9485 C 55.640253,1115.0552 55.788599,1115.1771 55.804789,1115.2192 55.839442,1115.3096 55.50104,1115.6795 55.384417,1115.6789 55.34291,1115.6785 55.171755,1115.5879 55.004072,1115.4775 z M 88.200137,1114.9566 C 87.939059,1114.7785 87.715722,1114.6071 87.703832,1114.5762 87.681795,1114.5187 87.921698,1113.6466 87.9899,1113.5362 88.044524,1113.4479 88.994781,1112.7037 89.053027,1112.7037 89.161265,1112.7037 89.430927,1112.9122 89.430927,1112.9959 89.430927,1113.1363 88.796062,1115.1606 88.732163,1115.2239 88.688441,1115.2672 88.562121,1115.2037 88.200137,1114.9566 z M 53.626023,1114.5773 C 53.451632,1114.4571 53.311733,1114.3283 53.315136,1114.2909 53.322533,1114.2096 53.770025,1113.6305 53.825431,1113.6305 53.888103,1113.6305 54.556226,1114.4636 54.528949,1114.5078 54.48891,1114.5726 54.078181,1114.8014 54.00758,1114.7984 53.972114,1114.7968 53.800413,1114.6974 53.626023,1114.5773 z M 106.26759,1111.8736 C 105.42653,1111.6917 104.72059,1111.5241 104.69883,1111.5013 104.64872,1111.4488 104.56417,1110.4229 104.60455,1110.3575 104.63717,1110.3048 107.70003,1111.0509 107.78034,1111.1311 107.83263,1111.1834 108.06509,1111.9991 108.06509,1112.1301 108.06509,1112.2558 107.97536,1112.243 106.26759,1111.8736 z M 102.66264,1111.19 C 102.60227,1111.1657 102.55289,1111.1366 102.55289,1111.1253 102.55289,1111.077 103.05043,1109.9921 103.09163,1109.9507 103.1421,1109.8998 103.65218,1110.0422 103.70071,1110.1207 103.71676,1110.1466 103.59231,1110.4092 103.42413,1110.7042 103.12382,1111.2307 103.11525,1111.2402 102.94537,1111.2372 102.85024,1111.2356 102.723,1111.2142 102.66264,1111.19 z M 101.12945,1111.0124 C 100.86974,1110.9447 100.64823,1110.8641 100.63721,1110.8331 100.62619,1110.8021 100.63606,1110.5684 100.65914,1110.3134 L 100.7011,1109.85 101.20016,1109.349 C 101.47465,1109.0733 101.72579,1108.8538 101.75826,1108.8612 101.82673,1108.8765 102.50448,1109.8173 102.50335,1109.8953 102.50294,1109.924 102.36256,1110.2111 102.1914,1110.533 101.82653,1111.2192 101.86174,1111.2034 101.12945,1111.0124 z M 66.97472,1107.0344 66.006335,1106.6864 66.033924,1106.5163 C 66.049098,1106.4228 66.081659,1106.3261 66.10628,1106.3014 66.133448,1106.2743 66.522465,1106.4142 67.095857,1106.6574 67.615502,1106.8779 68.115118,1107.0897 68.206114,1107.1284 68.34821,1107.1887 68.361889,1107.2082 68.303022,1107.2671 68.148508,1107.4217 67.960495,1107.3887 66.97472,1107.0344 z M 50.287967,1106.7037 C 50.003016,1106.5159 49.745104,1106.3623 49.71483,1106.3623 49.684555,1106.3623 49.522403,1106.4391 49.354489,1106.533 49.186575,1106.6268 49.013357,1106.7037 48.969557,1106.7037 48.861413,1106.7037 47.235632,1105.7357 47.203606,1105.6522 47.175377,1105.5786 47.269536,1105.2553 47.330082,1105.2179 47.351207,1105.2048 47.804162,1105.3691 48.336649,1105.5831 48.869136,1105.797 49.333725,1105.972 49.369069,1105.972 49.404415,1105.972 49.585895,1105.8952 49.772361,1105.8013 49.958827,1105.7073 50.140509,1105.6304 50.176097,1105.6304 50.271154,1105.6304 51.138215,1106.4546 51.138215,1106.5449 51.138215,1106.6421 50.904507,1107.0451 50.84813,1107.0451 50.824992,1107.0451 50.57292,1106.8915 50.287967,1106.7037 z M 64.750364,1106.3788 C 64.443138,1106.316 64.173651,1106.2464 64.151504,1106.2243 64.106056,1106.1788 64.197781,1105.6935 64.258965,1105.6557 64.304825,1105.6273 65.434453,1105.96 65.49715,1106.0204 65.5469,1106.0681 65.451225,1106.3837 65.367438,1106.4482 65.330517,1106.4766 65.103025,1106.451 64.750364,1106.3788 z M 106.38414,1105.068 C 106.26021,1104.6781 106.17075,1104.3397 106.18535,1104.3162 106.19995,1104.2926 106.27215,1104.2889 106.3458,1104.3079 106.44433,1104.3337 106.57255,1104.4775 106.83103,1104.8525 107.02425,1105.1328 107.1834,1105.3767 107.18469,1105.3946 107.18786,1105.4386 106.72348,1105.7768 106.66,1105.7768 106.6322,1105.7768 106.50806,1105.4578 106.38414,1105.068 z M 65.613836,1105.4566 C 65.390532,1105.3403 65.382127,1105.3281 65.382127,1105.1203 65.382127,1105.0016 65.401227,1104.8926 65.424569,1104.8783 65.465459,1104.8531 65.83774,1105.3435 65.89916,1105.5035 65.939227,1105.6079 65.888725,1105.5997 65.613836,1105.4566 z M 45.637862,1105.0817 C 45.576489,1105.0053 45.235773,1104.2656 45.235773,1104.209 45.235773,1104.1342 45.36593,1104.1636 45.942056,1104.3681 46.253496,1104.4786 46.500498,1104.5924 46.490947,1104.6211 46.474653,1104.67 45.78375,1105.1331 45.717356,1105.1397 45.70052,1105.1413 45.664747,1105.1153 45.637862,1105.0817 z M 104.4341,1104.0679 C 104.30777,1103.9328 104.21216,1103.7991 104.22164,1103.7706 104.23113,1103.7421 104.5864,1103.524 105.01113,1103.2858 105.43588,1103.0477 105.81092,1102.83 105.84458,1102.8021 105.87824,1102.7741 106.02095,1102.4167 106.16173,1102.008 106.30252,1101.5991 106.44263,1101.2386 106.47309,1101.207 106.51538,1101.1629 106.63245,1101.2119 106.96742,1101.414 107.20883,1101.5595 107.41394,1101.7014 107.42323,1101.7293 107.43958,1101.7784 106.56814,1103.2205 106.41108,1103.4043 106.35004,1103.4759 104.7569,1104.3134 104.68205,1104.3134 104.67201,1104.3134 104.56043,1104.2029 104.4341,1104.0679 z M 82.033473,1102.8991 C 81.975853,1102.8758 81.914722,1102.8342 81.897627,1102.8066 81.864749,1102.7533 82.062846,1102.4125 82.12725,1102.4116 82.170901,1102.4109 82.232763,1102.5616 82.282242,1102.789 82.311429,1102.9232 82.303024,1102.9471 82.227479,1102.9445 82.178396,1102.9428 82.091093,1102.9224 82.033473,1102.8991 z M 107.79146,1101.018 C 107.67901,1100.8708 107.66952,1100.8354 107.72801,1100.7828 107.8095,1100.7093 108.77333,1100.2646 108.85101,1100.2646 108.9336,1100.2646 109.28459,1100.5577 109.28459,1100.6267 109.28459,1100.6836 108.11076,1101.1932 107.9822,1101.192 107.95003,1101.1917 107.8642,1101.1135 107.79146,1101.018 z M 77.730167,1099.573 C 77.592409,1099.4611 77.479698,1099.3387 77.479698,1099.3011 77.479698,1099.1925 77.868115,1098.5571 77.933069,1098.5595 77.965422,1098.5606 78.105632,1098.7076 78.244645,1098.8861 78.427555,1099.1207 78.48595,1099.2313 78.455969,1099.2863 78.389469,1099.4081 78.061074,1099.7768 78.01905,1099.7768 77.997923,1099.7768 77.867925,1099.6852 77.730167,1099.573 z M 78.816306,1099.611 C 78.801906,1099.5735 78.846498,1099.4316 78.9154,1099.2956 79.074415,1098.9818 79.072729,1098.9475 78.889771,1098.7738 78.806775,1098.695 78.649835,1098.5248 78.541018,1098.3955 L 78.343169,1098.1605 78.60339,1097.897 C 78.782596,1097.7156 78.881076,1097.648 78.919715,1097.6801 78.950574,1097.7057 79.036356,1097.877 79.110342,1098.0609 79.231111,1098.3609 79.282265,1098.4242 79.610762,1098.6816 L 79.976662,1098.9682 79.94262,1099.2872 C 79.923897,1099.4625 79.883422,1099.6223 79.852676,1099.642 79.821929,1099.6617 79.58206,1099.6782 79.319632,1099.6786 78.955334,1099.6791 78.836299,1099.6631 78.816306,1099.611 z M 44,1097.1102 C 43.948301,1097.0584 43.96134,1094.1278 44.013412,1094.0957 44.038674,1094.0801 44.790504,1094.3597 45.684144,1094.7173 L 47.308944,1095.3671 47.489233,1095.633 C 47.588392,1095.7793 47.670709,1095.9262 47.672161,1095.9596 47.674232,1096.0074 47.410414,1096.0139 46.443091,1095.9905 45.26687,1095.962 45.200945,1095.9652 44.979675,1096.0621 44.852236,1096.118 44.747967,1096.1802 44.747967,1096.2004 44.747967,1096.2207 44.860741,1096.3513 44.998575,1096.491 45.138064,1096.6322 45.23803,1096.7739 45.22403,1096.8103 45.209835,1096.8472 44.957256,1096.9343 44.644155,1097.0101 44.032558,1097.1582 44.045998,1097.1562 44,1097.1102 z M 70.812003,1097.1077 C 70.669343,1097.0898 70.608494,1097.0129 70.074823,1096.1764 69.754897,1095.675 69.479488,1095.2399 69.462805,1095.2096 69.44612,1095.1793 69.323909,1094.6036 69.191225,1093.93 69.05854,1093.2565 68.938683,1092.6872 68.924879,1092.6649 68.870771,1092.5773 67.975108,1091.9232 67.90934,1091.9232 67.870903,1091.9232 67.644635,1091.9891 67.40652,1092.0695 67.168405,1092.15 66.946853,1092.2159 66.914182,1092.2159 66.839464,1092.2159 66.357738,1091.5714 66.357738,1091.4714 66.357738,1091.3916 68.040937,1089.2948 68.132048,1089.2611 68.20689,1089.2333 75.301702,1088.3622 75.452303,1088.3622 75.589405,1088.3622 77.260185,1089.7143 77.260185,1089.8253 77.260185,1089.8615 77.0736,1090.0562 76.84555,1090.258 76.617501,1090.4596 76.416334,1090.6482 76.39851,1090.6768 76.380687,1090.7055 76.330109,1091.1567 76.286113,1091.6796 76.242119,1092.2026 76.185376,1092.6809 76.160019,1092.7424 76.134663,1092.8041 75.794005,1093.3469 75.403003,1093.9489 74.747675,1094.9576 74.678066,1095.0472 74.512722,1095.0932 74.41407,1095.1207 73.883354,1095.2819 73.333354,1095.4515 L 72.333353,1095.7597 72.045105,1096.4512 71.756858,1097.1427 71.362179,1097.1348 C 71.145105,1097.1306 70.897525,1097.1184 70.812003,1097.1077 z M 75.752073,1096.2824 C 75.517216,1095.9307 75.353521,1095.6396 75.377303,1095.6158 75.442141,1095.551 76.906638,1095.1935 76.964938,1095.2283 77.103355,1095.3109 77.625988,1095.8083 77.626011,1095.8575 77.626038,1095.9108 76.391669,1096.8212 76.240704,1096.8793 76.190196,1096.8986 76.046085,1096.7225 75.752073,1096.2824 z"
       inkscape:connector-curvature="0"
       id="path3054-3"
       style="fill:#000000" />
    <g
       id="text2994-7"
       style="font-size:21.53846169px;font-style:normal;font-variant:normal;font-weight:normal;font-stretch:normal;text-align:end;line-height:125%;letter-spacing:0px;word-spacing:0px;text-anchor:end;fill:#e67e22;fill-opacity:1;stroke:none;font-family:Wingdings;-inkscape-font-specification:Wingdings">
      <path
         d="M 22.000001,1038.2168 C 21.999981,1038.3931 21.895814,1038.5854 21.687501,1038.7937 L 17.32452,1043.0485 18.358174,1049.0581 C 18.36617,1049.1142 18.370176,1049.1943 18.370193,1049.2985 18.370176,1049.4668 18.326106,1049.607 18.237981,1049.7192 18.157837,1049.8394 18.037645,1049.8995 17.877404,1049.8995 17.725145,1049.8995 17.564889,1049.8514 17.396635,1049.7552 L 12.000001,1046.9187 6.6033659,1049.7552 C 6.4270794,1049.8514 6.2668231,1049.8995 6.1225966,1049.8995 5.9543234,1049.8995 5.8261184,1049.8394 5.7379812,1049.7192 5.6578494,1049.607 5.6177853,1049.4668 5.6177889,1049.2985 5.6177853,1049.2504 5.6257981,1049.1703 5.6418274,1049.0581 L 6.6754813,1043.0485 2.3004812,1038.7937 C 2.1001606,1038.5773 2.0000005,1038.385 2.0000005,1038.2168 2.0000005,1037.9203 2.2243592,1037.736 2.6730774,1037.6639 L 8.7067313,1036.7865 11.411058,1031.3177 C 11.563292,1030.9892 11.759606,1030.825 12.000001,1030.8249 12.240375,1030.825 12.436689,1030.9892 12.588943,1031.3177 L 15.29327,1036.7865 21.326924,1037.6639 C 21.775622,1037.736 21.999981,1037.9203 22.000001,1038.2168"
         inkscape:connector-curvature="0"
         id="path3002"
         style="fill:#e67e22;font-family:FontAwesome;-inkscape-font-specification:FontAwesome" />
    </g>
    <g
       id="text2994"
       style="font-size:21.53846169px;font-style:normal;font-variant:normal;font-weight:normal;font-stretch:normal;text-align:end;line-height:125%;letter-spacing:0px;word-spacing:0px;text-anchor:end;fill:#f1c40f;fill-opacity:1;stroke:none;font-family:Wingdings;-inkscape-font-specification:Wingdings">
      <path
         d="M 22.000001,1037.2168 C 21.999981,1037.3931 21.895814,1037.5854 21.687501,1037.7937 L 17.32452,1042.0485 18.358174,1048.0581 C 18.36617,1048.1142 18.370176,1048.1943 18.370193,1048.2985 18.370176,1048.4668 18.326106,1048.607 18.237981,1048.7192 18.157837,1048.8394 18.037645,1048.8995 17.877404,1048.8995 17.725145,1048.8995 17.564889,1048.8514 17.396635,1048.7552 L 12.000001,1045.9187 6.6033659,1048.7552 C 6.4270794,1048.8514 6.2668231,1048.8995 6.1225966,1048.8995 5.9543234,1048.8995 5.8261184,1048.8394 5.7379812,1048.7192 5.6578494,1048.607 5.6177853,1048.4668 5.6177889,1048.2985 5.6177853,1048.2504 5.6257981,1048.1703 5.6418274,1048.0581 L 6.6754813,1042.0485 2.3004812,1037.7937 C 2.1001606,1037.5773 2.0000005,1037.385 2.0000005,1037.2168 2.0000005,1036.9203 2.2243592,1036.736 2.6730774,1036.6639 L 8.7067313,1035.7865 11.411058,1030.3177 C 11.563292,1029.9892 11.759606,1029.825 12.000001,1029.8249 12.240375,1029.825 12.436689,1029.9892 12.588943,1030.3177 L 15.29327,1035.7865 21.326924,1036.6639 C 21.775622,1036.736 21.999981,1036.9203 22.000001,1037.2168"
         inkscape:connector-curvature="0"
         id="path2999"
         style="fill:#f1c40f;font-family:FontAwesome;-inkscape-font-specification:FontAwesome" />
    </g>
  </g>
</svg>
