<?xml version="1.0" encoding="UTF-8" standalone="no"?>
<!-- Created with Inkscape (http://www.inkscape.org/) -->

<svg
   xmlns:dc="http://purl.org/dc/elements/1.1/"
   xmlns:cc="http://creativecommons.org/ns#"
   xmlns:rdf="http://www.w3.org/1999/02/22-rdf-syntax-ns#"
   xmlns:svg="http://www.w3.org/2000/svg"
   xmlns="http://www.w3.org/2000/svg"
   xmlns:sodipodi="http://sodipodi.sourceforge.net/DTD/sodipodi-0.dtd"
   xmlns:inkscape="http://www.inkscape.org/namespaces/inkscape"
   width="24"
   height="24"
   id="svg2"
   version="1.1"
   inkscape:version="0.48.3.1 r9886"
   sodipodi:docname="tablet.svg">
  <defs
     id="defs4">
    <inkscape:path-effect
       effect="spiro"
       id="path-effect3261"
       is_visible="true" />
    <inkscape:path-effect
       effect="spiro"
       id="path-effect3261-8"
       is_visible="true" />
  </defs>
  <sodipodi:namedview
     id="base"
     pagecolor="#ffffff"
     bordercolor="#666666"
     borderopacity="1.0"
     inkscape:pageopacity="0.0"
     inkscape:pageshadow="2"
     inkscape:zoom="16"
     inkscape:cx="29.337176"
     inkscape:cy="10.692847"
     inkscape:document-units="px"
     inkscape:current-layer="layer1"
     showgrid="true"
     inkscape:window-width="1920"
     inkscape:window-height="1150"
     inkscape:window-x="0"
     inkscape:window-y="0"
     inkscape:window-maximized="1"
     showguides="true"
     inkscape:guide-bbox="true"
     inkscape:snap-bbox="true"
     inkscape:snap-bbox-midpoints="false"
     inkscape:snap-global="true"
     inkscape:bbox-nodes="false"
     inkscape:snap-nodes="false">
    <inkscape:grid
       type="xygrid"
       id="grid2985"
       empspacing="4"
       visible="true"
       enabled="true"
       snapvisiblegridlinesonly="true" />
  </sodipodi:namedview>
  <metadata
     id="metadata7">
    <rdf:RDF>
      <cc:Work
         rdf:about="">
        <dc:format>image/svg+xml</dc:format>
        <dc:type
           rdf:resource="http://purl.org/dc/dcmitype/StillImage" />
        <dc:title />
      </cc:Work>
    </rdf:RDF>
  </metadata>
  <g
     inkscape:label="Layer 1"
     inkscape:groupmode="layer"
     id="layer1"
     transform="translate(0,-1028.3622)">
    <path
       style="fill:#7f8c8d;fill-opacity:1;fill-rule:nonzero;stroke:none"
       d="M 18,1051.3622 C 18.5523,1051.3622 19,1050.9145 19,1050.3622 L 19,1049.3622 19,1048.3622 19,1047.3622 19,1046.3622 19,1035.3622 19,1034.3622 19,1033.3622 19,1032.3622 C 19,1031.8099 18.5523,1031.3622 18,1031.3622 L 17,1031.3622 16,1031.3622 7,1031.3622 6,1031.3622 C 5.4477,1031.3622 5,1031.8099 5,1032.3622 L 5,1033.3622 5,1049.3622 5,1050.3622 C 5,1050.9145 5.4477,1051.3622 6,1051.3622 L 7,1051.3622 16,1051.3622 17,1051.3622 18,1051.3622 z"
       id="path3312-5-1"
       inkscape:connector-curvature="0" />
    <path
       style="fill:#95a5a6;fill-opacity:1;fill-rule:nonzero;stroke:none"
       d="M 6,1030.3622 C 5.4477,1030.3622 5,1030.8099 5,1031.3622 L 5,1032.3622 5,1033.3622 5,1034.3622 5,1035.3622 5,1046.3622 5,1047.3622 5,1048.3622 5,1049.3622 C 5,1049.9145 5.4477,1050.3622 6,1050.3622 L 7,1050.3622 8,1050.3622 17,1050.3622 18,1050.3622 C 18.5523,1050.3622 19,1049.9145 19,1049.3622 L 19,1048.3622 19,1032.3622 19,1031.3622 C 19,1030.8099 18.5523,1030.3622 18,1030.3622 L 17,1030.3622 8,1030.3622 7,1030.3622 6,1030.3622 z"
       id="path3312-5"
       inkscape:connector-curvature="0" />
    <rect
       style="fill:#2c3e50;fill-opacity:1;fill-rule:nonzero;stroke:none"
       id="rect3470"
       width="12"
       height="16"
       x="6"
       y="3"
       transform="translate(0,1028.3622)" />
    <path
       style="fill:#34495e;fill-opacity:1;fill-rule:nonzero;stroke:none"
       d="M 6,1031.3622 6,1041.3622 18,1034.456 18,1031.3622 6,1031.3622 z"
       id="rect3470-4"
       inkscape:connector-curvature="0" />
    <path
       style="fill:#7f8c8d;fill-opacity:1;fill-rule:nonzero;stroke:none"
       d="M 11.5 20 C 11.223858 20 11 20.223858 11 20.5 C 11 20.776142 11.223858 21 11.5 21 L 12.5 21 C 12.776142 21 13 20.776142 13 20.5 C 13 20.223858 12.776142 20 12.5 20 L 11.5 20 z "
       transform="translate(0,1028.3622)"
       id="path3833" />
  </g>
</svg>
