<?xml version="1.0" encoding="UTF-8" standalone="no"?>
<!-- Created with Inkscape (http://www.inkscape.org/) -->

<svg
   xmlns:dc="http://purl.org/dc/elements/1.1/"
   xmlns:cc="http://creativecommons.org/ns#"
   xmlns:rdf="http://www.w3.org/1999/02/22-rdf-syntax-ns#"
   xmlns:svg="http://www.w3.org/2000/svg"
   xmlns="http://www.w3.org/2000/svg"
   xmlns:sodipodi="http://sodipodi.sourceforge.net/DTD/sodipodi-0.dtd"
   xmlns:inkscape="http://www.inkscape.org/namespaces/inkscape"
   version="1.1"
   width="24"
   height="24"
   id="svg2"
   inkscape:version="0.48.3.1 r9886"
   sodipodi:docname="tag-alt.svg">
  <sodipodi:namedview
     pagecolor="#ffffff"
     bordercolor="#666666"
     borderopacity="1"
     objecttolerance="10"
     gridtolerance="10"
     guidetolerance="10"
     inkscape:pageopacity="0"
     inkscape:pageshadow="2"
     inkscape:window-width="1920"
     inkscape:window-height="1150"
     id="namedview4792"
     showgrid="true"
     inkscape:zoom="32"
     inkscape:cx="11.184954"
     inkscape:cy="9.3474668"
     inkscape:window-x="0"
     inkscape:window-y="0"
     inkscape:window-maximized="1"
     inkscape:current-layer="layer1"
     inkscape:snap-global="true"
     inkscape:snap-bbox="true">
    <inkscape:grid
       type="xygrid"
       id="grid4131"
       empspacing="4"
       visible="true"
       enabled="true"
       snapvisiblegridlinesonly="true" />
  </sodipodi:namedview>
  <defs
     id="defs4" />
  <metadata
     id="metadata7">
    <rdf:RDF>
      <cc:Work
         rdf:about="">
        <dc:format>image/svg+xml</dc:format>
        <dc:type
           rdf:resource="http://purl.org/dc/dcmitype/StillImage" />
        <dc:title />
      </cc:Work>
    </rdf:RDF>
  </metadata>
  <g
     transform="translate(0,-1028.3622)"
     id="layer1">
    <path
       inkscape:connector-curvature="0"
       style="fill:#8e44ad;fill-opacity:1;stroke:none"
       d="M 2,1029.3622 C 0.8954306,1029.3622 0,1030.2576 0,1031.3622 L 0,1038.5185 0,1038.581 C 0.0163434,1039.1081 0.2456597,1039.6079 0.59375,1039.956 L 11.5625,1050.9247 C 11.926508,1051.3043 12.432561,1051.5185 13,1051.5185 13.567439,1051.5185 14.073492,1051.3043 14.4375,1050.9247 L 21.5,1043.8622 C 21.907578,1043.4961 22.15625,1042.9532 22.15625,1042.3622 22.15625,1041.7712 21.907578,1041.2283 21.5,1040.8622 L 10.59375,1029.956 C 10.23874,1029.6009 9.727235,1029.3706 9.1875,1029.3622 L 9.15625,1029.3622 2,1029.3622 z M 5,1032.3622 C 6.1045695,1032.3622 7,1033.2576 7,1034.3622 7,1035.4668 6.1045695,1036.3622 5,1036.3622 3.8954305,1036.3622 3,1035.4668 3,1034.3622 3,1033.2576 3.8954305,1032.3622 5,1032.3622 z"
       id="path2997-3" />
    <path
       style="fill:#9b59b6;fill-opacity:1;stroke:none"
       d="M 2 0 C 0.89543062 0 0 0.89543876 0 2 L 0 9.15625 L 0 9.21875 C 0.016343371 9.745948 0.24565968 10.245662 0.59375 10.59375 L 11.5625 21.5625 C 11.926508 21.9421 12.432561 22.15625 13 22.15625 C 13.567439 22.15625 14.073492 21.9421 14.4375 21.5625 L 21.5 14.5 C 21.907578 14.1339 22.15625 13.591 22.15625 13 C 22.15625 12.409 21.907578 11.8661 21.5 11.5 L 10.59375 0.59375 C 10.23874 0.23874307 9.7272346 0.0083648124 9.1875 0 L 9.15625 0 L 2 0 z M 5 3 C 6.1045695 3 7 3.8954 7 5 C 7 6.1046 6.1045695 7 5 7 C 3.8954305 7 3 6.1046 3 5 C 3 3.8954 3.8954305 3 5 3 z "
       transform="translate(0,1028.3622)"
       id="path2997" />
    <path
       style="fill:#8e44ad;fill-opacity:1;stroke:none"
       d="M 13,1049.3622 20,1042.3622 12,1034.3622 5,1041.3622 z"
       id="path3981-1"
       inkscape:connector-curvature="0"
       sodipodi:nodetypes="ccccc" />
    <path
       style="fill:#ecf0f1;fill-opacity:1;stroke:none"
       d="M 13,20 20,13 12,5 5,12 z"
       id="path3981"
       inkscape:connector-curvature="0"
       transform="translate(0,1028.3622)"
       sodipodi:nodetypes="ccccc" />
    <path
       style="fill:#7f8c8d;fill-opacity:1;stroke:none"
       d="M 12,1036.3622 8.4999999,1039.8622 7.9999999,1040.3622 8.4999999,1040.8622 12.5,1036.8622 12,1036.3622 z M 14,1038.3622 10.5,1041.8622 10,1042.3622 10.5,1042.8622 14.5,1038.8622 14,1038.3622 z M 16,1040.3622 12.5,1043.8622 12,1044.3622 12.5,1044.8622 16.5,1040.8622 16,1040.3622 z"
       id="path4096-1"
       inkscape:connector-curvature="0" />
  </g>
</svg>
