<?xml version="1.0" encoding="UTF-8" standalone="no"?>
<!-- Created with Inkscape (http://www.inkscape.org/) -->

<svg
   xmlns:dc="http://purl.org/dc/elements/1.1/"
   xmlns:cc="http://creativecommons.org/ns#"
   xmlns:rdf="http://www.w3.org/1999/02/22-rdf-syntax-ns#"
   xmlns:svg="http://www.w3.org/2000/svg"
   xmlns="http://www.w3.org/2000/svg"
   xmlns:sodipodi="http://sodipodi.sourceforge.net/DTD/sodipodi-0.dtd"
   xmlns:inkscape="http://www.inkscape.org/namespaces/inkscape"
   version="1.1"
   width="24"
   height="24"
   id="svg2"
   inkscape:version="0.48.3.1 r9886"
   sodipodi:docname="terminal.svg">
  <sodipodi:namedview
     pagecolor="#ffffff"
     bordercolor="#666666"
     borderopacity="1"
     objecttolerance="10"
     gridtolerance="10"
     guidetolerance="10"
     inkscape:pageopacity="0"
     inkscape:pageshadow="2"
     inkscape:window-width="1920"
     inkscape:window-height="1150"
     id="namedview4636"
     showgrid="false"
     inkscape:zoom="9.8333333"
     inkscape:cx="11.440281"
     inkscape:cy="11.129775"
     inkscape:window-x="0"
     inkscape:window-y="0"
     inkscape:window-maximized="1"
     inkscape:current-layer="layer1" />
  <defs
     id="defs4" />
  <metadata
     id="metadata7">
    <rdf:RDF>
      <cc:Work
         rdf:about="">
        <dc:format>image/svg+xml</dc:format>
        <dc:type
           rdf:resource="http://purl.org/dc/dcmitype/StillImage" />
        <dc:title />
      </cc:Work>
    </rdf:RDF>
  </metadata>
  <g
     transform="translate(0,-1028.3622)"
     id="layer1">
    <path
       d="M 3,1030.3622 C 1.895431,1030.3622 1,1031.2576 1,1032.3622 L 1,1039.3622 1,1041.3622 1,1048.3622 C 1,1049.4668 1.895431,1050.3622 3,1050.3622 L 12,1050.3622 21,1050.3622 C 22.104569,1050.3622 23,1049.4668 23,1048.3622 L 23,1041.3622 23,1039.3622 23,1032.3622 C 23,1031.2576 22.104569,1030.3622 21,1030.3622 L 12,1030.3622 3,1030.3622 z"
       inkscape:connector-curvature="0"
       id="path2987-6-0"
       style="fill:#2c3e50;fill-opacity:1;fill-rule:nonzero;stroke:none" />
    <path
       d="M 3,1049.3622 C 1.895431,1049.3622 1,1048.4668 1,1047.3622 L 1,1040.3622 1,1038.3622 1,1035.3622 23,1035.3622 23,1038.3622 23,1040.3622 23,1047.3622 C 23,1048.4668 22.104569,1049.3622 21,1049.3622 L 12,1049.3622 3,1049.3622 z"
       inkscape:connector-curvature="0"
       id="path2987-6-6"
       style="fill:#34495e;fill-opacity:1;fill-rule:nonzero;stroke:none" />
    <path
       d="M 4,1032.8935 4,1034.0497 6,1036.3622 4,1038.6747 4,1039.831 7,1036.3622 4,1032.8935 z"
       inkscape:connector-curvature="0"
       id="path3100"
       style="fill:#ecf0f1;fill-opacity:1;fill-rule:nonzero;stroke:none" />
    <path
       d="M 3,2 C 1.895431,2 1,2.8954 1,4 L 1,11 1,13 1,16 23,16 23,13 23,11 23,4 C 23,2.8954 22.104569,2 21,2 L 12,2 3,2 z"
       inkscape:connector-curvature="0"
       transform="translate(0,1028.3622)"
       id="path2987-6"
       style="fill:#34495e;fill-opacity:1;fill-rule:nonzero;stroke:none" />
    <path
       d="M 4,5.125 4,6.25 7,8 4,9.75 4,10.875 9,8 4,5.125 z M 9,10 9,11 14,11 14,10 9,10 z"
       inkscape:connector-curvature="0"
       transform="translate(0,1028.3622)"
       id="rect3128"
       style="fill:#ecf0f1;fill-opacity:1;fill-rule:nonzero;stroke:none" />
  </g>
</svg>
