<?xml version="1.0" encoding="UTF-8" standalone="no"?>
<!-- Created with Inkscape (http://www.inkscape.org/) -->

<svg
   xmlns:dc="http://purl.org/dc/elements/1.1/"
   xmlns:cc="http://creativecommons.org/ns#"
   xmlns:rdf="http://www.w3.org/1999/02/22-rdf-syntax-ns#"
   xmlns:svg="http://www.w3.org/2000/svg"
   xmlns="http://www.w3.org/2000/svg"
   xmlns:sodipodi="http://sodipodi.sourceforge.net/DTD/sodipodi-0.dtd"
   xmlns:inkscape="http://www.inkscape.org/namespaces/inkscape"
   version="1.1"
   width="24"
   height="24"
   id="svg2"
   inkscape:version="0.48.3.1 r9886"
   sodipodi:docname="terminal.svg">
  <sodipodi:namedview
     pagecolor="#ffffff"
     bordercolor="#666666"
     borderopacity="1"
     objecttolerance="10"
     gridtolerance="10"
     guidetolerance="10"
     inkscape:pageopacity="0"
     inkscape:pageshadow="2"
     inkscape:window-width="1920"
     inkscape:window-height="1150"
     id="namedview4636"
     showgrid="true"
     inkscape:zoom="39.333333"
     inkscape:cx="15.297008"
     inkscape:cy="10.63846"
     inkscape:window-x="0"
     inkscape:window-y="0"
     inkscape:window-maximized="1"
     inkscape:current-layer="layer1">
    <inkscape:grid
       type="xygrid"
       id="grid4141"
       empspacing="4"
       visible="true"
       enabled="true"
       snapvisiblegridlinesonly="true" />
  </sodipodi:namedview>
  <defs
     id="defs4" />
  <metadata
     id="metadata7">
    <rdf:RDF>
      <cc:Work
         rdf:about="">
        <dc:format>image/svg+xml</dc:format>
        <dc:type
           rdf:resource="http://purl.org/dc/dcmitype/StillImage" />
        <dc:title />
      </cc:Work>
    </rdf:RDF>
  </metadata>
  <g
     transform="translate(0,-1028.3622)"
     id="layer1">
    <path
       d="M 3,1030.3622 C 1.895431,1030.3622 1,1031.2576 1,1032.3622 L 1,1039.3622 1,1041.3622 1,1048.3622 C 1,1049.4668 1.895431,1050.3622 3,1050.3622 L 12,1050.3622 21,1050.3622 C 22.104569,1050.3622 23,1049.4668 23,1048.3622 L 23,1041.3622 23,1039.3622 23,1032.3622 C 23,1031.2576 22.104569,1030.3622 21,1030.3622 L 12,1030.3622 3,1030.3622 z"
       inkscape:connector-curvature="0"
       id="path2987-6-0"
       style="fill:#2c3e50;fill-opacity:1;fill-rule:nonzero;stroke:none" />
    <path
       style="fill:#34495e;fill-opacity:1;fill-rule:nonzero;stroke:none"
       d="M 3 2 C 1.895431 2 1 2.8954 1 4 L 1 7 L 1 10 L 1 11 L 1 12 L 1 13 L 1 16 L 1 19 C 1 20.1046 1.895431 21 3 21 L 12 21 L 21 21 C 22.104569 21 23 20.1046 23 19 L 23 16 L 23 12 L 23 10 L 23 7 L 23 4 C 23 2.8954 22.104569 2 21 2 L 12 2 L 3 2 z "
       transform="translate(0,1028.3622)"
       id="path2987-6-6" />
    <path
       d="M 4,5.125 4,6.25 7,8 4,9.75 4,10.875 9,8 4,5.125 z M 9,10 9,11 14,11 14,10 9,10 z"
       inkscape:connector-curvature="0"
       id="rect3128"
       style="fill:#ecf0f1;fill-opacity:1;fill-rule:nonzero;stroke:none"
       transform="translate(0,1028.3622)" />
  </g>
</svg>
