<?xml version="1.0" encoding="UTF-8" standalone="no"?>
<!-- Created with Inkscape (http://www.inkscape.org/) -->

<svg
   xmlns:dc="http://purl.org/dc/elements/1.1/"
   xmlns:cc="http://creativecommons.org/ns#"
   xmlns:rdf="http://www.w3.org/1999/02/22-rdf-syntax-ns#"
   xmlns:svg="http://www.w3.org/2000/svg"
   xmlns="http://www.w3.org/2000/svg"
   xmlns:sodipodi="http://sodipodi.sourceforge.net/DTD/sodipodi-0.dtd"
   xmlns:inkscape="http://www.inkscape.org/namespaces/inkscape"
   width="24"
   height="24"
   id="svg2"
   version="1.1"
   inkscape:version="0.48.3.1 r9886"
   sodipodi:docname="thumb-up.svg">
  <defs
     id="defs4" />
  <sodipodi:namedview
     id="base"
     pagecolor="#ffffff"
     bordercolor="#666666"
     borderopacity="1.0"
     inkscape:pageopacity="0.0"
     inkscape:pageshadow="2"
     inkscape:zoom="25.261369"
     inkscape:cx="8.935425"
     inkscape:cy="9.7984394"
     inkscape:document-units="px"
     inkscape:current-layer="layer1"
     showgrid="true"
     inkscape:window-width="1920"
     inkscape:window-height="1150"
     inkscape:window-x="0"
     inkscape:window-y="0"
     inkscape:window-maximized="1"
     showguides="true"
     inkscape:guide-bbox="true"
     inkscape:snap-bbox="true"
     inkscape:snap-bbox-midpoints="false"
     inkscape:snap-global="true"
     inkscape:snap-nodes="true">
    <inkscape:grid
       type="xygrid"
       id="grid2985"
       empspacing="4"
       visible="true"
       enabled="true"
       snapvisiblegridlinesonly="true" />
  </sodipodi:namedview>
  <metadata
     id="metadata7">
    <rdf:RDF>
      <cc:Work
         rdf:about="">
        <dc:format>image/svg+xml</dc:format>
        <dc:type
           rdf:resource="http://purl.org/dc/dcmitype/StillImage" />
        <dc:title />
      </cc:Work>
    </rdf:RDF>
  </metadata>
  <g
     inkscape:label="Layer 1"
     inkscape:groupmode="layer"
     id="layer1"
     transform="translate(0,-1028.3622)">
    <path
       style="fill:#95a5a6"
       d="M 14.606334,1030.3622 C 13.283496,1030.2192 13.157712,1031.8542 12.830953,1032.8137 12.233014,1035.4251 10.229049,1037.5688 7.7886309,1038.3528 5.5266553,1038.3748 3.2627274,1038.3559 0.99999999,1038.3622 0.99999999,1041.6955 0.99999999,1045.0289 0.99999999,1048.3622 3.2737653,1048.3736 5.5504423,1048.3393 7.8223809,1048.3795 9.3172928,1048.6719 10.41164,1050.0082 11.942346,1050.2185 13.651483,1050.4795 15.392332,1050.3171 17.11493,1050.3577 18.369975,1050.3279 19.902041,1050.5307 20.790991,1049.3796 21.172067,1048.4862 20.8341,1047.319 21.979934,1046.9312 23.008961,1046.1724 21.759638,1044.9133 22.272339,1043.9866 22.930728,1043.3264 23.356165,1042.1936 22.590711,1041.4247 21.637215,1040.5239 22.910571,1039.0771 21.818657,1038.181 20.996016,1037.3908 19.777834,1037.6873 18.758953,1037.5895 17.793404,1037.5762 16.827853,1037.563 15.862304,1037.5497 15.099344,1036.9071 16.034254,1035.8011 16.009247,1034.9731 16.148434,1033.8942 16.255953,1032.7462 15.956939,1031.6895 15.751538,1031.0621 15.318254,1030.364 14.606334,1030.3622 z"
       id="path3001"
       inkscape:connector-curvature="0" />
    <path
       style="fill:#7f8c8d"
       d="M 1 15 L 1 20 C 3.273765 20.0114 5.540561 19.99105 7.8125 20.03125 C 9.307412 20.32365 10.406794 21.63345 11.9375 21.84375 C 13.646637 22.10475 15.402402 21.9594 17.125 22 C 18.380045 21.9702 19.8923 22.18235 20.78125 21.03125 C 21.162326 20.13785 20.822916 18.9503 21.96875 18.5625 C 22.997777 17.8037 21.768549 16.5517 22.28125 15.625 C 22.461067 15.444689 22.624452 15.233775 22.75 15 L 1 15 z "
       transform="translate(0,1028.3622)"
       id="path3001-6" />
    <path
       style="fill:#bdc3c7"
       d="M 14.533556,1030.3622 C 13.16073,1030.2435 13.034698,1032.048 12.716253,1033.0565 12.027239,1035.5467 10.102413,1037.6555 7.7092997,1038.3404 5.4776424,1038.3894 3.2358553,1038.349 0.99999999,1038.3622 0.99999999,1041.6955 0.99999999,1045.0289 0.99999999,1048.3622 1.7379261,1048.615 1.8168258,1048.0417 1.7436019,1047.4489 1.7436019,1044.7637 1.7436019,1042.0786 1.7436019,1039.3935 4.0292366,1039.3632 6.3295624,1039.4545 8.6060268,1039.3471 10.980555,1038.5423 12.901047,1036.4226 13.515337,1033.8777 13.796359,1032.9305 13.968,1031.2869 15.239661,1031.4023 16.563576,1031.8717 14.930485,1030.1231 14.533556,1030.3622 z M 15.809541,1037.5695 C 16.063227,1038.9859 17.58678,1038.5236 18.565244,1038.6068 19.709082,1038.6359 20.895827,1038.5651 22,1038.8597 21.968659,1037.8719 20.739396,1037.5673 19.931575,1037.6297 18.559058,1037.5411 17.183391,1037.5972 15.809541,1037.5695 z"
       id="path3001-4"
       inkscape:connector-curvature="0" />
    <path
       inkscape:connector-curvature="0"
       style="fill:#ecf0f1;fill-opacity:1;fill-rule:nonzero;stroke:none"
       d="M 1,1037.3622 1,1037.8622 1,1038.3622 1,1043.3622 7,1043.3622 7,1037.8622 C 7,1037.5861 6.776142,1037.3622 6.5,1037.3622 L 1,1037.3622 z"
       id="rect3050-3" />
    <path
       style="fill:#3498db;fill-opacity:1;fill-rule:nonzero;stroke:none"
       d="M 0,1037.3622 0,1037.8622 0,1038.3622 0,1043.3622 6,1043.3622 6,1037.8622 C 6,1037.5861 5.7761424,1037.3622 5.5,1037.3622 L 0,1037.3622 z"
       id="rect3050"
       inkscape:connector-curvature="0" />
    <path
       inkscape:connector-curvature="0"
       style="fill:#bdc3c7;fill-opacity:1;fill-rule:nonzero;stroke:none"
       d="M 1,1049.3622 1,1048.8622 1,1048.3622 1,1043.3622 7,1043.3622 7,1048.8622 C 7,1049.1383 6.776142,1049.3622 6.5,1049.3622 L 1,1049.3622 z"
       id="rect3050-2-4" />
    <path
       inkscape:connector-curvature="0"
       style="fill:#2980b9;fill-opacity:1;fill-rule:nonzero;stroke:none"
       d="M 0,1049.3622 0,1048.8622 0,1048.3622 0,1043.3622 6,1043.3622 6,1048.8622 C 6,1049.1383 5.7761424,1049.3622 5.5,1049.3622 L 0,1049.3622 z"
       id="rect3050-2" />
  </g>
</svg>
