<?xml version="1.0" encoding="UTF-8" standalone="no"?>
<!-- Created with Inkscape (http://www.inkscape.org/) -->

<svg
   xmlns:dc="http://purl.org/dc/elements/1.1/"
   xmlns:cc="http://creativecommons.org/ns#"
   xmlns:rdf="http://www.w3.org/1999/02/22-rdf-syntax-ns#"
   xmlns:svg="http://www.w3.org/2000/svg"
   xmlns="http://www.w3.org/2000/svg"
   xmlns:sodipodi="http://sodipodi.sourceforge.net/DTD/sodipodi-0.dtd"
   xmlns:inkscape="http://www.inkscape.org/namespaces/inkscape"
   version="1.1"
   width="24"
   height="24"
   id="svg2"
   inkscape:version="0.48.3.1 r9886"
   sodipodi:docname="trashcan-full.svg">
  <sodipodi:namedview
     pagecolor="#ffffff"
     bordercolor="#666666"
     borderopacity="1"
     objecttolerance="10"
     gridtolerance="10"
     guidetolerance="10"
     inkscape:pageopacity="0"
     inkscape:pageshadow="2"
     inkscape:window-width="1920"
     inkscape:window-height="1150"
     id="namedview4246"
     showgrid="true"
     inkscape:zoom="22.627417"
     inkscape:cx="-4.9612108"
     inkscape:cy="11.208394"
     inkscape:window-x="0"
     inkscape:window-y="0"
     inkscape:window-maximized="1"
     inkscape:current-layer="layer1"
     inkscape:snap-global="true">
    <inkscape:grid
       type="xygrid"
       id="grid4147"
       empspacing="4"
       visible="true"
       enabled="true"
       snapvisiblegridlinesonly="true" />
  </sodipodi:namedview>
  <defs
     id="defs4" />
  <metadata
     id="metadata7">
    <rdf:RDF>
      <cc:Work
         rdf:about="">
        <dc:format>image/svg+xml</dc:format>
        <dc:type
           rdf:resource="http://purl.org/dc/dcmitype/StillImage" />
        <dc:title />
      </cc:Work>
    </rdf:RDF>
  </metadata>
  <g
     transform="translate(0,-1028.3622)"
     id="layer1">
    <path
       style="fill:#bdc3c7;fill-opacity:1;fill-rule:nonzero;stroke:none"
       d="M 3,1032.3622 3,1036.3622 3,1038.3622 3,1041.3622 3,1042.3622 3,1043.3622 3,1044.3622 3,1049.3622 C 3,1050.4668 3.89543,1051.3622 5,1051.3622 L 12,1051.3622 19,1051.3622 C 20.104569,1051.3622 21,1050.4668 21,1049.3622 L 21,1044.3622 21,1043.3622 21,1042.3622 21,1041.3622 21,1038.3622 21,1036.3622 21,1032.3622 C 21,1033.4668 20.104569,1034.3622 19,1034.3622 L 12,1034.3622 5,1034.3622 C 3.895431,1034.3622 3,1033.4668 3,1032.3622 z"
       id="path2987-7"
       inkscape:connector-curvature="0" />
    <path
       style="fill:#95a5a6;fill-opacity:1;fill-rule:nonzero;stroke:none"
       d="M 3,1033.3622 3,1037.3622 3,1038.081 C 3.294544,1038.2517 3.635035,1038.3622 4,1038.3622 L 6,1038.3622 11,1038.3622 13,1038.3622 18,1038.3622 20,1038.3622 C 20.364965,1038.3622 20.705456,1038.2517 21,1038.081 L 21,1037.3622 21,1033.3622 C 21,1034.4668 20.104569,1035.3622 19,1035.3622 L 12,1035.3622 5,1035.3622 C 3.895431,1035.3622 3,1034.4668 3,1033.3622 z"
       id="path2987-7-0"
       inkscape:connector-curvature="0" />
    <path
       style="fill:#27ae60;fill-opacity:1;fill-rule:nonzero;stroke:none"
       d="M 12,1037.3622 10.84375,1037.3934 8.90625,1040.7372 10.65625,1041.7372 12,1039.3934 13,1041.1122 12.125,1041.6122 14.875,1042.3622 15.59375,1039.6122 14.71875,1040.1122 13.15625,1037.3934 13.125,1037.3622 12,1037.3622 z M 9.4375,1042.4247 6.6875,1043.1747 7.5625,1043.6747 5.96875,1046.3934 5.96875,1046.4247 7.125,1048.3934 11,1048.3934 11,1046.3934 8.28125,1046.3934 9.28125,1044.6747 10.15625,1045.1747 9.4375,1042.4247 z M 16.375,1043.0497 14.65625,1044.0497 16,1046.3934 14,1046.3934 14,1045.3934 12,1047.3934 14,1049.3934 14,1048.3934 17.15625,1048.3934 17.1875,1048.3934 18.3125,1046.3934 16.375,1043.0497 z"
       id="rect3063-0"
       inkscape:connector-curvature="0" />
    <path
       style="fill:#95a5a6;fill-opacity:1;fill-rule:nonzero;stroke:none"
       d="M 3,1049.3622 3,1050.3622 C 3,1051.4668 3.89543,1052.3622 5,1052.3622 L 12,1052.3622 19,1052.3622 C 20.104569,1052.3622 21,1051.4668 21,1050.3622 L 21,1049.3622 C 21,1050.4668 20.104569,1051.3622 19,1051.3622 L 12,1051.3622 5,1051.3622 C 3.89543,1051.3622 3,1050.4668 3,1049.3622 z"
       id="path2987-7-1-4-6"
       inkscape:connector-curvature="0" />
    <path
       style="fill:#bdc3c7;fill-opacity:1;fill-rule:nonzero;stroke:none"
       d="M 4,1029.3622 C 2.895431,1029.3622 2,1030.2576 2,1031.3622 L 2,1032.3622 2,1033.3622 2,1034.3622 2,1035.3622 C 2,1036.4668 2.89543,1037.3622 4,1037.3622 L 6,1037.3622 11,1037.3622 13,1037.3622 18,1037.3622 20,1037.3622 C 21.104569,1037.3622 22,1036.4668 22,1035.3622 L 22,1034.3622 22,1033.3622 22,1032.3622 22,1031.3622 C 22,1030.2576 21.10457,1029.3622 20,1029.3622 L 18,1029.3622 13,1029.3622 11,1029.3622 6,1029.3622 4,1029.3622 z"
       id="path2987-7-1-4-7-0"
       inkscape:connector-curvature="0" />
    <path
       style="fill:#7f8c8d;fill-opacity:1;fill-rule:nonzero;stroke:none"
       d="M 5,1030.3622 C 4.447715,1030.3622 4,1030.8099 4,1031.3622 L 4,1032.3622 4,1033.3622 4,1034.3622 C 4,1034.9145 4.447715,1035.3622 5,1035.3622 L 19,1035.3622 C 19.552285,1035.3622 20,1034.9145 20,1034.3622 L 20,1033.3622 20,1032.3622 20,1031.3622 C 20,1030.8099 19.552285,1030.3622 19,1030.3622 L 5,1030.3622 z"
       id="path4206-3"
       inkscape:connector-curvature="0" />
    <path
       style="fill:#7f8c8d;fill-opacity:1;fill-rule:nonzero;stroke:none"
       d="M 12,1037.3622 10.84375,1037.3935 10.28125,1038.3622 13.71875,1038.3622 13.15625,1037.3935 13.125,1037.3622 12,1037.3622 z"
       id="rect3063-0-6"
       inkscape:connector-curvature="0" />
    <path
       style="fill:#ecf0f1;fill-opacity:1;fill-rule:nonzero;stroke:none"
       d="M 10.4375 1.4375 L 9.65625 2 L 9.28125 2.28125 L 9 2 L 8 3 L 7 3 L 6 2 L 4 4 L 4 5 L 4 6 C 4 6.5523 4.447715 7 5 7 L 8 7 L 19 7 C 19.552285 7 20 6.5523 20 6 L 19 5 L 19 4 L 18 4 L 17 3 L 15 3 L 15 2.5 L 14 2.5 L 13.6875 2 L 13.40625 1.59375 L 13 2 L 12 3 L 11 2 L 10.4375 1.4375 z "
       transform="translate(0,1028.3622)"
       id="path4206-3-8" />
  </g>
</svg>
