<?xml version="1.0" encoding="UTF-8" standalone="no"?>
<!-- Created with Inkscape (http://www.inkscape.org/) -->

<svg
   xmlns:dc="http://purl.org/dc/elements/1.1/"
   xmlns:cc="http://creativecommons.org/ns#"
   xmlns:rdf="http://www.w3.org/1999/02/22-rdf-syntax-ns#"
   xmlns:svg="http://www.w3.org/2000/svg"
   xmlns="http://www.w3.org/2000/svg"
   xmlns:sodipodi="http://sodipodi.sourceforge.net/DTD/sodipodi-0.dtd"
   xmlns:inkscape="http://www.inkscape.org/namespaces/inkscape"
   version="1.1"
   width="24"
   height="24"
   id="svg2"
   inkscape:version="0.48.3.1 r9886"
   sodipodi:docname="turntable.svg">
  <sodipodi:namedview
     pagecolor="#ffffff"
     bordercolor="#666666"
     borderopacity="1"
     objecttolerance="10"
     gridtolerance="10"
     guidetolerance="10"
     inkscape:pageopacity="0"
     inkscape:pageshadow="2"
     inkscape:window-width="1920"
     inkscape:window-height="1150"
     id="namedview4681"
     showgrid="false"
     inkscape:zoom="6.9532167"
     inkscape:cx="115.05444"
     inkscape:cy="-24.545389"
     inkscape:window-x="0"
     inkscape:window-y="0"
     inkscape:window-maximized="1"
     inkscape:current-layer="layer1" />
  <defs
     id="defs4" />
  <metadata
     id="metadata7">
    <rdf:RDF>
      <cc:Work
         rdf:about="">
        <dc:format>image/svg+xml</dc:format>
        <dc:type
           rdf:resource="http://purl.org/dc/dcmitype/StillImage" />
        <dc:title />
      </cc:Work>
    </rdf:RDF>
  </metadata>
  <g
     transform="translate(0,-1028.3622)"
     id="layer1">
    <path
       d="M 3,1029.3622 C 1.89543,1029.3622 1,1030.2576 1,1031.3622 L 1,1032.3622 1,1033.3622 1,1036.3622 1,1042.3622 1,1048.3622 C 1,1049.4668 1.89543,1050.3622 3,1050.3622 L 7,1050.3622 17,1050.3622 21,1050.3622 C 22.10457,1050.3622 23,1049.4668 23,1048.3622 L 23,1042.3622 23,1036.3622 23,1033.3622 23,1032.3622 23,1031.3622 C 23,1030.2576 22.10457,1029.3622 21,1029.3622 L 17,1029.3622 7,1029.3622 3,1029.3622 z"
       inkscape:connector-curvature="0"
       id="path2987-6-2-0-0-9-2"
       style="fill:#f1c40f;fill-opacity:1;fill-rule:nonzero;stroke:none" />
    <path
       d="M 3,1030.3622 C 1.89543,1030.3622 1,1031.2576 1,1032.3622 L 1,1038.3622 1,1044.3622 1,1050.3622 C 1,1051.4668 1.89543,1052.3622 3,1052.3622 L 7,1052.3622 17,1052.3622 21,1052.3622 C 22.10457,1052.3622 23,1051.4668 23,1050.3622 L 23,1044.3622 23,1038.3622 23,1032.3622 C 23,1031.2576 22.10457,1030.3622 21,1030.3622 L 17,1030.3622 7,1030.3622 3,1030.3622 z"
       inkscape:connector-curvature="0"
       id="path2987-6-2-0-0-5-4"
       style="fill:#f39c12;fill-opacity:1;fill-rule:nonzero;stroke:none" />
    <path
       d="M 3,1030.3622 C 1.89543,1030.3622 1,1031.2576 1,1032.3622 L 1,1033.3622 1,1034.3622 1,1037.3622 1,1043.3622 1,1049.3622 C 1,1050.4668 1.89543,1051.3622 3,1051.3622 L 7,1051.3622 17,1051.3622 21,1051.3622 C 22.10457,1051.3622 23,1050.4668 23,1049.3622 L 23,1043.3622 23,1037.3622 23,1034.3622 23,1033.3622 23,1032.3622 C 23,1031.2576 22.10457,1030.3622 21,1030.3622 L 17,1030.3622 7,1030.3622 3,1030.3622 z"
       inkscape:connector-curvature="0"
       id="path2987-6-2-0-0-9"
       style="fill:#f1c40f;fill-opacity:1;fill-rule:nonzero;stroke:none" />
    <path
       d="M 18.363961,1034.9982 C 21.878679,1038.513 21.878679,1044.2114 18.363961,1047.7262 14.849243,1051.2409 9.1507571,1051.2409 5.6360377,1047.7262 2.1213208,1044.2114 2.1213208,1038.513 5.6360377,1034.9982 9.1507571,1031.4835 14.849243,1031.4835 18.363961,1034.9982 z M 13.909188,1039.453 C 12.854773,1038.3986 11.145227,1038.3986 10.090812,1039.453 9.036396,1040.5075 9.036396,1042.2169 10.090812,1043.2714 11.145227,1044.3258 12.854773,1044.3258 13.909188,1043.2714 14.963604,1042.2169 14.963604,1040.5075 13.909188,1039.453 z"
       inkscape:connector-curvature="0"
       id="path2989-8"
       style="fill:#f39c12;fill-opacity:1;fill-rule:nonzero;stroke:none" />
    <path
       d="M 5.636039,1033.9982 C 2.1213204,1037.513 2.1213204,1043.2114 5.636039,1046.7262 9.1507575,1050.2409 14.849243,1050.2409 18.363962,1046.7262 21.878679,1043.2114 21.878679,1037.513 18.363962,1033.9982 14.849243,1030.4835 9.1507575,1030.4835 5.636039,1033.9982 z M 10.090812,1038.453 C 11.145227,1037.3986 12.854773,1037.3986 13.909188,1038.453 14.963604,1039.5075 14.963604,1041.2169 13.909188,1042.2714 12.854773,1043.3258 11.145227,1043.3258 10.090812,1042.2714 9.0363965,1041.2169 9.0363965,1039.5075 10.090812,1038.453 z"
       inkscape:connector-curvature="0"
       id="path2989"
       style="fill:#34495e;fill-opacity:1;fill-rule:nonzero;stroke:none" />
    <path
       d="M 4.2053163,1035.8627 C 3.8448393,1036.4871 3.5811834,1037.1296 3.3839448,1037.7916 L 9.6612893,1039.0126 5.465211,1034.1869 C 4.9904817,1034.6886 4.5658185,1035.2383 4.2053163,1035.8627 z"
       inkscape:connector-curvature="0"
       id="path2989-7-79"
       style="fill:#ecf0f1;fill-opacity:1;fill-rule:nonzero;stroke:none" />
    <path
       d="M 19.79379,1044.8626 C 20.154267,1044.2382 20.417923,1043.5957 20.615161,1042.9337 L 14.337817,1041.7127 18.533895,1046.5385 C 19.008624,1046.0367 19.433288,1045.487 19.79379,1044.8626 z"
       inkscape:connector-curvature="0"
       id="path2989-7-7-1"
       style="fill:#ecf0f1;fill-opacity:1;fill-rule:nonzero;stroke:none" />
    <path
       d="M 12,1036.7685 C 10.011775,1036.7685 8.40625,1038.374 8.40625,1040.3622 8.40625,1042.3504 10.011775,1043.956 12,1043.956 13.988225,1043.956 15.59375,1042.3504 15.59375,1040.3622 15.59375,1038.374 13.988225,1036.7685 12,1036.7685 z M 12,1039.3622 C 12.552285,1039.3622 13,1039.8099 13,1040.3622 13,1040.9145 12.552285,1041.3622 12,1041.3622 11.447715,1041.3622 11,1040.9145 11,1040.3622 11,1039.8099 11.447715,1039.3622 12,1039.3622 z"
       inkscape:connector-curvature="0"
       id="path3212"
       style="fill:#ecf0f1;fill-opacity:1;fill-rule:nonzero;stroke:none" />
    <path
       d="M 21,3.5 A 1.5,1.5 0 1 1 18,3.5 1.5,1.5 0 1 1 21,3.5 z"
       transform="translate(0.5,1029.8622)"
       id="path3282"
       style="fill:#95a5a6;fill-opacity:1;fill-rule:nonzero;stroke:none" />
    <g
       transform="matrix(0.45710679,0.45710678,-0.70710678,0.70710678,738.56999,287.3658)"
       id="g3276">
      <rect
         width="2"
         height="10.000017"
         x="29"
         y="1031.3622"
         id="rect3154"
         style="fill:#bdc3c7;fill-opacity:1;fill-rule:nonzero;stroke:none" />
      <rect
         width="1"
         height="10.000017"
         x="30"
         y="1031.3622"
         id="rect3154-4"
         style="fill:#7f8c8d;fill-opacity:1;fill-rule:nonzero;stroke:none" />
    </g>
    <path
       d="M 13,12 A 1,1 0 1 1 11,12 1,1 0 1 1 13,12 z"
       transform="translate(0,1028.3622)"
       id="path3055"
       style="fill:#f39c12;fill-opacity:1;fill-rule:nonzero;stroke:none" />
    <path
       d="M 12,1039.3622 C 11.447715,1039.3622 11,1039.8099 11,1040.3622 L 13,1040.3622 C 13,1039.8099 12.552285,1039.3622 12,1039.3622 z"
       inkscape:connector-curvature="0"
       id="path3055-0"
       style="fill:#e67e22;fill-opacity:1;fill-rule:nonzero;stroke:none" />
  </g>
</svg>
