<?xml version="1.0" encoding="UTF-8" standalone="no"?>
<!-- Created with Inkscape (http://www.inkscape.org/) -->

<svg
   xmlns:dc="http://purl.org/dc/elements/1.1/"
   xmlns:cc="http://creativecommons.org/ns#"
   xmlns:rdf="http://www.w3.org/1999/02/22-rdf-syntax-ns#"
   xmlns:svg="http://www.w3.org/2000/svg"
   xmlns="http://www.w3.org/2000/svg"
   xmlns:sodipodi="http://sodipodi.sourceforge.net/DTD/sodipodi-0.dtd"
   xmlns:inkscape="http://www.inkscape.org/namespaces/inkscape"
   version="1.1"
   width="24"
   height="24"
   id="svg2"
   inkscape:version="0.48.3.1 r9886"
   sodipodi:docname="user-id.svg">
  <sodipodi:namedview
     pagecolor="#ffffff"
     bordercolor="#666666"
     borderopacity="1"
     objecttolerance="10"
     gridtolerance="10"
     guidetolerance="10"
     inkscape:pageopacity="0"
     inkscape:pageshadow="2"
     inkscape:window-width="1920"
     inkscape:window-height="1150"
     id="namedview4778"
     showgrid="true"
     inkscape:zoom="55.625732"
     inkscape:cx="13.362229"
     inkscape:cy="10.996302"
     inkscape:window-x="0"
     inkscape:window-y="0"
     inkscape:window-maximized="1"
     inkscape:current-layer="layer1"
     inkscape:snap-bbox="true"
     inkscape:snap-global="false">
    <inkscape:grid
       type="xygrid"
       id="grid4133"
       empspacing="4"
       visible="true"
       enabled="true"
       snapvisiblegridlinesonly="true" />
  </sodipodi:namedview>
  <defs
     id="defs4" />
  <metadata
     id="metadata7">
    <rdf:RDF>
      <cc:Work
         rdf:about="">
        <dc:format>image/svg+xml</dc:format>
        <dc:type
           rdf:resource="http://purl.org/dc/dcmitype/StillImage" />
        <dc:title />
      </cc:Work>
    </rdf:RDF>
  </metadata>
  <g
     transform="translate(0,-1028.3622)"
     id="layer1">
    <path
       style="fill:#95a5a6;fill-opacity:1;fill-rule:nonzero;stroke:none"
       d="M 3,1033.3622 C 1.895431,1033.3622 1,1034.2576 1,1035.3622 L 1,1045.3622 1,1046.3622 C 1,1047.4668 1.895431,1048.3622 3,1048.3622 L 19,1048.3622 21,1048.3622 C 22.104569,1048.3622 23,1047.4668 23,1046.3622 L 23,1045.3622 23,1036.3622 23,1035.3622 C 23,1034.2576 22.104569,1033.3622 21,1033.3622 L 19,1033.3622 5,1033.3622 3,1033.3622 z"
       id="path4463-6-6"
       inkscape:connector-curvature="0" />
    <path
       style="fill:#bdc3c7;fill-opacity:1;fill-rule:nonzero;stroke:none"
       d="M 3,1032.3622 C 1.895431,1032.3622 1,1033.2576 1,1034.3622 L 1,1044.3622 1,1045.3622 C 1,1046.4668 1.895431,1047.3622 3,1047.3622 L 19,1047.3622 21,1047.3622 C 22.104569,1047.3622 23,1046.4668 23,1045.3622 L 23,1044.3622 23,1035.3622 23,1034.3622 C 23,1033.2576 22.104569,1032.3622 21,1032.3622 L 19,1032.3622 5,1032.3622 3,1032.3622 z"
       id="path4463-6"
       inkscape:connector-curvature="0" />
    <path
       style="fill:#7f8c8d;fill-opacity:1;fill-rule:nonzero;stroke:none"
       d="M 13,1035.3622 13,1036.3622 17,1036.3622 17,1035.3622 13,1035.3622 z M 13,1037.3622 13,1038.3622 20,1038.3622 20,1037.3622 13,1037.3622 z M 13,1039.3622 13,1040.3622 20,1040.3622 20,1039.3622 13,1039.3622 z"
       id="rect3049"
       inkscape:connector-curvature="0" />
    <path
       style="fill:#ecf0f1;fill-opacity:1;fill-rule:nonzero;stroke:none"
       d="M 4 6 C 3.4477153 6 3 6.4477153 3 7 L 3 16 C 3 16.552285 3.4477153 17 4 17 L 10 17 C 10.552285 17 11 16.552285 11 16 L 11 7 C 11 6.4477153 10.552285 6 10 6 L 4 6 z "
       id="path3028"
       transform="translate(0,1028.3622)" />
    <path
       style="fill:#34495e;fill-opacity:1;fill-rule:nonzero;stroke:none"
       d="M 7,1035.4871 C 6.3345418,1035.4805 5.7202056,1035.8521 5.267558,1036.3147 4.8808267,1036.7742 4.6572091,1037.3449 4.5130112,1037.9207 4.0913692,1038.2667 4.1421757,1038.8837 4.4541183,1039.3156 4.7837602,1039.6864 4.7794081,1040.237 5.0297795,1040.6637 5.1340494,1041.14 5.7272089,1041.3832 5.7269699,1041.8388 5.8761234,1042.4754 5.0171763,1042.2503 4.6300808,1042.457 4.0901764,1042.7041 3.3834841,1042.9483 3.0015338,1043.3284 3.0415392,1043.8752 2.8919865,1044.4669 3.1264725,1044.9804 3.3264597,1045.4286 3.8268722,1045.3816 4.2299622,1045.3621 6.2991414,1045.3623 8.3683207,1045.362 10.4375,1045.3621 10.896645,1045.1593 11.058721,1044.621 11,1044.1565 11,1043.85 11,1043.5436 11,1043.2371 10.294934,1042.9156 9.6397545,1042.4554 8.8604301,1042.3301 8.3980068,1042.3128 8.1983251,1042.0184 8.1617956,1041.5779 8.8046885,1041.0695 9.1449816,1040.284 9.375,1039.5183 9.7346302,1039.1607 10.029558,1038.4012 9.5591875,1038.039 9.3283573,1037.5909 9.295047,1037.0583 8.9760252,1036.6475 8.5539357,1035.9758 7.7998738,1035.5072 7,1035.4871 z"
       id="path3028-3"
       inkscape:connector-curvature="0" />
  </g>
</svg>
