<?xml version="1.0" encoding="UTF-8" standalone="no"?>
<!-- Created with Inkscape (http://www.inkscape.org/) -->

<svg
   xmlns:dc="http://purl.org/dc/elements/1.1/"
   xmlns:cc="http://creativecommons.org/ns#"
   xmlns:rdf="http://www.w3.org/1999/02/22-rdf-syntax-ns#"
   xmlns:svg="http://www.w3.org/2000/svg"
   xmlns="http://www.w3.org/2000/svg"
   xmlns:sodipodi="http://sodipodi.sourceforge.net/DTD/sodipodi-0.dtd"
   xmlns:inkscape="http://www.inkscape.org/namespaces/inkscape"
   version="1.1"
   width="24"
   height="24"
   id="svg2"
   inkscape:version="0.48.3.1 r9886"
   sodipodi:docname="user.svg">
  <sodipodi:namedview
     pagecolor="#ffffff"
     bordercolor="#666666"
     borderopacity="1"
     objecttolerance="10"
     gridtolerance="10"
     guidetolerance="10"
     inkscape:pageopacity="0"
     inkscape:pageshadow="2"
     inkscape:window-width="1920"
     inkscape:window-height="1150"
     id="namedview4705"
     showgrid="true"
     inkscape:zoom="1.7383042"
     inkscape:cx="-81.740112"
     inkscape:cy="27.106787"
     inkscape:window-x="0"
     inkscape:window-y="0"
     inkscape:window-maximized="1"
     inkscape:current-layer="layer1">
    <inkscape:grid
       type="xygrid"
       id="grid4137"
       empspacing="4"
       visible="true"
       enabled="true"
       snapvisiblegridlinesonly="true" />
  </sodipodi:namedview>
  <defs
     id="defs4" />
  <metadata
     id="metadata7">
    <rdf:RDF>
      <cc:Work
         rdf:about="">
        <dc:format>image/svg+xml</dc:format>
        <dc:type
           rdf:resource="http://purl.org/dc/dcmitype/StillImage" />
        <dc:title />
      </cc:Work>
    </rdf:RDF>
  </metadata>
  <g
     transform="translate(0,-1028.3622)"
     id="layer1">
    <path
       d="M 12,1039.3622 C 10.723496,1039.3622 9.505674,1039.6312 8.40625,1040.1122 9.054688,1041.4463 10.417018,1042.3622 12,1042.3622 13.582982,1042.3622 14.945312,1041.4463 15.59375,1040.1122 14.494326,1039.6312 13.276504,1039.3622 12,1039.3622 z"
       inkscape:connector-curvature="0"
       id="path4443-5-8-1"
       style="fill:#95a5a6;fill-opacity:1;fill-rule:nonzero;stroke:none" />
    <path
       d="M 8.40625,1041.1122 C 5.5206309,1042.3747 3.4281203,1045.1095 3.0625,1048.3622 L 3.0625,1048.3661 C 3.0625,1049.4707 3.895431,1050.3622 5,1050.3622 L 19,1050.3622 C 20.104569,1050.3622 20.9375,1049.4668 20.9375,1048.3622 L 20.9375,1048.3622 C 20.57188,1045.1095 18.479369,1042.3747 15.59375,1041.1122 14.945312,1042.4463 13.582982,1043.3622 12,1043.3622 10.417018,1043.3622 9.0546878,1042.4463 8.40625,1041.1122 z"
       inkscape:connector-curvature="0"
       id="path4443-5-6"
       style="fill:#d35400;fill-opacity:1;fill-rule:nonzero;stroke:none" />
    <path
       d="M 8.40625,1040.1122 C 5.5206309,1041.3747 3.4281203,1044.1095 3.0625,1047.3622 L 3.0625,1047.3661 C 3.0625,1048.4707 3.895431,1049.3622 5,1049.3622 L 19,1049.3622 C 20.104569,1049.3622 20.9375,1048.4668 20.9375,1047.3622 L 20.9375,1047.3622 C 20.57188,1044.1095 18.479369,1041.3747 15.59375,1040.1122 14.945312,1041.4463 13.582982,1042.3622 12,1042.3622 10.417018,1042.3622 9.0546878,1041.4463 8.40625,1040.1122 z"
       inkscape:connector-curvature="0"
       id="path4443-5"
       style="fill:#e67e22;fill-opacity:1;fill-rule:nonzero;stroke:none" />
    <path
       d="M 12,11 C 10.853225,11 9.7587566,11.232123 8.75,11.625 9.69049,12.240518 10.797312,12.625 12,12.625 13.206276,12.625 14.307771,12.24387 15.25,11.625 14.241243,11.232123 13.146775,11 12,11 z"
       inkscape:connector-curvature="0"
       transform="translate(0,1028.3622)"
       id="path4443-5-8"
       style="fill:#7f8c8d;fill-opacity:1;fill-rule:nonzero;stroke:none" />
    <path
       d="M 17,4 A 5,5 0 1 1 7,4 5,5 0 1 1 17,4 z"
       transform="translate(0,1031.3622)"
       id="path4453"
       style="fill:#bdc3c7;fill-opacity:1;fill-rule:nonzero;stroke:none" />
    <path
       d="M 8.40625,1040.1122 C 8.088999,1040.251 7.796837,1040.4078 7.5,1040.581 8.315293,1042.2354 10.040737,1043.3622 12,1043.3622 13.959263,1043.3622 15.684707,1042.2354 16.5,1040.581 16.203163,1040.4078 15.911001,1040.251 15.59375,1040.1122 14.945312,1041.4463 13.582982,1042.3622 12,1042.3622 10.417018,1042.3622 9.054688,1041.4463 8.40625,1040.1122 z"
       inkscape:connector-curvature="0"
       id="path4443-5-8-1-5"
       style="font-size:medium;font-style:normal;font-variant:normal;font-weight:normal;font-stretch:normal;text-indent:0;text-align:start;text-decoration:none;line-height:normal;letter-spacing:normal;word-spacing:normal;text-transform:none;direction:ltr;block-progression:tb;writing-mode:lr-tb;text-anchor:start;baseline-shift:baseline;color:#000000;fill:#d35400;fill-opacity:1;fill-rule:nonzero;stroke:none;stroke-width:2;marker:none;visibility:visible;display:inline;overflow:visible;enable-background:accumulate;font-family:Sans;-inkscape-font-specification:Sans" />
  </g>
</svg>
