<?xml version="1.0" encoding="UTF-8" standalone="no"?>
<!-- Created with Inkscape (http://www.inkscape.org/) -->

<svg
   xmlns:dc="http://purl.org/dc/elements/1.1/"
   xmlns:cc="http://creativecommons.org/ns#"
   xmlns:rdf="http://www.w3.org/1999/02/22-rdf-syntax-ns#"
   xmlns:svg="http://www.w3.org/2000/svg"
   xmlns="http://www.w3.org/2000/svg"
   xmlns:sodipodi="http://sodipodi.sourceforge.net/DTD/sodipodi-0.dtd"
   xmlns:inkscape="http://www.inkscape.org/namespaces/inkscape"
   version="1.1"
   width="24"
   height="24"
   id="svg2"
   inkscape:version="0.48.3.1 r9886"
   sodipodi:docname="user-id.svg">
  <sodipodi:namedview
     pagecolor="#ffffff"
     bordercolor="#666666"
     borderopacity="1"
     objecttolerance="10"
     gridtolerance="10"
     guidetolerance="10"
     inkscape:pageopacity="0"
     inkscape:pageshadow="2"
     inkscape:window-width="1920"
     inkscape:window-height="1150"
     id="namedview4778"
     showgrid="true"
     inkscape:zoom="13.906433"
     inkscape:cx="25.125835"
     inkscape:cy="18.75714"
     inkscape:window-x="0"
     inkscape:window-y="0"
     inkscape:window-maximized="1"
     inkscape:current-layer="layer1">
    <inkscape:grid
       type="xygrid"
       id="grid4133"
       empspacing="4"
       visible="true"
       enabled="true"
       snapvisiblegridlinesonly="true" />
  </sodipodi:namedview>
  <defs
     id="defs4" />
  <metadata
     id="metadata7">
    <rdf:RDF>
      <cc:Work
         rdf:about="">
        <dc:format>image/svg+xml</dc:format>
        <dc:type
           rdf:resource="http://purl.org/dc/dcmitype/StillImage" />
        <dc:title />
      </cc:Work>
    </rdf:RDF>
  </metadata>
  <g
     transform="translate(0,-1028.3622)"
     id="layer1">
    <path
       d="M 4,1034.3622 C 2.895431,1034.3622 2,1035.2576 2,1036.3622 L 2,1046.3622 C 2,1047.4668 2.895431,1048.3622 4,1048.3622 L 20,1048.3622 C 21.104569,1048.3622 22,1047.4668 22,1046.3622 L 22,1036.3622 C 22,1035.2576 21.104569,1034.3622 20,1034.3622 L 4,1034.3622 z"
       inkscape:connector-curvature="0"
       id="path4463-6-8"
       style="fill:#95a5a6;fill-opacity:1;fill-rule:nonzero;stroke:none" />
    <path
       d="M 4,5 C 2.895431,5 2,5.8954 2,7 L 2,17 C 2,18.1046 2.895431,19 4,19 L 20,19 C 21.104569,19 22,18.1046 22,17 L 22,7 C 22,5.8954 21.104569,5 20,5 L 4,5 z"
       inkscape:connector-curvature="0"
       transform="translate(0,1028.3622)"
       id="path4463-6"
       style="fill:#bdc3c7;fill-opacity:1;fill-rule:nonzero;stroke:none" />
    <rect
       width="7"
       height="10"
       x="4"
       y="1035.3622"
       id="rect3026"
       style="fill:#ecf0f1;fill-opacity:1;fill-rule:nonzero;stroke:none" />
    <path
       style="fill:#2c3e50;fill-opacity:1;fill-rule:nonzero;stroke:none"
       d="M 7.3125 8 A 2.5 2.5 0 0 0 5 10.5 A 2.5 2.5 0 0 0 5.8125 12.34375 C 5.0940569 12.641471 4.4729675 13.11342 4 13.71875 L 4 16 L 4 17 L 11 17 L 11 16 L 11 13.6875 C 10.526356 13.095793 9.8947024 12.635537 9.1875 12.34375 A 2.5 2.5 0 0 0 10 10.5 A 2.5 2.5 0 0 0 7.3125 8 z "
       transform="translate(0,1028.3622)"
       id="path3030" />
    <path
       style="fill:#7f8c8d;fill-opacity:1;fill-rule:nonzero;stroke:none"
       d="M 13 8 L 13 9 L 17 9 L 17 8 L 13 8 z M 13 10 L 13 11 L 20 11 L 20 10 L 13 10 z M 13 12 L 13 13 L 20 13 L 20 12 L 13 12 z "
       transform="translate(0,1028.3622)"
       id="rect3049" />
  </g>
</svg>
