<?xml version="1.0" encoding="UTF-8" standalone="no"?>
<!-- Created with Inkscape (http://www.inkscape.org/) -->

<svg
   xmlns:dc="http://purl.org/dc/elements/1.1/"
   xmlns:cc="http://creativecommons.org/ns#"
   xmlns:rdf="http://www.w3.org/1999/02/22-rdf-syntax-ns#"
   xmlns:svg="http://www.w3.org/2000/svg"
   xmlns="http://www.w3.org/2000/svg"
   xmlns:sodipodi="http://sodipodi.sourceforge.net/DTD/sodipodi-0.dtd"
   xmlns:inkscape="http://www.inkscape.org/namespaces/inkscape"
   width="24"
   height="24"
   id="svg2"
   version="1.1"
   inkscape:version="0.48.3.1 r9886"
   sodipodi:docname="warning-alt.svg">
  <defs
     id="defs4" />
  <sodipodi:namedview
     id="base"
     pagecolor="#ffffff"
     bordercolor="#666666"
     borderopacity="1.0"
     inkscape:pageopacity="0.0"
     inkscape:pageshadow="2"
     inkscape:zoom="5.6568543"
     inkscape:cx="71.965861"
     inkscape:cy="3.3897687"
     inkscape:document-units="px"
     inkscape:current-layer="layer1"
     showgrid="true"
     inkscape:window-width="1920"
     inkscape:window-height="1150"
     inkscape:window-x="0"
     inkscape:window-y="0"
     inkscape:window-maximized="1"
     inkscape:snap-global="true">
    <inkscape:grid
       type="xygrid"
       id="grid2985"
       empspacing="4"
       visible="true"
       enabled="true"
       snapvisiblegridlinesonly="true" />
  </sodipodi:namedview>
  <metadata
     id="metadata7">
    <rdf:RDF>
      <cc:Work
         rdf:about="">
        <dc:format>image/svg+xml</dc:format>
        <dc:type
           rdf:resource="http://purl.org/dc/dcmitype/StillImage" />
        <dc:title></dc:title>
      </cc:Work>
    </rdf:RDF>
  </metadata>
  <g
     inkscape:label="Layer 1"
     inkscape:groupmode="layer"
     id="layer1"
     transform="translate(0,-1028.3622)">
    <path
       inkscape:connector-curvature="0"
       style="fill:#c0392b;fill-opacity:1;fill-rule:nonzero;stroke:none"
       d="M 12,1031.3622 C 11.015396,1031.325 10.284785,1032.1304 9.96875,1032.9872 7.363423,1038.1978 4.759915,1043.4049 2.15625,1048.6122 1.538353,1049.9191 2.73636,1051.5309 4.15625,1051.3622 6.76628,1051.3589 9.389852,1051.3609 12,1051.3622 14.610148,1051.3609 17.23372,1051.3589 19.84375,1051.3622 21.26364,1051.5309 22.461647,1049.9191 21.84375,1048.6122 19.240085,1043.4049 16.636577,1038.1978 14.03125,1032.9872 13.715215,1032.1304 12.984604,1031.325 12,1031.3622 z"
       id="path3878-8" />
    <path
       style="fill:#ecf0f1;fill-opacity:1;fill-rule:nonzero;stroke:none"
       d="M 12.053097,1031.3622 C 11.167742,1031.3288 10.510776,1032.0536 10.226598,1032.8247 7.883889,1037.5142 5.5428152,1042.2007 3.2016008,1046.8872 2.6459879,1048.0635 3.7232354,1049.5141 5,1049.3622 7.3469377,1049.3592 9.7060531,1049.361 12.053097,1049.3622 14.400141,1049.3611 16.759257,1049.3593 19.106194,1049.3622 20.382959,1049.5141 21.460206,1048.0635 20.904594,1046.8872 18.563379,1042.2007 16.222305,1037.5142 13.879597,1032.8247 13.595418,1032.0536 12.938453,1031.3288 12.053097,1031.3622 z"
       id="path3878"
       inkscape:connector-curvature="0" />
    <path
       style="font-size:medium;font-style:normal;font-variant:normal;font-weight:normal;font-stretch:normal;text-indent:0;text-align:start;text-decoration:none;line-height:normal;letter-spacing:normal;word-spacing:normal;text-transform:none;direction:ltr;block-progression:tb;writing-mode:lr-tb;text-anchor:start;baseline-shift:baseline;color:#000000;fill:#e74c3c;fill-opacity:1;fill-rule:nonzero;stroke:none;stroke-width:4;marker:none;visibility:visible;display:inline;overflow:visible;enable-background:accumulate;font-family:Sans;-inkscape-font-specification:Sans"
       d="M 12,1030.3622 C 11.015396,1030.325 10.284785,1031.1304 9.96875,1031.9872 7.363423,1037.1978 4.759915,1042.4049 2.15625,1047.6122 1.538353,1048.9191 2.73636,1050.5309 4.15625,1050.3622 6.766279,1050.3589 9.389852,1050.3609 12,1050.3622 14.610148,1050.3609 17.23372,1050.3589 19.84375,1050.3622 21.26364,1050.5309 22.461647,1048.9191 21.84375,1047.6122 19.240085,1042.4049 16.636577,1037.1978 14.03125,1031.9872 13.715215,1031.1304 12.984604,1030.325 12,1030.3622 z M 12,1032.4247 C 12.051562,1032.4909 12.116267,1032.5663 12.15625,1032.6747 L 12.1875,1032.7685 12.25,1032.8622 C 14.834478,1038.0311 17.417162,1043.1966 20,1048.3622 L 19.96875,1048.3622 19.84375,1048.3622 C 17.231004,1048.3589 14.609794,1048.3609 12,1048.3622 9.390206,1048.3609 6.768996,1048.3589 4.15625,1048.3622 L 4.03125,1048.3622 4,1048.3622 C 6.582838,1043.1966 9.165522,1038.0311 11.75,1032.8622 L 11.8125,1032.7685 11.84375,1032.6747 C 11.883733,1032.5663 11.948438,1032.4909 12,1032.4247 z"
       id="path3878-9"
       inkscape:connector-curvature="0" />
    <path
       style="fill:#34495e;fill-opacity:1;fill-rule:nonzero;stroke:none"
       d="M 12,1036.3622 C 11.447715,1036.3622 11,1036.8099 11,1037.3622 L 11.5,1044.3622 12.5,1044.3622 13,1037.3622 C 13,1036.8099 12.552285,1036.3622 12,1036.3622 z M 12,1045.3622 C 11.447715,1045.3622 11,1045.8099 11,1046.3622 11,1046.9145 11.447715,1047.3622 12,1047.3622 12.552285,1047.3622 13,1046.9145 13,1046.3622 13,1045.8099 12.552285,1045.3622 12,1045.3622 z"
       id="path3872-2-4"
       inkscape:connector-curvature="0" />
  </g>
</svg>
