<?xml version="1.0" encoding="UTF-8" standalone="no"?>
<!-- Created with Inkscape (http://www.inkscape.org/) -->

<svg
   xmlns:dc="http://purl.org/dc/elements/1.1/"
   xmlns:cc="http://creativecommons.org/ns#"
   xmlns:rdf="http://www.w3.org/1999/02/22-rdf-syntax-ns#"
   xmlns:svg="http://www.w3.org/2000/svg"
   xmlns="http://www.w3.org/2000/svg"
   xmlns:sodipodi="http://sodipodi.sourceforge.net/DTD/sodipodi-0.dtd"
   xmlns:inkscape="http://www.inkscape.org/namespaces/inkscape"
   width="24"
   height="24"
   id="svg2"
   version="1.1"
   inkscape:version="0.48.3.1 r9886"
   sodipodi:docname="webcam.svg">
  <defs
     id="defs4" />
  <sodipodi:namedview
     id="base"
     pagecolor="#ffffff"
     bordercolor="#666666"
     borderopacity="1.0"
     inkscape:pageopacity="0.0"
     inkscape:pageshadow="2"
     inkscape:zoom="17.862487"
     inkscape:cx="9.801918"
     inkscape:cy="6.2698626"
     inkscape:document-units="px"
     inkscape:current-layer="layer1"
     showgrid="true"
     inkscape:window-width="1920"
     inkscape:window-height="1150"
     inkscape:window-x="0"
     inkscape:window-y="0"
     inkscape:window-maximized="1"
     inkscape:snap-global="true">
    <inkscape:grid
       type="xygrid"
       id="grid2985"
       empspacing="4"
       visible="true"
       enabled="true"
       snapvisiblegridlinesonly="true" />
  </sodipodi:namedview>
  <metadata
     id="metadata7">
    <rdf:RDF>
      <cc:Work
         rdf:about="">
        <dc:format>image/svg+xml</dc:format>
        <dc:type
           rdf:resource="http://purl.org/dc/dcmitype/StillImage" />
        <dc:title />
      </cc:Work>
    </rdf:RDF>
  </metadata>
  <g
     inkscape:label="Layer 1"
     inkscape:groupmode="layer"
     id="layer1"
     transform="translate(0,-1028.3622)">
    <path
       sodipodi:type="arc"
       style="fill:#bdc3c7;fill-opacity:1;fill-rule:nonzero;stroke:none"
       id="path3030-7"
       sodipodi:cx="12"
       sodipodi:cy="12"
       sodipodi:rx="12"
       sodipodi:ry="12"
       d="M 24,12 A 12,12 0 1 1 0,12 12,12 0 1 1 24,12 z"
       transform="matrix(0.91666666,0,0,0.91666667,1,1029.3622)" />
    <path
       inkscape:connector-curvature="0"
       style="fill:#95a5a6;fill-opacity:1;fill-rule:nonzero;stroke:none"
       d="M 6,1048.3622 C 7.670171,1049.6145 9.751797,1050.3622 12,1050.3622 14.248203,1050.3622 16.329829,1049.6145 18,1048.3622 L 6,1048.3622 z"
       id="path3138-7" />
    <path
       style="fill:#95a5a6;fill-opacity:1;fill-rule:nonzero;stroke:none"
       d="M 12 1 C 5.9248678 1 1 5.9248677 1 12 C 1 18.075132 5.9248678 23 12 23 L 12 1 z "
       transform="translate(0,1028.3622)"
       id="path3030" />
    <path
       sodipodi:type="arc"
       style="fill:#95a5a6;fill-opacity:1;fill-rule:nonzero;stroke:none"
       id="path3919-8"
       sodipodi:cx="11"
       sodipodi:cy="13"
       sodipodi:rx="6"
       sodipodi:ry="6"
       d="M 17,13 A 6,6 0 1 1 5,13 6,6 0 1 1 17,13 z"
       transform="translate(1,1028.3622)" />
    <path
       style="fill:#7f8c8d;fill-opacity:1;fill-rule:nonzero;stroke:none"
       d="M 12,1035.3622 C 8.686292,1035.3622 6,1038.0485 6,1041.3622 6,1044.6759 8.686292,1047.3622 12,1047.3622 L 12,1035.3622 z"
       id="path3919-8-4"
       inkscape:connector-curvature="0" />
    <path
       sodipodi:type="arc"
       style="fill:#ecf0f1;fill-opacity:1;fill-rule:nonzero;stroke:none"
       id="path3919"
       sodipodi:cx="11"
       sodipodi:cy="13"
       sodipodi:rx="6"
       sodipodi:ry="6"
       d="M 17,13 A 6,6 0 1 1 5,13 6,6 0 1 1 17,13 z"
       transform="translate(1,1027.3622)" />
    <path
       sodipodi:type="arc"
       style="fill:#34495e;fill-opacity:1;fill-rule:nonzero;stroke:none"
       id="path3703-5-4"
       sodipodi:cx="12"
       sodipodi:cy="12.5"
       sodipodi:rx="3"
       sodipodi:ry="3.5"
       d="M 15,12.5 A 3,3.5 0 1 1 9,12.5 3,3.5 0 1 1 15,12.5 z"
       transform="matrix(1.3333334,0,0,1.1428571,-4.0000014,1026.0765)" />
    <path
       sodipodi:type="arc"
       style="fill:#2c3e50;fill-opacity:1;fill-rule:nonzero;stroke:none"
       id="path3703-0-8-8"
       sodipodi:cx="12"
       sodipodi:cy="12.5"
       sodipodi:rx="3"
       sodipodi:ry="3.5"
       d="M 15,12.5 A 3,3.5 0 1 1 9,12.5 3,3.5 0 1 1 15,12.5 z"
       transform="matrix(1,0,0,0.85714087,0,1029.6479)" />
    <path
       transform="translate(0,1027.3622)"
       sodipodi:type="arc"
       style="fill:#34495e;fill-opacity:1;fill-rule:nonzero;stroke:none"
       id="path3778-4-8"
       sodipodi:cx="12"
       sodipodi:cy="13"
       sodipodi:rx="2"
       sodipodi:ry="2"
       d="M 14,13 A 2,2 0 1 1 10,13 2,2 0 1 1 14,13 z" />
    <path
       transform="translate(0,1027.3622)"
       sodipodi:type="arc"
       style="fill:#3498db;fill-opacity:1;fill-rule:nonzero;stroke:none"
       id="path3787-1-7"
       sodipodi:cx="12"
       sodipodi:cy="13"
       sodipodi:rx="1"
       sodipodi:ry="1"
       d="M 13,13 A 1,1 0 1 1 11,13 1,1 0 1 1 13,13 z" />
    <path
       sodipodi:type="arc"
       style="fill:#ecf0f1;fill-opacity:1;fill-rule:nonzero;stroke:none"
       id="path3723-5-4"
       sodipodi:cx="23.5"
       sodipodi:cy="12.5"
       sodipodi:rx="1.5"
       sodipodi:ry="1.5"
       d="M 25,12.5 A 1.5,1.5 0 1 1 22,12.5 1.5,1.5 0 1 1 25,12.5 z"
       transform="matrix(0.66666667,0,0,0.66665554,-4.6666674,1030.029)" />
    <rect
       style="fill:#7f8c8d;fill-opacity:1;fill-rule:nonzero;stroke:none"
       id="rect3074"
       width="3"
       height="1"
       x="9"
       y="1030.3622" />
    <rect
       style="fill:#7f8c8d;fill-opacity:1;fill-rule:nonzero;stroke:none"
       id="rect3074-8"
       width="3"
       height="1"
       x="9"
       y="1032.3622" />
    <rect
       style="fill:#95a5a6;fill-opacity:1;fill-rule:nonzero;stroke:none"
       id="rect3074-2"
       width="3"
       height="1"
       x="12"
       y="1030.3622" />
    <rect
       style="fill:#95a5a6;fill-opacity:1;fill-rule:nonzero;stroke:none"
       id="rect3074-8-9"
       width="3"
       height="1"
       x="12"
       y="1032.3622" />
    <path
       style="fill:#7f8c8d;fill-opacity:1;fill-rule:nonzero;stroke:none"
       d="M 6 20 C 7.6701713 21.252335 9.7517966 22 12 22 L 12 20 L 6 20 z "
       transform="translate(0,1028.3622)"
       id="path3138" />
  </g>
</svg>
