<?xml version="1.0" encoding="UTF-8" standalone="no"?>
<!-- Created with Inkscape (http://www.inkscape.org/) -->

<svg
   xmlns:dc="http://purl.org/dc/elements/1.1/"
   xmlns:cc="http://creativecommons.org/ns#"
   xmlns:rdf="http://www.w3.org/1999/02/22-rdf-syntax-ns#"
   xmlns:svg="http://www.w3.org/2000/svg"
   xmlns="http://www.w3.org/2000/svg"
   xmlns:sodipodi="http://sodipodi.sourceforge.net/DTD/sodipodi-0.dtd"
   xmlns:inkscape="http://www.inkscape.org/namespaces/inkscape"
   version="1.1"
   width="24"
   height="24"
   id="svg2"
   inkscape:version="0.48.3.1 r9886"
   sodipodi:docname="window-layout.svg">
  <sodipodi:namedview
     pagecolor="#ffffff"
     bordercolor="#666666"
     borderopacity="1"
     objecttolerance="10"
     gridtolerance="10"
     guidetolerance="10"
     inkscape:pageopacity="0"
     inkscape:pageshadow="2"
     inkscape:window-width="1920"
     inkscape:window-height="1150"
     id="namedview4792"
     showgrid="true"
     inkscape:zoom="39.333334"
     inkscape:cx="13.883051"
     inkscape:cy="10.22908"
     inkscape:window-x="0"
     inkscape:window-y="0"
     inkscape:window-maximized="1"
     inkscape:current-layer="layer1">
    <inkscape:grid
       type="xygrid"
       id="grid4131"
       empspacing="4"
       visible="true"
       enabled="true"
       snapvisiblegridlinesonly="true" />
  </sodipodi:namedview>
  <defs
     id="defs4" />
  <metadata
     id="metadata7">
    <rdf:RDF>
      <cc:Work
         rdf:about="">
        <dc:format>image/svg+xml</dc:format>
        <dc:type
           rdf:resource="http://purl.org/dc/dcmitype/StillImage" />
        <dc:title />
      </cc:Work>
    </rdf:RDF>
  </metadata>
  <g
     transform="translate(0,-1028.3622)"
     id="layer1">
    <path
       inkscape:connector-curvature="0"
       style="fill:#bdc3c7;fill-opacity:1;fill-rule:nonzero;stroke:none"
       d="M 1,1035.3622 1,1036.3622 1,1037.3622 1,1039.3622 1,1040.3622 1,1041.3622 1,1042.3622 1,1043.3622 1,1045.3622 1,1046.3622 1,1048.3622 1,1049.3622 C 1,1050.4668 1.895431,1051.3622 3,1051.3622 L 12,1051.3622 21,1051.3622 C 22.104569,1051.3622 23,1050.4668 23,1049.3622 L 23,1048.3622 23,1046.3622 23,1042.3622 23,1040.3622 23,1037.3622 23,1036.3622 23,1035.3622 1,1035.3622 z"
       id="path2987-6-6-5-3" />
    <path
       style="fill:#bdc3c7;fill-opacity:1;fill-rule:nonzero;stroke:none"
       d="M 3 2 C 1.895431 2 1 2.8954 1 4 L 1 7 L 23 7 L 23 4 C 23 2.8954 22.104569 2 21 2 L 12 2 L 3 2 z "
       transform="translate(0,1028.3622)"
       id="path2987-6-0" />
    <path
       style="fill:#ecf0f1;fill-opacity:1;fill-rule:nonzero;stroke:none"
       d="M 1 6 L 1 7 L 1 8 L 1 10 L 1 11 L 1 12 L 1 13 L 1 14 L 1 16 L 1 17 L 1 19 L 1 20 C 1 21.1046 1.895431 22 3 22 L 12 22 L 21 22 C 22.104569 22 23 21.1046 23 20 L 23 19 L 23 17 L 23 13 L 23 11 L 23 8 L 23 7 L 23 6 L 1 6 z "
       transform="translate(0,1028.3622)"
       id="path2987-6-6-5" />
    <path
       d="M 4,4 A 1,1 0 1 1 2,4 1,1 0 1 1 4,4 z"
       transform="translate(0,1028.3622)"
       id="path3012"
       style="fill:#c0392b;fill-opacity:1;fill-rule:nonzero;stroke:none" />
    <path
       d="M 4,4 A 1,1 0 1 1 2,4 1,1 0 1 1 4,4 z"
       transform="translate(3,1028.3622)"
       id="path3012-3"
       style="fill:#27ae60;fill-opacity:1;fill-rule:nonzero;stroke:none" />
    <path
       d="M 4,4 A 1,1 0 1 1 2,4 1,1 0 1 1 4,4 z"
       transform="translate(6,1028.3622)"
       id="path3012-3-3"
       style="fill:#f39c12;fill-opacity:1;fill-rule:nonzero;stroke:none" />
    <path
       style="fill:#bdc3c7;fill-opacity:1;fill-rule:nonzero;stroke:none"
       d="M 3,1036.3622 3,1037.3622 3,1047.3622 3,1048.3622 4,1048.3622 6,1048.3622 8,1048.3622 8,1036.3622 6,1036.3622 4,1036.3622 z M 9,1036.3622 9,1037.3622 9,1039.3622 21,1039.3622 21,1037.3622 21,1036.3622 20,1036.3622 10,1036.3622 z M 9,1040.3622 9,1048.3622 10,1048.3622 20,1048.3622 21,1048.3622 21,1047.3622 21,1041.3622 21,1040.3622 20,1040.3622 10,1040.3622 z"
       id="path2992"
       inkscape:connector-curvature="0"
       sodipodi:nodetypes="ccccccccccccccccccccccccccccccc" />
  </g>
</svg>
