<?xml version="1.0" encoding="UTF-8" standalone="no"?>
<!-- Created with Inkscape (http://www.inkscape.org/) -->

<svg
   xmlns:dc="http://purl.org/dc/elements/1.1/"
   xmlns:cc="http://creativecommons.org/ns#"
   xmlns:rdf="http://www.w3.org/1999/02/22-rdf-syntax-ns#"
   xmlns:svg="http://www.w3.org/2000/svg"
   xmlns="http://www.w3.org/2000/svg"
   xmlns:sodipodi="http://sodipodi.sourceforge.net/DTD/sodipodi-0.dtd"
   xmlns:inkscape="http://www.inkscape.org/namespaces/inkscape"
   version="1.1"
   width="24"
   height="24"
   id="svg2"
   inkscape:version="0.48.3.1 r9886"
   sodipodi:docname="wine.svg">
  <sodipodi:namedview
     pagecolor="#ffffff"
     bordercolor="#666666"
     borderopacity="1"
     objecttolerance="10"
     gridtolerance="10"
     guidetolerance="10"
     inkscape:pageopacity="0"
     inkscape:pageshadow="2"
     inkscape:window-width="1920"
     inkscape:window-height="1150"
     id="namedview4778"
     showgrid="true"
     inkscape:zoom="39.333332"
     inkscape:cx="12.853596"
     inkscape:cy="11.831435"
     inkscape:window-x="0"
     inkscape:window-y="0"
     inkscape:window-maximized="1"
     inkscape:current-layer="svg2">
    <inkscape:grid
       type="xygrid"
       id="grid4133"
       empspacing="4"
       visible="true"
       enabled="true"
       snapvisiblegridlinesonly="true" />
  </sodipodi:namedview>
  <defs
     id="defs4" />
  <metadata
     id="metadata7">
    <rdf:RDF>
      <cc:Work
         rdf:about="">
        <dc:format>image/svg+xml</dc:format>
        <dc:type
           rdf:resource="http://purl.org/dc/dcmitype/StillImage" />
        <dc:title />
      </cc:Work>
    </rdf:RDF>
  </metadata>
  <rect
     style="fill:#ecf0f1;fill-opacity:1;fill-rule:nonzero;stroke:none"
     id="rect3102"
     width="12"
     height="6"
     x="6"
     y="1" />
  <path
     inkscape:connector-curvature="0"
     id="rect3042"
     d="M 11,14 13,14 13,16 11,16 z"
     style="fill:#7f8c8d;fill-opacity:1;fill-rule:nonzero;stroke:none" />
  <path
     style="fill:#bdc3c7;fill-opacity:1;fill-rule:nonzero;stroke:none"
     d="M 6 1 L 6 2 L 6 9 C 6 12.3137 8.686292 15 12 15 C 15.313708 15 18 12.3137 18 9 L 18 2 L 18 1 L 17 1 L 17 2 L 17 8.46875 C 17 11.52745 14.761424 14 12 14 C 9.2385766 14 7 11.52745 7 8.46875 L 7 2 L 7 1 L 6 1 z "
     id="path2997" />
  <path
     inkscape:connector-curvature="0"
     id="path2997-5-1"
     d="M 7,6 7,7 7,8 7,8.46875 C 7,11.52745 9.238577,14 12,14 14.761424,14 17,11.52745 17,8.46875 L 17,8 17,7 17,6 7,6 z"
     style="fill:#e74c3c;fill-opacity:1;fill-rule:nonzero;stroke:none" />
  <path
     inkscape:connector-curvature="0"
     id="rect3044"
     d="M 11,16 13,16 13,22 11,22 z"
     style="fill:#95a5a6;fill-opacity:1;fill-rule:nonzero;stroke:none" />
  <path
     inkscape:connector-curvature="0"
     id="rect3046"
     d="M 7,22 17,22 17,23 7,23 z"
     style="fill:#bdc3c7;fill-opacity:1;fill-rule:nonzero;stroke:none" />
  <path
     inkscape:connector-curvature="0"
     id="rect3052-9"
     d="M 7,6 17,6 17,7 7,7 z"
     style="fill:#c0392b;fill-opacity:1;fill-rule:nonzero;stroke:none" />
  <path
     style="fill:#ecf0f1;fill-opacity:1;fill-rule:nonzero;stroke:none"
     d="M 7 2 L 7 9 C 7 11.761424 9.2385762 14 12 14 C 14.761424 14 17 11.761424 17 9 L 17 2 L 16 2 L 16 6.03125 L 16 9 C 16 11.209139 14.209139 13 12 13 C 9.790861 13 8 11.209139 8 9 L 8 6.03125 L 8 2 L 7 2 z "
     id="path3007" />
</svg>
