<?xml version="1.0" encoding="UTF-8" standalone="no"?>
<!-- Created with Inkscape (http://www.inkscape.org/) -->

<svg
   xmlns:dc="http://purl.org/dc/elements/1.1/"
   xmlns:cc="http://creativecommons.org/ns#"
   xmlns:rdf="http://www.w3.org/1999/02/22-rdf-syntax-ns#"
   xmlns:svg="http://www.w3.org/2000/svg"
   xmlns="http://www.w3.org/2000/svg"
   xmlns:sodipodi="http://sodipodi.sourceforge.net/DTD/sodipodi-0.dtd"
   xmlns:inkscape="http://www.inkscape.org/namespaces/inkscape"
   width="24"
   height="24"
   id="svg2"
   version="1.1"
   inkscape:version="0.48.3.1 r9886"
   sodipodi:docname="wrench-screw.svg">
  <defs
     id="defs4" />
  <sodipodi:namedview
     id="base"
     pagecolor="#ffffff"
     bordercolor="#666666"
     borderopacity="1.0"
     inkscape:pageopacity="0.0"
     inkscape:pageshadow="2"
     inkscape:zoom="22.627417"
     inkscape:cx="29.928274"
     inkscape:cy="12.143834"
     inkscape:document-units="px"
     inkscape:current-layer="text2993"
     showgrid="true"
     inkscape:window-width="1920"
     inkscape:window-height="1150"
     inkscape:window-x="0"
     inkscape:window-y="0"
     inkscape:window-maximized="1"
     inkscape:snap-nodes="true"
     inkscape:snap-bbox="false"
     inkscape:snap-global="true">
    <inkscape:grid
       type="xygrid"
       id="grid2985"
       empspacing="4"
       visible="true"
       enabled="true"
       snapvisiblegridlinesonly="true" />
  </sodipodi:namedview>
  <metadata
     id="metadata7">
    <rdf:RDF>
      <cc:Work
         rdf:about="">
        <dc:format>image/svg+xml</dc:format>
        <dc:type
           rdf:resource="http://purl.org/dc/dcmitype/StillImage" />
        <dc:title />
      </cc:Work>
    </rdf:RDF>
  </metadata>
  <g
     inkscape:label="Layer 1"
     inkscape:groupmode="layer"
     id="layer1"
     transform="translate(0,-1028.3622)">
    <g
       style="font-size:8px;font-style:normal;font-variant:normal;font-weight:normal;font-stretch:normal;text-align:end;line-height:125%;letter-spacing:0px;word-spacing:0px;text-anchor:end;fill:#2980b9;fill-opacity:1;stroke:none;font-family:FontAwesome;-inkscape-font-specification:FontAwesome"
       id="text2993">
      <g
         id="g2993"
         transform="translate(-1,0)">
        <path
           id="path4171-6-6-5"
           d="M 6.09375,1029.456 6.09375,1030.456 9.9999992,1034.3622 9,1037.3622 6,1038.3622 2.09375,1034.456 C 2.038619,1034.7533 2,1035.0489 2,1035.3622 2,1035.4482 1.995713,1035.5273 2,1035.6122 1.996263,1035.6954 2,1035.7781 2,1035.8622 2,1038.8998 4.462434,1041.3622 7.5,1041.3622 7.958747,1041.3622 8.38649,1041.2805 8.8125,1041.1747 L 10.968749,1043.331 14.999999,1047.3622 17.999999,1050.3622 C 18.507066,1050.9013 19.21435,1051.2372 19.999999,1051.2372 21.540916,1051.2372 22.781249,1049.9519 22.781249,1048.3622 22.781249,1047.5838 22.486602,1046.8803 21.999999,1046.3622 L 21.968749,1046.331 18.999999,1043.3622 14.968749,1039.331 12.812499,1037.1747 C 12.918326,1036.7487 12.999999,1036.3209 12.999999,1035.8622 12.999999,1032.8246 10.537565,1030.3622 7.5,1030.3622 7.415883,1030.3622 7.333195,1030.3585 7.25,1030.3622 7.196941,1030.3595 7.145385,1030.3613 7.09375,1030.3622 L 7.09375,1029.456 6.09375,1029.456 z M 19.999999,1046.8622 C 20.828426,1046.8622 21.499999,1047.5338 21.499999,1048.3622 21.499999,1049.1906 20.828426,1049.8622 19.999999,1049.8622 19.171572,1049.8622 18.499999,1049.1906 18.499999,1048.3622 18.499999,1047.5338 19.171572,1046.8622 19.999999,1046.8622 z"
           style="font-size:8px;font-style:normal;font-variant:normal;font-weight:normal;font-stretch:normal;text-align:end;line-height:125%;letter-spacing:0px;word-spacing:0px;text-anchor:end;fill:#7f8c8d;fill-opacity:1;fill-rule:nonzero;stroke:none;font-family:FontAwesome;-inkscape-font-specification:FontAwesome"
           inkscape:connector-curvature="0" />
        <path
           id="path4171-6-3"
           d="M 7,1029.3622 C 6.686684,1029.3622 6.391097,1029.4008 6.09375,1029.456 L 9.9999992,1033.3622 9,1036.3622 6,1037.3622 2.09375,1033.456 C 2.038619,1033.7533 2,1034.0489 2,1034.3622 2,1034.4482 1.995713,1034.5273 2,1034.6122 1.996263,1034.6954 2,1034.7781 2,1034.8622 2,1037.8998 4.462434,1040.3622 7.5,1040.3622 7.958747,1040.3622 8.386489,1040.2805 8.8125,1040.1747 L 10.968749,1042.331 14.999999,1046.3622 17.999999,1049.3622 C 18.507066,1049.9013 19.21435,1050.2372 19.999999,1050.2372 21.540916,1050.2372 22.781249,1048.9519 22.781249,1047.3622 22.781249,1046.5838 22.486602,1045.8803 21.999999,1045.3622 L 21.968749,1045.331 18.999999,1042.3622 14.968749,1038.331 12.812499,1036.1747 C 12.918326,1035.7487 12.999999,1035.3209 12.999999,1034.8622 12.999999,1031.8246 10.537565,1029.3622 7.5,1029.3622 7.415883,1029.3622 7.333195,1029.3585 7.25,1029.3622 7.165106,1029.3579 7.085959,1029.3622 7,1029.3622 z M 19.999999,1045.8622 C 20.828426,1045.8622 21.499999,1046.5338 21.499999,1047.3622 21.499999,1048.1906 20.828426,1048.8622 19.999999,1048.8622 19.171572,1048.8622 18.499999,1048.1906 18.499999,1047.3622 18.499999,1046.5338 19.171572,1045.8622 19.999999,1045.8622 z"
           style="font-size:8px;font-style:normal;font-variant:normal;font-weight:normal;font-stretch:normal;text-align:end;line-height:125%;letter-spacing:0px;word-spacing:0px;text-anchor:end;fill:#95a5a6;fill-opacity:1;fill-rule:nonzero;stroke:none;font-family:FontAwesome;-inkscape-font-specification:FontAwesome"
           inkscape:connector-curvature="0" />
      </g>
      <path
         style="font-size:8px;font-style:normal;font-variant:normal;font-weight:normal;font-stretch:normal;text-align:end;line-height:125%;letter-spacing:0px;word-spacing:0px;text-anchor:end;fill:#7f8c8d;fill-opacity:1;fill-rule:nonzero;stroke:none;font-family:FontAwesome;-inkscape-font-specification:FontAwesome"
         d="M 11,1038.3622 9.03125,1040.331 9,1040.3622 C 9.007424,1040.3816 8.993619,1040.4047 9,1040.4247 8.998763,1040.4354 8.997065,1040.4458 9,1040.456 9.076823,1040.722 9.063339,1041.0357 9,1041.3622 L 9.96875,1042.331 12,1044.3622 C 12.364677,1044.2888 12.7188,1044.255 13,1044.3622 L 15,1042.3622 14.5,1041.8622 13.5,1040.8622 15,1039.3622 14,1038.3622 12.5,1039.8622 11,1038.3622 z"
         id="path4171-6-3-8"
         inkscape:connector-curvature="0" />
      <path
         style="font-size:8px;font-style:normal;font-variant:normal;font-weight:normal;font-stretch:normal;text-align:end;line-height:125%;letter-spacing:0px;word-spacing:0px;text-anchor:end;fill:#bdc3c7;fill-opacity:1;stroke:none;font-family:FontAwesome;-inkscape-font-specification:FontAwesome"
         d="M 11.499999,1039.8622 12.499999,1040.8622 21.499999,1031.8622 20.499999,1030.8622 z"
         id="path3013-4"
         inkscape:connector-curvature="0"
         sodipodi:nodetypes="ccccc" />
      <path
         style="font-size:8px;font-style:normal;font-variant:normal;font-weight:normal;font-stretch:normal;text-align:end;line-height:125%;letter-spacing:0px;word-spacing:0px;text-anchor:end;fill:#95a5a6;fill-opacity:1;stroke:none;font-family:FontAwesome;-inkscape-font-specification:FontAwesome"
         d="M 20.999999,1031.3622 11.999999,1040.3622 12.499999,1040.8622 21.499999,1031.8622 20.999999,1031.3622 z"
         id="path3013-0-3"
         inkscape:connector-curvature="0" />
      <path
         inkscape:connector-curvature="0"
         style="font-size:8px;font-style:normal;font-variant:normal;font-weight:normal;font-stretch:normal;text-align:end;line-height:125%;letter-spacing:0px;word-spacing:0px;text-anchor:end;fill:#95a5a6;fill-opacity:1;stroke:none;font-family:FontAwesome;-inkscape-font-specification:FontAwesome"
         d="M 21.999999,1029.3622 19.499999,1030.8622 21.499999,1032.8622 22.999999,1030.3622 21.999999,1029.3622 z"
         id="path3822-9" />
      <path
         style="font-size:8px;font-style:normal;font-variant:normal;font-weight:normal;font-stretch:normal;text-align:end;line-height:125%;letter-spacing:0px;word-spacing:0px;text-anchor:end;fill:#f39c12;fill-opacity:1;fill-rule:nonzero;stroke:none;font-family:FontAwesome;-inkscape-font-specification:FontAwesome"
         d="M 10.999999,1037.3622 9,1039.3622 C 9.337434,1040.2452 8.584096,1041.7787 8,1042.3622 7.415918,1042.9458 5.884013,1043.6992 5,1043.3622 L 1,1047.3622 5,1051.3622 9,1047.3622 C 8.662645,1046.4791 9.415906,1044.9457 9.9999992,1044.3622 10.584095,1043.7788 12.11605,1043.0251 12.999999,1043.3622 L 14.999999,1041.3622 z"
         id="rect3007-2"
         inkscape:connector-curvature="0"
         sodipodi:nodetypes="ccccccccccc" />
      <path
         style="font-size:8px;font-style:normal;font-variant:normal;font-weight:normal;font-stretch:normal;text-align:end;line-height:125%;letter-spacing:0px;word-spacing:0px;text-anchor:end;fill:#f1c40f;fill-opacity:1;fill-rule:nonzero;stroke:none;font-family:FontAwesome;-inkscape-font-specification:FontAwesome"
         d="M 10.999999,1037.3622 9,1039.3622 C 9.337434,1040.2452 8.584096,1041.7787 8,1042.3622 7.415918,1042.9458 5.884013,1043.6992 5,1043.3622 L 1,1047.3622 3,1049.3622 12.999999,1039.3622 10.999999,1037.3622 z"
         id="rect3007-0-0"
         inkscape:connector-curvature="0" />
      <path
         style="font-size:8px;font-style:normal;font-variant:normal;font-weight:normal;font-stretch:normal;text-align:end;line-height:125%;letter-spacing:0px;word-spacing:0px;text-anchor:end;fill:#e67e22;fill-opacity:1;fill-rule:nonzero;stroke:none;font-family:FontAwesome;-inkscape-font-specification:FontAwesome"
         d="M 9.03125,1039.331 9,1039.3622 C 9.011135,1039.3913 8.991195,1039.4255 9,1039.456 9.009792,1039.4146 9.02323,1039.372 9.03125,1039.331 z M 14.499999,1040.8622 12.999999,1042.3622 C 12.11605,1042.0251 10.584095,1042.7788 9.9999992,1043.3622 9.435181,1043.9264 8.742056,1045.3747 9,1046.2685 9.17592,1045.5247 9.619609,1044.7422 9.9999992,1044.3622 10.584095,1043.7788 12.11605,1043.0251 12.999999,1043.3622 L 14.999999,1041.3622 14.499999,1040.8622 z M 8.96875,1046.3935 5,1050.3622 1.5,1046.8622 1,1047.3622 5,1051.3622 9,1047.3622 C 8.894577,1047.0862 8.899608,1046.7476 8.96875,1046.3935 z"
         id="rect3007-6-3"
         inkscape:connector-curvature="0" />
    </g>
  </g>
</svg>
