<?xml version="1.0" encoding="UTF-8" standalone="no"?>
<!-- Created with Inkscape (http://www.inkscape.org/) -->

<svg
   xmlns:dc="http://purl.org/dc/elements/1.1/"
   xmlns:cc="http://creativecommons.org/ns#"
   xmlns:rdf="http://www.w3.org/1999/02/22-rdf-syntax-ns#"
   xmlns:svg="http://www.w3.org/2000/svg"
   xmlns="http://www.w3.org/2000/svg"
   xmlns:sodipodi="http://sodipodi.sourceforge.net/DTD/sodipodi-0.dtd"
   xmlns:inkscape="http://www.inkscape.org/namespaces/inkscape"
   width="24"
   height="24"
   id="svg2"
   version="1.1"
   inkscape:version="0.48.3.1 r9886"
   sodipodi:docname="wrench.svg">
  <defs
     id="defs4" />
  <sodipodi:namedview
     id="base"
     pagecolor="#ffffff"
     bordercolor="#666666"
     borderopacity="1.0"
     inkscape:pageopacity="0.0"
     inkscape:pageshadow="2"
     inkscape:zoom="16"
     inkscape:cx="15.044951"
     inkscape:cy="5.4866044"
     inkscape:document-units="px"
     inkscape:current-layer="text2993"
     showgrid="true"
     inkscape:window-width="1920"
     inkscape:window-height="1150"
     inkscape:window-x="0"
     inkscape:window-y="0"
     inkscape:window-maximized="1"
     inkscape:snap-nodes="false"
     inkscape:snap-bbox="true"
     inkscape:snap-global="false">
    <inkscape:grid
       type="xygrid"
       id="grid2985"
       empspacing="4"
       visible="true"
       enabled="true"
       snapvisiblegridlinesonly="true" />
  </sodipodi:namedview>
  <metadata
     id="metadata7">
    <rdf:RDF>
      <cc:Work
         rdf:about="">
        <dc:format>image/svg+xml</dc:format>
        <dc:type
           rdf:resource="http://purl.org/dc/dcmitype/StillImage" />
        <dc:title />
      </cc:Work>
    </rdf:RDF>
  </metadata>
  <g
     inkscape:label="Layer 1"
     inkscape:groupmode="layer"
     id="layer1"
     transform="translate(0,-1028.3622)">
    <g
       style="font-size:8px;font-style:normal;font-variant:normal;font-weight:normal;font-stretch:normal;text-align:end;line-height:125%;letter-spacing:0px;word-spacing:0px;text-anchor:end;fill:#2980b9;fill-opacity:1;stroke:none;font-family:FontAwesome;-inkscape-font-specification:FontAwesome"
       id="text2993">
      <path
         style="font-size:8px;font-style:normal;font-variant:normal;font-weight:normal;font-stretch:normal;text-align:end;line-height:125%;letter-spacing:0px;word-spacing:0px;text-anchor:end;fill:#7f8c8d;fill-opacity:1;fill-rule:nonzero;stroke:none;font-family:FontAwesome;-inkscape-font-specification:FontAwesome"
         d="M 6.6401952,1031.3792 C 8.0502132,1031.2658 9.4850862,1031.7176 10.567109,1032.7997 11.885393,1034.1178 12.295344,1035.9648 11.84823,1037.6456 L 21.261684,1047.0591 C 22.246119,1048.0436 22.246092,1049.6395 21.261684,1050.6239 20.277276,1051.6083 18.681261,1051.6083 17.696826,1050.6239 L 8.2833722,1041.2104 C 6.6026392,1041.6575 4.7556772,1041.2476 3.4373942,1039.9293 2.3553692,1038.8472 1.9035422,1037.4125 2.0170192,1036.0024 L 2.5461782,1035.4733 6.1110362,1039.0382 8.7846802,1038.1469 9.6758942,1035.4733 6.1110362,1031.9085 6.6401952,1031.3792 z M 18.58804,1047.9503 C 18.095836,1048.4424 18.095822,1049.2405 18.58804,1049.7327 19.080258,1050.2248 19.878265,1050.2248 20.370469,1049.7327 20.862673,1049.2405 20.862687,1048.4424 20.370469,1047.9503 19.878251,1047.4582 19.080244,1047.4582 18.58804,1047.9503 z"
         id="path2997-8"
         inkscape:connector-curvature="0" />
      <path
         style="fill:#95a5a6;fill-opacity:1;fill-rule:nonzero;stroke:none"
         d="M 6.6401952,1030.3792 C 8.0502132,1030.2658 9.4850862,1030.7176 10.567109,1031.7997 11.885393,1033.1178 12.295344,1034.9648 11.84823,1036.6456 L 21.261684,1046.0591 C 22.246119,1047.0436 22.246092,1048.6395 21.261684,1049.6239 20.277276,1050.6083 18.681261,1050.6083 17.696826,1049.6239 L 8.2833722,1040.2104 C 6.6026392,1040.6575 4.7556772,1040.2476 3.4373942,1038.9293 2.3553692,1037.8472 1.9035422,1036.4125 2.0170192,1035.0024 L 2.5461782,1034.4733 6.1110362,1038.0382 8.7846802,1037.1469 9.6758942,1034.4733 6.1110362,1030.9085 6.6401952,1030.3792 z M 18.58804,1046.9503 C 18.095836,1047.4424 18.095822,1048.2405 18.58804,1048.7327 19.080258,1049.2248 19.878265,1049.2248 20.370469,1048.7327 20.862673,1048.2405 20.862687,1047.4424 20.370469,1046.9503 19.878251,1046.4582 19.080244,1046.4582 18.58804,1046.9503 z"
         id="path2997"
         inkscape:connector-curvature="0" />
      <path
         style="font-size:8px;font-style:normal;font-variant:normal;font-weight:normal;font-stretch:normal;text-align:end;line-height:125%;letter-spacing:0px;word-spacing:0px;text-anchor:end;fill:#7f8c8d;fill-opacity:1;fill-rule:nonzero;stroke:none;font-family:FontAwesome;-inkscape-font-specification:FontAwesome"
         d="M 11.855393,1036.6833 11.980393,1036.8083 C 11.826439,1038.6738 10.650445,1040.2433 9.0116432,1040.9645 L 8.2928932,1040.2458 8.2928932,1040.1833 C 10.013326,1039.7181 11.39732,1038.4024 11.855393,1036.6833 z"
         id="path2997-0"
         inkscape:connector-curvature="0" />
    </g>
  </g>
</svg>
