<?xml version="1.0" encoding="UTF-8" standalone="no"?>
<!-- Created with Inkscape (http://www.inkscape.org/) -->

<svg
   xmlns:dc="http://purl.org/dc/elements/1.1/"
   xmlns:cc="http://creativecommons.org/ns#"
   xmlns:rdf="http://www.w3.org/1999/02/22-rdf-syntax-ns#"
   xmlns:svg="http://www.w3.org/2000/svg"
   xmlns="http://www.w3.org/2000/svg"
   xmlns:sodipodi="http://sodipodi.sourceforge.net/DTD/sodipodi-0.dtd"
   xmlns:inkscape="http://www.inkscape.org/namespaces/inkscape"
   width="24"
   height="24"
   id="svg2"
   version="1.1"
   inkscape:version="0.48.3.1 r9886"
   sodipodi:docname="wrench.svg">
  <defs
     id="defs4" />
  <sodipodi:namedview
     id="base"
     pagecolor="#ffffff"
     bordercolor="#666666"
     borderopacity="1.0"
     inkscape:pageopacity="0.0"
     inkscape:pageshadow="2"
     inkscape:zoom="45.254834"
     inkscape:cx="22.837917"
     inkscape:cy="7.1160329"
     inkscape:document-units="px"
     inkscape:current-layer="text2993"
     showgrid="true"
     inkscape:window-width="1920"
     inkscape:window-height="1150"
     inkscape:window-x="0"
     inkscape:window-y="0"
     inkscape:window-maximized="1"
     inkscape:snap-nodes="true"
     inkscape:snap-bbox="true"
     inkscape:snap-global="false">
    <inkscape:grid
       type="xygrid"
       id="grid2985"
       empspacing="4"
       visible="true"
       enabled="true"
       snapvisiblegridlinesonly="true" />
  </sodipodi:namedview>
  <metadata
     id="metadata7">
    <rdf:RDF>
      <cc:Work
         rdf:about="">
        <dc:format>image/svg+xml</dc:format>
        <dc:type
           rdf:resource="http://purl.org/dc/dcmitype/StillImage" />
        <dc:title />
      </cc:Work>
    </rdf:RDF>
  </metadata>
  <g
     inkscape:label="Layer 1"
     inkscape:groupmode="layer"
     id="layer1"
     transform="translate(0,-1028.3622)">
    <g
       style="font-size:8px;font-style:normal;font-variant:normal;font-weight:normal;font-stretch:normal;text-align:end;line-height:125%;letter-spacing:0px;word-spacing:0px;text-anchor:end;fill:#2980b9;fill-opacity:1;stroke:none;font-family:FontAwesome;-inkscape-font-specification:FontAwesome"
       id="text2993">
      <path
         style="font-size:8px;font-style:normal;font-variant:normal;font-weight:normal;font-stretch:normal;text-align:end;line-height:125%;letter-spacing:0px;word-spacing:0px;text-anchor:end;fill:#7f8c8d;fill-opacity:1;stroke:none;font-family:FontAwesome;-inkscape-font-specification:FontAwesome"
         d="M 5.28125 1.28125 L 5.28125 2.28125 L 10 7 L 9 10 L 6 11 L 1.28125 6.28125 C 1.117355 6.82785 1 7.4 1 8 C 1 11.3137 3.6862915 14 7 14 C 7.599957 14 8.172146 13.88255 8.71875 13.71875 C 10.480129 15.47805 12.238313 17.2412 14 19 L 18 23 C 18.513316 23.5119 19.216706 23.84375 20 23.84375 C 21.566589 23.84375 22.84375 22.5623 22.84375 21 C 22.84375 20.2189 22.513316 19.5119 22 19 L 18 15 C 16.239455 13.2395 14.479528 11.47905 12.71875 9.71875 C 12.882645 9.17205 13 8.6 13 8 C 13 4.6863 10.313709 2 7 2 C 6.754116 2 6.5179562 2.0279423 6.28125 2.0625 L 6.28125 1.28125 L 5.28125 1.28125 z M 20 19.5 C 20.828427 19.5 21.5 20.1716 21.5 21 C 21.5 21.8284 20.828427 22.5 20 22.5 C 19.171573 22.5 18.5 21.8284 18.5 21 C 18.5 20.1716 19.171573 19.5 20 19.5 z "
         transform="translate(0,1028.3622)"
         id="path2988-1" />
      <path
         style="fill:#95a5a6;fill-opacity:1;stroke:none"
         d="M 7,1029.3622 C 6.4000431,1029.3622 5.8278539,1029.4796 5.28125,1029.6435 L 10,1034.3622 9,1037.3622 6,1038.3622 1.28125,1033.6435 C 1.117355,1034.1901 1,1034.7622 1,1035.3622 1,1038.6759 3.6862915,1041.3622 7,1041.3622 7.5999569,1041.3622 8.1721461,1041.2448 8.71875,1041.081 10.480129,1042.8403 12.238313,1044.6034 14,1046.3622 L 18,1050.3622 C 18.513316,1050.8741 19.216706,1051.206 20,1051.206 21.566589,1051.206 22.84375,1049.9245 22.84375,1048.3622 22.84375,1047.5811 22.513316,1046.8741 22,1046.3622 L 18,1042.3622 C 16.239455,1040.6017 14.479528,1038.8413 12.71875,1037.081 12.882645,1036.5343 13,1035.9622 13,1035.3622 13,1032.0485 10.313709,1029.3622 7,1029.3622 z M 20,1046.8622 C 20.828427,1046.8622 21.5,1047.5338 21.5,1048.3622 21.5,1049.1906 20.828427,1049.8622 20,1049.8622 19.171573,1049.8622 18.5,1049.1906 18.5,1048.3622 18.5,1047.5338 19.171573,1046.8622 20,1046.8622 z"
         id="path2988"
         inkscape:connector-curvature="0" />
    </g>
  </g>
</svg>
