<?xml version="1.0" encoding="UTF-8" standalone="no"?>
<!-- Created with Inkscape (http://www.inkscape.org/) -->

<svg
   xmlns:dc="http://purl.org/dc/elements/1.1/"
   xmlns:cc="http://creativecommons.org/ns#"
   xmlns:rdf="http://www.w3.org/1999/02/22-rdf-syntax-ns#"
   xmlns:svg="http://www.w3.org/2000/svg"
   xmlns="http://www.w3.org/2000/svg"
   xmlns:sodipodi="http://sodipodi.sourceforge.net/DTD/sodipodi-0.dtd"
   xmlns:inkscape="http://www.inkscape.org/namespaces/inkscape"
   version="1.1"
   width="24"
   height="24"
   id="svg2"
   inkscape:version="0.48.3.1 r9886"
   sodipodi:docname="wrench.svg">
  <sodipodi:namedview
     pagecolor="#ffffff"
     bordercolor="#666666"
     borderopacity="1"
     objecttolerance="10"
     gridtolerance="10"
     guidetolerance="10"
     inkscape:pageopacity="0"
     inkscape:pageshadow="2"
     inkscape:window-width="1920"
     inkscape:window-height="1150"
     id="namedview4811"
     showgrid="false"
     inkscape:zoom="9.8333333"
     inkscape:cx="12"
     inkscape:cy="12"
     inkscape:window-x="0"
     inkscape:window-y="0"
     inkscape:window-maximized="1"
     inkscape:current-layer="text2993" />
  <defs
     id="defs4" />
  <metadata
     id="metadata7">
    <rdf:RDF>
      <cc:Work
         rdf:about="">
        <dc:format>image/svg+xml</dc:format>
        <dc:type
           rdf:resource="http://purl.org/dc/dcmitype/StillImage" />
        <dc:title />
      </cc:Work>
    </rdf:RDF>
  </metadata>
  <g
     transform="translate(0,-1028.3622)"
     id="layer1">
    <g
       id="text2993"
       style="font-size:8px;font-style:normal;font-variant:normal;font-weight:normal;font-stretch:normal;text-align:end;line-height:125%;letter-spacing:0px;word-spacing:0px;text-anchor:end;fill:#2980b9;fill-opacity:1;stroke:none;font-family:FontAwesome;-inkscape-font-specification:FontAwesome">
      <path
         d="M 17.359805,1031.3792 C 15.949787,1031.2658 14.514914,1031.7176 13.432891,1032.7997 12.114607,1034.1178 11.704656,1035.9648 12.15177,1037.6456 L 2.7383165,1047.0591 C 1.7538809,1048.0436 1.7539081,1049.6395 2.7383165,1050.6239 3.7227245,1051.6083 5.3187391,1051.6083 6.3031745,1050.6239 L 15.716628,1041.2104 C 17.397361,1041.6575 19.244323,1041.2476 20.562606,1039.9293 21.644631,1038.8472 22.096458,1037.4125 21.982981,1036.0024 L 21.453822,1035.4733 17.888964,1039.0382 15.21532,1038.1469 14.324106,1035.4733 17.888964,1031.9085 17.359805,1031.3792 z M 5.41196,1047.9503 C 5.9041644,1048.4424 5.9041778,1049.2405 5.41196,1049.7327 4.9197422,1050.2248 4.1217354,1050.2248 3.6295311,1049.7327 3.1373269,1049.2405 3.1373133,1048.4424 3.6295311,1047.9503 4.1217487,1047.4582 4.9197559,1047.4582 5.41196,1047.9503 z"
         inkscape:connector-curvature="0"
         id="path2997-8"
         style="font-size:8px;font-style:normal;font-variant:normal;font-weight:normal;font-stretch:normal;text-align:end;line-height:125%;letter-spacing:0px;word-spacing:0px;text-anchor:end;fill:#7f8c8d;fill-opacity:1;fill-rule:nonzero;stroke:none;font-family:FontAwesome;-inkscape-font-specification:FontAwesome" />
      <path
         d="M 17.359805,1030.3792 C 15.949787,1030.2658 14.514914,1030.7176 13.432891,1031.7997 12.114607,1033.1178 11.704656,1034.9648 12.15177,1036.6456 L 2.7383165,1046.0591 C 1.7538809,1047.0436 1.7539081,1048.6395 2.7383165,1049.6239 3.7227245,1050.6083 5.3187391,1050.6083 6.3031745,1049.6239 L 15.716628,1040.2104 C 17.397361,1040.6575 19.244323,1040.2476 20.562606,1038.9293 21.644631,1037.8472 22.096458,1036.4125 21.982981,1035.0024 L 21.453822,1034.4733 17.888964,1038.0382 15.21532,1037.1469 14.324106,1034.4733 17.888964,1030.9085 17.359805,1030.3792 z M 5.41196,1046.9503 C 5.9041644,1047.4424 5.9041778,1048.2405 5.41196,1048.7327 4.9197422,1049.2248 4.1217354,1049.2248 3.6295311,1048.7327 3.1373269,1048.2405 3.1373133,1047.4424 3.6295311,1046.9503 4.1217487,1046.4582 4.9197559,1046.4582 5.41196,1046.9503 z"
         inkscape:connector-curvature="0"
         id="path2997"
         style="fill:#95a5a6;fill-opacity:1;fill-rule:nonzero;stroke:none" />
      <path
         d="M 12.144607,1036.6833 12.019607,1036.8083 C 12.173561,1038.6738 13.349555,1040.2433 14.988357,1040.9645 L 15.707107,1040.2458 15.707107,1040.1833 C 13.986674,1039.7181 12.60268,1038.4024 12.144607,1036.6833 z"
         inkscape:connector-curvature="0"
         id="path2997-0"
         style="font-size:8px;font-style:normal;font-variant:normal;font-weight:normal;font-stretch:normal;text-align:end;line-height:125%;letter-spacing:0px;word-spacing:0px;text-anchor:end;fill:#7f8c8d;fill-opacity:1;fill-rule:nonzero;stroke:none;font-family:FontAwesome;-inkscape-font-specification:FontAwesome" />
    </g>
  </g>
</svg>
